# https://github.com/mikedh/trimesh
v -0.00104213 -0.04379680 0.07353342
v 0.00157652 -0.04354653 0.07091659
v 0.00426568 -0.04324262 0.07111547
v 0.00420021 -0.04311749 0.07305192
v 0.00183839 -0.04336776 0.07379510
v -0.00104213 -0.04342139 0.07574202
v -0.00309173 -0.04326944 0.07545941
v -0.00384207 -0.04328731 0.07348108
v -0.00301115 -0.04301916 0.05582272
v -0.00103206 -0.04318006 0.05504814
v 0.00157652 -0.04334989 0.05519469
v 0.00420021 -0.04340352 0.05781151
v 0.00554982 -0.04279570 0.07245529
v 0.00595269 -0.04301023 0.05781151
v 0.00590737 -0.04300129 0.05949675
v 0.00420021 -0.04259012 0.07436034
v 0.00113840 -0.04313536 0.07542800
v -0.00104213 -0.04146389 0.07699810
v -0.00483917 -0.04240242 0.07430800
v -0.00503054 -0.04284040 0.07257043
v -0.00776501 -0.02195139 0.08800971
v -0.01057503 -0.02226424 0.08583251
v -0.00503054 -0.04284040 0.07174351
v -0.00648087 -0.04096334 0.05520515
v -0.00703481 -0.03982816 0.04471690
v -0.00684345 -0.03972984 0.04210008
v -0.00553412 -0.04042703 0.04210008
v -0.00366078 -0.04113317 0.04210008
v -0.00104213 -0.04174991 0.04210008
v 0.00157652 -0.04200913 0.04210008
v 0.00420021 -0.04192868 0.04210008
v 0.00681383 -0.04151752 0.04210008
v 0.00824401 -0.04030189 0.07496744
v 0.00726202 -0.04225940 0.05781151
v 0.00905982 -0.04094546 0.05781151
v 0.01383886 -0.03798685 0.04471690
v 0.00966916 -0.04060580 0.04198493
v 0.01083245 -0.04020357 0.04278045
v 0.01086770 -0.04022145 0.04471690
v -0.00731179 -0.02195139 0.08800971
v -0.01083690 -0.02249664 0.08402167
v -0.01276563 -0.03216797 0.04995056
v -0.01208579 -0.03359811 0.04995056
v -0.01084697 -0.03603829 0.04995056
v -0.01010166 -0.03735223 0.04995056
v -0.00765422 -0.04023039 0.05658684
v -0.00954268 -0.00120540 0.09344225
v -0.01152177 -0.00114283 0.09340038
v -0.01286635 -0.00088362 0.09321197
v -0.01377281 0.00046607 0.09188262
v -0.01469437 0.00046607 0.08925532
v -0.01157213 -0.02049444 0.08402167
v -0.00765422 -0.04023039 0.05608441
v -0.00865133 -0.03842484 0.04210008
v -0.00849522 -0.03824607 0.03948325
v -0.00820817 -0.03797792 0.03686642
v -0.00618879 -0.03965833 0.03930530
v -0.00524708 -0.04028402 0.04006942
v -0.00488450 -0.04012313 0.03832138
v -0.00387229 -0.04061474 0.03930530
v -0.00104213 -0.04132981 0.03948325
v 0.00157652 -0.04158008 0.03948325
v 0.00420021 -0.04150858 0.03948325
v 0.00681383 -0.04111529 0.03948325
v 0.00903968 -0.04048960 0.03948325
v 0.00859149 -0.03883600 0.07526053
v 0.01368779 -0.03785278 0.04733373
v 0.01514819 -0.03647627 0.04471690
v 0.01606472 -0.03502825 0.04650681
v 0.01629637 -0.03274002 0.05519469
v 0.01735894 -0.03097916 0.05519469
v 0.01854740 -0.02952221 0.05338384
v 0.01841143 -0.02853004 0.05545637
v 0.01860280 -0.02702839 0.05649263
v 0.01081734 -0.04019464 0.04671616
v 0.01217703 -0.03930080 0.04471690
v 0.01384894 -0.03798685 0.04210008
v 0.01516330 -0.03652096 0.04210008
v 0.01069648 -0.04013207 0.04103241
v 0.01184466 -0.03945275 0.04198493
v -0.00571038 -0.02049444 0.08770616
v -0.01322893 -0.03085402 0.04995056
v -0.01346058 -0.03097916 0.04471690
v -0.01282103 -0.03225735 0.04829673
v -0.01237283 -0.03335677 0.04738607
v -0.01874321 -0.00764104 0.06845677
v -0.01979067 -0.00477182 0.06829976
v -0.01095272 -0.03603829 0.04733373
v -0.01096783 -0.03600253 0.04471690
v -0.01097790 -0.03593997 0.04210008
v -0.01006641 -0.03734329 0.04733373
v -0.00479385 0.02213272 0.09596487
v -0.00639022 0.02132826 0.09618469
v -0.00869161 0.02150703 0.09617422
v -0.01152177 0.00046607 0.09358879
v -0.01035849 0.02244556 0.09594394
v -0.01287642 0.00046607 0.09322244
v -0.01287139 0.01496413 0.09322244
v -0.01372748 0.01356081 0.09188262
v -0.01465912 0.01356081 0.08925532
v -0.01987124 0.01617975 0.07091659
v -0.02014822 0.00046607 0.06829976
v -0.02005254 -0.00215287 0.06829976
v -0.01003116 -0.03731647 0.04471690
v -0.00996065 -0.03725391 0.04210008
v -0.00980454 -0.03713771 0.03948325
v -0.00951750 -0.03694106 0.03686642
v -0.01041388 -0.03510869 0.03220846
v -0.00881751 -0.03681593 0.03407165
v -0.00788587 -0.03772764 0.03483576
v -0.00628447 -0.03907734 0.03686642
v -0.00313705 -0.04038234 0.03731651
v -0.00648590 -0.03821925 0.03407165
v -0.00562477 -0.03779915 0.03162229
v -0.00387229 -0.03997118 0.03660474
v -0.00232124 -0.04014101 0.03556847
v -0.00128889 -0.04058792 0.03660474
v 0.00157652 -0.04093652 0.03686642
v 0.00420021 -0.04087395 0.03686642
v 0.00679368 -0.04048066 0.03680361
v 0.00851595 -0.04029296 0.03765147
v 0.01034901 -0.03998905 0.03948325
v 0.00898429 -0.03621706 0.07563735
v 0.00348512 -0.01787549 0.08354017
v 0.01619565 -0.03521596 0.04210008
v 0.01616040 -0.03516232 0.04471690
v 0.01711721 -0.03359811 0.04471690
v 0.01811935 -0.03145289 0.04733373
v 0.01864812 -0.02974566 0.05163580
v 0.01790281 -0.03076464 0.05253599
v 0.01887473 -0.02777028 0.05475506
v 0.01946393 -0.02836022 0.04995056
v 0.01904595 -0.02853004 0.05253599
v 0.01984162 -0.02574127 0.05257786
v 0.01904092 -0.02598260 0.05545637
v 0.02992343 0.02666448 0.04210008
v 0.02924862 0.02666448 0.04372251
v 0.02385017 0.03056161 0.05651357
v 0.01368275 -0.03781702 0.03948325
v 0.01518344 -0.03606510 0.03924250
v 0.01611508 -0.03509082 0.03996474
v 0.01223242 -0.03827288 0.03684548
v 0.01205617 -0.03897008 0.03948325
v 0.00294628 -0.01163650 0.08536148
v -0.01434690 -0.02836022 0.04471690
v -0.01451308 -0.02836022 0.04210008
v -0.01463394 -0.02836022 0.03948325
v -0.01356634 -0.03097916 0.04210008
v -0.01288146 -0.03240036 0.04471690
v -0.01292174 -0.03248975 0.04210008
v -0.01228219 -0.03371431 0.04471690
v -0.01974535 -0.00477182 0.06567247
v -0.01661304 -0.02049444 0.03423912
v -0.01610441 -0.02311338 0.03423912
v -0.01608427 -0.02311338 0.03686642
v -0.01563608 -0.02512452 0.03686642
v -0.01525839 -0.02625969 0.03948325
v -0.01228723 -0.03379475 0.04210008
v -0.01225197 -0.03383051 0.03948325
v -0.01094265 -0.03582376 0.03948325
v 0.00431604 0.02410810 0.09160000
v 0.00584190 0.02666448 0.09113944
v 0.00601816 0.02928343 0.09125458
v -0.00480392 0.02403659 0.09595440
v -0.00628447 0.02403659 0.09649871
v -0.00901391 0.02404553 0.09632076
v -0.01035849 0.02317851 0.09594394
v -0.01085200 0.02404553 0.09463552
v -0.01833027 0.02351817 0.07510352
v -0.01901011 0.02141765 0.07353342
v -0.01992160 0.00831398 0.06043881
v -0.01956909 0.01879870 0.07091659
v -0.01911586 0.01879870 0.04995056
v -0.01935759 0.01617975 0.04733373
v -0.01941298 0.01356081 0.03948325
v -0.01996693 0.00569503 0.06043881
v -0.02009282 0.00046607 0.06567247
v -0.01997196 -0.00215287 0.06567247
v -0.01083690 -0.03563606 0.03686642
v -0.01064050 -0.03535897 0.03423912
v -0.01272535 -0.03212327 0.03098379
v -0.01251384 -0.03184618 0.02899500
v -0.01120451 -0.03333889 0.02899500
v -0.01086711 -0.03294560 0.02637817
v -0.01015705 -0.03486736 0.03046042
v -0.00985490 -0.03465284 0.02899500
v -0.00749308 -0.03748631 0.03309819
v -0.00696935 -0.03465284 0.02329031
v -0.00522190 -0.03501037 0.02213891
v -0.00506579 -0.03756675 0.03019874
v -0.00366078 -0.03930973 0.03423912
v -0.00057379 -0.04027508 0.03520212
v -0.00427516 -0.03473328 0.02039087
v -0.00350467 -0.03438468 0.01869516
v -0.00252771 -0.03494780 0.01968956
v -0.00104213 -0.03506400 0.01936507
v 0.00157652 -0.04035552 0.03496137
v 0.00420021 -0.04031977 0.03504511
v 0.00590737 -0.04023039 0.03530679
v 0.00765482 -0.04005162 0.03590343
v 0.00943248 -0.03894326 0.03423912
v 0.00940730 -0.03972090 0.03680361
v 0.01153747 -0.03800473 0.03423912
v 0.00820876 -0.03005851 0.07753193
v 0.01717764 -0.03359811 0.04210008
v 0.01825028 -0.03164060 0.04471690
v 0.01887473 -0.03014789 0.04733373
v 0.01874380 -0.02990655 0.04995056
v 0.01975097 -0.02836022 0.04733373
v 0.02032003 -0.02574127 0.04995056
v 0.02088908 -0.02601836 0.04471690
v 0.02080347 -0.02551781 0.04714532
v 0.02124663 -0.02450777 0.04615093
v 0.03025580 0.02403659 0.03948325
v 0.03062342 0.02666448 0.03948325
v 0.02986803 0.02928343 0.04210008
v 0.02926373 0.02928343 0.04377485
v 0.02385017 0.03061524 0.05651357
v 0.01348132 -0.03763826 0.03771427
v 0.01439281 -0.03642264 0.03684548
v 0.01562660 -0.03442938 0.03423912
v 0.01586832 -0.03474222 0.03686642
v 0.01597911 -0.03489417 0.03821670
v 0.01651291 -0.03311543 0.03423912
v 0.01675967 -0.03385732 0.03924250
v 0.01322449 -0.03742374 0.03596623
v -0.01363180 -0.03097916 0.03948325
v -0.01529364 -0.02642952 0.03686642
v -0.01468430 -0.02836022 0.03686642
v -0.01294692 -0.03251656 0.03948325
v -0.01859213 -0.00477182 0.03162229
v -0.01833530 -0.00739077 0.03162229
v -0.01813387 -0.00924995 0.03162229
v -0.01798279 -0.01055495 0.03162229
v -0.01775618 -0.01263760 0.03423912
v -0.01700080 -0.01787549 0.03423912
v -0.01635621 -0.01263760 0.00541214
v -0.01604902 -0.02311338 0.03162229
v -0.01564111 -0.02514240 0.03423912
v -0.01529868 -0.02645634 0.03423912
v -0.01294692 -0.03249869 0.03686642
v -0.01290664 -0.03241824 0.03423912
v -0.01215126 -0.03381263 0.03686642
v -0.01286131 -0.03232886 0.03272136
v 0.00593758 0.03190237 0.09108711
v -0.00366078 0.03714027 0.09489721
v 0.02185597 0.03190237 0.06031320
v -0.00628447 0.03714027 0.09450992
v -0.00762905 0.03849890 0.09324337
v -0.01843099 0.02425111 0.07347062
v -0.01918637 0.02141765 0.07091659
v -0.01952880 0.01094186 0.04210008
v -0.01880868 0.02141765 0.05257786
v -0.01905040 0.01879870 0.04733373
v -0.01918637 0.01617975 0.03948325
v -0.01947845 0.01094186 0.03948325
v -0.01931226 0.01356081 0.03686642
v -0.01940291 0.01094186 0.03686642
v -0.01939284 0.00831398 0.03686642
v -0.01932233 0.00831398 0.03423912
v -0.01920147 0.00569503 0.03162229
v -0.01912090 0.00307608 0.03162229
v -0.01899500 0.00046607 0.03162229
v -0.01880868 -0.00215287 0.03162229
v -0.01332461 -0.03053224 0.02899500
v -0.01311814 -0.03013001 0.02637817
v -0.01294189 -0.02983505 0.02456733
v -0.01217644 -0.03144396 0.02637817
v -0.01046424 -0.03253444 0.02376134
v -0.01023763 -0.03231098 0.02237966
v -0.00925060 -0.03425061 0.02637817
v -0.00794127 -0.03511763 0.02637817
v -0.00760890 -0.03492099 0.02503835
v -0.00628447 -0.03340146 0.01851722
v -0.00617368 -0.03432212 0.02121778
v -0.00765926 -0.03232886 0.01710413
v -0.00518665 -0.03237355 0.01435123
v -0.00104213 -0.03463496 0.01804619
v 0.00157652 -0.03516232 0.01905105
v -0.00366078 -0.03337465 0.01590039
v -0.00104213 -0.03389307 0.01590039
v 0.00420021 -0.03512657 0.01917666
v 0.00604334 -0.03501931 0.01950115
v 0.00687426 -0.03535003 0.02099797
v 0.00779078 -0.03484054 0.02002451
v 0.00767496 -0.03745055 0.02793780
v 0.00872746 -0.03772764 0.02968584
v 0.00953823 -0.03804942 0.03153856
v 0.01047490 -0.03743268 0.03060696
v 0.01106914 -0.03770977 0.03235501
v 0.01284680 -0.03718240 0.03423912
v 0.01335542 -0.03490311 0.02771799
v 0.01827546 -0.03164954 0.04210008
v 0.01816468 -0.03140820 0.03948325
v 0.01895531 -0.03032666 0.04471690
v 0.01992723 -0.02836022 0.04471690
v 0.02088908 -0.02615243 0.04210008
v 0.02137756 -0.02484743 0.04210008
v 0.02131713 -0.02470442 0.04471690
v 0.02181568 -0.02311338 0.04210008
v 0.03054284 0.01879870 0.03162229
v 0.03028098 0.01879870 0.03423912
v 0.03072917 0.02141765 0.03423912
v 0.03031623 0.02141765 0.03686642
v 0.03069895 0.02403659 0.03686642
v 0.03097593 0.02666448 0.03686642
v 0.03088024 0.02928343 0.03686642
v 0.03050255 0.02928343 0.03948325
v 0.02914287 0.03065100 0.04354456
v 0.02314515 0.03165210 0.05756030
v 0.01400001 -0.03549305 0.03162229
v 0.01431727 -0.03587739 0.03423912
v 0.01530934 -0.03409866 0.03162229
v 0.01614529 -0.03250763 0.02957070
v 0.01632155 -0.03278472 0.03162229
v 0.01739922 -0.03097916 0.03162229
v 0.01366764 -0.03517126 0.02945556
v -0.01364691 -0.03097916 0.03686642
v -0.01465912 -0.02836022 0.03423912
v -0.01871803 -0.00215287 0.02899500
v -0.01848134 -0.00477182 0.02899500
v -0.01810365 -0.00896392 0.02979051
v -0.01794251 -0.00991139 0.02895313
v -0.01667850 -0.01001865 0.00541214
v -0.01404978 -0.01263760 -0.00768247
v -0.01564111 -0.01525654 0.00352802
v -0.01547997 -0.01664199 0.00401999
v -0.01587276 -0.01525654 0.00541214
v -0.01589291 -0.02311338 0.02899500
v -0.01553536 -0.02472229 0.02899500
v -0.01561090 -0.02502620 0.03162229
v -0.01526342 -0.02634014 0.03162229
v -0.01358144 -0.03097916 0.03423912
v -0.01333972 -0.03114005 0.03175837
v 0.00571097 0.03361854 0.09081495
v -0.00169679 0.03714027 0.09388188
v -0.00210973 0.03859722 0.09348412
v -0.00366078 0.03882962 0.09382954
v -0.00628447 0.03874917 0.09364113
v 0.02159410 0.03358279 0.05988404
v -0.00628447 0.03907990 0.09188262
v -0.00778012 0.03864191 0.09188262
v -0.01809358 0.02536841 0.07255996
v -0.01778639 0.02526115 0.07430800
v -0.01713677 0.02928343 0.05519469
v -0.01779143 0.02686112 0.05519469
v -0.01812380 0.02554718 0.05519469
v -0.01810365 0.02546673 0.05257786
v -0.01841588 0.02403659 0.05519469
v -0.01836552 0.02403659 0.05257786
v -0.01896479 0.01879870 0.04471690
v -0.01810869 0.01767246 0.01679011
v -0.01831013 0.01617975 0.01851722
v -0.01819430 0.01624232 0.01591085
v -0.01795761 0.01356081 0.00541214
v -0.01806840 0.01187145 0.00541214
v -0.01808855 0.01015528 0.00406186
v -0.01922162 0.00831398 0.03162229
v -0.01910076 0.00569503 0.02899500
v -0.01902522 0.00307608 0.02899500
v -0.01890436 0.00046607 0.02899500
v -0.01434690 -0.02836022 0.02899500
v -0.01397424 -0.02836022 0.02637817
v -0.01421596 -0.02049444 0.00541214
v -0.01323901 -0.02248770 0.00541214
v -0.01274549 -0.02951327 0.02281928
v -0.01305268 -0.02215698 0.00356989
v -0.01193471 -0.03081827 0.02371947
v -0.01102322 -0.03106855 0.02136433
v -0.01081675 -0.03030878 0.01851722
v -0.01047935 -0.02993337 0.01647609
v -0.01014698 -0.02961159 0.01472805
v -0.00984986 -0.03199814 0.02064208
v -0.00802184 -0.03257019 0.01851722
v -0.00894844 -0.03286516 0.02136433
v -0.00865133 -0.03390201 0.02400209
v -0.00614850 -0.03261489 0.01609927
v -0.00962829 -0.02659935 0.00541214
v -0.00790098 -0.02722504 0.00368503
v -0.00933117 -0.03162272 0.01851722
v -0.00366078 -0.03259701 0.01377552
v 0.00157652 -0.03409866 0.01590039
v 0.00157652 -0.03473328 0.01774264
v -0.00226081 -0.03225735 0.01199608
v -0.00124860 -0.03280259 0.01303235
v 0.00157652 -0.03312437 0.01327309
v 0.00420021 -0.03468859 0.01785778
v 0.00420021 -0.03400927 0.01590039
v 0.00571097 -0.03233780 0.01190187
v 0.00681383 -0.03357129 0.01590039
v 0.00687426 -0.03452770 0.01859049
v 0.00876774 -0.03513551 0.02177255
v 0.00831955 -0.02975460 0.00642747
v 0.00953823 -0.03720028 0.02889033
v 0.00943248 -0.03641370 0.02637817
v 0.00955837 -0.03547517 0.02365667
v 0.01051015 -0.03481373 0.02270414
v 0.01111949 -0.03511763 0.02445218
v 0.01167344 -0.03543942 0.02637817
v 0.01298277 -0.03465284 0.02637817
v 0.01117992 -0.02735018 0.00348615
v 0.01361225 -0.03251656 0.02188769
v 0.01397987 -0.03286516 0.02376134
v 0.01442302 -0.03334783 0.02637817
v 0.01894523 -0.03033560 0.04210008
v 0.01773159 -0.03097916 0.03423912
v 0.01837115 -0.02917361 0.03162229
v 0.01881934 -0.03010320 0.03948325
v 0.01992219 -0.02836022 0.04210008
v 0.02084879 -0.02563401 0.03924250
v 0.02132216 -0.02469548 0.03996474
v 0.02164950 -0.02337260 0.03924250
v 0.02225884 -0.02049444 0.03686642
v 0.02232430 -0.02049444 0.03948325
v 0.03000904 0.01617975 0.02899500
v 0.03057306 0.01879870 0.02899500
v 0.03093564 0.02141765 0.03162229
v 0.03103636 0.02403659 0.03423912
v 0.03121765 0.02666448 0.03423912
v 0.03115722 0.02928343 0.03423912
v 0.03055795 0.03190237 0.02899500
v 0.03007451 0.03170573 0.03423912
v 0.02988818 0.03140182 0.03686642
v 0.02966660 0.03115155 0.03948325
v 0.02935941 0.03085658 0.04210008
v 0.01620572 0.03866873 0.06454200
v 0.01595393 -0.03223947 0.02782266
v 0.01677981 -0.03121156 0.02881705
v 0.01817475 -0.02878032 0.02899500
v -0.01456847 -0.02836022 0.03162229
v -0.01858710 -0.00215287 0.02637817
v -0.01834034 -0.00477182 0.02637817
v -0.01820437 -0.00753378 0.02895313
v -0.01808855 0.00930614 0.00406186
v -0.01434690 -0.01001865 -0.00768247
v -0.01340519 -0.01511353 -0.00768247
v -0.01315843 -0.01716042 -0.00681368
v -0.01402460 -0.01525654 -0.00506564
v -0.01358144 -0.01001865 -0.00968172
v -0.01330447 -0.01263760 -0.00940958
v -0.01516271 -0.02603623 0.02899500
v -0.01546989 -0.02448989 0.02754004
v 0.00336426 0.03626430 0.09084636
v 0.01846683 0.03540622 0.06405003
v 0.00041827 0.03851677 0.09067888
v 0.01355686 0.04119829 0.06454200
v 0.00681383 0.04210107 0.06567247
v 0.00420021 0.04237816 0.06567247
v -0.00104213 0.04229771 0.06829976
v 0.01205617 0.04141281 0.06491882
v -0.00366078 0.04214576 0.06829976
v -0.00594203 0.04150219 0.06829976
v -0.00725136 0.04090332 0.06829976
v -0.00890312 0.03992010 0.07091659
v -0.01049446 0.03874023 0.07353342
v -0.01383827 0.03714027 0.05519469
v -0.01503681 0.03489673 0.05519469
v -0.01560586 0.03358279 0.05519469
v -0.01566126 0.03372580 0.05257786
v -0.01626556 0.03190237 0.05519469
v -0.01630585 0.03190237 0.05257786
v -0.01711159 0.02928343 0.05257786
v -0.01777632 0.02677174 0.05257786
v -0.01807848 0.02536841 0.05120664
v -0.01876839 0.01879870 0.03948325
v -0.01785690 0.01864675 0.01591085
v -0.01765043 0.01617975 0.00541214
v -0.01723748 0.01356081 0.00279531
v -0.01407496 0.01356081 -0.00768247
v -0.01434690 0.01094186 -0.00768247
v -0.01438718 0.00831398 -0.00768247
v -0.01439725 0.00569503 -0.00768247
v -0.01876839 0.00046607 0.02637817
v -0.01236780 -0.02380164 0.00541214
v -0.01239298 -0.01892128 -0.00506564
v -0.01068078 -0.02488318 0.00333961
v -0.01105847 -0.02528541 0.00541214
v -0.00901391 -0.02583065 0.00263830
v -0.01054481 -0.01931457 -0.00647873
v -0.00626433 -0.02520496 0.00002147
v -0.00537801 -0.02459716 -0.00123460
v -0.00104213 -0.02597367 0.00017848
v -0.00051336 -0.03239143 0.01186000
v 0.00420021 -0.03304393 0.01327309
v 0.00157652 -0.03245399 0.01179720
v 0.00420021 -0.03241824 0.01182860
v 0.00667786 -0.03264170 0.01328356
v 0.00955837 -0.03456345 0.02099797
v 0.00788143 -0.02975460 0.00642747
v 0.00943248 -0.02780604 0.00301513
v 0.00929147 -0.02902166 0.00549588
v 0.01201588 -0.03426849 0.02365667
v 0.01096338 -0.01931457 -0.00647873
v 0.01382376 -0.02492788 0.00337101
v 0.01291730 -0.02666192 0.00541214
v 0.01528919 -0.03141714 0.02376134
v 0.01573235 -0.03195344 0.02637817
v 0.01880423 -0.02746638 0.02899500
v 0.01899056 -0.02786860 0.03162229
v 0.01966033 -0.02836022 0.03948325
v 0.01995744 -0.02574127 0.03162229
v 0.02088404 -0.02356030 0.03162229
v 0.02139770 -0.02224636 0.03162229
v 0.02194661 -0.02049444 0.03162229
v 0.02212790 -0.02049444 0.03423912
v 0.02992343 0.01617975 0.02637817
v 0.03044716 0.01879870 0.02637817
v 0.03093564 0.02141765 0.02899500
v 0.03118743 0.02403659 0.03162229
v 0.03129822 0.02666448 0.03162229
v 0.03123779 0.02928343 0.03162229
v 0.02960113 0.03376156 0.02899500
v 0.03044716 0.03190237 0.02637817
v 0.02965149 0.03415485 0.02637817
v 0.02867957 0.03546879 0.02637817
v 0.02616164 0.03564756 0.03686642
v 0.02659472 0.03857041 0.02276695
v 0.01659348 -0.03064844 0.02637817
v 0.01623090 -0.02215698 0.00355943
v 0.01866323 -0.02716247 0.02739350
v 0.01797835 -0.02816357 0.02646191
v 0.01849704 -0.01894810 0.00541214
v -0.01439725 -0.00477182 -0.00768247
v -0.01438718 -0.00739077 -0.00768247
v -0.01297714 -0.01414818 -0.00909556
v -0.01146134 -0.01797381 -0.00702303
v -0.01359152 -0.00739077 -0.00971312
v -0.01152177 -0.00739077 -0.01043537
v -0.01152177 -0.01001865 -0.01038303
v -0.01152177 -0.01263760 -0.00981781
v 0.02392571 0.04113572 0.02015012
v 0.02269192 0.04177035 0.02107124
v 0.02033010 0.04320943 0.02113405
v 0.01902077 0.04390662 0.02113405
v 0.01729347 0.04471107 0.02113405
v 0.01356693 0.04638255 0.02023386
v 0.01205617 0.04698143 0.01851722
v 0.00943248 0.04743728 0.01851722
v 0.00157652 0.04252117 0.06567247
v 0.00681383 0.04736578 0.02113405
v 0.00420021 0.04744622 0.02113405
v -0.00104213 0.04257480 0.06567247
v -0.00366078 0.04236028 0.06567247
v 0.00019166 0.04635574 0.02252620
v -0.01294692 0.03855253 0.05519469
v -0.01284117 0.03846315 0.05652403
v -0.01396921 0.03714027 0.05257786
v -0.01513249 0.03503081 0.05257786
v -0.01506703 0.03486991 0.04995056
v -0.01559076 0.03356491 0.04995056
v -0.01614470 0.03190237 0.04995056
v -0.01694540 0.02928343 0.04995056
v -0.01716698 0.02141765 0.01590039
v -0.01731302 0.02141765 0.01851722
v -0.01774611 0.02640527 0.05018084
v -0.01703605 0.01879870 0.00541214
v -0.01682958 0.01617975 0.00279531
v -0.01342533 0.01603674 -0.00767200
v -0.01332461 0.01356081 -0.00942005
v -0.01358648 0.01094186 -0.00969220
v -0.01611449 0.01878976 0.00260690
v -0.01359152 0.00831398 -0.00971312
v -0.01152177 -0.01425544 -0.00914790
v -0.00104213 -0.02482955 -0.00128694
v -0.00366078 -0.02472229 -0.00128694
v 0.00157652 -0.02482061 -0.00128694
v 0.00157652 -0.02592897 0.00017848
v 0.00420021 -0.02468654 -0.00127647
v 0.00577644 -0.02456140 -0.00122414
v 0.01205617 -0.01417500 -0.00911649
v 0.01342089 -0.01404092 -0.00904322
v 0.01351153 -0.01686545 -0.00662527
v 0.01417123 -0.02534798 0.00541214
v 0.01958983 -0.02574127 0.02899500
v 0.02076318 -0.02297037 0.02899500
v 0.02129699 -0.02199609 0.02987425
v 0.02159410 -0.02062851 0.02899500
v 0.02121138 -0.01127896 0.00440728
v 0.02227898 -0.00739077 0.00541214
v 0.02925366 0.01425800 0.02376134
v 0.02969682 0.01617975 0.02376134
v 0.03015508 0.01879870 0.02376134
v 0.03077953 0.02141765 0.02637817
v 0.03113204 0.02403659 0.02899500
v 0.03117736 0.02666448 0.02899500
v 0.03107664 0.02928343 0.02899500
v 0.03077449 0.02928343 0.02637817
v 0.03031623 0.02928343 0.02376134
v 0.02994861 0.03190237 0.02376134
v 0.02940977 0.03406546 0.02376134
v 0.02892633 0.03537047 0.02376134
v 0.02659472 0.03857041 0.02191909
v 0.01764094 -0.02049444 0.00541214
v 0.01886970 -0.01718724 0.00346522
v 0.01905602 -0.01764309 0.00541214
v 0.01205617 -0.00739077 -0.01030976
v -0.01152177 0.00831398 -0.01043537
v 0.01205617 -0.01001865 -0.01022602
v 0.01205617 -0.01263760 -0.00969220
v 0.02392571 0.04113572 0.01972096
v 0.01900567 0.04390662 0.01851722
v 0.01729347 0.04480940 0.01851722
v 0.01508272 0.04590882 0.01851722
v 0.01377340 0.04647194 0.01851722
v 0.01370289 0.04645406 0.01699946
v 0.01205617 0.04671327 0.01660170
v 0.00943248 0.04693673 0.01627721
v 0.00681383 0.04751773 0.01851722
v 0.00408942 0.04703506 0.01836021
v 0.00223622 0.04674009 0.01912432
v 0.00145063 0.04678478 0.02128059
v 0.00019166 0.04635574 0.02224358
v -0.01297714 0.03857041 0.05257786
v -0.01360159 0.03734585 0.05003430
v -0.01359655 0.03688105 0.04733373
v -0.01337497 0.03663078 0.04471690
v -0.01544975 0.02534160 0.01463384
v -0.01556054 0.02554718 0.01638189
v -0.01603391 0.02429581 0.01565964
v -0.01640657 0.02403659 0.01851722
v -0.01689505 0.02141765 0.01327309
v -0.01633103 0.02141765 0.00803944
v -0.01596341 0.02160535 0.00542261
v -0.01581233 0.02085453 0.00335008
v -0.01315339 0.01802106 -0.00678228
v -0.01299728 0.01507139 -0.00911649
v -0.01152177 0.01356081 -0.00985968
v -0.01152177 0.01094186 -0.01039350
v 0.01364246 -0.01263760 -0.00929444
v 0.02144806 -0.00952704 0.00350709
v 0.01995744 -0.01525654 0.00541214
v 0.02287321 -0.00477182 0.00541214
v 0.02914791 0.01463341 0.02211797
v 0.02386528 0.00164594 0.00404092
v 0.02929898 0.01625126 0.02119685
v 0.03045723 0.02141765 0.02376134
v 0.02967667 0.01879870 0.02113405
v 0.03093564 0.02403659 0.02637817
v 0.03092557 0.02666448 0.02637817
v 0.03052773 0.02666448 0.02376134
v 0.02990329 0.02666448 0.02113405
v 0.02953567 0.02940856 0.02094563
v 0.02934934 0.03190237 0.02167835
v 0.02918316 0.03360066 0.02218078
v 0.02853353 0.03449450 0.02123872
v 0.02718392 0.03731009 0.02108171
v 0.02638825 0.03830225 0.02017105
v 0.01205617 0.00831398 -0.01030976
v 0.01388419 -0.00739077 -0.00958753
v 0.01386404 -0.01001865 -0.00954566
v 0.02440412 0.03954469 0.01871610
v 0.02314011 0.04027764 0.01797292
v 0.02139267 0.04123404 0.01708320
v 0.01866323 0.04372785 0.01716694
v 0.01729347 0.04414796 0.01677964
v 0.01453381 0.04493453 0.01596319
v 0.01205617 0.04558704 0.01528282
v 0.00943248 0.04595351 0.01496880
v 0.00681383 0.04684735 0.01647609
v 0.00489012 0.04658814 0.01686338
v 0.00048877 0.04611440 0.02049554
v 0.00314268 0.04617697 0.01737628
v -0.01003619 0.02786222 0.00436541
v -0.01291671 0.02543098 0.00393625
v -0.00261836 0.04397813 0.02190863
v -0.00278958 0.04404964 0.02376134
v -0.01288649 0.03848996 0.05095542
v -0.00532765 0.04150219 0.02376134
v -0.00755854 0.03840952 0.02263087
v -0.00971390 0.03519170 0.02113405
v -0.01070093 0.03388669 0.02113405
v -0.01286131 0.03062418 0.01970002
v -0.01341526 0.02876500 0.01590039
v -0.01486559 0.02651253 0.01565964
v -0.01537925 0.02259751 0.00455382
v -0.01552025 0.02283885 0.00629140
v -0.01152177 0.01981768 -0.00571462
v -0.01152177 0.01851267 -0.00704397
v -0.01152177 0.01649260 -0.00835238
v -0.01152177 0.01517865 -0.00917930
v 0.01205617 0.01356081 -0.00974454
v 0.01205617 0.01509821 -0.00912696
v 0.01205617 0.01094186 -0.01026789
v 0.02393578 0.00307608 0.00382111
v 0.02173007 -0.00739077 0.00304653
v 0.02336673 -0.00215287 0.00541214
v 0.02923855 0.01879870 0.01936507
v 0.03058313 0.02403659 0.02376134
v 0.02991336 0.02141765 0.02113405
v 0.02999393 0.02403659 0.02113405
v 0.02935941 0.02403659 0.01913479
v 0.02930402 0.02666448 0.01932320
v 0.02920330 0.02862198 0.01957442
v 0.02904719 0.03036497 0.01994077
v 0.02887093 0.03190237 0.02036993
v 0.02792419 0.03190237 0.01851722
v 0.02709831 0.03440512 0.01847535
v 0.02679615 0.03655033 0.01932320
v 0.02574869 0.03731009 0.01847535
v 0.02390053 0.03853465 0.01715646
v 0.01387915 0.01094186 -0.00956659
v 0.01388419 0.00831398 -0.00958753
v 0.02401132 0.00831398 0.00360130
v 0.02400628 0.00569503 0.00361176
v 0.01342592 0.01496413 -0.00905369
v 0.01361225 0.04386193 0.01445590
v 0.01205617 0.04427310 0.01408954
v 0.00943248 0.04323624 0.01236243
v 0.00943248 0.04463957 0.01367085
v 0.00681383 0.04069774 0.00973514
v 0.00681383 0.04198487 0.01104356
v 0.00681383 0.04328987 0.01240430
v 0.00681383 0.04449655 0.01371272
v 0.00681383 0.04580156 0.01515721
v 0.00157652 0.03617492 0.00634373
v 0.00018662 0.03587995 0.00666822
v -0.01315843 0.02570807 0.00541214
v -0.00509097 0.04121617 0.02209704
v -0.00409890 0.04281614 0.02376134
v -0.01350591 0.02616393 0.00803944
v -0.01292678 0.02808568 0.01162973
v -0.01041892 0.03348447 0.01851722
v -0.01267499 0.03039178 0.01795198
v -0.01431668 0.02666448 0.01327309
v -0.01313325 0.02835383 0.01327309
v 0.00157652 0.03496824 0.00503532
v 0.00157652 0.03365430 0.00370597
v 0.00420021 0.03395820 0.00345475
v 0.01366261 0.01356081 -0.00931537
v 0.01205617 0.01832497 -0.00691836
v 0.02933423 0.02141765 0.01913479
v 0.02396096 0.01094186 0.00377924
v 0.02389046 0.01254183 0.00398858
v 0.02858389 0.02940856 0.01863236
v 0.02190129 0.01879870 0.00305699
v 0.02683141 0.03190237 0.01671684
v 0.02655947 0.03344871 0.01708320
v 0.02617171 0.03520064 0.01757516
v 0.02152864 0.02072939 0.00353849
v 0.00897925 0.03638944 0.00624953
v 0.01110439 0.03872236 0.00910710
v 0.00943248 0.03914246 0.00870934
v 0.00681383 0.03671122 0.00593551
v 0.00681383 0.03801623 0.00712878
v 0.00681383 0.03938380 0.00843719
v 0.00420021 0.03660396 0.00594597
v 0.00420021 0.03790897 0.00732766
v 0.00420021 0.03911565 0.00863607
v 0.00420021 0.03527214 0.00463756
v 0.00681383 0.03518276 0.00462709
v 0.00681383 0.03386881 0.00355943
v 0.00856127 0.03354703 0.00384204
v 0.02375953 0.01428482 0.00439681
f 1 2 3
f 1 3 4
f 1 4 5
f 1 5 6
f 1 6 7
f 1 7 8
f 1 8 9
f 1 9 10
f 1 10 11
f 1 11 12
f 1 12 2
f 2 12 3
f 3 13 4
f 3 12 14
f 3 14 15
f 3 15 13
f 4 13 16
f 4 16 17
f 4 17 5
f 5 17 6
f 6 17 18
f 6 18 7
f 7 19 20
f 7 20 8
f 7 18 21
f 7 21 22
f 7 22 19
f 8 20 23
f 8 23 9
f 9 24 25
f 9 25 26
f 9 26 27
f 9 27 28
f 9 28 29
f 9 29 10
f 9 23 24
f 10 29 30
f 10 30 11
f 11 30 31
f 11 31 12
f 12 31 32
f 12 32 14
f 13 33 16
f 13 15 34
f 13 34 35
f 13 35 36
f 13 36 33
f 14 34 15
f 14 32 37
f 14 37 38
f 14 38 39
f 14 39 34
f 16 33 17
f 17 33 18
f 18 33 40
f 18 40 21
f 19 22 20
f 20 22 41
f 20 41 42
f 20 42 43
f 20 43 44
f 20 44 45
f 20 45 46
f 20 46 53
f 20 53 23
f 21 40 47
f 21 47 48
f 21 48 49
f 21 49 22
f 22 49 50
f 22 50 51
f 22 51 52
f 22 52 41
f 23 53 24
f 24 53 25
f 25 54 26
f 25 53 54
f 26 54 55
f 26 55 56
f 26 56 57
f 26 57 58
f 26 58 27
f 27 58 28
f 28 58 59
f 28 59 60
f 28 60 61
f 28 61 29
f 29 61 30
f 30 61 62
f 30 62 63
f 30 63 31
f 31 63 64
f 31 64 32
f 32 64 65
f 32 65 37
f 33 66 40
f 33 36 67
f 33 67 68
f 33 68 69
f 33 69 70
f 33 70 71
f 33 71 72
f 33 72 73
f 33 73 74
f 33 74 66
f 34 39 75
f 34 75 76
f 34 76 35
f 35 76 36
f 36 76 77
f 36 77 78
f 36 78 68
f 36 68 67
f 37 65 79
f 37 79 38
f 38 79 80
f 38 80 76
f 38 76 39
f 39 76 75
f 40 81 47
f 40 66 81
f 41 52 42
f 42 82 83
f 42 83 84
f 42 84 85
f 42 85 43
f 42 52 86
f 42 86 87
f 42 87 82
f 43 85 44
f 44 85 88
f 44 88 45
f 45 88 89
f 45 89 90
f 45 90 91
f 45 91 53
f 45 53 46
f 47 92 93
f 47 93 94
f 47 94 48
f 47 81 92
f 48 94 95
f 48 95 49
f 49 95 94
f 49 94 96
f 49 96 97
f 49 97 50
f 50 97 98
f 50 98 99
f 50 99 100
f 50 100 51
f 51 100 101
f 51 101 102
f 51 102 103
f 51 103 87
f 51 87 52
f 52 87 86
f 53 91 104
f 53 104 105
f 53 105 54
f 54 105 106
f 54 106 55
f 55 106 107
f 55 107 56
f 56 107 108
f 56 108 109
f 56 109 110
f 56 110 57
f 57 110 111
f 57 111 59
f 57 59 58
f 59 112 60
f 59 111 113
f 59 113 114
f 59 114 115
f 59 115 112
f 60 112 61
f 61 112 116
f 61 116 117
f 61 117 118
f 61 118 62
f 62 118 119
f 62 119 63
f 63 119 120
f 63 120 64
f 64 120 121
f 64 121 65
f 65 122 79
f 65 121 122
f 66 123 124
f 66 124 81
f 66 74 123
f 68 78 125
f 68 125 126
f 68 126 69
f 69 126 127
f 69 127 128
f 69 128 129
f 69 129 130
f 69 130 70
f 70 130 72
f 70 72 71
f 72 131 73
f 72 130 129
f 72 129 132
f 72 132 133
f 72 133 131
f 73 131 74
f 74 131 134
f 74 134 135
f 74 135 136
f 74 136 137
f 74 137 138
f 74 138 123
f 76 80 77
f 77 80 139
f 77 139 78
f 78 139 140
f 78 140 141
f 78 141 125
f 79 122 142
f 79 142 143
f 79 143 80
f 80 143 139
f 81 124 144
f 81 144 92
f 82 145 146
f 82 146 83
f 82 87 145
f 83 146 147
f 83 147 148
f 83 148 84
f 84 148 149
f 84 149 85
f 85 149 150
f 85 150 151
f 85 151 88
f 87 146 145
f 87 103 152
f 87 152 153
f 87 153 154
f 87 154 155
f 87 155 156
f 87 156 157
f 87 157 146
f 88 151 158
f 88 158 89
f 89 158 159
f 89 159 90
f 90 105 104
f 90 104 91
f 90 159 160
f 90 160 105
f 92 161 162
f 92 162 163
f 92 163 164
f 92 164 165
f 92 165 93
f 92 144 161
f 93 165 94
f 94 165 166
f 94 166 96
f 96 166 167
f 96 167 97
f 97 167 98
f 98 167 99
f 99 167 168
f 99 168 169
f 99 169 100
f 100 169 170
f 100 170 101
f 101 171 102
f 101 170 172
f 101 172 173
f 101 173 174
f 101 174 175
f 101 175 171
f 102 171 176
f 102 176 177
f 102 177 103
f 103 177 178
f 103 178 152
f 105 160 106
f 106 160 179
f 106 179 180
f 106 180 107
f 107 180 108
f 108 180 181
f 108 181 182
f 108 182 183
f 108 183 184
f 108 184 185
f 108 185 109
f 109 185 110
f 110 185 186
f 110 186 187
f 110 187 111
f 111 187 113
f 112 115 116
f 113 187 188
f 113 188 189
f 113 189 114
f 114 190 115
f 114 189 190
f 115 190 189
f 115 189 191
f 115 191 116
f 116 192 117
f 116 191 189
f 116 189 193
f 116 193 194
f 116 194 195
f 116 195 196
f 116 196 192
f 117 192 118
f 118 192 197
f 118 197 198
f 118 198 119
f 119 198 199
f 119 199 120
f 120 199 200
f 120 200 121
f 121 200 201
f 121 201 202
f 121 202 122
f 122 202 203
f 122 203 142
f 123 163 162
f 123 162 204
f 123 204 144
f 123 144 124
f 123 138 163
f 125 205 127
f 125 127 126
f 125 141 205
f 127 205 206
f 127 206 207
f 127 207 128
f 128 207 208
f 128 208 129
f 129 208 209
f 129 209 132
f 131 133 210
f 131 210 134
f 132 209 211
f 132 211 212
f 132 212 133
f 133 212 210
f 134 210 213
f 134 213 214
f 134 214 215
f 134 215 135
f 135 215 136
f 136 215 216
f 136 216 217
f 136 217 137
f 137 217 138
f 138 217 218
f 138 218 163
f 139 143 219
f 139 219 220
f 139 220 140
f 140 220 221
f 140 221 222
f 140 222 223
f 140 223 141
f 141 223 224
f 141 224 225
f 141 225 205
f 142 226 143
f 142 203 226
f 143 226 219
f 144 162 161
f 144 204 162
f 146 157 147
f 147 227 148
f 147 157 228
f 147 228 229
f 147 229 227
f 148 150 149
f 148 227 150
f 150 158 151
f 150 227 230
f 150 230 158
f 152 178 231
f 152 231 232
f 152 232 233
f 152 233 234
f 152 234 235
f 152 235 236
f 152 236 153
f 153 236 234
f 153 234 237
f 153 237 238
f 153 238 154
f 154 238 239
f 154 239 156
f 154 156 155
f 156 239 240
f 156 240 228
f 156 228 157
f 158 230 241
f 158 241 159
f 159 241 242
f 159 242 243
f 159 243 160
f 160 243 244
f 160 244 179
f 163 245 246
f 163 246 164
f 163 218 247
f 163 247 245
f 164 246 165
f 165 246 166
f 166 246 248
f 166 248 167
f 167 248 249
f 167 249 168
f 168 249 169
f 169 250 170
f 169 249 250
f 170 250 251
f 170 251 172
f 171 252 176
f 171 175 252
f 172 251 253
f 172 253 173
f 173 253 254
f 173 254 255
f 173 255 174
f 174 255 175
f 175 256 252
f 175 255 257
f 175 257 258
f 175 258 256
f 176 252 256
f 176 256 177
f 177 256 259
f 177 259 260
f 177 260 261
f 177 261 262
f 177 262 178
f 178 262 263
f 178 263 264
f 178 264 231
f 179 244 180
f 180 244 181
f 181 265 266
f 181 266 182
f 181 244 265
f 182 266 267
f 182 267 268
f 182 268 184
f 182 184 183
f 184 268 269
f 184 269 185
f 185 269 270
f 185 270 186
f 186 270 271
f 186 271 187
f 187 271 272
f 187 272 273
f 187 273 188
f 188 274 275
f 188 275 189
f 188 273 276
f 188 276 274
f 189 275 274
f 189 274 277
f 189 277 193
f 192 196 278
f 192 278 279
f 192 279 197
f 193 277 280
f 193 280 194
f 194 280 195
f 195 280 281
f 195 281 278
f 195 278 196
f 197 279 198
f 198 279 282
f 198 282 199
f 199 282 283
f 199 283 284
f 199 284 285
f 199 285 286
f 199 286 200
f 200 287 201
f 200 286 285
f 200 285 287
f 201 287 288
f 201 288 289
f 201 289 202
f 202 289 290
f 202 290 203
f 203 291 226
f 203 290 292
f 203 292 291
f 205 293 206
f 205 225 294
f 205 294 293
f 206 293 295
f 206 295 207
f 207 209 208
f 207 295 296
f 207 296 209
f 209 296 211
f 210 212 213
f 211 296 297
f 211 297 298
f 211 298 299
f 211 299 213
f 211 213 212
f 213 299 300
f 213 300 301
f 213 301 302
f 213 302 303
f 213 303 304
f 213 304 214
f 214 304 305
f 214 305 215
f 215 305 306
f 215 306 307
f 215 307 308
f 215 308 216
f 216 308 309
f 216 309 217
f 217 309 218
f 218 310 247
f 218 309 310
f 219 226 311
f 219 311 312
f 219 312 220
f 220 312 221
f 221 312 313
f 221 313 314
f 221 314 315
f 221 315 222
f 222 224 223
f 222 315 224
f 224 315 316
f 224 316 225
f 225 316 294
f 226 291 292
f 226 292 317
f 226 317 311
f 227 229 318
f 227 318 230
f 228 240 229
f 229 240 319
f 229 319 318
f 230 318 241
f 231 264 320
f 231 320 321
f 231 321 232
f 232 321 322
f 232 322 233
f 233 322 234
f 234 322 323
f 234 323 237
f 234 236 235
f 237 324 325
f 237 325 326
f 237 326 327
f 237 327 328
f 237 328 329
f 237 329 238
f 237 323 322
f 237 322 324
f 238 329 330
f 238 330 331
f 238 331 239
f 239 331 240
f 240 331 332
f 240 332 319
f 241 318 333
f 241 333 242
f 242 333 244
f 242 244 243
f 244 334 265
f 244 333 334
f 245 335 336
f 245 336 246
f 245 247 335
f 246 336 337
f 246 337 338
f 246 338 339
f 246 339 248
f 247 310 340
f 247 340 335
f 248 339 249
f 249 339 341
f 249 341 342
f 249 342 343
f 249 343 344
f 249 344 250
f 250 344 343
f 250 343 345
f 250 345 346
f 250 346 251
f 251 346 347
f 251 347 348
f 251 348 349
f 251 349 350
f 251 350 253
f 253 350 351
f 253 351 254
f 254 351 255
f 255 352 257
f 255 351 352
f 256 258 260
f 256 260 259
f 257 352 353
f 257 353 354
f 257 354 355
f 257 355 356
f 257 356 357
f 257 357 258
f 258 358 260
f 258 357 358
f 260 358 359
f 260 359 261
f 261 359 360
f 261 360 262
f 262 360 361
f 262 361 263
f 263 361 320
f 263 320 264
f 265 334 362
f 265 362 363
f 265 363 266
f 266 363 364
f 266 364 365
f 266 365 267
f 267 366 268
f 267 365 367
f 267 367 366
f 268 366 368
f 268 368 269
f 269 368 369
f 269 369 270
f 270 369 370
f 270 370 371
f 270 371 372
f 270 372 373
f 270 373 374
f 270 374 375
f 270 375 271
f 271 375 376
f 271 376 273
f 271 273 272
f 273 376 374
f 273 374 276
f 274 276 377
f 274 377 277
f 276 378 379
f 276 379 377
f 276 374 380
f 276 380 378
f 277 381 280
f 277 377 379
f 277 379 381
f 278 281 382
f 278 382 383
f 278 383 279
f 279 383 282
f 280 381 384
f 280 384 281
f 281 384 385
f 281 385 386
f 281 386 382
f 282 383 387
f 282 387 283
f 283 387 388
f 283 388 389
f 283 389 390
f 283 390 391
f 283 391 285
f 283 285 284
f 285 392 287
f 285 391 390
f 285 390 393
f 285 393 392
f 287 394 288
f 287 392 394
f 288 394 289
f 289 394 395
f 289 395 396
f 289 396 397
f 289 397 398
f 289 398 290
f 290 398 399
f 290 399 292
f 292 399 398
f 292 398 400
f 292 400 401
f 292 401 402
f 292 402 403
f 292 403 404
f 292 404 317
f 293 405 295
f 293 294 405
f 294 316 406
f 294 406 407
f 294 407 408
f 294 408 405
f 295 405 409
f 295 409 296
f 296 409 297
f 297 409 410
f 297 410 411
f 297 411 298
f 298 300 299
f 298 411 412
f 298 412 300
f 300 412 413
f 300 413 414
f 300 414 415
f 300 415 416
f 300 416 301
f 301 416 417
f 301 417 303
f 301 303 302
f 303 417 418
f 303 418 305
f 303 305 304
f 305 418 306
f 306 418 419
f 306 419 420
f 306 420 307
f 307 420 421
f 307 421 422
f 307 422 423
f 307 423 424
f 307 424 308
f 308 424 425
f 308 425 309
f 309 425 426
f 309 426 340
f 309 340 310
f 311 313 312
f 311 317 427
f 311 427 313
f 313 427 314
f 314 428 316
f 314 316 315
f 314 427 428
f 316 428 429
f 316 429 407
f 316 407 406
f 317 404 427
f 318 319 333
f 319 332 430
f 319 430 333
f 320 361 431
f 320 431 321
f 321 431 432
f 321 432 433
f 321 433 322
f 322 433 324
f 324 434 435
f 324 435 325
f 324 433 432
f 324 432 431
f 324 431 434
f 325 436 437
f 325 437 438
f 325 438 327
f 325 327 326
f 325 435 439
f 325 439 440
f 325 440 436
f 327 438 437
f 327 437 364
f 327 364 362
f 327 362 441
f 327 441 442
f 327 442 330
f 327 330 329
f 327 329 328
f 330 441 332
f 330 332 331
f 330 442 441
f 332 441 430
f 333 430 334
f 334 430 362
f 335 443 337
f 335 337 336
f 335 340 444
f 335 444 426
f 335 426 443
f 337 443 445
f 337 445 446
f 337 446 338
f 338 447 448
f 338 448 449
f 338 449 341
f 338 341 339
f 338 446 450
f 338 450 447
f 340 426 444
f 341 449 451
f 341 451 452
f 341 452 342
f 342 452 453
f 342 453 454
f 342 454 455
f 342 455 343
f 343 455 456
f 343 456 457
f 343 457 458
f 343 458 459
f 343 459 460
f 343 460 345
f 345 460 461
f 345 461 462
f 345 462 346
f 346 462 463
f 346 463 347
f 347 463 348
f 348 463 464
f 348 464 350
f 348 350 349
f 350 464 352
f 350 352 465
f 350 465 351
f 351 465 352
f 352 466 467
f 352 467 355
f 352 355 354
f 352 354 353
f 352 464 466
f 355 467 357
f 355 357 356
f 357 467 468
f 357 468 469
f 357 469 470
f 357 470 471
f 357 471 472
f 357 472 523
f 357 523 434
f 357 434 358
f 358 434 359
f 359 434 360
f 360 434 361
f 361 434 473
f 361 473 431
f 362 430 441
f 362 364 363
f 364 437 367
f 364 367 365
f 366 367 474
f 366 474 368
f 367 437 475
f 367 475 476
f 367 476 474
f 368 474 370
f 368 370 369
f 370 474 477
f 370 477 371
f 371 477 372
f 372 477 476
f 372 476 378
f 372 378 380
f 372 380 373
f 373 380 374
f 374 376 375
f 378 476 379
f 379 476 478
f 379 478 475
f 379 475 479
f 379 479 480
f 379 480 481
f 379 481 482
f 379 482 483
f 379 483 384
f 379 384 381
f 382 388 387
f 382 387 383
f 382 386 484
f 382 484 388
f 384 483 385
f 385 483 386
f 386 483 485
f 386 485 486
f 386 486 484
f 388 484 389
f 389 486 393
f 389 393 487
f 389 487 390
f 389 484 486
f 390 487 393
f 392 488 397
f 392 397 396
f 392 396 395
f 392 395 394
f 392 393 488
f 393 486 485
f 393 485 489
f 393 489 490
f 393 490 491
f 393 491 397
f 393 397 488
f 397 491 401
f 397 401 398
f 398 492 400
f 398 401 492
f 400 492 401
f 401 491 490
f 401 490 493
f 401 493 494
f 401 494 495
f 401 495 402
f 402 495 494
f 402 494 403
f 403 496 497
f 403 497 404
f 403 494 496
f 404 497 427
f 405 408 409
f 407 429 498
f 407 498 499
f 407 499 500
f 407 500 408
f 408 500 409
f 409 500 410
f 410 500 501
f 410 501 502
f 410 502 411
f 411 502 503
f 411 503 504
f 411 504 505
f 411 505 412
f 412 505 413
f 413 505 506
f 413 506 415
f 413 415 414
f 415 506 416
f 416 506 507
f 416 507 508
f 416 508 417
f 417 508 509
f 417 509 418
f 418 509 419
f 419 509 510
f 419 510 511
f 419 511 420
f 420 511 421
f 421 512 422
f 421 511 513
f 421 513 514
f 421 514 512
f 422 512 423
f 423 512 424
f 424 512 515
f 424 515 425
f 425 515 516
f 425 516 426
f 426 446 443
f 426 516 517
f 426 517 446
f 427 518 428
f 427 497 519
f 427 519 518
f 428 518 429
f 429 520 498
f 429 518 521
f 429 521 522
f 429 522 520
f 431 473 434
f 434 523 524
f 434 524 435
f 435 524 439
f 436 440 525
f 436 525 437
f 437 525 526
f 437 526 479
f 437 479 475
f 439 527 528
f 439 528 529
f 439 529 440
f 439 524 527
f 440 529 530
f 440 530 525
f 443 446 445
f 446 517 531
f 446 531 532
f 446 532 533
f 446 533 534
f 446 534 535
f 446 535 536
f 446 536 537
f 446 537 538
f 446 538 450
f 447 450 538
f 447 538 448
f 448 539 449
f 448 538 540
f 448 540 539
f 449 539 541
f 449 541 542
f 449 542 451
f 451 542 541
f 451 541 543
f 451 543 452
f 452 543 544
f 452 544 453
f 453 545 454
f 453 544 545
f 454 545 455
f 455 545 546
f 455 546 456
f 456 546 545
f 456 545 547
f 456 547 548
f 456 548 457
f 457 548 458
f 458 548 459
f 459 548 549
f 459 549 550
f 459 550 461
f 459 461 460
f 461 550 551
f 461 551 462
f 462 551 552
f 462 552 553
f 462 553 554
f 462 554 555
f 462 555 464
f 462 464 463
f 464 555 554
f 464 554 466
f 466 554 553
f 466 553 556
f 466 556 467
f 467 556 557
f 467 557 469
f 467 469 468
f 469 558 559
f 469 559 560
f 469 560 470
f 469 557 556
f 469 556 561
f 469 561 558
f 470 560 471
f 471 560 562
f 471 562 472
f 472 562 527
f 472 527 523
f 474 476 477
f 475 478 476
f 479 526 525
f 479 525 563
f 479 563 493
f 479 493 564
f 479 564 565
f 479 565 481
f 479 481 480
f 481 565 482
f 482 565 564
f 482 564 566
f 482 566 567
f 482 567 490
f 482 490 489
f 482 489 485
f 482 485 483
f 490 567 566
f 490 566 568
f 490 568 569
f 490 569 493
f 493 563 570
f 493 570 571
f 493 571 572
f 493 572 494
f 493 569 568
f 493 568 566
f 493 566 564
f 494 519 573
f 494 573 496
f 494 572 519
f 496 573 497
f 497 573 519
f 498 574 499
f 498 520 574
f 499 574 501
f 499 501 500
f 501 574 502
f 502 574 575
f 502 575 576
f 502 576 503
f 503 576 504
f 504 576 577
f 504 577 578
f 504 578 579
f 504 579 580
f 504 580 581
f 504 581 506
f 504 506 505
f 506 581 507
f 507 581 582
f 507 582 583
f 507 583 508
f 508 584 509
f 508 583 584
f 509 584 510
f 510 584 585
f 510 585 511
f 511 585 586
f 511 586 513
f 512 514 515
f 513 587 588
f 513 588 589
f 513 589 590
f 513 590 514
f 513 586 587
f 514 590 591
f 514 591 515
f 515 591 517
f 515 517 516
f 517 591 592
f 517 592 600
f 517 600 531
f 518 519 593
f 518 593 522
f 518 522 521
f 519 572 594
f 519 594 522
f 519 522 593
f 520 522 574
f 522 594 595
f 522 595 574
f 523 527 524
f 525 530 563
f 527 562 597
f 527 597 528
f 528 596 529
f 528 597 648
f 528 648 596
f 529 596 598
f 529 598 599
f 529 599 530
f 530 599 570
f 530 570 563
f 531 600 533
f 531 533 532
f 533 600 601
f 533 601 534
f 534 601 602
f 534 602 603
f 534 603 535
f 535 603 604
f 535 604 536
f 536 604 537
f 537 604 605
f 537 605 606
f 537 606 538
f 538 606 607
f 538 607 608
f 538 608 541
f 538 541 540
f 539 540 541
f 541 608 609
f 541 609 610
f 541 610 611
f 541 611 543
f 543 611 544
f 544 611 612
f 544 612 613
f 544 613 545
f 545 613 547
f 547 613 614
f 547 614 549
f 547 549 548
f 549 614 615
f 549 615 616
f 549 616 617
f 549 617 618
f 549 618 619
f 549 619 550
f 550 619 620
f 550 620 553
f 550 553 551
f 551 553 552
f 553 619 621
f 553 621 556
f 553 620 619
f 556 621 622
f 556 622 623
f 556 623 624
f 556 624 561
f 558 561 624
f 558 624 625
f 558 625 626
f 558 626 559
f 559 626 627
f 559 627 628
f 559 628 560
f 560 628 597
f 560 597 562
f 570 599 571
f 571 599 629
f 571 629 630
f 571 630 594
f 571 594 572
f 574 595 575
f 575 595 576
f 576 595 631
f 576 631 578
f 576 578 577
f 578 631 594
f 578 594 630
f 578 630 579
f 579 630 632
f 579 632 581
f 579 581 580
f 581 632 633
f 581 633 634
f 581 634 635
f 581 635 582
f 582 636 583
f 582 635 637
f 582 637 636
f 583 636 638
f 583 638 584
f 584 638 585
f 585 638 639
f 585 639 586
f 586 639 587
f 587 639 640
f 587 640 588
f 588 640 641
f 588 641 642
f 588 642 589
f 589 642 643
f 589 643 644
f 589 644 590
f 590 644 591
f 591 644 645
f 591 645 646
f 591 646 592
f 592 646 647
f 592 647 600
f 594 631 595
f 596 648 702
f 596 702 649
f 596 649 650
f 596 650 598
f 597 628 683
f 597 683 648
f 598 650 629
f 598 629 599
f 600 647 651
f 600 651 652
f 600 652 653
f 600 653 654
f 600 654 601
f 601 654 605
f 601 605 602
f 602 605 603
f 603 605 604
f 605 654 655
f 605 655 656
f 605 656 657
f 605 657 606
f 606 657 658
f 606 658 607
f 607 658 659
f 607 659 608
f 608 659 609
f 609 659 660
f 609 660 610
f 610 661 612
f 610 612 611
f 610 660 662
f 610 662 625
f 610 625 663
f 610 663 664
f 610 664 661
f 612 661 665
f 612 665 666
f 612 666 667
f 612 667 613
f 613 667 614
f 614 667 615
f 615 667 616
f 616 667 668
f 616 668 669
f 616 669 670
f 616 670 671
f 616 671 672
f 616 672 673
f 616 673 674
f 616 674 617
f 617 674 675
f 617 675 676
f 617 676 623
f 617 623 619
f 617 619 618
f 619 623 622
f 619 622 621
f 623 676 675
f 623 675 624
f 624 675 625
f 625 662 677
f 625 677 678
f 625 678 626
f 625 675 664
f 625 664 663
f 626 679 680
f 626 680 627
f 626 678 679
f 627 681 628
f 627 680 682
f 627 682 681
f 628 681 683
f 629 650 684
f 629 684 634
f 629 634 685
f 629 685 630
f 630 685 634
f 630 634 632
f 632 634 686
f 632 686 633
f 633 686 634
f 634 684 687
f 634 687 637
f 634 637 635
f 636 688 638
f 636 637 689
f 636 689 688
f 637 687 689
f 638 688 639
f 639 688 640
f 640 688 690
f 640 690 641
f 641 690 691
f 641 691 692
f 641 692 693
f 641 693 642
f 642 693 694
f 642 694 643
f 643 694 644
f 644 694 695
f 644 695 645
f 645 695 696
f 645 696 697
f 645 697 698
f 645 698 647
f 645 647 646
f 647 698 699
f 647 699 700
f 647 700 651
f 648 683 701
f 648 701 702
f 649 702 703
f 649 703 704
f 649 704 650
f 650 704 684
f 651 700 652
f 652 700 653
f 653 700 705
f 653 705 654
f 654 705 706
f 654 706 655
f 655 706 656
f 656 706 657
f 657 706 707
f 657 707 708
f 657 708 709
f 657 709 658
f 658 709 745
f 658 745 710
f 658 710 711
f 658 711 712
f 658 712 713
f 658 713 714
f 658 714 659
f 659 714 660
f 660 714 715
f 660 715 716
f 660 716 662
f 661 664 665
f 662 716 677
f 664 675 717
f 664 717 718
f 664 718 665
f 665 718 668
f 665 668 719
f 665 719 667
f 665 667 666
f 667 719 668
f 668 718 717
f 668 717 669
f 669 717 720
f 669 720 721
f 669 721 722
f 669 722 670
f 670 722 723
f 670 723 671
f 671 723 672
f 672 723 673
f 673 724 674
f 673 723 725
f 673 725 675
f 673 675 724
f 674 724 675
f 675 725 720
f 675 720 717
f 677 726 678
f 677 716 715
f 677 715 726
f 678 682 679
f 678 726 727
f 678 727 728
f 678 728 682
f 679 682 680
f 681 682 705
f 681 705 729
f 681 729 683
f 682 728 730
f 682 730 705
f 683 729 701
f 684 704 731
f 684 731 689
f 684 689 687
f 688 689 690
f 689 731 690
f 690 731 691
f 691 731 704
f 691 704 703
f 691 703 732
f 691 732 692
f 692 732 733
f 692 733 693
f 693 733 734
f 693 734 694
f 694 734 696
f 694 696 695
f 696 734 735
f 696 735 736
f 696 736 737
f 696 737 697
f 697 737 698
f 698 737 738
f 698 738 699
f 699 738 700
f 700 738 705
f 701 729 733
f 701 733 732
f 701 732 703
f 701 703 702
f 705 739 735
f 705 735 729
f 705 730 740
f 705 740 741
f 705 741 706
f 705 738 739
f 706 741 707
f 707 741 742
f 707 742 708
f 708 742 743
f 708 743 744
f 708 744 709
f 709 744 745
f 710 745 746
f 710 746 711
f 711 746 712
f 712 746 747
f 712 747 748
f 712 748 713
f 713 748 714
f 714 748 715
f 715 748 747
f 715 747 726
f 720 725 721
f 721 725 722
f 722 725 723
f 726 747 746
f 726 746 727
f 727 746 749
f 727 749 728
f 728 749 743
f 728 743 750
f 728 750 751
f 728 751 730
f 729 735 733
f 730 751 752
f 730 752 740
f 733 735 753
f 733 753 734
f 734 753 735
f 735 739 737
f 735 737 736
f 737 739 738
f 740 742 741
f 740 752 751
f 740 751 750
f 740 750 742
f 742 750 743
f 743 749 744
f 744 749 745
f 745 749 746

