# https://github.com/mikedh/trimesh
v -0.00871138 0.00295020 -0.00585809
v -0.00928586 0.00295020 -0.00585328
v -0.00928586 0.00494980 -0.00585328
v -0.00871138 0.00494980 -0.00585756
v -0.00203394 0.00494980 -0.00460744
v -0.00203394 0.00295020 -0.00460744
v -0.00981658 0.00295020 -0.00563342
v -0.00981658 0.00494980 -0.00563342
v -0.00203394 0.00494980 -0.00039332
v -0.00203394 0.00295020 -0.00235969
v -0.01022515 0.00295020 -0.00523063
v -0.01022515 0.00494980 -0.00523063
v -0.00203394 0.00476617 -0.00039332
v -0.00935024 0.00494980 -0.00292832
v -0.00203394 0.00445000 -0.00042755
v -0.00750218 0.00295020 -0.00255280
v -0.01045296 0.00295020 -0.00470319
v -0.01045296 0.00494980 -0.00470319
v -0.00935024 0.00295020 -0.00292832
v -0.00987106 0.00494980 -0.00317117
v -0.00809399 0.00295020 -0.00261539
v -0.00766230 0.00299875 -0.00250787
v -0.01046617 0.00295020 -0.00412868
v -0.01046617 0.00494980 -0.00412868
v -0.00987106 0.00295020 -0.00317117
v -0.01026147 0.00494980 -0.00359216
v -0.01026147 0.00295020 -0.00359216
f 1 2 3
f 1 3 4
f 1 4 5
f 1 5 6
f 1 6 10
f 1 10 16
f 1 16 21
f 1 21 19
f 1 19 25
f 1 25 27
f 1 27 23
f 1 23 17
f 1 17 11
f 1 11 7
f 1 7 2
f 2 7 8
f 2 8 3
f 3 8 12
f 3 12 18
f 3 18 24
f 3 24 26
f 3 26 20
f 3 20 14
f 3 14 9
f 3 9 5
f 3 5 4
f 5 9 13
f 5 13 15
f 5 15 10
f 5 10 6
f 7 11 12
f 7 12 8
f 9 14 19
f 9 19 13
f 10 15 16
f 11 17 18
f 11 18 12
f 13 19 15
f 14 20 25
f 14 25 19
f 15 19 21
f 15 21 22
f 15 22 16
f 16 22 21
f 17 23 24
f 17 24 18
f 20 26 27
f 20 27 25
f 23 27 26
f 23 26 24

