# https://github.com/mikedh/trimesh
v -0.00067955 -0.00966276 -0.00075683
v 0.00067941 -0.00966026 -0.00075683
v 0.00067941 -0.00964277 0.00060719
v -0.00067955 -0.00964277 0.00060719
v -0.00203850 -0.00952284 -0.00075683
v -0.00067955 -0.00965027 -0.00211539
v 0.00203837 -0.00952284 -0.00075683
v 0.00067941 -0.00964527 -0.00211539
v 0.00203837 -0.00950035 0.00060719
v 0.00067941 -0.00959030 0.00196575
v -0.00203850 -0.00950035 0.00060719
v -0.00067955 -0.00959030 0.00196575
v -0.00203850 -0.00945038 0.00196575
v -0.00353165 -0.00922301 -0.00084958
v -0.00336977 -0.00924799 -0.00211539
v -0.00203850 -0.00950785 -0.00211539
v -0.00349757 -0.00921301 0.00048170
v -0.00203850 -0.00947536 -0.00347394
v -0.00067955 -0.00960779 -0.00347394
v 0.00067941 -0.00960529 -0.00347394
v 0.00203837 -0.00950285 -0.00211539
v 0.00336964 -0.00924799 -0.00211539
v 0.00353152 -0.00922301 -0.00084958
v 0.00349744 -0.00921301 0.00048170
v 0.00203837 -0.00947287 -0.00347394
v 0.00325462 -0.00922051 0.00196575
v 0.00203837 -0.00944788 0.00196575
v 0.00067941 -0.00794373 0.03050095
v -0.00325475 -0.00922051 0.00196575
v -0.00067955 -0.00794373 0.03050095
v -0.00308861 -0.00917803 0.00332431
v -0.00140376 -0.00773135 0.03267246
v -0.00407694 -0.00907809 -0.00136245
v -0.00407907 -0.00907809 -0.00005299
v -0.00407907 -0.00907809 -0.00045674
v -0.00404925 -0.00907059 -0.00211539
v -0.00330161 -0.00922800 -0.00347394
v -0.00401730 -0.00906060 0.00085271
v -0.00318233 -0.00919552 -0.00483250
v -0.00203850 -0.00941040 -0.00483250
v -0.00067955 -0.00953533 -0.00483250
v 0.00067941 -0.00953283 -0.00483250
v 0.00203837 -0.00940790 -0.00483250
v 0.00404912 -0.00907059 -0.00211539
v 0.00407681 -0.00907809 -0.00136245
v 0.00330361 -0.00922800 -0.00347394
v 0.00398309 -0.00905310 -0.00347394
v 0.00407894 -0.00907809 -0.00045674
v 0.00407894 -0.00907809 -0.00005299
v 0.00401717 -0.00906060 0.00085271
v 0.00318006 -0.00919302 -0.00483250
v 0.00393409 -0.00903811 0.00196575
v 0.00308847 -0.00917803 0.00332431
v 0.00140362 -0.00773135 0.03267246
v 0.00067941 -0.00786128 0.03185951
v -0.00393423 -0.00903811 0.00196575
v -0.00067955 -0.00786128 0.03185951
v -0.00060500 -0.00776133 0.03316350
v -0.00100970 -0.00768887 0.03357816
v -0.00067955 -0.00749149 0.03593518
v -0.00203850 -0.00724163 0.03593518
v -0.00203850 -0.00737655 0.03457662
v -0.00192774 -0.00753396 0.03316350
v -0.00217696 -0.00756145 0.03185951
v -0.00462223 -0.00885322 -0.00084958
v -0.00475642 -0.00878575 -0.00211539
v -0.00475642 -0.00871330 0.00196575
v -0.00462223 -0.00883323 0.00048170
v -0.00475642 -0.00875077 -0.00347394
v -0.00398109 -0.00905060 -0.00347394
v -0.00386181 -0.00900563 -0.00483250
v -0.00297359 -0.00914055 -0.00560181
v -0.00203850 -0.00922051 -0.00570547
v -0.00067955 -0.00928297 -0.00577095
v 0.00067941 -0.00928047 -0.00577095
v 0.00203837 -0.00921551 -0.00570002
v 0.00296919 -0.00913805 -0.00560181
v 0.00475629 -0.00878575 -0.00211539
v 0.00475629 -0.00875077 -0.00347394
v 0.00462209 -0.00885322 -0.00084958
v 0.00385954 -0.00900563 -0.00483250
v 0.00475629 -0.00867332 -0.00483250
v 0.00462209 -0.00883323 0.00048170
v 0.00475629 -0.00871330 0.00196575
v 0.00475629 -0.00861835 0.00332431
v 0.00339733 -0.00709171 0.03185951
v 0.00217682 -0.00756145 0.03185951
v 0.00192761 -0.00753396 0.03316350
v 0.00203837 -0.00737655 0.03457662
v 0.00203837 -0.00724413 0.03593518
v 0.00067941 -0.00749398 0.03593518
v 0.00100957 -0.00768887 0.03357816
v 0.00060486 -0.00776133 0.03316350
v 0.00010430 -0.00772635 0.03399282
v -0.00475642 -0.00861835 0.00332431
v -0.00339746 -0.00709171 0.03185951
v -0.00010444 -0.00772635 0.03399282
v -0.00060500 -0.00763640 0.03450024
v -0.00067955 -0.00724413 0.03729920
v -0.00203850 -0.00701426 0.03729920
v -0.00339746 -0.00674441 0.03593518
v -0.00344858 -0.00655202 0.03716825
v -0.00339746 -0.00687683 0.03457662
v -0.00339746 -0.00699177 0.03321806
v -0.00609834 -0.00811863 -0.00075683
v -0.00609621 -0.00811363 -0.00211539
v -0.00607917 -0.00809864 -0.00347394
v -0.00594285 -0.00802618 0.00332431
v -0.00601953 -0.00807366 0.00196575
v -0.00607278 -0.00810364 0.00060719
v -0.00603657 -0.00806866 -0.00483250
v -0.00475642 -0.00867582 -0.00483250
v -0.00581717 -0.00793873 -0.00573275
v -0.00475642 -0.00816860 -0.00586370
v -0.00203850 -0.00839847 -0.00607649
v -0.00067955 -0.00839847 -0.00614741
v 0.00067941 -0.00839847 -0.00614741
v 0.00203837 -0.00839847 -0.00607649
v 0.00475629 -0.00816860 -0.00586370
v 0.00581491 -0.00793623 -0.00573275
v 0.00609607 -0.00811363 -0.00211539
v 0.00609820 -0.00811863 -0.00075683
v 0.00607903 -0.00809614 -0.00347394
v 0.00603430 -0.00806616 -0.00483250
v 0.00607264 -0.00810364 0.00060719
v 0.00602152 -0.00807366 0.00196575
v 0.00594271 -0.00802618 0.00332431
v 0.00425147 -0.00646457 0.03457662
v 0.00339733 -0.00699177 0.03321806
v 0.00339733 -0.00687683 0.03457662
v 0.00352513 -0.00666695 0.03604430
v 0.00327379 -0.00660948 0.03729920
v 0.00203837 -0.00702675 0.03729920
v 0.00060486 -0.00763640 0.03450024
v 0.00067941 -0.00724662 0.03729920
v -0.00424947 -0.00646457 0.03457662
v -0.00067955 -0.00671193 0.03861411
v -0.00203850 -0.00660948 0.03846134
v -0.00302897 -0.00647456 0.03822127
v -0.00393423 -0.00630466 0.03753926
v -0.00407907 -0.00635963 0.03663356
v -0.00414297 -0.00639960 0.03593518
v -0.00677782 -0.00770636 -0.00075683
v -0.00677569 -0.00770387 -0.00211539
v -0.00675865 -0.00769137 -0.00347394
v -0.00662233 -0.00759393 0.00332431
v -0.00670114 -0.00764890 0.00196575
v -0.00675226 -0.00768638 0.00060719
v -0.00671605 -0.00765639 -0.00483250
v -0.00813678 -0.00634214 -0.00514895
v -0.00723151 -0.00675190 -0.00576003
v -0.00620697 -0.00713918 -0.00594008
v -0.00475642 -0.00703924 -0.00619106
v 0.00475629 -0.00703924 -0.00618561
v 0.00620683 -0.00713918 -0.00594008
v 0.00722925 -0.00675190 -0.00576003
v 0.00813664 -0.00633964 -0.00513259
v 0.00671378 -0.00765389 -0.00483250
v 0.00677555 -0.00770387 -0.00211539
v 0.00675851 -0.00769137 -0.00347394
v 0.00677768 -0.00770636 -0.00075683
v 0.00675212 -0.00768638 0.00060719
v 0.00670100 -0.00764890 0.00196575
v 0.00662219 -0.00759393 0.00332431
v 0.00493095 -0.00601982 0.03457662
v 0.00416201 -0.00640960 0.03566784
v 0.00406403 -0.00635213 0.03657354
v 0.00395327 -0.00630216 0.03729920
v 0.00301818 -0.00648705 0.03822673
v 0.00203837 -0.00661948 0.03846679
v 0.00067941 -0.00671193 0.03861411
v -0.00482245 -0.00595985 0.03593518
v -0.00492895 -0.00602232 0.03457662
v -0.00067955 -0.00633464 0.03929612
v -0.00203850 -0.00625469 0.03913789
v -0.00339746 -0.00537268 0.04008179
v -0.00344858 -0.00611227 0.03866321
v -0.00540608 -0.00498540 0.03929066
v -0.00487357 -0.00543265 0.03876142
v -0.00558926 -0.00511783 0.03837950
v -0.00462223 -0.00595236 0.03716825
v -0.00816234 -0.00636962 -0.00211539
v -0.00747434 -0.00703424 -0.00211539
v -0.00745517 -0.00700676 0.00060719
v -0.00815169 -0.00635713 -0.00019485
v -0.00760853 -0.00689682 -0.00069135
v -0.00816234 -0.00636712 -0.00347394
v -0.00747434 -0.00702175 -0.00347394
v -0.00815595 -0.00636212 -0.00424325
v -0.00760001 -0.00685435 -0.00475066
v -0.00736783 -0.00691431 0.00332431
v -0.00570641 -0.00521277 0.03729920
v -0.00578096 -0.00528024 0.03593518
v -0.00638589 -0.00462811 0.03729920
v -0.00646044 -0.00468807 0.03593518
v -0.00741896 -0.00696928 0.00196575
v -0.00959158 -0.00380357 -0.00561818
v -0.00845415 -0.00543515 -0.00576003
v -0.00852444 -0.00580494 -0.00475066
v -0.00929551 -0.00457563 -0.00483250
v -0.00760001 -0.00580494 -0.00596191
v -0.00747434 -0.00432078 -0.00626199
v 0.00747420 -0.00432078 -0.00626199
v 0.00759987 -0.00580494 -0.00596191
v 0.00845614 -0.00543515 -0.00576003
v 0.00959358 -0.00380607 -0.00561818
v 0.00929538 -0.00457813 -0.00483250
v 0.00852431 -0.00580494 -0.00473975
v 0.00815581 -0.00636212 -0.00422688
v 0.00759987 -0.00685435 -0.00473975
v 0.00747420 -0.00703424 -0.00211539
v 0.00747420 -0.00702175 -0.00347394
v 0.00816220 -0.00636712 -0.00347394
v 0.00816220 -0.00636962 -0.00211539
v 0.00760839 -0.00689682 -0.00069135
v 0.00815155 -0.00635713 -0.00019485
v 0.00745503 -0.00700676 0.00060719
v 0.00741882 -0.00696928 0.00196575
v 0.00736770 -0.00691431 0.00332431
v 0.00645179 -0.00469057 0.03593518
v 0.00584686 -0.00534020 0.03457662
v 0.00577231 -0.00527024 0.03593518
v 0.00569137 -0.00520028 0.03729920
v 0.00467108 -0.00602731 0.03604430
v 0.00475629 -0.00582243 0.03729920
v 0.00557848 -0.00511033 0.03840678
v 0.00542511 -0.00499540 0.03931794
v 0.00488622 -0.00541766 0.03877779
v 0.00451772 -0.00520278 0.03966167
v 0.00339307 -0.00536519 0.04007633
v 0.00203837 -0.00624969 0.03914335
v 0.00067941 -0.00633464 0.03929612
v -0.00067955 -0.00591738 0.04001632
v -0.00203850 -0.00574997 0.04001632
v -0.00294590 -0.00507285 0.04081290
v -0.00385116 -0.00492544 0.04057829
v -0.00450082 -0.00520528 0.03966713
v -0.00691201 -0.00375610 0.03954710
v -0.00487357 -0.00477052 0.04008179
v -0.00569150 -0.00380107 0.04094385
v -0.00659676 -0.00349874 0.04045280
v -0.00700999 -0.00386604 0.03865776
v -0.00815808 -0.00636212 -0.00110056
v -0.00863946 -0.00568001 -0.00211539
v -0.00864159 -0.00568001 -0.00347394
v -0.00813465 -0.00633464 0.00060719
v -0.00859686 -0.00565502 0.00060719
v -0.00852657 -0.00581493 -0.00069135
v -0.00804731 -0.00622720 0.00332431
v -0.00809844 -0.00628717 0.00196575
v -0.00707602 -0.00394849 0.03729920
v -0.00975347 -0.00296155 -0.00577095
v -0.00887803 -0.00428330 -0.00587461
v -0.00963419 -0.00389602 -0.00483250
v -0.00999629 -0.00296155 -0.00483250
v -0.00931255 -0.00459562 -0.00347394
v -0.00883329 -0.00296155 -0.00614741
v -0.00747434 -0.00296155 -0.00626199
v 0.00747420 -0.00296155 -0.00626199
v 0.00883316 -0.00296155 -0.00614741
v 0.00887789 -0.00428330 -0.00587461
v 0.00975333 -0.00296155 -0.00577095
v 0.00999616 -0.00296155 -0.00483250
v 0.00963405 -0.00389852 -0.00483250
v 0.00931029 -0.00459562 -0.00347394
v 0.00863933 -0.00568001 -0.00347394
v 0.00863933 -0.00568001 -0.00211539
v 0.00815794 -0.00636212 -0.00110056
v 0.00852644 -0.00581493 -0.00069135
v 0.00859886 -0.00565502 0.00060719
v 0.00813451 -0.00633464 0.00060719
v 0.00809830 -0.00628717 0.00196575
v 0.00804718 -0.00622720 0.00332431
v 0.00707802 -0.00394849 0.03729920
v 0.00637085 -0.00462811 0.03729920
v 0.00701199 -0.00386604 0.03865776
v 0.00606625 -0.00463310 0.03877779
v 0.00691187 -0.00375610 0.03953618
v 0.00658811 -0.00349125 0.04044189
v 0.00568285 -0.00380357 0.04094385
v 0.00473925 -0.00402345 0.04138579
v 0.00488622 -0.00477552 0.04007633
v 0.00427490 -0.00373861 0.04216600
v 0.00384250 -0.00492294 0.04056738
v 0.00339307 -0.00462061 0.04130940
v 0.00293511 -0.00506786 0.04080745
v 0.00203837 -0.00573998 0.04001632
v 0.00067941 -0.00526025 0.04114572
v 0.00067941 -0.00591738 0.04001632
v -0.00067955 -0.00526025 0.04114572
v -0.00203850 -0.00476803 0.04166950
v -0.00339746 -0.00462311 0.04130940
v -0.00427503 -0.00373861 0.04216600
v -0.00473938 -0.00402345 0.04138579
v -0.00819855 -0.00234190 0.03949253
v -0.00713353 -0.00259176 0.04110753
v -0.00804092 -0.00215950 0.04039824
v -0.00518030 -0.00348375 0.04184955
v -0.00622188 -0.00303900 0.04147854
v -0.00769160 -0.00307149 0.03865776
v -0.00931042 -0.00459063 -0.00211539
v -0.00856917 -0.00560755 0.00196575
v -0.00927847 -0.00452067 0.00060719
v -0.00929764 -0.00456064 -0.00075683
v -0.00853296 -0.00554759 0.00332431
v -0.00823050 -0.00239187 0.03865776
v -0.00979820 -0.00160232 -0.00579823
v -0.01011557 -0.00160232 -0.00483250
v -0.00963845 -0.00391601 -0.00347394
v -0.00999203 -0.00296155 -0.00347394
v -0.01032857 -0.00160232 -0.00075683
v -0.01032857 -0.00160232 -0.00211539
v -0.01061613 -0.00024308 -0.00075683
v -0.01076523 0.00111615 -0.00075683
v -0.01087599 0.00308503 -0.00143883
v -0.00883329 -0.00160232 -0.00612013
v -0.00747434 0.01062827 -0.00610376
v -0.00475642 0.01334673 -0.00614196
v 0.00475629 0.01334673 -0.00614741
v 0.00747420 0.01062827 -0.00610376
v 0.00883316 0.00926904 -0.00590189
v 0.00979806 -0.00160232 -0.00579823
v 0.01011544 -0.00160232 -0.00483250
v 0.00998976 -0.00296155 -0.00347394
v 0.00963405 -0.00391101 -0.00211539
v 0.00963831 -0.00391601 -0.00347394
v 0.01087586 0.00308254 -0.00143883
v 0.01076723 0.00111615 -0.00075683
v 0.01062025 -0.00024308 -0.00075683
v 0.01033057 -0.00160232 -0.00211539
v 0.01032844 -0.00160232 -0.00075683
v 0.00931029 -0.00459063 -0.00211539
v 0.00929751 -0.00456064 -0.00075683
v 0.00927834 -0.00452067 0.00060719
v 0.00856904 -0.00560755 0.00196575
v 0.00853283 -0.00554759 0.00332431
v 0.00823036 -0.00239187 0.03865776
v 0.00769146 -0.00307149 0.03865776
v 0.00819841 -0.00234190 0.03949253
v 0.00804079 -0.00215700 0.04039824
v 0.00713340 -0.00258426 0.04110753
v 0.00621749 -0.00303401 0.04147854
v 0.00518016 -0.00348375 0.04184955
v 0.00339733 -0.00390601 0.04232423
v 0.00584686 -0.00257926 0.04226967
v 0.00203837 0.00061143 0.04734380
v 0.00203837 -0.00476803 0.04166405
v 0.00203837 -0.00517030 0.04098749
v 0.00067941 -0.00485548 0.04182227
v -0.00067955 -0.00485548 0.04182227
v -0.00203850 -0.00408841 0.04245517
v -0.00339746 -0.00390351 0.04232423
v -0.00584699 -0.00257926 0.04226967
v -0.00203850 0.00061143 0.04734380
v -0.00847758 -0.00166478 0.03997267
v -0.00866076 -0.00160232 0.03865776
v -0.00836895 -0.00125251 0.04094385
v -0.00675439 -0.00191964 0.04201323
v -0.00963419 -0.00391101 -0.00211539
v -0.00924865 -0.00446570 0.00196575
v -0.00960223 -0.00384105 0.00060719
v -0.00957667 -0.00378608 0.00196575
v -0.00961927 -0.00388103 -0.00075683
v -0.00921244 -0.00439574 0.00332431
v -0.00883329 0.00926904 -0.00590189
v -0.00991748 0.00791230 -0.00490889
v -0.00962566 0.00926904 -0.00561818
v -0.01038821 0.00655057 -0.00347394
v -0.01037117 0.00790981 -0.00347394
v -0.01087812 0.00383211 -0.00145520
v -0.01087812 0.00455920 -0.00145520
v -0.00996647 -0.00296155 -0.00211539
v -0.00993452 -0.00296155 -0.00075683
v -0.00989618 -0.00296155 0.00060719
v -0.01028597 -0.00160232 0.00060719
v -0.01074180 0.00111615 0.00060719
v -0.00974282 0.00111615 0.03457662
v -0.00996221 0.00247538 0.03457662
v -0.01084191 0.00255034 0.00050898
v -0.01084191 0.00234545 -0.00075683
v -0.01087812 0.00302507 -0.00075683
v -0.01088025 0.00373717 -0.00082230
v -0.00886524 0.01056580 -0.00582005
v -0.00757871 0.01208744 -0.00592917
v -0.00067955 0.01470596 -0.00609831
v -0.00618141 0.01342919 -0.00591280
v -0.00475642 0.01446860 -0.00583642
v -0.00203850 0.01470596 -0.00606557
v 0.00067941 0.01470596 -0.00609831
v 0.00203837 0.01470596 -0.00606557
v 0.00475629 0.01447110 -0.00583642
v 0.00618127 0.01342919 -0.00591280
v 0.00758070 0.01208744 -0.00592917
v 0.00886511 0.01056830 -0.00582005
v 0.00962553 0.00926904 -0.00562363
v 0.00991734 0.00791480 -0.00490889
v 0.01037104 0.00790981 -0.00347394
v 0.01038808 0.00655057 -0.00347394
v 0.01087799 0.00455920 -0.00145520
v 0.01088012 0.00383211 -0.00145520
v 0.00996633 -0.00296155 -0.00211539
v 0.00961914 -0.00388103 -0.00075683
v 0.01087586 0.00307254 -0.00075683
v 0.01084178 0.00239293 -0.00075683
v 0.01084178 0.00259031 0.00048170
v 0.01074593 0.00111615 0.00060719
v 0.01028797 -0.00160232 0.00060719
v 0.00996633 0.00247538 0.03457662
v 0.00974055 0.00111615 0.03457662
v 0.00993438 -0.00296155 -0.00075683
v 0.00989604 -0.00296155 0.00060719
v 0.00960210 -0.00384105 0.00060719
v 0.00957654 -0.00378608 0.00196575
v 0.00924852 -0.00446570 0.00196575
v 0.00921230 -0.00439574 0.00332431
v 0.00866063 -0.00160232 0.03865776
v 0.00847744 -0.00166478 0.03997267
v 0.00836881 -0.00125251 0.04094385
v 0.00675212 -0.00191464 0.04201323
v 0.00203837 -0.00408841 0.04245517
v 0.00117145 0.00046152 0.04746929
v 0.00289251 0.00155090 0.04766026
v 0.00203837 0.00129105 0.04784576
v 0.00026406 0.00040655 0.04751840
v -0.00026419 0.00040655 0.04751840
v -0.00116945 0.00046152 0.04746929
v -0.00289265 0.00155090 0.04766026
v -0.00203850 0.00129105 0.04784576
v -0.00979181 0.00517635 0.03870140
v -0.01002824 0.00519134 0.03729920
v -0.00953833 0.00036157 0.03532956
v -0.00932320 -0.00037051 0.03457662
v -0.00954685 -0.00371612 0.00332431
v -0.00280105 0.00428935 0.04890424
v -0.00287135 0.00519134 0.04895880
v -0.00963631 0.00561610 0.03945434
v -0.00984932 -0.00296155 0.00196575
v -0.00988127 0.00926904 -0.00483250
v -0.00956602 0.01007108 -0.00557453
v -0.00996008 0.00926904 -0.00347394
v -0.00961714 0.01017103 -0.00483250
v -0.01064595 0.00655057 -0.00211539
v -0.00965549 0.00771492 0.03729920
v -0.01087812 0.00455920 -0.00131880
v -0.01024124 -0.00160232 0.00196575
v -0.01006232 0.00383211 0.03457662
v -0.00955537 0.00030910 0.03457662
v -0.01087386 0.00305255 -0.00000935
v -0.01087386 0.00321996 -0.00000935
v -0.00843285 0.01170266 -0.00572730
v -0.00719743 0.01303191 -0.00574912
v -0.00067955 0.01562294 -0.00576549
v -0.00577244 0.01422873 -0.00569456
v -0.00344006 0.01480341 -0.00586915
v -0.00301619 0.01547053 -0.00561818
v -0.00203850 0.01556298 -0.00571093
v 0.00067941 0.01562294 -0.00576549
v 0.00203837 0.01556298 -0.00571093
v 0.00344206 0.01480341 -0.00586915
v 0.00301818 0.01547053 -0.00561818
v 0.00577018 0.01422873 -0.00569456
v 0.00719730 0.01303191 -0.00574912
v 0.00843271 0.01170266 -0.00572730
v 0.00956802 0.01007608 -0.00557453
v 0.00988539 0.00926904 -0.00483250
v 0.01064581 0.00655057 -0.00211539
v 0.00961914 0.01017602 -0.00483250
v 0.00996207 0.00926904 -0.00347394
v 0.00965961 0.00770992 0.03729920
v 0.01087799 0.00455920 -0.00131880
v 0.01087799 0.00371218 -0.00082230
v 0.01087373 0.00311752 -0.00004754
v 0.01006432 0.00383211 0.03457662
v 0.01024111 -0.00160232 0.00196575
v 0.01001107 0.00519134 0.03865776
v 0.00953607 0.00036657 0.03532410
v 0.00955311 0.00031410 0.03457662
v 0.00984918 -0.00296155 0.00196575
v 0.00954672 -0.00371612 0.00332431
v 0.00932307 -0.00036552 0.03457662
v 0.00287121 0.00519134 0.04895880
v 0.00280092 0.00429185 0.04890424
v 0.00965322 0.00434932 0.03948162
v 0.00974481 0.00519134 0.03961802
v 0.00070284 0.00099622 0.04789487
v 0.00249207 0.00338736 0.04876784
v 0.00203837 0.00252785 0.04853868
v 0.00067941 0.00220553 0.04865872
v -0.00070085 0.00099622 0.04789487
v -0.00204063 0.00252785 0.04853868
v -0.00249646 0.00338237 0.04876784
v -0.00067955 0.00220553 0.04865872
v -0.00982589 0.00655057 0.03865776
v -0.00988979 0.00655057 0.03729920
v -0.00204063 0.00383461 0.04902427
v -0.00203850 0.00519134 0.04924252
v -0.00286070 0.00655057 0.04894789
v -0.00963845 0.00655057 0.03945980
v -0.01019225 -0.00160232 0.00332431
v -0.00926995 0.01085064 -0.00483250
v -0.00859047 0.01190505 -0.00483250
v -0.00946378 0.00841702 0.03593518
v -0.00960437 0.01013105 -0.00347394
v -0.00910381 0.00926904 0.03593518
v -0.00961714 0.00751003 0.03865776
v -0.00943183 0.00839453 0.03729920
v -0.00808139 0.01258466 -0.00483250
v -0.00740192 0.01321181 -0.00483250
v -0.00661168 0.01389142 -0.00483250
v -0.00067955 0.01586031 -0.00483250
v 0.00067941 0.01586281 -0.00483250
v -0.00593220 0.01433118 -0.00483250
v -0.00475642 0.01492584 -0.00483250
v -0.00382986 0.01530063 -0.00483250
v -0.00315038 0.01550551 -0.00483250
v -0.00203850 0.01572539 -0.00483250
v 0.00203837 0.01572539 -0.00483250
v 0.00315024 0.01550551 -0.00483250
v 0.00382972 0.01530063 -0.00483250
v 0.00475629 0.01492584 -0.00483250
v 0.00593845 0.01433118 -0.00483250
v 0.00661793 0.01389892 -0.00483250
v 0.00740604 0.01321930 -0.00483250
v 0.00808552 0.01258966 -0.00483250
v 0.00859247 0.01191004 -0.00483250
v 0.00927195 0.01085564 -0.00483250
v 0.00990030 0.00655057 0.03729920
v 0.00909515 0.00926904 0.03593518
v 0.00945513 0.00839953 0.03593518
v 0.00942744 0.00838953 0.03729920
v 0.00962340 0.00751503 0.03865776
v 0.00987048 0.00655057 0.03865776
v 0.01087373 0.00317998 -0.00004754
v 0.01004089 0.00519134 0.03729920
v 0.01019212 -0.00160232 0.00332431
v 0.00967665 0.00655057 0.03955801
v 0.00286056 0.00655057 0.04894789
v 0.00203837 0.00519134 0.04924252
v 0.00203837 0.00383711 0.04902427
v 0.00158680 0.00301507 0.04890969
v 0.00067941 0.00288515 0.04896426
v -0.00159120 0.00301507 0.04890969
v -0.00067955 0.00288515 0.04896426
v -0.00955750 0.00729515 0.03938341
v -0.00067955 0.00383211 0.04925343
v -0.00067955 0.00519134 0.04947713
v -0.00067955 0.00655057 0.04946076
v -0.00203850 0.00655057 0.04922069
v -0.00278614 0.00739010 0.04889878
v -0.00847332 0.01041339 0.03593518
v -0.00801749 0.01112299 0.03457662
v -0.00836682 0.01024099 0.03696092
v -0.00733801 0.01181760 0.03457662
v -0.00067955 0.01392141 0.04137487
v 0.00067941 0.01392141 0.04137487
v -0.00543164 0.01402385 0.00801106
v -0.00488848 0.01428620 0.00749274
v -0.00339746 0.01320181 0.04137487
v -0.00203850 0.01367654 0.04137487
v 0.00203837 0.01367904 0.04137487
v 0.00488835 0.01428620 0.00749274
v 0.00339733 0.01320181 0.04137487
v 0.00543150 0.01402385 0.00801106
v 0.00735279 0.01181760 0.03457662
v 0.00803227 0.01114548 0.03457662
v 0.00847318 0.01042338 0.03593518
v 0.00836455 0.01023849 0.03696638
v 0.00956163 0.00730265 0.03939978
v 0.00689483 0.01010107 0.04220965
v 0.00278601 0.00739510 0.04889878
v 0.00203837 0.00655057 0.04922069
v 0.00067941 0.00655057 0.04946076
v 0.00067941 0.00519134 0.04947167
v 0.00067941 0.00383211 0.04925343
v -0.00689497 0.01010357 0.04220965
v -0.00067955 0.00790981 0.04920978
v -0.00198951 0.00786983 0.04899699
v -0.00241126 0.00829709 0.04874056
v -0.00286709 0.01013605 0.04762752
v -0.00302471 0.00926904 0.04785122
v -0.00791312 0.01109301 0.03593518
v -0.00565103 0.01152276 0.04233514
v -0.00723364 0.01168017 0.03593518
v -0.00419409 0.01273708 0.04216600
v -0.00426651 0.01278455 0.04137487
v -0.00611538 0.01235729 0.03457662
v -0.00203850 0.01353413 0.04273343
v -0.00067955 0.01377399 0.04273343
v 0.00067941 0.01377399 0.04273343
v 0.00203837 0.01353413 0.04273343
v -0.00339107 0.01298693 0.04266251
v 0.00419396 0.01273708 0.04216600
v 0.00426212 0.01278455 0.04137487
v 0.00723990 0.01168017 0.03593518
v 0.00791938 0.01110300 0.03593518
v 0.00565090 0.01152276 0.04233514
v 0.00289251 0.01149278 0.04634535
v 0.00286695 0.01013605 0.04762752
v 0.00302457 0.00926904 0.04785122
v 0.00241538 0.00829959 0.04874601
v 0.00199151 0.00787233 0.04899699
v 0.00067941 0.00790981 0.04920978
v -0.00288413 0.01148528 0.04633443
v -0.00067955 0.00878181 0.04893697
v -0.00150600 0.00867937 0.04889333
v -0.00198951 0.00918658 0.04847867
v -0.00203850 0.01036342 0.04779120
v -0.00203850 0.01104303 0.04724560
v -0.00276058 0.01269710 0.04482856
v -0.00291182 0.01283702 0.04409199
v -0.00203850 0.01318183 0.04409199
v -0.00067955 0.01342169 0.04409199
v 0.00067941 0.01342169 0.04409199
v 0.00339094 0.01298444 0.04266251
v 0.00203837 0.01318183 0.04409199
v 0.00291168 0.01283702 0.04409199
v 0.00276045 0.01269710 0.04482856
v 0.00203837 0.01237978 0.04570153
v 0.00203837 0.01170016 0.04656904
v 0.00203837 0.01104303 0.04725105
v 0.00203837 0.01036342 0.04779120
v 0.00199151 0.00918658 0.04848412
v 0.00150799 0.00867937 0.04889333
v 0.00067941 0.00878181 0.04893697
v -0.00203850 0.01169517 0.04656359
v -0.00203850 0.01237478 0.04570153
v -0.00067955 0.00946143 0.04859870
v -0.00067955 0.01054332 0.04792215
v -0.00067955 0.01122293 0.04741473
v -0.00203850 0.01280204 0.04501952
v -0.00067955 0.01292447 0.04524322
v 0.00067941 0.01292447 0.04524322
v 0.00203837 0.01280204 0.04501952
v 0.00067941 0.01253219 0.04591977
v 0.00067941 0.01185258 0.04673273
v 0.00067941 0.01122293 0.04741473
v 0.00067941 0.01054332 0.04792215
v 0.00067941 0.00946143 0.04859870
v -0.00067955 0.01185258 0.04673273
v -0.00067955 0.01253219 0.04591977
f 1 2 3
f 1 3 4
f 1 4 5
f 1 5 6
f 1 6 2
f 2 7 3
f 2 6 8
f 2 8 7
f 3 7 9
f 3 9 27
f 3 27 10
f 3 10 12
f 3 12 4
f 4 11 5
f 4 12 13
f 4 13 11
f 5 14 15
f 5 15 16
f 5 16 6
f 5 11 17
f 5 17 14
f 6 16 18
f 6 18 19
f 6 19 20
f 6 20 8
f 7 8 21
f 7 21 22
f 7 22 23
f 7 23 24
f 7 24 9
f 8 20 25
f 8 25 21
f 9 24 26
f 9 26 27
f 10 27 28
f 10 28 30
f 10 30 12
f 11 13 29
f 11 29 17
f 12 30 13
f 13 31 29
f 13 30 32
f 13 32 31
f 14 33 15
f 14 17 34
f 14 34 35
f 14 35 33
f 15 33 36
f 15 36 70
f 15 70 37
f 15 37 18
f 15 18 16
f 17 29 38
f 17 38 34
f 18 37 39
f 18 39 40
f 18 40 19
f 19 40 41
f 19 41 42
f 19 42 20
f 20 42 43
f 20 43 25
f 21 25 22
f 22 44 45
f 22 45 23
f 22 25 46
f 22 46 47
f 22 47 44
f 23 45 48
f 23 48 49
f 23 49 24
f 24 49 50
f 24 50 26
f 25 43 51
f 25 51 46
f 26 52 53
f 26 53 27
f 26 50 52
f 27 53 54
f 27 54 28
f 28 54 55
f 28 55 57
f 28 57 30
f 29 31 56
f 29 56 38
f 30 57 32
f 31 32 56
f 32 57 58
f 32 58 59
f 32 59 60
f 32 60 61
f 32 61 62
f 32 62 63
f 32 63 64
f 32 64 56
f 33 35 65
f 33 65 66
f 33 66 36
f 34 38 67
f 34 67 68
f 34 68 65
f 34 65 35
f 36 66 69
f 36 69 70
f 37 70 39
f 38 56 67
f 39 71 72
f 39 72 40
f 39 70 71
f 40 72 73
f 40 73 41
f 41 73 74
f 41 74 75
f 41 75 42
f 42 75 76
f 42 76 43
f 43 76 77
f 43 77 51
f 44 78 45
f 44 47 79
f 44 79 78
f 45 80 48
f 45 78 80
f 46 51 47
f 47 51 81
f 47 81 82
f 47 82 79
f 48 80 49
f 49 80 83
f 49 83 84
f 49 84 50
f 50 84 52
f 51 77 81
f 52 84 85
f 52 85 86
f 52 86 87
f 52 87 54
f 52 54 53
f 54 87 88
f 54 88 89
f 54 89 90
f 54 90 91
f 54 91 92
f 54 92 93
f 54 93 55
f 55 93 94
f 55 94 97
f 55 97 57
f 56 95 67
f 56 64 96
f 56 96 95
f 57 97 58
f 58 97 59
f 59 97 98
f 59 98 60
f 60 98 97
f 60 97 91
f 60 91 135
f 60 135 99
f 60 99 100
f 60 100 61
f 61 101 62
f 61 100 102
f 61 102 101
f 62 101 103
f 62 103 64
f 62 64 63
f 64 103 104
f 64 104 96
f 65 105 66
f 65 68 105
f 66 105 106
f 66 106 107
f 66 107 69
f 67 95 108
f 67 108 109
f 67 109 110
f 67 110 68
f 68 110 105
f 69 107 111
f 69 111 112
f 69 112 70
f 70 112 71
f 71 112 72
f 72 113 114
f 72 114 73
f 72 112 113
f 73 114 115
f 73 115 74
f 74 115 116
f 74 116 117
f 74 117 75
f 75 117 118
f 75 118 76
f 76 118 119
f 76 119 77
f 77 119 120
f 77 120 82
f 77 82 81
f 78 121 122
f 78 122 80
f 78 79 123
f 78 123 121
f 79 82 124
f 79 124 123
f 80 122 83
f 82 120 124
f 83 122 125
f 83 125 84
f 84 126 127
f 84 127 85
f 84 125 126
f 85 127 128
f 85 128 129
f 85 129 86
f 86 129 87
f 87 129 130
f 87 130 89
f 87 89 88
f 89 130 90
f 90 130 131
f 90 131 132
f 90 132 133
f 90 133 91
f 91 97 94
f 91 94 134
f 91 134 92
f 91 133 135
f 92 134 94
f 92 94 93
f 95 96 104
f 95 104 136
f 95 136 108
f 99 135 137
f 99 137 138
f 99 138 100
f 100 138 139
f 100 139 140
f 100 140 102
f 101 102 140
f 101 140 141
f 101 141 142
f 101 142 103
f 103 142 136
f 103 136 104
f 105 143 144
f 105 144 106
f 105 110 143
f 106 144 145
f 106 145 107
f 107 145 111
f 108 146 147
f 108 147 109
f 108 136 146
f 109 147 148
f 109 148 110
f 110 148 143
f 111 149 113
f 111 113 112
f 111 145 149
f 113 150 151
f 113 151 152
f 113 152 114
f 113 149 150
f 114 152 153
f 114 153 115
f 115 153 116
f 116 153 117
f 117 153 154
f 117 154 118
f 118 154 119
f 119 154 155
f 119 155 120
f 120 155 156
f 120 156 157
f 120 157 158
f 120 158 124
f 121 159 122
f 121 123 160
f 121 160 159
f 122 159 161
f 122 161 125
f 123 124 160
f 124 158 160
f 125 161 162
f 125 162 126
f 126 163 127
f 126 162 163
f 127 163 164
f 127 164 128
f 128 165 166
f 128 166 130
f 128 130 129
f 128 164 165
f 130 166 131
f 131 167 132
f 131 166 167
f 132 168 169
f 132 169 133
f 132 167 168
f 133 169 170
f 133 170 135
f 135 170 171
f 135 171 137
f 136 142 172
f 136 172 173
f 136 173 146
f 137 171 232
f 137 232 174
f 137 174 175
f 137 175 138
f 138 175 139
f 139 175 176
f 139 176 177
f 139 177 178
f 139 178 179
f 139 179 140
f 140 179 178
f 140 178 180
f 140 180 181
f 140 181 141
f 141 181 142
f 142 181 172
f 143 182 183
f 143 183 144
f 143 148 184
f 143 184 185
f 143 185 186
f 143 186 182
f 144 183 187
f 144 187 188
f 144 188 145
f 145 188 189
f 145 189 150
f 145 150 190
f 145 190 149
f 146 191 147
f 146 173 192
f 146 192 193
f 146 193 194
f 146 194 195
f 146 195 191
f 147 191 196
f 147 196 148
f 148 196 184
f 149 190 150
f 150 197 198
f 150 198 151
f 150 189 199
f 150 199 200
f 150 200 197
f 151 201 152
f 151 198 201
f 152 201 202
f 152 202 153
f 153 202 203
f 153 203 154
f 154 203 155
f 155 203 204
f 155 204 156
f 156 205 157
f 156 204 205
f 157 205 206
f 157 206 207
f 157 207 208
f 157 208 209
f 157 209 160
f 157 160 210
f 157 210 158
f 158 210 160
f 159 211 161
f 159 160 212
f 159 212 213
f 159 213 211
f 160 209 212
f 161 211 214
f 161 214 215
f 161 215 216
f 161 216 217
f 161 217 162
f 162 217 218
f 162 218 163
f 163 218 219
f 163 219 164
f 164 219 220
f 164 220 221
f 164 221 165
f 165 221 222
f 165 222 223
f 165 223 224
f 165 224 166
f 166 224 225
f 166 225 167
f 167 225 168
f 168 225 226
f 168 226 227
f 168 227 228
f 168 228 169
f 169 228 227
f 169 227 229
f 169 229 230
f 169 230 231
f 169 231 170
f 170 231 171
f 171 231 232
f 172 181 192
f 172 192 173
f 174 232 289
f 174 289 233
f 174 233 234
f 174 234 175
f 175 234 235
f 175 235 176
f 176 235 236
f 176 236 237
f 176 237 177
f 177 237 178
f 178 238 180
f 178 237 239
f 178 239 240
f 178 240 241
f 178 241 238
f 180 242 192
f 180 192 181
f 180 238 242
f 182 186 243
f 182 243 244
f 182 244 245
f 182 245 187
f 182 187 183
f 184 246 185
f 184 196 246
f 185 246 247
f 185 247 248
f 185 248 244
f 185 244 243
f 185 243 186
f 187 245 189
f 187 189 188
f 189 245 199
f 191 249 250
f 191 250 196
f 191 195 251
f 191 251 249
f 192 194 193
f 192 242 194
f 194 242 251
f 194 251 195
f 196 250 246
f 197 252 253
f 197 253 198
f 197 200 254
f 197 254 255
f 197 255 252
f 198 253 201
f 199 245 200
f 200 245 256
f 200 256 254
f 201 257 202
f 201 253 257
f 202 257 258
f 202 258 259
f 202 259 203
f 203 259 260
f 203 260 204
f 204 260 261
f 204 261 205
f 205 261 206
f 206 261 262
f 206 262 263
f 206 263 264
f 206 264 207
f 207 264 265
f 207 265 266
f 207 266 208
f 208 266 209
f 209 266 213
f 209 213 212
f 211 213 214
f 213 266 214
f 214 267 268
f 214 268 215
f 214 266 267
f 215 268 216
f 216 268 267
f 216 267 269
f 216 269 270
f 216 270 271
f 216 271 217
f 217 271 218
f 218 272 219
f 218 271 272
f 219 272 273
f 219 273 274
f 219 274 220
f 220 274 275
f 220 275 221
f 221 275 222
f 222 275 223
f 223 275 276
f 223 276 226
f 223 226 225
f 223 225 224
f 226 276 277
f 226 277 227
f 227 277 278
f 227 278 279
f 227 279 280
f 227 280 281
f 227 281 282
f 227 282 229
f 229 282 281
f 229 281 283
f 229 283 284
f 229 284 230
f 230 284 285
f 230 285 286
f 230 286 231
f 231 287 288
f 231 288 289
f 231 289 232
f 231 286 287
f 233 289 288
f 233 288 290
f 233 290 234
f 234 290 291
f 234 291 235
f 235 291 292
f 235 292 236
f 236 292 293
f 236 293 294
f 236 294 237
f 237 294 239
f 238 295 242
f 238 241 296
f 238 296 297
f 238 297 295
f 239 294 240
f 240 294 298
f 240 298 299
f 240 299 241
f 241 299 296
f 242 300 251
f 242 295 300
f 244 248 301
f 244 301 256
f 244 256 245
f 246 250 302
f 246 302 247
f 247 303 304
f 247 304 301
f 247 301 248
f 247 302 303
f 249 305 250
f 249 251 300
f 249 300 306
f 249 306 305
f 250 305 302
f 252 307 257
f 252 257 253
f 252 255 308
f 252 308 307
f 254 256 309
f 254 309 255
f 255 309 310
f 255 310 311
f 255 311 312
f 255 312 313
f 255 313 314
f 255 314 315
f 255 315 308
f 256 301 309
f 257 316 317
f 257 317 258
f 257 307 316
f 258 317 318
f 258 318 319
f 258 319 259
f 259 319 320
f 259 320 260
f 260 320 321
f 260 321 322
f 260 322 262
f 260 262 261
f 262 322 323
f 262 323 263
f 263 324 325
f 263 325 326
f 263 326 264
f 263 323 327
f 263 327 328
f 263 328 329
f 263 329 330
f 263 330 331
f 263 331 324
f 264 326 265
f 265 326 332
f 265 332 267
f 265 267 266
f 267 332 270
f 267 270 269
f 270 332 333
f 270 333 334
f 270 334 335
f 270 335 271
f 271 335 272
f 272 335 336
f 272 336 273
f 273 336 337
f 273 337 338
f 273 338 274
f 274 338 276
f 274 276 275
f 276 338 339
f 276 339 278
f 276 278 277
f 278 339 340
f 278 340 341
f 278 341 279
f 279 341 342
f 279 342 280
f 280 342 343
f 280 343 281
f 281 343 283
f 283 344 285
f 283 285 284
f 283 343 345
f 283 345 346
f 283 346 344
f 285 344 347
f 285 347 286
f 286 347 348
f 286 348 287
f 287 348 288
f 288 348 347
f 288 347 349
f 288 349 350
f 288 350 290
f 290 350 291
f 291 350 351
f 291 351 352
f 291 352 292
f 292 352 293
f 293 353 298
f 293 298 294
f 293 352 354
f 293 354 353
f 295 355 356
f 295 356 306
f 295 306 300
f 295 297 355
f 296 357 297
f 296 299 353
f 296 353 358
f 296 358 357
f 297 357 355
f 298 353 299
f 301 304 359
f 301 359 309
f 302 305 360
f 302 360 303
f 303 361 304
f 303 360 362
f 303 362 361
f 304 361 363
f 304 363 359
f 305 364 360
f 305 306 364
f 306 356 364
f 307 365 316
f 307 308 366
f 307 366 367
f 307 367 365
f 308 368 369
f 308 369 366
f 308 315 370
f 308 370 371
f 308 371 368
f 309 359 310
f 310 359 363
f 310 363 372
f 310 372 311
f 311 313 312
f 311 372 373
f 311 373 374
f 311 374 375
f 311 375 313
f 313 376 314
f 313 375 377
f 313 377 378
f 313 378 376
f 314 376 379
f 314 379 380
f 314 380 315
f 315 380 381
f 315 381 382
f 315 382 370
f 316 365 317
f 317 365 383
f 317 383 384
f 317 384 318
f 318 385 319
f 318 384 386
f 318 386 387
f 318 387 388
f 318 388 385
f 319 385 389
f 319 389 390
f 319 390 391
f 319 391 392
f 319 392 393
f 319 393 320
f 320 393 394
f 320 394 321
f 321 394 395
f 321 395 322
f 322 395 396
f 322 396 323
f 323 396 397
f 323 397 398
f 323 398 399
f 323 399 400
f 323 400 327
f 324 331 401
f 324 401 325
f 325 401 402
f 325 402 333
f 325 333 332
f 325 332 326
f 327 400 403
f 327 403 404
f 327 404 328
f 328 404 405
f 328 405 406
f 328 406 329
f 329 407 331
f 329 331 330
f 329 406 408
f 329 408 409
f 329 409 407
f 331 410 401
f 331 407 411
f 331 411 410
f 333 402 412
f 333 412 334
f 334 412 413
f 334 413 414
f 334 414 335
f 335 414 336
f 336 414 415
f 336 415 337
f 337 416 339
f 337 339 338
f 337 415 416
f 339 416 417
f 339 417 340
f 340 418 341
f 340 417 418
f 341 418 419
f 341 419 345
f 341 345 342
f 342 345 343
f 344 420 347
f 344 346 421
f 344 421 420
f 345 419 422
f 345 422 346
f 346 422 423
f 346 423 421
f 347 420 349
f 349 420 421
f 349 421 424
f 349 424 425
f 349 425 350
f 350 425 426
f 350 426 351
f 351 426 352
f 352 426 354
f 353 354 427
f 353 427 358
f 354 426 428
f 354 428 427
f 355 429 430
f 355 430 431
f 355 431 356
f 355 357 429
f 356 431 432
f 356 432 433
f 356 433 364
f 357 358 427
f 357 427 434
f 357 434 435
f 357 435 436
f 357 436 429
f 360 364 433
f 360 433 362
f 361 374 373
f 361 373 372
f 361 372 363
f 361 362 374
f 362 433 437
f 362 437 374
f 365 367 383
f 366 369 438
f 366 438 367
f 367 438 439
f 367 439 383
f 368 371 369
f 369 440 441
f 369 441 438
f 369 371 442
f 369 442 443
f 369 443 440
f 370 382 371
f 371 382 444
f 371 444 442
f 374 437 445
f 374 445 375
f 375 445 377
f 376 378 446
f 376 446 379
f 377 447 431
f 377 431 378
f 377 445 447
f 378 431 430
f 378 430 446
f 379 448 380
f 379 446 448
f 380 448 381
f 381 448 382
f 382 448 449
f 382 449 444
f 383 439 450
f 383 450 384
f 384 450 451
f 384 451 386
f 385 388 452
f 385 452 457
f 385 457 389
f 386 451 453
f 386 453 387
f 387 454 388
f 387 453 455
f 387 455 454
f 388 454 456
f 388 456 452
f 389 457 390
f 390 457 458
f 390 458 459
f 390 459 391
f 391 459 460
f 391 460 461
f 391 461 392
f 392 461 462
f 392 462 393
f 393 462 463
f 393 463 394
f 394 463 464
f 394 464 395
f 395 464 465
f 395 465 396
f 396 465 397
f 397 466 399
f 397 399 398
f 397 465 467
f 397 467 468
f 397 468 469
f 397 469 466
f 399 466 470
f 399 470 400
f 400 470 471
f 400 471 403
f 401 410 412
f 401 412 402
f 403 472 404
f 403 471 472
f 404 472 405
f 405 472 473
f 405 473 406
f 406 473 408
f 407 409 474
f 407 474 478
f 407 478 411
f 408 473 475
f 408 475 409
f 409 475 476
f 409 476 477
f 409 477 474
f 410 411 412
f 411 478 413
f 411 413 412
f 413 478 479
f 413 479 414
f 414 479 415
f 415 479 416
f 416 480 476
f 416 476 417
f 416 479 480
f 417 476 475
f 417 475 418
f 418 481 482
f 418 482 422
f 418 422 419
f 418 475 483
f 418 483 484
f 418 484 481
f 421 423 485
f 421 485 424
f 422 482 486
f 422 486 487
f 422 487 423
f 423 487 488
f 423 488 485
f 424 485 489
f 424 489 425
f 425 489 426
f 426 489 428
f 427 428 490
f 427 490 491
f 427 491 434
f 428 489 492
f 428 492 490
f 429 436 493
f 429 493 430
f 430 493 494
f 430 494 444
f 430 444 449
f 430 449 448
f 430 448 446
f 431 447 432
f 432 447 433
f 433 447 437
f 434 491 495
f 434 495 496
f 434 496 435
f 435 496 497
f 435 497 498
f 435 498 436
f 436 498 493
f 437 499 445
f 437 447 499
f 438 441 439
f 439 441 500
f 439 500 501
f 439 501 450
f 440 443 502
f 440 502 441
f 441 502 503
f 441 503 504
f 441 504 500
f 442 444 494
f 442 494 443
f 443 494 493
f 443 493 505
f 443 505 506
f 443 506 502
f 445 499 447
f 450 501 507
f 450 507 451
f 451 507 508
f 451 508 509
f 451 509 453
f 452 456 510
f 452 510 511
f 452 511 457
f 453 509 512
f 453 512 513
f 453 513 455
f 454 455 456
f 455 513 514
f 455 514 515
f 455 515 516
f 455 516 456
f 456 516 510
f 457 511 458
f 458 460 459
f 458 511 517
f 458 517 460
f 460 517 518
f 460 518 519
f 460 519 520
f 460 520 461
f 461 520 521
f 461 521 522
f 461 522 462
f 462 522 523
f 462 523 524
f 462 524 463
f 463 524 525
f 463 525 464
f 464 525 526
f 464 526 467
f 464 467 465
f 466 469 527
f 466 527 470
f 467 526 528
f 467 528 529
f 467 529 468
f 468 529 469
f 469 529 530
f 469 530 531
f 469 531 532
f 469 532 527
f 470 533 471
f 470 527 534
f 470 534 533
f 471 533 472
f 472 533 475
f 472 475 473
f 474 535 478
f 474 477 535
f 475 534 527
f 475 527 532
f 475 532 536
f 475 536 484
f 475 484 483
f 475 533 534
f 476 480 477
f 477 480 479
f 477 479 478
f 477 478 535
f 481 537 538
f 481 538 482
f 481 484 537
f 482 538 539
f 482 539 486
f 484 536 537
f 485 488 492
f 485 492 489
f 486 539 540
f 486 540 487
f 487 540 488
f 488 540 541
f 488 541 543
f 488 543 492
f 490 492 542
f 490 542 491
f 491 542 495
f 492 543 542
f 493 498 544
f 493 544 505
f 495 542 545
f 495 545 546
f 495 546 496
f 496 546 547
f 496 547 548
f 496 548 497
f 497 548 549
f 497 549 498
f 498 549 544
f 500 504 550
f 500 550 501
f 501 550 551
f 501 551 507
f 502 506 504
f 502 504 503
f 504 506 550
f 505 544 506
f 506 552 550
f 506 544 552
f 507 551 553
f 507 553 508
f 508 553 509
f 509 553 512
f 510 516 554
f 510 554 511
f 511 554 555
f 511 555 517
f 512 556 513
f 512 553 556
f 513 556 557
f 513 557 514
f 514 557 558
f 514 558 559
f 514 559 515
f 515 559 516
f 516 559 554
f 517 555 560
f 517 560 518
f 518 560 519
f 519 561 520
f 519 560 562
f 519 562 561
f 520 561 563
f 520 563 521
f 521 563 564
f 521 564 522
f 522 564 523
f 523 564 524
f 524 564 565
f 524 565 525
f 525 565 566
f 525 566 526
f 526 566 528
f 528 566 530
f 528 530 529
f 530 566 567
f 530 567 531
f 531 568 532
f 531 567 568
f 532 568 536
f 536 568 569
f 536 569 570
f 536 570 537
f 537 570 571
f 537 571 538
f 538 572 573
f 538 573 574
f 538 574 539
f 538 571 572
f 539 574 540
f 540 574 541
f 541 574 545
f 541 545 543
f 542 543 545
f 544 549 575
f 544 575 552
f 545 574 546
f 546 573 572
f 546 572 547
f 546 574 573
f 547 576 577
f 547 577 548
f 547 572 602
f 547 602 576
f 548 577 549
f 549 577 578
f 549 578 579
f 549 579 580
f 549 580 575
f 550 552 581
f 550 581 551
f 551 581 553
f 552 575 582
f 552 582 581
f 553 581 583
f 553 583 584
f 553 584 585
f 553 585 558
f 553 558 586
f 553 586 556
f 554 559 587
f 554 587 588
f 554 588 589
f 554 589 555
f 555 589 590
f 555 590 560
f 556 586 558
f 556 558 557
f 558 585 584
f 558 584 591
f 558 591 587
f 558 587 559
f 560 590 562
f 561 562 563
f 562 590 592
f 562 592 593
f 562 593 564
f 562 564 563
f 564 593 592
f 564 592 594
f 564 594 595
f 564 595 565
f 565 595 566
f 566 595 567
f 567 595 596
f 567 596 569
f 567 569 568
f 569 596 597
f 569 597 598
f 569 598 599
f 569 599 570
f 570 599 598
f 570 598 600
f 570 600 601
f 570 601 571
f 571 601 572
f 572 601 602
f 575 580 579
f 575 579 603
f 575 603 582
f 576 604 605
f 576 605 577
f 576 602 624
f 576 624 604
f 577 605 578
f 578 605 606
f 578 606 579
f 579 606 607
f 579 607 608
f 579 608 603
f 581 582 583
f 582 603 609
f 582 609 584
f 582 584 583
f 584 609 610
f 584 610 591
f 587 591 610
f 587 610 611
f 587 611 612
f 587 612 588
f 588 612 613
f 588 613 589
f 589 613 615
f 589 615 590
f 590 614 592
f 590 615 616
f 590 616 614
f 592 614 616
f 592 616 617
f 592 617 596
f 592 596 594
f 594 596 595
f 596 617 597
f 597 617 618
f 597 618 619
f 597 619 620
f 597 620 598
f 598 620 621
f 598 621 622
f 598 622 600
f 600 622 623
f 600 623 601
f 601 623 602
f 602 623 624
f 603 608 625
f 603 625 626
f 603 626 609
f 604 627 605
f 604 624 638
f 604 638 627
f 605 627 607
f 605 607 606
f 607 628 629
f 607 629 608
f 607 627 628
f 608 629 625
f 609 626 630
f 609 630 611
f 609 611 610
f 611 630 612
f 612 630 631
f 612 631 632
f 612 632 613
f 613 632 633
f 613 633 615
f 615 633 617
f 615 617 616
f 617 633 618
f 618 634 619
f 618 633 634
f 619 635 636
f 619 636 620
f 619 634 635
f 620 636 621
f 621 636 637
f 621 637 638
f 621 638 623
f 621 623 622
f 623 638 624
f 625 629 639
f 625 639 640
f 625 640 626
f 626 640 630
f 627 638 637
f 627 637 628
f 628 637 636
f 628 636 629
f 629 636 635
f 629 635 639
f 630 640 631
f 631 640 634
f 631 634 632
f 632 634 633
f 634 640 639
f 634 639 635

