# https://github.com/mikedh/trimesh
v -0.00871138 0.00295020 -0.00585808
v -0.00928586 0.00295020 -0.00585327
v -0.00871138 0.00494980 -0.00585808
v -0.00203394 0.00295020 -0.00460743
v -0.00981658 0.00295020 -0.00563341
v -0.00928586 0.00494980 -0.00585327
v -0.00203394 0.00494980 -0.00460743
v -0.00203394 0.00295020 -0.00235968
v -0.00981658 0.00494980 -0.00563341
v -0.01022515 0.00295020 -0.00523062
v -0.00203394 0.00494980 -0.00039331
v -0.00203394 0.00445000 -0.00042754
v -0.00750383 0.00295020 -0.00255279
v -0.01022515 0.00494980 -0.00523062
v -0.01045296 0.00295020 -0.00470318
v -0.00935024 0.00295020 -0.00292831
v -0.00203394 0.00476617 -0.00039384
v -0.00935024 0.00494980 -0.00292831
v -0.00809399 0.00295020 -0.00261538
v -0.00766230 0.00299875 -0.00250786
v -0.01045296 0.00494980 -0.00470318
v -0.01046617 0.00295020 -0.00412867
v -0.00987106 0.00295020 -0.00317116
v -0.00987106 0.00494980 -0.00317116
v -0.01046617 0.00494980 -0.00412867
v -0.01026147 0.00295020 -0.00359215
v -0.01026147 0.00494980 -0.00359215
f 1 2 6
f 1 6 3
f 1 3 7
f 1 7 4
f 1 4 8
f 1 8 13
f 1 13 19
f 1 19 16
f 1 16 23
f 1 23 26
f 1 26 22
f 1 22 15
f 1 15 10
f 1 10 5
f 1 5 2
f 2 5 9
f 2 9 6
f 3 6 9
f 3 9 14
f 3 14 21
f 3 21 25
f 3 25 27
f 3 27 24
f 3 24 18
f 3 18 11
f 3 11 7
f 4 7 11
f 4 11 17
f 4 17 12
f 4 12 8
f 5 10 14
f 5 14 9
f 8 12 13
f 10 15 21
f 10 21 14
f 11 16 17
f 11 18 16
f 12 17 16
f 12 16 19
f 12 19 20
f 12 20 13
f 13 20 19
f 15 22 25
f 15 25 21
f 16 18 24
f 16 24 23
f 22 26 27
f 22 27 25
f 23 24 27
f 23 27 26

