# https://github.com/mikedh/trimesh
v 0.01146586 0.00052562 0.01628567
v 0.01146377 -0.00052509 0.01628567
v 0.01146377 0.00052562 0.01523327
v 0.01139071 0.00130492 0.01628567
v 0.01145959 0.00052562 0.01733806
v 0.01139071 -0.00130245 0.01628567
v 0.01146168 -0.00052509 0.01523327
v 0.01145751 -0.00052509 0.01733806
v 0.01145751 -0.00052509 0.01417667
v 0.01145751 0.00052562 0.01417667
v 0.01138445 0.00127391 0.01417667
v 0.01138863 0.00129135 0.01523327
v 0.01129052 0.00183221 0.01628567
v 0.01138654 0.00127972 0.01733806
v 0.01137193 0.00120606 0.01839467
v 0.01135732 0.00112657 0.01944706
v 0.01143663 0.00052562 0.01839467
v 0.01143663 -0.00052509 0.01839467
v 0.01129052 -0.00182974 0.01628567
v 0.01128844 -0.00181617 0.01523327
v 0.01128635 -0.00180067 0.01417667
v 0.01138445 -0.00127338 0.01417667
v 0.01138654 -0.00127919 0.01733806
v 0.01136566 -0.00117645 0.01312849
v 0.01141994 -0.00052509 0.01312849
v 0.01141994 0.00052562 0.01312849
v 0.01136566 0.00117504 0.01312849
v 0.01128635 0.00180120 0.01417667
v 0.01128844 0.00181864 0.01523327
v 0.01106509 0.00263478 0.01417667
v 0.01107344 0.00263478 0.01628567
v 0.01106301 0.00263478 0.01733806
v 0.01128635 0.00180701 0.01733806
v 0.01127174 0.00173335 0.01839467
v 0.01125713 0.00165386 0.01944706
v 0.01134688 0.00107617 0.02007850
v 0.01140324 0.00052562 0.01944706
v 0.01137193 -0.00120746 0.01839467
v 0.01140324 -0.00052509 0.01944706
v 0.01134688 -0.00107564 0.02007850
v 0.01135732 -0.00112604 0.01944706
v 0.01107344 -0.00263425 0.01628567
v 0.01107136 -0.00263425 0.01523327
v 0.01128635 -0.00180454 0.01733806
v 0.01106301 -0.00263425 0.01733806
v 0.01106509 -0.00263425 0.01417667
v 0.01103378 -0.00263425 0.01312849
v 0.01126965 -0.00170374 0.01312849
v 0.01124878 -0.00148856 0.01213503
v 0.01134688 -0.00107758 0.01252652
v 0.01133018 -0.00052509 0.01176037
v 0.01133018 0.00052562 0.01176458
v 0.01134688 0.00107423 0.01253915
v 0.01124878 0.00148715 0.01214345
v 0.01126756 0.00170233 0.01312849
v 0.01103378 0.00263478 0.01312849
v 0.01067268 0.00368742 0.01417667
v 0.01064554 0.00368742 0.01312849
v 0.01067685 0.00368742 0.01628567
v 0.01066224 0.00368742 0.01733806
v 0.01103378 0.00263478 0.01839467
v 0.01100247 0.00263478 0.01944706
v 0.01096699 0.00263478 0.02049946
v 0.01118407 0.00158020 0.02155606
v 0.01125295 0.00148909 0.02045736
v 0.01133227 0.00082803 0.02078150
v 0.01107970 0.00158020 0.02366506
v 0.01102543 0.00158020 0.02471745
v 0.01115902 0.00052562 0.02471745
v 0.01136358 0.00049654 0.02045736
v 0.01134897 0.00012627 0.02115615
v 0.01127174 -0.00173282 0.01839467
v 0.01134897 -0.00012380 0.02115615
v 0.01136358 -0.00049601 0.02045736
v 0.01133227 -0.00082557 0.02077729
v 0.01113189 -0.00157967 0.02260845
v 0.01118407 -0.00157967 0.02155606
v 0.01125295 -0.00148856 0.02045736
v 0.01125504 -0.00165333 0.01944706
v 0.01115902 -0.00052509 0.02471745
v 0.01102543 -0.00157967 0.02471745
v 0.01067685 -0.00368689 0.01628567
v 0.01067268 -0.00368689 0.01417667
v 0.01100247 -0.00263425 0.01944706
v 0.01103378 -0.00263425 0.01839467
v 0.01066224 -0.00368689 0.01733806
v 0.01064554 -0.00368689 0.01312849
v 0.01059336 -0.00368689 0.01207609
v 0.01097534 -0.00263425 0.01207609
v 0.01091063 -0.00263425 0.01101949
v 0.01116111 -0.00157967 0.01101949
v 0.01046395 -0.00157967 0.00258771
v 0.01058084 -0.00052509 0.00258771
v 0.01128009 -0.00052509 0.01101949
v 0.01128009 0.00052562 0.01101949
v 0.01058501 0.00052562 0.00258771
v 0.01047021 0.00158020 0.00258771
v 0.01115902 0.00158020 0.01101949
v 0.01091063 0.00263478 0.01101949
v 0.01097325 0.00263478 0.01207609
v 0.01059127 0.00368742 0.01207609
v 0.01036584 0.00435235 0.01417667
v 0.01035332 0.00432909 0.01312849
v 0.01028861 0.00421278 0.01051434
v 0.01030740 0.00424767 0.01121313
v 0.01032827 0.00428644 0.01207609
v 0.01036584 0.00435041 0.01628567
v 0.01035958 0.00433685 0.01733806
v 0.01032827 0.00428063 0.01944706
v 0.01063302 0.00368742 0.01839467
v 0.01060171 0.00368742 0.01944706
v 0.01056205 0.00368742 0.02049946
v 0.01049317 0.00361570 0.02260845
v 0.01046603 0.00355754 0.02366506
v 0.01091689 0.00263478 0.02155606
v 0.01126130 0.00052562 0.02260845
v 0.01121121 0.00052562 0.02366506
v 0.01075617 0.00263478 0.02471745
v 0.01064554 0.00263478 0.02576985
v 0.01091063 0.00158020 0.02576985
v 0.01104005 0.00052562 0.02576985
v 0.01126130 -0.00052509 0.02260845
v 0.01131348 -0.00049601 0.02152659
v 0.01091689 -0.00263425 0.02155606
v 0.01096490 -0.00263425 0.02049946
v 0.01103796 -0.00052509 0.02576985
v 0.01090855 -0.00157967 0.02576985
v 0.01064346 -0.00263425 0.02576985
v 0.01075408 -0.00263425 0.02471745
v 0.01080835 -0.00263425 0.02366506
v 0.01036584 -0.00434988 0.01628567
v 0.01036584 -0.00435182 0.01523327
v 0.01036584 -0.00435182 0.01417667
v 0.01035958 -0.00433631 0.01733806
v 0.01035332 -0.00433050 0.01312849
v 0.01060171 -0.00368689 0.01944706
v 0.01063302 -0.00368689 0.01839467
v 0.01033036 -0.00428785 0.01207609
v 0.01030740 -0.00424908 0.01120892
v 0.01028861 -0.00421225 0.01050592
v 0.01048691 -0.00379158 0.01092267
v 0.01047856 -0.00362874 0.00996709
v 0.00992751 -0.00368689 0.00258771
v 0.01021138 -0.00283586 0.00258771
v 0.01033871 -0.00230857 0.00258771
v 0.01030322 -0.00217093 0.00202783
v 0.01034915 -0.00157967 0.00193101
v 0.01040550 -0.00052509 0.00180893
v 0.01040550 0.00052562 0.00181314
v 0.01034915 0.00158020 0.00193101
v 0.01030531 0.00217340 0.00202783
v 0.01033871 0.00231298 0.00258771
v 0.01021138 0.00284027 0.00258771
v 0.00992751 0.00368742 0.00258771
v 0.01048691 0.00379211 0.01092688
v 0.01005275 0.00487964 0.01417667
v 0.01004440 0.00485638 0.01312849
v 0.01006110 0.00465671 0.01092688
v 0.01002353 0.00481373 0.01207609
v 0.00948082 0.00469742 0.00258771
v 0.00921156 0.00522277 0.00258771
v 0.00923243 0.00526348 0.00327808
v 0.01004649 0.00487577 0.01628567
v 0.01003605 0.00486414 0.01733806
v 0.01001935 0.00483700 0.01839467
v 0.01000265 0.00480792 0.01944706
v 0.01030740 0.00424573 0.02049946
v 0.01029279 0.00422053 0.02110143
v 0.01047647 0.00377660 0.02149292
v 0.01027609 0.00418564 0.02180442
v 0.01022599 0.00408483 0.02366506
v 0.01043681 0.00349551 0.02471745
v 0.01038463 0.00337725 0.02576985
v 0.01032619 0.00324737 0.02637182
v 0.01042638 0.00263478 0.02654441
v 0.01055579 0.00158020 0.02674226
v 0.01055579 0.00049072 0.02692327
v 0.01055996 -0.00368689 0.02049946
v 0.01043681 -0.00348141 0.02471745
v 0.01055370 -0.00049213 0.02692327
v 0.01055370 -0.00157967 0.02674226
v 0.01042429 -0.00263425 0.02654441
v 0.01032410 -0.00324296 0.02636761
v 0.01038254 -0.00337091 0.02576985
v 0.01004649 -0.00487718 0.01628567
v 0.01005066 -0.00487718 0.01523327
v 0.01005275 -0.00487911 0.01417667
v 0.01004440 -0.00485779 0.01312849
v 0.01003605 -0.00486361 0.01733806
v 0.01034288 -0.00430918 0.01839467
v 0.01002561 -0.00481514 0.01207609
v 0.01032619 -0.00428010 0.01944706
v 0.01030531 -0.00424326 0.02049946
v 0.01006110 -0.00465618 0.01092267
v 0.00923661 -0.00527071 0.00310548
v 0.00943282 -0.00481514 0.00268874
v 0.00920739 -0.00521449 0.00240248
v 0.00938481 -0.00451272 0.00174579
v 0.00956014 -0.00376444 0.00145112
v 0.01001309 -0.00256640 0.00161950
v 0.01009867 -0.00157967 0.00140481
v 0.01015085 -0.00052509 0.00128274
v 0.01015085 0.00052562 0.00128274
v 0.01009658 0.00158020 0.00140481
v 0.01001309 0.00256887 0.00161950
v 0.00956014 0.00376497 0.00145112
v 0.00938272 0.00451132 0.00174158
v 0.00952466 0.00565313 0.01417667
v 0.00951631 0.00564732 0.01312849
v 0.00947874 0.00560661 0.01101949
v 0.00949752 0.00562793 0.01207609
v 0.00944743 0.00557171 0.00996709
v 0.00852484 0.00584699 0.00150584
v 0.00827227 0.00643244 0.00183840
v 0.00884211 0.00579465 0.00258771
v 0.00952257 0.00564732 0.01523327
v 0.00952048 0.00564150 0.01628567
v 0.00951005 0.00562793 0.01733806
v 0.00949335 0.00560467 0.01839467
v 0.00947456 0.00558141 0.01944706
v 0.00945160 0.00555233 0.02049946
v 0.00997969 0.00477302 0.02049946
v 0.01000891 0.00463926 0.02149292
v 0.00976470 0.00474201 0.02471745
v 0.01019677 0.00402280 0.02471745
v 0.01014668 0.00390454 0.02576985
v 0.00925539 0.00529644 0.02634656
v 0.00941820 0.00469548 0.02675068
v 0.00928670 0.00431164 0.02740737
v 0.01011119 0.00263478 0.02707481
v 0.01022808 0.00158020 0.02727267
v 0.01027818 0.00081834 0.02734002
v 0.01029488 0.00011464 0.02735686
v 0.01029488 -0.00011799 0.02735686
v 0.01029070 -0.00421806 0.02105091
v 0.01014250 -0.00389820 0.02576985
v 0.01018842 -0.00400870 0.02471745
v 0.01027818 -0.00081975 0.02734002
v 0.01022808 -0.00157967 0.02727267
v 0.01010911 -0.00263425 0.02707061
v 0.00993586 -0.00363261 0.02676331
v 0.00928462 -0.00431111 0.02740737
v 0.00941612 -0.00469301 0.02674647
v 0.00925539 -0.00529397 0.02634656
v 0.00952048 -0.00564097 0.01628567
v 0.00952257 -0.00564679 0.01523327
v 0.00952466 -0.00565260 0.01417667
v 0.00951840 -0.00564873 0.01312849
v 0.00949961 -0.00562934 0.01207609
v 0.00947874 -0.00560802 0.01101949
v 0.00951005 -0.00562546 0.01733806
v 0.01001935 -0.00483647 0.01839467
v 0.00947456 -0.00558088 0.01944706
v 0.00949335 -0.00560220 0.01839467
v 0.00944743 -0.00557312 0.00996709
v 0.01000056 -0.00480739 0.01944706
v 0.00997969 -0.00476862 0.02049946
v 0.00892351 -0.00569137 0.00268874
v 0.00827436 -0.00643385 0.00183840
v 0.00852692 -0.00584840 0.00150584
v 0.00909258 -0.00481514 0.00145112
v 0.00921782 -0.00416766 0.00104279
v 0.00934515 -0.00346396 0.00082389
v 0.00946830 -0.00263425 0.00061341
v 0.00953509 -0.00166497 0.00038189
v 0.00971252 -0.00052509 0.00048292
v 0.00971043 0.00052562 0.00048292
v 0.00953301 0.00166550 0.00038189
v 0.00946830 0.00263478 0.00061341
v 0.00934515 0.00346643 0.00082389
v 0.00921782 0.00416819 0.00104279
v 0.00909050 0.00481373 0.00145112
v 0.00911137 0.00618042 0.01417667
v 0.00910720 0.00617461 0.01312849
v 0.00908006 0.00613390 0.01101949
v 0.00909467 0.00615522 0.01207609
v 0.00905501 0.00609900 0.00996709
v 0.00833907 0.00650998 0.00258771
v 0.00812199 0.00623470 0.00113961
v 0.00726201 0.00750059 0.00172895
v 0.00786733 0.00703727 0.00258771
v 0.00712008 0.00736877 0.00102595
v 0.00910511 0.00617461 0.01523327
v 0.00909885 0.00616879 0.01628567
v 0.00908424 0.00615328 0.01733806
v 0.00906336 0.00613002 0.01839467
v 0.00904249 0.00610676 0.01944706
v 0.00901744 0.00607962 0.02049946
v 0.00942238 0.00551356 0.02155606
v 0.00933054 0.00539143 0.02471745
v 0.00929297 0.00534296 0.02576985
v 0.00967494 0.00474201 0.02576985
v 0.00885672 0.00587025 0.02576985
v 0.00827018 0.00640724 0.02653599
v 0.00813242 0.00626184 0.02723899
v 0.00909258 0.00501341 0.02704956
v 0.00838916 0.00555814 0.02757154
v 0.00864173 0.00462569 0.02784096
v 0.00411435 0.00263478 0.03276195
v 0.00941194 0.00368742 0.02753787
v 0.00958310 0.00263478 0.02770625
v 0.00970208 0.00158020 0.02779886
v 0.00495554 0.00052562 0.03254727
v 0.00495554 -0.00052509 0.03254727
v 0.00975635 -0.00474148 0.02471745
v 0.00967077 -0.00474148 0.02576985
v 0.00970208 -0.00157967 0.02779886
v 0.00958310 -0.00263425 0.02770625
v 0.00940986 -0.00368689 0.02753787
v 0.00411435 -0.00263425 0.03276195
v 0.00863964 -0.00462322 0.02784096
v 0.00838707 -0.00555761 0.02756734
v 0.00909050 -0.00501288 0.02704956
v 0.00826810 -0.00640477 0.02653599
v 0.00885254 -0.00586585 0.02576985
v 0.00929088 -0.00533856 0.02576985
v 0.00813242 -0.00625938 0.02723899
v 0.00909258 -0.00616826 0.01628567
v 0.00910093 -0.00617408 0.01523327
v 0.00910928 -0.00617989 0.01417667
v 0.00910720 -0.00617408 0.01312849
v 0.00909467 -0.00615663 0.01207609
v 0.00908006 -0.00613531 0.01101949
v 0.00905710 -0.00609847 0.00996709
v 0.00907797 -0.00615275 0.01733806
v 0.00904040 -0.00610623 0.01944706
v 0.00906128 -0.00612949 0.01839467
v 0.00945160 -0.00554986 0.02049946
v 0.00833907 -0.00651139 0.00258771
v 0.00942447 -0.00551303 0.02155606
v 0.00933054 -0.00538896 0.02471745
v 0.00725993 -0.00749812 0.00172474
v 0.00712216 -0.00737018 0.00102174
v 0.00812199 -0.00623417 0.00113540
v 0.00786525 -0.00703674 0.00258771
v 0.00834115 -0.00553241 0.00076075
v 0.00854362 -0.00476862 0.00044082
v 0.00829314 -0.00443518 -0.00018641
v 0.00902162 -0.00376444 0.00047871
v 0.00915729 -0.00263425 0.00008722
v 0.00923035 -0.00207207 -0.00003486
v 0.00928462 -0.00137030 -0.00011905
v 0.00932428 -0.00052509 -0.00017378
v 0.00932428 0.00052562 -0.00017378
v 0.00928462 0.00137083 -0.00011905
v 0.00923035 0.00207260 -0.00003486
v 0.00915729 0.00263478 0.00008722
v 0.00902162 0.00376497 0.00047450
v 0.00829314 0.00443571 -0.00018641
v 0.00854362 0.00476915 0.00044082
v 0.00833907 0.00553100 0.00076496
v 0.00858328 0.00670772 0.01417667
v 0.00858119 0.00671159 0.01312849
v 0.00855197 0.00670190 0.01101949
v 0.00856658 0.00670772 0.01207609
v 0.00836620 0.00654100 0.00364431
v 0.00852901 0.00669027 0.00996709
v 0.00791325 0.00584699 0.00044082
v 0.00716391 0.00636459 -0.00008958
v 0.00737264 0.00661273 0.00048292
v 0.00611191 0.00845437 0.00194364
v 0.00733924 0.00756844 0.00258771
v 0.00599710 0.00837489 0.00124064
v 0.00788194 0.00706829 0.00364431
v 0.00691135 0.00714002 0.00048292
v 0.00614322 0.00744049 -0.00011905
v 0.00638534 0.00764598 0.00048292
v 0.00560469 0.00821980 0.00038610
v 0.00857702 0.00669802 0.01523327
v 0.00857076 0.00668833 0.01628567
v 0.00855615 0.00667282 0.01733806
v 0.00853527 0.00665344 0.01839467
v 0.00851440 0.00663405 0.01944706
v 0.00848935 0.00661079 0.02049946
v 0.00845804 0.00658171 0.02155606
v 0.00842673 0.00655263 0.02260845
v 0.00833072 0.00646539 0.02576985
v 0.00898613 0.00604085 0.02155606
v 0.00888803 0.00591872 0.02471745
v 0.00712634 0.00737652 0.02629183
v 0.00773166 0.00674843 0.02686434
v 0.00701989 0.00731643 0.02682645
v 0.00743109 0.00659528 0.02765574
v 0.00770244 0.00588382 0.02796304
v 0.00797587 0.00493974 0.02827454
v 0.00397241 0.00316595 0.03262725
v 0.00303104 0.00228584 0.03375120
v 0.00371359 0.00158020 0.03349021
v 0.00432934 0.00158020 0.03296401
v 0.00442953 0.00052562 0.03305241
v 0.00442953 -0.00052509 0.03305241
v 0.00432934 -0.00157967 0.03296401
v 0.00371359 -0.00157967 0.03349021
v 0.00303104 -0.00228531 0.03375120
v 0.00397241 -0.00316542 0.03262725
v 0.00797587 -0.00493533 0.02827034
v 0.00770244 -0.00588135 0.02796304
v 0.00742900 -0.00659669 0.02765574
v 0.00763147 -0.00685258 0.02677593
v 0.00713051 -0.00737793 0.02631288
v 0.00832654 -0.00645905 0.02576985
v 0.00887968 -0.00591431 0.02471745
v 0.00698858 -0.00730039 0.02701588
v 0.00856658 -0.00667423 0.01628567
v 0.00858328 -0.00670331 0.01417667
v 0.00858119 -0.00671106 0.01312849
v 0.00856867 -0.00670912 0.01207609
v 0.00855406 -0.00670331 0.01101949
v 0.00853110 -0.00668974 0.00996709
v 0.00855197 -0.00665872 0.01733806
v 0.00851440 -0.00663158 0.01944706
v 0.00853319 -0.00664709 0.01839467
v 0.00901327 -0.00607715 0.02049946
v 0.00848518 -0.00660638 0.02049946
v 0.00733924 -0.00756791 0.00258771
v 0.00611191 -0.00845384 0.00193943
v 0.00599919 -0.00837629 0.00123643
v 0.00560678 -0.00822121 0.00038610
v 0.00638534 -0.00764933 0.00048292
v 0.00614322 -0.00744190 -0.00011905
v 0.00691343 -0.00713949 0.00048292
v 0.00716391 -0.00636406 -0.00008958
v 0.00737264 -0.00661220 0.00048292
v 0.00791534 -0.00584840 0.00044082
v 0.00811155 -0.00513888 0.00005775
v 0.00736429 -0.00579606 -0.00027902
v 0.00771705 -0.00476862 -0.00048108
v 0.00845387 -0.00368689 -0.00035058
v 0.00862920 -0.00263425 -0.00047687
v 0.00881080 -0.00166497 -0.00046424
v 0.00870852 -0.00052509 -0.00064525
v 0.00870852 0.00052562 -0.00064525
v 0.00881080 0.00166550 -0.00046424
v 0.00862920 0.00263478 -0.00047687
v 0.00845387 0.00368742 -0.00035058
v 0.00736429 0.00579465 -0.00027902
v 0.00811155 0.00513747 0.00006196
v 0.00771705 0.00476915 -0.00048108
v 0.00800510 0.00723501 0.01417667
v 0.00801345 0.00723888 0.01312849
v 0.00800927 0.00722919 0.01101949
v 0.00801136 0.00723501 0.01207609
v 0.00799883 0.00721562 0.00996709
v 0.00798005 0.00719430 0.00891470
v 0.00195816 0.00742693 -0.00330570
v 0.00653772 0.00676975 -0.00029164
v 0.00560469 0.00865986 0.00156899
v 0.00554624 0.00875485 0.00258771
v 0.00613278 0.00846600 0.00258771
v 0.00665878 0.00809573 0.00258771
v 0.00745196 0.00762272 0.00891470
v 0.00529368 0.00859394 0.00067235
v 0.00500772 0.00842141 -0.00003065
v 0.00799257 0.00722531 0.01523327
v 0.00797587 0.00721562 0.01628567
v 0.00795500 0.00720011 0.01733806
v 0.00792995 0.00718073 0.01839467
v 0.00790282 0.00715940 0.01944706
v 0.00787151 0.00713614 0.02049946
v 0.00775462 0.00705084 0.02366506
v 0.00771496 0.00702176 0.02471745
v 0.00756467 0.00706829 0.02587509
v 0.00783394 0.00710900 0.02155606
v 0.00649388 0.00753936 0.02682645
v 0.00718687 0.00741723 0.02471745
v 0.00660034 0.00789994 0.02155606
v 0.00580925 0.00832448 0.02049946
v 0.00528324 0.00852997 0.02049946
v 0.00628306 0.00746570 0.02750840
v 0.00664000 0.00686862 0.02793357
v 0.00699901 0.00620756 0.02835874
v 0.00202078 0.00321247 0.03375120
v 0.00272420 0.00298954 0.03349442
v 0.00237771 0.00263672 0.03391538
v 0.00087067 0.00217146 0.03475308
v 0.00238606 0.00158020 0.03429003
v 0.00318550 0.00158020 0.03385223
v 0.00384091 0.00052562 0.03358282
v 0.00384091 -0.00052509 0.03358282
v 0.00318550 -0.00157967 0.03385223
v 0.00238606 -0.00157967 0.03429003
v 0.00087067 -0.00217093 0.03475308
v 0.00237771 -0.00263619 0.03391538
v 0.00272420 -0.00298901 0.03349442
v 0.00202286 -0.00321388 0.03375120
v 0.00699901 -0.00620703 0.02835874
v 0.00628515 -0.00746323 0.02750419
v 0.00664208 -0.00687003 0.02792936
v 0.00767739 -0.00698634 0.02576985
v 0.00662330 -0.00750588 0.02672963
v 0.00528116 -0.00852750 0.02049946
v 0.00580925 -0.00832395 0.02049946
v 0.00660034 -0.00789941 0.02155606
v 0.00726619 -0.00747098 0.02260845
v 0.00786942 -0.00713367 0.02049946
v 0.00799883 -0.00723060 0.01417667
v 0.00801136 -0.00723835 0.01312849
v 0.00801345 -0.00723642 0.01207609
v 0.00800927 -0.00722866 0.01101949
v 0.00799883 -0.00721703 0.00996709
v 0.00798005 -0.00719570 0.00891470
v 0.00789864 -0.00715887 0.01944706
v 0.00665878 -0.00809326 0.00258771
v 0.00745405 -0.00761831 0.00891470
v 0.00613069 -0.00846547 0.00258771
v 0.00554624 -0.00875625 0.00258771
v 0.00560678 -0.00865933 0.00156899
v 0.00529577 -0.00859535 0.00067235
v 0.00500772 -0.00842282 -0.00003065
v 0.00653772 -0.00676922 -0.00029164
v 0.00195816 -0.00742833 -0.00330570
v 0.00218985 -0.00684870 -0.00345304
v 0.00133196 -0.00684870 -0.00395819
v 0.00236936 -0.00579606 -0.00354986
v 0.00133196 -0.00579606 -0.00406764
v 0.00133196 0.00579465 -0.00406764
v 0.00237145 0.00579465 -0.00354986
v 0.00133196 0.00684923 -0.00395819
v 0.00218985 0.00684923 -0.00345304
v 0.00747909 0.00761884 0.01417667
v 0.00748536 0.00762660 0.01312849
v 0.00748118 0.00763047 0.01101949
v 0.00748536 0.00763047 0.01207609
v 0.00747074 0.00762854 0.00996709
v -0.00003314 0.00740366 -0.00427811
v 0.00133196 0.00753548 -0.00352881
v -0.00227699 0.00952833 -0.00328465
v 0.00430429 0.00862302 -0.00027060
v 0.00449215 0.00916001 0.00153531
v 0.00449215 0.00918133 0.00258771
v 0.00554624 0.00875291 0.00469670
v 0.00613695 0.00846794 0.00680570
v 0.00613695 0.00846794 0.00574910
v 0.00613487 0.00846794 0.00469670
v 0.00664626 0.00815583 0.00996709
v 0.00665252 0.00815001 0.00891470
v 0.00459026 0.00882657 0.00038610
v 0.00345476 0.00935774 0.00039031
v 0.00289327 0.00947793 -0.00001802
v 0.00746448 0.00760721 0.01523327
v 0.00744987 0.00759364 0.01628567
v 0.00742900 0.00757813 0.01733806
v 0.00737682 0.00754324 0.01944706
v 0.00734342 0.00752191 0.02049946
v 0.00730585 0.00749671 0.02155606
v 0.00726619 0.00747151 0.02260845
v 0.00722653 0.00744437 0.02366506
v -0.00077413 0.00906695 0.02471745
v 0.00518305 0.00849120 0.02124034
v 0.00449215 0.00876648 0.02049946
v 0.00344015 0.00901461 0.02049946
v 0.00238606 0.00919296 0.02049946
v 0.00660034 0.00794258 0.02049946
v 0.00660034 0.00798136 0.01944706
v 0.00584890 0.00834193 0.01944706
v 0.00607225 0.00842917 0.01362101
v 0.00565061 0.00860364 0.01321268
v 0.00554624 0.00867149 0.01207609
v 0.00449215 0.00903788 0.01207609
v 0.00449215 0.00900492 0.01312849
v -0.00182822 0.00875485 0.02554674
v -0.00077413 0.00299729 0.03452577
v 0.00027996 0.00284996 0.03445420
v 0.00027996 0.00232461 0.03480360
v 0.00027996 0.00158020 0.03498461
v 0.00107105 0.00158020 0.03481202
v 0.00159705 0.00158020 0.03463943
v 0.00179535 0.00080865 0.03470678
v 0.00229213 0.00048491 0.03450472
v 0.00331491 0.00052562 0.03393643
v 0.00331491 -0.00052509 0.03393643
v 0.00229213 -0.00048438 0.03450472
v 0.00179535 -0.00080812 0.03470678
v 0.00159705 -0.00157967 0.03463943
v 0.00107105 -0.00157967 0.03481202
v 0.00027996 -0.00157967 0.03498461
v 0.00027996 -0.00232408 0.03480360
v 0.00027996 -0.00285137 0.03445420
v -0.00077413 -0.00299676 0.03452577
v -0.00182822 -0.00875432 0.02554674
v -0.00077413 -0.00906836 0.02471745
v 0.00344015 -0.00901021 0.02049946
v 0.00449215 -0.00876982 0.02049946
v 0.00518097 -0.00849067 0.02124034
v 0.00593240 -0.00837436 0.01733806
v 0.00588856 -0.00835885 0.01839467
v 0.00449215 -0.00898888 0.01312849
v 0.00449215 -0.00901796 0.01207609
v 0.00548571 -0.00860504 0.01523327
v 0.00660034 -0.00797889 0.01944706
v 0.00660034 -0.00794205 0.02049946
v 0.00734342 -0.00751945 0.02049946
v 0.00730585 -0.00749618 0.02155606
v 0.00747283 -0.00761444 0.01417667
v 0.00748536 -0.00762607 0.01312849
v 0.00748536 -0.00762994 0.01207609
v 0.00748118 -0.00762994 0.01101949
v 0.00747074 -0.00762607 0.00996709
v 0.00737264 -0.00754077 0.01944706
v 0.00739351 -0.00755628 0.01839467
v 0.00613487 -0.00846741 0.00469670
v 0.00449215 -0.00918662 0.00258771
v 0.00449215 -0.00916529 0.00153531
v 0.00613695 -0.00846741 0.00574910
v 0.00613695 -0.00846741 0.00680570
v 0.00554624 -0.00874462 0.00574910
v 0.00345267 -0.00936109 0.00039872
v 0.00459026 -0.00883186 0.00038610
v 0.00289119 -0.00947740 -0.00000960
v 0.00430429 -0.00862831 -0.00027060
v -0.00227699 -0.00952780 -0.00328465
v 0.00133196 -0.00753495 -0.00352881
v -0.00003314 -0.00740507 -0.00427811
v 0.00062645 -0.00684870 -0.00424023
v -0.00755372 -0.00537927 -0.00745634
v -0.00752032 -0.00474148 -0.00746897
v -0.00815069 -0.00263425 -0.00772155
v -0.00815069 0.00263478 -0.00771734
v -0.00752449 0.00474201 -0.00746897
v -0.00755372 0.00538367 -0.00745634
v 0.00062645 0.00684923 -0.00424023
v 0.00660034 0.00813644 0.01417667
v 0.00662956 0.00815777 0.01207609
v 0.00663791 0.00815777 0.01101949
v -0.00550189 0.00739978 -0.00637869
v -0.00431838 0.00853966 -0.00541891
v -0.00258383 0.00952833 -0.00328465
v -0.00182822 0.00971444 -0.00162608
v 0.00027996 0.00990248 0.00048292
v 0.00133196 0.00983850 0.00048292
v 0.00219194 0.00957680 -0.00019483
v 0.00374072 0.00941784 0.00153531
v 0.00311453 0.00954384 0.00068498
v 0.00449215 0.00917551 0.00469670
v 0.00554624 0.00874903 0.00574910
v 0.00612652 0.00845824 0.00891470
v 0.00247999 0.00963883 0.00039031
v 0.00660034 0.00801625 0.01839467
v 0.00660034 0.00810736 0.01523327
v 0.00660034 0.00807828 0.01628567
v -0.00077413 0.00921429 0.02366506
v -0.00182822 0.00911348 0.02471745
v 0.00344015 0.00925693 0.01312849
v 0.00277847 0.00946824 0.00996709
v 0.00265741 0.00945273 0.01101949
v 0.00252382 0.00943722 0.01207609
v 0.00213140 0.00951864 0.01101949
v 0.00199573 0.00950119 0.01207609
v 0.00189971 0.00948956 0.01274541
v 0.00133196 0.00929571 0.02049946
v 0.00609103 0.00843886 0.01291801
v 0.00449215 0.00906114 0.01101949
v 0.00554624 0.00871414 0.00891470
v 0.00449215 0.00916776 0.00574910
v 0.00449215 0.00915031 0.00680570
v 0.00363844 0.00941396 0.00574910
v 0.00357374 0.00940233 0.00680570
v 0.00344015 0.00931897 0.01101949
v 0.00344015 0.00928989 0.01207609
v -0.00288231 0.00861139 0.02542466
v -0.00364836 0.00742693 0.02740737
v -0.00182822 0.00295465 0.03450051
v -0.00182822 0.00242735 0.03483728
v -0.00077413 0.00247000 0.03485411
v -0.00077413 0.00158020 0.03508985
v -0.00077413 0.00052562 0.03523298
v 0.00027996 0.00052562 0.03512353
v 0.00139876 0.00048491 0.03485411
v 0.00187675 0.00010495 0.03473625
v 0.00187675 -0.00010636 0.03473625
v 0.00139876 -0.00048438 0.03485411
v 0.00027996 -0.00052509 0.03512353
v -0.00077413 -0.00052509 0.03523719
v -0.00077413 -0.00157967 0.03508985
v -0.00077413 -0.00247141 0.03485411
v -0.00182822 -0.00242682 0.03483728
v -0.00182822 -0.00295411 0.03450051
v -0.00364836 -0.00742639 0.02740737
v -0.00288231 -0.00861086 0.02542466
v -0.00182822 -0.00911489 0.02471745
v -0.00077413 -0.00921376 0.02366506
v 0.00238606 -0.00918274 0.02049946
v 0.00344015 -0.00924477 0.01312849
v 0.00286823 -0.00947934 0.00924305
v 0.00344015 -0.00927773 0.01207609
v 0.00601171 -0.00840537 0.01523327
v 0.00344015 -0.00930875 0.01101949
v 0.00554624 -0.00866708 0.01207609
v 0.00552537 -0.00862055 0.01417667
v 0.00350068 -0.00937853 0.00785810
v 0.00356330 -0.00938823 0.00680570
v 0.00449215 -0.00904316 0.01101949
v 0.00605137 -0.00842088 0.01417667
v 0.00607225 -0.00842864 0.01362522
v 0.00660034 -0.00804286 0.01733806
v 0.00660034 -0.00813203 0.01417667
v 0.00663165 -0.00815724 0.01207609
v 0.00664208 -0.00815724 0.01101949
v 0.00664834 -0.00815336 0.00996709
v 0.00660034 -0.00810296 0.01523327
v 0.00449215 -0.00917305 0.00364431
v 0.00371985 -0.00942312 0.00258771
v 0.00373655 -0.00942312 0.00153531
v 0.00554624 -0.00873687 0.00680570
v 0.00554624 -0.00872524 0.00785810
v 0.00311035 -0.00953750 0.00069340
v 0.00612860 -0.00845965 0.00891470
v 0.00611608 -0.00845190 0.01101949
v 0.00247790 -0.00963830 0.00039872
v 0.00218776 -0.00957821 -0.00019483
v -0.00258174 -0.00952780 -0.00328465
v -0.00432047 -0.00853913 -0.00541891
v 0.00133196 -0.00984185 0.00048292
v 0.00027996 -0.00990195 0.00048292
v -0.00182822 -0.00971391 -0.00162608
v -0.00549980 -0.00740313 -0.00637869
v -0.00772905 -0.00537927 -0.00745634
v -0.00815069 -0.00368689 -0.00766682
v -0.00604459 -0.00746517 -0.00645026
v -0.00667705 -0.00746710 -0.00646709
v -0.00906702 -0.00263425 -0.00767525
v -0.00920478 -0.00052509 -0.00776365
v -0.00920478 0.00052562 -0.00776785
v -0.00907119 0.00263478 -0.00767525
v -0.00815069 0.00368742 -0.00766682
v -0.00772696 0.00538367 -0.00745634
v -0.00667496 0.00746376 -0.00646288
v -0.00604459 0.00745794 -0.00644605
v 0.00650432 0.00820817 0.01321268
v 0.00610147 0.00844467 0.01207609
v 0.00611817 0.00845437 0.00996709
v -0.00499050 0.00851834 -0.00541049
v -0.00553111 0.00843886 -0.00533893
v -0.00393641 0.00916001 -0.00373508
v -0.00324342 0.00944691 -0.00267848
v -0.00271742 0.00956517 -0.00267848
v -0.00182822 0.00974933 -0.00057369
v -0.00077413 0.00986565 0.00048292
v 0.00027996 0.00988115 0.00153531
v 0.00133196 0.00979973 0.00364431
v 0.00133196 0.00981912 0.00258771
v 0.00133196 0.00983657 0.00153531
v 0.00238606 0.00972219 0.00153531
v 0.00321472 0.00956904 0.00153531
v 0.00372402 0.00941977 0.00258771
v 0.00554624 0.00874127 0.00680570
v -0.00182822 0.00916194 0.02366506
v 0.00027996 0.00928214 0.02155606
v 0.00027996 0.00933060 0.02049946
v -0.00077413 0.00925693 0.02260845
v -0.00288231 0.00889442 0.02471745
v -0.00288231 0.00900880 0.02366506
v 0.00286196 0.00947793 0.00922200
v 0.00238606 0.00960975 0.00680570
v 0.00133196 0.00972219 0.00680570
v 0.00133196 0.00969117 0.00785810
v 0.00133196 0.00962720 0.00996709
v 0.00133196 0.00959425 0.01101949
v 0.00091242 0.00949344 0.01495123
v 0.00367810 0.00941784 0.00469670
v 0.00315001 0.00953803 0.00469670
v 0.00311035 0.00952640 0.00574910
v 0.00304773 0.00951283 0.00680570
v 0.00297677 0.00949732 0.00785810
v 0.00293084 0.00948762 0.00851900
v -0.00567514 0.00643244 0.02851028
v -0.00393641 0.00321247 0.03376383
v -0.00448954 0.00317370 0.03368806
v -0.00258592 0.00227421 0.03478676
v -0.00182822 0.00158020 0.03505617
v -0.00182822 0.00052562 0.03520351
v -0.00182822 -0.00052509 0.03520351
v -0.00182822 -0.00157967 0.03505617
v -0.00258592 -0.00227368 0.03478676
v -0.00450624 -0.00318093 0.03370069
v -0.00393641 -0.00321776 0.03377225
v -0.00567722 -0.00643191 0.02851028
v -0.00288231 -0.00889389 0.02471745
v -0.00288231 -0.00901021 0.02366506
v -0.00182822 -0.00916141 0.02366506
v -0.00077413 -0.00925640 0.02260845
v 0.00027996 -0.00932813 0.02049946
v 0.00027996 -0.00928161 0.02155606
v 0.00133196 -0.00929518 0.02049946
v 0.00190389 -0.00948903 0.01276646
v 0.00199782 -0.00950066 0.01207609
v 0.00252382 -0.00943669 0.01207609
v 0.00266158 -0.00945220 0.01101949
v 0.00293084 -0.00948903 0.00854005
v 0.00238606 -0.00958015 0.00785810
v 0.00238606 -0.00961116 0.00680570
v 0.00213349 -0.00951811 0.01101949
v 0.00297468 -0.00949873 0.00785810
v 0.00449215 -0.00908969 0.00891470
v 0.00449215 -0.00911101 0.00785810
v 0.00449215 -0.00913040 0.00680570
v 0.00554624 -0.00868453 0.01101949
v 0.00610564 -0.00844608 0.01207609
v 0.00608895 -0.00843833 0.01292222
v 0.00565061 -0.00859923 0.01321689
v 0.00303521 -0.00951230 0.00680570
v 0.00308531 -0.00952587 0.00574910
v 0.00361131 -0.00939598 0.00574910
v 0.00650432 -0.00820764 0.01321689
v 0.00554624 -0.00871167 0.00891470
v 0.00449215 -0.00914591 0.00574910
v 0.00368645 -0.00941537 0.00364431
v 0.00319176 -0.00955107 0.00258771
v 0.00320846 -0.00955882 0.00153531
v 0.00238606 -0.00971778 0.00153531
v -0.00271324 -0.00956464 -0.00267848
v -0.00323924 -0.00944638 -0.00267848
v -0.00393641 -0.00916335 -0.00373508
v -0.00499050 -0.00851975 -0.00541049
v 0.00133196 -0.00983991 0.00153531
v -0.00077413 -0.00986512 0.00048292
v 0.00133196 -0.00982053 0.00258771
v 0.00133196 -0.00979920 0.00364431
v 0.00027996 -0.00983216 0.00364431
v -0.00182822 -0.00974880 -0.00057369
v -0.00877688 -0.00440223 -0.00751949
v -0.00891255 -0.00368689 -0.00762052
v -0.00769565 -0.00641252 -0.00653445
v -0.00553320 -0.00844027 -0.00533893
v -0.00673549 -0.00752138 -0.00583987
v -0.00975792 -0.00123073 -0.00746477
v -0.00978714 -0.00052509 -0.00750686
v -0.00978922 0.00052562 -0.00751107
v -0.00976209 0.00125646 -0.00746897
v -0.00891255 0.00368742 -0.00762052
v -0.00877897 0.00440663 -0.00751949
v -0.00769356 0.00641305 -0.00653445
v -0.00725940 0.00698105 -0.00583987
v -0.00673131 0.00751804 -0.00583987
v -0.00606338 0.00805502 -0.00478747
v -0.00553737 0.00844467 -0.00478747
v -0.00499050 0.00873352 -0.00373508
v -0.00393641 0.00920847 -0.00267848
v -0.00325594 0.00944304 -0.00162608
v -0.00272785 0.00957874 -0.00162608
v -0.00270281 0.00957098 0.00048292
v -0.00268402 0.00956517 0.00153531
v -0.00182822 0.00973964 0.00048292
v -0.00182822 0.00972607 0.00153531
v -0.00182822 0.00968342 0.00364431
v -0.00182822 0.00966210 0.00469670
v -0.00182822 0.00961751 0.00680570
v -0.00182822 0.00956711 0.00891470
v -0.00077413 0.00971444 0.00680570
v 0.00027996 0.00983657 0.00364431
v 0.00133196 0.00977841 0.00469670
v 0.00238606 0.00966210 0.00469670
v -0.00138989 0.00949538 0.01295168
v -0.00235840 0.00948569 0.00946615
v -0.00077413 0.00966016 0.00891470
v 0.00027996 0.00966403 0.00996709
v 0.00027996 0.00969505 0.00891470
v -0.00393641 0.00872964 0.02366506
v -0.00451668 0.00846406 0.02423756
v -0.00385291 0.00856293 0.02464168
v -0.00393641 0.00875872 0.02260845
v -0.00291780 0.00937325 0.00891470
v 0.00238606 0.00963883 0.00574910
v 0.00133196 0.00975127 0.00574910
v 0.00027996 0.00975515 0.00680570
v 0.00027996 0.00972607 0.00785810
v -0.00674801 0.00545928 0.02854817
v -0.00666661 0.00321635 0.03170114
v -0.00565218 0.00321635 0.03271986
v -0.00654346 0.00731836 0.02289050
v -0.00628881 0.00608543 0.02787884
v -0.00635351 0.00287129 0.03240414
v -0.00601954 0.00256499 0.03288824
v -0.00523680 0.00263478 0.03346495
v -0.00471080 0.00263478 0.03382277
v -0.00328934 0.00197179 0.03469836
v -0.00291571 0.00160540 0.03486674
v -0.00288231 0.00052562 0.03502671
v -0.00288231 -0.00052509 0.03502671
v -0.00291571 -0.00160487 0.03486674
v -0.00328934 -0.00197126 0.03469836
v -0.00472332 -0.00263425 0.03383119
v -0.00525141 -0.00263425 0.03346074
v -0.00601745 -0.00256640 0.03288824
v -0.00635142 -0.00287270 0.03239993
v -0.00564800 -0.00321388 0.03271986
v -0.00666035 -0.00321388 0.03169693
v -0.00674801 -0.00546069 0.02854817
v -0.00629298 -0.00609072 0.02787884
v -0.00653720 -0.00731202 0.02284419
v -0.00451668 -0.00846353 0.02423756
v -0.00385291 -0.00856240 0.02464168
v -0.00393641 -0.00873105 0.02366506
v -0.00393641 -0.00876207 0.02260845
v -0.00291571 -0.00937272 0.00891470
v -0.00235840 -0.00948516 0.00946615
v -0.00151095 -0.00951036 0.01207609
v -0.00131057 -0.00948516 0.01369257
v -0.00077413 -0.00962861 0.00996709
v -0.00188667 -0.00953168 0.00987869
v -0.00182822 -0.00956464 0.00891470
v 0.00027996 -0.00966350 0.00996709
v 0.00091033 -0.00949291 0.01494281
v 0.00133196 -0.00962861 0.00996709
v 0.00133196 -0.00969258 0.00785810
v 0.00238606 -0.00963830 0.00574910
v 0.00133196 -0.00972360 0.00680570
v 0.00133196 -0.00975268 0.00574910
v 0.00238606 -0.00965963 0.00469670
v 0.00312496 -0.00953556 0.00469670
v 0.00315836 -0.00954331 0.00364431
v -0.00272785 -0.00957627 -0.00162608
v -0.00393641 -0.00920794 -0.00267848
v -0.00325386 -0.00944445 -0.00162608
v -0.00499050 -0.00873493 -0.00373508
v -0.00182822 -0.00973911 0.00048292
v -0.00077413 -0.00983991 0.00153531
v -0.00182822 -0.00961116 0.00680570
v -0.00182822 -0.00972554 0.00153531
v 0.00027996 -0.00975074 0.00680570
v -0.00077413 -0.00965575 0.00891470
v -0.00270489 -0.00957045 0.00048292
v -0.00271742 -0.00957433 -0.00057369
v -0.00883950 -0.00453599 -0.00689647
v -0.00918182 -0.00368689 -0.00689647
v -0.00726149 -0.00698246 -0.00583987
v -0.00773114 -0.00645517 -0.00583987
v -0.00817156 -0.00579606 -0.00583987
v -0.00554155 -0.00844608 -0.00478747
v -0.00606755 -0.00805643 -0.00478747
v -0.00673758 -0.00753108 -0.00478747
v -0.00949491 -0.00263425 -0.00689647
v -0.00967860 -0.00184913 -0.00689647
v -0.00977253 -0.00132184 -0.00689647
v -0.00984350 -0.00052509 -0.00689647
v -0.00984767 0.00052562 -0.00689647
v -0.00977670 0.00135726 -0.00689647
v -0.00968695 0.00188455 -0.00689647
v -0.00949909 0.00263478 -0.00689647
v -0.00917973 0.00368742 -0.00689647
v -0.00884159 0.00454039 -0.00689647
v -0.00816947 0.00579465 -0.00583987
v -0.00772696 0.00645570 -0.00583987
v -0.00726358 0.00697912 -0.00478747
v -0.00673549 0.00752773 -0.00478747
v -0.00606546 0.00805502 -0.00373508
v -0.00554155 0.00844661 -0.00162608
v -0.00499050 0.00873546 -0.00267848
v -0.00499050 0.00873546 -0.00162608
v -0.00393641 0.00920653 -0.00162608
v -0.00393641 0.00919490 0.00048292
v -0.00393641 0.00918908 0.00153531
v -0.00324133 0.00944110 -0.00057369
v -0.00322881 0.00943722 0.00048292
v -0.00321002 0.00943334 0.00153531
v -0.00318080 0.00942753 0.00258771
v -0.00265271 0.00955741 0.00258771
v -0.00261723 0.00954772 0.00364431
v -0.00257965 0.00953803 0.00469670
v -0.00254000 0.00952833 0.00574910
v -0.00249616 0.00951670 0.00680570
v -0.00244815 0.00950507 0.00785810
v 0.00027996 0.00981137 0.00469670
v -0.00458765 0.00849314 0.02366506
v -0.00464400 0.00851059 0.02260845
v -0.00517209 0.00826439 0.02260845
v -0.00613226 0.00767118 0.02256636
v -0.00393641 0.00878392 0.02155606
v -0.00297416 0.00938488 0.00785810
v -0.00685029 0.00555814 0.02787884
v -0.00740969 0.00472456 0.02795462
v -0.00760590 0.00315238 0.03049299
v -0.00682524 0.00256499 0.03206737
v -0.00658312 0.00738621 0.02218750
v -0.00772279 0.00436011 0.02765574
v -0.00659773 0.00216952 0.03264829
v -0.00546849 0.00197954 0.03364176
v -0.00506773 0.00160928 0.03397010
v -0.00390301 0.00160540 0.03455102
v -0.00352938 0.00127003 0.03477413
v -0.00363375 0.00052562 0.03481623
v -0.00363375 -0.00052509 0.03481623
v -0.00352938 -0.00126950 0.03477413
v -0.00390301 -0.00160487 0.03455102
v -0.00506773 -0.00160875 0.03397010
v -0.00546849 -0.00197901 0.03364176
v -0.00659773 -0.00216899 0.03264829
v -0.00682316 -0.00256640 0.03206737
v -0.00763095 -0.00316542 0.03052246
v -0.00740969 -0.00472791 0.02795462
v -0.00685238 -0.00556343 0.02787884
v -0.00657685 -0.00738181 0.02214119
v -0.00612808 -0.00766290 0.02253689
v -0.00772905 -0.00436733 0.02765574
v -0.00458973 -0.00849455 0.02366506
v -0.00464818 -0.00851199 0.02260845
v -0.00393641 -0.00878727 0.02155606
v -0.00296789 -0.00938241 0.00785810
v -0.00243981 -0.00950260 0.00785810
v -0.00238971 -0.00949097 0.00891470
v 0.00027996 -0.00969258 0.00891470
v -0.00393641 -0.00920212 -0.00057369
v -0.00499050 -0.00873105 -0.00057369
v -0.00499050 -0.00873299 -0.00162608
v -0.00324342 -0.00944251 -0.00057369
v -0.00268193 -0.00956464 0.00153531
v -0.00252330 -0.00952393 0.00574910
v -0.00264436 -0.00955494 0.00258771
v -0.00323090 -0.00943863 0.00048292
v -0.00321002 -0.00943281 0.00153531
v -0.00859320 -0.00510011 -0.00583987
v -0.00885202 -0.00457282 -0.00583987
v -0.00921521 -0.00368689 -0.00583987
v -0.00953249 -0.00263425 -0.00583987
v -0.00726358 -0.00698052 -0.00478747
v -0.00816947 -0.00579606 -0.00478747
v -0.00772487 -0.00644936 -0.00267848
v -0.00813608 -0.00579606 0.00680570
v -0.00814860 -0.00579606 0.00258771
v -0.00553946 -0.00844414 -0.00162608
v -0.00606755 -0.00805449 -0.00373508
v -0.00553737 -0.00844414 -0.00057369
v -0.00726149 -0.00697859 -0.00373508
v -0.00606546 -0.00804674 -0.00057369
v -0.00671879 -0.00751169 0.00258771
v -0.00724271 -0.00696114 0.00364431
v -0.00969530 -0.00185301 -0.00583987
v -0.00985184 -0.00052509 0.00048292
v -0.00977879 -0.00135480 0.00153531
v -0.00985811 0.00052562 0.00574910
v -0.00985393 -0.00052509 0.00258771
v -0.00985602 -0.00052509 0.00469670
v -0.00977879 0.00136502 -0.00162608
v -0.00969947 0.00188649 -0.00583987
v -0.00953249 0.00263478 -0.00583987
v -0.00921313 0.00368742 -0.00583987
v -0.00885202 0.00457529 -0.00583987
v -0.00859320 0.00510258 -0.00583987
v -0.00772487 0.00644989 -0.00267848
v -0.00858067 0.00507738 0.00574910
v -0.00813816 0.00579465 0.00574910
v -0.00673340 0.00752773 -0.00373508
v -0.00726149 0.00697718 -0.00373508
v -0.00672923 0.00752579 -0.00162608
v -0.00606755 0.00805114 -0.00057369
v -0.00606755 0.00805308 -0.00267848
v -0.00553737 0.00844274 0.00048292
v -0.00499050 0.00872770 0.00048292
v -0.00499050 0.00872189 0.00153531
v -0.00496962 0.00868699 0.00574910
v -0.00495919 0.00867924 0.00680570
v -0.00494875 0.00867149 0.00785810
v -0.00393641 0.00917551 0.00258771
v -0.00393641 0.00914644 0.00469670
v -0.00393641 0.00911542 0.00680570
v -0.00393641 0.00909797 0.00785810
v -0.00393641 0.00907859 0.00891470
v -0.00306600 0.00940233 0.00574910
v -0.00302425 0.00939263 0.00680570
v -0.00469827 0.00853579 0.02049946
v -0.00393641 0.00880913 0.02049946
v -0.00393641 0.00898166 0.01312849
v -0.00393641 0.00905532 0.00996709
v -0.00519923 0.00827602 0.02155606
v -0.00604459 0.00776617 0.02155606
v -0.00798579 0.00377854 0.02795462
v -0.00840534 0.00255336 0.02885968
v -0.00793152 0.00273365 0.03008045
v -0.00777080 0.00245062 0.03078345
v -0.00743056 0.00273365 0.03109917
v -0.00757668 0.00191751 0.03148645
v -0.00659355 0.00739397 0.02155606
v -0.00769983 0.00641499 0.00996709
v -0.00696509 0.00684923 0.02155606
v -0.00818617 0.00368742 0.02682645
v -0.00852849 0.00278017 0.02787884
v -0.00668122 0.00158020 0.03273670
v -0.00598406 0.00160928 0.03332604
v -0.00726149 0.00157244 0.03202107
v -0.00559164 0.00127778 0.03373016
v -0.00499050 0.00052562 0.03418058
v -0.00415975 0.00052562 0.03460575
v -0.00415975 -0.00052509 0.03460575
v -0.00499050 -0.00052509 0.03418058
v -0.00559164 -0.00127725 0.03373016
v -0.00598406 -0.00160875 0.03332604
v -0.00668122 -0.00157967 0.03273670
v -0.00726149 -0.00157191 0.03202107
v -0.00757668 -0.00191892 0.03148645
v -0.00739299 -0.00263425 0.03125072
v -0.00773949 -0.00263425 0.03072452
v -0.00801710 -0.00263425 0.02998784
v -0.00840325 -0.00255089 0.02885968
v -0.00798161 -0.00377801 0.02795462
v -0.00658520 -0.00738762 0.02155606
v -0.00604459 -0.00780248 0.01944706
v -0.00604459 -0.00775983 0.02155606
v -0.00777914 -0.00444294 0.02682645
v -0.00695466 -0.00684870 0.02155606
v -0.00769983 -0.00641446 0.00996709
v -0.00517627 -0.00825804 0.02260845
v -0.00852223 -0.00277577 0.02787884
v -0.00819452 -0.00368689 0.02682645
v -0.00520132 -0.00827549 0.02155606
v -0.00467531 -0.00852556 0.02155606
v -0.00393641 -0.00905285 0.00996709
v -0.00393641 -0.00907612 0.00891470
v -0.00317245 -0.00942506 0.00258771
v -0.00393641 -0.00919631 0.00048292
v -0.00499050 -0.00872717 0.00048292
v -0.00553529 -0.00844220 0.00048292
v -0.00393641 -0.00918662 0.00153531
v -0.00393641 -0.00909550 0.00785810
v -0.00393641 -0.00911101 0.00680570
v -0.00884785 -0.00456119 0.00048292
v -0.00858067 -0.00507685 0.00680570
v -0.00884159 -0.00454762 0.00785810
v -0.00919852 -0.00368689 0.00785810
v -0.00920895 -0.00368689 0.00048292
v -0.00953249 -0.00263425 0.00785810
v -0.00969738 -0.00186658 -0.00267848
v -0.00970156 -0.00189953 0.00785810
v -0.00969947 -0.00188209 0.00153531
v -0.00771235 -0.00643191 0.00469670
v -0.00770818 -0.00642609 0.00680570
v -0.00812773 -0.00579606 0.00891470
v -0.00857650 -0.00507297 0.00891470
v -0.00553111 -0.00844027 0.00153531
v -0.00606338 -0.00804286 0.00048292
v -0.00671253 -0.00750588 0.00469670
v -0.00671670 -0.00750781 0.00364431
v -0.00724062 -0.00695726 0.00469670
v -0.00978088 -0.00136837 0.00469670
v -0.00985602 -0.00052509 0.00785810
v -0.00985602 0.00052562 0.00680570
v -0.00978088 0.00136308 0.00680570
v -0.00978088 0.00137277 0.00574910
v -0.00978088 0.00137277 0.00469670
v -0.00978088 0.00137083 0.00364431
v -0.00978088 -0.00137224 0.00574910
v -0.00978088 -0.00137418 0.00680570
v -0.00969947 0.00189231 -0.00162608
v -0.00953457 0.00263478 -0.00057369
v -0.00953249 0.00263478 0.00574910
v -0.00920269 0.00368742 0.00364431
v -0.00884159 0.00455009 0.00574910
v -0.00772279 0.00644795 -0.00162608
v -0.00883741 0.00453846 0.00891470
v -0.00857441 0.00506575 0.00891470
v -0.00812564 0.00579465 0.00891470
v -0.00813399 0.00579465 0.00680570
v -0.00771026 0.00642662 0.00574910
v -0.00725732 0.00697718 -0.00267848
v -0.00672297 0.00752191 0.00048292
v -0.00606338 0.00804921 0.00048292
v -0.00553111 0.00844080 0.00153531
v -0.00552485 0.00843498 0.00258771
v -0.00549563 0.00841947 0.00574910
v -0.00548519 0.00841366 0.00680570
v -0.00547475 0.00840784 0.00785810
v -0.00546014 0.00840009 0.00891470
v -0.00493414 0.00866179 0.00891470
v -0.00491536 0.00865210 0.00996709
v -0.00487570 0.00862884 0.01207609
v -0.00477133 0.00857068 0.01733806
v -0.00474837 0.00855905 0.01839467
v -0.00472541 0.00854742 0.01944706
v -0.00522636 0.00828765 0.02049946
v -0.00527646 0.00830897 0.01839467
v -0.00534117 0.00833999 0.01523327
v -0.00538291 0.00835938 0.01312849
v -0.00544136 0.00839039 0.00996709
v -0.00869130 0.00214820 0.02845977
v -0.00860572 0.00177599 0.02916277
v -0.00787099 0.00157244 0.03109917
v -0.00843665 0.00148715 0.02988681
v -0.00766434 0.00121575 0.03162537
v -0.00662904 0.00742693 0.01733806
v -0.00721140 0.00694228 0.00996709
v -0.00604459 0.00799880 0.00785810
v -0.00722601 0.00694810 0.00785810
v -0.00723227 0.00695198 0.00680570
v -0.00723644 0.00695391 0.00574910
v -0.00770191 0.00641887 0.00891470
v -0.00809433 0.00579465 0.00996709
v -0.00856815 0.00287323 0.02682645
v -0.00872678 0.00225288 0.02787884
v -0.00730324 0.00052562 0.03221471
v -0.00677724 0.00052562 0.03283352
v -0.00618861 0.00052562 0.03335971
v -0.00566053 0.00052562 0.03377646
v -0.00566053 -0.00052509 0.03377646
v -0.00618861 -0.00052509 0.03335971
v -0.00677724 -0.00052509 0.03283352
v -0.00730324 -0.00052509 0.03221471
v -0.00766434 -0.00121522 0.03162537
v -0.00787099 -0.00157191 0.03109917
v -0.00843665 -0.00148662 0.02988681
v -0.00860572 -0.00177546 0.02916277
v -0.00869130 -0.00214573 0.02845977
v -0.00659773 -0.00739732 0.02049946
v -0.00604459 -0.00786063 0.01628567
v -0.00604459 -0.00782186 0.01839467
v -0.00547475 -0.00840731 0.00785810
v -0.00545806 -0.00839762 0.00891470
v -0.00539961 -0.00836854 0.01207609
v -0.00533908 -0.00833946 0.01523327
v -0.00531821 -0.00832977 0.01628567
v -0.00527437 -0.00830844 0.01839467
v -0.00522845 -0.00828712 0.02049946
v -0.00543927 -0.00838793 0.00996709
v -0.00883950 -0.00454762 0.00891470
v -0.00809433 -0.00579606 0.00996709
v -0.00770609 -0.00642222 0.00785810
v -0.00723644 -0.00695532 0.00574910
v -0.00723018 -0.00695338 0.00680570
v -0.00721557 -0.00694563 0.00891470
v -0.00720722 -0.00694175 0.00996709
v -0.00662904 -0.00742639 0.01733806
v -0.00661860 -0.00741670 0.01839467
v -0.00872678 -0.00225041 0.02787884
v -0.00856606 -0.00287076 0.02682645
v -0.00472541 -0.00854883 0.01944706
v -0.00492997 -0.00866126 0.00891470
v -0.00474837 -0.00856046 0.01839467
v -0.00481308 -0.00859341 0.01523327
v -0.00499050 -0.00871942 0.00153531
v -0.00494666 -0.00867096 0.00785810
v -0.00496962 -0.00868453 0.00574910
v -0.00919643 -0.00368689 0.00891470
v -0.00953040 -0.00263425 0.00891470
v -0.00970156 -0.00189953 0.00891470
v -0.00551233 -0.00842864 0.00394319
v -0.00604459 -0.00801766 0.00574910
v -0.00604459 -0.00802735 0.00469670
v -0.00605085 -0.00803898 0.00258771
v -0.00671044 -0.00750200 0.00574910
v -0.00978088 -0.00137418 0.00785810
v -0.00978088 -0.00137224 0.00891470
v -0.00985393 -0.00052509 0.00891470
v -0.00985184 0.00052562 0.00891470
v -0.00969738 0.00189037 0.00680570
v -0.00969947 0.00190006 0.00574910
v -0.00977879 0.00133012 0.00891470
v -0.00969947 0.00190006 0.00469670
v -0.00952831 0.00263478 0.00680570
v -0.00919017 0.00368742 0.00891470
v -0.00919643 0.00368742 0.00680570
v -0.00671253 0.00750834 0.00469670
v -0.00671462 0.00751222 0.00364431
v -0.00671670 0.00751610 0.00258771
v -0.00670418 0.00750059 0.00680570
v -0.00605920 0.00804533 0.00153531
v -0.00594022 0.00811706 0.00361905
v -0.00604459 0.00802982 0.00469670
v -0.00604459 0.00801043 0.00680570
v -0.00873931 0.00148715 0.02885968
v -0.00887707 0.00158020 0.02787884
v -0.00868295 0.00107229 0.02947006
v -0.00851597 0.00052562 0.03007203
v -0.00807137 0.00052562 0.03104024
v -0.00770609 0.00052562 0.03168851
v -0.00664574 0.00744243 0.01523327
v -0.00669166 0.00748702 0.00891470
v -0.00669792 0.00749477 0.00785810
v -0.00665408 0.00745019 0.01417667
v -0.00876018 0.00234593 0.02682645
v -0.00893552 0.00158020 0.02682645
v -0.00770609 -0.00052509 0.03168851
v -0.00807137 -0.00052509 0.03104024
v -0.00851597 -0.00052509 0.03007203
v -0.00868295 -0.00107176 0.02947006
v -0.00873931 -0.00148662 0.02885968
v -0.00887707 -0.00157967 0.02787884
v -0.00604459 -0.00797695 0.00891470
v -0.00604459 -0.00799246 0.00785810
v -0.00604459 -0.00800603 0.00680570
v -0.00548519 -0.00841313 0.00680570
v -0.00670418 -0.00749812 0.00680570
v -0.00665408 -0.00744966 0.01417667
v -0.00664574 -0.00744190 0.01523327
v -0.00893552 -0.00157967 0.02682645
v -0.00876018 -0.00234347 0.02682645
v -0.00549563 -0.00841894 0.00574910
v -0.00907745 -0.00052509 0.02682645
v -0.00976418 -0.00126562 0.00958823
v -0.00907745 0.00052562 0.02682645
v -0.00976209 0.00123901 0.00958402
v -0.00969112 0.00185741 0.00891470
v -0.00951787 0.00263478 0.00891470
v -0.00902736 0.00052562 0.02787884
v -0.00886037 0.00052562 0.02893124
v -0.00870800 0.00052562 0.02954584
v -0.00870800 -0.00052509 0.02954584
v -0.00886037 -0.00052509 0.02893124
v -0.00902736 -0.00052509 0.02787884
f 1 2 7
f 1 7 3
f 1 3 4
f 1 4 5
f 1 5 8
f 1 8 2
f 2 6 7
f 2 8 6
f 3 7 9
f 3 9 10
f 3 10 11
f 3 11 12
f 3 12 4
f 4 12 29
f 4 29 13
f 4 13 33
f 4 33 14
f 4 14 5
f 5 14 15
f 5 15 16
f 5 16 17
f 5 17 18
f 5 18 8
f 6 19 20
f 6 20 21
f 6 21 22
f 6 22 9
f 6 9 7
f 6 8 23
f 6 23 19
f 8 18 23
f 9 22 24
f 9 24 25
f 9 25 26
f 9 26 10
f 10 26 27
f 10 27 11
f 11 28 12
f 11 27 55
f 11 55 28
f 12 28 29
f 13 29 30
f 13 30 31
f 13 31 32
f 13 32 33
f 14 33 34
f 14 34 15
f 15 34 35
f 15 35 16
f 16 35 36
f 16 36 17
f 17 36 37
f 17 37 39
f 17 39 18
f 18 38 23
f 18 39 40
f 18 40 41
f 18 41 38
f 19 42 43
f 19 43 20
f 19 23 44
f 19 44 45
f 19 45 42
f 20 43 21
f 21 43 46
f 21 46 47
f 21 47 48
f 21 48 22
f 22 48 24
f 23 38 72
f 23 72 44
f 24 48 49
f 24 49 50
f 24 50 25
f 25 50 51
f 25 51 26
f 26 51 52
f 26 52 53
f 26 53 27
f 27 53 54
f 27 54 55
f 28 30 29
f 28 55 56
f 28 56 30
f 30 57 31
f 30 56 58
f 30 58 57
f 31 57 59
f 31 59 32
f 32 59 60
f 32 60 110
f 32 110 61
f 32 61 33
f 33 61 62
f 33 62 34
f 34 62 35
f 35 62 63
f 35 63 64
f 35 64 65
f 35 65 36
f 36 66 37
f 36 65 64
f 36 64 67
f 36 67 68
f 36 68 69
f 36 69 66
f 37 66 70
f 37 70 71
f 37 71 73
f 37 73 39
f 38 41 72
f 39 73 74
f 39 74 75
f 39 75 40
f 40 76 77
f 40 77 78
f 40 78 79
f 40 79 41
f 40 75 80
f 40 80 81
f 40 81 76
f 41 79 72
f 42 82 83
f 42 83 43
f 42 45 82
f 43 83 46
f 44 72 84
f 44 84 85
f 44 85 45
f 45 86 82
f 45 85 137
f 45 137 86
f 46 83 87
f 46 87 47
f 47 87 88
f 47 88 89
f 47 89 48
f 48 89 90
f 48 90 91
f 48 91 49
f 49 91 50
f 50 91 92
f 50 92 93
f 50 93 94
f 50 94 51
f 51 94 95
f 51 95 52
f 52 95 53
f 53 95 96
f 53 96 97
f 53 97 98
f 53 98 54
f 54 98 55
f 55 98 99
f 55 99 100
f 55 100 56
f 56 100 101
f 56 101 58
f 57 102 59
f 57 58 103
f 57 103 102
f 58 101 104
f 58 104 105
f 58 105 106
f 58 106 103
f 59 102 107
f 59 107 108
f 59 108 60
f 60 108 109
f 60 109 110
f 61 110 111
f 61 111 62
f 62 111 63
f 63 112 113
f 63 113 114
f 63 114 115
f 63 115 64
f 63 111 112
f 64 115 67
f 66 116 71
f 66 71 70
f 66 69 117
f 66 117 116
f 67 118 68
f 67 115 118
f 68 118 119
f 68 119 120
f 68 120 69
f 69 120 121
f 69 121 80
f 69 80 73
f 69 73 71
f 69 71 117
f 71 116 117
f 72 79 84
f 73 80 122
f 73 122 123
f 73 123 74
f 74 123 75
f 75 123 122
f 75 122 80
f 76 124 77
f 76 81 124
f 77 124 125
f 77 125 79
f 77 79 78
f 79 125 84
f 80 121 126
f 80 126 127
f 80 127 81
f 81 127 128
f 81 128 129
f 81 129 130
f 81 130 124
f 82 131 132
f 82 132 133
f 82 133 83
f 82 86 134
f 82 134 131
f 83 133 135
f 83 135 87
f 84 136 137
f 84 137 85
f 84 125 136
f 86 137 134
f 87 135 138
f 87 138 139
f 87 139 140
f 87 140 88
f 88 141 89
f 88 140 141
f 89 141 90
f 90 141 142
f 90 142 143
f 90 143 144
f 90 144 145
f 90 145 91
f 91 145 92
f 92 145 146
f 92 146 93
f 93 146 147
f 93 147 148
f 93 148 96
f 93 96 94
f 94 96 95
f 96 148 149
f 96 149 150
f 96 150 151
f 96 151 97
f 97 151 152
f 97 152 98
f 98 152 99
f 99 152 153
f 99 153 154
f 99 154 155
f 99 155 100
f 100 155 101
f 101 155 104
f 102 156 107
f 102 103 157
f 102 157 156
f 103 106 158
f 103 158 159
f 103 159 157
f 104 154 160
f 104 160 161
f 104 161 162
f 104 162 158
f 104 158 105
f 104 155 154
f 105 158 106
f 107 156 163
f 107 163 108
f 108 163 164
f 108 164 109
f 109 111 110
f 109 164 165
f 109 165 166
f 109 166 167
f 109 167 111
f 111 167 112
f 112 167 168
f 112 168 169
f 112 169 113
f 113 169 170
f 113 170 114
f 114 171 225
f 114 225 172
f 114 172 115
f 114 170 171
f 115 172 118
f 118 172 173
f 118 173 119
f 119 173 174
f 119 174 120
f 120 174 175
f 120 175 176
f 120 176 121
f 121 176 177
f 121 177 126
f 124 178 125
f 124 130 179
f 124 179 178
f 125 178 136
f 126 177 180
f 126 180 181
f 126 181 127
f 127 181 182
f 127 182 183
f 127 183 128
f 128 184 129
f 128 183 184
f 129 179 130
f 129 184 179
f 131 185 186
f 131 186 187
f 131 187 132
f 131 134 185
f 132 187 133
f 133 187 188
f 133 188 135
f 134 189 185
f 134 137 190
f 134 190 252
f 134 252 189
f 135 188 191
f 135 191 138
f 136 192 137
f 136 178 193
f 136 193 192
f 137 192 190
f 138 191 194
f 138 194 139
f 139 194 140
f 140 194 195
f 140 195 196
f 140 196 143
f 140 143 141
f 141 143 142
f 143 196 197
f 143 197 198
f 143 198 146
f 143 146 144
f 144 146 145
f 146 198 199
f 146 199 200
f 146 200 201
f 146 201 147
f 147 201 148
f 148 201 202
f 148 202 203
f 148 203 149
f 149 203 204
f 149 204 150
f 150 204 151
f 151 154 153
f 151 153 152
f 151 204 205
f 151 205 206
f 151 206 207
f 151 207 154
f 154 207 160
f 156 208 163
f 156 157 209
f 156 209 208
f 157 159 210
f 157 210 211
f 157 211 209
f 158 162 212
f 158 212 159
f 159 212 210
f 160 207 161
f 161 207 213
f 161 213 214
f 161 214 215
f 161 215 162
f 162 215 212
f 163 208 216
f 163 216 217
f 163 217 164
f 164 217 218
f 164 218 219
f 164 219 220
f 164 220 165
f 165 220 166
f 166 220 221
f 166 221 222
f 166 222 167
f 167 222 168
f 168 222 170
f 168 170 169
f 170 222 223
f 170 223 224
f 170 224 171
f 171 224 225
f 172 225 226
f 172 226 173
f 173 226 174
f 174 226 227
f 174 227 228
f 174 228 229
f 174 229 230
f 174 230 175
f 175 230 176
f 176 230 231
f 176 231 232
f 176 232 177
f 177 232 233
f 177 233 234
f 177 234 180
f 178 235 193
f 178 179 235
f 179 184 236
f 179 236 237
f 179 237 235
f 180 234 238
f 180 238 181
f 181 238 239
f 181 239 240
f 181 240 182
f 182 240 183
f 183 240 241
f 183 241 242
f 183 242 243
f 183 243 244
f 183 244 236
f 183 236 184
f 185 245 246
f 185 246 247
f 185 247 186
f 185 189 245
f 186 247 187
f 187 247 248
f 187 248 188
f 188 248 249
f 188 249 250
f 188 250 191
f 189 251 245
f 189 252 253
f 189 253 254
f 189 254 251
f 190 192 252
f 191 250 255
f 191 255 194
f 192 256 252
f 192 193 256
f 193 257 256
f 193 235 257
f 194 255 195
f 195 258 197
f 195 197 196
f 195 255 258
f 197 258 259
f 197 259 260
f 197 260 198
f 198 260 261
f 198 261 262
f 198 262 199
f 199 262 263
f 199 263 200
f 200 263 264
f 200 264 201
f 201 264 265
f 201 265 202
f 202 265 266
f 202 266 203
f 203 266 267
f 203 267 268
f 203 268 204
f 204 268 269
f 204 269 205
f 205 269 270
f 205 270 206
f 206 270 271
f 206 271 207
f 207 271 272
f 207 272 213
f 208 273 216
f 208 209 274
f 208 274 273
f 209 211 275
f 209 275 276
f 209 276 274
f 210 275 211
f 210 212 277
f 210 277 275
f 212 215 278
f 212 278 277
f 213 272 279
f 213 279 214
f 214 280 281
f 214 281 278
f 214 278 215
f 214 279 282
f 214 282 280
f 216 273 217
f 217 273 283
f 217 283 284
f 217 284 218
f 218 284 285
f 218 285 219
f 219 285 220
f 220 285 286
f 220 286 287
f 220 287 221
f 221 287 288
f 221 288 289
f 221 289 222
f 222 289 290
f 222 290 224
f 222 224 223
f 224 290 291
f 224 291 292
f 224 292 225
f 225 292 226
f 226 292 227
f 227 292 291
f 227 291 293
f 227 293 294
f 227 294 295
f 227 295 296
f 227 296 228
f 228 296 229
f 229 297 298
f 229 298 299
f 229 299 300
f 229 300 230
f 229 296 297
f 230 300 301
f 230 301 231
f 231 301 302
f 231 302 232
f 232 302 303
f 232 303 233
f 233 303 304
f 233 304 234
f 234 304 238
f 235 237 305
f 235 305 257
f 236 306 237
f 236 244 306
f 237 306 305
f 238 307 239
f 238 304 307
f 239 307 308
f 239 308 240
f 240 308 309
f 240 309 242
f 240 242 241
f 242 309 310
f 242 310 311
f 242 311 312
f 242 312 313
f 242 313 243
f 243 313 244
f 244 314 315
f 244 315 316
f 244 316 306
f 244 313 317
f 244 317 314
f 245 318 319
f 245 319 320
f 245 320 246
f 245 251 318
f 246 320 247
f 247 320 321
f 247 321 248
f 248 321 322
f 248 322 323
f 248 323 249
f 249 323 250
f 250 323 324
f 250 324 255
f 251 325 318
f 251 254 327
f 251 327 325
f 252 256 253
f 253 326 327
f 253 327 254
f 253 256 328
f 253 328 326
f 255 324 329
f 255 329 258
f 256 257 328
f 257 330 328
f 257 305 331
f 257 331 330
f 258 329 259
f 259 332 333
f 259 333 334
f 259 334 260
f 259 329 335
f 259 335 332
f 260 334 336
f 260 336 261
f 261 336 262
f 262 336 337
f 262 337 338
f 262 338 339
f 262 339 263
f 263 339 340
f 263 340 264
f 264 340 341
f 264 341 265
f 265 341 342
f 265 342 266
f 266 342 343
f 266 343 344
f 266 344 267
f 267 344 345
f 267 345 268
f 268 345 346
f 268 346 269
f 269 346 347
f 269 347 270
f 270 347 348
f 270 348 271
f 271 348 349
f 271 349 350
f 271 350 351
f 271 351 272
f 272 351 279
f 273 352 283
f 273 274 353
f 273 353 352
f 274 276 354
f 274 354 355
f 274 355 353
f 275 277 278
f 275 278 356
f 275 356 357
f 275 357 276
f 276 357 354
f 278 281 356
f 279 351 358
f 279 358 359
f 279 359 360
f 279 360 282
f 280 361 362
f 280 362 281
f 280 282 363
f 280 363 361
f 281 362 364
f 281 364 357
f 281 357 356
f 282 360 359
f 282 359 365
f 282 365 366
f 282 366 367
f 282 367 368
f 282 368 363
f 283 352 284
f 284 352 369
f 284 369 370
f 284 370 371
f 284 371 285
f 285 371 372
f 285 372 373
f 285 373 286
f 286 373 287
f 287 373 374
f 287 374 288
f 288 374 375
f 288 375 376
f 288 376 377
f 288 377 378
f 288 378 289
f 289 378 290
f 290 379 293
f 290 293 291
f 290 378 379
f 293 379 377
f 293 377 294
f 294 380 381
f 294 381 295
f 294 377 380
f 295 381 382
f 295 382 383
f 295 383 297
f 295 297 296
f 297 383 384
f 297 384 385
f 297 385 298
f 298 385 299
f 299 385 386
f 299 386 387
f 299 387 388
f 299 388 389
f 299 389 300
f 300 389 301
f 301 389 302
f 302 389 303
f 303 389 390
f 303 390 391
f 303 391 304
f 304 391 392
f 304 392 307
f 305 306 316
f 305 316 331
f 307 392 308
f 308 392 309
f 309 392 310
f 310 392 393
f 310 393 394
f 310 394 395
f 310 395 396
f 310 396 311
f 311 396 312
f 312 396 397
f 312 397 398
f 312 398 317
f 312 317 313
f 314 317 399
f 314 399 400
f 314 400 401
f 314 401 315
f 315 401 402
f 315 402 331
f 315 331 316
f 317 403 399
f 317 398 403
f 318 404 405
f 318 405 319
f 318 325 410
f 318 410 404
f 319 405 320
f 320 405 406
f 320 406 321
f 321 406 407
f 321 407 408
f 321 408 322
f 322 408 323
f 323 408 409
f 323 409 329
f 323 329 324
f 325 327 411
f 325 411 412
f 325 412 410
f 326 411 327
f 326 328 413
f 326 413 414
f 326 414 411
f 328 330 413
f 329 409 335
f 330 331 413
f 331 402 413
f 332 335 415
f 332 415 416
f 332 416 417
f 332 417 333
f 333 417 418
f 333 418 419
f 333 419 420
f 333 420 421
f 333 421 422
f 333 422 423
f 333 423 334
f 334 423 422
f 334 422 424
f 334 424 336
f 335 409 415
f 336 424 425
f 336 425 337
f 337 425 338
f 338 425 426
f 338 426 427
f 338 427 428
f 338 428 339
f 339 428 340
f 340 428 341
f 341 428 429
f 341 429 342
f 342 429 430
f 342 430 343
f 343 430 431
f 343 431 432
f 343 432 344
f 344 432 433
f 344 433 345
f 345 433 434
f 345 434 346
f 346 434 435
f 346 435 347
f 347 435 348
f 348 435 349
f 349 436 437
f 349 437 350
f 349 435 438
f 349 438 436
f 350 437 351
f 351 437 358
f 352 439 369
f 352 353 440
f 352 440 439
f 353 355 441
f 353 441 442
f 353 442 440
f 354 441 355
f 354 357 443
f 354 443 441
f 357 364 362
f 357 362 444
f 357 444 443
f 358 437 359
f 359 437 436
f 359 436 445
f 359 445 446
f 359 446 366
f 359 366 365
f 361 447 448
f 361 448 449
f 361 449 450
f 361 450 362
f 361 363 447
f 362 450 451
f 362 451 443
f 362 443 444
f 363 368 452
f 363 452 447
f 366 453 368
f 366 368 367
f 366 446 445
f 366 445 453
f 368 453 452
f 369 439 370
f 370 439 454
f 370 454 455
f 370 455 371
f 371 455 456
f 371 456 372
f 372 456 373
f 373 456 457
f 373 457 458
f 373 458 374
f 374 458 459
f 374 459 375
f 375 459 376
f 376 459 377
f 377 460 461
f 377 461 462
f 377 462 380
f 377 379 378
f 377 459 463
f 377 463 460
f 380 464 382
f 380 382 381
f 380 462 461
f 380 461 460
f 380 460 463
f 380 463 465
f 380 465 466
f 380 466 467
f 380 467 468
f 380 468 464
f 382 464 469
f 382 469 383
f 383 469 470
f 383 470 471
f 383 471 384
f 384 471 386
f 384 386 385
f 386 472 473
f 386 473 387
f 386 471 472
f 387 473 474
f 387 474 475
f 387 475 476
f 387 476 477
f 387 477 388
f 388 477 478
f 388 478 389
f 389 478 390
f 390 478 479
f 390 479 391
f 391 479 392
f 392 479 393
f 393 479 480
f 393 480 394
f 394 480 481
f 394 481 482
f 394 482 483
f 394 483 484
f 394 484 395
f 395 484 485
f 395 485 486
f 395 486 397
f 395 397 396
f 397 486 398
f 398 487 403
f 398 486 488
f 398 488 487
f 399 403 400
f 400 489 401
f 400 403 490
f 400 490 491
f 400 491 492
f 400 492 493
f 400 493 494
f 400 494 495
f 400 495 489
f 401 489 495
f 401 495 414
f 401 414 413
f 401 413 402
f 403 487 490
f 404 496 405
f 404 410 412
f 404 412 496
f 405 496 497
f 405 497 406
f 406 497 498
f 406 498 499
f 406 499 407
f 407 499 408
f 408 499 500
f 408 500 409
f 409 500 501
f 409 501 415
f 411 502 412
f 411 414 495
f 411 495 502
f 412 502 496
f 415 503 416
f 415 501 500
f 415 500 504
f 415 504 503
f 416 503 505
f 416 505 506
f 416 506 507
f 416 507 417
f 417 508 418
f 417 507 508
f 418 509 420
f 418 420 419
f 418 508 509
f 420 510 422
f 420 422 421
f 420 509 511
f 420 511 510
f 422 510 511
f 422 511 426
f 422 426 425
f 422 425 424
f 426 511 512
f 426 512 427
f 427 512 428
f 428 512 429
f 429 431 430
f 429 512 513
f 429 513 514
f 429 514 431
f 431 514 515
f 431 515 516
f 431 516 432
f 432 434 433
f 432 516 517
f 432 517 434
f 434 517 518
f 434 518 519
f 434 519 435
f 435 519 438
f 436 438 519
f 436 519 445
f 439 520 454
f 439 440 521
f 439 521 520
f 440 442 522
f 440 522 523
f 440 523 521
f 441 522 442
f 441 443 451
f 441 451 524
f 441 524 522
f 445 519 518
f 445 518 525
f 445 525 526
f 445 526 527
f 445 527 528
f 445 528 453
f 447 529 448
f 447 452 529
f 448 529 530
f 448 530 531
f 448 531 532
f 448 532 533
f 448 533 534
f 448 534 449
f 449 534 535
f 449 535 536
f 449 536 523
f 449 523 522
f 449 522 524
f 449 524 450
f 450 524 451
f 452 453 537
f 452 537 538
f 452 538 529
f 453 528 539
f 453 539 537
f 454 520 455
f 455 520 540
f 455 540 541
f 455 541 542
f 455 542 456
f 456 542 543
f 456 543 457
f 457 543 458
f 458 543 544
f 458 544 459
f 459 544 545
f 459 545 546
f 459 546 463
f 463 546 547
f 463 547 465
f 464 548 469
f 464 468 549
f 464 549 550
f 464 550 551
f 464 551 552
f 464 552 548
f 465 547 466
f 466 546 545
f 466 545 544
f 466 544 553
f 466 553 467
f 466 547 546
f 467 553 554
f 467 554 555
f 467 555 468
f 468 555 556
f 468 556 557
f 468 557 558
f 468 558 559
f 468 559 560
f 468 560 550
f 468 550 549
f 469 548 561
f 469 561 562
f 469 562 472
f 469 472 470
f 470 472 471
f 472 562 563
f 472 563 475
f 472 475 474
f 472 474 473
f 475 563 564
f 475 564 565
f 475 565 566
f 475 566 567
f 475 567 476
f 476 567 568
f 476 568 569
f 476 569 477
f 477 570 478
f 477 569 570
f 478 570 571
f 478 571 479
f 479 571 480
f 480 571 572
f 480 572 481
f 481 572 573
f 481 573 574
f 481 574 482
f 482 574 575
f 482 575 576
f 482 576 577
f 482 577 578
f 482 578 485
f 482 485 483
f 483 485 484
f 485 578 579
f 485 579 487
f 485 487 488
f 485 488 486
f 487 579 580
f 487 580 581
f 487 581 582
f 487 582 490
f 490 582 583
f 490 583 584
f 490 584 491
f 491 585 586
f 491 586 492
f 491 584 583
f 491 583 587
f 491 587 588
f 491 588 589
f 491 589 585
f 492 586 590
f 492 590 591
f 492 591 493
f 493 591 592
f 493 592 593
f 493 593 494
f 494 593 495
f 495 593 592
f 495 592 502
f 496 594 595
f 496 595 497
f 496 502 594
f 497 595 596
f 497 596 498
f 498 596 597
f 498 597 499
f 499 597 598
f 499 598 500
f 500 598 504
f 502 592 599
f 502 599 600
f 502 600 594
f 503 504 598
f 503 598 505
f 505 601 506
f 505 598 597
f 505 597 596
f 505 596 601
f 506 602 603
f 506 603 507
f 506 601 604
f 506 604 605
f 506 605 606
f 506 606 602
f 507 603 508
f 508 603 607
f 508 607 608
f 508 608 509
f 509 608 609
f 509 609 610
f 509 610 511
f 511 611 612
f 511 612 613
f 511 613 513
f 511 513 512
f 511 610 611
f 513 515 514
f 513 613 614
f 513 614 515
f 515 614 615
f 515 615 616
f 515 616 617
f 515 617 516
f 516 617 618
f 516 618 619
f 516 619 620
f 516 620 621
f 516 621 518
f 516 518 517
f 518 621 525
f 520 622 540
f 520 521 623
f 520 623 622
f 521 523 624
f 521 624 623
f 523 536 535
f 523 535 624
f 525 625 626
f 525 626 526
f 525 621 625
f 526 626 527
f 527 626 627
f 527 627 628
f 527 628 629
f 527 629 630
f 527 630 631
f 527 631 539
f 527 539 528
f 529 632 530
f 529 538 633
f 529 633 632
f 530 632 634
f 530 634 531
f 531 634 635
f 531 635 532
f 532 635 636
f 532 636 623
f 532 623 624
f 532 624 535
f 532 535 533
f 533 535 534
f 537 539 538
f 538 539 633
f 539 631 637
f 539 637 633
f 540 622 541
f 541 622 542
f 542 638 543
f 542 622 639
f 542 639 640
f 542 640 638
f 543 638 554
f 543 554 553
f 543 553 544
f 548 641 642
f 548 642 561
f 548 552 641
f 550 560 643
f 550 643 551
f 551 643 552
f 552 643 644
f 552 644 645
f 552 645 646
f 552 646 647
f 552 647 648
f 552 648 649
f 552 649 650
f 552 650 641
f 554 638 556
f 554 556 555
f 556 640 651
f 556 651 557
f 556 638 640
f 557 651 558
f 558 652 559
f 558 651 653
f 558 653 654
f 558 654 655
f 558 655 652
f 559 652 656
f 559 656 657
f 559 657 658
f 559 658 659
f 559 659 643
f 559 643 560
f 561 642 660
f 561 660 661
f 561 661 662
f 561 662 562
f 562 662 663
f 562 663 664
f 562 664 564
f 562 564 563
f 564 664 665
f 564 665 565
f 565 665 666
f 565 666 667
f 565 667 566
f 566 667 668
f 566 668 568
f 566 568 567
f 568 669 569
f 568 668 669
f 569 669 570
f 570 669 670
f 570 670 571
f 571 670 572
f 572 670 573
f 573 670 671
f 573 671 575
f 573 575 574
f 575 671 672
f 575 672 576
f 576 672 673
f 576 673 674
f 576 674 577
f 577 674 675
f 577 675 579
f 577 579 578
f 579 675 676
f 579 676 677
f 579 677 580
f 580 678 679
f 580 679 680
f 580 680 581
f 580 677 678
f 581 680 681
f 581 681 682
f 581 682 582
f 582 683 583
f 582 682 684
f 582 684 683
f 583 683 685
f 583 685 587
f 585 590 586
f 585 589 686
f 585 686 590
f 587 685 687
f 587 687 588
f 588 688 689
f 588 689 589
f 588 687 690
f 588 690 691
f 588 691 692
f 588 692 688
f 589 689 693
f 589 693 686
f 590 686 693
f 590 693 694
f 590 694 695
f 590 695 599
f 590 599 591
f 591 599 592
f 594 696 697
f 594 697 595
f 594 600 696
f 595 697 698
f 595 698 596
f 596 698 699
f 596 699 601
f 599 695 700
f 599 700 696
f 599 696 600
f 601 699 604
f 602 701 702
f 602 702 703
f 602 703 603
f 602 606 704
f 602 704 705
f 602 705 805
f 602 805 701
f 603 703 706
f 603 706 607
f 604 699 698
f 604 698 605
f 605 707 606
f 605 698 697
f 605 697 707
f 606 707 708
f 606 708 704
f 607 706 609
f 607 609 608
f 609 706 709
f 609 709 710
f 609 710 611
f 609 611 610
f 611 711 712
f 611 712 612
f 611 710 713
f 611 713 714
f 611 714 715
f 611 715 711
f 612 712 613
f 613 712 716
f 613 716 614
f 614 716 615
f 615 717 718
f 615 718 617
f 615 617 616
f 615 716 719
f 615 719 720
f 615 720 717
f 617 718 721
f 617 721 722
f 617 722 723
f 617 723 618
f 618 723 724
f 618 724 725
f 618 725 620
f 618 620 619
f 620 725 726
f 620 726 727
f 620 727 728
f 620 728 625
f 620 625 621
f 622 623 729
f 622 729 651
f 622 651 639
f 623 730 651
f 623 651 729
f 623 636 731
f 623 731 730
f 625 728 626
f 626 728 727
f 626 727 732
f 626 732 627
f 627 732 733
f 627 733 734
f 627 734 735
f 627 735 736
f 627 736 628
f 628 737 738
f 628 738 629
f 628 736 737
f 629 738 739
f 629 739 851
f 629 851 740
f 629 740 741
f 629 741 742
f 629 742 630
f 630 637 631
f 630 742 743
f 630 743 637
f 632 744 745
f 632 745 634
f 632 633 744
f 633 637 743
f 633 743 744
f 634 745 654
f 634 654 746
f 634 746 635
f 635 746 636
f 636 746 731
f 639 651 640
f 641 747 642
f 641 650 748
f 641 748 749
f 641 749 750
f 641 750 747
f 642 751 660
f 642 747 752
f 642 752 751
f 643 659 753
f 643 753 644
f 644 753 754
f 644 754 645
f 645 647 646
f 645 754 647
f 647 754 755
f 647 755 648
f 648 755 756
f 648 756 757
f 648 757 649
f 649 757 758
f 649 758 650
f 650 749 748
f 650 758 759
f 650 759 749
f 651 730 746
f 651 746 653
f 652 655 656
f 653 746 654
f 654 745 760
f 654 760 656
f 654 656 655
f 656 760 744
f 656 744 761
f 656 761 762
f 656 762 657
f 657 762 763
f 657 763 658
f 658 763 659
f 659 763 764
f 659 764 765
f 659 765 753
f 660 751 766
f 660 766 661
f 661 766 767
f 661 767 662
f 662 767 768
f 662 768 769
f 662 769 663
f 663 769 770
f 663 770 665
f 663 665 664
f 665 771 666
f 665 770 771
f 666 771 673
f 666 673 667
f 667 673 672
f 667 672 671
f 667 671 668
f 668 671 670
f 668 670 669
f 673 771 772
f 673 772 773
f 673 773 674
f 674 773 676
f 674 676 675
f 676 773 774
f 676 774 677
f 677 774 775
f 677 775 776
f 677 776 678
f 678 776 777
f 678 777 679
f 679 778 680
f 679 777 778
f 680 778 779
f 680 779 780
f 680 780 681
f 681 780 781
f 681 781 782
f 681 782 783
f 681 783 784
f 681 784 682
f 682 784 785
f 682 785 786
f 682 786 787
f 682 787 788
f 682 788 684
f 683 684 789
f 683 789 685
f 684 790 791
f 684 791 789
f 684 788 792
f 684 792 790
f 685 789 687
f 687 789 793
f 687 793 690
f 688 692 794
f 688 794 795
f 688 795 796
f 688 796 797
f 688 797 798
f 688 798 799
f 688 799 694
f 688 694 800
f 688 800 689
f 689 800 694
f 689 694 693
f 690 793 801
f 690 801 802
f 690 802 691
f 691 802 803
f 691 803 795
f 691 795 794
f 691 794 692
f 694 799 696
f 694 696 700
f 694 700 695
f 696 799 804
f 696 804 697
f 697 804 798
f 697 798 708
f 697 708 707
f 701 805 797
f 701 797 806
f 701 806 702
f 702 807 911
f 702 911 808
f 702 808 809
f 702 809 703
f 702 806 796
f 702 796 807
f 703 809 706
f 704 708 798
f 704 798 705
f 705 798 805
f 706 809 810
f 706 810 709
f 709 810 713
f 709 713 710
f 711 811 812
f 711 812 813
f 711 813 814
f 711 814 712
f 711 715 811
f 712 814 720
f 712 720 719
f 712 719 716
f 713 810 815
f 713 815 714
f 714 816 715
f 714 815 817
f 714 817 818
f 714 818 819
f 714 819 816
f 715 816 820
f 715 820 811
f 717 821 822
f 717 822 718
f 717 720 821
f 718 822 721
f 720 823 821
f 720 814 824
f 720 824 825
f 720 825 823
f 721 822 826
f 721 826 827
f 721 827 722
f 722 827 828
f 722 828 723
f 723 828 724
f 724 828 829
f 724 829 830
f 724 830 725
f 725 830 726
f 726 830 831
f 726 831 727
f 727 831 832
f 727 832 833
f 727 833 834
f 727 834 733
f 727 733 732
f 730 731 746
f 733 834 835
f 733 835 836
f 733 836 837
f 733 837 734
f 734 837 838
f 734 838 735
f 735 838 839
f 735 839 840
f 735 840 736
f 736 840 737
f 737 841 842
f 737 842 843
f 737 843 738
f 737 840 841
f 738 843 844
f 738 844 845
f 738 845 846
f 738 846 847
f 738 847 848
f 738 848 849
f 738 849 850
f 738 850 739
f 739 850 851
f 740 851 852
f 740 852 743
f 740 743 741
f 741 743 742
f 743 852 762
f 743 762 761
f 743 761 744
f 744 760 745
f 747 853 848
f 747 848 854
f 747 854 752
f 747 750 855
f 747 855 853
f 749 759 856
f 749 856 750
f 750 856 857
f 750 857 855
f 751 752 858
f 751 858 859
f 751 859 860
f 751 860 766
f 752 861 858
f 752 854 862
f 752 862 861
f 753 765 863
f 753 863 754
f 754 863 864
f 754 864 755
f 755 864 865
f 755 865 866
f 755 866 857
f 755 857 856
f 755 856 756
f 756 856 759
f 756 759 757
f 757 759 758
f 762 852 763
f 763 852 863
f 763 863 764
f 764 863 765
f 766 867 868
f 766 868 869
f 766 869 768
f 766 768 767
f 766 860 859
f 766 859 870
f 766 870 871
f 766 871 867
f 768 869 872
f 768 872 873
f 768 873 874
f 768 874 875
f 768 875 876
f 768 876 769
f 769 876 877
f 769 877 770
f 770 878 771
f 770 877 878
f 771 878 879
f 771 879 772
f 772 879 773
f 773 879 880
f 773 880 774
f 774 880 881
f 774 881 775
f 775 881 882
f 775 882 883
f 775 883 884
f 775 884 885
f 775 885 886
f 775 886 777
f 775 777 776
f 777 886 887
f 777 887 888
f 777 888 889
f 777 889 890
f 777 890 891
f 777 891 892
f 777 892 778
f 778 892 891
f 778 891 893
f 778 893 779
f 779 893 894
f 779 894 895
f 779 895 896
f 779 896 780
f 780 897 898
f 780 898 899
f 780 899 781
f 780 896 900
f 780 900 901
f 780 901 897
f 781 899 902
f 781 902 782
f 782 903 784
f 782 784 783
f 782 902 903
f 784 903 904
f 784 904 785
f 785 904 905
f 785 905 786
f 786 792 787
f 786 905 792
f 787 792 788
f 789 791 906
f 789 906 793
f 790 792 791
f 791 907 908
f 791 908 906
f 791 792 907
f 792 905 907
f 793 906 801
f 795 803 807
f 795 807 796
f 796 806 797
f 797 805 798
f 798 804 799
f 801 906 802
f 802 906 909
f 802 909 810
f 802 810 910
f 802 910 803
f 803 910 807
f 807 910 911
f 808 810 809
f 808 911 810
f 810 911 910
f 810 909 815
f 811 820 912
f 811 912 812
f 812 913 813
f 812 912 914
f 812 914 913
f 813 913 915
f 813 915 824
f 813 824 814
f 815 909 817
f 816 916 820
f 816 819 917
f 816 917 901
f 816 901 918
f 816 918 919
f 816 919 916
f 817 909 818
f 818 909 906
f 818 906 908
f 818 908 819
f 819 908 920
f 819 920 921
f 819 921 917
f 820 916 922
f 820 922 923
f 820 923 912
f 821 924 925
f 821 925 826
f 821 826 822
f 821 823 924
f 823 825 926
f 823 926 927
f 823 927 928
f 823 928 924
f 824 929 930
f 824 930 825
f 824 915 929
f 825 930 931
f 825 931 926
f 826 925 932
f 826 932 933
f 826 933 934
f 826 934 935
f 826 935 827
f 827 935 936
f 827 936 828
f 828 936 829
f 829 831 830
f 829 936 937
f 829 937 938
f 829 938 939
f 829 939 940
f 829 940 831
f 831 940 941
f 831 941 832
f 832 942 943
f 832 943 833
f 832 941 942
f 833 944 945
f 833 945 834
f 833 943 944
f 834 945 835
f 835 945 946
f 835 946 947
f 835 947 836
f 836 948 837
f 836 947 948
f 837 948 838
f 838 948 949
f 838 949 950
f 838 950 839
f 839 950 951
f 839 951 952
f 839 952 953
f 839 953 840
f 840 953 954
f 840 954 841
f 841 954 955
f 841 955 842
f 842 955 956
f 842 956 957
f 842 957 844
f 842 844 843
f 844 957 958
f 844 958 959
f 844 959 960
f 844 960 961
f 844 961 962
f 844 962 845
f 845 962 846
f 846 962 854
f 846 854 847
f 847 854 848
f 848 855 849
f 848 853 855
f 849 855 963
f 849 963 850
f 850 963 851
f 851 963 864
f 851 864 863
f 851 863 852
f 854 962 862
f 855 857 866
f 855 866 865
f 855 865 963
f 858 964 859
f 858 861 965
f 858 965 964
f 859 964 966
f 859 966 967
f 859 967 870
f 861 968 965
f 861 862 969
f 861 969 968
f 862 962 969
f 864 963 865
f 867 871 870
f 867 870 970
f 867 970 971
f 867 971 972
f 867 972 868
f 868 973 872
f 868 872 869
f 868 972 973
f 870 967 974
f 870 974 975
f 870 975 970
f 872 976 873
f 872 973 976
f 873 976 977
f 873 977 874
f 874 977 875
f 875 977 978
f 875 978 979
f 875 979 876
f 876 979 980
f 876 980 877
f 877 980 878
f 878 980 981
f 878 981 982
f 878 982 879
f 879 982 983
f 879 983 880
f 880 983 881
f 881 983 984
f 881 984 882
f 882 985 986
f 882 986 883
f 882 984 985
f 883 986 987
f 883 987 884
f 884 987 885
f 885 987 988
f 885 988 989
f 885 989 887
f 885 887 886
f 887 989 888
f 888 990 991
f 888 991 889
f 888 989 990
f 889 991 890
f 890 992 993
f 890 993 891
f 890 991 994
f 890 994 992
f 891 995 893
f 891 993 995
f 893 995 996
f 893 996 894
f 894 996 997
f 894 997 895
f 895 998 999
f 895 999 1000
f 895 1000 896
f 895 997 998
f 896 1000 919
f 896 919 918
f 896 918 901
f 896 901 900
f 897 901 899
f 897 899 898
f 899 901 921
f 899 921 920
f 899 920 1001
f 899 1001 902
f 901 917 921
f 902 1001 907
f 902 907 905
f 902 905 903
f 903 905 904
f 907 1001 920
f 907 920 908
f 912 923 1005
f 912 1005 914
f 913 914 1002
f 913 1002 1003
f 913 1003 1004
f 913 1004 915
f 914 1005 1002
f 915 1004 929
f 916 919 1006
f 916 1006 922
f 919 1000 999
f 919 999 1007
f 919 1007 1008
f 919 1008 1006
f 922 1009 1005
f 922 1005 923
f 922 1006 1010
f 922 1010 1009
f 924 928 1011
f 924 1011 1012
f 924 1012 1013
f 924 1013 925
f 925 1013 1014
f 925 1014 932
f 926 931 1015
f 926 1015 927
f 927 1016 928
f 927 1015 1017
f 927 1017 1018
f 927 1018 1019
f 927 1019 1016
f 928 1016 1011
f 929 1004 1020
f 929 1020 930
f 930 1021 931
f 930 1020 1022
f 930 1022 1021
f 931 1023 1015
f 931 1021 1024
f 931 1024 1025
f 931 1025 1026
f 931 1026 1023
f 932 1014 933
f 933 1014 1027
f 933 1027 934
f 934 1028 935
f 934 1027 1029
f 934 1029 1028
f 935 1028 936
f 936 1030 937
f 936 1028 1031
f 936 1031 1032
f 936 1032 1030
f 937 1033 1034
f 937 1034 938
f 937 1030 1033
f 938 1034 1035
f 938 1035 939
f 939 1035 1036
f 939 1036 940
f 940 1036 941
f 941 1036 1037
f 941 1037 1038
f 941 1038 942
f 942 1039 943
f 942 1038 1040
f 942 1040 1041
f 942 1041 1039
f 943 1039 944
f 944 1042 945
f 944 1039 1147
f 944 1147 1043
f 944 1043 1044
f 944 1044 1042
f 945 1042 1045
f 945 1045 1046
f 945 1046 946
f 946 1046 947
f 947 1045 1047
f 947 1047 949
f 947 949 948
f 947 1046 1045
f 949 1047 1048
f 949 1048 950
f 950 1048 951
f 951 1048 1049
f 951 1049 952
f 952 1049 1050
f 952 1050 1051
f 952 1051 1052
f 952 1052 1053
f 952 1053 955
f 952 955 954
f 952 954 953
f 955 1053 1054
f 955 1054 1055
f 955 1055 956
f 956 1055 1056
f 956 1056 1057
f 956 1057 1058
f 956 1058 957
f 957 1058 958
f 958 1058 959
f 959 1058 960
f 960 1058 1059
f 960 1059 969
f 960 969 961
f 961 969 962
f 964 965 966
f 965 1060 966
f 965 968 1061
f 965 1061 1062
f 965 1062 1063
f 965 1063 1057
f 965 1057 1060
f 966 1060 1167
f 966 1167 1064
f 966 1064 1065
f 966 1065 967
f 967 1065 974
f 968 969 1061
f 969 1057 1063
f 969 1063 1062
f 969 1062 1061
f 969 1059 1057
f 970 975 971
f 971 975 972
f 972 975 1066
f 972 1066 1067
f 972 1067 1068
f 972 1068 1069
f 972 1069 1070
f 972 1070 973
f 973 1070 1071
f 973 1071 976
f 974 1065 1072
f 974 1072 1073
f 974 1073 1074
f 974 1074 975
f 975 1075 1076
f 975 1076 1066
f 975 1074 1075
f 976 1077 1078
f 976 1078 977
f 976 1071 1079
f 976 1079 1077
f 977 1078 1080
f 977 1080 978
f 978 1080 1081
f 978 1081 1082
f 978 1082 979
f 979 1082 980
f 980 1082 981
f 981 1082 1083
f 981 1083 982
f 982 1083 983
f 983 1083 984
f 984 1083 985
f 985 1084 1085
f 985 1085 986
f 985 1083 1084
f 986 1085 1086
f 986 1086 987
f 987 1086 1087
f 987 1087 1088
f 987 1088 1089
f 987 1089 1090
f 987 1090 988
f 988 1090 989
f 989 1091 1092
f 989 1092 1093
f 989 1093 1094
f 989 1094 994
f 989 994 990
f 989 1090 1089
f 989 1089 1091
f 990 994 991
f 992 1095 1096
f 992 1096 1097
f 992 1097 993
f 992 994 1098
f 992 1098 1099
f 992 1099 1100
f 992 1100 1095
f 993 1097 1101
f 993 1101 995
f 994 1094 1102
f 994 1102 1103
f 994 1103 1098
f 995 1101 996
f 996 1101 1104
f 996 1104 1105
f 996 1105 1106
f 996 1106 997
f 997 1106 998
f 998 1007 999
f 998 1106 1107
f 998 1107 1108
f 998 1108 1006
f 998 1006 1008
f 998 1008 1007
f 1002 1005 1109
f 1002 1109 1110
f 1002 1110 1003
f 1003 1022 1004
f 1003 1110 1111
f 1003 1111 1022
f 1004 1022 1020
f 1005 1009 1109
f 1006 1108 1010
f 1009 1010 1112
f 1009 1112 1109
f 1010 1108 1113
f 1010 1113 1114
f 1010 1114 1112
f 1011 1115 1012
f 1011 1016 1116
f 1011 1116 1117
f 1011 1117 1115
f 1012 1115 1118
f 1012 1118 1119
f 1012 1119 1013
f 1013 1119 1120
f 1013 1120 1014
f 1014 1121 1027
f 1014 1120 1232
f 1014 1232 1122
f 1014 1122 1123
f 1014 1123 1121
f 1015 1023 1017
f 1016 1019 1116
f 1017 1023 1124
f 1017 1124 1018
f 1018 1124 1125
f 1018 1125 1126
f 1018 1126 1127
f 1018 1127 1116
f 1018 1116 1019
f 1021 1022 1024
f 1022 1111 1024
f 1023 1026 1125
f 1023 1125 1124
f 1024 1111 1128
f 1024 1128 1129
f 1024 1129 1130
f 1024 1130 1025
f 1025 1130 1131
f 1025 1131 1026
f 1026 1131 1132
f 1026 1132 1214
f 1026 1214 1125
f 1027 1121 1133
f 1027 1133 1029
f 1028 1029 1133
f 1028 1133 1031
f 1030 1032 1134
f 1030 1134 1240
f 1030 1240 1135
f 1030 1135 1136
f 1030 1136 1137
f 1030 1137 1138
f 1030 1138 1139
f 1030 1139 1033
f 1031 1133 1032
f 1032 1133 1140
f 1032 1140 1141
f 1032 1141 1238
f 1032 1238 1134
f 1033 1139 1034
f 1034 1139 1138
f 1034 1138 1142
f 1034 1142 1143
f 1034 1143 1035
f 1035 1143 1036
f 1036 1143 1144
f 1036 1144 1145
f 1036 1145 1037
f 1037 1145 1146
f 1037 1146 1038
f 1038 1146 1040
f 1039 1041 1147
f 1040 1146 1148
f 1040 1148 1149
f 1040 1149 1150
f 1040 1150 1151
f 1040 1151 1041
f 1041 1151 1152
f 1041 1152 1147
f 1042 1044 1045
f 1043 1147 1153
f 1043 1153 1044
f 1044 1154 1045
f 1044 1153 1154
f 1045 1154 1155
f 1045 1155 1047
f 1047 1155 1156
f 1047 1156 1048
f 1048 1156 1049
f 1049 1156 1157
f 1049 1157 1158
f 1049 1158 1159
f 1049 1159 1160
f 1049 1160 1050
f 1050 1160 1051
f 1051 1160 1052
f 1052 1160 1161
f 1052 1161 1162
f 1052 1162 1055
f 1052 1055 1054
f 1052 1054 1053
f 1055 1162 1056
f 1056 1162 1163
f 1056 1163 1057
f 1057 1059 1058
f 1057 1163 1164
f 1057 1164 1165
f 1057 1165 1166
f 1057 1166 1167
f 1057 1167 1060
f 1064 1168 1065
f 1064 1167 1168
f 1065 1168 1169
f 1065 1169 1170
f 1065 1170 1171
f 1065 1171 1172
f 1065 1172 1161
f 1065 1161 1072
f 1066 1076 1067
f 1067 1076 1173
f 1067 1173 1174
f 1067 1174 1068
f 1068 1174 1069
f 1069 1175 1071
f 1069 1071 1070
f 1069 1174 1176
f 1069 1176 1175
f 1071 1175 1177
f 1071 1177 1079
f 1072 1178 1179
f 1072 1179 1073
f 1072 1161 1160
f 1072 1160 1180
f 1072 1180 1178
f 1073 1179 1181
f 1073 1181 1182
f 1073 1182 1183
f 1073 1183 1184
f 1073 1184 1150
f 1073 1150 1185
f 1073 1185 1074
f 1074 1185 1149
f 1074 1149 1148
f 1074 1148 1075
f 1075 1186 1076
f 1075 1148 1186
f 1076 1186 1187
f 1076 1187 1173
f 1077 1079 1177
f 1077 1177 1188
f 1077 1188 1189
f 1077 1189 1190
f 1077 1190 1080
f 1077 1080 1078
f 1080 1190 1191
f 1080 1191 1081
f 1081 1191 1192
f 1081 1192 1084
f 1081 1084 1083
f 1081 1083 1082
f 1084 1192 1085
f 1085 1193 1087
f 1085 1087 1086
f 1085 1192 1193
f 1087 1194 1195
f 1087 1195 1196
f 1087 1196 1088
f 1087 1193 1194
f 1088 1196 1089
f 1089 1196 1197
f 1089 1197 1091
f 1091 1198 1092
f 1091 1197 1198
f 1092 1198 1199
f 1092 1199 1200
f 1092 1200 1093
f 1093 1200 1102
f 1093 1102 1094
f 1095 1201 1202
f 1095 1202 1203
f 1095 1203 1096
f 1095 1100 1201
f 1096 1203 1204
f 1096 1204 1205
f 1096 1205 1097
f 1097 1206 1207
f 1097 1207 1208
f 1097 1208 1209
f 1097 1209 1210
f 1097 1210 1104
f 1097 1104 1101
f 1097 1205 1211
f 1097 1211 1206
f 1098 1103 1099
f 1099 1103 1212
f 1099 1212 1127
f 1099 1127 1213
f 1099 1213 1100
f 1100 1213 1126
f 1100 1126 1214
f 1100 1214 1215
f 1100 1215 1216
f 1100 1216 1217
f 1100 1217 1218
f 1100 1218 1219
f 1100 1219 1220
f 1100 1220 1201
f 1102 1221 1222
f 1102 1222 1103
f 1102 1200 1221
f 1103 1222 1212
f 1104 1210 1105
f 1105 1210 1223
f 1105 1223 1107
f 1105 1107 1106
f 1107 1224 1113
f 1107 1113 1108
f 1107 1223 1225
f 1107 1225 1226
f 1107 1226 1224
f 1109 1112 1227
f 1109 1227 1110
f 1110 1227 1128
f 1110 1128 1111
f 1112 1114 1228
f 1112 1228 1229
f 1112 1229 1227
f 1113 1224 1228
f 1113 1228 1114
f 1115 1117 1118
f 1116 1127 1212
f 1116 1212 1117
f 1117 1212 1230
f 1117 1230 1118
f 1118 1230 1231
f 1118 1231 1120
f 1118 1120 1119
f 1120 1231 1232
f 1121 1123 1133
f 1122 1232 1238
f 1122 1238 1141
f 1122 1141 1140
f 1122 1140 1133
f 1122 1133 1123
f 1125 1214 1126
f 1126 1213 1127
f 1128 1227 1233
f 1128 1233 1234
f 1128 1234 1235
f 1128 1235 1236
f 1128 1236 1129
f 1129 1236 1237
f 1129 1237 1130
f 1130 1237 1131
f 1131 1237 1132
f 1132 1237 1215
f 1132 1215 1214
f 1134 1238 1239
f 1134 1239 1240
f 1135 1240 1241
f 1135 1241 1136
f 1136 1242 1243
f 1136 1243 1137
f 1136 1241 1244
f 1136 1244 1242
f 1137 1243 1245
f 1137 1245 1138
f 1138 1245 1142
f 1142 1245 1143
f 1143 1245 1243
f 1143 1243 1144
f 1144 1243 1246
f 1144 1246 1247
f 1144 1247 1248
f 1144 1248 1145
f 1145 1248 1146
f 1146 1248 1148
f 1147 1152 1153
f 1148 1248 1247
f 1148 1247 1186
f 1149 1185 1150
f 1150 1184 1152
f 1150 1152 1151
f 1152 1184 1153
f 1153 1184 1183
f 1153 1183 1154
f 1154 1183 1249
f 1154 1249 1250
f 1154 1250 1251
f 1154 1251 1155
f 1155 1251 1250
f 1155 1250 1249
f 1155 1249 1252
f 1155 1252 1253
f 1155 1253 1156
f 1156 1253 1254
f 1156 1254 1255
f 1156 1255 1256
f 1156 1256 1157
f 1157 1256 1180
f 1157 1180 1158
f 1158 1180 1159
f 1159 1180 1160
f 1161 1172 1163
f 1161 1163 1162
f 1163 1172 1171
f 1163 1171 1170
f 1163 1170 1169
f 1163 1169 1164
f 1164 1169 1165
f 1165 1169 1166
f 1166 1169 1167
f 1167 1169 1168
f 1173 1257 1174
f 1173 1187 1258
f 1173 1258 1257
f 1174 1259 1176
f 1174 1257 1259
f 1175 1176 1260
f 1175 1260 1261
f 1175 1261 1177
f 1176 1259 1260
f 1177 1261 1262
f 1177 1262 1188
f 1178 1263 1179
f 1178 1180 1263
f 1179 1264 1265
f 1179 1265 1252
f 1179 1252 1181
f 1179 1263 1266
f 1179 1266 1264
f 1180 1256 1265
f 1180 1265 1264
f 1180 1264 1266
f 1180 1266 1263
f 1181 1252 1182
f 1182 1252 1249
f 1182 1249 1183
f 1186 1267 1187
f 1186 1247 1267
f 1187 1267 1268
f 1187 1268 1258
f 1188 1195 1194
f 1188 1194 1189
f 1188 1262 1269
f 1188 1269 1195
f 1189 1194 1193
f 1189 1193 1190
f 1190 1193 1192
f 1190 1192 1191
f 1195 1269 1196
f 1196 1269 1270
f 1196 1270 1197
f 1197 1270 1271
f 1197 1271 1198
f 1198 1271 1272
f 1198 1272 1199
f 1199 1272 1273
f 1199 1273 1200
f 1200 1273 1274
f 1200 1274 1221
f 1201 1220 1204
f 1201 1204 1202
f 1202 1204 1203
f 1204 1275 1276
f 1204 1276 1277
f 1204 1277 1278
f 1204 1278 1227
f 1204 1227 1229
f 1204 1229 1228
f 1204 1228 1224
f 1204 1224 1205
f 1204 1220 1219
f 1204 1219 1275
f 1205 1224 1211
f 1206 1211 1224
f 1206 1224 1207
f 1207 1224 1208
f 1208 1226 1209
f 1208 1224 1226
f 1209 1225 1210
f 1209 1226 1225
f 1210 1225 1223
f 1212 1222 1230
f 1215 1237 1216
f 1216 1237 1279
f 1216 1279 1217
f 1217 1279 1218
f 1218 1279 1280
f 1218 1280 1281
f 1218 1281 1219
f 1219 1281 1276
f 1219 1276 1275
f 1221 1274 1282
f 1221 1282 1283
f 1221 1283 1222
f 1222 1283 1230
f 1227 1278 1284
f 1227 1284 1233
f 1230 1283 1231
f 1231 1283 1232
f 1232 1239 1238
f 1232 1283 1282
f 1232 1282 1239
f 1233 1284 1277
f 1233 1277 1234
f 1234 1277 1279
f 1234 1279 1235
f 1235 1279 1237
f 1235 1237 1236
f 1239 1282 1285
f 1239 1285 1286
f 1239 1286 1240
f 1240 1287 1241
f 1240 1286 1285
f 1240 1285 1287
f 1241 1288 1244
f 1241 1287 1288
f 1242 1246 1243
f 1242 1244 1289
f 1242 1289 1290
f 1242 1290 1246
f 1244 1288 1268
f 1244 1268 1289
f 1246 1290 1247
f 1247 1290 1267
f 1252 1265 1256
f 1252 1256 1255
f 1252 1255 1253
f 1253 1255 1254
f 1257 1258 1291
f 1257 1291 1292
f 1257 1292 1259
f 1258 1268 1291
f 1259 1292 1293
f 1259 1293 1260
f 1260 1293 1294
f 1260 1294 1271
f 1260 1271 1270
f 1260 1270 1261
f 1261 1270 1269
f 1261 1269 1262
f 1267 1290 1268
f 1268 1287 1291
f 1268 1290 1289
f 1268 1288 1287
f 1271 1294 1272
f 1272 1294 1295
f 1272 1295 1273
f 1273 1295 1296
f 1273 1296 1274
f 1274 1296 1282
f 1276 1281 1280
f 1276 1280 1277
f 1277 1284 1278
f 1277 1280 1279
f 1282 1296 1285
f 1285 1296 1291
f 1285 1291 1287
f 1291 1296 1295
f 1291 1295 1292
f 1292 1295 1294
f 1292 1294 1293

