# https://github.com/mikedh/trimesh
v 0.00220000 0.00149511 0.00756240
v 0.00220000 0.00207067 0.00726105
v 0.00141575 0.00178974 0.00742304
v 0.00049424 0.00207067 0.00726105
v -0.00104988 0.00249961 0.00698829
v 0.00220000 -0.00149511 0.00756240
v 0.00220000 0.00425372 0.00587463
v -0.00104988 0.00425372 0.00587463
v -0.00202348 0.00494988 -0.00038098
v -0.00104988 -0.00249961 0.00698829
v 0.00049424 -0.00207067 0.00726105
v 0.00141575 -0.00178974 0.00742304
v 0.00220000 -0.00207067 0.00726105
v 0.00220000 0.00462099 0.00554469
v -0.00104988 0.00462099 0.00554469
v -0.00149968 0.00700000 0.00000017
v -0.00202348 0.00494988 -0.00460577
v -0.00202348 -0.00494988 -0.00038098
v -0.00104988 -0.00425372 0.00587463
v 0.00220000 -0.00425372 0.00587463
v 0.00220000 0.00486492 0.00510518
v 0.00000020 0.00700000 0.00149975
v -0.00057362 0.00700000 0.00138660
v -0.00104988 0.00486492 0.00510518
v -0.00138557 0.00700000 0.00057428
v -0.00138557 0.00700000 -0.00057393
v -0.00106063 0.00700000 -0.00105990
v -0.00057362 0.00700000 -0.00138506
v 0.00000020 0.00700000 -0.00149941
v -0.00187961 0.00494988 -0.00457837
v -0.00202348 -0.00494988 -0.00460577
v -0.00149968 -0.00700000 0.00000017
v -0.00104988 -0.00462099 0.00554469
v 0.00220000 -0.00462099 0.00554469
v 0.00220000 0.00494988 0.00460850
v 0.00149967 0.00700000 0.00000017
v 0.00138557 0.00700000 0.00057428
v 0.00106062 0.00700000 0.00106143
v 0.00057403 0.00700000 0.00138660
v -0.00106063 0.00700000 0.00106143
v 0.00057403 0.00700000 -0.00138506
v -0.00128842 0.00494988 -0.00442949
v -0.00187961 -0.00494988 -0.00457837
v 0.00000020 -0.00700000 -0.00149941
v -0.00057362 -0.00700000 -0.00138506
v -0.00106063 -0.00700000 -0.00105990
v -0.00138557 -0.00700000 -0.00057393
v -0.00138557 -0.00700000 0.00057428
v -0.00104988 -0.00486492 0.00510518
v -0.00057362 -0.00700000 0.00138660
v 0.00000020 -0.00700000 0.00149975
v 0.00220000 -0.00486492 0.00510518
v 0.00220000 0.00494988 0.00033606
v 0.00216734 0.00494988 -0.00023090
v 0.00138557 0.00700000 -0.00057393
v 0.00106062 0.00700000 -0.00105990
v -0.00040825 0.00494988 -0.00405430
v -0.00074229 0.00294910 -0.00422105
v -0.00128842 -0.00494988 -0.00442949
v 0.00057403 -0.00700000 -0.00138506
v -0.00106063 -0.00700000 0.00106143
v 0.00057403 -0.00700000 0.00138660
v 0.00220000 -0.00494988 0.00460850
v 0.00106062 -0.00700000 0.00106143
v 0.00138557 -0.00700000 0.00057428
v 0.00149967 -0.00700000 0.00000017
v 0.00219959 0.00194871 0.00028365
v 0.00219835 0.00242561 0.00020504
v 0.00219463 0.00266680 0.00010261
v 0.00218677 0.00286688 -0.00002246
v 0.00220000 -0.00494988 0.00033606
v 0.00219959 -0.00215838 0.00026817
v 0.00196849 0.00494988 -0.00116709
v 0.00217313 -0.00305599 -0.00018087
v 0.00216734 -0.00494988 -0.00023090
v 0.00214791 0.00323962 -0.00038455
v 0.00213137 0.00331774 -0.00048936
v 0.00207804 0.00347533 -0.00075974
v 0.00159476 0.00494988 -0.00204731
v 0.00106021 0.00494988 -0.00284177
v 0.00038427 0.00494988 -0.00351831
v -0.00002915 0.00322044 -0.00382561
v -0.00040743 0.00307106 -0.00405430
v -0.00057982 0.00300666 -0.00414363
v -0.00074229 -0.00294910 -0.00422105
v -0.00040825 -0.00494988 -0.00405430
v 0.00106062 -0.00700000 -0.00105990
v 0.00138557 -0.00700000 -0.00057393
v 0.00219917 -0.00231597 0.00023720
v 0.00219504 -0.00263254 0.00011928
v 0.00183909 0.00371378 -0.00152799
v 0.00202182 0.00357263 -0.00098367
v 0.00196973 -0.00363156 -0.00116352
v 0.00196849 -0.00494988 -0.00116709
v 0.00184611 -0.00371104 -0.00151251
v 0.00207804 -0.00347533 -0.00075974
v 0.00213096 -0.00332048 -0.00049413
v 0.00202760 -0.00356441 -0.00096342
v 0.00159476 -0.00494988 -0.00204731
v 0.00155135 0.00374530 -0.00212592
v 0.00118547 0.00367678 -0.00268335
v 0.00071046 0.00351781 -0.00322411
v 0.00106021 -0.00494988 -0.00284177
v 0.00012547 0.00328348 -0.00371841
v 0.00067118 -0.00350137 -0.00326341
v 0.00038427 -0.00494988 -0.00351831
v -0.00000310 -0.00323140 -0.00380655
v -0.00037642 -0.00308340 -0.00403643
v -0.00040743 -0.00307106 -0.00405430
v 0.00116522 -0.00367130 -0.00270717
v 0.00154887 -0.00374667 -0.00212830
f 1 2 3
f 1 3 4
f 1 4 5
f 1 5 10
f 1 10 6
f 1 6 13
f 1 13 20
f 1 20 34
f 1 34 52
f 1 52 63
f 1 63 71
f 1 71 53
f 1 53 35
f 1 35 21
f 1 21 14
f 1 14 7
f 1 7 2
f 2 4 3
f 2 7 8
f 2 8 4
f 4 8 5
f 5 8 9
f 5 9 18
f 5 18 10
f 6 10 11
f 6 11 12
f 6 12 13
f 7 14 15
f 7 15 8
f 8 15 9
f 9 15 16
f 9 16 17
f 9 17 31
f 9 31 18
f 10 18 19
f 10 19 11
f 11 19 20
f 11 20 13
f 11 13 12
f 14 21 22
f 14 22 15
f 15 22 23
f 15 23 24
f 15 24 25
f 15 25 16
f 16 25 40
f 16 40 23
f 16 23 22
f 16 22 39
f 16 39 38
f 16 38 37
f 16 37 36
f 16 36 55
f 16 55 56
f 16 56 41
f 16 41 29
f 16 29 28
f 16 28 27
f 16 27 26
f 16 26 17
f 17 26 27
f 17 27 28
f 17 28 29
f 17 29 30
f 17 30 43
f 17 43 31
f 18 31 32
f 18 32 33
f 18 33 19
f 19 33 34
f 19 34 20
f 21 35 36
f 21 36 37
f 21 37 38
f 21 38 39
f 21 39 22
f 23 40 24
f 24 40 25
f 29 41 30
f 30 41 42
f 30 42 59
f 30 59 43
f 31 43 44
f 31 44 45
f 31 45 46
f 31 46 47
f 31 47 32
f 32 47 46
f 32 46 45
f 32 45 44
f 32 44 60
f 32 60 87
f 32 87 88
f 32 88 66
f 32 66 65
f 32 65 64
f 32 64 62
f 32 62 51
f 32 51 50
f 32 50 61
f 32 61 48
f 32 48 33
f 33 48 49
f 33 49 50
f 33 50 51
f 33 51 34
f 34 51 52
f 35 53 36
f 36 53 54
f 36 54 55
f 41 56 57
f 41 57 42
f 42 57 58
f 42 58 85
f 42 85 59
f 43 59 60
f 43 60 44
f 48 61 49
f 49 61 50
f 51 62 52
f 52 62 64
f 52 64 65
f 52 65 66
f 52 66 63
f 53 67 68
f 53 68 69
f 53 69 70
f 53 70 54
f 53 71 72
f 53 72 67
f 54 73 55
f 54 70 74
f 54 74 75
f 54 75 76
f 54 76 77
f 54 77 78
f 54 78 73
f 55 73 79
f 55 79 56
f 56 79 80
f 56 80 81
f 56 81 57
f 57 81 82
f 57 82 83
f 57 83 84
f 57 84 58
f 58 84 85
f 59 85 86
f 59 86 60
f 60 86 87
f 63 66 71
f 66 88 75
f 66 75 71
f 67 72 89
f 67 89 68
f 68 89 90
f 68 90 69
f 69 90 70
f 70 90 74
f 71 75 90
f 71 90 89
f 71 89 72
f 73 91 79
f 73 78 92
f 73 92 93
f 73 93 94
f 73 94 95
f 73 95 91
f 74 90 75
f 75 88 94
f 75 94 96
f 75 96 97
f 75 97 76
f 76 97 77
f 77 97 78
f 78 97 96
f 78 96 98
f 78 98 92
f 79 91 99
f 79 99 100
f 79 100 101
f 79 101 80
f 80 102 81
f 80 101 103
f 80 103 102
f 81 104 82
f 81 102 105
f 81 105 106
f 81 106 104
f 82 104 107
f 82 107 108
f 82 108 83
f 83 108 109
f 83 109 84
f 84 109 86
f 84 86 85
f 86 106 87
f 86 109 108
f 86 108 107
f 86 107 106
f 87 106 103
f 87 103 99
f 87 99 88
f 88 99 94
f 91 95 99
f 92 98 93
f 93 98 94
f 94 99 95
f 94 98 96
f 99 103 110
f 99 110 111
f 99 111 100
f 100 111 101
f 101 111 110
f 101 110 103
f 102 103 105
f 103 106 105
f 104 106 107

