# https://github.com/mikedh/trimesh
v -0.00871168 0.00295020 -0.00585809
v -0.00928604 0.00295020 -0.00585327
v -0.00871168 0.00494980 -0.00585809
v -0.00202348 0.00295020 -0.00460529
v -0.00981660 0.00295020 -0.00563348
v -0.00928604 0.00494980 -0.00585327
v -0.00202348 0.00494980 -0.00460529
v -0.00202348 0.00295020 -0.00235326
v -0.00981660 0.00494980 -0.00563348
v -0.01022568 0.00295020 -0.00523035
v -0.00202348 0.00494980 -0.00038214
v -0.00202348 0.00445000 -0.00041644
v -0.00751420 0.00295020 -0.00255268
v -0.01022568 0.00494980 -0.00523035
v -0.01045295 0.00295020 -0.00470286
v -0.00202348 0.00477557 -0.00038160
v -0.00935050 0.00494980 -0.00292847
v -0.00935050 0.00295020 -0.00292847
v -0.00809352 0.00295020 -0.00261540
v -0.00766213 0.00299875 -0.00250765
v -0.01045295 0.00494980 -0.00470286
v -0.01046617 0.00295020 -0.00412873
v -0.00987115 0.00494980 -0.00317131
v -0.00987115 0.00295020 -0.00317131
v -0.01046617 0.00494980 -0.00412873
v -0.01026204 0.00295020 -0.00359212
v -0.01026204 0.00494980 -0.00359212
f 1 2 6
f 1 6 3
f 1 3 7
f 1 7 4
f 1 4 8
f 1 8 13
f 1 13 19
f 1 19 18
f 1 18 24
f 1 24 26
f 1 26 22
f 1 22 15
f 1 15 10
f 1 10 5
f 1 5 2
f 2 5 9
f 2 9 6
f 3 6 9
f 3 9 14
f 3 14 21
f 3 21 25
f 3 25 27
f 3 27 23
f 3 23 17
f 3 17 11
f 3 11 7
f 4 7 11
f 4 11 16
f 4 16 12
f 4 12 8
f 5 10 14
f 5 14 9
f 8 12 13
f 10 15 21
f 10 21 14
f 11 17 16
f 12 16 18
f 12 18 19
f 12 19 20
f 12 20 13
f 13 20 19
f 15 22 25
f 15 25 21
f 16 17 18
f 17 23 24
f 17 24 18
f 22 26 27
f 22 27 25
f 23 27 26
f 23 26 24

