# https://github.com/mikedh/trimesh
v -0.00871168 -0.00494980 -0.00585755
v -0.00928604 -0.00494980 -0.00585327
v -0.00871168 -0.00295020 -0.00585755
v -0.00202348 -0.00494980 -0.00460530
v -0.00981660 -0.00494980 -0.00563348
v -0.00928604 -0.00295020 -0.00585327
v -0.00202348 -0.00295020 -0.00460530
v -0.00202348 -0.00494980 -0.00038214
v -0.00981660 -0.00295020 -0.00563348
v -0.01022568 -0.00494980 -0.00523035
v -0.00202348 -0.00295020 -0.00235327
v -0.00935050 -0.00494980 -0.00292847
v -0.00202348 -0.00445000 -0.00041645
v -0.00935050 -0.00295020 -0.00292847
v -0.01022568 -0.00295020 -0.00523035
v -0.01045295 -0.00494980 -0.00470286
v -0.00751420 -0.00295020 -0.00255268
v -0.00987115 -0.00494980 -0.00317131
v -0.00766213 -0.00299875 -0.00250765
v -0.00809352 -0.00295020 -0.00261540
v -0.00987115 -0.00295020 -0.00317131
v -0.01045295 -0.00295020 -0.00470286
v -0.01046617 -0.00494980 -0.00412873
v -0.01026204 -0.00494980 -0.00359212
v -0.01026204 -0.00295020 -0.00359212
v -0.01046617 -0.00295020 -0.00412873
f 1 2 6
f 1 6 3
f 1 3 7
f 1 7 4
f 1 4 8
f 1 8 12
f 1 12 18
f 1 18 24
f 1 24 23
f 1 23 16
f 1 16 10
f 1 10 5
f 1 5 2
f 2 5 9
f 2 9 6
f 3 6 9
f 3 9 15
f 3 15 22
f 3 22 26
f 3 26 25
f 3 25 21
f 3 21 14
f 3 14 20
f 3 20 17
f 3 17 11
f 3 11 7
f 4 7 11
f 4 11 13
f 4 13 8
f 5 10 15
f 5 15 9
f 8 13 14
f 8 14 12
f 10 16 22
f 10 22 15
f 11 17 13
f 12 14 21
f 12 21 18
f 13 17 19
f 13 19 20
f 13 20 14
f 16 23 26
f 16 26 22
f 17 20 19
f 18 21 25
f 18 25 24
f 23 24 25
f 23 25 26

