o convex_0
v -0.00129501 0.195226 0.0035575
v 0.00167411 0.190388 0.00330735
v 0.00210089 0.196681 0.00324075
v 0.000793894 0.203196 0.00308644
v -0.00047728 0.205562 0.0019632
v -0.00161128 0.199502 0.00216787
v -0.00292894 0.186878 0.00179345
v -0.00378934 0.106716 0.00074087
v -0.00298991 0.106716 0.00135812
v -0.00164557 0.106716 0.0022166
v -0.00161509 0.106716 0.00221741
v 0.00138604 0.106716 0.00229294
v 0.00139747 0.106716 0.00229294
v 0.00123667 0.204873 -0.0028189
v 0.00239582 0.106716 0.00187304
v 0.00240649 0.106716 0.00186574
v 0.00242097 0.106716 0.00185518
v 0.00383694 0.106716 0.000716505
v 0.00381865 0.175864 0.000730312
v 0.00320745 0.185288 0.00158716
v 0.00385828 0.179355 -0.00129038
v 0.00302226 0.187809 -0.00142602
v 0.00035569 0.205756 -0.00145363
v -0.00124318 0.202362 -0.00363676
v -0.00207234 0.195381 -0.00239657
v -0.00381678 0.179151 -0.000992315
v -0.00378629 0.179103 0.000595491
v -0.00366055 0.175157 0.000856199
v -0.00380763 0.106823 0.000608485
v -0.00379925 0.106716 -0.00101587
v 0.00198429 0.19637 -0.00411838
v -0.000484901 0.19606 -0.0047397
v 0.00393906 0.106716 -0.000532623
v 0.00378435 0.179161 -0.00142033
v 0.00355573 0.106735 -0.00165262
v -0.00182314 0.190883 -0.0037927
v -0.00327569 0.180334 -0.00185404
v -0.00377486 0.106716 -0.00129688
v -0.0038465 0.10755 -0.000489578
v -0.00382135 0.152818 0.000231635
v 0.00351457 0.106716 -0.00168267
v 0.0021207 0.106716 -0.00270763
v 0.00210851 0.106716 -0.00271657
v 0.00162305 0.106716 -0.00282865
v 0.00121228 0.107191 -0.00292448
v -0.00017168 0.106716 -0.00292448
v -0.00159375 0.106716 -0.0029253
v -0.00163262 0.106716 -0.0029253
v 0.00356792 0.106716 -0.00161607
v -0.00167377 0.106716 -0.00289768
v -0.00375048 0.106716 -0.00132043
f 1 2 3
f 1 3 4
f 1 4 5
f 1 5 6
f 1 6 7
f 1 7 8
f 1 8 9
f 1 9 10
f 1 10 11
f 1 11 12
f 1 12 13
f 1 13 2
f 2 13 3
f 3 14 4
f 3 13 15
f 3 15 16
f 3 16 17
f 3 17 18
f 3 18 19
f 3 19 20
f 3 20 21
f 3 21 22
f 3 22 14
f 4 14 23
f 4 23 5
f 5 23 24
f 5 24 6
f 6 24 25
f 6 25 26
f 6 26 27
f 6 27 7
f 7 27 28
f 7 28 8
f 8 29 30
f 8 30 38
f 8 38 51
f 8 51 50
f 8 50 48
f 8 48 47
f 8 47 46
f 8 46 44
f 8 44 43
f 8 43 42
f 8 42 41
f 8 41 49
f 8 49 33
f 8 33 18
f 8 18 17
f 8 17 16
f 8 16 15
f 8 15 13
f 8 13 12
f 8 12 11
f 8 11 10
f 8 10 9
f 8 28 27
f 8 27 29
f 14 22 31
f 14 31 32
f 14 32 24
f 14 24 23
f 18 33 19
f 19 21 20
f 19 33 21
f 21 34 31
f 21 31 22
f 21 33 35
f 21 35 34
f 24 32 36
f 24 36 26
f 24 26 25
f 26 36 37
f 26 37 38
f 26 38 39
f 26 39 40
f 26 40 27
f 27 40 29
f 29 39 30
f 29 40 39
f 30 39 38
f 31 34 35
f 31 35 41
f 31 41 42
f 31 42 43
f 31 43 32
f 32 43 44
f 32 44 45
f 32 45 46
f 32 46 47
f 32 47 48
f 32 48 36
f 33 49 35
f 35 49 41
f 36 48 50
f 36 50 51
f 36 51 38
f 36 38 37
f 44 46 45
o convex_1
v -0.0115103 0.0990268 -0.00289902
v -0.0100954 0.0986905 0.00776548
v -0.00843869 0.106213 0.00537528
v -0.00833347 0.106203 -0.0065044
v -0.0098939 0.100036 -0.00867833
v -0.00975062 0.0808844 -0.00537173
v -0.00973718 0.0808844 0.00502968
v -0.0084678 0.0808844 0.00668409
v -0.00495291 0.0808844 0.00907876
v -0.00529992 0.0989737 0.010887
v -0.00763497 0.102683 0.00872647
v -0.00378874 0.106716 0.000739796
v -0.0037977 0.106716 -0.00101495
v -0.00337233 0.106107 0.00854364
v -0.00164399 0.106716 0.00221584
v -0.00298949 0.106716 0.00135741
v -0.00377307 0.106716 -0.00129589
v -0.00375068 0.106716 -0.00132042
v -0.00167309 0.106716 -0.00289679
v -0.00163279 0.106716 -0.00292355
v 0.000556737 0.106038 -0.00917108
v -0.00600961 0.104139 -0.00942304
v -0.00563574 0.0995704 -0.0115546
v -0.00682005 0.0808844 -0.00867387
v 0.00355671 0.0808844 0.00890707
v 0.00564773 0.0994819 0.0112237
v 0.00523579 0.104246 0.00923038
v 0.00837233 0.106152 0.00665957
v 0.00139628 0.106716 0.00229165
v 0.00138509 0.106716 0.00229165
v -0.000170867 0.106716 -0.00292355
v 0.008538 0.106218 -0.000421862
v 0.00897904 0.10481 -0.00814098
v 0.00672234 0.0995198 -0.0112714
v 0.0016224 0.106716 -0.00282767
v 0.00210821 0.106716 -0.00271619
v 0.00351417 0.106716 -0.00168162
v -0.000112659 0.0808844 -0.00956351
v -0.00490365 0.0808844 -0.00938736
v 0.00600146 0.0808844 0.00816905
v 0.00913351 0.0987992 0.00887809
v 0.0104208 0.100713 0.0064968
v 0.0113611 0.0995653 -0.00235276
v 0.00383655 0.106716 0.000715269
v 0.00240597 0.106716 0.00186578
v 0.00239478 0.106716 0.00187247
v 0.0035679 0.106716 -0.00161473
v 0.0039373 0.106716 -0.000531116
v 0.0107522 0.0960835 -0.00594029
v 0.00949396 0.0808844 -0.00613204
v 0.009185 0.0808844 -0.0064665
v 0.00513729 0.0808844 -0.00932047
v 0.00601265 0.0808844 0.00816014
v 0.00943127 0.0808844 0.00532177
v 0.0109581 0.0968825 0.00550683
v 0.00968873 0.0808844 -0.005452
f 52 53 54
f 52 54 55
f 52 55 56
f 52 56 57
f 52 57 58
f 52 58 53
f 53 58 59
f 53 59 60
f 53 60 61
f 53 61 62
f 53 62 54
f 54 63 64
f 54 64 55
f 54 62 65
f 54 65 66
f 54 66 67
f 54 67 63
f 55 64 68
f 55 68 69
f 55 69 70
f 55 70 71
f 55 71 72
f 55 72 73
f 55 73 56
f 56 74 75
f 56 75 57
f 56 73 74
f 57 75 90
f 57 90 89
f 57 89 103
f 57 103 102
f 57 102 101
f 57 101 107
f 57 107 105
f 57 105 104
f 57 104 91
f 57 91 76
f 57 76 60
f 57 60 59
f 57 59 58
f 60 76 77
f 60 77 61
f 61 77 65
f 61 65 62
f 63 67 66
f 63 66 81
f 63 81 80
f 63 80 97
f 63 97 96
f 63 96 95
f 63 95 99
f 63 99 98
f 63 98 88
f 63 88 87
f 63 87 86
f 63 86 82
f 63 82 71
f 63 71 70
f 63 70 69
f 63 69 68
f 63 68 64
f 65 77 78
f 65 78 79
f 65 79 80
f 65 80 81
f 65 81 66
f 71 82 72
f 72 83 84
f 72 84 85
f 72 85 74
f 72 74 73
f 72 82 86
f 72 86 87
f 72 87 88
f 72 88 83
f 74 85 89
f 74 89 90
f 74 90 75
f 76 91 77
f 77 91 92
f 77 92 79
f 77 79 78
f 79 92 93
f 79 93 94
f 79 94 83
f 79 83 95
f 79 95 96
f 79 96 97
f 79 97 80
f 83 94 84
f 83 88 98
f 83 98 99
f 83 99 95
f 84 94 100
f 84 100 85
f 85 100 101
f 85 101 102
f 85 102 103
f 85 103 89
f 91 104 92
f 92 104 105
f 92 105 106
f 92 106 93
f 93 106 94
f 94 106 107
f 94 107 100
f 100 107 101
f 105 107 106
o convex_2
v 0.000873303 0.0391183 0.0162521
v 0.008458 0.0436728 0.0140167
v 0.00380921 0.049735 0.0144741
v -0.00221949 0.0501041 0.0145997
v -0.00825138 0.0420963 0.014313
v -0.00715002 0.0336317 0.0150571
v -0.000935626 0.0290397 0.0153663
v 0.00506105 0.0169716 0.0136012
v 0.00541644 0.0169716 0.0135626
v 0.00790091 0.0298029 0.0144612
v 0.0131356 0.0374605 0.0108956
v 0.0106895 0.0520498 0.0114947
v 0.00599914 0.0808782 0.0081674
v 0.0059319 0.0626415 0.0114593
v 0.00355628 0.0808782 0.00890501
v -0.00495369 0.0808782 0.00907894
v -0.0113474 0.0515994 0.0111822
v -0.0124263 0.0389557 0.0114013
v -0.0108991 0.0243225 0.0118522
v -0.0086676 0.0169716 0.0121453
v -0.00722686 0.0169716 0.0128604
v -0.00522903 0.0195303 0.0141327
v -0.004387 0.0169716 0.0137977
v 0.01003 0.0169716 0.0113981
v 0.0107856 0.0169716 0.0108086
v 0.0128827 0.0297967 0.010567
v 0.0151622 0.0357713 0.00798381
v 0.015761 0.0424716 0.00708193
v 0.010411 0.0668331 0.00820605
v 0.00601194 0.0808782 0.00816096
v -0.00846589 0.0808782 0.00668253
v -0.0154071 0.0448302 0.00660845
v -0.00973695 0.0808782 0.00503016
v -0.0146611 0.0361842 0.00840898
v -0.0132684 0.0237219 0.00863122
v -0.0120902 0.0169716 0.00899842
v -0.0112801 0.0169716 0.0100613
v 0.0130652 0.0169716 0.00729452
v 0.0157289 0.034495 0.0068017
v 0.0164429 0.0396313 -0.00398538
v 0.0156329 0.0493472 -0.00167915
v 0.012777 0.0664202 0.000733365
v 0.0094313 0.0808782 0.00532005
v -0.0162139 0.0430973 0.00417016
v -0.0157881 0.0343949 0.00518155
v -0.00974975 0.0808782 -0.0053704
v -0.0119493 0.0710623 -0.000419748
v -0.0161018 0.0476893 0.00106835
v -0.0148884 0.023478 0.00446649
v -0.0139919 0.0230275 0.00659556
v -0.0134284 0.0169716 0.00603833
v 0.0141985 0.0169716 0.00435375
v 0.0153351 0.0248105 0.00390282
v 0.0146532 0.0175096 -0.00336373
v 0.0148485 0.0259366 -0.00708719
v 0.0148485 0.0342573 -0.00878465
v 0.0154728 0.0408388 -0.00753491
v 0.0144611 0.0531446 -0.00635603
v 0.011237 0.0738025 -0.00262612
v 0.00968743 0.0808782 -0.00545093
v -0.0162651 0.0370913 -0.00131196
v -0.01566 0.0242662 -0.00221062
v -0.00682025 0.0808782 -0.00867192
v -0.0108703 0.0634235 -0.00887162
v -0.0146579 0.0458375 -0.00822098
v -0.0144466 0.0543458 -0.0040498
v -0.015756 0.04082 -0.00663947
v -0.0147443 0.0187983 0.000826774
v -0.0140015 0.0169716 0.00459533
v -0.013691 0.0169716 0.00538125
v 0.0144931 0.0169716 -0.00334762
v 0.0144931 0.0169716 -0.00374381
v 0.0139008 0.0169716 -0.00620142
v 0.0136959 0.0207878 -0.00805993
v 0.0144387 0.0434976 -0.00941596
v 0.0109713 0.0218451 -0.0123471
v 0.0117333 0.0329498 -0.0130943
v 0.00949213 0.0808782 -0.00613378
v -0.0148596 0.0259804 -0.00692614
v -0.0143153 0.0169716 -0.00415287
v -0.0143441 0.0169716 -0.00275818
v -0.00490246 0.0808782 -0.00938698
v -0.00603905 0.0525003 -0.0138674
v -0.009833 0.0395938 -0.0143731
v -0.0115843 0.0500979 -0.0115064
v -0.0143217 0.0388681 -0.00971874
v -0.0143281 0.0169716 0.00212161
v 0.0136287 0.0169716 -0.0068585
v 0.0126105 0.0169716 -0.00887484
v 0.0113651 0.0169716 -0.0107366
v 0.0107824 0.0454808 -0.0133391
v 0.0109681 0.0580244 -0.0102631
v 0.00567257 0.018398 -0.0143086
v 0.00551889 0.0329998 -0.015903
v 0.00958498 0.0169716 -0.0120185
v 0.0059351 0.0169716 -0.0138738
v 0.00616882 0.0412955 -0.0160351
v 0.00918477 0.0808782 -0.00646554
v -0.0130731 0.0275319 -0.0101246
v -0.0120229 0.0169716 -0.00958668
v -0.0142192 0.0169716 -0.00458448
v -0.000109602 0.0808782 -0.00956413
v -0.000753132 0.0462691 -0.0159513
v -0.00463993 0.0412267 -0.0162284
v -0.00492488 0.0355523 -0.0161478
v -0.0106942 0.0308602 -0.013468
v 0.00513789 0.0808782 -0.00931933
v 0.00211234 0.0187546 -0.0147467
v 0.00162889 0.0277884 -0.0158966
v 0.00510908 0.0169716 -0.0140864
v 0.000335427 0.0364282 -0.0166471
v 0.00466085 0.050223 -0.0147918
v -0.0114946 0.0169716 -0.0101342
v -0.00242119 0.0325306 -0.0163121
v -0.00502413 0.0244226 -0.0152492
v -0.00958327 0.0208191 -0.0127175
v 0.00210914 0.0169716 -0.0143956
v -0.00167521 0.0169716 -0.0143441
v -0.00199217 0.0176097 -0.0144633
v -0.00814253 0.0169716 -0.0128721
v -0.0026293 0.0169716 -0.0142668
v -0.00607427 0.0169716 -0.0138062
f 108 109 110
f 108 110 111
f 108 111 112
f 108 112 113
f 108 113 114
f 108 114 115
f 108 115 116
f 108 116 117
f 108 117 109
f 109 117 118
f 109 118 119
f 109 119 120
f 109 120 121
f 109 121 110
f 110 121 120
f 110 120 122
f 110 122 111
f 111 122 123
f 111 123 112
f 112 124 125
f 112 125 113
f 112 123 124
f 113 126 127
f 113 127 128
f 113 128 129
f 113 129 114
f 113 125 126
f 114 129 130
f 114 130 115
f 115 130 128
f 115 128 127
f 115 127 144
f 115 144 143
f 115 143 158
f 115 158 177
f 115 177 176
f 115 176 194
f 115 194 188
f 115 188 187
f 115 187 208
f 115 208 207
f 115 207 220
f 115 220 227
f 115 227 229
f 115 229 228
f 115 228 225
f 115 225 224
f 115 224 217
f 115 217 203
f 115 203 202
f 115 202 197
f 115 197 196
f 115 196 195
f 115 195 180
f 115 180 179
f 115 179 178
f 115 178 159
f 115 159 145
f 115 145 132
f 115 132 131
f 115 131 116
f 116 131 117
f 117 131 132
f 117 132 133
f 117 133 118
f 118 134 135
f 118 135 119
f 118 133 134
f 119 135 136
f 119 136 137
f 119 137 120
f 120 137 150
f 120 150 167
f 120 167 185
f 120 185 205
f 120 205 214
f 120 214 209
f 120 209 189
f 120 189 170
f 120 170 153
f 120 153 140
f 120 140 138
f 120 138 123
f 120 123 122
f 123 138 124
f 124 139 125
f 124 138 140
f 124 140 139
f 125 139 141
f 125 141 126
f 126 141 142
f 126 142 143
f 126 143 144
f 126 144 127
f 128 130 129
f 132 145 133
f 133 145 146
f 133 146 134
f 134 146 135
f 135 146 147
f 135 147 148
f 135 148 149
f 135 149 150
f 135 150 136
f 136 150 137
f 139 151 152
f 139 152 141
f 139 140 151
f 140 153 154
f 140 154 155
f 140 155 151
f 141 152 142
f 142 156 157
f 142 157 158
f 142 158 143
f 142 152 156
f 145 159 146
f 146 159 160
f 146 160 147
f 147 160 161
f 147 161 162
f 147 162 163
f 147 163 164
f 147 164 165
f 147 165 148
f 148 165 166
f 148 166 149
f 149 166 150
f 150 166 167
f 151 168 152
f 151 155 168
f 152 168 169
f 152 169 156
f 153 170 171
f 153 171 172
f 153 172 173
f 153 173 154
f 154 173 155
f 155 173 174
f 155 174 168
f 156 169 175
f 156 175 176
f 156 176 157
f 157 176 177
f 157 177 158
f 159 178 161
f 159 161 160
f 161 178 179
f 161 179 162
f 162 179 180
f 162 180 181
f 162 181 163
f 163 182 164
f 163 181 183
f 163 183 184
f 163 184 182
f 164 182 165
f 165 182 185
f 165 185 167
f 165 167 166
f 168 174 169
f 169 186 187
f 169 187 188
f 169 188 175
f 169 174 186
f 170 189 190
f 170 190 191
f 170 191 192
f 170 192 171
f 171 192 172
f 172 192 193
f 172 193 174
f 172 174 173
f 174 193 186
f 175 188 194
f 175 194 176
f 180 195 181
f 181 195 196
f 181 196 197
f 181 197 183
f 182 184 198
f 182 198 199
f 182 199 185
f 183 200 201
f 183 201 184
f 183 197 202
f 183 202 203
f 183 203 200
f 184 201 204
f 184 204 198
f 185 199 205
f 186 206 207
f 186 207 208
f 186 208 187
f 186 193 206
f 189 209 210
f 189 210 211
f 189 211 190
f 190 211 191
f 191 211 212
f 191 212 213
f 191 213 193
f 191 193 192
f 193 213 206
f 198 204 214
f 198 214 205
f 198 205 199
f 200 215 216
f 200 216 201
f 200 203 217
f 200 217 215
f 201 216 218
f 201 218 204
f 204 218 210
f 204 210 219
f 204 219 214
f 206 213 207
f 207 213 220
f 209 214 210
f 210 214 219
f 210 218 211
f 211 218 212
f 212 218 221
f 212 221 222
f 212 222 213
f 213 222 223
f 213 223 220
f 215 217 224
f 215 224 225
f 215 225 226
f 215 226 222
f 215 222 216
f 216 222 221
f 216 221 218
f 220 223 227
f 222 226 228
f 222 228 229
f 222 229 227
f 222 227 223
f 225 228 226
o convex_3
v 0.0141963 0.0169715 0.00435433
v 0.0136071 0.0109309 0.00377636
v 0.0138919 0.010593 -0.00039171
v 0.0138919 0.010593 -0.0003931
v 0.0137579 0.0169715 0.00311641
v 0.0130653 0.0169715 0.00729421
v 0.0123392 0.0115809 0.00734422
v 0.00955489 0.00596711 0.0080653
v 0.0113227 0.00337527 0.000386329
v 0.0137244 0.0169715 0.0030789
v 0.0115293 0.00406729 -0.00039171
v 0.0109903 0.00331221 -0.00039171
v 0.00791558 0.00207692 -0.00039171
v 0.00391924 0.00060557 -0.00039171
v 0.00236651 0.000453581 -0.00039171
v -0.00341994 0.000867504 -0.00039171
v -0.00850822 0.00206398 -0.00039171
v -0.00995484 0.00293548 -0.00039171
v -0.0131888 0.00918469 -0.00039171
v -0.01363 0.0111007 -0.00039171
v -0.00519609 0.0110926 -0.00039171
v 0.00218498 0.0110312 -0.00039171
v -0.0143282 0.0169715 0.00212302
v 0.0107837 0.0169715 0.0108093
v 0.0104095 0.0146772 0.0108523
v 0.0048911 0.00506005 0.0108635
v 0.00626231 0.0017681 0.0050754
v -0.00211297 0.000710662 0.00366521
v -0.0096253 0.00238413 0.00120327
v -0.013496 0.00983467 0.000604458
v -0.0135127 0.0133886 0.00466554
v -0.0140014 0.0169715 0.00459608
v 0.0100296 0.0169715 0.0113998
v 0.00531838 0.0164558 0.0135255
v 0.00073837 0.00266385 0.00992565
v -0.00223305 0.0104006 0.0129405
v -0.00551446 0.00321843 0.00853768
v -0.0113959 0.00617893 0.00547554
v -0.0114685 0.0134031 0.00919207
v -0.0134289 0.0169715 0.0060424
v -0.0136915 0.0169715 0.00538384
v 0.00541612 0.0169715 0.0135616
v 0.00506145 0.0169715 0.0136019
v -0.00678234 0.0067707 0.0104203
v -0.00438901 0.0169715 0.0138006
v -0.00826526 0.0156409 0.0122
v -0.0120912 0.0169715 0.00899895
v -0.0112814 0.0169715 0.0100618
v -0.00722638 0.0169715 0.0128614
v -0.00866741 0.0169715 0.0121472
f 230 231 232
f 230 232 233
f 230 233 234
f 230 234 239
f 230 239 252
f 230 252 261
f 230 261 270
f 230 270 269
f 230 269 276
f 230 276 277
f 230 277 279
f 230 279 278
f 230 278 274
f 230 274 272
f 230 272 271
f 230 271 262
f 230 262 253
f 230 253 235
f 230 235 236
f 230 236 231
f 231 236 237
f 231 237 238
f 231 238 232
f 232 238 233
f 233 239 234
f 233 238 240
f 233 240 241
f 233 241 242
f 233 242 243
f 233 243 244
f 233 244 245
f 233 245 246
f 233 246 247
f 233 247 248
f 233 248 249
f 233 249 250
f 233 250 251
f 233 251 252
f 233 252 239
f 235 253 236
f 236 253 254
f 236 254 237
f 237 255 256
f 237 256 238
f 237 254 255
f 238 241 240
f 238 256 242
f 238 242 241
f 242 256 243
f 243 256 244
f 244 256 257
f 244 257 245
f 245 257 258
f 245 258 246
f 246 258 247
f 247 258 248
f 248 258 259
f 248 259 249
f 249 259 252
f 249 252 250
f 250 252 251
f 252 259 260
f 252 260 261
f 253 262 254
f 254 262 263
f 254 263 255
f 255 264 256
f 255 263 265
f 255 265 264
f 256 264 257
f 257 264 266
f 257 266 258
f 258 266 267
f 258 267 259
f 259 267 260
f 260 267 268
f 260 268 269
f 260 269 270
f 260 270 261
f 262 271 263
f 263 271 272
f 263 272 265
f 264 265 273
f 264 273 266
f 265 274 275
f 265 275 273
f 265 272 274
f 266 273 267
f 267 273 268
f 268 276 269
f 268 273 275
f 268 275 277
f 268 277 276
f 274 278 275
f 275 278 279
f 275 279 277
o convex_4
v 0.014492 0.0169715 -0.00334879
v 0.0138907 0.0105927 -0.000393005
v 0.014492 0.0169715 -0.00374499
v -0.0143423 0.0169715 -0.00276202
v 0.0138907 0.0105927 -0.000394376
v 0.00218369 0.0110309 -0.000393005
v 0.0115279 0.0040677 -0.000393005
v 0.0138992 0.0169715 -0.00620174
v 0.0135774 0.0139298 -0.00590013
v -0.014314 0.0169715 -0.00415628
v -0.0136309 0.0111007 -0.000393005
v -0.00519568 0.0110926 -0.000393005
v 0.012451 0.00716462 -0.00388483
v 0.0109887 0.00331132 -0.000393005
v 0.0136282 0.0169715 -0.0068598
v 0.0116408 0.0135614 -0.0096072
v 0.0126119 0.0169715 -0.00887648
v -0.0142209 0.0169715 -0.00458813
v -0.0141616 0.0161502 -0.00437563
v -0.011251 0.00509676 -0.00665964
v -0.0131876 0.00918379 -0.000393005
v 0.00785795 0.00271077 -0.00771117
v 0.00953482 0.00646506 -0.00909172
v 0.00791441 0.00207775 -0.000393005
v 0.00737239 0.00919515 -0.0114964
v 0.011367 0.0169715 -0.0107369
v -0.0120217 0.0169715 -0.00958663
v -0.0119342 0.0160886 -0.00954139
v -0.00995528 0.00293476 -0.000393005
v -0.00664106 0.0129673 -0.0130318
v -0.00390838 0.00500911 -0.0111605
v -0.0050263 0.00106167 -0.0053682
v 0.0034851 0.000391322 -0.00140614
v -0.000416311 0.00138305 -0.0072327
v 0.0038041 0.00382098 -0.0104819
v 0.00391984 0.00060557 -0.000393005
v 0.00593548 0.0169715 -0.0138736
v 0.00958564 0.0169715 -0.0120201
v 0.00210182 0.00939642 -0.0129139
v -0.0114967 0.0169715 -0.010135
v -0.00850708 0.00206314 -0.000393005
v -0.00814291 0.0169715 -0.0128728
v -0.00607646 0.0169715 -0.0138078
v -0.00262956 0.0169715 -0.0142671
v -0.00167255 0.0169715 -0.0143438
v -0.00342 0.00086852 -0.000393005
v 0.00236718 0.000454622 -0.000393005
v 0.00510833 0.0169715 -0.0140875
v 0.00211029 0.0169715 -0.0143987
f 280 281 284
f 280 284 282
f 280 282 287
f 280 287 294
f 280 294 296
f 280 296 305
f 280 305 317
f 280 317 316
f 280 316 327
f 280 327 328
f 280 328 324
f 280 324 323
f 280 323 322
f 280 322 321
f 280 321 319
f 280 319 306
f 280 306 297
f 280 297 289
f 280 289 283
f 280 283 281
f 281 283 285
f 281 285 291
f 281 291 290
f 281 290 300
f 281 300 308
f 281 308 320
f 281 320 325
f 281 325 326
f 281 326 315
f 281 315 303
f 281 303 293
f 281 293 286
f 281 286 284
f 282 284 288
f 282 288 287
f 283 289 290
f 283 290 291
f 283 291 285
f 284 286 292
f 284 292 288
f 286 293 292
f 287 288 294
f 288 292 295
f 288 295 296
f 288 296 294
f 289 297 298
f 289 298 290
f 290 298 299
f 290 299 300
f 292 293 301
f 292 301 302
f 292 302 295
f 293 303 301
f 295 302 304
f 295 304 305
f 295 305 296
f 297 306 307
f 297 307 299
f 297 299 298
f 299 308 300
f 299 307 309
f 299 309 310
f 299 310 311
f 299 311 308
f 301 303 312
f 301 312 313
f 301 313 314
f 301 314 302
f 302 314 304
f 303 315 312
f 304 316 317
f 304 317 305
f 304 314 318
f 304 318 316
f 306 319 307
f 307 319 309
f 308 311 320
f 309 321 322
f 309 322 323
f 309 323 324
f 309 324 318
f 309 318 310
f 309 319 321
f 310 318 314
f 310 314 313
f 310 313 311
f 311 325 320
f 311 313 312
f 311 312 326
f 311 326 325
f 312 315 326
f 316 318 327
f 318 324 328
f 318 328 327
