# https://github.com/mikedh/trimesh
v 0.01150349 0.00052758 0.01625822
v 0.01150349 -0.00052708 0.01625822
v 0.01150349 0.00052758 0.01520431
v 0.01143667 0.00127593 0.01625822
v 0.01149931 0.00052758 0.01731213
v 0.01143667 -0.00127348 0.01625822
v 0.01150140 -0.00052708 0.01520431
v 0.01149931 -0.00052708 0.01731213
v 0.01149931 0.00052758 0.01414618
v 0.01143040 0.00124491 0.01414618
v 0.01133435 0.00178775 0.01520431
v 0.01133644 0.00180326 0.01625822
v 0.01143249 0.00124878 0.01731213
v 0.01141788 0.00117705 0.01837026
v 0.01140326 0.00109756 0.01942417
v 0.01147634 0.00052758 0.01837026
v 0.01133644 -0.00180081 0.01625822
v 0.01133435 -0.00178530 0.01520431
v 0.01143040 -0.00124246 0.01414618
v 0.01149722 -0.00052708 0.01414618
v 0.01143249 -0.00124828 0.01731213
v 0.01147634 -0.00052708 0.01837026
v 0.01140326 -0.00109900 0.01942417
v 0.01141788 -0.00117655 0.01837026
v 0.01146173 -0.00052708 0.01309649
v 0.01145964 0.00052758 0.01309649
v 0.01141161 0.00114603 0.01309649
v 0.01131347 0.00167336 0.01309649
v 0.01133018 0.00177224 0.01414618
v 0.01110466 0.00263884 0.01414618
v 0.01111302 0.00263884 0.01625822
v 0.01110257 0.00263884 0.01731213
v 0.01133018 0.00177805 0.01731213
v 0.01131765 0.00170438 0.01837026
v 0.01139491 0.00105685 0.01996799
v 0.01144084 0.00052758 0.01942417
v 0.01139699 0.00004097 0.02105141
v 0.01111302 -0.00263834 0.01625822
v 0.01110466 -0.00263834 0.01414618
v 0.01133018 -0.00177561 0.01731213
v 0.01110049 -0.00263834 0.01731213
v 0.01133018 -0.00176979 0.01414618
v 0.01131347 -0.00167480 0.01309649
v 0.01141161 -0.00114747 0.01309649
v 0.01139699 -0.00004046 0.02105141
v 0.01144293 -0.00052708 0.01942417
v 0.01139491 -0.00105829 0.01996799
v 0.01130094 -0.00162633 0.01942417
v 0.01131556 -0.00170388 0.01837026
v 0.01139491 -0.00105829 0.01255689
v 0.01141161 -0.00052708 0.01234189
v 0.01137611 0.00052758 0.01182336
v 0.01139491 0.00105491 0.01256953
v 0.01129259 0.00147755 0.01214375
v 0.01119863 0.00158224 0.01098445
v 0.01095014 0.00263884 0.01098445
v 0.01101279 0.00263884 0.01203836
v 0.01107125 0.00263884 0.01309649
v 0.01068287 0.00369350 0.01309649
v 0.01071002 0.00369350 0.01414618
v 0.01071419 0.00369350 0.01625822
v 0.01070166 0.00369350 0.01731213
v 0.01107334 0.00263884 0.01837026
v 0.01104202 0.00263884 0.01942417
v 0.01130094 0.00162683 0.01942417
v 0.01138029 0.00074472 0.02066778
v 0.01140744 0.00044616 0.02038112
v 0.01129677 0.00147949 0.02038112
v 0.01122368 0.00158224 0.02153621
v 0.01111928 0.00158224 0.02364825
v 0.01106708 0.00158224 0.02470216
v 0.01120280 0.00052758 0.02470216
v 0.01135941 0.00044616 0.02145611
v 0.01071419 -0.00369300 0.01625822
v 0.01071002 -0.00369300 0.01414618
v 0.01068287 -0.00369300 0.01309649
v 0.01107334 -0.00263834 0.01309649
v 0.01104202 -0.00263834 0.01942417
v 0.01107334 -0.00263834 0.01837026
v 0.01069957 -0.00369300 0.01731213
v 0.01101488 -0.00263834 0.01203836
v 0.01095014 -0.00263834 0.01098445
v 0.01120072 -0.00158174 0.01098445
v 0.01129259 -0.00147899 0.01213954
v 0.01135941 -0.00044565 0.02145611
v 0.01138029 -0.00074421 0.02067200
v 0.01140744 -0.00044565 0.02038112
v 0.01120072 -0.00052708 0.02470216
v 0.01122368 -0.00158174 0.02153621
v 0.01129677 -0.00147899 0.02038112
v 0.01106708 -0.00158174 0.02470216
v 0.01111928 -0.00158174 0.02364825
v 0.01100444 -0.00263834 0.02047808
v 0.01049912 -0.00158174 0.00254051
v 0.01061396 -0.00052708 0.00254051
v 0.01131974 -0.00052708 0.01098445
v 0.01137611 -0.00052708 0.01181493
v 0.01131974 0.00052758 0.01098445
v 0.01062232 0.00052758 0.00254051
v 0.01050747 0.00158224 0.00254051
v 0.01038219 0.00228600 0.00254051
v 0.01025273 0.00281333 0.00254051
v 0.00996039 0.00369350 0.00254051
v 0.01052209 0.00361402 0.00993054
v 0.01052835 0.00379238 0.01093808
v 0.01062858 0.00369350 0.01203836
v 0.01033416 0.00420920 0.01055867
v 0.01035295 0.00424604 0.01125847
v 0.01037175 0.00427899 0.01203836
v 0.01039680 0.00432358 0.01309649
v 0.01040933 0.00434491 0.01414618
v 0.01040933 0.00434491 0.01625822
v 0.01040307 0.00433134 0.01731213
v 0.01037175 0.00427706 0.01942417
v 0.01067034 0.00369350 0.01837026
v 0.01063902 0.00369350 0.01942417
v 0.01100444 0.00263884 0.02047808
v 0.01095641 0.00263884 0.02153621
v 0.01084992 0.00263884 0.02364825
v 0.01079563 0.00263884 0.02470216
v 0.01068078 0.00263884 0.02575607
v 0.01094388 0.00158224 0.02575607
v 0.01107125 0.00052758 0.02575607
v 0.01107125 -0.00052708 0.02575607
v 0.01040933 -0.00434441 0.01625822
v 0.01040933 -0.00434634 0.01414618
v 0.01040307 -0.00433083 0.01731213
v 0.01039680 -0.00432502 0.01309649
v 0.01037383 -0.00428237 0.01203836
v 0.01035295 -0.00424747 0.01125425
v 0.01063067 -0.00369300 0.01203836
v 0.01063902 -0.00369300 0.01942417
v 0.01067034 -0.00369300 0.01837026
v 0.01037175 -0.00427461 0.01942417
v 0.01053044 -0.00379187 0.01093386
v 0.01052418 -0.00361739 0.00993054
v 0.00996248 -0.00369300 0.00254051
v 0.01025273 -0.00280894 0.00254051
v 0.01038010 -0.00228161 0.00254051
v 0.01125083 -0.00052708 0.02364825
v 0.01094179 -0.00158174 0.02575607
v 0.01095432 -0.00263834 0.02153621
v 0.01079563 -0.00263834 0.02470216
v 0.01090212 -0.00263834 0.02259012
v 0.01067661 -0.00263834 0.02575607
v 0.01048241 -0.00347586 0.02470216
v 0.01056385 -0.00364841 0.02153621
v 0.01035086 -0.00216141 0.00198405
v 0.01039471 -0.00158174 0.00188709
v 0.01045109 -0.00052708 0.00176905
v 0.01045109 0.00052758 0.00176905
v 0.01039471 0.00158224 0.00189131
v 0.01035086 0.00215998 0.00198405
v 0.00942793 0.00450776 0.00169739
v 0.00951981 0.00468612 0.00254051
v 0.01010238 0.00465704 0.01093808
v 0.00925044 0.00521345 0.00254051
v 0.01006689 0.00480826 0.01203836
v 0.01008568 0.00485091 0.01309649
v 0.01009403 0.00487418 0.01414618
v 0.01009194 0.00487224 0.01520431
v 0.01008777 0.00487224 0.01625822
v 0.01007941 0.00485867 0.01731213
v 0.01006271 0.00483153 0.01837026
v 0.01004392 0.00480439 0.01942417
v 0.01035504 0.00424797 0.02028838
v 0.01054923 0.00379819 0.02057504
v 0.01056385 0.00366442 0.02153621
v 0.01053670 0.00360820 0.02259012
v 0.01050956 0.00355004 0.02364825
v 0.01048241 0.00348800 0.02470216
v 0.01042604 0.00336198 0.02575607
v 0.01036757 0.00323403 0.02634204
v 0.01046571 0.00263884 0.02650224
v 0.01059308 0.00158224 0.02669616
v 0.01065364 0.00052758 0.02676782
v 0.01065364 -0.00052708 0.02676782
v 0.01059099 -0.00158174 0.02669616
v 0.01008777 -0.00487174 0.01625822
v 0.01009194 -0.00487368 0.01520431
v 0.01009403 -0.00487368 0.01414618
v 0.01008568 -0.00485235 0.01309649
v 0.01007941 -0.00485817 0.01731213
v 0.01006897 -0.00480970 0.01203836
v 0.01010238 -0.00465848 0.01093386
v 0.01033416 -0.00420870 0.01055024
v 0.01054923 -0.00379575 0.02054975
v 0.01035504 -0.00424747 0.02024622
v 0.01004392 -0.00480388 0.01942417
v 0.00952190 -0.00469337 0.00254051
v 0.00942793 -0.00450920 0.00169739
v 0.01046362 -0.00263834 0.02650224
v 0.01036757 -0.00322965 0.02633783
v 0.01042395 -0.00335760 0.02575607
v 0.01018591 -0.00388493 0.02575607
v 0.01023184 -0.00400319 0.02470216
v 0.01033625 -0.00421451 0.02095023
v 0.00960333 -0.00376667 0.00140229
v 0.01005853 -0.00256273 0.00157513
v 0.01014623 -0.00158174 0.00136013
v 0.01019843 -0.00052708 0.00124210
v 0.01019843 0.00052758 0.00124210
v 0.01014414 0.00158224 0.00136013
v 0.01005853 0.00256323 0.00157513
v 0.00960333 0.00376911 0.00140229
v 0.00926506 0.00417043 0.00099337
v 0.00913351 0.00481602 0.00140229
v 0.00856346 0.00585517 0.00146131
v 0.00948849 0.00556824 0.00993054
v 0.00831289 0.00643484 0.00179856
v 0.00887041 0.00580476 0.00254051
v 0.00951981 0.00560507 0.01098445
v 0.00953860 0.00562640 0.01203836
v 0.00955739 0.00564579 0.01309649
v 0.00956575 0.00565160 0.01414618
v 0.00956366 0.00564579 0.01520431
v 0.00956157 0.00563997 0.01625822
v 0.00955113 0.00562640 0.01731213
v 0.00953442 0.00560314 0.01837026
v 0.00951772 0.00557987 0.01942417
v 0.00949475 0.00555079 0.02047808
v 0.01008568 0.00465898 0.02057504
v 0.01033834 0.00421889 0.02099239
v 0.01032581 0.00419175 0.02153621
v 0.01029866 0.00413747 0.02259012
v 0.01026943 0.00407737 0.02364825
v 0.01024020 0.00401533 0.02470216
v 0.01018799 0.00388931 0.02575607
v 0.00929638 0.00529294 0.02631253
v 0.00944672 0.00468225 0.02672567
v 0.00931726 0.00428481 0.02737909
v 0.01013162 0.00263884 0.02703341
v 0.01024646 0.00158224 0.02722311
v 0.01030075 0.00052758 0.02729478
v 0.01030075 -0.00052708 0.02729478
v 0.01024646 -0.00158174 0.02722311
v 0.01012953 -0.00263834 0.02702919
v 0.00956157 -0.00563947 0.01625822
v 0.00956366 -0.00564528 0.01520431
v 0.00956575 -0.00565110 0.01414618
v 0.00955948 -0.00564528 0.01309649
v 0.00954069 -0.00562783 0.01203836
v 0.00951981 -0.00560457 0.01098445
v 0.00955113 -0.00562396 0.01731213
v 0.00951563 -0.00557937 0.01942417
v 0.00953442 -0.00560263 0.01837026
v 0.00949057 -0.00556967 0.00993054
v 0.00927759 -0.00526530 0.00324453
v 0.00925462 -0.00522070 0.00254051
v 0.01008359 -0.00465848 0.02054975
v 0.00946552 -0.00551151 0.02153621
v 0.00949266 -0.00554835 0.02047808
v 0.00856555 -0.00585466 0.00146131
v 0.00913560 -0.00481551 0.00140229
v 0.00926506 -0.00416798 0.00099337
v 0.00944464 -0.00467980 0.02672145
v 0.00929429 -0.00529050 0.02630832
v 0.00931726 -0.00428431 0.02737909
v 0.00970356 -0.00474766 0.02575607
v 0.00979335 -0.00474766 0.02470216
v 0.00939243 -0.00346423 0.00077837
v 0.00951354 -0.00263834 0.00056759
v 0.00927759 -0.00206448 -0.00008583
v 0.00958036 -0.00165929 0.00033152
v 0.00975576 -0.00052708 0.00042848
v 0.00975576 0.00052758 0.00042848
v 0.00957827 0.00165979 0.00033152
v 0.00927759 0.00206498 -0.00008583
v 0.00951354 0.00263884 0.00056759
v 0.00939243 0.00346667 0.00077416
v 0.00906669 0.00376911 0.00042426
v 0.00833795 0.00443797 -0.00024181
v 0.00858643 0.00477337 0.00039054
v 0.00838389 0.00553722 0.00071514
v 0.00816673 0.00624097 0.00109455
v 0.00837554 0.00650658 0.00254051
v 0.00730017 0.00750501 0.00168895
v 0.00790154 0.00703585 0.00254051
v 0.00716236 0.00737512 0.00098494
v 0.00911890 0.00613241 0.01098445
v 0.00909384 0.00609557 0.00993054
v 0.00913351 0.00615373 0.01203836
v 0.00914604 0.00617312 0.01309649
v 0.00915022 0.00617893 0.01414618
v 0.00914395 0.00617312 0.01520431
v 0.00913769 0.00616730 0.01625822
v 0.00912307 0.00615373 0.01731213
v 0.00910219 0.00613047 0.01837026
v 0.00908131 0.00610720 0.01942417
v 0.00997710 0.00474816 0.02153621
v 0.00905625 0.00607812 0.02047808
v 0.00902493 0.00604129 0.02153621
v 0.00937364 0.00539182 0.02470216
v 0.00980170 0.00474816 0.02470216
v 0.00970774 0.00474816 0.02575607
v 0.00830872 0.00640964 0.02648537
v 0.00816046 0.00624485 0.02718939
v 0.00912098 0.00498856 0.02701655
v 0.00933188 0.00533753 0.02575607
v 0.00889547 0.00586680 0.02575607
v 0.00841730 0.00554110 0.02753507
v 0.00876392 0.00468225 0.02768262
v 0.00418684 0.00245273 0.03278776
v 0.00943211 0.00369350 0.02749713
v 0.00960333 0.00263884 0.02765732
v 0.00971818 0.00158224 0.02775428
v 0.00498031 0.00052758 0.03252218
v 0.00971818 -0.00158174 0.02775428
v 0.00498031 -0.00052708 0.03252218
v 0.00960333 -0.00263834 0.02765732
v 0.00943002 -0.00369300 0.02749713
v 0.00913142 -0.00616680 0.01625822
v 0.00913978 -0.00617261 0.01520431
v 0.00914813 -0.00617843 0.01414618
v 0.00914604 -0.00617261 0.01309649
v 0.00913560 -0.00615517 0.01203836
v 0.00911890 -0.00613384 0.01098445
v 0.00909593 -0.00609700 0.00993054
v 0.00911681 -0.00615323 0.01731213
v 0.00908131 -0.00610670 0.01942417
v 0.00910010 -0.00612996 0.01837026
v 0.00837554 -0.00650801 0.00254051
v 0.00887459 -0.00580426 0.00254051
v 0.00831498 -0.00643628 0.00179434
v 0.00997083 -0.00474766 0.02153621
v 0.00905208 -0.00607568 0.02047808
v 0.00943420 -0.00547080 0.02259012
v 0.00816673 -0.00624047 0.00109455
v 0.00838598 -0.00553672 0.00071514
v 0.00858852 -0.00477286 0.00039054
v 0.00833795 -0.00443746 -0.00024181
v 0.00906669 -0.00376667 0.00042848
v 0.00911890 -0.00498806 0.02701233
v 0.00815838 -0.00624241 0.02718939
v 0.00830663 -0.00640720 0.02648537
v 0.00889129 -0.00586242 0.02575607
v 0.00932979 -0.00533509 0.02575607
v 0.00418684 -0.00245222 0.03278776
v 0.00876392 -0.00467980 0.02767840
v 0.00841521 -0.00553865 0.02753507
v 0.00937155 -0.00538743 0.02470216
v 0.00920242 -0.00263834 0.00004064
v 0.00933188 -0.00136073 -0.00017014
v 0.00849873 -0.00369300 -0.00040622
v 0.00867413 -0.00263834 -0.00053691
v 0.00936947 -0.00052708 -0.00022495
v 0.00936947 0.00052758 -0.00022495
v 0.00933188 0.00136123 -0.00017014
v 0.00920242 0.00263884 0.00004064
v 0.00867413 0.00263884 -0.00053691
v 0.00849873 0.00369350 -0.00040622
v 0.00776164 0.00477337 -0.00054112
v 0.00740667 0.00580476 -0.00033456
v 0.00815629 0.00514172 0.00001113
v 0.00795583 0.00585517 0.00039054
v 0.00720621 0.00637281 -0.00013642
v 0.00741502 0.00661708 0.00042848
v 0.00840059 0.00653760 0.00359443
v 0.00614546 0.00846080 0.00192081
v 0.00737326 0.00756899 0.00254051
v 0.00603479 0.00838519 0.00121680
v 0.00856555 0.00668882 0.00993054
v 0.00695146 0.00714441 0.00042848
v 0.00618514 0.00744879 -0.00017014
v 0.00642318 0.00765430 0.00042848
v 0.00564641 0.00822816 0.00033573
v 0.00859061 0.00670239 0.01098445
v 0.00860523 0.00670820 0.01203836
v 0.00861984 0.00671208 0.01309649
v 0.00862193 0.00670820 0.01414618
v 0.00861567 0.00670045 0.01520431
v 0.00860940 0.00668882 0.01625822
v 0.00859479 0.00667331 0.01731213
v 0.00857391 0.00665392 0.01837026
v 0.00855302 0.00663453 0.01942417
v 0.00852797 0.00661127 0.02047808
v 0.00849873 0.00658413 0.02153621
v 0.00843400 0.00652596 0.02364825
v 0.00840059 0.00649688 0.02470216
v 0.00836718 0.00646586 0.02575607
v 0.00892888 0.00592108 0.02470216
v 0.00716236 0.00738288 0.02619449
v 0.00704125 0.00731502 0.02681419
v 0.00776582 0.00674310 0.02682684
v 0.00745678 0.00659188 0.02761938
v 0.00771779 0.00584354 0.02792713
v 0.00398847 0.00315648 0.03259806
v 0.00305719 0.00227243 0.03374050
v 0.00373373 0.00158224 0.03347070
v 0.00435180 0.00158224 0.03294374
v 0.00445203 0.00052758 0.03303649
v 0.00445203 -0.00052708 0.03303649
v 0.00435180 -0.00158174 0.03294374
v 0.00860314 -0.00667474 0.01625822
v 0.00861149 -0.00669025 0.01520431
v 0.00861984 -0.00670382 0.01414618
v 0.00859061 -0.00666117 0.01731213
v 0.00861984 -0.00671158 0.01309649
v 0.00860731 -0.00670964 0.01203836
v 0.00859270 -0.00670188 0.01098445
v 0.00856973 -0.00669025 0.00993054
v 0.00853841 -0.00666892 0.00887241
v 0.00840059 -0.00653709 0.00359443
v 0.00855302 -0.00663209 0.01942417
v 0.00857182 -0.00664760 0.01837026
v 0.00852379 -0.00660882 0.02047808
v 0.00790154 -0.00703534 0.00254051
v 0.00729809 -0.00750257 0.00168474
v 0.00716236 -0.00737656 0.00098073
v 0.00892053 -0.00591670 0.02470216
v 0.00836301 -0.00645954 0.02575607
v 0.00741711 -0.00661852 0.00042848
v 0.00720621 -0.00637230 -0.00013642
v 0.00795792 -0.00585466 0.00039054
v 0.00815629 -0.00514122 0.00001113
v 0.00740667 -0.00580426 -0.00033456
v 0.00776164 -0.00477286 -0.00054112
v 0.00776373 -0.00674453 0.02682684
v 0.00745469 -0.00659525 0.02761517
v 0.00716862 -0.00738625 0.02624930
v 0.00373581 -0.00158174 0.03347070
v 0.00305719 -0.00227192 0.03374050
v 0.00398847 -0.00315597 0.03259806
v 0.00771779 -0.00584303 0.02792713
v 0.00885788 -0.00165929 -0.00052426
v 0.00218646 -0.00685892 -0.00347099
v 0.00770109 -0.00369300 -0.00089102
v 0.00875557 -0.00052708 -0.00070975
v 0.00235977 -0.00580426 -0.00356795
v 0.00875557 0.00052758 -0.00070975
v 0.00885788 0.00165979 -0.00052426
v 0.00770109 0.00369350 -0.00089102
v 0.00235977 0.00580476 -0.00356795
v 0.00218646 0.00685942 -0.00347099
v 0.00197347 0.00743134 -0.00334031
v 0.00657978 0.00677800 -0.00034720
v 0.00564641 0.00866243 0.00153297
v 0.00559003 0.00874967 0.00254051
v 0.00616008 0.00846856 0.00254051
v 0.00668837 0.00809826 0.00254051
v 0.00748810 0.00762521 0.00887241
v 0.00803309 0.00721808 0.00993054
v 0.00801430 0.00719482 0.00887241
v 0.00533111 0.00860427 0.00062240
v 0.00504713 0.00843366 -0.00008162
v 0.00804353 0.00722972 0.01098445
v 0.00804771 0.00723747 0.01203836
v 0.00804771 0.00724135 0.01309649
v 0.00803936 0.00723747 0.01414618
v 0.00802683 0.00722778 0.01520431
v 0.00801221 0.00721808 0.01625822
v 0.00799133 0.00720258 0.01731213
v 0.00793913 0.00716380 0.01942417
v 0.00790572 0.00713860 0.02047808
v 0.00786813 0.00711146 0.02153621
v 0.00779087 0.00705329 0.02364825
v 0.00775120 0.00702421 0.02470216
v 0.00760712 0.00706880 0.02580666
v 0.00651297 0.00753991 0.02681419
v 0.00719368 0.00740032 0.02549048
v 0.00664452 0.00789857 0.02153621
v 0.00583434 0.00833091 0.02047808
v 0.00530605 0.00853447 0.02047808
v 0.00521209 0.00849957 0.02118631
v 0.00630416 0.00746818 0.02747184
v 0.00663407 0.00684973 0.02789762
v 0.00696399 0.00614791 0.02832340
v 0.00204655 0.00321658 0.03374471
v 0.00275024 0.00297618 0.03347913
v 0.00240779 0.00262915 0.03390491
v 0.00242241 0.00158224 0.03427167
v 0.00320753 0.00158224 0.03384167
v 0.00386319 0.00052758 0.03356344
v 0.00386319 -0.00052708 0.03356344
v 0.00803518 -0.00723115 0.01414618
v 0.00804771 -0.00724084 0.01309649
v 0.00804771 -0.00723697 0.01203836
v 0.00804353 -0.00723115 0.01098445
v 0.00803309 -0.00721758 0.00993054
v 0.00801639 -0.00719625 0.00887241
v 0.00737326 -0.00756849 0.00254051
v 0.00793495 -0.00716136 0.01942417
v 0.00795583 -0.00717687 0.01837026
v 0.00790572 -0.00713615 0.02047808
v 0.00614546 -0.00846030 0.00191660
v 0.00603688 -0.00838662 0.00121259
v 0.00564641 -0.00822959 0.00033573
v 0.00642527 -0.00765573 0.00042848
v 0.00618514 -0.00745023 -0.00017014
v 0.00695146 -0.00714585 0.00042848
v 0.00760712 -0.00706636 0.02584038
v 0.00775120 -0.00701595 0.02470216
v 0.00657978 -0.00677749 -0.00034720
v 0.00197347 -0.00743084 -0.00334031
v 0.00704960 -0.00731839 0.02681419
v 0.00631042 -0.00746574 0.02747184
v 0.00696190 -0.00614741 0.02831918
v 0.00663616 -0.00685116 0.02789340
v 0.00652132 -0.00753747 0.02681419
v 0.00521209 -0.00849907 0.02118209
v 0.00530605 -0.00853397 0.02047808
v 0.00583434 -0.00833040 0.02047808
v 0.00664452 -0.00789613 0.02153621
v 0.00733985 -0.00750063 0.02153621
v 0.00320753 -0.00158174 0.03384167
v 0.00275024 -0.00297567 0.03348334
v 0.00242241 -0.00158174 0.03427167
v 0.00240779 -0.00262864 0.03390491
v 0.00204655 -0.00321607 0.03374471
v 0.00136793 -0.00685892 -0.00393050
v 0.00136793 -0.00580426 -0.00404432
v 0.00136793 0.00580476 -0.00404432
v 0.00136793 0.00685942 -0.00393050
v -0.00429078 0.00854998 -0.00547764
v -0.00225072 0.00954066 -0.00333609
v 0.00434345 0.00863335 -0.00032612
v 0.00453346 0.00915874 0.00148660
v 0.00453346 0.00917812 0.00254051
v 0.00559003 0.00874773 0.00465255
v 0.00616634 0.00847243 0.00570646
v 0.00616426 0.00847243 0.00465255
v 0.00616217 0.00847049 0.00359443
v 0.00751525 0.00763297 0.01098445
v 0.00750481 0.00763103 0.00993054
v 0.00462951 0.00883497 0.00033573
v 0.00348524 0.00936424 0.00035259
v 0.00292146 0.00948832 -0.00005211
v 0.00751942 0.00763297 0.01203836
v 0.00752151 0.00763103 0.01309649
v 0.00751316 0.00762134 0.01414618
v 0.00749854 0.00760970 0.01520431
v 0.00748393 0.00759807 0.01625822
v 0.00746304 0.00758256 0.01731213
v 0.00743799 0.00756511 0.01837026
v 0.00741084 0.00754573 0.01942417
v 0.00737952 0.00752440 0.02047808
v 0.00733985 0.00750114 0.02153621
v 0.00726259 0.00744879 0.02364825
v 0.00722291 0.00742165 0.02470216
v -0.00074104 0.00905405 0.02470216
v 0.00453346 0.00876712 0.02047808
v 0.00347898 0.00901527 0.02047808
v 0.00242241 0.00919170 0.02047808
v 0.00664452 0.00793929 0.02047808
v 0.00664452 0.00797806 0.01942417
v 0.00595336 0.00837937 0.01731213
v 0.00568608 0.00860814 0.01306276
v 0.00559003 0.00867018 0.01203836
v 0.00453346 0.00903660 0.01203836
v 0.00453346 0.00900364 0.01309649
v -0.00179552 0.00911996 0.02470216
v -0.00179552 0.00876712 0.02552842
v -0.00074104 0.00299750 0.03451618
v 0.00031344 0.00284435 0.03444451
v 0.00031344 0.00231508 0.03479863
v 0.00089602 0.00216386 0.03474804
v 0.00161432 0.00158224 0.03463000
v 0.00181686 0.00074472 0.03470167
v 0.00232218 0.00044616 0.03449510
v 0.00333490 0.00052758 0.03392599
v 0.00333490 -0.00052708 0.03392599
v 0.00748810 -0.00760338 0.01520431
v 0.00750689 -0.00761696 0.01414618
v 0.00751942 -0.00762859 0.01309649
v 0.00751942 -0.00763247 0.01203836
v 0.00751525 -0.00763247 0.01098445
v 0.00750689 -0.00762859 0.00993054
v 0.00748810 -0.00762083 0.00887241
v 0.00668837 -0.00809582 0.00254051
v 0.00740667 -0.00754522 0.01942417
v 0.00737743 -0.00752390 0.02047808
v 0.00742755 -0.00756073 0.01837026
v 0.00746722 -0.00758981 0.01625822
v 0.00564641 -0.00866386 0.00153297
v 0.00616008 -0.00846999 0.00254051
v 0.00559003 -0.00875110 0.00254051
v 0.00533320 -0.00860376 0.00062240
v 0.00504713 -0.00843315 -0.00008162
v -0.00225072 -0.00954016 -0.00333609
v -0.00429078 -0.00855142 -0.00547764
v 0.00434345 -0.00863866 -0.00032612
v -0.00179552 -0.00876661 0.02552842
v -0.00179552 -0.00911946 0.02470216
v -0.00074104 -0.00905742 0.02470216
v -0.00074104 -0.00299700 0.03451618
v 0.00347898 -0.00899538 0.02047808
v 0.00453346 -0.00877049 0.02047808
v 0.00591369 -0.00836336 0.01837026
v 0.00587192 -0.00834785 0.01942417
v 0.00453346 -0.00898763 0.01309649
v 0.00453346 -0.00901671 0.01203836
v 0.00554827 -0.00862509 0.01414618
v 0.00550860 -0.00860958 0.01520431
v 0.00603688 -0.00840989 0.01520431
v 0.00599721 -0.00839438 0.01625822
v 0.00664452 -0.00797562 0.01942417
v 0.00664452 -0.00793878 0.02047808
v 0.00232218 -0.00044565 0.03449510
v 0.00181686 -0.00074421 0.03470167
v 0.00161432 -0.00158174 0.03463000
v 0.00089602 -0.00216529 0.03474804
v 0.00031344 -0.00231651 0.03479863
v 0.00031344 -0.00284384 0.03444451
v -0.00547055 -0.00741727 -0.00644302
v -0.00752731 -0.00538937 -0.00751801
v -0.00749390 -0.00474766 -0.00753488
v -0.00812868 -0.00263834 -0.00778782
v -0.00750017 0.00474816 -0.00753488
v -0.00752940 0.00539182 -0.00751801
v -0.00547264 0.00741389 -0.00644302
v -0.00601763 0.00747012 -0.00650626
v -0.00664614 0.00747206 -0.00651891
v -0.00496314 0.00852866 -0.00546500
v -0.00253261 0.00954066 -0.00333609
v -0.00179552 0.00971709 -0.00167935
v 0.00031344 0.00990320 0.00042848
v 0.00136793 0.00983923 0.00042848
v 0.00221778 0.00958719 -0.00024603
v 0.00375461 0.00942434 0.00148660
v 0.00313653 0.00955424 0.00065191
v 0.00453346 0.00917231 0.00465255
v 0.00559003 0.00874579 0.00570646
v 0.00616634 0.00847049 0.00676459
v 0.00667584 0.00816030 0.00993054
v 0.00251011 0.00964535 0.00035259
v 0.00666748 0.00816224 0.01098445
v 0.00665913 0.00816030 0.01203836
v 0.00654429 0.00821071 0.01306276
v 0.00664452 0.00813122 0.01414618
v 0.00664452 0.00810408 0.01520431
v 0.00664452 0.00807694 0.01625822
v 0.00664452 0.00804592 0.01731213
v 0.00664452 0.00801296 0.01837026
v -0.00074104 0.00920914 0.02364825
v 0.00347898 0.00925567 0.01309649
v 0.00287761 0.00949026 0.00887241
v 0.00275859 0.00947475 0.00993054
v 0.00263748 0.00945924 0.01098445
v 0.00210920 0.00952516 0.01098445
v 0.00197347 0.00950771 0.01203836
v 0.00189621 0.00949801 0.01257375
v 0.00136793 0.00929445 0.02047808
v 0.00610161 0.00843754 0.01339158
v 0.00612458 0.00844723 0.01268757
v 0.00453346 0.00905986 0.01098445
v 0.00559003 0.00869732 0.00993054
v 0.00453346 0.00916455 0.00570646
v 0.00453346 0.00914711 0.00676459
v 0.00364185 0.00941853 0.00570646
v 0.00357712 0.00940883 0.00676459
v 0.00347898 0.00931965 0.01098445
v 0.00347898 0.00928863 0.01203836
v -0.00285209 0.00887569 0.02470216
v -0.00285209 0.00860039 0.02538509
v -0.00074104 0.00925567 0.02259012
v -0.00179552 0.00916068 0.02364825
v -0.00285209 0.00900558 0.02364825
v -0.00565639 0.00644454 0.02850467
v -0.00361842 0.00743716 0.02739595
v -0.00179552 0.00296067 0.03449931
v -0.00179552 0.00243334 0.03484078
v -0.00074104 0.00247017 0.03485343
v -0.00074104 0.00158224 0.03508950
v 0.00031344 0.00158224 0.03497990
v 0.00108604 0.00158224 0.03480706
v 0.00190248 0.00004097 0.03473117
v 0.00142639 0.00044616 0.03484921
v 0.00190248 -0.00004046 0.03473117
v 0.00664452 -0.00812878 0.01414618
v 0.00654429 -0.00821020 0.01306276
v 0.00666122 -0.00815980 0.01203836
v 0.00667166 -0.00815980 0.01098445
v 0.00668001 -0.00815592 0.00993054
v 0.00616634 -0.00847193 0.00570646
v 0.00664452 -0.00800858 0.01837026
v 0.00664452 -0.00803959 0.01731213
v 0.00453346 -0.00916405 0.00148660
v 0.00559003 -0.00874335 0.00465255
v 0.00453346 -0.00918344 0.00254051
v 0.00616634 -0.00847193 0.00676459
v 0.00348316 -0.00936761 0.00035681
v 0.00463160 -0.00883835 0.00033573
v 0.00291729 -0.00948781 -0.00003946
v -0.00253053 -0.00954016 -0.00333609
v 0.00221360 -0.00958863 -0.00024603
v 0.00136793 -0.00984260 0.00042848
v 0.00031344 -0.00990270 0.00042848
v -0.00179552 -0.00971658 -0.00167935
v -0.00496314 -0.00852815 -0.00546500
v -0.00665032 -0.00747543 -0.00652734
v -0.00601763 -0.00747543 -0.00651047
v -0.00362051 -0.00743666 0.02739595
v -0.00565639 -0.00644403 0.02850467
v -0.00285209 -0.00859794 0.02538509
v -0.00179552 -0.00296016 0.03449931
v -0.00285209 -0.00887518 0.02470216
v -0.00285209 -0.00900701 0.02364825
v -0.00179552 -0.00916017 0.02364825
v -0.00074104 -0.00925517 0.02259012
v -0.00074104 -0.00921058 0.02364825
v 0.00242241 -0.00916793 0.02047808
v -0.00074104 -0.00246967 0.03485343
v -0.00179552 -0.00243283 0.03484078
v 0.00347898 -0.00903609 0.01942417
v 0.00347898 -0.00924354 0.01309649
v 0.00347898 -0.00927649 0.01203836
v 0.00347898 -0.00930751 0.01098445
v 0.00347898 -0.00933659 0.00993054
v 0.00453346 -0.00904191 0.01098445
v 0.00559003 -0.00866386 0.01203836
v 0.00347898 -0.00936374 0.00887241
v 0.00356877 -0.00939476 0.00676459
v 0.00568608 -0.00860376 0.01306276
v 0.00610161 -0.00843703 0.01339158
v 0.00142639 -0.00044565 0.03484921
v 0.00108812 -0.00158174 0.03480706
v 0.00031344 -0.00158174 0.03497990
v -0.00074104 -0.00158174 0.03508950
v -0.00770480 -0.00538937 -0.00751801
v -0.00812868 -0.00369300 -0.00773301
v -0.00904535 -0.00263834 -0.00774144
v -0.00918525 -0.00052708 -0.00782576
v -0.00918525 0.00052758 -0.00782997
v -0.00812868 0.00263884 -0.00778360
v -0.00812868 0.00369350 -0.00773301
v -0.00770480 0.00539182 -0.00751801
v -0.00875719 0.00440889 -0.00758546
v -0.00766930 0.00641740 -0.00659479
v -0.00670252 0.00752440 -0.00590342
v -0.00549978 0.00844917 -0.00538911
v -0.00390657 0.00916262 -0.00379138
v -0.00318619 0.00945342 -0.00273747
v -0.00265790 0.00957362 -0.00273747
v -0.00179552 0.00975005 -0.00062543
v -0.00074104 0.00986637 0.00042848
v 0.00031344 0.00983729 0.00359443
v 0.00136793 0.00977913 0.00465255
v 0.00136793 0.00980045 0.00359443
v 0.00136793 0.00981984 0.00254051
v 0.00136793 0.00983729 0.00148660
v 0.00242241 0.00972097 0.00148660
v 0.00322632 0.00957556 0.00148660
v 0.00373373 0.00942628 0.00254051
v 0.00559003 0.00873804 0.00676459
v 0.00613920 0.00845499 0.01098445
v 0.00614755 0.00845886 0.00993054
v 0.00615590 0.00846274 0.00887241
v 0.00616217 0.00846662 0.00781850
v 0.00031344 0.00927894 0.02153621
v 0.00031344 0.00932935 0.02047808
v 0.00294025 0.00949801 0.00829908
v 0.00242241 0.00960852 0.00676459
v 0.00223031 0.00954066 0.00993054
v 0.00136793 0.00972290 0.00676459
v 0.00136793 0.00969188 0.00781850
v 0.00136793 0.00959495 0.01098445
v 0.00088558 0.00950189 0.01478275
v 0.00368361 0.00942434 0.00465255
v 0.00315533 0.00954454 0.00465255
v 0.00311357 0.00953291 0.00570646
v 0.00305092 0.00951934 0.00676459
v 0.00299246 0.00950771 0.00759507
v -0.00390657 0.00871865 0.02364825
v -0.00446827 0.00846468 0.02420471
v 0.00031344 0.00966280 0.00993054
v 0.00031344 0.00969576 0.00887241
v 0.00031344 0.00972678 0.00781850
v -0.00074104 0.00962791 0.00993054
v -0.00131735 0.00950383 0.01275924
v -0.00154495 0.00953291 0.01098445
v -0.00167859 0.00954842 0.00993054
v -0.00188322 0.00955617 0.00888506
v -0.00229040 0.00949414 0.00924339
v -0.00074104 0.00965893 0.00887241
v -0.00390657 0.00875355 0.02259012
v -0.00234678 0.00950383 0.00853938
v -0.00276022 0.00940108 0.00888506
v -0.00285209 0.00935261 0.00993054
v -0.00291265 0.00939138 0.00781850
v -0.00673175 0.00547518 0.02854261
v -0.00664405 0.00322046 0.03170013
v -0.00562924 0.00322046 0.03272031
v -0.00446618 0.00317974 0.03368991
v -0.00390657 0.00321852 0.03376579
v -0.00649997 0.00728788 0.02277982
v -0.00627864 0.00610914 0.02786811
v -0.00256811 0.00228212 0.03478598
v -0.00179552 0.00158224 0.03506000
v -0.00179552 0.00052758 0.03520754
v -0.00074104 0.00052758 0.03523284
v 0.00031344 0.00052758 0.03511901
v 0.00612458 -0.00844673 0.01268757
v 0.00613294 -0.00845060 0.01203836
v 0.00614546 -0.00845642 0.01098445
v 0.00615173 -0.00846030 0.00993054
v 0.00616217 -0.00846805 0.00781850
v 0.00374625 -0.00942965 0.00148660
v 0.00313236 -0.00954791 0.00066455
v 0.00559003 -0.00873947 0.00570646
v 0.00372537 -0.00942965 0.00254051
v 0.00559003 -0.00873366 0.00676459
v 0.00559003 -0.00872202 0.00781850
v 0.00453346 -0.00912915 0.00676459
v 0.00250802 -0.00964485 0.00035681
v -0.00265581 -0.00957312 -0.00273747
v -0.00318410 -0.00945292 -0.00273747
v -0.00390657 -0.00916405 -0.00379138
v -0.00550187 -0.00844866 -0.00539333
v 0.00242241 -0.00971852 0.00148660
v 0.00136793 -0.00984066 0.00148660
v -0.00074104 -0.00986586 0.00042848
v 0.00136793 -0.00977668 0.00465255
v 0.00031344 -0.00985617 0.00254051
v -0.00179552 -0.00974954 -0.00062543
v -0.00766930 -0.00641883 -0.00659057
v -0.00875511 -0.00440644 -0.00758125
v -0.00670461 -0.00752777 -0.00590342
v -0.00723289 -0.00698687 -0.00590342
v -0.00390657 -0.00322383 0.03377422
v -0.00448497 -0.00318893 0.03370256
v -0.00562716 -0.00321801 0.03272031
v -0.00663988 -0.00321801 0.03169591
v -0.00673175 -0.00547468 0.02854261
v -0.00627655 -0.00610864 0.02786811
v -0.00597587 -0.00773522 0.02259012
v -0.00446827 -0.00846417 0.02420471
v -0.00256811 -0.00228161 0.03478598
v -0.00390657 -0.00872008 0.02364825
v -0.00390657 -0.00875692 0.02259012
v -0.00285209 -0.00935210 0.00993054
v -0.00275813 -0.00940057 0.00887663
v -0.00234469 -0.00950332 0.00853094
v -0.00229040 -0.00949363 0.00923496
v -0.00132361 -0.00950526 0.01278875
v -0.00074104 -0.00962740 0.00993054
v -0.00188322 -0.00955373 0.00887663
v -0.00168068 -0.00954985 0.00993054
v 0.00031344 -0.00932884 0.02047808
v 0.00031344 -0.00966230 0.00993054
v 0.00031344 -0.00928037 0.02153621
v 0.00136793 -0.00929588 0.02047808
v 0.00242241 -0.00920670 0.01942417
v -0.00179552 -0.00158174 0.03506000
v 0.00263957 -0.00946067 0.01098445
v 0.00276485 -0.00947618 0.00993054
v 0.00294443 -0.00949751 0.00832016
v 0.00299246 -0.00950720 0.00761615
v 0.00304257 -0.00951883 0.00676459
v 0.00453346 -0.00906517 0.00993054
v 0.00453346 -0.00908844 0.00887241
v 0.00453346 -0.00910976 0.00781850
v 0.00559003 -0.00868131 0.01098445
v 0.00309268 -0.00953240 0.00570646
v 0.00362097 -0.00940251 0.00570646
v 0.00031344 -0.00052708 0.03511901
v -0.00074104 -0.00052708 0.03523705
v -0.00889083 -0.00369300 -0.00768243
v -0.00973651 -0.00122308 -0.00752644
v -0.00976574 -0.00052708 -0.00756860
v -0.00976783 0.00052758 -0.00756860
v -0.00974068 0.00124878 -0.00753066
v -0.00904744 0.00263884 -0.00774144
v -0.00889083 0.00369350 -0.00768664
v -0.00915393 0.00369350 -0.00695733
v -0.00881775 0.00454072 -0.00695733
v -0.00813912 0.00580476 -0.00590342
v -0.00770062 0.00645811 -0.00590342
v -0.00722872 0.00698738 -0.00590342
v -0.00670669 0.00753410 -0.00484951
v -0.00603016 0.00806143 -0.00484951
v -0.00550187 0.00845111 -0.00484951
v -0.00496314 0.00873416 -0.00379138
v -0.00390657 0.00920914 -0.00273747
v -0.00319871 0.00945148 -0.00167935
v -0.00267252 0.00958719 -0.00167935
v -0.00264537 0.00957750 0.00042848
v -0.00262658 0.00957362 0.00148660
v -0.00179552 0.00974035 0.00042848
v -0.00179552 0.00972678 0.00148660
v -0.00179552 0.00968413 0.00359443
v -0.00179552 0.00963954 0.00570646
v -0.00179552 0.00961627 0.00676459
v -0.00179552 0.00959301 0.00781850
v -0.00074104 0.00984117 0.00148660
v 0.00031344 0.00981208 0.00465255
v 0.00136793 0.00975198 0.00570646
v 0.00242241 0.00963760 0.00570646
v 0.00242241 0.00966280 0.00465255
v 0.00031344 0.00975586 0.00676459
v -0.00453300 0.00849182 0.02364825
v -0.00459564 0.00851315 0.02259012
v -0.00512393 0.00826693 0.02259012
v -0.00609489 0.00766980 0.02249316
v -0.00074104 0.00968801 0.00781850
v -0.00390657 0.00877875 0.02153621
v -0.00238436 0.00951158 0.00781850
v -0.00243447 0.00952322 0.00676459
v -0.00247832 0.00953485 0.00570646
v -0.00296276 0.00940108 0.00676459
v -0.00390657 0.00907731 0.00887241
v -0.00390657 0.00900364 0.01203836
v -0.00390657 0.00882916 0.01942417
v -0.00683824 0.00558181 0.02786811
v -0.00740411 0.00473847 0.02796085
v -0.00760457 0.00316811 0.03051132
v -0.00633293 0.00289475 0.03240414
v -0.00599466 0.00258068 0.03289737
v -0.00522207 0.00263884 0.03346648
v -0.00545176 0.00200876 0.03364775
v -0.00469378 0.00263884 0.03382481
v -0.00327180 0.00198937 0.03470167
v -0.00654800 0.00738869 0.02207581
v -0.00289177 0.00161520 0.03487029
v -0.00285209 0.00052758 0.03503470
v -0.00179552 -0.00052708 0.03520754
v 0.00559003 -0.00869488 0.00993054
v 0.00321797 -0.00956730 0.00148660
v 0.00369405 -0.00941996 0.00359443
v 0.00313236 -0.00954210 0.00465255
v 0.00319918 -0.00955761 0.00254051
v -0.00267043 -0.00958475 -0.00167935
v -0.00390657 -0.00920864 -0.00273747
v -0.00319871 -0.00945098 -0.00167935
v -0.00496314 -0.00873559 -0.00379138
v -0.00550605 -0.00845254 -0.00484951
v -0.00603433 -0.00806286 -0.00484951
v 0.00242241 -0.00963903 0.00570646
v -0.00179552 -0.00973985 0.00042848
v 0.00031344 -0.00983291 0.00359443
v -0.00074104 -0.00984066 0.00148660
v -0.00179552 -0.00958863 0.00781850
v -0.00179552 -0.00972628 0.00148660
v 0.00136793 -0.00975148 0.00570646
v -0.00264746 -0.00957893 0.00042848
v -0.00265999 -0.00958281 -0.00062543
v -0.00770271 -0.00645954 -0.00590342
v -0.00813912 -0.00580426 -0.00590342
v -0.00881566 -0.00453634 -0.00695733
v -0.00915602 -0.00369300 -0.00695733
v -0.00670669 -0.00753553 -0.00484951
v -0.00723498 -0.00698493 -0.00484951
v -0.00327180 -0.00198887 0.03470167
v -0.00470631 -0.00263834 0.03383324
v -0.00545384 -0.00201019 0.03364775
v -0.00523460 -0.00263834 0.03346648
v -0.00599466 -0.00258211 0.03289737
v -0.00633084 -0.00289619 0.03239992
v -0.00761292 -0.00317536 0.03052818
v -0.00740411 -0.00473990 0.02796085
v -0.00683824 -0.00558131 0.02786811
v -0.00650415 -0.00730482 0.02259012
v -0.00654174 -0.00738237 0.02187768
v -0.00612203 -0.00767899 0.02153199
v -0.00512810 -0.00826255 0.02259012
v -0.00453718 -0.00849325 0.02364825
v -0.00289177 -0.00161470 0.03487029
v -0.00459982 -0.00851652 0.02259012
v -0.00390657 -0.00878212 0.02153621
v -0.00290429 -0.00938894 0.00781850
v -0.00237601 -0.00951108 0.00781850
v -0.00074104 -0.00965648 0.00887241
v 0.00031344 -0.00972240 0.00781850
v 0.00031344 -0.00969332 0.00887241
v 0.00087931 -0.00950139 0.01476167
v 0.00136793 -0.00972240 0.00676459
v 0.00136793 -0.00966036 0.00887241
v 0.00136793 -0.00959444 0.01098445
v 0.00190039 -0.00949945 0.01258639
v 0.00250176 -0.00944322 0.01203836
v -0.00285209 -0.00052708 0.03503470
v 0.00211128 -0.00952465 0.01098445
v 0.00223866 -0.00954210 0.00993054
v 0.00235768 -0.00955761 0.00887241
v 0.00242241 -0.00960995 0.00676459
v -0.00946923 -0.00263834 -0.00695733
v -0.00965507 -0.00183571 -0.00695733
v -0.00974903 -0.00130838 -0.00695733
v -0.00981794 -0.00052708 -0.00695733
v -0.00982212 0.00052758 -0.00695733
v -0.00975321 0.00134378 -0.00695733
v -0.00966342 0.00187111 -0.00695733
v -0.00947341 0.00263884 -0.00695733
v -0.00918734 0.00369350 -0.00590342
v -0.00882819 0.00457756 -0.00590342
v -0.00856927 0.00510489 -0.00590342
v -0.00769436 0.00645035 -0.00167935
v -0.00769854 0.00645423 -0.00379138
v -0.00808483 0.00580476 0.00887241
v -0.00723289 0.00698350 -0.00484951
v -0.00722872 0.00698156 -0.00273747
v -0.00669834 0.00753022 -0.00167935
v -0.00670043 0.00753216 -0.00273747
v -0.00603224 0.00805561 -0.00062543
v -0.00603224 0.00805755 -0.00167935
v -0.00603224 0.00805949 -0.00273747
v -0.00550605 0.00845305 -0.00167935
v -0.00550396 0.00845305 -0.00273747
v -0.00496314 0.00873610 -0.00273747
v -0.00496314 0.00873610 -0.00167935
v -0.00390657 0.00920721 -0.00167935
v -0.00390657 0.00919751 0.00042848
v -0.00318619 0.00944954 -0.00062543
v -0.00317366 0.00944567 0.00042848
v -0.00315486 0.00944179 0.00148660
v -0.00259526 0.00956587 0.00254051
v -0.00074104 0.00974035 0.00570646
v -0.00074104 0.00976555 0.00465255
v -0.00462279 0.00852672 0.02153621
v -0.00467708 0.00855192 0.01942417
v -0.00470213 0.00856355 0.01837026
v -0.00522833 0.00831152 0.01837026
v -0.00517822 0.00828825 0.02047808
v -0.00601763 0.00775511 0.02153621
v -0.00300661 0.00940883 0.00570646
v -0.00308387 0.00942628 0.00359443
v -0.00312354 0.00943404 0.00254051
v -0.00390657 0.00909670 0.00781850
v -0.00487127 0.00865661 0.00993054
v -0.00481071 0.00862171 0.01309649
v -0.00474598 0.00858682 0.01625822
v -0.00771106 0.00437981 0.02766997
v -0.00797834 0.00379238 0.02796085
v -0.00839387 0.00257099 0.02887143
v -0.00800131 0.00263884 0.02998014
v -0.00771942 0.00263884 0.03072631
v -0.00756281 0.00195835 0.03149778
v -0.00738115 0.00263884 0.03125327
v -0.00681319 0.00258068 0.03206689
v -0.00658141 0.00219294 0.03265286
v -0.00557495 0.00130501 0.03373207
v -0.00504667 0.00162683 0.03397658
v -0.00596334 0.00162683 0.03334001
v -0.00387943 0.00161520 0.03455833
v -0.00350775 0.00128562 0.03477755
v -0.00655426 0.00739451 0.02153621
v -0.00766721 0.00641352 0.00993054
v -0.00691342 0.00685942 0.02153621
v -0.00776118 0.00445736 0.02681419
v -0.00541835 0.00840264 0.00887241
v -0.00361842 0.00052758 0.03481971
v -0.00390657 -0.00920670 -0.00167935
v -0.00496314 -0.00873172 -0.00062543
v -0.00318827 -0.00944904 -0.00062543
v -0.00390657 -0.00920282 -0.00062543
v -0.00550396 -0.00845254 -0.00273747
v -0.00550187 -0.00845060 -0.00062543
v -0.00603224 -0.00806092 -0.00379138
v -0.00262449 -0.00957312 0.00148660
v 0.00031344 -0.00980576 0.00465255
v -0.00258690 -0.00956342 0.00254051
v 0.00031344 -0.00977862 0.00570646
v -0.00317574 -0.00944710 0.00042848
v -0.00770271 -0.00645760 -0.00484951
v -0.00856509 -0.00509663 -0.00590342
v -0.00808483 -0.00580426 0.00887241
v -0.00854212 -0.00505785 0.00887241
v -0.00882610 -0.00456930 -0.00590342
v -0.00918734 -0.00369300 -0.00590342
v -0.00950473 -0.00263834 -0.00590342
v -0.00670461 -0.00753359 -0.00379138
v -0.00721410 -0.00696555 0.00254051
v -0.00767974 -0.00642852 0.00570646
v -0.00350775 -0.00128512 0.03477755
v -0.00387943 -0.00161470 0.03455833
v -0.00504667 -0.00162827 0.03397658
v -0.00557495 -0.00130644 0.03373207
v -0.00596334 -0.00162827 0.03333580
v -0.00658141 -0.00219243 0.03265286
v -0.00681110 -0.00258211 0.03206689
v -0.00772568 -0.00263834 0.03073896
v -0.00801175 -0.00263834 0.02998014
v -0.00839178 -0.00256854 0.02887143
v -0.00797416 -0.00379187 0.02796085
v -0.00771106 -0.00438124 0.02766997
v -0.00737906 -0.00263834 0.03126591
v -0.00756281 -0.00195785 0.03149778
v -0.00776744 -0.00446267 0.02681419
v -0.00683407 -0.00696167 0.02153199
v -0.00766721 -0.00641301 0.00993054
v -0.00655009 -0.00739013 0.02117366
v -0.00515525 -0.00827612 0.02153621
v -0.00601763 -0.00783215 0.01731213
v -0.00601763 -0.00779144 0.01942417
v -0.00601763 -0.00777011 0.02047808
v -0.00520536 -0.00829938 0.01942417
v -0.00390657 -0.00880733 0.02047808
v -0.00465202 -0.00854172 0.02047808
v -0.00390657 -0.00907487 0.00887241
v -0.00298991 -0.00940639 0.00570646
v 0.00136793 -0.00962740 0.00993054
v -0.00361842 -0.00052708 0.03481971
v -0.00967177 -0.00183765 -0.00590342
v -0.00982003 -0.00052708 -0.00590342
v -0.00975112 -0.00131226 -0.00484951
v -0.00982421 0.00052758 -0.00379138
v -0.00967804 0.00187111 -0.00590342
v -0.00975530 0.00133990 -0.00167935
v -0.00950682 0.00263884 -0.00590342
v -0.00950682 0.00263884 -0.00273747
v -0.00950473 0.00263884 0.00042848
v -0.00950055 0.00263884 0.00465255
v -0.00918316 0.00369350 -0.00273747
v -0.00882819 0.00457174 -0.00484951
v -0.00918107 0.00369350 -0.00167935
v -0.00917481 0.00369350 0.00148660
v -0.00882401 0.00455235 -0.00062543
v -0.00880522 0.00452715 0.00887241
v -0.00854421 0.00505448 0.00887241
v -0.00767348 0.00642127 0.00781850
v -0.00805142 0.00580476 0.00993054
v -0.00767139 0.00641740 0.00887241
v -0.00719948 0.00695248 0.00676459
v -0.00667955 0.00751277 0.00465255
v -0.00669417 0.00752828 -0.00062543
v -0.00668790 0.00752246 0.00148660
v -0.00550396 0.00845111 -0.00062543
v -0.00602807 0.00805367 0.00042848
v -0.00496314 0.00872834 0.00042848
v -0.00390657 0.00918976 0.00148660
v -0.00390657 0.00916068 0.00359443
v -0.00390657 0.00914517 0.00465255
v -0.00390657 0.00911415 0.00676459
v -0.00529515 0.00834254 0.01520431
v -0.00535779 0.00837356 0.01203836
v -0.00539955 0.00839295 0.00993054
v -0.00489006 0.00866824 0.00887241
v -0.00851915 0.00281527 0.02786811
v -0.00818923 0.00369350 0.02681419
v -0.00867785 0.00217355 0.02848359
v -0.00859223 0.00181683 0.02918339
v -0.00843145 0.00151245 0.02989583
v -0.00786558 0.00159581 0.03110151
v -0.00765051 0.00125460 0.03163268
v -0.00725586 0.00159581 0.03202473
v -0.00666911 0.00158224 0.03274561
v -0.00617841 0.00052758 0.03336952
v -0.00565012 0.00052758 0.03378687
v -0.00496314 0.00052758 0.03419579
v -0.00414462 0.00052758 0.03461314
v -0.00660020 0.00743522 0.01625822
v -0.00717651 0.00694085 0.00993054
v -0.00543296 0.00841039 0.00781850
v -0.00544549 0.00841815 0.00676459
v -0.00601763 0.00797612 0.00887241
v -0.00601763 0.00799163 0.00781850
v -0.00490468 0.00867794 0.00781850
v -0.00496314 -0.00872784 0.00042848
v -0.00549978 -0.00844866 0.00042848
v -0.00390657 -0.00919701 0.00042848
v -0.00603016 -0.00805511 -0.00167935
v -0.00315278 -0.00944129 0.00148660
v -0.00390657 -0.00918731 0.00148660
v -0.00881148 -0.00453052 0.00887241
v -0.00767139 -0.00641689 0.00887241
v -0.00804933 -0.00580426 0.00993054
v -0.00918525 -0.00369300 -0.00379138
v -0.00916228 -0.00369300 0.00887241
v -0.00950473 -0.00263834 -0.00273747
v -0.00949846 -0.00263834 0.00781850
v -0.00950264 -0.00263834 0.00148660
v -0.00967386 -0.00186091 0.00570646
v -0.00967386 -0.00185704 0.00359443
v -0.00967386 -0.00185122 0.00042848
v -0.00967386 -0.00184734 -0.00167935
v -0.00967386 -0.00184346 -0.00273747
v -0.00602807 -0.00804929 0.00042848
v -0.00667955 -0.00750839 0.00465255
v -0.00720783 -0.00695973 0.00465255
v -0.00414462 -0.00052708 0.03461314
v -0.00496314 -0.00052708 0.03419579
v -0.00617841 -0.00052708 0.03336952
v -0.00666911 -0.00158174 0.03274561
v -0.00565012 -0.00052708 0.03378687
v -0.00725586 -0.00159531 0.03202473
v -0.00843145 -0.00151194 0.02989583
v -0.00786558 -0.00159531 0.03110151
v -0.00859223 -0.00181632 0.02918339
v -0.00867785 -0.00216917 0.02848359
v -0.00851289 -0.00281088 0.02786811
v -0.00819341 -0.00369300 0.02681419
v -0.00765051 -0.00125410 0.03163268
v -0.00720366 -0.00695585 0.00570646
v -0.00719739 -0.00695198 0.00676459
v -0.00718904 -0.00695004 0.00781850
v -0.00718069 -0.00694616 0.00887241
v -0.00717234 -0.00694034 0.00993054
v -0.00658141 -0.00741727 0.01837026
v -0.00543296 -0.00840989 0.00781850
v -0.00467708 -0.00855335 0.01942417
v -0.00541626 -0.00840213 0.00887241
v -0.00527218 -0.00833234 0.01625822
v -0.00522833 -0.00831102 0.01837026
v -0.00488797 -0.00866580 0.00887241
v -0.00390657 -0.00909426 0.00781850
v -0.00470005 -0.00856499 0.01837026
v -0.00476478 -0.00859794 0.01520431
v -0.00975530 -0.00132971 0.00359443
v -0.00982421 -0.00052708 0.00254051
v -0.00982421 0.00052758 0.00676459
v -0.00967804 0.00186917 -0.00379138
v -0.00975530 0.00133990 -0.00062543
v -0.00975530 0.00133603 0.00570646
v -0.00967595 0.00186530 0.00359443
v -0.00967386 0.00186336 0.00570646
v -0.00949846 0.00263884 0.00570646
v -0.00915393 0.00369350 0.00887241
v -0.00855674 0.00290445 0.02681419
v -0.00667120 0.00750308 0.00676459
v -0.00602389 0.00804979 0.00148660
v -0.00549978 0.00844917 0.00042848
v -0.00549561 0.00844529 0.00148660
v -0.00496314 0.00872059 0.00148660
v -0.00493809 0.00869926 0.00465255
v -0.00491721 0.00868569 0.00676459
v -0.00871752 0.00228793 0.02786811
v -0.00873214 0.00151245 0.02887143
v -0.00887830 0.00158224 0.02786811
v -0.00866949 0.00111307 0.02948691
v -0.00850662 0.00052758 0.03010240
v -0.00807439 0.00052758 0.03103405
v -0.00769854 0.00052758 0.03170013
v -0.00729345 0.00052758 0.03223130
v -0.00676725 0.00052758 0.03284257
v -0.00662526 0.00745849 0.01309649
v -0.00666493 0.00749726 0.00781850
v -0.00601763 0.00800520 0.00676459
v -0.00506546 0.00865855 0.00244777
v -0.00546637 0.00842978 0.00465255
v -0.00496314 -0.00872008 0.00148660
v -0.00549143 -0.00844285 0.00202199
v -0.00591322 -0.00812102 0.00243934
v -0.00390657 -0.00910976 0.00676459
v -0.00490468 -0.00867549 0.00781850
v -0.00491721 -0.00868325 0.00676459
v -0.00855674 -0.00290394 0.02681419
v -0.00949638 -0.00263834 0.00887241
v -0.00874884 -0.00237661 0.02681419
v -0.00967386 -0.00186091 0.00676459
v -0.00967386 -0.00185510 0.00887241
v -0.00975530 -0.00133358 0.00570646
v -0.00601763 -0.00803184 0.00359443
v -0.00667537 -0.00750451 0.00570646
v -0.00676725 -0.00052708 0.03284257
v -0.00729345 -0.00052708 0.03223130
v -0.00866949 -0.00111257 0.02948691
v -0.00850662 -0.00052708 0.03010240
v -0.00807439 -0.00052708 0.03103405
v -0.00873214 -0.00151194 0.02887143
v -0.00887830 -0.00158174 0.02786811
v -0.00871752 -0.00228355 0.02786811
v -0.00769854 -0.00052708 0.03170013
v -0.00666911 -0.00749869 0.00676459
v -0.00661691 -0.00745023 0.01414618
v -0.00660856 -0.00744247 0.01520431
v -0.00660020 -0.00743472 0.01625822
v -0.00659185 -0.00742502 0.01731213
v -0.00601763 -0.00798725 0.00781850
v -0.00544340 -0.00841764 0.00676459
v -0.00484830 -0.00864254 0.01098445
v -0.00982421 -0.00052708 0.00676459
v -0.00982212 0.00052758 0.00781850
v -0.00975530 0.00132439 0.00676459
v -0.00967177 0.00185172 0.00676459
v -0.00949429 0.00263884 0.00676459
v -0.00948385 0.00263884 0.00887241
v -0.00874884 0.00237712 0.02681419
v -0.00601763 0.00802653 0.00465255
v -0.00549143 0.00844335 0.00203042
v -0.00893468 0.00158224 0.02681419
v -0.00902864 0.00052758 0.02786811
v -0.00886160 0.00052758 0.02892202
v -0.00869873 0.00052758 0.02957123
v -0.00547681 0.00843560 0.00359443
v -0.00493809 -0.00869682 0.00465255
v -0.00548517 -0.00843897 0.00272600
v -0.00601763 -0.00800082 0.00676459
v -0.00601763 -0.00801245 0.00570646
v -0.00601763 -0.00802215 0.00465255
v -0.00893468 -0.00158174 0.02681419
v -0.00975530 -0.00133358 0.00676459
v -0.00975321 -0.00132777 0.00887241
v -0.00975530 -0.00132971 0.00781850
v -0.00869873 -0.00052708 0.02957123
v -0.00886160 -0.00052708 0.02892202
v -0.00902864 -0.00052708 0.02786811
v -0.00982003 -0.00052708 0.00887241
v -0.00981794 0.00052758 0.00887241
v -0.00975112 0.00128950 0.00887241
v -0.00966342 0.00181683 0.00887241
v -0.00907876 0.00052758 0.02681419
v -0.00973859 0.00121195 0.00951319
v -0.00907876 -0.00052708 0.02681419
v -0.00973859 -0.00123471 0.00951741
f 1 2 3
f 1 3 4
f 1 4 5
f 1 5 8
f 1 8 2
f 2 6 7
f 2 7 3
f 2 8 6
f 3 7 20
f 3 20 9
f 3 9 4
f 4 9 10
f 4 10 11
f 4 11 12
f 4 12 13
f 4 13 5
f 5 13 14
f 5 14 15
f 5 15 16
f 5 16 22
f 5 22 8
f 6 17 18
f 6 18 19
f 6 19 20
f 6 20 7
f 6 8 21
f 6 21 17
f 8 22 23
f 8 23 24
f 8 24 21
f 9 20 25
f 9 25 26
f 9 26 27
f 9 27 10
f 10 27 28
f 10 28 29
f 10 29 11
f 11 29 30
f 11 30 12
f 12 30 31
f 12 31 32
f 12 32 33
f 12 33 13
f 13 33 34
f 13 34 14
f 14 34 15
f 15 35 16
f 15 34 35
f 16 35 36
f 16 36 37
f 16 37 45
f 16 45 22
f 17 38 39
f 17 39 18
f 17 21 40
f 17 40 41
f 17 41 38
f 18 39 42
f 18 42 19
f 19 42 43
f 19 43 44
f 19 44 20
f 20 44 25
f 21 24 49
f 21 49 40
f 22 45 46
f 22 46 47
f 22 47 23
f 23 47 48
f 23 48 49
f 23 49 24
f 25 44 50
f 25 50 51
f 25 51 52
f 25 52 26
f 26 52 53
f 26 53 27
f 27 53 54
f 27 54 28
f 28 54 55
f 28 55 56
f 28 56 57
f 28 57 58
f 28 58 29
f 29 58 30
f 30 58 59
f 30 59 60
f 30 60 31
f 31 60 61
f 31 61 32
f 32 61 62
f 32 62 63
f 32 63 33
f 33 63 64
f 33 64 34
f 34 64 65
f 34 65 35
f 35 66 67
f 35 67 36
f 35 65 68
f 35 68 69
f 35 69 70
f 35 70 71
f 35 71 72
f 35 72 66
f 36 67 37
f 37 67 66
f 37 66 73
f 37 73 72
f 37 72 45
f 38 74 75
f 38 75 39
f 38 41 74
f 39 75 76
f 39 76 77
f 39 77 42
f 40 49 78
f 40 78 79
f 40 79 41
f 41 80 74
f 41 79 80
f 42 77 43
f 43 77 81
f 43 81 82
f 43 82 83
f 43 83 84
f 43 84 44
f 44 84 50
f 45 85 86
f 45 86 87
f 45 87 46
f 45 72 88
f 45 88 85
f 46 87 47
f 47 89 90
f 47 90 48
f 47 87 86
f 47 86 88
f 47 88 91
f 47 91 92
f 47 92 89
f 48 78 49
f 48 90 89
f 48 89 93
f 48 93 78
f 50 84 83
f 50 83 94
f 50 94 95
f 50 95 96
f 50 96 97
f 50 97 51
f 51 97 98
f 51 98 52
f 52 98 53
f 53 98 99
f 53 99 100
f 53 100 55
f 53 55 54
f 55 100 101
f 55 101 56
f 56 101 102
f 56 102 103
f 56 103 104
f 56 104 105
f 56 105 57
f 57 106 58
f 57 105 106
f 58 106 59
f 59 106 107
f 59 107 108
f 59 108 109
f 59 109 110
f 59 110 60
f 60 110 111
f 60 111 61
f 61 111 112
f 61 112 62
f 62 112 113
f 62 113 114
f 62 114 115
f 62 115 63
f 63 115 116
f 63 116 64
f 64 116 117
f 64 117 65
f 65 117 69
f 65 69 68
f 66 72 73
f 69 117 118
f 69 118 70
f 70 118 71
f 71 118 119
f 71 119 120
f 71 120 121
f 71 121 122
f 71 122 72
f 72 122 123
f 72 123 124
f 72 124 88
f 74 125 126
f 74 126 75
f 74 80 127
f 74 127 125
f 75 126 128
f 75 128 76
f 76 128 129
f 76 129 130
f 76 130 131
f 76 131 77
f 77 131 81
f 78 132 133
f 78 133 79
f 78 93 132
f 79 133 80
f 80 133 134
f 80 134 127
f 81 131 135
f 81 135 82
f 82 135 136
f 82 136 137
f 82 137 138
f 82 138 139
f 82 139 83
f 83 139 94
f 85 88 140
f 85 140 86
f 86 140 88
f 88 124 141
f 88 141 91
f 89 142 93
f 89 92 142
f 91 143 144
f 91 144 142
f 91 142 92
f 91 141 145
f 91 145 143
f 93 142 146
f 93 146 147
f 93 147 132
f 94 139 148
f 94 148 95
f 95 148 149
f 95 149 150
f 95 150 99
f 95 99 96
f 96 98 97
f 96 99 98
f 99 150 151
f 99 151 152
f 99 152 153
f 99 153 100
f 100 153 101
f 101 153 102
f 102 153 103
f 103 153 154
f 103 154 155
f 103 155 107
f 103 107 105
f 103 105 104
f 105 107 106
f 107 156 108
f 107 155 157
f 107 157 156
f 108 156 109
f 109 156 110
f 110 156 158
f 110 158 159
f 110 159 111
f 111 159 160
f 111 160 112
f 112 160 161
f 112 161 162
f 112 162 113
f 113 162 163
f 113 163 114
f 114 164 165
f 114 165 166
f 114 166 116
f 114 116 115
f 114 163 164
f 116 166 167
f 116 167 168
f 116 168 117
f 117 168 118
f 118 168 169
f 118 169 170
f 118 170 171
f 118 171 119
f 119 171 120
f 120 171 172
f 120 172 121
f 121 172 173
f 121 173 122
f 122 173 174
f 122 174 175
f 122 175 123
f 123 175 176
f 123 176 177
f 123 177 124
f 124 177 178
f 124 178 141
f 125 179 180
f 125 180 181
f 125 181 126
f 125 127 179
f 126 181 182
f 126 182 128
f 127 183 179
f 127 134 183
f 128 182 184
f 128 184 129
f 129 184 185
f 129 185 130
f 130 185 186
f 130 186 131
f 131 186 135
f 132 134 133
f 132 147 187
f 132 187 188
f 132 188 134
f 134 188 189
f 134 189 183
f 135 186 137
f 135 137 136
f 137 186 190
f 137 190 191
f 137 191 148
f 137 148 138
f 138 148 139
f 141 178 192
f 141 192 193
f 141 193 145
f 142 144 146
f 143 145 194
f 143 194 146
f 143 146 144
f 145 193 194
f 146 194 195
f 146 195 196
f 146 196 197
f 146 197 187
f 146 187 147
f 148 191 198
f 148 198 199
f 148 199 200
f 148 200 149
f 149 200 150
f 150 200 201
f 150 201 202
f 150 202 151
f 151 202 203
f 151 203 152
f 152 203 153
f 153 203 204
f 153 204 205
f 153 205 154
f 154 157 155
f 154 205 206
f 154 206 207
f 154 207 208
f 154 208 157
f 156 157 209
f 156 209 158
f 157 208 210
f 157 210 211
f 157 211 209
f 158 212 159
f 158 209 212
f 159 212 213
f 159 213 214
f 159 214 160
f 160 214 215
f 160 215 161
f 161 215 162
f 162 215 216
f 162 216 217
f 162 217 163
f 163 217 218
f 163 218 219
f 163 219 220
f 163 220 164
f 164 220 165
f 165 220 221
f 165 221 222
f 165 222 166
f 166 222 223
f 166 223 167
f 167 223 224
f 167 224 168
f 168 225 169
f 168 224 225
f 169 225 170
f 170 225 171
f 171 225 226
f 171 226 227
f 171 227 228
f 171 228 172
f 172 228 173
f 173 228 229
f 173 229 230
f 173 230 231
f 173 231 232
f 173 232 174
f 174 232 175
f 175 232 233
f 175 233 176
f 176 233 234
f 176 234 235
f 176 235 177
f 177 235 236
f 177 236 178
f 178 236 237
f 178 237 192
f 179 238 239
f 179 239 240
f 179 240 180
f 179 183 238
f 180 240 181
f 181 240 241
f 181 241 182
f 182 241 242
f 182 242 243
f 182 243 184
f 183 244 238
f 183 189 245
f 183 245 246
f 183 246 244
f 184 243 247
f 184 247 185
f 185 247 248
f 185 248 186
f 186 248 249
f 186 249 190
f 187 197 188
f 188 197 250
f 188 250 189
f 189 250 251
f 189 251 252
f 189 252 245
f 190 249 191
f 191 249 253
f 191 253 254
f 191 254 255
f 191 255 198
f 192 237 193
f 193 256 257
f 193 257 195
f 193 195 194
f 193 237 258
f 193 258 256
f 195 259 196
f 195 257 259
f 196 259 260
f 196 260 197
f 197 260 250
f 198 255 261
f 198 261 199
f 199 261 262
f 199 262 200
f 200 262 263
f 200 263 264
f 200 264 201
f 201 264 265
f 201 265 266
f 201 266 202
f 202 266 267
f 202 267 203
f 203 267 268
f 203 268 269
f 203 269 204
f 204 269 270
f 204 270 205
f 205 270 206
f 206 270 271
f 206 271 272
f 206 272 273
f 206 273 274
f 206 274 207
f 207 274 275
f 207 275 208
f 208 275 210
f 209 211 276
f 209 276 212
f 210 277 278
f 210 278 276
f 210 276 211
f 210 275 279
f 210 279 277
f 212 280 213
f 212 276 281
f 212 281 280
f 213 280 214
f 214 280 282
f 214 282 283
f 214 283 215
f 215 283 284
f 215 284 216
f 216 284 217
f 217 284 285
f 217 285 286
f 217 286 218
f 218 286 287
f 218 287 219
f 219 287 220
f 220 287 288
f 220 288 289
f 220 289 221
f 221 290 222
f 221 289 291
f 221 291 292
f 221 292 293
f 221 293 290
f 222 290 224
f 222 224 223
f 224 290 294
f 224 294 225
f 225 294 226
f 226 294 227
f 227 294 295
f 227 295 228
f 228 295 229
f 229 296 297
f 229 297 298
f 229 298 230
f 229 295 299
f 229 299 300
f 229 300 296
f 230 298 231
f 231 301 302
f 231 302 303
f 231 303 304
f 231 304 232
f 231 298 301
f 232 304 305
f 232 305 233
f 233 305 306
f 233 306 234
f 234 306 307
f 234 307 309
f 234 309 235
f 235 308 236
f 235 309 308
f 236 308 310
f 236 310 237
f 237 310 311
f 237 311 258
f 238 312 313
f 238 313 314
f 238 314 239
f 238 244 312
f 239 314 240
f 240 314 315
f 240 315 241
f 241 315 316
f 241 316 242
f 242 316 317
f 242 317 243
f 243 317 318
f 243 318 247
f 244 319 312
f 244 246 319
f 245 320 321
f 245 321 246
f 245 252 320
f 246 321 319
f 247 318 322
f 247 322 323
f 247 323 248
f 248 323 249
f 249 323 324
f 249 324 253
f 250 260 325
f 250 325 251
f 251 326 252
f 251 325 327
f 251 327 326
f 252 326 320
f 253 328 254
f 253 324 328
f 254 328 329
f 254 329 255
f 255 329 330
f 255 330 331
f 255 331 332
f 255 332 261
f 256 258 333
f 256 333 257
f 257 333 334
f 257 334 335
f 257 335 336
f 257 336 337
f 257 337 259
f 258 311 338
f 258 338 339
f 258 339 340
f 258 340 333
f 259 337 260
f 260 337 341
f 260 341 325
f 261 332 342
f 261 342 262
f 262 342 263
f 263 343 264
f 263 342 344
f 263 344 345
f 263 345 343
f 264 343 265
f 265 343 346
f 265 346 347
f 265 347 266
f 266 347 348
f 266 348 267
f 267 348 268
f 268 349 269
f 268 348 350
f 268 350 351
f 268 351 349
f 269 349 270
f 270 349 271
f 271 349 351
f 271 351 272
f 272 351 352
f 272 352 353
f 272 353 354
f 272 354 273
f 273 354 274
f 274 354 355
f 274 355 275
f 275 355 356
f 275 356 357
f 275 357 279
f 276 278 358
f 276 358 280
f 276 280 281
f 277 359 360
f 277 360 278
f 277 279 361
f 277 361 359
f 278 360 362
f 278 362 280
f 278 280 358
f 279 357 363
f 279 363 364
f 279 364 365
f 279 365 366
f 279 366 361
f 280 362 367
f 280 367 282
f 282 367 283
f 283 367 368
f 283 368 369
f 283 369 284
f 284 369 370
f 284 370 285
f 285 370 286
f 286 370 371
f 286 371 372
f 286 372 287
f 287 372 373
f 287 373 374
f 287 374 375
f 287 375 288
f 288 375 289
f 289 375 376
f 289 376 291
f 290 293 294
f 291 376 377
f 291 377 378
f 291 378 379
f 291 379 380
f 291 380 292
f 292 380 381
f 292 381 293
f 293 381 300
f 293 300 299
f 293 299 294
f 294 299 295
f 296 382 383
f 296 383 384
f 296 384 297
f 296 300 380
f 296 380 382
f 297 384 385
f 297 385 301
f 297 301 298
f 300 381 380
f 301 385 386
f 301 386 387
f 301 387 302
f 302 387 303
f 303 387 388
f 303 388 389
f 303 389 390
f 303 390 304
f 304 390 305
f 305 390 306
f 306 390 391
f 306 391 307
f 307 391 392
f 307 392 309
f 308 309 392
f 308 392 393
f 308 393 310
f 310 393 311
f 311 393 338
f 312 394 395
f 312 395 396
f 312 396 313
f 312 319 397
f 312 397 394
f 313 396 314
f 314 396 398
f 314 398 315
f 315 398 399
f 315 399 400
f 315 400 316
f 316 400 401
f 316 401 317
f 317 401 402
f 317 402 403
f 317 403 322
f 317 322 318
f 319 321 404
f 319 404 405
f 319 405 397
f 320 404 321
f 320 326 406
f 320 406 404
f 322 403 407
f 322 407 324
f 322 324 323
f 324 407 408
f 324 408 409
f 324 409 328
f 325 341 327
f 326 327 410
f 326 410 411
f 326 411 406
f 327 341 410
f 328 409 412
f 328 412 413
f 328 413 414
f 328 414 329
f 329 414 415
f 329 415 330
f 330 415 331
f 331 415 416
f 331 416 417
f 331 417 344
f 331 344 332
f 332 344 342
f 333 340 334
f 334 418 335
f 334 340 419
f 334 419 418
f 335 418 420
f 335 420 411
f 335 411 336
f 336 411 410
f 336 410 341
f 336 341 337
f 338 393 421
f 338 421 422
f 338 422 423
f 338 423 339
f 339 423 340
f 340 423 424
f 340 424 419
f 343 345 425
f 343 425 346
f 344 417 426
f 344 426 427
f 344 427 345
f 345 428 425
f 345 427 426
f 345 426 429
f 345 429 428
f 346 425 428
f 346 428 430
f 346 430 347
f 347 430 431
f 347 431 348
f 348 431 350
f 350 432 351
f 350 431 430
f 350 430 433
f 350 433 434
f 350 434 432
f 351 432 434
f 351 434 352
f 352 434 353
f 353 356 354
f 353 434 435
f 353 435 356
f 354 356 355
f 356 364 363
f 356 363 357
f 356 435 436
f 356 436 364
f 359 361 437
f 359 437 438
f 359 438 439
f 359 439 440
f 359 440 360
f 360 440 441
f 360 441 442
f 360 442 443
f 360 443 362
f 361 366 444
f 361 444 437
f 362 443 442
f 362 442 367
f 364 445 366
f 364 366 365
f 364 436 435
f 364 435 445
f 366 445 444
f 367 442 446
f 367 446 368
f 368 446 369
f 369 446 447
f 369 447 448
f 369 448 370
f 370 448 449
f 370 449 371
f 371 449 372
f 372 449 450
f 372 450 451
f 372 451 373
f 373 451 452
f 373 452 374
f 374 452 375
f 375 452 453
f 375 453 376
f 376 453 377
f 377 453 454
f 377 454 378
f 378 454 379
f 379 454 455
f 379 455 380
f 380 455 456
f 380 456 457
f 380 457 458
f 380 458 382
f 382 459 383
f 382 458 460
f 382 460 461
f 382 461 462
f 382 462 463
f 382 463 464
f 382 464 459
f 383 459 465
f 383 465 385
f 383 385 384
f 385 465 466
f 385 466 467
f 385 467 386
f 386 467 387
f 387 467 468
f 387 468 469
f 387 469 388
f 388 469 470
f 388 470 471
f 388 471 472
f 388 472 389
f 389 472 473
f 389 473 390
f 390 473 391
f 391 473 474
f 391 474 392
f 392 474 393
f 393 474 421
f 394 475 395
f 394 397 475
f 395 475 476
f 395 476 396
f 396 476 398
f 397 405 475
f 398 476 477
f 398 477 478
f 398 478 399
f 399 478 400
f 400 478 479
f 400 479 401
f 401 479 480
f 401 480 481
f 401 481 407
f 401 407 402
f 402 407 403
f 404 482 483
f 404 483 405
f 404 406 482
f 405 483 475
f 406 484 482
f 406 411 484
f 407 481 408
f 408 481 485
f 408 485 486
f 408 486 409
f 409 486 487
f 409 487 488
f 409 488 489
f 409 489 490
f 409 490 412
f 411 420 491
f 411 491 492
f 411 492 484
f 412 490 413
f 413 415 414
f 413 490 489
f 413 489 493
f 413 493 494
f 413 494 416
f 413 416 415
f 416 494 426
f 416 426 417
f 418 419 495
f 418 495 420
f 419 496 495
f 419 424 497
f 419 497 498
f 419 498 496
f 420 495 499
f 420 499 500
f 420 500 501
f 420 501 502
f 420 502 503
f 420 503 504
f 420 504 484
f 420 484 491
f 421 474 505
f 421 505 422
f 422 506 423
f 422 505 507
f 422 507 508
f 422 508 506
f 423 506 509
f 423 509 497
f 423 497 424
f 426 494 510
f 426 510 429
f 428 429 511
f 428 511 512
f 428 512 430
f 429 510 511
f 430 512 433
f 433 512 513
f 433 513 434
f 434 513 435
f 435 513 514
f 435 514 515
f 435 515 516
f 435 516 445
f 437 517 438
f 437 444 517
f 438 517 518
f 438 518 519
f 438 519 520
f 438 520 521
f 438 521 522
f 438 522 439
f 439 522 523
f 439 523 524
f 439 524 440
f 440 524 441
f 441 524 446
f 441 446 442
f 444 445 525
f 444 525 526
f 444 526 517
f 445 516 527
f 445 527 525
f 446 524 447
f 447 524 523
f 447 523 448
f 448 523 528
f 448 528 529
f 448 529 449
f 449 529 530
f 449 530 450
f 450 530 451
f 451 530 531
f 451 531 532
f 451 532 533
f 451 533 452
f 452 533 534
f 452 534 453
f 453 534 535
f 453 535 536
f 453 536 454
f 454 536 537
f 454 537 538
f 454 538 455
f 455 538 539
f 455 539 460
f 455 460 456
f 456 460 457
f 457 460 458
f 459 540 465
f 459 464 541
f 459 541 542
f 459 542 543
f 459 543 540
f 460 539 461
f 461 537 536
f 461 536 544
f 461 544 462
f 461 539 538
f 461 538 537
f 462 544 545
f 462 545 546
f 462 546 463
f 463 541 464
f 463 546 547
f 463 547 548
f 463 548 549
f 463 549 550
f 463 550 541
f 465 540 551
f 465 551 552
f 465 552 553
f 465 553 468
f 465 468 466
f 466 468 467
f 468 553 554
f 468 554 555
f 468 555 556
f 468 556 470
f 468 470 469
f 470 556 471
f 471 556 557
f 471 557 558
f 471 558 559
f 471 559 472
f 472 560 473
f 472 559 560
f 473 560 561
f 473 561 474
f 474 561 505
f 475 562 563
f 475 563 564
f 475 564 476
f 475 483 562
f 476 564 565
f 476 565 566
f 476 566 477
f 477 566 478
f 478 566 567
f 478 567 479
f 479 567 568
f 479 568 481
f 479 481 480
f 481 569 485
f 481 568 569
f 482 570 572
f 482 572 483
f 482 484 571
f 482 571 570
f 483 572 573
f 483 573 562
f 484 504 571
f 484 492 491
f 485 574 486
f 485 569 575
f 485 575 576
f 485 576 574
f 486 577 487
f 486 574 577
f 487 578 489
f 487 489 488
f 487 577 578
f 489 578 494
f 489 494 493
f 494 579 580
f 494 580 510
f 494 578 581
f 494 581 579
f 495 496 499
f 496 582 583
f 496 583 584
f 496 584 499
f 496 498 509
f 496 509 585
f 496 585 582
f 497 509 498
f 499 584 586
f 499 586 587
f 499 587 500
f 500 587 501
f 501 588 589
f 501 589 502
f 501 587 590
f 501 590 591
f 501 591 592
f 501 592 593
f 501 593 594
f 501 594 595
f 501 595 588
f 502 589 588
f 502 588 596
f 502 596 597
f 502 597 503
f 503 597 571
f 503 571 504
f 505 561 598
f 505 598 507
f 506 508 509
f 507 598 599
f 507 599 600
f 507 600 601
f 507 601 508
f 508 601 509
f 509 601 602
f 509 602 603
f 509 603 585
f 510 580 604
f 510 604 605
f 510 605 511
f 511 605 606
f 511 606 607
f 511 607 512
f 512 607 608
f 512 608 609
f 512 609 513
f 513 609 610
f 513 610 514
f 514 610 611
f 514 611 612
f 514 612 613
f 514 613 614
f 514 614 515
f 515 614 615
f 515 615 616
f 515 616 617
f 515 617 618
f 515 618 527
f 515 527 516
f 517 619 518
f 517 526 620
f 517 620 619
f 518 619 621
f 518 621 622
f 518 622 519
f 519 622 623
f 519 623 520
f 520 623 624
f 520 624 521
f 521 624 528
f 521 528 523
f 521 523 522
f 525 527 526
f 526 527 620
f 527 618 625
f 527 625 620
f 528 624 529
f 529 624 626
f 529 626 627
f 529 627 530
f 530 627 628
f 530 628 629
f 530 629 531
f 531 629 532
f 532 629 630
f 532 630 631
f 532 631 533
f 533 631 632
f 533 632 534
f 534 632 633
f 534 633 535
f 535 633 545
f 535 545 544
f 535 544 536
f 540 634 551
f 540 543 634
f 541 550 635
f 541 635 542
f 542 635 543
f 543 635 636
f 543 636 637
f 543 637 638
f 543 638 639
f 543 639 640
f 543 640 641
f 543 641 642
f 543 642 634
f 545 633 546
f 546 633 643
f 546 643 547
f 547 643 644
f 547 644 548
f 548 645 549
f 548 644 646
f 548 646 647
f 548 647 648
f 548 648 645
f 549 645 649
f 549 649 650
f 549 650 651
f 549 651 652
f 549 652 635
f 549 635 550
f 551 653 654
f 551 654 552
f 551 634 655
f 551 655 656
f 551 656 657
f 551 657 653
f 552 654 658
f 552 658 659
f 552 659 660
f 552 660 553
f 553 660 661
f 553 661 662
f 553 662 555
f 553 555 554
f 555 662 663
f 555 663 664
f 555 664 556
f 556 664 665
f 556 665 557
f 557 665 558
f 558 666 559
f 558 665 667
f 558 667 666
f 559 666 560
f 560 666 668
f 560 668 561
f 561 668 598
f 562 573 669
f 562 669 563
f 563 669 670
f 563 670 671
f 563 671 564
f 564 671 672
f 564 672 565
f 565 672 673
f 565 673 674
f 565 674 575
f 565 575 566
f 566 575 567
f 567 575 569
f 567 569 568
f 570 596 675
f 570 675 676
f 570 676 669
f 570 669 572
f 570 571 597
f 570 597 596
f 572 669 573
f 574 576 677
f 574 677 577
f 575 674 576
f 576 678 679
f 576 679 677
f 576 674 680
f 576 680 678
f 577 677 681
f 577 681 682
f 577 682 578
f 578 682 683
f 578 683 581
f 579 684 580
f 579 581 683
f 579 683 685
f 579 685 686
f 579 686 687
f 579 687 688
f 579 688 684
f 580 689 690
f 580 690 691
f 580 691 604
f 580 684 689
f 582 692 693
f 582 693 694
f 582 694 583
f 582 585 695
f 582 695 692
f 583 694 696
f 583 696 697
f 583 697 698
f 583 698 699
f 583 699 700
f 583 700 584
f 584 700 701
f 584 701 586
f 585 603 602
f 585 602 702
f 585 702 703
f 585 703 695
f 586 701 704
f 586 704 587
f 587 704 705
f 587 705 706
f 587 706 707
f 587 707 590
f 588 595 596
f 590 707 708
f 590 708 591
f 591 709 710
f 591 710 592
f 591 708 711
f 591 711 712
f 591 712 709
f 592 594 593
f 592 710 713
f 592 713 714
f 592 714 594
f 594 714 596
f 594 596 595
f 596 714 675
f 598 668 599
f 599 668 715
f 599 715 716
f 599 716 600
f 600 716 601
f 601 716 717
f 601 717 602
f 602 717 718
f 602 718 702
f 604 691 605
f 605 719 720
f 605 720 607
f 605 607 606
f 605 691 690
f 605 690 719
f 607 720 721
f 607 721 722
f 607 722 723
f 607 723 724
f 607 724 608
f 608 724 609
f 609 724 725
f 609 725 726
f 609 726 612
f 609 612 611
f 609 611 610
f 612 726 727
f 612 727 728
f 612 728 729
f 612 729 730
f 612 730 613
f 613 730 614
f 614 730 731
f 614 731 732
f 614 732 733
f 614 733 615
f 615 734 735
f 615 735 616
f 615 733 734
f 616 735 736
f 616 736 737
f 616 737 738
f 616 738 739
f 616 739 740
f 616 740 617
f 617 625 618
f 617 740 741
f 617 741 625
f 619 620 742
f 619 742 743
f 619 743 621
f 620 625 741
f 620 741 742
f 621 743 647
f 621 647 744
f 621 744 622
f 622 744 745
f 622 745 746
f 622 746 747
f 622 747 748
f 622 748 623
f 623 748 626
f 623 626 624
f 626 748 627
f 627 644 628
f 627 748 747
f 627 747 746
f 627 746 745
f 627 745 644
f 628 644 629
f 629 644 630
f 630 644 631
f 631 644 632
f 632 644 643
f 632 643 633
f 634 642 749
f 634 749 750
f 634 750 655
f 635 652 751
f 635 751 636
f 636 751 752
f 636 752 637
f 637 752 753
f 637 753 639
f 637 639 638
f 639 753 752
f 639 752 754
f 639 754 640
f 640 754 755
f 640 755 756
f 640 756 641
f 641 756 642
f 642 750 749
f 642 756 757
f 642 757 750
f 644 745 744
f 644 744 646
f 645 648 649
f 646 744 647
f 647 743 758
f 647 758 648
f 648 758 649
f 649 758 742
f 649 742 759
f 649 759 760
f 649 760 650
f 650 760 761
f 650 761 651
f 651 761 762
f 651 762 751
f 651 751 652
f 653 657 763
f 653 763 764
f 653 764 658
f 653 658 654
f 655 750 765
f 655 765 766
f 655 766 767
f 655 767 768
f 655 768 656
f 656 769 770
f 656 770 771
f 656 771 772
f 656 772 773
f 656 773 657
f 656 768 774
f 656 774 769
f 657 775 763
f 657 773 776
f 657 776 777
f 657 777 778
f 657 778 779
f 657 779 775
f 658 780 781
f 658 781 782
f 658 782 783
f 658 783 784
f 658 784 659
f 658 764 785
f 658 785 786
f 658 786 780
f 659 784 660
f 660 784 783
f 660 783 787
f 660 787 661
f 661 787 788
f 661 788 663
f 661 663 662
f 663 789 790
f 663 790 664
f 663 788 789
f 664 790 791
f 664 791 665
f 665 791 667
f 666 667 715
f 666 715 668
f 667 791 855
f 667 855 715
f 669 792 670
f 669 676 792
f 670 792 671
f 671 792 793
f 671 793 794
f 671 794 795
f 671 795 796
f 671 796 680
f 671 680 672
f 672 680 673
f 673 680 674
f 675 714 792
f 675 792 676
f 677 679 797
f 677 797 798
f 677 798 681
f 678 680 799
f 678 799 679
f 679 800 797
f 679 799 801
f 679 801 802
f 679 802 916
f 679 916 803
f 679 803 800
f 680 796 799
f 681 798 683
f 681 683 682
f 683 798 804
f 683 804 685
f 684 805 806
f 684 806 807
f 684 807 808
f 684 808 689
f 684 688 805
f 685 804 686
f 686 804 809
f 686 809 810
f 686 810 687
f 687 811 688
f 687 810 812
f 687 812 813
f 687 813 811
f 688 811 814
f 688 814 805
f 689 808 690
f 690 815 816
f 690 816 719
f 690 808 817
f 690 817 818
f 690 818 815
f 692 695 819
f 692 819 693
f 693 819 820
f 693 820 821
f 693 821 822
f 693 822 823
f 693 823 824
f 693 824 825
f 693 825 826
f 693 826 696
f 693 696 694
f 695 703 827
f 695 827 820
f 695 820 819
f 696 826 828
f 696 828 697
f 697 828 829
f 697 829 830
f 697 830 831
f 697 831 832
f 697 832 833
f 697 833 698
f 698 834 835
f 698 835 699
f 698 833 836
f 698 836 837
f 698 837 834
f 699 838 700
f 699 835 839
f 699 839 838
f 700 838 840
f 700 840 841
f 700 841 701
f 701 841 842
f 701 842 704
f 702 718 703
f 703 718 843
f 703 843 827
f 704 842 844
f 704 844 845
f 704 845 846
f 704 846 705
f 705 846 706
f 706 846 707
f 707 846 847
f 707 847 708
f 708 847 848
f 708 848 711
f 709 712 849
f 709 849 710
f 710 849 850
f 710 850 851
f 710 851 803
f 710 803 852
f 710 852 792
f 710 792 713
f 711 848 712
f 712 848 853
f 712 853 854
f 712 854 850
f 712 850 849
f 713 792 714
f 715 855 716
f 716 855 717
f 717 855 856
f 717 856 718
f 718 856 915
f 718 915 843
f 719 816 857
f 719 857 720
f 720 857 721
f 721 857 858
f 721 858 859
f 721 859 722
f 722 859 723
f 723 860 861
f 723 861 862
f 723 862 724
f 723 859 860
f 724 862 725
f 725 862 863
f 725 863 726
f 726 863 727
f 727 863 861
f 727 861 864
f 727 864 865
f 727 865 728
f 728 866 867
f 728 867 868
f 728 868 729
f 728 865 866
f 729 868 869
f 729 869 870
f 729 870 730
f 730 870 871
f 730 871 872
f 730 872 873
f 730 873 731
f 731 873 732
f 732 873 874
f 732 874 875
f 732 875 733
f 733 875 734
f 734 876 877
f 734 877 878
f 734 878 735
f 734 875 876
f 735 878 879
f 735 879 880
f 735 880 881
f 735 881 882
f 735 882 883
f 735 883 884
f 735 884 885
f 735 885 736
f 736 885 737
f 737 885 886
f 737 886 887
f 737 887 888
f 737 888 738
f 738 888 739
f 739 888 741
f 739 741 740
f 741 888 760
f 741 760 759
f 741 759 742
f 742 758 743
f 750 757 765
f 751 762 887
f 751 887 752
f 752 887 886
f 752 886 754
f 754 886 889
f 754 889 767
f 754 767 766
f 754 766 755
f 755 766 757
f 755 757 756
f 757 766 765
f 760 888 761
f 761 888 887
f 761 887 762
f 763 890 764
f 763 775 891
f 763 891 890
f 764 890 892
f 764 892 893
f 764 893 785
f 767 774 768
f 767 889 894
f 767 894 774
f 769 774 894
f 769 894 770
f 770 894 771
f 771 894 883
f 771 883 772
f 772 883 776
f 772 776 773
f 775 895 891
f 775 779 895
f 776 883 882
f 776 882 881
f 776 881 880
f 776 880 879
f 776 879 896
f 776 896 779
f 776 779 777
f 777 779 778
f 779 896 897
f 779 897 898
f 779 898 899
f 779 899 900
f 779 900 901
f 779 901 902
f 779 902 895
f 780 786 903
f 780 903 904
f 780 904 905
f 780 905 781
f 781 906 782
f 781 905 906
f 782 906 783
f 783 906 907
f 783 907 908
f 783 908 909
f 783 909 910
f 783 910 911
f 783 911 787
f 785 893 912
f 785 912 903
f 785 903 786
f 787 911 913
f 787 913 788
f 788 914 789
f 788 913 914
f 789 914 970
f 789 970 915
f 789 915 856
f 789 856 790
f 790 856 791
f 791 856 855
f 792 852 916
f 792 916 802
f 792 802 793
f 793 802 801
f 793 801 794
f 794 801 795
f 795 801 796
f 796 801 799
f 797 917 798
f 797 800 917
f 798 917 809
f 798 809 804
f 800 918 919
f 800 919 920
f 800 920 917
f 800 803 918
f 803 916 852
f 803 851 854
f 803 854 918
f 805 814 921
f 805 921 806
f 806 922 807
f 806 921 923
f 806 923 922
f 807 922 924
f 807 924 808
f 808 925 926
f 808 926 817
f 808 924 925
f 809 917 920
f 809 920 919
f 809 919 853
f 809 853 927
f 809 927 810
f 810 927 812
f 811 928 814
f 811 813 929
f 811 929 930
f 811 930 837
f 811 837 931
f 811 931 932
f 811 932 928
f 812 927 933
f 812 933 929
f 812 929 813
f 814 928 934
f 814 934 935
f 814 935 921
f 815 818 936
f 815 936 937
f 815 937 938
f 815 938 816
f 816 938 939
f 816 939 858
f 816 858 857
f 817 926 940
f 817 940 818
f 818 940 941
f 818 941 936
f 820 827 942
f 820 942 943
f 820 943 944
f 820 944 945
f 820 945 946
f 820 946 947
f 820 947 821
f 821 947 822
f 822 947 948
f 822 948 823
f 823 949 950
f 823 950 824
f 823 948 949
f 824 950 951
f 824 951 825
f 825 951 952
f 825 952 953
f 825 953 954
f 825 954 826
f 826 955 828
f 826 954 955
f 827 843 956
f 827 956 942
f 828 955 957
f 828 957 829
f 829 957 958
f 829 958 959
f 829 959 830
f 830 959 831
f 831 959 960
f 831 960 832
f 832 960 932
f 832 932 931
f 832 931 836
f 832 836 833
f 834 837 961
f 834 961 835
f 835 961 962
f 835 962 963
f 835 963 839
f 836 931 837
f 837 930 961
f 838 964 841
f 838 841 840
f 838 839 964
f 839 963 965
f 839 965 966
f 839 966 964
f 841 964 967
f 841 967 968
f 841 968 842
f 842 968 969
f 842 969 844
f 843 915 970
f 843 970 956
f 844 969 968
f 844 968 971
f 844 971 972
f 844 972 845
f 845 972 973
f 845 973 974
f 845 974 846
f 846 974 927
f 846 927 847
f 847 927 848
f 848 927 853
f 850 854 851
f 853 919 854
f 854 919 918
f 858 939 975
f 858 975 976
f 858 976 977
f 858 977 978
f 858 978 859
f 859 978 979
f 859 979 860
f 860 979 861
f 861 863 862
f 861 979 980
f 861 980 981
f 861 981 982
f 861 982 864
f 864 982 1098
f 864 1098 983
f 864 983 865
f 865 983 984
f 865 984 985
f 865 985 866
f 866 986 987
f 866 987 867
f 866 985 988
f 866 988 986
f 867 989 868
f 867 987 989
f 868 989 869
f 869 989 990
f 869 990 991
f 869 991 992
f 869 992 993
f 869 993 994
f 869 994 995
f 869 995 870
f 870 995 996
f 870 996 997
f 870 997 871
f 871 997 998
f 871 998 872
f 872 998 873
f 873 998 999
f 873 999 1000
f 873 1000 874
f 874 1000 1001
f 874 1001 1002
f 874 1002 875
f 875 1002 1003
f 875 1003 876
f 876 1003 1004
f 876 1004 877
f 877 879 878
f 877 1004 1016
f 877 1016 1005
f 877 1005 879
f 879 1005 898
f 879 898 897
f 879 897 896
f 883 894 1006
f 883 1006 1007
f 883 1007 884
f 884 1007 885
f 885 1007 1006
f 885 1006 894
f 885 894 889
f 885 889 886
f 890 891 892
f 891 895 902
f 891 902 901
f 891 901 900
f 891 900 1008
f 891 1008 892
f 892 1008 1009
f 892 1009 1010
f 892 1010 1011
f 892 1011 1012
f 892 1012 1013
f 892 1013 893
f 893 1013 912
f 898 1005 899
f 899 1005 1014
f 899 1014 900
f 900 1014 1015
f 900 1015 1016
f 900 1016 1017
f 900 1017 1018
f 900 1018 1019
f 900 1019 1020
f 900 1020 1010
f 900 1010 1009
f 900 1009 1008
f 903 1021 904
f 903 912 1021
f 904 1021 905
f 905 1021 1022
f 905 1022 1023
f 905 1023 1024
f 905 1024 1025
f 905 1025 1026
f 905 1026 1027
f 905 1027 1028
f 905 1028 906
f 906 1029 907
f 906 1028 1029
f 907 1029 909
f 907 909 908
f 909 1030 1031
f 909 1031 910
f 909 1029 1032
f 909 1032 1030
f 910 1031 1033
f 910 1033 911
f 911 1033 1034
f 911 1034 913
f 912 1035 1036
f 912 1036 1037
f 912 1037 1038
f 912 1038 1021
f 912 1013 1039
f 912 1039 1035
f 913 1034 914
f 914 1034 1040
f 914 1040 1091
f 914 1091 970
f 921 935 1043
f 921 1043 923
f 922 923 1041
f 922 1041 1042
f 922 1042 924
f 923 1043 1044
f 923 1044 1041
f 924 1045 925
f 924 1042 1045
f 925 1045 926
f 926 1045 1046
f 926 1046 1047
f 926 1047 1060
f 926 1060 940
f 927 974 965
f 927 965 933
f 928 932 1048
f 928 1048 934
f 929 933 1049
f 929 1049 961
f 929 961 930
f 932 960 1050
f 932 1050 1048
f 933 965 962
f 933 962 1051
f 933 1051 1049
f 934 1052 935
f 934 1048 1151
f 934 1151 1052
f 935 1052 1043
f 936 941 1053
f 936 1053 937
f 937 1054 938
f 937 1053 1055
f 937 1055 1056
f 937 1056 1054
f 938 1054 1057
f 938 1057 1058
f 938 1058 939
f 939 1058 1059
f 939 1059 975
f 940 1060 941
f 941 1060 1061
f 941 1061 1062
f 941 1062 1053
f 942 956 1063
f 942 1063 1064
f 942 1064 943
f 943 1065 944
f 943 1064 1065
f 944 1065 1066
f 944 1066 1067
f 944 1067 1068
f 944 1068 946
f 944 946 945
f 946 1068 947
f 947 1068 1069
f 947 1069 948
f 948 1070 1071
f 948 1071 1072
f 948 1072 1073
f 948 1073 1074
f 948 1074 949
f 948 1069 1075
f 948 1075 1076
f 948 1076 1070
f 949 1074 950
f 950 1074 951
f 951 1074 1077
f 951 1077 952
f 952 1077 1078
f 952 1078 1079
f 952 1079 1080
f 952 1080 953
f 953 1081 954
f 953 1080 1082
f 953 1082 1083
f 953 1083 1084
f 953 1084 1085
f 953 1085 1081
f 954 1081 957
f 954 957 955
f 956 970 1063
f 957 1086 958
f 957 1081 1087
f 957 1087 1088
f 957 1088 1086
f 958 1086 959
f 959 1088 1089
f 959 1089 1050
f 959 1050 960
f 959 1086 1088
f 961 1051 962
f 961 1049 1051
f 962 965 963
f 964 966 1090
f 964 1090 967
f 965 974 972
f 965 972 971
f 965 971 968
f 965 968 966
f 966 968 1090
f 967 1090 968
f 970 1091 1063
f 972 974 973
f 975 1059 976
f 976 1059 1092
f 976 1092 977
f 977 1093 978
f 977 1092 1094
f 977 1094 1093
f 978 1093 979
f 979 1095 980
f 979 1093 1095
f 980 1096 981
f 980 1095 1097
f 980 1097 1096
f 981 1096 1098
f 981 1098 982
f 983 1098 1099
f 983 1099 1100
f 983 1100 1101
f 983 1101 1102
f 983 1102 984
f 984 1103 985
f 984 1102 1104
f 984 1104 1105
f 984 1105 1103
f 985 1103 1106
f 985 1106 1107
f 985 1107 1108
f 985 1108 988
f 986 990 987
f 986 988 1109
f 986 1109 990
f 987 990 989
f 988 1108 1110
f 988 1110 1036
f 988 1036 1111
f 988 1111 1109
f 990 1109 1111
f 990 1111 1112
f 990 1112 1113
f 990 1113 991
f 991 1114 1117
f 991 1117 993
f 991 993 992
f 991 1113 1115
f 991 1115 1114
f 993 1116 996
f 993 996 994
f 993 1117 1210
f 993 1210 1116
f 994 996 995
f 996 1116 999
f 996 999 998
f 996 998 997
f 999 1116 1118
f 999 1118 1000
f 1000 1118 1001
f 1001 1118 1212
f 1001 1212 1119
f 1001 1119 1002
f 1002 1119 1003
f 1003 1119 1004
f 1004 1119 1120
f 1004 1120 1121
f 1004 1121 1122
f 1004 1122 1017
f 1004 1017 1016
f 1005 1016 1015
f 1005 1015 1014
f 1010 1020 1011
f 1011 1123 1013
f 1011 1013 1012
f 1011 1020 1019
f 1011 1019 1018
f 1011 1018 1123
f 1013 1123 1124
f 1013 1124 1125
f 1013 1125 1039
f 1017 1122 1126
f 1017 1126 1018
f 1018 1126 1123
f 1021 1127 1022
f 1021 1038 1128
f 1021 1128 1127
f 1022 1127 1023
f 1023 1127 1129
f 1023 1129 1130
f 1023 1130 1024
f 1024 1130 1131
f 1024 1131 1025
f 1025 1131 1132
f 1025 1132 1026
f 1026 1132 1133
f 1026 1133 1134
f 1026 1134 1029
f 1026 1029 1028
f 1026 1028 1027
f 1029 1135 1032
f 1029 1134 1135
f 1030 1032 1136
f 1030 1136 1137
f 1030 1137 1138
f 1030 1138 1031
f 1031 1138 1139
f 1031 1139 1033
f 1032 1135 1136
f 1033 1139 1034
f 1034 1139 1040
f 1035 1140 1141
f 1035 1141 1036
f 1035 1039 1142
f 1035 1142 1143
f 1035 1143 1144
f 1035 1144 1145
f 1035 1145 1140
f 1036 1141 1112
f 1036 1112 1111
f 1036 1110 1037
f 1037 1128 1038
f 1037 1110 1108
f 1037 1108 1128
f 1039 1125 1126
f 1039 1126 1146
f 1039 1146 1142
f 1040 1139 1169
f 1040 1169 1091
f 1041 1044 1147
f 1041 1147 1042
f 1042 1147 1148
f 1042 1148 1046
f 1042 1046 1045
f 1043 1052 1149
f 1043 1149 1044
f 1044 1149 1147
f 1046 1148 1047
f 1047 1148 1150
f 1047 1150 1060
f 1048 1050 1089
f 1048 1089 1151
f 1052 1151 1152
f 1052 1152 1149
f 1053 1062 1055
f 1054 1056 1153
f 1054 1153 1057
f 1055 1062 1154
f 1055 1154 1079
f 1055 1079 1155
f 1055 1155 1056
f 1056 1155 1078
f 1056 1078 1153
f 1057 1156 1058
f 1057 1153 1157
f 1057 1157 1156
f 1058 1158 1059
f 1058 1156 1159
f 1058 1159 1160
f 1058 1160 1158
f 1059 1158 1238
f 1059 1238 1161
f 1059 1161 1162
f 1059 1162 1163
f 1059 1163 1164
f 1059 1164 1165
f 1059 1165 1092
f 1060 1150 1166
f 1060 1166 1167
f 1060 1167 1168
f 1060 1168 1061
f 1061 1168 1062
f 1062 1168 1154
f 1063 1169 1064
f 1063 1091 1169
f 1064 1169 1065
f 1065 1170 1066
f 1065 1169 1170
f 1066 1171 1172
f 1066 1172 1067
f 1066 1170 1173
f 1066 1173 1171
f 1067 1172 1068
f 1068 1172 1174
f 1068 1174 1076
f 1068 1076 1075
f 1068 1075 1069
f 1070 1175 1071
f 1070 1076 1176
f 1070 1176 1175
f 1071 1175 1177
f 1071 1177 1178
f 1071 1178 1072
f 1072 1178 1179
f 1072 1179 1073
f 1073 1179 1074
f 1074 1179 1180
f 1074 1180 1077
f 1076 1174 1181
f 1076 1181 1176
f 1077 1180 1078
f 1078 1180 1153
f 1078 1155 1079
f 1079 1154 1168
f 1079 1168 1182
f 1079 1182 1183
f 1079 1183 1184
f 1079 1184 1185
f 1079 1185 1186
f 1079 1186 1187
f 1079 1187 1080
f 1080 1187 1188
f 1080 1188 1082
f 1081 1085 1189
f 1081 1189 1087
f 1082 1188 1190
f 1082 1190 1083
f 1083 1190 1084
f 1084 1191 1192
f 1084 1192 1085
f 1084 1190 1191
f 1085 1192 1195
f 1085 1195 1189
f 1087 1189 1088
f 1088 1193 1194
f 1088 1194 1151
f 1088 1151 1089
f 1088 1189 1195
f 1088 1195 1196
f 1088 1196 1193
f 1092 1165 1094
f 1093 1094 1197
f 1093 1197 1198
f 1093 1198 1095
f 1094 1165 1197
f 1095 1199 1201
f 1095 1201 1097
f 1095 1198 1260
f 1095 1260 1199
f 1096 1200 1099
f 1096 1099 1098
f 1096 1097 1201
f 1096 1201 1202
f 1096 1202 1200
f 1099 1200 1203
f 1099 1203 1100
f 1100 1203 1101
f 1101 1203 1204
f 1101 1204 1205
f 1101 1205 1105
f 1101 1105 1104
f 1101 1104 1102
f 1103 1105 1206
f 1103 1206 1106
f 1105 1205 1206
f 1106 1206 1107
f 1107 1206 1207
f 1107 1207 1128
f 1107 1128 1108
f 1112 1141 1208
f 1112 1208 1113
f 1113 1208 1209
f 1113 1209 1117
f 1113 1117 1115
f 1114 1115 1117
f 1116 1210 1118
f 1117 1209 1211
f 1117 1211 1210
f 1118 1210 1211
f 1118 1211 1212
f 1119 1212 1213
f 1119 1213 1214
f 1119 1214 1146
f 1119 1146 1120
f 1120 1146 1121
f 1121 1146 1122
f 1122 1146 1126
f 1123 1126 1124
f 1124 1126 1125
f 1127 1128 1207
f 1127 1207 1215
f 1127 1215 1129
f 1129 1216 1130
f 1129 1215 1217
f 1129 1217 1216
f 1130 1218 1131
f 1130 1216 1218
f 1131 1219 1132
f 1131 1218 1219
f 1132 1220 1133
f 1132 1219 1220
f 1133 1220 1221
f 1133 1221 1222
f 1133 1222 1135
f 1133 1135 1134
f 1135 1222 1223
f 1135 1223 1136
f 1136 1171 1173
f 1136 1173 1137
f 1136 1223 1243
f 1136 1243 1171
f 1137 1173 1170
f 1137 1170 1138
f 1138 1170 1169
f 1138 1169 1139
f 1140 1224 1141
f 1140 1145 1224
f 1141 1225 1208
f 1141 1224 1225
f 1142 1146 1214
f 1142 1214 1143
f 1143 1226 1145
f 1143 1145 1144
f 1143 1214 1213
f 1143 1213 1227
f 1143 1227 1228
f 1143 1228 1226
f 1145 1226 1225
f 1145 1225 1224
f 1147 1149 1229
f 1147 1229 1230
f 1147 1230 1148
f 1148 1166 1150
f 1148 1230 1231
f 1148 1231 1166
f 1149 1152 1229
f 1151 1194 1232
f 1151 1232 1152
f 1152 1232 1233
f 1152 1233 1234
f 1152 1234 1229
f 1153 1180 1235
f 1153 1235 1157
f 1156 1157 1159
f 1157 1236 1159
f 1157 1235 1237
f 1157 1237 1236
f 1158 1160 1238
f 1159 1236 1239
f 1159 1239 1160
f 1160 1239 1238
f 1161 1238 1280
f 1161 1280 1240
f 1161 1240 1197
f 1161 1197 1162
f 1162 1197 1163
f 1163 1197 1164
f 1164 1197 1165
f 1166 1231 1241
f 1166 1241 1242
f 1166 1242 1167
f 1167 1242 1182
f 1167 1182 1168
f 1171 1243 1172
f 1172 1243 1244
f 1172 1244 1181
f 1172 1181 1174
f 1175 1245 1177
f 1175 1176 1246
f 1175 1246 1245
f 1176 1181 1247
f 1176 1247 1246
f 1177 1245 1248
f 1177 1248 1178
f 1178 1248 1249
f 1178 1249 1250
f 1178 1250 1179
f 1179 1250 1235
f 1179 1235 1180
f 1181 1251 1247
f 1181 1244 1251
f 1182 1242 1183
f 1183 1242 1184
f 1184 1242 1252
f 1184 1252 1185
f 1185 1252 1186
f 1186 1252 1253
f 1186 1253 1254
f 1186 1254 1255
f 1186 1255 1256
f 1186 1256 1187
f 1187 1256 1255
f 1187 1255 1257
f 1187 1257 1188
f 1188 1257 1258
f 1188 1258 1234
f 1188 1234 1233
f 1188 1233 1190
f 1190 1233 1193
f 1190 1193 1191
f 1191 1259 1192
f 1191 1193 1259
f 1192 1259 1196
f 1192 1196 1195
f 1193 1233 1194
f 1193 1196 1259
f 1194 1233 1232
f 1197 1240 1198
f 1198 1240 1280
f 1198 1280 1260
f 1199 1260 1286
f 1199 1286 1261
f 1199 1261 1262
f 1199 1262 1202
f 1199 1202 1201
f 1200 1202 1203
f 1202 1262 1204
f 1202 1204 1203
f 1204 1262 1263
f 1204 1263 1264
f 1204 1264 1205
f 1205 1264 1206
f 1206 1264 1265
f 1206 1265 1266
f 1206 1266 1207
f 1207 1266 1215
f 1208 1225 1267
f 1208 1267 1209
f 1209 1267 1211
f 1211 1267 1268
f 1211 1268 1212
f 1212 1268 1227
f 1212 1227 1213
f 1215 1266 1269
f 1215 1269 1217
f 1216 1217 1270
f 1216 1270 1271
f 1216 1271 1218
f 1217 1269 1270
f 1218 1271 1272
f 1218 1272 1219
f 1219 1272 1283
f 1219 1283 1246
f 1219 1246 1247
f 1219 1247 1220
f 1220 1247 1251
f 1220 1251 1221
f 1221 1251 1244
f 1221 1244 1222
f 1222 1244 1243
f 1222 1243 1223
f 1225 1226 1267
f 1226 1228 1273
f 1226 1273 1268
f 1226 1268 1267
f 1227 1268 1273
f 1227 1273 1228
f 1229 1234 1274
f 1229 1274 1258
f 1229 1258 1275
f 1229 1275 1230
f 1230 1275 1276
f 1230 1276 1277
f 1230 1277 1278
f 1230 1278 1241
f 1230 1241 1231
f 1234 1258 1274
f 1235 1250 1237
f 1236 1237 1279
f 1236 1279 1239
f 1237 1250 1279
f 1238 1239 1280
f 1239 1281 1282
f 1239 1282 1280
f 1239 1279 1281
f 1241 1278 1242
f 1242 1278 1277
f 1242 1277 1252
f 1245 1283 1284
f 1245 1284 1248
f 1245 1246 1283
f 1248 1284 1285
f 1248 1285 1249
f 1249 1285 1279
f 1249 1279 1250
f 1252 1277 1276
f 1252 1276 1253
f 1253 1276 1257
f 1253 1257 1254
f 1254 1257 1255
f 1257 1276 1258
f 1258 1276 1275
f 1260 1280 1282
f 1260 1282 1286
f 1261 1286 1287
f 1261 1287 1288
f 1261 1288 1262
f 1262 1288 1263
f 1263 1288 1289
f 1263 1289 1265
f 1263 1265 1264
f 1265 1289 1269
f 1265 1269 1266
f 1269 1290 1270
f 1269 1289 1291
f 1269 1291 1290
f 1270 1285 1284
f 1270 1284 1271
f 1270 1290 1292
f 1270 1292 1285
f 1271 1284 1283
f 1271 1283 1272
f 1279 1285 1292
f 1279 1292 1293
f 1279 1293 1281
f 1281 1293 1286
f 1281 1286 1282
f 1286 1290 1287
f 1286 1293 1292
f 1286 1292 1290
f 1287 1291 1288
f 1287 1290 1291
f 1288 1291 1289

