# https://github.com/mikedh/trimesh
v 0.01150552 0.00052774 0.01625789
v 0.01150343 -0.00052692 0.01625789
v 0.01150343 0.00052774 0.01520396
v 0.01143661 0.00127220 0.01625789
v 0.01143243 0.00124506 0.01731182
v 0.01149716 0.00052774 0.01731182
v 0.01149716 -0.00052692 0.01731182
v 0.01143661 -0.00126944 0.01625789
v 0.01150134 -0.00052692 0.01520396
v 0.01149716 -0.00052692 0.01414581
v 0.01149716 0.00052774 0.01414581
v 0.01143035 0.00124118 0.01414581
v 0.01143452 0.00125669 0.01520396
v 0.01133220 0.00176851 0.01414581
v 0.01133638 0.00179953 0.01625789
v 0.01133220 0.00177433 0.01731182
v 0.01141782 0.00117333 0.01836996
v 0.01139693 0.00105507 0.01995507
v 0.01147628 0.00052774 0.01836996
v 0.01143243 -0.00124424 0.01731182
v 0.01147628 -0.00052692 0.01836996
v 0.01133638 -0.00179677 0.01625789
v 0.01133220 -0.00176575 0.01414581
v 0.01143035 -0.00123843 0.01414581
v 0.01141364 -0.00114343 0.01309610
v 0.01145958 -0.00052692 0.01309610
v 0.01144705 0.00062855 0.01299492
v 0.01141782 0.00117333 0.01327738
v 0.01133012 0.00154750 0.01299492
v 0.01107119 0.00263706 0.01309610
v 0.01110460 0.00263706 0.01414581
v 0.01111295 0.00263706 0.01625789
v 0.01110042 0.00263706 0.01731182
v 0.01107328 0.00263706 0.01836996
v 0.01104196 0.00263706 0.01942389
v 0.01131759 0.00170066 0.01836996
v 0.01138232 0.00073906 0.02065909
v 0.01144287 0.00052774 0.01942389
v 0.01130297 0.00162311 0.01942389
v 0.01129671 0.00147771 0.02037664
v 0.01122362 0.00158240 0.02153596
v 0.01111922 0.00158240 0.02364803
v 0.01106701 0.00158240 0.02470196
v 0.01120065 0.00052774 0.02470196
v 0.01139693 0.00003531 0.02104272
v 0.01133012 -0.00177351 0.01731182
v 0.01139693 -0.00105425 0.01995507
v 0.01141782 -0.00117251 0.01836996
v 0.01131759 -0.00169984 0.01836996
v 0.01139693 -0.00003449 0.02104272
v 0.01144287 -0.00052692 0.01942389
v 0.01111295 -0.00263817 0.01625789
v 0.01110460 -0.00263817 0.01414581
v 0.01107328 -0.00263817 0.01309610
v 0.01131550 -0.00167076 0.01309610
v 0.01129253 -0.00147689 0.01214335
v 0.01139693 -0.00105619 0.01256492
v 0.01141155 -0.00052692 0.01234992
v 0.01141573 0.00034550 0.01227825
v 0.01138023 0.00062855 0.01197472
v 0.01139485 0.00104925 0.01257335
v 0.01126747 0.00158240 0.01204217
v 0.01101272 0.00263706 0.01204217
v 0.01062851 0.00369365 0.01204217
v 0.01068280 0.00369365 0.01309610
v 0.01070995 0.00369365 0.01414581
v 0.01071412 0.00369365 0.01625789
v 0.01069951 0.00369365 0.01731182
v 0.01067027 0.00369365 0.01836996
v 0.01063895 0.00369365 0.01942389
v 0.01100437 0.00263706 0.02047782
v 0.01135935 0.00044244 0.02145165
v 0.01140738 0.00044244 0.02037664
v 0.01125077 0.00052774 0.02364803
v 0.01095634 0.00263706 0.02153596
v 0.01084985 0.00263706 0.02364803
v 0.01079556 0.00263706 0.02470196
v 0.01067862 0.00263706 0.02575589
v 0.01094381 0.00158240 0.02575589
v 0.01107119 0.00052774 0.02575589
v 0.01120065 -0.00052692 0.02470196
v 0.01110042 -0.00263817 0.01731182
v 0.01104196 -0.00263817 0.01942389
v 0.01107119 -0.00263817 0.01836996
v 0.01122362 -0.00158158 0.02153596
v 0.01129671 -0.00147689 0.02037664
v 0.01130088 -0.00162229 0.01942389
v 0.01140738 -0.00044162 0.02037664
v 0.01135935 -0.00044162 0.02145165
v 0.01130088 -0.00052692 0.02258989
v 0.01125077 -0.00052692 0.02364803
v 0.01106701 -0.00158158 0.02470196
v 0.01111922 -0.00158158 0.02364803
v 0.01071412 -0.00369283 0.01625789
v 0.01070995 -0.00369283 0.01414581
v 0.01068280 -0.00369283 0.01309610
v 0.01063060 -0.00369283 0.01204217
v 0.01101481 -0.00263817 0.01204217
v 0.01095008 -0.00263817 0.01098403
v 0.01120065 -0.00158158 0.01098403
v 0.01049905 -0.00158158 0.00253996
v 0.01061389 -0.00052692 0.00253996
v 0.01132176 -0.00052692 0.01098403
v 0.01131967 0.00052774 0.01098403
v 0.01062225 0.00052774 0.00253996
v 0.01050740 0.00158240 0.00253996
v 0.01119856 0.00158240 0.01098403
v 0.01094799 0.00263706 0.01098403
v 0.01052828 0.00379059 0.01094609
v 0.01033409 0.00420741 0.01056667
v 0.01035288 0.00424425 0.01127070
v 0.01037167 0.00427914 0.01204217
v 0.01039673 0.00432179 0.01309610
v 0.01040926 0.00434506 0.01414581
v 0.01040926 0.00434312 0.01625789
v 0.01040299 0.00432955 0.01731182
v 0.01037167 0.00427526 0.01942389
v 0.01035497 0.00424812 0.02027968
v 0.01054916 0.00379834 0.02057056
v 0.01056378 0.00366263 0.02153596
v 0.01053663 0.00360641 0.02258989
v 0.01050949 0.00354825 0.02364803
v 0.01048234 0.00348621 0.02470196
v 0.01042596 0.00336019 0.02575589
v 0.01036958 0.00323224 0.02634187
v 0.01046564 0.00263706 0.02650207
v 0.01059301 0.00158240 0.02669599
v 0.01107119 -0.00052692 0.02575589
v 0.01065357 0.00052774 0.02676766
v 0.01094173 -0.00158158 0.02575589
v 0.01069951 -0.00369283 0.01731182
v 0.01063895 -0.00369283 0.01942389
v 0.01067027 -0.00369283 0.01836996
v 0.01100437 -0.00263817 0.02047782
v 0.01095425 -0.00263817 0.02153596
v 0.01079347 -0.00263817 0.02470196
v 0.01084776 -0.00263817 0.02364803
v 0.01090205 -0.00263817 0.02258989
v 0.01067654 -0.00263817 0.02575589
v 0.01040926 -0.00434230 0.01625789
v 0.01040926 -0.00434424 0.01520396
v 0.01040926 -0.00434424 0.01414581
v 0.01040299 -0.00432873 0.01731182
v 0.01039673 -0.00432291 0.01309610
v 0.01037376 -0.00428220 0.01204217
v 0.01035497 -0.00424730 0.01126227
v 0.01053037 -0.00379171 0.01093766
v 0.01052410 -0.00361528 0.00993010
v 0.00996031 -0.00369283 0.00253996
v 0.01025265 -0.00280684 0.00253996
v 0.01038211 -0.00227951 0.00253996
v 0.01035079 -0.00215931 0.00198770
v 0.01039464 -0.00158158 0.00189074
v 0.01045102 -0.00052692 0.00176848
v 0.01045102 0.00052774 0.00176848
v 0.01039464 0.00158240 0.00189074
v 0.01035079 0.00215819 0.00198770
v 0.01038211 0.00228421 0.00253996
v 0.01025265 0.00281154 0.00253996
v 0.00996031 0.00369365 0.00253996
v 0.01052202 0.00361223 0.00993010
v 0.01010231 0.00465719 0.01094609
v 0.00952181 0.00468627 0.00253996
v 0.00925036 0.00521360 0.00253996
v 0.01006681 0.00480647 0.01204217
v 0.01008560 0.00485106 0.01309610
v 0.01009395 0.00487239 0.01414581
v 0.01008978 0.00487045 0.01625789
v 0.01007934 0.00485688 0.01731182
v 0.01006263 0.00482974 0.01836996
v 0.01004384 0.00480259 0.01942389
v 0.01008560 0.00465913 0.02057056
v 0.01034035 0.00421904 0.02098370
v 0.01029859 0.00413568 0.02258989
v 0.01026935 0.00407752 0.02364803
v 0.01024012 0.00401548 0.02470196
v 0.01018792 0.00388946 0.02575589
v 0.00929629 0.00529309 0.02631236
v 0.00944664 0.00468045 0.02672550
v 0.00931718 0.00428302 0.02737894
v 0.01013154 0.00263706 0.02702903
v 0.01024639 0.00158240 0.02722296
v 0.01065357 -0.00052692 0.02676766
v 0.01059092 -0.00158158 0.02669599
v 0.01030068 0.00052774 0.02729462
v 0.01030276 -0.00052692 0.02729462
v 0.01046355 -0.00263817 0.02650207
v 0.01036750 -0.00322948 0.02633766
v 0.01037167 -0.00427444 0.01942389
v 0.01056378 -0.00364824 0.02153596
v 0.01054916 -0.00379364 0.02054527
v 0.01035497 -0.00424730 0.02023752
v 0.01048234 -0.00347376 0.02470196
v 0.01042387 -0.00335550 0.02575589
v 0.01008978 -0.00487157 0.01625789
v 0.01009187 -0.00487157 0.01520396
v 0.01009395 -0.00487157 0.01414581
v 0.01008769 -0.00485218 0.01309610
v 0.01007934 -0.00485800 0.01731182
v 0.01006890 -0.00480953 0.01204217
v 0.01010231 -0.00465831 0.01093766
v 0.01033409 -0.00420853 0.01055824
v 0.00952181 -0.00469127 0.00253996
v 0.00942993 -0.00450903 0.00170103
v 0.00960325 -0.00376650 0.00140171
v 0.01005846 -0.00256063 0.00157456
v 0.01014616 -0.00158158 0.00136377
v 0.01019836 -0.00052692 0.00124152
v 0.01019836 0.00052774 0.00124152
v 0.01014616 0.00158240 0.00136377
v 0.01005846 0.00256145 0.00157456
v 0.00960325 0.00376732 0.00140171
v 0.00942785 0.00450791 0.00169681
v 0.00948840 0.00556838 0.00993010
v 0.00856337 0.00585531 0.00146495
v 0.00831279 0.00643305 0.00180221
v 0.00886823 0.00580491 0.00253996
v 0.00951972 0.00560328 0.01098403
v 0.00953852 0.00562461 0.01204217
v 0.00955731 0.00564399 0.01309610
v 0.00956566 0.00564981 0.01414581
v 0.00956357 0.00564593 0.01520396
v 0.00956149 0.00564012 0.01625789
v 0.00955104 0.00562461 0.01731182
v 0.00953434 0.00560134 0.01836996
v 0.00951763 0.00557808 0.01942389
v 0.00949466 0.00554900 0.02047782
v 0.00997702 0.00474831 0.02153596
v 0.00980162 0.00474831 0.02470196
v 0.00970765 0.00474831 0.02575589
v 0.00830862 0.00640978 0.02648521
v 0.00816036 0.00624499 0.02718923
v 0.00912089 0.00498677 0.02701639
v 0.00933179 0.00533768 0.02575589
v 0.00889538 0.00586501 0.02575589
v 0.00841720 0.00554124 0.02753492
v 0.00876383 0.00468045 0.02768247
v 0.00418669 0.00245288 0.03278770
v 0.00943202 0.00369365 0.02749698
v 0.00960325 0.00263706 0.02765717
v 0.00971809 0.00158240 0.02774992
v 0.01024639 -0.00158158 0.02722296
v 0.01013154 -0.00263817 0.02702903
v 0.00498017 0.00052774 0.03252211
v 0.00972018 -0.00158158 0.02774992
v 0.00498017 -0.00052692 0.03252211
v 0.00944455 -0.00467963 0.02672129
v 0.00929421 -0.00529033 0.02630815
v 0.01018583 -0.00388282 0.02575589
v 0.00931718 -0.00428220 0.02737472
v 0.01004384 -0.00480177 0.01942389
v 0.01006263 -0.00483085 0.01836996
v 0.01033617 -0.00421434 0.02094154
v 0.01008351 -0.00465831 0.02054527
v 0.01023386 -0.00400302 0.02470196
v 0.00956149 -0.00563930 0.01625789
v 0.00956357 -0.00564511 0.01520396
v 0.00956566 -0.00565093 0.01414581
v 0.00955940 -0.00564511 0.01309610
v 0.00954060 -0.00562572 0.01204217
v 0.00951972 -0.00560440 0.01098403
v 0.00955104 -0.00562379 0.01731182
v 0.00951555 -0.00557726 0.01942389
v 0.00953434 -0.00560052 0.01836996
v 0.00949049 -0.00556950 0.00993010
v 0.00927959 -0.00526512 0.00326084
v 0.00925453 -0.00521860 0.00253996
v 0.00856546 -0.00585449 0.00146073
v 0.00913551 -0.00481534 0.00140171
v 0.00926497 -0.00416782 0.00099701
v 0.00939235 -0.00346406 0.00077779
v 0.00951555 -0.00263817 0.00056700
v 0.00958028 -0.00165913 0.00033092
v 0.00975568 -0.00052692 0.00042788
v 0.00975568 0.00052774 0.00042788
v 0.00957819 0.00165801 0.00033092
v 0.00927750 0.00206126 -0.00008643
v 0.00951555 0.00263706 0.00056700
v 0.00939444 0.00346488 0.00077779
v 0.00926497 0.00416864 0.00099279
v 0.00913342 0.00481616 0.00140171
v 0.00909375 0.00609571 0.00993010
v 0.00837544 0.00650672 0.00253996
v 0.00816871 0.00623918 0.00109818
v 0.00730006 0.00750516 0.00168838
v 0.00790144 0.00703405 0.00253996
v 0.00716224 0.00737526 0.00098436
v 0.00911881 0.00613255 0.01098403
v 0.00913342 0.00615387 0.01204217
v 0.00914595 0.00617326 0.01309610
v 0.00915013 0.00617908 0.01414581
v 0.00914386 0.00617326 0.01520396
v 0.00913760 0.00616745 0.01625789
v 0.00912298 0.00615193 0.01731182
v 0.00908122 0.00610734 0.01942389
v 0.00905616 0.00607826 0.02047782
v 0.00946334 0.00551216 0.02153596
v 0.00937355 0.00539196 0.02470196
v 0.00716224 0.00738302 0.02618589
v 0.00704113 0.00731322 0.02681403
v 0.00776571 0.00674130 0.02682668
v 0.00836708 0.00646601 0.02575589
v 0.00745667 0.00659008 0.02761923
v 0.00892879 0.00591929 0.02470196
v 0.00771768 0.00584174 0.02792698
v 0.00398832 0.00315663 0.03259799
v 0.00305911 0.00227064 0.03374045
v 0.00373565 0.00158240 0.03347064
v 0.00435165 0.00158240 0.03294368
v 0.00445188 0.00052774 0.03303642
v 0.00960325 -0.00263817 0.02765717
v 0.00943202 -0.00369283 0.02749698
v 0.00445188 -0.00052692 0.03303642
v 0.00435165 -0.00158158 0.03294368
v 0.00911881 -0.00498595 0.02701217
v 0.00815827 -0.00624223 0.02718923
v 0.00830862 -0.00640702 0.02648521
v 0.00889120 -0.00586225 0.02575589
v 0.00932970 -0.00533298 0.02575589
v 0.00970348 -0.00474943 0.02575589
v 0.00418669 -0.00245206 0.03278770
v 0.00876383 -0.00467963 0.02767825
v 0.00841511 -0.00553848 0.02753492
v 0.00949466 -0.00554818 0.02047782
v 0.00979327 -0.00474943 0.02470196
v 0.00997075 -0.00474943 0.02153596
v 0.00946543 -0.00550940 0.02153596
v 0.00913133 -0.00616662 0.01625789
v 0.00913969 -0.00617244 0.01520396
v 0.00914804 -0.00617826 0.01414581
v 0.00914804 -0.00617244 0.01309610
v 0.00913551 -0.00615305 0.01204217
v 0.00911881 -0.00613173 0.01098403
v 0.00909584 -0.00609683 0.00993010
v 0.00911881 -0.00615111 0.01731182
v 0.00908122 -0.00610653 0.01942389
v 0.00837753 -0.00650784 0.00253996
v 0.00887450 -0.00580409 0.00253996
v 0.00831488 -0.00643611 0.00179799
v 0.00816871 -0.00624030 0.00109397
v 0.00838588 -0.00553654 0.00071455
v 0.00858842 -0.00477269 0.00038994
v 0.00833994 -0.00443730 -0.00023820
v 0.00906660 -0.00376650 0.00042788
v 0.00920233 -0.00263817 0.00004004
v 0.00927750 -0.00206044 -0.00008643
v 0.00933179 -0.00135669 -0.00017075
v 0.00936938 -0.00052692 -0.00022134
v 0.00936938 0.00052774 -0.00022134
v 0.00933179 0.00135751 -0.00017075
v 0.00920233 0.00263706 0.00004004
v 0.00867404 0.00263706 -0.00053751
v 0.00849864 0.00369365 -0.00040683
v 0.00906660 0.00376732 0.00042788
v 0.00833994 0.00443618 -0.00023820
v 0.00858842 0.00477351 0.00038994
v 0.00838379 0.00553543 0.00071455
v 0.00840258 0.00653774 0.00359810
v 0.00795573 0.00585531 0.00038994
v 0.00720610 0.00637101 -0.00013702
v 0.00741699 0.00661529 0.00042788
v 0.00614533 0.00846094 0.00192025
v 0.00737314 0.00756913 0.00253996
v 0.00603675 0.00838533 0.00121622
v 0.00856754 0.00668896 0.00993010
v 0.00695135 0.00714262 0.00042788
v 0.00618501 0.00744893 -0.00017075
v 0.00642305 0.00765444 0.00042788
v 0.00564628 0.00822829 0.00033514
v 0.00859051 0.00670253 0.01098403
v 0.00860513 0.00670834 0.01204217
v 0.00861975 0.00671222 0.01309610
v 0.00862183 0.00670834 0.01414581
v 0.00861557 0.00669865 0.01520396
v 0.00860931 0.00668896 0.01625789
v 0.00859469 0.00667345 0.01731182
v 0.00857381 0.00665406 0.01836996
v 0.00855293 0.00663467 0.01942389
v 0.00852787 0.00661141 0.02047782
v 0.00902484 0.00603949 0.02153596
v 0.00849864 0.00658233 0.02153596
v 0.00843390 0.00652611 0.02364803
v 0.00840258 0.00649703 0.02470196
v 0.00899352 0.00599878 0.02258989
v 0.00651284 0.00754005 0.02681403
v 0.00760701 0.00706894 0.02580226
v 0.00775109 0.00702435 0.02470196
v 0.00719357 0.00740046 0.02548187
v 0.00664648 0.00789677 0.02153596
v 0.00583421 0.00832911 0.02047782
v 0.00530800 0.00853461 0.02047782
v 0.00521404 0.00849971 0.02118606
v 0.00630612 0.00746832 0.02747168
v 0.00783044 0.00708252 0.02258989
v 0.00779077 0.00705344 0.02364803
v 0.00663604 0.00684987 0.02789747
v 0.00696387 0.00614224 0.02831904
v 0.00204637 0.00321479 0.03374467
v 0.00275007 0.00297439 0.03347908
v 0.00240970 0.00262930 0.03390486
v 0.00242432 0.00158240 0.03427163
v 0.00320736 0.00158240 0.03384163
v 0.00386303 0.00052774 0.03356339
v 0.00386303 -0.00052692 0.03356339
v 0.00373565 -0.00158158 0.03347064
v 0.00776571 -0.00674436 0.02682668
v 0.00745458 -0.00659508 0.02761502
v 0.00716851 -0.00738607 0.02624070
v 0.00836291 -0.00645937 0.02575589
v 0.00892043 -0.00591459 0.02470196
v 0.00937355 -0.00538726 0.02470196
v 0.00305911 -0.00227176 0.03374045
v 0.00398832 -0.00315581 0.03259799
v 0.00771559 -0.00584092 0.02792698
v 0.00905199 -0.00607551 0.02047782
v 0.00860304 -0.00667457 0.01625789
v 0.00861348 -0.00668814 0.01520396
v 0.00861975 -0.00670365 0.01414581
v 0.00859051 -0.00666099 0.01731182
v 0.00861975 -0.00671140 0.01309610
v 0.00860722 -0.00670946 0.01204217
v 0.00859260 -0.00670171 0.01098403
v 0.00856963 -0.00669008 0.00993010
v 0.00857172 -0.00664742 0.01836996
v 0.00855293 -0.00663192 0.01942389
v 0.00852578 -0.00660865 0.02047782
v 0.00790144 -0.00703517 0.00253996
v 0.00729797 -0.00750240 0.00168417
v 0.00716433 -0.00737638 0.00098436
v 0.00741699 -0.00661641 0.00042788
v 0.00720610 -0.00637213 -0.00013702
v 0.00795782 -0.00585449 0.00038994
v 0.00815619 -0.00514105 0.00001053
v 0.00740655 -0.00580409 -0.00033516
v 0.00776362 -0.00477269 -0.00054173
v 0.00849864 -0.00369283 -0.00040683
v 0.00867404 -0.00263817 -0.00053751
v 0.00885779 -0.00165913 -0.00052487
v 0.00875756 -0.00052692 -0.00070614
v 0.00875756 0.00052774 -0.00070614
v 0.00885779 0.00165801 -0.00052487
v 0.00770098 0.00369365 -0.00089163
v 0.00235332 0.00580491 -0.00356861
v 0.00136982 0.00685956 -0.00394381
v 0.00218628 0.00685956 -0.00347587
v 0.00776362 0.00477351 -0.00054173
v 0.00740655 0.00580491 -0.00033516
v 0.00815619 0.00513993 0.00001053
v 0.00197746 0.00743148 -0.00334096
v 0.00658175 0.00677814 -0.00034781
v 0.00564628 0.00866256 0.00153662
v 0.00558990 0.00874981 0.00253996
v 0.00616204 0.00846869 0.00253996
v 0.00668824 0.00809646 0.00253996
v 0.00748799 0.00762535 0.00887196
v 0.00803299 0.00721629 0.00993010
v 0.00801419 0.00719496 0.00887196
v 0.00533306 0.00860440 0.00062181
v 0.00504699 0.00843186 -0.00008222
v 0.00804343 0.00722986 0.01098403
v 0.00804760 0.00723567 0.01204217
v 0.00804760 0.00723955 0.01309610
v 0.00804134 0.00723567 0.01414581
v 0.00802672 0.00722598 0.01520396
v 0.00801211 0.00721629 0.01625789
v 0.00799123 0.00720078 0.01731182
v 0.00793902 0.00716200 0.01942389
v 0.00790770 0.00713874 0.02047782
v 0.00786803 0.00711160 0.02153596
v -0.00073917 0.00905612 0.02470196
v 0.00453540 0.00876532 0.02047782
v 0.00347882 0.00901541 0.02047782
v 0.00242432 0.00919183 0.02047782
v 0.00730215 0.00747414 0.02258989
v 0.00734182 0.00749934 0.02153596
v 0.00737941 0.00752454 0.02047782
v 0.00664648 0.00793943 0.02047782
v 0.00664648 0.00797820 0.01942389
v 0.00591355 0.00836400 0.01836996
v 0.00607434 0.00842604 0.01414581
v 0.00568595 0.00860634 0.01305816
v 0.00554605 0.00862573 0.01414581
v 0.00558990 0.00866838 0.01204217
v 0.00453540 0.00903674 0.01204217
v 0.00453540 0.00900378 0.01309610
v -0.00179575 0.00912010 0.02470196
v -0.00179575 0.00876725 0.02552824
v -0.00073917 0.00299765 0.03451614
v 0.00031533 0.00284256 0.03444447
v 0.00031533 0.00231523 0.03479859
v 0.00089582 0.00216401 0.03474801
v 0.00161413 0.00158240 0.03462996
v 0.00181877 0.00074294 0.03470163
v 0.00232200 0.00044437 0.03449506
v 0.00333474 0.00052774 0.03392594
v 0.00333474 -0.00052692 0.03392594
v 0.00320736 -0.00158158 0.03384163
v 0.00704949 -0.00731822 0.02681403
v 0.00631029 -0.00746556 0.02747168
v 0.00696387 -0.00614142 0.02831904
v 0.00663604 -0.00685099 0.02789747
v 0.00760701 -0.00706619 0.02583599
v 0.00652328 -0.00753729 0.02681403
v 0.00521195 -0.00849889 0.02118184
v 0.00530591 -0.00853379 0.02047782
v 0.00583421 -0.00833022 0.02047782
v 0.00664648 -0.00789595 0.02153596
v 0.00730215 -0.00747331 0.02258989
v 0.00790561 -0.00713598 0.02047782
v 0.00775109 -0.00701578 0.02470196
v 0.00901649 -0.00603867 0.02153596
v 0.00275007 -0.00297551 0.03348329
v 0.00242432 -0.00158158 0.03427163
v 0.00240970 -0.00262848 0.03390486
v 0.00204637 -0.00321591 0.03374467
v 0.00803508 -0.00723098 0.01414581
v 0.00804760 -0.00723873 0.01309610
v 0.00804760 -0.00723679 0.01204217
v 0.00804343 -0.00722904 0.01098403
v 0.00803508 -0.00721741 0.00993010
v 0.00801628 -0.00719608 0.00887196
v 0.00737314 -0.00756831 0.00253996
v 0.00795573 -0.00717475 0.01836996
v 0.00801628 -0.00721741 0.01520396
v 0.00793485 -0.00715924 0.01942389
v 0.00614533 -0.00846012 0.00192025
v 0.00603675 -0.00838645 0.00121622
v 0.00564836 -0.00822941 0.00033514
v 0.00642514 -0.00765555 0.00042788
v 0.00618501 -0.00745005 -0.00017075
v 0.00695343 -0.00714373 0.00042788
v 0.00658175 -0.00677732 -0.00034781
v 0.00197746 -0.00743066 -0.00334096
v 0.00218628 -0.00685874 -0.00347587
v 0.00770098 -0.00369283 -0.00089163
v 0.00136982 -0.00685874 -0.00394381
v 0.00235332 -0.00580409 -0.00356861
v 0.00136982 -0.00580409 -0.00405763
v 0.00136982 0.00580491 -0.00405763
v -0.00752971 0.00539196 -0.00751873
v -0.00547292 0.00741210 -0.00644373
v -0.00428896 0.00855012 -0.00547833
v -0.00224887 0.00954080 -0.00333675
v 0.00434329 0.00863348 -0.00032673
v 0.00453540 0.00915887 0.00148603
v 0.00453540 0.00917826 0.00253996
v 0.00558990 0.00874787 0.00465203
v 0.00616830 0.00847257 0.00570596
v 0.00751931 0.00763311 0.01204217
v 0.00751514 0.00763311 0.01098403
v 0.00750678 0.00763117 0.00993010
v 0.00463145 0.00883317 0.00033514
v 0.00348508 0.00936438 0.00035200
v 0.00292129 0.00948845 -0.00005271
v 0.00752140 0.00762923 0.01309610
v 0.00751305 0.00762148 0.01414581
v 0.00750052 0.00760985 0.01520396
v 0.00748381 0.00759627 0.01625789
v 0.00746293 0.00758076 0.01731182
v 0.00743788 0.00756332 0.01836996
v 0.00741073 0.00754587 0.01942389
v -0.00073917 0.00921122 0.02364803
v 0.00347882 0.00925581 0.01309610
v 0.00294217 0.00949815 0.00829862
v 0.00275842 0.00947488 0.00993010
v 0.00263731 0.00945937 0.01098403
v 0.00250158 0.00944386 0.01204217
v 0.00210901 0.00952529 0.01098403
v 0.00197329 0.00950784 0.01204217
v 0.00189812 0.00949815 0.01257335
v 0.00136982 0.00929458 0.02047782
v 0.00664648 0.00801116 0.01836996
v 0.00610148 0.00843574 0.01338277
v 0.00664648 0.00804412 0.01731182
v 0.00612445 0.00844543 0.01267875
v 0.00558990 0.00868389 0.01098403
v 0.00453540 0.00916469 0.00570596
v 0.00453540 0.00914724 0.00676410
v 0.00347882 0.00931785 0.01098403
v 0.00347882 0.00928877 0.01204217
v 0.00364169 0.00941866 0.00570596
v 0.00357905 0.00940897 0.00676410
v -0.00285025 0.00887582 0.02470196
v -0.00285025 0.00860053 0.02538912
v -0.00073917 0.00925581 0.02258989
v -0.00179575 0.00916081 0.02364803
v -0.00285025 0.00900765 0.02364803
v -0.00565458 0.00644468 0.02850453
v -0.00361867 0.00743536 0.02739580
v -0.00179575 0.00296082 0.03449928
v -0.00179575 0.00243349 0.03484075
v -0.00073917 0.00247033 0.03485340
v -0.00073917 0.00158240 0.03508948
v 0.00031533 0.00158240 0.03497987
v 0.00108793 0.00158240 0.03480702
v 0.00190438 0.00003918 0.03473114
v 0.00142620 0.00044437 0.03484918
v 0.00190438 -0.00003836 0.03473114
v 0.00232200 -0.00044549 0.03449506
v -0.00179575 -0.00876643 0.02552824
v -0.00179575 -0.00911928 0.02470196
v -0.00073917 -0.00905530 0.02470196
v -0.00073917 -0.00299683 0.03451614
v 0.00242432 -0.00916969 0.02047782
v 0.00347882 -0.00899520 0.02047782
v 0.00453540 -0.00877031 0.02047782
v 0.00587388 -0.00834767 0.01942389
v 0.00453540 -0.00897194 0.01414581
v 0.00453540 -0.00900490 0.01309610
v 0.00453540 -0.00903591 0.01204217
v 0.00547296 -0.00859970 0.01625789
v 0.00664648 -0.00797544 0.01942389
v 0.00664648 -0.00793860 0.02047782
v 0.00737732 -0.00752372 0.02047782
v 0.00733973 -0.00749852 0.02153596
v 0.00181877 -0.00074212 0.03470163
v 0.00161622 -0.00158158 0.03462996
v 0.00089791 -0.00216513 0.03474801
v 0.00031533 -0.00231635 0.03479859
v 0.00031533 -0.00284368 0.03444447
v 0.00750678 -0.00761678 0.01414581
v 0.00751931 -0.00762841 0.01309610
v 0.00752140 -0.00763229 0.01204217
v 0.00751722 -0.00763229 0.01098403
v 0.00750678 -0.00762841 0.00993010
v 0.00748799 -0.00762066 0.00887196
v 0.00668824 -0.00809564 0.00253996
v 0.00742952 -0.00755862 0.01836996
v 0.00744832 -0.00757413 0.01731182
v 0.00748799 -0.00760321 0.01520396
v 0.00740864 -0.00754311 0.01942389
v 0.00564836 -0.00866368 0.00153240
v 0.00615995 -0.00846787 0.00253996
v 0.00558990 -0.00874899 0.00253996
v 0.00533515 -0.00860358 0.00062181
v 0.00504699 -0.00843298 -0.00008222
v -0.00224887 -0.00953998 -0.00333675
v -0.00428687 -0.00855318 -0.00548255
v 0.00434329 -0.00863460 -0.00032673
v -0.00547083 -0.00741709 -0.00644373
v -0.00752971 -0.00538726 -0.00751873
v -0.00749630 -0.00474943 -0.00753560
v -0.00812900 -0.00263817 -0.00778854
v -0.00812900 0.00263706 -0.00778433
v -0.00750047 0.00474831 -0.00753138
v -0.00812900 0.00369365 -0.00772952
v -0.00770511 0.00539196 -0.00751873
v -0.00664435 0.00747220 -0.00651961
v -0.00601791 0.00747026 -0.00650696
v -0.00496133 0.00852685 -0.00546147
v -0.00253495 0.00954080 -0.00333675
v -0.00179575 0.00971722 -0.00167997
v 0.00031533 0.00990140 0.00042788
v 0.00136982 0.00983936 0.00042788
v 0.00221760 0.00958733 -0.00024663
v 0.00375445 0.00942448 0.00148603
v 0.00313845 0.00955437 0.00065132
v 0.00453540 0.00917245 0.00465203
v 0.00558990 0.00874593 0.00570596
v 0.00616622 0.00847063 0.00676410
v 0.00666736 0.00816044 0.01098403
v 0.00667571 0.00815850 0.00993010
v 0.00251202 0.00964549 0.00035200
v 0.00665901 0.00816044 0.01204217
v 0.00654416 0.00821084 0.01305816
v 0.00664648 0.00813136 0.01414581
v 0.00664648 0.00810422 0.01520396
v 0.00664648 0.00807514 0.01625789
v 0.00031533 0.00927907 0.02153596
v 0.00031533 0.00932948 0.02047782
v 0.00299437 0.00950784 0.00759460
v 0.00242432 0.00963774 0.00570596
v 0.00242432 0.00960865 0.00676410
v 0.00136982 0.00975212 0.00570596
v 0.00136982 0.00972110 0.00676410
v 0.00136982 0.00965906 0.00887196
v 0.00136982 0.00962610 0.00993010
v 0.00136982 0.00959314 0.01098403
v 0.00088747 0.00950203 0.01478239
v 0.00613072 0.00844931 0.01204217
v 0.00558990 0.00873817 0.00676410
v 0.00373357 0.00942642 0.00253996
v 0.00368345 0.00942448 0.00465203
v 0.00305075 0.00951947 0.00676410
v 0.00322824 0.00957570 0.00148603
v 0.00315725 0.00954468 0.00465203
v 0.00311548 0.00953304 0.00570596
v -0.00390683 0.00872073 0.02364803
v -0.00446854 0.00846482 0.02420451
v 0.00031533 0.00966294 0.00993010
v 0.00031533 0.00969590 0.00887196
v 0.00031533 0.00972692 0.00781803
v -0.00073917 0.00962804 0.00993010
v -0.00131549 0.00950396 0.01275885
v -0.00140736 0.00951560 0.01204217
v -0.00167882 0.00954855 0.00993010
v -0.00188137 0.00955631 0.00888460
v -0.00229064 0.00949427 0.00924716
v -0.00073917 0.00965906 0.00887196
v -0.00390683 0.00875562 0.02258989
v -0.00234701 0.00950396 0.00854313
v -0.00276046 0.00940121 0.00888460
v -0.00291289 0.00939152 0.00781803
v -0.00673205 0.00547533 0.02854248
v -0.00664226 0.00322061 0.03170004
v -0.00562744 0.00322061 0.03272025
v -0.00446645 0.00317989 0.03368986
v -0.00390683 0.00321673 0.03376574
v -0.00649818 0.00728996 0.02278381
v -0.00627893 0.00610928 0.02786796
v -0.00256627 0.00228227 0.03478595
v -0.00179575 0.00158240 0.03505997
v -0.00179575 0.00052774 0.03520752
v -0.00073917 0.00052774 0.03523281
v 0.00031533 0.00052774 0.03511899
v 0.00142620 -0.00044549 0.03484918
v -0.00361867 -0.00743648 0.02739580
v -0.00565458 -0.00644580 0.02850453
v -0.00285025 -0.00859970 0.02538491
v -0.00179575 -0.00296000 0.03449928
v -0.00285025 -0.00887500 0.02470196
v -0.00285025 -0.00900683 0.02364803
v -0.00179575 -0.00915999 0.02364803
v -0.00073917 -0.00925499 0.02258989
v -0.00073917 -0.00921040 0.02364803
v -0.00073917 -0.00246951 0.03485340
v -0.00179575 -0.00243267 0.03484075
v 0.00136982 -0.00929570 0.02047782
v 0.00242432 -0.00920846 0.01942389
v 0.00347882 -0.00903591 0.01942389
v 0.00347882 -0.00925499 0.01309610
v 0.00595949 -0.00837869 0.01731182
v 0.00347882 -0.00928795 0.01204217
v 0.00347882 -0.00931897 0.01098403
v 0.00347882 -0.00934805 0.00993010
v 0.00358113 -0.00940815 0.00676410
v 0.00453540 -0.00906112 0.01098403
v 0.00558990 -0.00867144 0.01204217
v 0.00554813 -0.00863266 0.01414581
v 0.00551055 -0.00861715 0.01520396
v 0.00600125 -0.00839420 0.01625789
v 0.00610357 -0.00843685 0.01338277
v 0.00664648 -0.00800840 0.01836996
v 0.00108793 -0.00158158 0.03480702
v 0.00031533 -0.00158158 0.03497987
v -0.00073917 -0.00158158 0.03508948
v 0.00664648 -0.00812666 0.01414581
v 0.00654416 -0.00821002 0.01305816
v 0.00666110 -0.00815962 0.01204217
v 0.00667363 -0.00815962 0.01098403
v 0.00667989 -0.00815574 0.00993010
v 0.00616830 -0.00847175 0.00570596
v 0.00616204 -0.00846981 0.00359810
v 0.00664648 -0.00806850 0.01625789
v 0.00664648 -0.00809758 0.01520396
v 0.00453540 -0.00916193 0.00148603
v 0.00558990 -0.00874705 0.00465203
v 0.00453540 -0.00917744 0.00253996
v 0.00348299 -0.00936743 0.00035622
v 0.00463145 -0.00883623 0.00033514
v 0.00292129 -0.00948957 -0.00004849
v -0.00253077 -0.00953998 -0.00333675
v 0.00221760 -0.00958845 -0.00024663
v 0.00136982 -0.00984242 0.00042788
v 0.00031533 -0.00990058 0.00042788
v -0.00179575 -0.00971640 -0.00167997
v -0.00496133 -0.00852991 -0.00546568
v -0.00664852 -0.00747525 -0.00652804
v -0.00601791 -0.00747525 -0.00651118
v -0.00770511 -0.00538726 -0.00751873
v -0.00812900 -0.00369283 -0.00773374
v -0.00904359 -0.00263817 -0.00774217
v -0.00918349 -0.00052692 -0.00782648
v -0.00918349 0.00052774 -0.00783070
v -0.00904776 0.00263706 -0.00774217
v -0.00888907 0.00369365 -0.00768315
v -0.00875543 0.00440904 -0.00758619
v -0.00766752 0.00641754 -0.00659128
v -0.00722902 0.00698752 -0.00590412
v -0.00670073 0.00752454 -0.00590412
v -0.00549798 0.00844931 -0.00538980
v -0.00390683 0.00916275 -0.00379205
v -0.00318644 0.00945356 -0.00273812
v -0.00265814 0.00957570 -0.00273812
v -0.00179575 0.00975018 -0.00062604
v -0.00073917 0.00986650 0.00042788
v 0.00031533 0.00988007 0.00148603
v 0.00136982 0.00980059 0.00359810
v 0.00136982 0.00983742 0.00148603
v 0.00242432 0.00972110 0.00148603
v 0.00614742 0.00845900 0.00993010
v 0.00615577 0.00846288 0.00887196
v 0.00616204 0.00846675 0.00781803
v 0.00242432 0.00966100 0.00465203
v 0.00136982 0.00977732 0.00465203
v 0.00031533 0.00983742 0.00359810
v 0.00031533 0.00975600 0.00676410
v -0.00453327 0.00849196 0.02364803
v -0.00459591 0.00851522 0.02258989
v -0.00512420 0.00826707 0.02258989
v -0.00609518 0.00766994 0.02249293
v -0.00073917 0.00968814 0.00781803
v -0.00179575 0.00959314 0.00781803
v -0.00390683 0.00878083 0.02153596
v -0.00179575 0.00961641 0.00676410
v -0.00179575 0.00963967 0.00570596
v -0.00179575 0.00968426 0.00359810
v -0.00179575 0.00972692 0.00148603
v -0.00238460 0.00951172 0.00781803
v -0.00243472 0.00952335 0.00676410
v -0.00247857 0.00953498 0.00570596
v -0.00296092 0.00940121 0.00676410
v -0.00390683 0.00907745 0.00887196
v -0.00390683 0.00902898 0.01098403
v -0.00390683 0.00880603 0.02047782
v -0.00683645 0.00558195 0.02786796
v -0.00740442 0.00473862 0.02796071
v -0.00760279 0.00316826 0.03051121
v -0.00633113 0.00289684 0.03240407
v -0.00599495 0.00258277 0.03289731
v -0.00522234 0.00263706 0.03346643
v -0.00545204 0.00201085 0.03364770
v -0.00469405 0.00263706 0.03382476
v -0.00326996 0.00198953 0.03470163
v -0.00654830 0.00738883 0.02207979
v -0.00289201 0.00161536 0.03487026
v -0.00285025 0.00052774 0.03503467
v -0.00179575 -0.00052692 0.03520752
v -0.00073917 -0.00052692 0.03523703
v 0.00031533 -0.00052692 0.03511899
v -0.00390683 -0.00322366 0.03377418
v -0.00448315 -0.00318877 0.03370251
v -0.00562535 -0.00321785 0.03272025
v -0.00664017 -0.00321785 0.03169583
v -0.00673205 -0.00547644 0.02854248
v -0.00627475 -0.00611040 0.02786796
v -0.00597615 -0.00773504 0.02258989
v -0.00446854 -0.00846399 0.02420451
v -0.00256627 -0.00228145 0.03478595
v -0.00390683 -0.00872184 0.02364803
v -0.00390683 -0.00875674 0.02258989
v -0.00285025 -0.00935192 0.00993010
v -0.00275837 -0.00940039 0.00888039
v -0.00234493 -0.00950314 0.00853048
v -0.00229064 -0.00949345 0.00923451
v -0.00141572 -0.00951671 0.01204217
v -0.00132175 -0.00950508 0.01278836
v -0.00073917 -0.00962722 0.00993010
v -0.00168091 -0.00954967 0.00993010
v 0.00031533 -0.00932866 0.02047782
v 0.00031533 -0.00966212 0.00993010
v 0.00031533 -0.00928019 0.02153596
v -0.00179575 -0.00158158 0.03505997
v 0.00087912 -0.00950121 0.01475709
v 0.00136982 -0.00959426 0.01098403
v 0.00190229 -0.00949927 0.01258600
v 0.00197538 -0.00950896 0.01204217
v 0.00250367 -0.00944304 0.01204217
v 0.00263940 -0.00946049 0.01098403
v 0.00276677 -0.00947600 0.00993010
v 0.00294635 -0.00949733 0.00831548
v 0.00299646 -0.00950702 0.00761567
v 0.00305284 -0.00951865 0.00676410
v 0.00310296 -0.00953222 0.00570596
v 0.00313219 -0.00954192 0.00465203
v 0.00363125 -0.00941202 0.00570596
v 0.00453540 -0.00914642 0.00676410
v 0.00453540 -0.00910765 0.00887196
v 0.00453540 -0.00908438 0.00993010
v 0.00612445 -0.00844655 0.01267875
v 0.00568804 -0.00860940 0.01305816
v 0.00558990 -0.00870246 0.00993010
v 0.00613489 -0.00845042 0.01204217
v 0.00614533 -0.00845624 0.01098403
v 0.00615160 -0.00846012 0.00993010
v 0.00615786 -0.00846399 0.00887196
v 0.00616622 -0.00847175 0.00676410
v 0.00374192 -0.00942559 0.00148603
v 0.00313219 -0.00954773 0.00065553
v 0.00558990 -0.00874511 0.00570596
v 0.00453540 -0.00915611 0.00570596
v 0.00251202 -0.00964467 0.00035622
v -0.00265397 -0.00957294 -0.00273812
v -0.00318226 -0.00945274 -0.00273812
v -0.00390683 -0.00916581 -0.00379205
v -0.00550006 -0.00845042 -0.00539402
v 0.00242432 -0.00971834 0.00148603
v 0.00136982 -0.00984048 0.00148603
v -0.00073917 -0.00986568 0.00042788
v 0.00136982 -0.00979977 0.00359810
v 0.00136982 -0.00977844 0.00465203
v 0.00031533 -0.00983466 0.00359810
v -0.00179575 -0.00975130 -0.00062604
v -0.00766961 -0.00641866 -0.00659128
v -0.00875334 -0.00440822 -0.00758197
v -0.00670490 -0.00752760 -0.00590412
v -0.00888907 -0.00369283 -0.00768315
v -0.00973684 -0.00122679 -0.00752717
v -0.00976607 -0.00052692 -0.00756932
v -0.00976816 0.00052774 -0.00757354
v -0.00973893 0.00125088 -0.00753138
v -0.00915426 0.00369365 -0.00695804
v -0.00881807 0.00454281 -0.00695804
v -0.00813944 0.00580491 -0.00590412
v -0.00769884 0.00646019 -0.00590412
v -0.00723320 0.00698364 -0.00484597
v -0.00670490 0.00753423 -0.00484597
v -0.00602836 0.00806156 -0.00484597
v -0.00550215 0.00845124 -0.00484597
v -0.00496133 0.00873430 -0.00379205
v -0.00390683 0.00921122 -0.00273812
v -0.00320105 0.00945162 -0.00167997
v -0.00267276 0.00958539 -0.00167997
v -0.00264353 0.00957763 0.00042788
v -0.00262473 0.00957376 0.00148603
v -0.00179575 0.00974049 0.00042788
v -0.00073917 0.00984130 0.00148603
v -0.00073917 0.00979089 0.00359810
v -0.00073917 0.00974049 0.00570596
v -0.00467735 0.00855206 0.01942389
v -0.00515135 0.00827870 0.02153596
v -0.00601791 0.00775719 0.02153596
v -0.00259341 0.00956600 0.00253996
v -0.00308412 0.00942642 0.00359810
v -0.00300477 0.00940897 0.00570596
v -0.00390683 0.00909684 0.00781803
v -0.00487154 0.00865675 0.00993010
v -0.00482978 0.00863348 0.01204217
v -0.00476714 0.00859859 0.01520396
v -0.00472329 0.00857532 0.01731182
v -0.00470032 0.00856369 0.01836996
v -0.00770929 0.00437995 0.02766982
v -0.00797865 0.00379253 0.02796071
v -0.00839419 0.00257114 0.02887130
v -0.00800162 0.00263706 0.02998003
v -0.00771764 0.00263706 0.03072621
v -0.00756312 0.00195851 0.03149769
v -0.00738145 0.00263706 0.03125318
v -0.00681349 0.00258277 0.03206681
v -0.00658171 0.00219309 0.03265280
v -0.00557524 0.00130710 0.03373202
v -0.00504485 0.00162893 0.03397653
v -0.00596362 0.00162893 0.03333996
v -0.00387760 0.00161536 0.03455830
v -0.00350800 0.00128577 0.03477751
v -0.00655247 0.00739465 0.02153596
v -0.00766752 0.00641366 0.00993010
v -0.00691371 0.00685956 0.02153596
v -0.00776149 0.00445750 0.02681403
v -0.00543324 0.00841247 0.00781803
v -0.00285025 -0.00052692 0.03503467
v -0.00361659 0.00052774 0.03481967
v -0.00326996 -0.00199064 0.03470163
v -0.00470658 -0.00263817 0.03383319
v -0.00545204 -0.00201003 0.03364770
v -0.00523487 -0.00263817 0.03346643
v -0.00599286 -0.00258195 0.03289731
v -0.00632904 -0.00289602 0.03239985
v -0.00761323 -0.00317520 0.03052808
v -0.00740442 -0.00473973 0.02796071
v -0.00683645 -0.00558113 0.02786796
v -0.00650444 -0.00730659 0.02258989
v -0.00654203 -0.00738220 0.02189851
v -0.00612023 -0.00767882 0.02154018
v -0.00512838 -0.00826431 0.02258989
v -0.00453536 -0.00849308 0.02364803
v -0.00289201 -0.00161647 0.03487026
v -0.00460009 -0.00851634 0.02258989
v -0.00390683 -0.00878194 0.02153596
v -0.00290454 -0.00938876 0.00781803
v -0.00237625 -0.00951090 0.00781803
v -0.00179575 -0.00972610 0.00148603
v -0.00179575 -0.00958845 0.00781803
v -0.00188137 -0.00955355 0.00888039
v -0.00073917 -0.00965630 0.00887196
v 0.00031533 -0.00980946 0.00465203
v 0.00031533 -0.00975130 0.00676410
v 0.00031533 -0.00969314 0.00887196
v -0.00073917 -0.00984048 0.00148603
v 0.00136982 -0.00969314 0.00781803
v 0.00136982 -0.00962722 0.00993010
v 0.00223848 -0.00954192 0.00993010
v 0.00242432 -0.00960977 0.00676410
v 0.00242432 -0.00963885 0.00570596
v 0.00321363 -0.00956712 0.00148603
v 0.00371686 -0.00942366 0.00253996
v 0.00558990 -0.00873735 0.00676410
v -0.00267067 -0.00958457 -0.00167997
v -0.00390683 -0.00921040 -0.00273812
v -0.00319896 -0.00945274 -0.00167997
v -0.00496133 -0.00873735 -0.00379205
v -0.00550633 -0.00845236 -0.00484597
v -0.00603253 -0.00806462 -0.00484597
v -0.00179575 -0.00974160 0.00042788
v 0.00136982 -0.00975324 0.00570596
v -0.00264770 -0.00957875 0.00042788
v -0.00266023 -0.00958263 -0.00062604
v -0.00723320 -0.00698670 -0.00590412
v -0.00770302 -0.00645937 -0.00590412
v -0.00814361 -0.00580409 -0.00590412
v -0.00881390 -0.00454199 -0.00695804
v -0.00915635 -0.00369283 -0.00695804
v -0.00670699 -0.00753729 -0.00484597
v -0.00946956 -0.00263817 -0.00695804
v -0.00965540 -0.00184136 -0.00695804
v -0.00974937 -0.00131403 -0.00695804
v -0.00981828 -0.00052692 -0.00695804
v -0.00982245 0.00052774 -0.00695804
v -0.00975355 0.00134781 -0.00695804
v -0.00966376 0.00187514 -0.00695804
v -0.00947374 0.00263706 -0.00695804
v -0.00950715 0.00263706 -0.00590412
v -0.00918558 0.00369365 -0.00590412
v -0.00882851 0.00457576 -0.00590412
v -0.00856750 0.00510503 -0.00590412
v -0.00769467 0.00645050 -0.00167997
v -0.00769676 0.00645244 -0.00273812
v -0.00855079 0.00507207 0.00570596
v -0.00810394 0.00580491 0.00465203
v -0.00723111 0.00698170 -0.00379205
v -0.00670073 0.00753230 -0.00273812
v -0.00602836 0.00806156 -0.00379205
v -0.00603253 0.00805769 -0.00167997
v -0.00550424 0.00845318 -0.00167997
v -0.00496133 0.00873623 -0.00273812
v -0.00496133 0.00873623 -0.00167997
v -0.00390683 0.00920734 -0.00167997
v -0.00390683 0.00919765 0.00042788
v -0.00390683 0.00918989 0.00148603
v -0.00317182 0.00944580 0.00042788
v -0.00315303 0.00944192 0.00148603
v -0.00522861 0.00831166 0.01836996
v -0.00517849 0.00829033 0.02047782
v -0.00527246 0.00833298 0.01625789
v -0.00529543 0.00834268 0.01520396
v -0.00533719 0.00836400 0.01309610
v -0.00535807 0.00837370 0.01204217
v -0.00537895 0.00838339 0.01098403
v -0.00539775 0.00839308 0.00993010
v -0.00541654 0.00840278 0.00887196
v -0.00312170 0.00943417 0.00253996
v -0.00390683 0.00911428 0.00676410
v -0.00489033 0.00866838 0.00887196
v -0.00851947 0.00281736 0.02786796
v -0.00818955 0.00369365 0.02681403
v -0.00867608 0.00217564 0.02848345
v -0.00859256 0.00181698 0.02918748
v -0.00842968 0.00151260 0.02989572
v -0.00786381 0.00159791 0.03110141
v -0.00764873 0.00125476 0.03163259
v -0.00725408 0.00159791 0.03202887
v -0.00666941 0.00158240 0.03274554
v -0.00617661 0.00052774 0.03336947
v -0.00565041 0.00052774 0.03378682
v -0.00496133 0.00052774 0.03419575
v -0.00414488 0.00052774 0.03461310
v -0.00656291 0.00740240 0.02047782
v -0.00717473 0.00694099 0.00993010
v -0.00601791 0.00799371 0.00781803
v -0.00718308 0.00694681 0.00887196
v -0.00719143 0.00694875 0.00781803
v -0.00719770 0.00695262 0.00676410
v -0.00767379 0.00642142 0.00781803
v -0.00808515 0.00580491 0.00887196
v -0.00805174 0.00580491 0.00993010
v -0.00854453 0.00506044 0.00887196
v -0.00880972 0.00453311 0.00887196
v -0.00490495 0.00867807 0.00781803
v -0.00491748 0.00868583 0.00676410
v -0.00493836 0.00869940 0.00465203
v -0.00496133 0.00872266 0.00148603
v -0.00544368 0.00841829 0.00676410
v -0.00361659 -0.00052692 0.03481967
v -0.00350800 -0.00128689 0.03477751
v -0.00387760 -0.00161647 0.03455830
v -0.00504485 -0.00162811 0.03397653
v -0.00557524 -0.00130628 0.03373202
v -0.00596362 -0.00162811 0.03333996
v -0.00658171 -0.00219227 0.03265280
v -0.00681140 -0.00258195 0.03206681
v -0.00772599 -0.00263817 0.03073886
v -0.00801206 -0.00263817 0.02998003
v -0.00839001 -0.00256838 0.02887130
v -0.00797448 -0.00379171 0.02796071
v -0.00771137 -0.00438301 0.02766982
v -0.00737936 -0.00263817 0.03126583
v -0.00756312 -0.00195769 0.03149769
v -0.00776566 -0.00446250 0.02681403
v -0.00683437 -0.00696150 0.02154018
v -0.00766752 -0.00641478 0.00993010
v -0.00655038 -0.00738995 0.02119449
v -0.00601791 -0.00781259 0.01836996
v -0.00601791 -0.00776994 0.02047782
v -0.00515344 -0.00827788 0.02153596
v -0.00390683 -0.00880715 0.02047782
v -0.00465229 -0.00854154 0.02047782
v -0.00390683 -0.00907469 0.00887196
v -0.00390683 -0.00905142 0.00993010
v -0.00294839 -0.00939845 0.00676410
v -0.00258715 -0.00956324 0.00253996
v -0.00262473 -0.00957294 0.00148603
v -0.00390683 -0.00920652 -0.00167997
v -0.00496133 -0.00872960 0.00042788
v -0.00496133 -0.00873348 -0.00167997
v -0.00317391 -0.00944692 0.00042788
v -0.00390683 -0.00919877 0.00042788
v -0.00550424 -0.00845236 -0.00273812
v -0.00550215 -0.00845236 -0.00167997
v -0.00550215 -0.00845042 -0.00062604
v -0.00603044 -0.00805299 -0.00062604
v -0.00315303 -0.00944111 0.00148603
v -0.00723528 -0.00698476 -0.00484597
v -0.00770093 -0.00645743 -0.00484597
v -0.00856959 -0.00510615 -0.00590412
v -0.00810603 -0.00580409 0.00465203
v -0.00854662 -0.00506738 0.00887196
v -0.00882642 -0.00457688 -0.00590412
v -0.00918767 -0.00369283 -0.00590412
v -0.00950715 -0.00263817 -0.00590412
v -0.00669864 -0.00752760 -0.00167997
v -0.00670490 -0.00753341 -0.00379205
v -0.00667985 -0.00751015 0.00465203
v -0.00967211 -0.00184330 -0.00590412
v -0.00982036 -0.00052692 -0.00590412
v -0.00975146 -0.00131985 -0.00379205
v -0.00982454 0.00052774 -0.00379205
v -0.00967629 0.00187320 -0.00590412
v -0.00982663 0.00052774 0.00570596
v -0.00975564 0.00134200 0.00253996
v -0.00950715 0.00263706 -0.00379205
v -0.00950506 0.00263706 0.00042788
v -0.00950088 0.00263706 0.00465203
v -0.00917723 0.00369365 -0.00062604
v -0.00916679 0.00369365 0.00570596
v -0.00881390 0.00454475 0.00570596
v -0.00855288 0.00507401 0.00465203
v -0.00722693 0.00698170 -0.00273812
v -0.00809559 0.00580491 0.00676410
v -0.00767588 0.00642529 0.00676410
v -0.00854871 0.00506820 0.00676410
v -0.00669446 0.00752842 -0.00062604
v -0.00602836 0.00805381 0.00042788
v -0.00550424 0.00845124 -0.00062604
v -0.00496133 0.00872848 0.00042788
v -0.00390683 0.00917632 0.00253996
v -0.00390683 0.00913173 0.00570596
v -0.00855706 0.00290654 0.02681403
v -0.00871784 0.00229003 0.02786796
v -0.00873246 0.00151260 0.02887130
v -0.00887863 0.00158240 0.02786796
v -0.00866982 0.00111323 0.02948679
v -0.00850694 0.00052774 0.03010229
v -0.00807470 0.00052774 0.03103396
v -0.00769676 0.00052774 0.03170426
v -0.00729375 0.00052774 0.03223122
v -0.00676546 0.00052774 0.03284250
v -0.00617661 -0.00052692 0.03336947
v -0.00565041 -0.00052692 0.03378682
v -0.00496133 -0.00052692 0.03419575
v -0.00414488 -0.00052692 0.03461310
v -0.00660050 0.00743536 0.01625789
v -0.00666314 0.00749740 0.00781803
v -0.00667149 0.00750322 0.00676410
v -0.00662556 0.00745863 0.01309610
v -0.00547501 0.00843574 0.00359810
v -0.00548962 0.00844349 0.00205515
v -0.00601791 0.00800534 0.00676410
v -0.00667567 0.00750903 0.00570596
v -0.00722484 0.00697783 -0.00167997
v -0.00916261 0.00369365 0.00676410
v -0.00915426 0.00369365 0.00887196
v -0.00550006 0.00844931 0.00042788
v -0.00549380 0.00844543 0.00148603
v -0.00666941 -0.00158158 0.03274554
v -0.00725408 -0.00159709 0.03202887
v -0.00842968 -0.00151178 0.02989572
v -0.00859256 -0.00181810 0.02918748
v -0.00786381 -0.00159709 0.03110141
v -0.00867608 -0.00217094 0.02848345
v -0.00851112 -0.00281266 0.02786796
v -0.00819373 -0.00369283 0.02681403
v -0.00764873 -0.00125393 0.03163259
v -0.00805174 -0.00580409 0.00993010
v -0.00808932 -0.00580409 0.00887196
v -0.00767379 -0.00642253 0.00781803
v -0.00720396 -0.00695568 0.00570596
v -0.00719561 -0.00695374 0.00676410
v -0.00718099 -0.00694599 0.00887196
v -0.00717264 -0.00694211 0.00993010
v -0.00659006 -0.00742679 0.01731182
v -0.00657962 -0.00741709 0.01836996
v -0.00656918 -0.00740740 0.01942389
v -0.00601791 -0.00785136 0.01625789
v -0.00543116 -0.00841165 0.00781803
v -0.00541445 -0.00840196 0.00887196
v -0.00527246 -0.00833216 0.01625789
v -0.00522861 -0.00831084 0.01836996
v -0.00520564 -0.00829921 0.01942389
v -0.00539566 -0.00839226 0.00993010
v -0.00467735 -0.00855318 0.01942389
v -0.00390683 -0.00909601 0.00781803
v -0.00550006 -0.00844849 0.00042788
v -0.00496133 -0.00871990 0.00148603
v -0.00549380 -0.00844655 0.00148603
v -0.00390683 -0.00918713 0.00148603
v -0.00490495 -0.00867725 0.00781803
v -0.00493836 -0.00869664 0.00465203
v -0.00602209 -0.00804717 0.00148603
v -0.00721023 -0.00696150 0.00359810
v -0.00767588 -0.00642641 0.00676410
v -0.00809767 -0.00580409 0.00676410
v -0.00882642 -0.00457494 -0.00484597
v -0.00856332 -0.00509452 -0.00167997
v -0.00856541 -0.00509646 -0.00273812
v -0.00881181 -0.00453811 0.00887196
v -0.00882016 -0.00455750 0.00148603
v -0.00855079 -0.00507125 0.00676410
v -0.00918558 -0.00369283 -0.00379205
v -0.00950297 -0.00263817 0.00148603
v -0.00967420 -0.00185493 0.00042788
v -0.00967420 -0.00186269 0.00676410
v -0.00967420 -0.00186463 0.00570596
v -0.00667567 -0.00750627 0.00570596
v -0.00975564 -0.00133730 0.00570596
v -0.00975355 -0.00132761 0.00042788
v -0.00982454 -0.00052692 0.00253996
v -0.00967629 0.00187320 -0.00379205
v -0.00982454 -0.00052692 0.00676410
v -0.00982454 0.00052774 0.00676410
v -0.00975355 0.00132261 0.00781803
v -0.00975564 0.00134006 0.00570596
v -0.00967629 0.00187126 -0.00062604
v -0.00967629 0.00186933 0.00042788
v -0.00967420 0.00186739 0.00570596
v -0.00949880 0.00263706 0.00570596
v -0.00668820 0.00752260 0.00148603
v -0.00669029 0.00752648 0.00042788
v -0.00601791 0.00803636 0.00359810
v -0.00874916 0.00237921 0.02681403
v -0.00893501 0.00158240 0.02681403
v -0.00902897 0.00052774 0.02786796
v -0.00886192 0.00052774 0.02892189
v -0.00869905 0.00052774 0.02957533
v -0.00850694 -0.00052692 0.03010229
v -0.00807470 -0.00052692 0.03103396
v -0.00769676 -0.00052692 0.03170426
v -0.00729375 -0.00052692 0.03223122
v -0.00676546 -0.00052692 0.03284250
v -0.00601791 0.00801697 0.00570596
v -0.00949462 0.00263706 0.00676410
v -0.00948627 0.00263706 0.00887196
v -0.00866982 -0.00111435 0.02948679
v -0.00873246 -0.00151178 0.02887130
v -0.00887863 -0.00158158 0.02786796
v -0.00871784 -0.00228533 0.02786796
v -0.00855497 -0.00290572 0.02681403
v -0.00666941 -0.00750046 0.00676410
v -0.00661720 -0.00745005 0.01414581
v -0.00660885 -0.00744230 0.01520396
v -0.00660050 -0.00743454 0.01625789
v -0.00601791 -0.00800258 0.00676410
v -0.00601791 -0.00797156 0.00887196
v -0.00544368 -0.00841747 0.00676410
v -0.00488825 -0.00866756 0.00887196
v -0.00470032 -0.00856481 0.01836996
v -0.00547501 -0.00843491 0.00359810
v -0.00601791 -0.00801422 0.00570596
v -0.00601791 -0.00802391 0.00465203
v -0.00918140 -0.00369283 -0.00167997
v -0.00916052 -0.00369283 0.00887196
v -0.00916470 -0.00369283 0.00676410
v -0.00917096 -0.00369283 0.00359810
v -0.00855288 -0.00507319 0.00570596
v -0.00949671 -0.00263817 0.00781803
v -0.00950088 -0.00263817 0.00359810
v -0.00967002 -0.00184524 0.00887196
v -0.00975355 -0.00132567 0.00781803
v -0.00982245 -0.00052692 0.00781803
v -0.00982245 0.00052774 0.00781803
v -0.00975146 0.00131292 0.00887196
v -0.00967211 0.00184994 0.00781803
v -0.00907909 0.00052774 0.02681403
v -0.00967002 0.00184025 0.00887196
v -0.00973684 0.00122180 0.00951696
v -0.00902897 -0.00052692 0.02786796
v -0.00886192 -0.00052692 0.02892189
v -0.00869905 -0.00052692 0.02957533
v -0.00893501 -0.00158158 0.02681403
v -0.00874916 -0.00237839 0.02681403
v -0.00949253 -0.00263817 0.00887196
v -0.00973893 -0.00122679 0.00951696
v -0.00975146 -0.00131597 0.00887196
v -0.00981828 -0.00052692 0.00887196
v -0.00981828 0.00052774 0.00887196
v -0.00907909 -0.00052692 0.02681403
f 1 2 9
f 1 9 3
f 1 3 4
f 1 4 5
f 1 5 6
f 1 6 7
f 1 7 2
f 2 8 9
f 2 7 8
f 3 9 10
f 3 10 11
f 3 11 12
f 3 12 13
f 3 13 4
f 4 13 14
f 4 14 15
f 4 15 16
f 4 16 5
f 5 16 17
f 5 17 18
f 5 18 19
f 5 19 6
f 6 19 21
f 6 21 7
f 7 20 8
f 7 21 20
f 8 22 23
f 8 23 24
f 8 24 10
f 8 10 9
f 8 20 22
f 10 24 25
f 10 25 26
f 10 26 11
f 11 26 27
f 11 27 28
f 11 28 12
f 12 28 14
f 12 14 13
f 14 28 29
f 14 29 30
f 14 30 31
f 14 31 15
f 15 31 32
f 15 32 16
f 16 32 33
f 16 33 34
f 16 34 35
f 16 35 36
f 16 36 17
f 17 36 18
f 18 37 38
f 18 38 19
f 18 36 39
f 18 39 40
f 18 40 41
f 18 41 42
f 18 42 43
f 18 43 44
f 18 44 37
f 19 38 45
f 19 45 50
f 19 50 21
f 20 46 22
f 20 21 47
f 20 47 48
f 20 48 49
f 20 49 46
f 21 50 51
f 21 51 47
f 22 52 53
f 22 53 23
f 22 46 52
f 23 53 54
f 23 54 55
f 23 55 25
f 23 25 24
f 25 55 56
f 25 56 57
f 25 57 26
f 26 57 58
f 26 58 59
f 26 59 27
f 27 59 60
f 27 60 61
f 27 61 28
f 28 61 62
f 28 62 29
f 29 62 63
f 29 63 30
f 30 63 64
f 30 64 65
f 30 65 31
f 31 65 66
f 31 66 32
f 32 66 67
f 32 67 33
f 33 67 68
f 33 68 34
f 34 69 70
f 34 70 35
f 34 68 69
f 35 39 36
f 35 70 71
f 35 71 39
f 37 72 45
f 37 45 73
f 37 73 38
f 37 44 74
f 37 74 72
f 38 73 45
f 39 71 41
f 39 41 40
f 41 71 75
f 41 75 42
f 42 75 43
f 43 75 76
f 43 76 77
f 43 77 78
f 43 78 79
f 43 79 44
f 44 79 80
f 44 80 128
f 44 128 81
f 44 81 50
f 44 50 45
f 44 45 72
f 44 72 74
f 46 82 52
f 46 49 83
f 46 83 84
f 46 84 82
f 47 85 86
f 47 86 87
f 47 87 49
f 47 49 48
f 47 51 88
f 47 88 89
f 47 89 90
f 47 90 91
f 47 91 81
f 47 81 92
f 47 92 93
f 47 93 85
f 49 87 83
f 50 89 88
f 50 88 51
f 50 81 89
f 52 94 95
f 52 95 53
f 52 82 94
f 53 95 96
f 53 96 54
f 54 96 97
f 54 97 98
f 54 98 55
f 55 98 99
f 55 99 100
f 55 100 56
f 56 100 57
f 57 100 101
f 57 101 102
f 57 102 103
f 57 103 58
f 58 103 59
f 59 103 104
f 59 104 60
f 60 104 61
f 61 104 105
f 61 105 106
f 61 106 107
f 61 107 62
f 62 107 108
f 62 108 63
f 63 108 109
f 63 109 64
f 64 109 110
f 64 110 65
f 65 110 111
f 65 111 112
f 65 112 113
f 65 113 66
f 66 113 114
f 66 114 67
f 67 114 115
f 67 115 116
f 67 116 68
f 68 116 117
f 68 117 69
f 69 117 70
f 70 117 118
f 70 118 119
f 70 119 120
f 70 120 71
f 71 120 75
f 75 120 121
f 75 121 122
f 75 122 123
f 75 123 76
f 76 123 77
f 77 123 124
f 77 124 78
f 78 124 125
f 78 125 79
f 79 125 126
f 79 126 127
f 79 127 80
f 80 127 129
f 80 129 183
f 80 183 128
f 81 91 89
f 81 128 130
f 81 130 92
f 82 131 94
f 82 84 133
f 82 133 131
f 83 132 133
f 83 133 84
f 83 87 134
f 83 134 132
f 85 135 134
f 85 134 87
f 85 87 86
f 85 93 135
f 89 91 90
f 92 136 137
f 92 137 138
f 92 138 135
f 92 135 93
f 92 130 139
f 92 139 136
f 94 140 141
f 94 141 142
f 94 142 95
f 94 131 143
f 94 143 140
f 95 142 144
f 95 144 96
f 96 144 145
f 96 145 146
f 96 146 97
f 97 146 147
f 97 147 98
f 98 147 99
f 99 147 148
f 99 148 149
f 99 149 150
f 99 150 151
f 99 151 100
f 100 151 101
f 101 151 152
f 101 152 102
f 102 152 153
f 102 153 154
f 102 154 105
f 102 105 103
f 103 105 104
f 105 154 155
f 105 155 156
f 105 156 157
f 105 157 106
f 106 157 158
f 106 158 107
f 107 158 108
f 108 158 159
f 108 159 160
f 108 160 161
f 108 161 109
f 109 161 160
f 109 160 110
f 110 162 111
f 110 160 163
f 110 163 164
f 110 164 162
f 111 162 112
f 112 162 113
f 113 162 165
f 113 165 166
f 113 166 114
f 114 166 167
f 114 167 115
f 115 167 168
f 115 168 116
f 116 168 169
f 116 169 117
f 117 170 171
f 117 171 118
f 117 169 170
f 118 171 172
f 118 172 173
f 118 173 119
f 119 173 120
f 120 173 174
f 120 174 121
f 121 174 122
f 122 174 123
f 123 174 175
f 123 175 176
f 123 176 177
f 123 177 124
f 124 177 125
f 125 177 178
f 125 178 179
f 125 179 180
f 125 180 181
f 125 181 126
f 126 181 127
f 127 181 182
f 127 182 129
f 128 183 184
f 128 184 130
f 129 182 185
f 129 185 186
f 129 186 183
f 130 184 187
f 130 187 188
f 130 188 139
f 131 133 189
f 131 189 143
f 132 189 133
f 132 134 190
f 132 190 191
f 132 191 192
f 132 192 189
f 134 135 193
f 134 193 190
f 135 138 193
f 136 193 137
f 136 139 194
f 136 194 193
f 137 193 138
f 139 188 194
f 140 195 196
f 140 196 197
f 140 197 141
f 140 143 195
f 141 197 142
f 142 197 198
f 142 198 144
f 143 199 195
f 143 189 199
f 144 198 200
f 144 200 145
f 145 200 201
f 145 201 146
f 146 201 202
f 146 202 147
f 147 202 149
f 147 149 148
f 149 202 203
f 149 203 204
f 149 204 152
f 149 152 150
f 150 152 151
f 152 204 205
f 152 205 206
f 152 206 207
f 152 207 153
f 153 207 154
f 154 207 208
f 154 208 209
f 154 209 155
f 155 209 210
f 155 210 156
f 156 210 157
f 157 210 211
f 157 211 212
f 157 212 213
f 157 213 160
f 157 160 159
f 157 159 158
f 160 213 163
f 162 164 214
f 162 214 165
f 163 213 164
f 164 213 215
f 164 215 216
f 164 216 217
f 164 217 214
f 165 218 166
f 165 214 218
f 166 218 219
f 166 219 220
f 166 220 167
f 167 220 221
f 167 221 168
f 168 221 222
f 168 222 223
f 168 223 169
f 169 223 224
f 169 224 225
f 169 225 226
f 169 226 170
f 170 226 171
f 171 226 227
f 171 227 172
f 172 227 228
f 172 228 173
f 173 228 229
f 173 229 174
f 174 229 175
f 175 229 176
f 176 229 230
f 176 230 177
f 177 230 178
f 178 231 232
f 178 232 233
f 178 233 179
f 178 230 234
f 178 234 235
f 178 235 231
f 179 233 180
f 180 236 237
f 180 237 238
f 180 238 239
f 180 239 181
f 180 233 236
f 181 239 240
f 181 240 182
f 182 240 241
f 182 241 185
f 183 186 242
f 183 242 184
f 184 242 243
f 184 243 187
f 185 241 244
f 185 244 186
f 186 245 242
f 186 244 246
f 186 246 245
f 187 243 188
f 188 247 248
f 188 248 249
f 188 249 194
f 188 243 250
f 188 250 247
f 189 192 251
f 189 251 252
f 189 252 199
f 190 193 191
f 191 193 253
f 191 253 192
f 192 253 254
f 192 254 251
f 193 194 249
f 193 249 255
f 193 255 253
f 195 256 257
f 195 257 258
f 195 258 196
f 195 199 256
f 196 258 197
f 197 258 259
f 197 259 198
f 198 259 260
f 198 260 261
f 198 261 200
f 199 262 256
f 199 252 263
f 199 263 264
f 199 264 262
f 200 261 265
f 200 265 201
f 201 265 266
f 201 266 202
f 202 266 267
f 202 267 203
f 203 267 204
f 204 267 268
f 204 268 269
f 204 269 270
f 204 270 205
f 205 270 271
f 205 271 206
f 206 271 272
f 206 272 207
f 207 272 273
f 207 273 208
f 208 273 274
f 208 274 275
f 208 275 209
f 209 275 276
f 209 276 210
f 210 276 277
f 210 277 278
f 210 278 211
f 211 278 279
f 211 279 212
f 212 279 280
f 212 280 213
f 213 280 281
f 213 281 215
f 214 282 218
f 214 217 283
f 214 283 282
f 215 281 284
f 215 284 216
f 216 285 286
f 216 286 283
f 216 283 217
f 216 284 287
f 216 287 285
f 218 288 219
f 218 282 288
f 219 288 220
f 220 288 289
f 220 289 290
f 220 290 221
f 221 290 291
f 221 291 222
f 222 291 223
f 223 291 292
f 223 292 293
f 223 293 224
f 224 293 294
f 224 294 225
f 225 294 226
f 226 294 295
f 226 295 227
f 227 296 297
f 227 297 228
f 227 295 296
f 228 297 298
f 228 298 229
f 229 298 234
f 229 234 230
f 231 299 300
f 231 300 301
f 231 301 232
f 231 235 302
f 231 302 299
f 232 301 303
f 232 303 236
f 232 236 233
f 234 298 235
f 235 298 304
f 235 304 302
f 236 303 305
f 236 305 306
f 236 306 237
f 237 306 238
f 238 306 307
f 238 307 308
f 238 308 309
f 238 309 239
f 239 309 240
f 240 309 241
f 241 309 310
f 241 310 244
f 242 245 311
f 242 311 243
f 243 311 312
f 243 312 250
f 244 310 313
f 244 313 246
f 245 246 313
f 245 313 314
f 245 314 311
f 247 250 315
f 247 315 248
f 248 315 316
f 248 316 317
f 248 317 318
f 248 318 319
f 248 319 320
f 248 320 249
f 249 320 255
f 250 312 321
f 250 321 322
f 250 322 323
f 250 323 315
f 251 263 252
f 251 254 324
f 251 324 263
f 253 255 325
f 253 325 254
f 254 325 326
f 254 326 327
f 254 327 324
f 255 320 325
f 256 328 329
f 256 329 330
f 256 330 257
f 256 262 328
f 257 330 258
f 258 330 331
f 258 331 259
f 259 331 332
f 259 332 333
f 259 333 260
f 260 333 261
f 261 333 334
f 261 334 265
f 262 335 328
f 262 264 335
f 263 336 264
f 263 324 336
f 264 336 335
f 265 334 337
f 265 337 338
f 265 338 266
f 266 338 267
f 267 338 339
f 267 339 268
f 268 340 269
f 268 339 340
f 269 340 341
f 269 341 270
f 270 341 342
f 270 342 343
f 270 343 344
f 270 344 271
f 271 344 345
f 271 345 272
f 272 345 346
f 272 346 273
f 273 346 347
f 273 347 274
f 274 347 348
f 274 348 349
f 274 349 275
f 275 349 350
f 275 350 276
f 276 350 277
f 277 351 278
f 277 350 352
f 277 352 353
f 277 353 351
f 278 351 279
f 279 351 354
f 279 354 280
f 280 354 355
f 280 355 356
f 280 356 357
f 280 357 281
f 281 357 284
f 282 283 288
f 283 286 358
f 283 358 288
f 284 357 359
f 284 359 360
f 284 360 361
f 284 361 287
f 285 362 363
f 285 363 286
f 285 287 364
f 285 364 362
f 286 363 365
f 286 365 358
f 287 361 366
f 287 366 367
f 287 367 368
f 287 368 369
f 287 369 364
f 288 358 365
f 288 365 370
f 288 370 289
f 289 370 290
f 290 370 371
f 290 371 372
f 290 372 291
f 291 372 373
f 291 373 292
f 292 373 293
f 293 373 374
f 293 374 375
f 293 375 376
f 293 376 294
f 294 376 377
f 294 377 378
f 294 378 295
f 295 378 379
f 295 379 296
f 296 380 298
f 296 298 297
f 296 379 381
f 296 381 382
f 296 382 383
f 296 383 302
f 296 302 380
f 298 380 384
f 298 384 304
f 299 385 300
f 299 302 386
f 299 386 387
f 299 387 388
f 299 388 389
f 299 389 390
f 299 390 391
f 299 391 392
f 299 392 385
f 300 385 393
f 300 393 303
f 300 303 301
f 302 383 394
f 302 394 395
f 302 395 387
f 302 387 386
f 302 304 384
f 302 384 380
f 303 393 396
f 303 396 397
f 303 397 305
f 305 397 306
f 306 397 398
f 306 398 399
f 306 399 307
f 307 399 400
f 307 400 401
f 307 401 402
f 307 402 308
f 308 402 403
f 308 403 309
f 309 403 310
f 310 403 404
f 310 404 313
f 311 314 312
f 312 314 321
f 313 404 314
f 314 404 405
f 314 405 321
f 315 323 316
f 316 406 317
f 316 323 407
f 316 407 406
f 317 406 408
f 317 408 409
f 317 409 318
f 318 409 410
f 318 410 411
f 318 411 319
f 319 411 325
f 319 325 320
f 321 405 412
f 321 412 413
f 321 413 322
f 322 413 323
f 323 413 414
f 323 414 407
f 324 327 415
f 324 415 336
f 325 411 326
f 326 411 327
f 327 411 415
f 328 416 417
f 328 417 418
f 328 418 329
f 328 335 419
f 328 419 416
f 329 418 330
f 330 418 420
f 330 420 331
f 331 420 421
f 331 421 422
f 331 422 332
f 332 422 423
f 332 423 333
f 333 423 337
f 333 337 334
f 335 424 419
f 335 336 425
f 335 425 424
f 336 415 426
f 336 426 425
f 337 427 339
f 337 339 338
f 337 423 427
f 339 427 428
f 339 428 429
f 339 429 340
f 340 429 430
f 340 430 431
f 340 431 432
f 340 432 341
f 341 432 433
f 341 433 342
f 342 433 343
f 343 433 434
f 343 434 435
f 343 435 436
f 343 436 344
f 344 436 345
f 345 436 346
f 346 436 437
f 346 437 347
f 347 437 438
f 347 438 348
f 348 438 439
f 348 439 440
f 348 440 349
f 349 440 441
f 349 441 350
f 350 441 352
f 351 353 354
f 352 442 353
f 352 441 440
f 352 440 443
f 352 443 444
f 352 444 445
f 352 445 442
f 353 442 445
f 353 445 446
f 353 446 355
f 353 355 354
f 355 446 447
f 355 447 448
f 355 448 356
f 356 448 357
f 357 448 359
f 359 448 360
f 360 448 447
f 360 447 449
f 360 449 450
f 360 450 367
f 360 367 366
f 360 366 361
f 362 364 451
f 362 451 452
f 362 452 453
f 362 453 454
f 362 454 363
f 363 454 455
f 363 455 456
f 363 456 457
f 363 457 365
f 364 369 458
f 364 458 451
f 365 457 456
f 365 456 370
f 367 459 369
f 367 369 368
f 367 450 449
f 367 449 459
f 369 459 458
f 370 456 460
f 370 460 371
f 371 460 372
f 372 460 461
f 372 461 462
f 372 462 373
f 373 462 463
f 373 463 374
f 374 463 375
f 375 463 464
f 375 464 465
f 375 465 376
f 376 465 466
f 376 466 377
f 377 466 378
f 378 466 467
f 378 467 379
f 379 467 468
f 379 468 381
f 381 468 382
f 382 468 383
f 383 468 469
f 383 469 394
f 385 470 393
f 385 392 471
f 385 471 472
f 385 472 473
f 385 473 470
f 387 395 388
f 388 395 394
f 388 394 469
f 388 469 468
f 388 468 474
f 388 474 389
f 389 474 475
f 389 475 476
f 389 476 477
f 389 477 390
f 390 477 478
f 390 478 479
f 390 479 391
f 391 471 392
f 391 479 480
f 391 480 481
f 391 481 482
f 391 482 483
f 391 483 484
f 391 484 485
f 391 485 471
f 393 470 486
f 393 486 487
f 393 487 488
f 393 488 398
f 393 398 396
f 396 398 397
f 398 488 489
f 398 489 490
f 398 490 491
f 398 491 400
f 398 400 399
f 400 491 401
f 401 491 492
f 401 492 493
f 401 493 494
f 401 494 402
f 402 495 403
f 402 494 495
f 403 495 496
f 403 496 404
f 404 496 497
f 404 497 405
f 405 497 412
f 406 407 498
f 406 498 408
f 407 499 498
f 407 414 500
f 407 500 501
f 407 501 499
f 408 502 409
f 408 498 503
f 408 503 504
f 408 504 505
f 408 505 506
f 408 506 507
f 408 507 508
f 408 508 509
f 408 509 502
f 409 502 510
f 409 510 509
f 409 509 426
f 409 426 415
f 409 415 511
f 409 511 410
f 410 511 411
f 411 511 415
f 412 512 413
f 412 497 513
f 412 513 514
f 412 514 512
f 413 512 515
f 413 515 500
f 413 500 414
f 416 516 417
f 416 419 516
f 417 516 418
f 418 516 517
f 418 517 420
f 419 424 524
f 419 524 516
f 420 517 518
f 420 518 519
f 420 519 421
f 421 519 520
f 421 520 422
f 422 520 423
f 423 520 521
f 423 521 522
f 423 522 427
f 424 425 523
f 424 523 524
f 425 525 523
f 425 426 525
f 426 509 525
f 427 522 428
f 428 522 526
f 428 526 527
f 428 527 429
f 429 527 528
f 429 528 529
f 429 529 530
f 429 530 531
f 429 531 430
f 430 531 431
f 431 433 432
f 431 531 530
f 431 530 532
f 431 532 533
f 431 533 434
f 431 434 433
f 434 533 534
f 434 534 435
f 435 534 436
f 436 534 535
f 436 535 437
f 437 439 438
f 437 535 534
f 437 534 536
f 437 536 537
f 437 537 439
f 439 537 538
f 439 538 539
f 439 539 440
f 440 539 443
f 443 539 444
f 444 449 445
f 444 539 540
f 444 540 541
f 444 541 542
f 444 542 449
f 445 449 447
f 445 447 446
f 449 542 543
f 449 543 544
f 449 544 459
f 451 545 452
f 451 458 545
f 452 545 546
f 452 546 547
f 452 547 548
f 452 548 453
f 453 548 549
f 453 549 550
f 453 550 551
f 453 551 454
f 454 551 455
f 455 551 460
f 455 460 456
f 458 459 552
f 458 552 553
f 458 553 545
f 459 544 554
f 459 554 552
f 460 551 461
f 461 551 550
f 461 550 462
f 462 550 549
f 462 549 555
f 462 555 463
f 463 555 556
f 463 556 464
f 464 556 465
f 465 556 557
f 465 557 558
f 465 558 559
f 465 559 466
f 466 559 560
f 466 560 561
f 466 561 467
f 467 561 476
f 467 476 468
f 468 476 475
f 468 475 474
f 470 562 486
f 470 473 562
f 471 485 563
f 471 563 472
f 472 563 473
f 473 563 564
f 473 564 565
f 473 565 566
f 473 566 567
f 473 567 568
f 473 568 569
f 473 569 570
f 473 570 571
f 473 571 562
f 476 561 477
f 477 561 478
f 478 561 572
f 478 572 480
f 478 480 479
f 480 573 481
f 480 572 574
f 480 574 573
f 481 573 575
f 481 575 483
f 481 483 482
f 483 575 576
f 483 576 577
f 483 577 578
f 483 578 484
f 484 579 580
f 484 580 563
f 484 563 485
f 484 578 581
f 484 581 582
f 484 582 579
f 486 583 584
f 486 584 487
f 486 562 585
f 486 585 586
f 486 586 587
f 486 587 583
f 487 584 588
f 487 588 589
f 487 589 590
f 487 590 488
f 488 590 591
f 488 591 592
f 488 592 490
f 488 490 489
f 490 592 593
f 490 593 594
f 490 594 491
f 491 594 595
f 491 595 492
f 492 595 493
f 493 596 494
f 493 595 597
f 493 597 596
f 494 596 495
f 495 596 598
f 495 598 496
f 496 598 599
f 496 599 497
f 497 599 513
f 498 499 503
f 499 600 601
f 499 601 602
f 499 602 503
f 499 501 515
f 499 515 603
f 499 603 600
f 500 515 501
f 502 509 510
f 503 602 604
f 503 604 605
f 503 605 606
f 503 606 504
f 504 606 505
f 505 607 506
f 505 606 608
f 505 608 609
f 505 609 610
f 505 610 611
f 505 611 607
f 506 607 612
f 506 612 613
f 506 613 507
f 507 613 614
f 507 614 615
f 507 615 508
f 508 615 509
f 509 615 614
f 509 614 525
f 512 514 515
f 513 599 616
f 513 616 617
f 513 617 618
f 513 618 514
f 514 618 515
f 515 618 619
f 515 619 620
f 515 620 603
f 516 621 622
f 516 622 517
f 516 524 630
f 516 630 621
f 517 622 623
f 517 623 518
f 518 623 624
f 518 624 519
f 519 624 625
f 519 625 520
f 520 625 626
f 520 626 522
f 520 522 521
f 522 627 526
f 522 626 627
f 523 525 631
f 523 631 628
f 523 628 629
f 523 629 630
f 523 630 524
f 525 614 631
f 526 632 527
f 526 627 633
f 526 633 634
f 526 634 632
f 527 635 528
f 527 632 635
f 528 636 530
f 528 530 529
f 528 635 636
f 530 636 533
f 530 533 532
f 533 637 638
f 533 638 536
f 533 536 534
f 533 636 639
f 533 639 637
f 536 638 640
f 536 640 641
f 536 641 538
f 536 538 537
f 538 641 642
f 538 642 643
f 538 643 539
f 539 643 644
f 539 644 645
f 539 645 540
f 540 645 644
f 540 644 646
f 540 646 647
f 540 647 648
f 540 648 649
f 540 649 541
f 541 649 542
f 542 649 648
f 542 648 650
f 542 650 651
f 542 651 543
f 543 651 652
f 543 652 653
f 543 653 654
f 543 654 655
f 543 655 554
f 543 554 544
f 545 656 546
f 545 553 657
f 545 657 656
f 546 656 658
f 546 658 659
f 546 659 547
f 547 659 548
f 548 659 660
f 548 660 661
f 548 661 662
f 548 662 549
f 549 662 555
f 552 554 553
f 553 554 657
f 554 655 663
f 554 663 657
f 555 662 661
f 555 661 664
f 555 664 556
f 556 664 665
f 556 665 666
f 556 666 557
f 557 666 558
f 558 666 667
f 558 667 559
f 559 667 668
f 559 668 574
f 559 574 560
f 560 574 561
f 561 574 572
f 562 571 669
f 562 669 670
f 562 670 585
f 563 580 564
f 564 671 672
f 564 672 673
f 564 673 565
f 564 580 671
f 565 673 566
f 566 568 567
f 566 673 568
f 568 673 674
f 568 674 569
f 569 674 675
f 569 675 676
f 569 676 570
f 570 676 677
f 570 677 678
f 570 678 571
f 571 670 669
f 571 678 679
f 571 679 670
f 573 574 575
f 574 668 575
f 575 668 667
f 575 667 666
f 575 666 665
f 575 665 664
f 575 664 680
f 575 680 681
f 575 681 576
f 576 681 577
f 577 681 658
f 577 658 682
f 577 682 683
f 577 683 578
f 578 683 581
f 579 582 684
f 579 684 580
f 580 684 671
f 581 683 685
f 581 685 686
f 581 686 687
f 581 687 582
f 582 687 684
f 583 587 688
f 583 688 689
f 583 689 588
f 583 588 584
f 585 670 690
f 585 690 691
f 585 691 692
f 585 692 693
f 585 693 586
f 586 694 695
f 586 695 696
f 586 696 697
f 586 697 698
f 586 698 587
f 586 693 699
f 586 699 694
f 587 700 688
f 587 698 701
f 587 701 702
f 587 702 703
f 587 703 700
f 588 704 705
f 588 705 706
f 588 706 707
f 588 707 708
f 588 708 589
f 588 689 709
f 588 709 710
f 588 710 704
f 589 708 590
f 590 708 707
f 590 707 711
f 590 711 591
f 591 711 712
f 591 712 593
f 591 593 592
f 593 713 714
f 593 714 594
f 593 712 713
f 594 714 715
f 594 715 595
f 595 715 597
f 596 597 716
f 596 716 598
f 597 715 830
f 597 830 716
f 598 616 599
f 598 716 616
f 600 717 718
f 600 718 719
f 600 719 601
f 600 603 720
f 600 720 717
f 601 719 721
f 601 721 722
f 601 722 723
f 601 723 724
f 601 724 725
f 601 725 602
f 602 725 604
f 603 620 619
f 603 619 726
f 603 726 727
f 603 727 720
f 604 728 729
f 604 729 730
f 604 730 605
f 604 725 728
f 605 730 606
f 606 730 731
f 606 731 608
f 607 732 612
f 607 611 732
f 608 731 609
f 609 731 733
f 609 733 610
f 610 733 734
f 610 734 735
f 610 735 736
f 610 736 737
f 610 737 738
f 610 738 739
f 610 739 740
f 610 740 611
f 611 740 732
f 612 732 741
f 612 741 742
f 612 742 743
f 612 743 631
f 612 631 613
f 613 631 614
f 616 716 744
f 616 744 617
f 617 744 618
f 618 744 745
f 618 745 619
f 619 745 746
f 619 746 726
f 621 747 748
f 621 748 749
f 621 749 622
f 621 630 747
f 622 749 750
f 622 750 623
f 623 750 751
f 623 751 752
f 623 752 624
f 624 752 753
f 624 753 633
f 624 633 625
f 625 633 627
f 625 627 626
f 628 631 747
f 628 747 629
f 629 747 630
f 631 743 754
f 631 754 755
f 631 755 747
f 632 634 756
f 632 756 635
f 633 753 634
f 634 757 758
f 634 758 756
f 634 753 752
f 634 752 757
f 635 756 759
f 635 759 760
f 635 760 636
f 636 760 761
f 636 761 639
f 637 762 638
f 637 639 761
f 637 761 763
f 637 763 764
f 637 764 765
f 637 765 766
f 637 766 762
f 638 767 768
f 638 768 769
f 638 769 640
f 638 762 767
f 640 769 641
f 641 770 771
f 641 771 643
f 641 643 642
f 641 769 768
f 641 768 770
f 643 771 772
f 643 772 773
f 643 773 774
f 643 774 644
f 644 774 775
f 644 775 646
f 646 775 776
f 646 776 647
f 647 776 777
f 647 777 648
f 648 777 778
f 648 778 779
f 648 779 780
f 648 780 781
f 648 781 650
f 650 781 651
f 651 781 782
f 651 782 783
f 651 783 784
f 651 784 652
f 652 785 786
f 652 786 653
f 652 784 785
f 653 786 787
f 653 787 788
f 653 788 789
f 653 789 654
f 654 663 655
f 654 789 790
f 654 790 663
f 656 657 685
f 656 685 682
f 656 682 658
f 657 663 790
f 657 790 685
f 658 681 659
f 659 681 791
f 659 791 792
f 659 792 793
f 659 793 660
f 660 793 664
f 660 664 661
f 664 793 792
f 664 792 791
f 664 791 680
f 670 679 690
f 671 684 672
f 672 674 673
f 672 684 687
f 672 687 794
f 672 794 788
f 672 788 795
f 672 795 674
f 674 795 796
f 674 796 797
f 674 797 692
f 674 692 675
f 675 692 679
f 675 679 676
f 676 679 677
f 677 679 678
f 679 692 691
f 679 691 690
f 680 791 681
f 682 685 683
f 685 790 686
f 686 790 687
f 687 790 794
f 688 798 689
f 688 700 799
f 688 799 798
f 689 798 800
f 689 800 801
f 689 801 709
f 692 699 693
f 692 797 802
f 692 802 699
f 694 699 802
f 694 802 695
f 695 802 696
f 696 802 803
f 696 803 697
f 697 803 701
f 697 701 698
f 700 804 799
f 700 703 804
f 701 803 805
f 701 805 806
f 701 806 807
f 701 807 808
f 701 808 809
f 701 809 703
f 701 703 702
f 703 809 810
f 703 810 811
f 703 811 812
f 703 812 813
f 703 813 814
f 703 814 815
f 703 815 804
f 704 710 816
f 704 816 817
f 704 817 818
f 704 818 705
f 705 819 706
f 705 818 819
f 706 819 707
f 707 819 820
f 707 820 821
f 707 821 822
f 707 822 823
f 707 823 824
f 707 824 711
f 709 801 825
f 709 825 816
f 709 816 710
f 711 824 826
f 711 826 712
f 712 827 713
f 712 826 827
f 713 827 951
f 713 951 828
f 713 828 829
f 713 829 714
f 714 829 715
f 715 829 830
f 716 830 744
f 717 720 831
f 717 831 718
f 718 831 832
f 718 832 833
f 718 833 834
f 718 834 835
f 718 835 836
f 718 836 837
f 718 837 838
f 718 838 721
f 718 721 719
f 720 727 839
f 720 839 832
f 720 832 831
f 721 838 840
f 721 840 722
f 722 840 841
f 722 841 842
f 722 842 843
f 722 843 844
f 722 844 845
f 722 845 723
f 723 846 847
f 723 847 848
f 723 848 724
f 723 845 849
f 723 849 846
f 724 850 725
f 724 848 851
f 724 851 850
f 725 850 852
f 725 852 728
f 726 746 727
f 727 746 853
f 727 853 839
f 728 852 850
f 728 850 854
f 728 854 855
f 728 855 856
f 728 856 729
f 729 856 857
f 729 857 858
f 729 858 859
f 729 859 860
f 729 860 731
f 729 731 730
f 731 860 861
f 731 861 733
f 732 740 741
f 733 861 734
f 734 861 862
f 734 862 735
f 735 862 863
f 735 863 736
f 736 863 864
f 736 864 865
f 736 865 866
f 736 866 867
f 736 867 868
f 736 868 869
f 736 869 737
f 737 869 738
f 738 870 871
f 738 871 739
f 738 869 868
f 738 868 867
f 738 867 872
f 738 872 870
f 739 871 740
f 740 871 741
f 741 871 742
f 742 871 870
f 742 870 743
f 743 870 754
f 744 830 745
f 745 830 829
f 745 829 746
f 746 829 828
f 746 828 853
f 747 755 870
f 747 870 748
f 748 870 873
f 748 873 749
f 749 873 874
f 749 874 875
f 749 875 876
f 749 876 750
f 750 876 877
f 750 877 752
f 750 752 751
f 752 877 757
f 754 870 755
f 756 758 878
f 756 878 879
f 756 879 759
f 757 877 880
f 757 880 758
f 758 880 881
f 758 881 878
f 759 879 761
f 759 761 760
f 761 879 882
f 761 882 763
f 762 883 884
f 762 884 885
f 762 885 886
f 762 886 767
f 762 766 883
f 763 882 764
f 764 882 887
f 764 887 888
f 764 888 765
f 765 889 766
f 765 888 890
f 765 890 891
f 765 891 892
f 765 892 889
f 766 889 893
f 766 893 883
f 767 886 768
f 768 894 895
f 768 895 770
f 768 886 896
f 768 896 894
f 770 895 897
f 770 897 771
f 771 897 772
f 772 897 898
f 772 898 899
f 772 899 773
f 773 899 900
f 773 900 774
f 774 900 775
f 775 900 901
f 775 901 776
f 776 901 777
f 777 901 902
f 777 902 903
f 777 903 778
f 778 904 905
f 778 905 779
f 778 903 904
f 779 906 907
f 779 907 780
f 779 905 906
f 780 907 908
f 780 908 781
f 781 908 909
f 781 909 910
f 781 910 911
f 781 911 782
f 782 911 783
f 783 911 912
f 783 912 913
f 783 913 784
f 784 913 785
f 785 914 915
f 785 915 916
f 785 916 786
f 785 913 914
f 786 916 808
f 786 808 807
f 786 807 806
f 786 806 805
f 786 805 803
f 786 803 917
f 786 917 796
f 786 796 787
f 787 796 788
f 788 796 795
f 788 794 790
f 788 790 789
f 796 917 918
f 796 918 919
f 796 919 802
f 796 802 797
f 798 799 800
f 799 804 815
f 799 815 814
f 799 814 813
f 799 813 920
f 799 920 800
f 800 920 921
f 800 921 922
f 800 922 801
f 801 922 825
f 802 919 803
f 803 919 918
f 803 918 917
f 808 915 923
f 808 923 811
f 808 811 810
f 808 810 809
f 808 916 915
f 811 923 812
f 812 923 924
f 812 924 925
f 812 925 813
f 813 925 924
f 813 924 926
f 813 926 927
f 813 927 928
f 813 928 929
f 813 929 930
f 813 930 931
f 813 931 920
f 816 932 817
f 816 825 932
f 817 932 818
f 818 932 933
f 818 933 934
f 818 934 935
f 818 935 936
f 818 936 937
f 818 937 938
f 818 938 939
f 818 939 819
f 819 940 820
f 819 939 940
f 820 940 822
f 820 822 821
f 822 941 942
f 822 942 823
f 822 940 943
f 822 943 941
f 823 942 944
f 823 944 824
f 824 944 945
f 824 945 826
f 825 946 947
f 825 947 948
f 825 948 949
f 825 949 932
f 825 922 950
f 825 950 946
f 826 945 827
f 827 945 952
f 827 952 1073
f 827 1073 951
f 828 951 853
f 832 839 953
f 832 953 954
f 832 954 955
f 832 955 956
f 832 956 957
f 832 957 958
f 832 958 833
f 833 958 834
f 834 958 959
f 834 959 835
f 835 960 961
f 835 961 836
f 835 959 960
f 836 961 962
f 836 962 837
f 837 962 963
f 837 963 964
f 837 964 965
f 837 965 838
f 838 966 840
f 838 965 966
f 839 853 967
f 839 967 953
f 840 966 968
f 840 968 841
f 841 968 969
f 841 969 970
f 841 970 842
f 842 970 843
f 843 970 971
f 843 971 844
f 844 971 972
f 844 972 973
f 844 973 974
f 844 974 845
f 845 974 849
f 846 849 975
f 846 975 847
f 847 975 848
f 848 975 976
f 848 976 977
f 848 977 978
f 848 978 851
f 849 974 973
f 849 973 889
f 849 889 979
f 849 979 975
f 850 851 854
f 851 978 980
f 851 980 854
f 853 951 967
f 854 980 981
f 854 981 855
f 855 981 856
f 856 981 980
f 856 980 857
f 857 859 858
f 857 980 982
f 857 982 859
f 859 982 860
f 860 982 983
f 860 983 861
f 861 983 984
f 861 984 862
f 862 984 863
f 863 984 864
f 864 984 887
f 864 887 865
f 865 887 985
f 865 985 866
f 866 985 986
f 866 986 867
f 867 986 881
f 867 881 987
f 867 987 872
f 870 872 873
f 872 987 873
f 873 987 874
f 874 987 880
f 874 880 875
f 875 880 876
f 876 880 877
f 878 986 985
f 878 985 879
f 878 881 986
f 879 985 887
f 879 887 882
f 880 987 881
f 883 893 988
f 883 988 884
f 884 989 885
f 884 988 990
f 884 990 989
f 885 989 991
f 885 991 886
f 886 992 993
f 886 993 896
f 886 991 992
f 887 984 888
f 888 984 890
f 889 994 893
f 889 892 979
f 889 973 972
f 889 972 994
f 890 984 891
f 891 984 995
f 891 995 976
f 891 976 892
f 892 976 979
f 893 994 996
f 893 996 997
f 893 997 988
f 894 896 998
f 894 998 999
f 894 999 1000
f 894 1000 1001
f 894 1001 895
f 895 1001 1002
f 895 1002 898
f 895 898 897
f 896 993 1003
f 896 1003 998
f 898 1002 1004
f 898 1004 1005
f 898 1005 1006
f 898 1006 1007
f 898 1007 899
f 899 1007 1008
f 899 1008 900
f 900 1008 901
f 901 1008 1009
f 901 1009 1010
f 901 1010 1011
f 901 1011 902
f 902 1011 1012
f 902 1012 1013
f 902 1013 903
f 903 1013 1014
f 903 1014 1015
f 903 1015 904
f 904 1016 1017
f 904 1017 905
f 904 1015 1018
f 904 1018 1019
f 904 1019 1016
f 905 1017 906
f 906 1017 1016
f 906 1016 1020
f 906 1020 1021
f 906 1021 907
f 907 1022 908
f 907 1021 1023
f 907 1023 1022
f 908 1022 1024
f 908 1024 909
f 909 1025 910
f 909 1024 1025
f 910 1025 911
f 911 1025 1026
f 911 1026 1027
f 911 1027 912
f 912 1027 1028
f 912 1028 1029
f 912 1029 1030
f 912 1030 913
f 913 1030 914
f 914 1030 1031
f 914 1031 915
f 915 1031 1041
f 915 1041 923
f 920 931 1032
f 920 1032 1033
f 920 1033 921
f 921 1033 922
f 922 1033 1032
f 922 1032 1034
f 922 1034 1035
f 922 1035 1036
f 922 1036 1037
f 922 1037 1038
f 922 1038 1039
f 922 1039 1040
f 922 1040 950
f 923 1041 924
f 924 1041 926
f 926 1042 1043
f 926 1043 927
f 926 1041 1031
f 926 1031 1042
f 927 1043 1036
f 927 1036 1035
f 927 1035 1034
f 927 1034 1032
f 927 1032 928
f 928 1032 929
f 929 1032 930
f 930 1032 931
f 932 1044 933
f 932 949 1045
f 932 1045 1044
f 933 1044 934
f 934 1044 1046
f 934 1046 1047
f 934 1047 935
f 935 1047 936
f 936 1047 1048
f 936 1048 1049
f 936 1049 937
f 937 1049 1050
f 937 1050 1051
f 937 1051 940
f 937 940 939
f 937 939 938
f 940 1052 943
f 940 1051 1052
f 941 943 1053
f 941 1053 1054
f 941 1054 1055
f 941 1055 942
f 942 1055 1056
f 942 1056 944
f 943 1052 1053
f 944 1056 945
f 945 1056 952
f 946 1057 1058
f 946 1058 947
f 946 950 1059
f 946 1059 1057
f 947 1058 1060
f 947 1060 1061
f 947 1061 1062
f 947 1062 1063
f 947 1063 1064
f 947 1064 1065
f 947 1065 948
f 948 1045 949
f 948 1065 1066
f 948 1066 1067
f 948 1067 1045
f 950 1040 1043
f 950 1043 1068
f 950 1068 1069
f 950 1069 1070
f 950 1070 1071
f 950 1071 1072
f 950 1072 1059
f 951 1073 1074
f 951 1074 967
f 952 1056 1160
f 952 1160 1073
f 953 967 1074
f 953 1074 1075
f 953 1075 954
f 954 1076 955
f 954 1075 1076
f 955 1076 1077
f 955 1077 1078
f 955 1078 1079
f 955 1079 956
f 956 1079 957
f 957 1079 958
f 958 1079 1080
f 958 1080 959
f 959 1081 1082
f 959 1082 1083
f 959 1083 1084
f 959 1084 1085
f 959 1085 960
f 959 1080 1086
f 959 1086 1087
f 959 1087 1081
f 960 1085 961
f 961 1085 962
f 962 1085 963
f 963 1085 1088
f 963 1088 1089
f 963 1089 1090
f 963 1090 1091
f 963 1091 1092
f 963 1092 964
f 964 1092 1093
f 964 1093 1094
f 964 1094 965
f 965 1094 968
f 965 968 966
f 968 1095 969
f 968 1094 1096
f 968 1096 1097
f 968 1097 1098
f 968 1098 1095
f 969 1095 970
f 970 1095 1098
f 970 1098 1097
f 970 1097 1099
f 970 1099 1100
f 970 1100 971
f 971 1100 972
f 972 1100 1101
f 972 1101 994
f 975 979 976
f 976 995 977
f 977 995 978
f 978 995 980
f 980 995 982
f 982 995 983
f 983 995 984
f 988 997 990
f 989 990 1102
f 989 1102 1103
f 989 1103 1104
f 989 1104 991
f 990 997 1105
f 990 1105 1106
f 990 1106 1102
f 991 1107 992
f 991 1104 1108
f 991 1108 1107
f 992 1107 993
f 993 1107 1108
f 993 1108 1109
f 993 1109 1110
f 993 1110 1003
f 994 1101 996
f 996 1105 997
f 996 1101 1111
f 996 1111 1105
f 998 1003 1112
f 998 1112 999
f 999 1112 1113
f 999 1113 1000
f 1000 1114 1001
f 1000 1113 1115
f 1000 1115 1116
f 1000 1116 1114
f 1001 1114 1117
f 1001 1117 1118
f 1001 1118 1002
f 1002 1118 1119
f 1002 1119 1004
f 1003 1120 1121
f 1003 1121 1112
f 1003 1110 1122
f 1003 1122 1120
f 1004 1119 1005
f 1005 1119 1123
f 1005 1123 1006
f 1006 1124 1007
f 1006 1123 1125
f 1006 1125 1124
f 1007 1124 1008
f 1008 1126 1009
f 1008 1124 1126
f 1009 1127 1010
f 1009 1126 1128
f 1009 1128 1129
f 1009 1129 1127
f 1010 1127 1012
f 1010 1012 1011
f 1012 1127 1227
f 1012 1227 1130
f 1012 1130 1013
f 1013 1130 1131
f 1013 1131 1132
f 1013 1132 1133
f 1013 1133 1014
f 1014 1133 1134
f 1014 1134 1135
f 1014 1135 1015
f 1015 1135 1136
f 1015 1136 1018
f 1016 1137 1020
f 1016 1019 1138
f 1016 1138 1139
f 1016 1139 1137
f 1018 1135 1067
f 1018 1067 1140
f 1018 1140 1138
f 1018 1138 1019
f 1018 1136 1135
f 1020 1137 1021
f 1021 1137 1141
f 1021 1141 1142
f 1021 1142 1023
f 1022 1023 1024
f 1023 1142 1143
f 1023 1143 1024
f 1024 1143 1026
f 1024 1026 1025
f 1026 1143 1144
f 1026 1144 1027
f 1027 1144 1028
f 1028 1144 1071
f 1028 1071 1029
f 1029 1031 1030
f 1029 1071 1070
f 1029 1070 1069
f 1029 1069 1068
f 1029 1068 1145
f 1029 1145 1031
f 1031 1145 1146
f 1031 1146 1042
f 1036 1043 1037
f 1037 1043 1038
f 1038 1043 1039
f 1039 1043 1040
f 1042 1146 1043
f 1043 1146 1068
f 1044 1045 1147
f 1044 1147 1148
f 1044 1148 1046
f 1045 1067 1147
f 1046 1149 1047
f 1046 1148 1150
f 1046 1150 1149
f 1047 1151 1048
f 1047 1149 1151
f 1048 1152 1049
f 1048 1151 1152
f 1049 1153 1050
f 1049 1152 1153
f 1050 1153 1154
f 1050 1154 1155
f 1050 1155 1052
f 1050 1052 1051
f 1052 1155 1156
f 1052 1156 1053
f 1053 1156 1248
f 1053 1248 1157
f 1053 1157 1158
f 1053 1158 1054
f 1054 1158 1159
f 1054 1159 1055
f 1055 1159 1160
f 1055 1160 1056
f 1057 1161 1058
f 1057 1059 1161
f 1058 1162 1163
f 1058 1163 1060
f 1058 1161 1164
f 1058 1164 1162
f 1059 1072 1165
f 1059 1165 1166
f 1059 1166 1167
f 1059 1167 1163
f 1059 1163 1162
f 1059 1162 1164
f 1059 1164 1161
f 1060 1163 1061
f 1061 1163 1062
f 1062 1163 1168
f 1062 1168 1169
f 1062 1169 1063
f 1063 1139 1138
f 1063 1138 1064
f 1063 1169 1139
f 1064 1066 1065
f 1064 1138 1066
f 1066 1138 1140
f 1066 1140 1067
f 1067 1135 1134
f 1067 1134 1170
f 1067 1170 1171
f 1067 1171 1147
f 1068 1146 1145
f 1071 1144 1172
f 1071 1172 1173
f 1071 1173 1166
f 1071 1166 1165
f 1071 1165 1072
f 1073 1160 1074
f 1074 1160 1075
f 1075 1160 1076
f 1076 1159 1077
f 1076 1160 1159
f 1077 1157 1078
f 1077 1159 1158
f 1077 1158 1157
f 1078 1157 1174
f 1078 1174 1079
f 1079 1174 1175
f 1079 1175 1087
f 1079 1087 1086
f 1079 1086 1080
f 1081 1176 1177
f 1081 1177 1082
f 1081 1087 1178
f 1081 1178 1176
f 1082 1177 1179
f 1082 1179 1083
f 1083 1179 1180
f 1083 1180 1084
f 1084 1180 1085
f 1085 1180 1181
f 1085 1181 1088
f 1087 1175 1182
f 1087 1182 1178
f 1088 1181 1089
f 1089 1181 1116
f 1089 1116 1183
f 1089 1183 1090
f 1090 1183 1184
f 1090 1184 1185
f 1090 1185 1186
f 1090 1186 1187
f 1090 1187 1188
f 1090 1188 1189
f 1090 1189 1190
f 1090 1190 1191
f 1090 1191 1192
f 1090 1192 1091
f 1091 1192 1193
f 1091 1193 1092
f 1092 1193 1194
f 1092 1194 1195
f 1092 1195 1093
f 1093 1196 1197
f 1093 1197 1198
f 1093 1198 1094
f 1093 1195 1199
f 1093 1199 1196
f 1094 1198 1200
f 1094 1200 1096
f 1096 1200 1097
f 1097 1201 1099
f 1097 1200 1201
f 1099 1201 1111
f 1099 1111 1101
f 1099 1101 1100
f 1102 1106 1103
f 1103 1202 1109
f 1103 1109 1108
f 1103 1108 1104
f 1103 1106 1203
f 1103 1203 1204
f 1103 1204 1202
f 1105 1111 1205
f 1105 1205 1106
f 1106 1205 1206
f 1106 1206 1207
f 1106 1207 1203
f 1109 1202 1110
f 1110 1202 1208
f 1110 1208 1122
f 1111 1201 1205
f 1112 1121 1120
f 1112 1120 1209
f 1112 1209 1185
f 1112 1185 1210
f 1112 1210 1113
f 1113 1210 1184
f 1113 1184 1211
f 1113 1211 1115
f 1114 1212 1117
f 1114 1116 1213
f 1114 1213 1214
f 1114 1214 1215
f 1114 1215 1216
f 1114 1216 1212
f 1115 1211 1116
f 1116 1215 1217
f 1116 1217 1213
f 1116 1211 1184
f 1116 1184 1183
f 1116 1181 1215
f 1117 1212 1118
f 1118 1212 1218
f 1118 1218 1275
f 1118 1275 1219
f 1118 1219 1119
f 1119 1220 1123
f 1119 1219 1221
f 1119 1221 1222
f 1119 1222 1220
f 1120 1122 1209
f 1122 1208 1223
f 1122 1223 1186
f 1122 1186 1209
f 1123 1220 1224
f 1123 1224 1225
f 1123 1225 1125
f 1124 1125 1225
f 1124 1225 1224
f 1124 1224 1226
f 1124 1226 1126
f 1126 1226 1128
f 1127 1129 1227
f 1128 1226 1228
f 1128 1228 1229
f 1128 1229 1230
f 1128 1230 1231
f 1128 1231 1129
f 1129 1231 1232
f 1129 1232 1227
f 1130 1227 1232
f 1130 1232 1233
f 1130 1233 1234
f 1130 1234 1131
f 1131 1234 1132
f 1132 1234 1235
f 1132 1235 1134
f 1132 1134 1133
f 1134 1235 1250
f 1134 1250 1170
f 1137 1139 1169
f 1137 1169 1141
f 1141 1169 1236
f 1141 1236 1237
f 1141 1237 1142
f 1142 1172 1143
f 1142 1237 1236
f 1142 1236 1168
f 1142 1168 1238
f 1142 1238 1172
f 1143 1172 1144
f 1147 1239 1148
f 1147 1171 1239
f 1148 1239 1240
f 1148 1240 1150
f 1149 1150 1241
f 1149 1241 1242
f 1149 1242 1151
f 1150 1240 1241
f 1151 1242 1243
f 1151 1243 1152
f 1152 1243 1287
f 1152 1287 1244
f 1152 1244 1245
f 1152 1245 1153
f 1153 1245 1246
f 1153 1246 1154
f 1154 1246 1247
f 1154 1247 1155
f 1155 1247 1248
f 1155 1248 1156
f 1157 1248 1174
f 1163 1167 1249
f 1163 1249 1238
f 1163 1238 1168
f 1166 1173 1238
f 1166 1238 1249
f 1166 1249 1167
f 1168 1236 1169
f 1170 1250 1251
f 1170 1251 1171
f 1171 1251 1239
f 1172 1238 1173
f 1174 1248 1247
f 1174 1247 1182
f 1174 1182 1175
f 1176 1252 1177
f 1176 1178 1244
f 1176 1244 1252
f 1177 1252 1253
f 1177 1253 1179
f 1178 1182 1245
f 1178 1245 1244
f 1179 1253 1254
f 1179 1254 1255
f 1179 1255 1180
f 1180 1255 1256
f 1180 1256 1181
f 1181 1256 1215
f 1182 1246 1245
f 1182 1247 1246
f 1184 1210 1185
f 1185 1209 1186
f 1186 1223 1187
f 1187 1223 1188
f 1188 1223 1257
f 1188 1257 1189
f 1189 1257 1258
f 1189 1258 1259
f 1189 1259 1260
f 1189 1260 1190
f 1190 1260 1261
f 1190 1261 1262
f 1190 1262 1194
f 1190 1194 1191
f 1191 1194 1192
f 1192 1194 1193
f 1194 1262 1261
f 1194 1261 1263
f 1194 1263 1206
f 1194 1206 1264
f 1194 1264 1195
f 1195 1264 1199
f 1196 1199 1264
f 1196 1264 1197
f 1197 1265 1200
f 1197 1200 1198
f 1197 1264 1265
f 1200 1265 1201
f 1201 1265 1264
f 1201 1264 1206
f 1201 1206 1205
f 1202 1204 1208
f 1203 1207 1263
f 1203 1263 1266
f 1203 1266 1204
f 1204 1266 1261
f 1204 1261 1267
f 1204 1267 1268
f 1204 1268 1208
f 1206 1263 1207
f 1208 1268 1223
f 1212 1269 1218
f 1212 1216 1270
f 1212 1270 1271
f 1212 1271 1272
f 1212 1272 1269
f 1213 1217 1273
f 1213 1273 1214
f 1214 1273 1215
f 1215 1270 1216
f 1215 1273 1217
f 1215 1256 1270
f 1218 1269 1274
f 1218 1274 1275
f 1219 1275 1221
f 1220 1222 1224
f 1221 1274 1276
f 1221 1276 1277
f 1221 1277 1224
f 1221 1224 1222
f 1221 1275 1274
f 1223 1267 1257
f 1223 1268 1267
f 1224 1277 1228
f 1224 1228 1226
f 1228 1277 1278
f 1228 1278 1279
f 1228 1279 1229
f 1229 1279 1230
f 1230 1279 1280
f 1230 1280 1283
f 1230 1283 1281
f 1230 1281 1234
f 1230 1234 1231
f 1231 1234 1233
f 1231 1233 1232
f 1234 1281 1235
f 1235 1281 1250
f 1239 1251 1240
f 1240 1282 1241
f 1240 1251 1283
f 1240 1283 1280
f 1240 1280 1284
f 1240 1284 1282
f 1241 1285 1286
f 1241 1286 1242
f 1241 1282 1295
f 1241 1295 1285
f 1242 1286 1287
f 1242 1287 1243
f 1244 1287 1252
f 1250 1281 1251
f 1251 1281 1283
f 1252 1287 1286
f 1252 1286 1253
f 1253 1286 1285
f 1253 1285 1254
f 1254 1285 1288
f 1254 1288 1255
f 1255 1288 1289
f 1255 1289 1256
f 1256 1289 1270
f 1257 1267 1261
f 1257 1261 1258
f 1258 1261 1259
f 1259 1261 1260
f 1261 1266 1263
f 1269 1272 1274
f 1270 1290 1274
f 1270 1274 1271
f 1270 1289 1290
f 1271 1274 1272
f 1274 1290 1276
f 1276 1290 1288
f 1276 1288 1291
f 1276 1291 1292
f 1276 1292 1277
f 1277 1292 1278
f 1278 1292 1293
f 1278 1293 1294
f 1278 1294 1279
f 1279 1294 1280
f 1280 1294 1284
f 1282 1284 1294
f 1282 1294 1293
f 1282 1293 1295
f 1285 1295 1288
f 1288 1295 1291
f 1288 1290 1289
f 1291 1293 1292
f 1291 1295 1293

