# https://github.com/mikedh/trimesh
v -0.00406820 -0.00848769 -0.00115671
v -0.00406820 -0.00847275 -0.00068341
v -0.00440728 -0.00831172 0.00094075
v -0.00440728 -0.00836152 -0.00068341
v -0.00440728 -0.00838476 -0.00149386
v -0.00406820 -0.00845947 -0.00149386
v -0.00406820 -0.00841963 0.00094075
v -0.00440728 -0.00828516 0.00175120
v -0.00481476 -0.00811583 0.00218236
v -0.00485707 -0.00813575 0.00094075
v -0.00490750 -0.00816065 -0.00068341
v -0.00493127 -0.00817227 -0.00149386
v -0.00494228 -0.00817559 -0.00230756
v -0.00489881 -0.00815235 -0.00276465
v -0.00406820 -0.00837978 -0.00200283
v -0.00406820 -0.00839141 0.00175120
v -0.00434990 -0.00824365 0.00337535
v -0.00447394 -0.00823203 0.00249682
v -0.00475564 -0.00809258 0.00337535
v -0.00521876 -0.00773400 0.00662041
v -0.00521876 -0.00776886 0.00580672
v -0.00521876 -0.00780206 0.00499626
v -0.00521876 -0.00786349 0.00337535
v -0.00523557 -0.00791329 0.00175120
v -0.00526281 -0.00792657 0.00094075
v -0.00531324 -0.00795147 -0.00068341
v -0.00533701 -0.00796143 -0.00149386
v -0.00534802 -0.00797306 -0.00230756
v -0.00642903 -0.00729739 -0.00311801
v -0.00589345 -0.00736545 -0.00356863
v -0.00466406 -0.00815235 -0.00276465
v -0.00406820 -0.00827188 -0.00226866
v -0.00406820 -0.00832832 0.00337535
v -0.00430642 -0.00822539 0.00418581
v -0.00466695 -0.00805938 0.00499626
v -0.00471217 -0.00807598 0.00418581
v -0.00562972 -0.00730735 0.01195645
v -0.00564711 -0.00731897 0.01148638
v -0.00567377 -0.00733889 0.01067593
v -0.00569696 -0.00735715 0.00986547
v -0.00586099 -0.00746506 0.00418581
v -0.00588302 -0.00748000 0.00337535
v -0.00592301 -0.00750822 0.00175120
v -0.00596127 -0.00753312 0.00012705
v -0.00597866 -0.00754474 -0.00068341
v -0.00599547 -0.00755637 -0.00149386
v -0.00601112 -0.00756633 -0.00230756
v -0.00684173 -0.00692552 -0.00311801
v -0.00727298 -0.00651879 -0.00362374
v -0.00684173 -0.00671468 -0.00375341
v -0.00641686 -0.00728743 -0.00230756
v -0.00554683 -0.00736545 -0.00356863
v -0.00747874 -0.00586304 -0.00441150
v -0.00406820 -0.00770246 -0.00265443
v -0.00406820 -0.00776056 -0.00261553
v -0.00406820 -0.00826192 0.00499626
v -0.00426121 -0.00820713 0.00499626
v -0.00461595 -0.00804278 0.00580672
v -0.00521876 -0.00755138 0.01067593
v -0.00521876 -0.00750988 0.01148638
v -0.00528310 -0.00743684 0.01225469
v -0.00559668 -0.00728909 0.01249783
v -0.00734369 -0.00576011 0.02203526
v -0.00735876 -0.00578336 0.02122481
v -0.00634846 -0.00723596 0.00094075
v -0.00636701 -0.00725090 0.00012705
v -0.00638440 -0.00726418 -0.00068341
v -0.00640121 -0.00727580 -0.00149386
v -0.00727935 -0.00652543 -0.00311801
v -0.00801838 -0.00564889 -0.00392847
v -0.00755526 -0.00611372 -0.00390902
v -0.00709909 -0.00586304 -0.00441150
v -0.00702605 -0.00527370 -0.00445040
v -0.00550568 -0.00689730 -0.00359456
v -0.00822705 -0.00511931 -0.00451848
v -0.00895738 -0.00342598 -0.00520250
v -0.00406820 -0.00689730 -0.00266416
v -0.00509994 -0.00689730 -0.00334818
v -0.00446756 -0.00689730 -0.00293971
v -0.00406820 -0.00822705 0.00580672
v -0.00420963 -0.00818721 0.00580672
v -0.00455509 -0.00802452 0.00662041
v -0.00440728 -0.00794317 0.00905502
v -0.00440728 -0.00780372 0.01148638
v -0.00514631 -0.00743850 0.01310729
v -0.00555205 -0.00726750 0.01310729
v -0.00730138 -0.00572027 0.02256692
v -0.00806417 -0.00487693 0.02330281
v -0.00548771 -0.00723928 0.01392099
v -0.00541642 -0.00720940 0.01473144
v -0.00533469 -0.00717786 0.01554190
v -0.00492895 -0.00734387 0.01554190
v -0.00486055 -0.00731897 0.01611246
v -0.00803113 -0.00564225 -0.00311801
v -0.00765785 -0.00608550 -0.00311801
v -0.00830994 -0.00524382 -0.00392847
v -0.00873422 -0.00342598 -0.00520250
v -0.00765263 -0.00446190 -0.00474541
v -0.00702663 0.00527471 -0.00445040
v -0.00603025 0.00608485 -0.00390253
v -0.00603025 -0.00608550 -0.00390253
v -0.00866177 -0.00283996 -0.00523816
v -0.00825603 -0.00283996 -0.00505662
v -0.00550626 0.00689665 -0.00359456
v -0.00891565 -0.00414316 -0.00449903
v -0.00904838 -0.00367832 -0.00475837
v -0.00972423 -0.00179575 -0.00520250
v -0.00977698 -0.00121636 -0.00526734
v -0.00908026 -0.00283996 -0.00523816
v -0.00927560 -0.00121636 -0.00536459
v -0.00406820 0.00689665 -0.00266092
v -0.00446930 0.00689665 -0.00293971
v -0.00510052 0.00689665 -0.00334494
v -0.00406820 -0.00814571 0.00743087
v -0.00414934 -0.00816397 0.00662041
v -0.00406820 -0.00811085 0.00805654
v -0.00408327 -0.00814073 0.00743087
v -0.00440728 -0.00775226 0.01229684
v -0.00406820 -0.00808428 0.00850067
v -0.00406820 -0.00804942 0.00905502
v -0.00508197 -0.00740695 0.01392099
v -0.00477245 -0.00729241 0.01665384
v -0.00466522 -0.00726418 0.01716605
v -0.00439453 -0.00723098 0.01804134
v -0.00440728 -0.00712639 0.01879020
v -0.00440728 -0.00700354 0.01960066
v -0.00440728 -0.00686908 0.02041111
v -0.00486171 -0.00651381 0.02173053
v -0.00458812 -0.00645072 0.02227191
v -0.00435337 -0.00635942 0.02278412
v -0.00440728 -0.00609380 0.02365941
v -0.00493532 -0.00574683 0.02423970
v -0.00459044 -0.00563893 0.02478108
v -0.00794303 -0.00483211 0.02384420
v -0.00825893 -0.00452166 0.02360754
v -0.00831283 -0.00446190 0.02284572
v -0.00871046 -0.00458641 -0.00311801
v -0.00830472 -0.00523552 -0.00311801
v -0.00501068 -0.00737541 0.01473144
v -0.00440728 -0.00769250 0.01310729
v -0.00440728 -0.00762609 0.01392099
v -0.00440728 -0.00749328 0.01554190
v -0.00446408 -0.00740363 0.01637180
v -0.00871568 -0.00459305 -0.00392847
v -0.00709967 0.00586571 -0.00441150
v -0.00554625 0.00736480 -0.00356863
v -0.00825777 0.00283931 -0.00505662
v -0.00866351 0.00283931 -0.00523816
v -0.00765263 0.00446291 -0.00474541
v -0.00927560 -0.00040456 -0.00540998
v -0.00865713 -0.00202816 -0.00524464
v -0.00865597 -0.00040456 -0.00524464
v -0.00865597 0.00040558 -0.00524464
v -0.00406820 0.00762544 -0.00265767
v -0.00893883 -0.00418798 -0.00392847
v -0.00918518 -0.00365010 -0.00392847
v -0.00961237 -0.00231204 -0.00474216
v -0.00974858 -0.00190531 -0.00474216
v -0.00987668 -0.00121636 -0.00474216
v -0.00981871 -0.00040456 -0.00531272
v -0.00995956 -0.00040456 -0.00474216
v -0.00406820 -0.00784025 0.01229684
v -0.00425947 -0.00737209 0.01716605
v -0.00411515 -0.00733225 0.01781441
v -0.00406820 -0.00732063 0.01800892
v -0.00406820 -0.00728577 0.01829096
v -0.00406820 -0.00708157 0.01958445
v -0.00406820 -0.00720774 0.01879020
v -0.00406820 -0.00694046 0.02041111
v -0.00440728 -0.00671634 0.02122481
v -0.00406820 -0.00650219 0.02243725
v -0.00406820 -0.00648891 0.02249236
v -0.00435337 -0.00655365 0.02201581
v -0.00406820 -0.00638100 0.02286193
v -0.00406820 -0.00614028 0.02365941
v -0.00435453 -0.00579830 0.02449256
v -0.00406820 -0.00569371 0.02486537
v -0.00406820 -0.00567213 0.02491076
v -0.00435453 -0.00543971 0.02520900
v -0.00495503 -0.00494333 0.02577632
v -0.00740223 -0.00490515 0.02410678
v -0.00807982 -0.00407177 0.02488806
v -0.00819691 -0.00424442 0.02446987
v -0.00888145 -0.00326661 0.02489779
v -0.00871046 -0.00369824 0.02365941
v -0.00891739 -0.00414316 -0.00068341
v -0.00892376 -0.00415644 -0.00149386
v -0.00893594 -0.00418134 -0.00311801
v -0.00406820 -0.00777882 0.01310729
v -0.00406820 -0.00771242 0.01392099
v -0.00406820 -0.00757629 0.01554190
v -0.00406820 -0.00749992 0.01636208
v -0.00406820 -0.00754474 0.01588229
v -0.00873538 0.00342866 -0.00520250
v -0.00748280 0.00586571 -0.00441150
v -0.00588708 0.00736480 -0.00356863
v -0.00467681 0.00814838 -0.00276141
v -0.00406820 0.00770845 -0.00263822
v -0.00865655 0.00121571 -0.00524464
v -0.00865771 0.00202751 -0.00524464
v -0.00927560 0.00040558 -0.00541322
v -0.00927560 0.00121571 -0.00536783
v -0.00918054 -0.00365010 -0.00311801
v -0.00949992 -0.00283996 -0.00392847
v -0.00949818 -0.00283996 -0.00311801
v -0.00965932 -0.00233860 -0.00392847
v -0.00975264 -0.00193354 -0.00392847
v -0.00988363 -0.00121636 -0.00392847
v -0.00981987 0.00040558 -0.00531272
v -0.00996710 0.00040558 -0.00392847
v -0.00996072 0.00040558 -0.00474216
v -0.00997174 -0.00040456 -0.00311801
v -0.00406820 -0.00741692 0.01716605
v -0.00406820 -0.00746174 0.01673489
v -0.00406820 -0.00734055 0.01783711
v -0.00406820 -0.00678275 0.02122481
v -0.00406820 -0.00660180 0.02202229
v -0.00406820 -0.00501140 0.02585088
v -0.00440728 -0.00500476 0.02584764
v -0.00504140 -0.00414482 0.02657057
v -0.00558277 -0.00403857 0.02647980
v -0.00603025 -0.00346749 0.02667106
v -0.00647308 -0.00328819 0.02653815
v -0.00887334 -0.00243987 0.02568879
v -0.00894231 -0.00276194 0.02521224
v -0.00916663 -0.00202816 0.02528032
v -0.00928082 -0.00202816 0.02446987
v -0.00904491 -0.00283996 0.02446987
v -0.00888609 -0.00328155 0.02446987
v -0.00915156 -0.00365010 -0.00068341
v -0.00895912 0.00342866 -0.00520250
v -0.00822763 0.00512198 -0.00451848
v -0.00755757 0.00611639 -0.00390902
v -0.00727240 0.00651814 -0.00362374
v -0.00684173 0.00671238 -0.00375341
v -0.00642208 0.00729508 -0.00311801
v -0.00489185 0.00814838 -0.00276141
v -0.00440670 0.00824799 -0.00235618
v -0.00406820 0.00825463 -0.00224596
v -0.00977988 0.00121571 -0.00527058
v -0.00948079 -0.00283996 -0.00068341
v -0.00965932 -0.00234192 -0.00311801
v -0.00965294 -0.00232532 -0.00068341
v -0.00975785 -0.00193188 -0.00230756
v -0.00975496 -0.00193686 -0.00311801
v -0.00989754 -0.00121636 -0.00149386
v -0.00989349 -0.00121636 -0.00230756
v -0.00998971 -0.00040456 -0.00068341
v -0.00988073 0.00121571 -0.00474216
v -0.00997290 0.00040558 -0.00311801
v -0.00406820 -0.00459471 0.02625611
v -0.00440728 -0.00460633 0.02625287
v -0.00440728 -0.00419960 0.02660947
v -0.00521876 -0.00302257 0.02721569
v -0.00527499 -0.00372149 0.02679101
v -0.00604242 -0.00282170 0.02709898
v -0.00632180 -0.00234192 0.02726756
v -0.00896086 -0.00202816 0.02576011
v -0.00654960 -0.00180073 0.02737129
v -0.00936544 -0.00121636 0.02528032
v -0.00940080 -0.00121636 0.02446987
v -0.00986624 -0.00121636 0.00175120
v -0.00988247 -0.00121636 0.00094075
v -0.00974162 -0.00184223 0.00175120
v -0.00974974 -0.00187377 0.00094075
v -0.00964772 -0.00230872 0.00012705
v -0.00946862 -0.00283996 0.00012705
v -0.00972713 0.00180008 -0.00520574
v -0.00905070 0.00367933 -0.00476161
v -0.00891739 0.00414583 -0.00450551
v -0.00830994 0.00524649 -0.00392847
v -0.00802186 0.00565156 -0.00392847
v -0.00727819 0.00652478 -0.00311801
v -0.00684173 0.00692321 -0.00311801
v -0.00641222 0.00728512 -0.00230756
v -0.00600648 0.00756568 -0.00230756
v -0.00533991 0.00797075 -0.00230756
v -0.00493416 0.00817162 -0.00230756
v -0.00440728 0.00838246 -0.00149386
v -0.00406820 0.00844388 -0.00149386
v -0.00975843 -0.00192025 -0.00068341
v -0.00975959 -0.00192523 -0.00149386
v -0.00975553 -0.00190365 0.00012705
v -0.00989928 -0.00121636 -0.00068341
v -0.00998913 -0.00040456 0.00012705
v -0.00998913 0.00040558 0.00012705
v -0.00998855 0.00040558 -0.00068341
v -0.00997811 0.00040558 -0.00230756
v -0.00975148 0.00189968 -0.00474216
v -0.00988421 0.00121571 -0.00392847
v -0.00406820 -0.00418964 0.02659650
v -0.00440728 -0.00365010 0.02693365
v -0.00440728 -0.00295949 0.02722866
v -0.00521876 -0.00261751 0.02737778
v -0.00578043 -0.00253948 0.02735185
v -0.00604242 -0.00205472 0.02743613
v -0.00710546 -0.00121636 0.02719300
v -0.00721501 -0.00067516 0.02728701
v -0.00908838 -0.00121636 0.02586709
v -0.00603025 -0.00121636 0.02762092
v -0.00669972 -0.00121636 0.02744262
v -0.00944195 -0.00040456 0.02528032
v -0.00997637 -0.00040456 0.00094075
v -0.00989523 -0.00121636 0.00012705
v -0.00960947 0.00230641 -0.00474216
v -0.00918692 0.00365111 -0.00392847
v -0.00893999 0.00418899 -0.00392847
v -0.00871568 0.00459406 -0.00392847
v -0.00871046 0.00458576 -0.00311801
v -0.00830472 0.00523653 -0.00311801
v -0.00803171 0.00564326 -0.00311801
v -0.00765727 0.00608485 -0.00311801
v -0.00761322 0.00608485 -0.00149386
v -0.00724863 0.00649324 -0.00103028
v -0.00691882 0.00678542 -0.00072879
v -0.00684173 0.00687673 -0.00149386
v -0.00638266 0.00726354 -0.00068341
v -0.00533121 0.00795913 -0.00149386
v -0.00596069 0.00753248 0.00012705
v -0.00492547 0.00816996 -0.00149386
v -0.00440728 0.00835922 -0.00068341
v -0.00406820 0.00847210 -0.00068341
v -0.00485591 0.00813510 0.00094075
v -0.00997695 0.00040558 0.00094075
v -0.00989291 0.00121571 0.00012705
v -0.00989291 0.00121571 -0.00068341
v -0.00975206 0.00190300 -0.00392847
v -0.00964946 0.00230807 -0.00392847
v -0.00949064 0.00283931 -0.00392847
v -0.00406820 -0.00365010 0.02690123
v -0.00406820 -0.00287316 0.02720272
v -0.00406820 -0.00256106 0.02729673
v -0.00406820 -0.00247473 0.02732267
v -0.00440728 -0.00255276 0.02734860
v -0.00521876 -0.00202816 0.02752690
v -0.00690375 -0.00040456 0.02746855
v -0.00726718 -0.00013396 0.02732591
v -0.00913591 -0.00040456 0.02590599
v -0.00521876 -0.00121636 0.02764685
v -0.00603025 -0.00040456 0.02770520
v -0.00911852 0.00040558 0.02588978
v -0.00941297 0.00040558 0.02528032
v -0.00945065 0.00040558 0.02446987
v -0.00947673 0.00283931 -0.00068341
v -0.00918054 0.00365111 -0.00311801
v -0.00893536 0.00418069 -0.00311801
v -0.00892376 0.00415579 -0.00149386
v -0.00891739 0.00414251 -0.00068341
v -0.00870177 0.00457414 -0.00230756
v -0.00829602 0.00522325 -0.00230756
v -0.00828675 0.00520997 -0.00149386
v -0.00801085 0.00561504 -0.00149386
v -0.00752396 0.00616288 -0.00072879
v -0.00723994 0.00648328 -0.00048890
v -0.00682260 0.00684518 0.00012705
v -0.00636643 0.00725025 0.00012705
v -0.00594098 0.00752085 0.00094075
v -0.00530803 0.00794917 -0.00068341
v -0.00526166 0.00792592 0.00094075
v -0.00482983 0.00812182 0.00175120
v -0.00481476 0.00811518 0.00218236
v -0.00440728 0.00831107 0.00094075
v -0.00406820 0.00845716 -0.00021010
v -0.00988073 0.00121571 0.00094075
v -0.00936196 0.00121571 0.02446987
v -0.00975322 0.00189802 0.00012705
v -0.00975322 0.00190300 -0.00068341
v -0.00964830 0.00230807 -0.00068341
v -0.00964656 0.00230475 0.00012705
v -0.00406820 -0.00202816 0.02740047
v -0.00440728 -0.00202816 0.02745882
v -0.00690433 0.00040724 0.02746855
v -0.00726718 0.00013664 0.02732591
v -0.00521876 -0.00040456 0.02769872
v -0.00440728 -0.00121636 0.02756256
v -0.00521876 0.00040558 0.02769872
v -0.00603025 0.00040558 0.02770196
v -0.00721559 0.00067784 0.02728701
v -0.00903157 0.00121571 0.02581846
v -0.00927676 0.00121571 0.02528032
v -0.00946746 0.00283931 0.00012705
v -0.00916083 0.00365111 -0.00149386
v -0.00915098 0.00365111 -0.00068341
v -0.00868264 0.00454924 -0.00068341
v -0.00913359 0.00365111 0.00012705
v -0.00890695 0.00412425 0.00012705
v -0.00827690 0.00519170 -0.00068341
v -0.00819575 0.00427532 0.02284572
v -0.00793028 0.00468039 0.02203526
v -0.00799751 0.00559677 -0.00068341
v -0.00722834 0.00647166 0.00012705
v -0.00790014 0.00468205 0.02284572
v -0.00680579 0.00682858 0.00094075
v -0.00634672 0.00723531 0.00094075
v -0.00588186 0.00747935 0.00337535
v -0.00523557 0.00791264 0.00175120
v -0.00586099 0.00746441 0.00418581
v -0.00521876 0.00786284 0.00337535
v -0.00521876 0.00783296 0.00418581
v -0.00521876 0.00780141 0.00499626
v -0.00521876 0.00776821 0.00580672
v -0.00478868 0.00810522 0.00272050
v -0.00440728 0.00828451 0.00175120
v -0.00406820 0.00843060 0.00060035
v -0.00972655 0.00179510 0.00256165
v -0.00973641 0.00183328 0.00175120
v -0.00974626 0.00186814 0.00094075
v -0.00918228 0.00202751 0.02446987
v -0.00963787 0.00227487 0.00094075
v -0.00896956 0.00268492 0.02446987
v -0.00406820 -0.00122134 0.02749773
v -0.00670030 0.00121571 0.02744262
v -0.00440728 -0.00040456 0.02759822
v -0.00440728 0.00040558 0.02759822
v -0.00440728 0.00121571 0.02756256
v -0.00521876 0.00121571 0.02764685
v -0.00603025 0.00121571 0.02762092
v -0.00654902 0.00180008 0.02737129
v -0.00710546 0.00121571 0.02719300
v -0.00893478 0.00176189 0.02574066
v -0.00903389 0.00203083 0.02529653
v -0.00893652 0.00259029 0.02503394
v -0.00854237 0.00365111 0.02365941
v -0.00881479 0.00310493 0.02365941
v -0.00819227 0.00424045 0.02365941
v -0.00721095 0.00645340 0.00094075
v -0.00752453 0.00514522 0.02203526
v -0.00749439 0.00506056 0.02284572
v -0.00678493 0.00681032 0.00175120
v -0.00628760 0.00718385 0.00337535
v -0.00569754 0.00735650 0.00986547
v -0.00567319 0.00733990 0.01067593
v -0.00521876 0.00773335 0.00662041
v -0.00562972 0.00730670 0.01196617
v -0.00475506 0.00809194 0.00337535
v -0.00447394 0.00823139 0.00249682
v -0.00434932 0.00824301 0.00337535
v -0.00406820 0.00839076 0.00175120
v -0.00877596 0.00308999 0.02446987
v -0.00406820 -0.00040456 0.02753339
v -0.00406820 0.00040558 0.02753339
v -0.00406820 0.00072598 0.02752042
v -0.00406820 0.00122069 0.02749773
v -0.00406820 0.00167225 0.02744586
v -0.00406820 0.00202751 0.02740047
v -0.00440728 0.00202751 0.02745882
v -0.00521876 0.00202751 0.02752690
v -0.00604242 0.00205408 0.02743613
v -0.00632064 0.00234128 0.02726756
v -0.00824038 0.00338715 0.02498532
v -0.00647366 0.00328755 0.02653815
v -0.00814474 0.00415745 0.02419107
v -0.00571956 0.00657126 0.01879020
v -0.00578622 0.00662937 0.01797650
v -0.00533121 0.00717721 0.01554190
v -0.00541989 0.00721373 0.01473144
v -0.00549988 0.00724693 0.01392099
v -0.00556364 0.00727350 0.01310729
v -0.00560190 0.00729176 0.01250756
v -0.00626674 0.00716559 0.00418581
v -0.00673392 0.00677878 0.00337535
v -0.00486171 0.00651482 0.02173053
v -0.00496315 0.00656296 0.02122481
v -0.00511153 0.00663435 0.02041111
v -0.00560016 0.00647664 0.01992484
v -0.00566450 0.00652478 0.01938345
v -0.00739238 0.00495431 0.02339034
v -0.00521876 0.00750591 0.01148638
v -0.00461537 0.00804379 0.00580672
v -0.00466637 0.00806039 0.00499626
v -0.00406820 0.00834095 0.00307062
v -0.00426063 0.00820814 0.00499626
v -0.00406820 0.00236286 0.02734860
v -0.00440728 0.00255709 0.02734860
v -0.00521876 0.00261520 0.02737454
v -0.00577985 0.00253883 0.02735185
v -0.00604242 0.00282105 0.02709898
v -0.00603025 0.00346850 0.02667106
v -0.00558509 0.00403958 0.02647980
v -0.00549757 0.00479494 0.02554939
v -0.00522398 0.00509044 0.02528032
v -0.00521876 0.00694811 0.01797650
v -0.00521876 0.00704606 0.01716605
v -0.00492547 0.00734156 0.01554190
v -0.00516428 0.00715895 0.01636532
v -0.00485707 0.00731832 0.01610273
v -0.00501415 0.00737310 0.01473144
v -0.00509414 0.00740465 0.01392099
v -0.00515790 0.00743619 0.01310729
v -0.00528658 0.00743619 0.01226118
v -0.00458523 0.00645008 0.02227191
v -0.00435164 0.00655300 0.02201581
v -0.00440728 0.00671071 0.02122481
v -0.00440728 0.00686345 0.02041111
v -0.00440728 0.00699958 0.01960066
v -0.00493706 0.00574784 0.02423970
v -0.00440728 0.00712077 0.01879020
v -0.00521876 0.00683356 0.01879020
v -0.00528484 0.00667585 0.01963307
v -0.00448843 0.00800395 0.00743087
v -0.00455451 0.00802387 0.00662041
v -0.00420963 0.00818656 0.00580672
v -0.00406820 0.00830775 0.00391349
v -0.00406820 0.00826293 0.00499626
v -0.00406820 0.00827289 0.00476285
v -0.00406820 0.00248073 0.02732267
v -0.00406820 0.00287750 0.02720272
v -0.00440728 0.00296216 0.02722541
v -0.00521876 0.00302193 0.02721569
v -0.00527615 0.00372250 0.02679101
v -0.00504429 0.00414583 0.02657057
v -0.00495677 0.00494435 0.02577956
v -0.00458870 0.00563828 0.02478108
v -0.00466058 0.00726354 0.01716605
v -0.00477013 0.00729176 0.01664412
v -0.00440728 0.00768853 0.01310729
v -0.00440728 0.00774995 0.01229684
v -0.00446234 0.00740133 0.01636532
v -0.00440728 0.00748931 0.01554190
v -0.00440728 0.00762212 0.01392099
v -0.00440728 0.00779975 0.01148638
v -0.00440728 0.00794086 0.00905502
v -0.00435164 0.00635877 0.02278088
v -0.00406820 0.00648826 0.02249236
v -0.00406820 0.00649656 0.02245994
v -0.00440728 0.00609315 0.02365941
v -0.00406820 0.00659949 0.02202229
v -0.00406820 0.00666921 0.02171756
v -0.00406820 0.00677380 0.02122481
v -0.00406820 0.00684352 0.02088442
v -0.00406820 0.00693317 0.02041111
v -0.00406820 0.00699460 0.02007720
v -0.00406820 0.00707760 0.01958120
v -0.00406820 0.00726354 0.01844008
v -0.00439221 0.00723033 0.01803810
v -0.00434526 0.00800561 0.00827374
v -0.00408269 0.00814174 0.00743087
v -0.00414876 0.00816332 0.00662041
v -0.00406820 0.00822641 0.00580672
v -0.00406820 0.00324936 0.02706981
v -0.00406820 0.00365111 0.02690123
v -0.00440728 0.00365111 0.02693365
v -0.00440728 0.00420227 0.02661271
v -0.00440728 0.00460900 0.02625287
v -0.00435337 0.00544072 0.02520900
v -0.00440728 0.00500577 0.02584764
v -0.00406820 0.00568476 0.02488482
v -0.00406820 0.00569472 0.02486213
v -0.00435337 0.00579765 0.02449580
v -0.00411225 0.00733160 0.01780793
v -0.00425484 0.00736978 0.01716605
v -0.00406820 0.00777651 0.01310729
v -0.00406820 0.00783794 0.01229684
v -0.00406820 0.00791596 0.01110385
v -0.00406820 0.00803383 0.00930140
v -0.00406820 0.00807533 0.00866600
v -0.00406820 0.00743951 0.01693588
v -0.00406820 0.00749761 0.01636208
v -0.00406820 0.00757232 0.01554190
v -0.00406820 0.00767027 0.01439429
v -0.00406820 0.00811186 0.00805330
v -0.00406820 0.00622596 0.02337738
v -0.00406820 0.00613797 0.02365941
v -0.00406820 0.00728512 0.01828448
v -0.00406820 0.00813676 0.00760268
v -0.00406820 0.00814672 0.00740817
v -0.00406820 0.00387191 0.02678777
v -0.00406820 0.00419397 0.02659974
v -0.00406820 0.00436330 0.02646683
v -0.00406820 0.00459904 0.02625611
v -0.00406820 0.00477999 0.02608754
v -0.00406820 0.00566982 0.02491076
v -0.00406820 0.00501075 0.02585088
v -0.00406820 0.00518008 0.02561747
v -0.00406820 0.00594872 0.02418135
v -0.00406820 0.00734820 0.01775606
v -0.00406820 0.00741461 0.01716605
f 1 2 3
f 1 3 4
f 1 4 5
f 1 5 6
f 1 6 15
f 1 15 32
f 1 32 55
f 1 55 54
f 1 54 77
f 1 77 111
f 1 111 154
f 1 154 198
f 1 198 239
f 1 239 280
f 1 280 322
f 1 322 363
f 1 363 404
f 1 404 438
f 1 438 471
f 1 471 503
f 1 503 505
f 1 505 504
f 1 504 539
f 1 539 566
f 1 566 565
f 1 565 561
f 1 561 556
f 1 556 555
f 1 555 554
f 1 554 553
f 1 553 552
f 1 552 560
f 1 560 559
f 1 559 558
f 1 558 557
f 1 557 577
f 1 577 576
f 1 576 564
f 1 564 534
f 1 534 533
f 1 533 532
f 1 532 531
f 1 531 530
f 1 530 529
f 1 529 528
f 1 528 527
f 1 527 525
f 1 525 524
f 1 524 562
f 1 562 563
f 1 563 575
f 1 575 548
f 1 548 547
f 1 547 572
f 1 572 574
f 1 574 573
f 1 573 571
f 1 571 570
f 1 570 569
f 1 569 568
f 1 568 567
f 1 567 541
f 1 541 540
f 1 540 507
f 1 507 506
f 1 506 473
f 1 473 445
f 1 445 444
f 1 444 443
f 1 443 442
f 1 442 441
f 1 441 440
f 1 440 411
f 1 411 370
f 1 370 333
f 1 333 332
f 1 332 331
f 1 331 330
f 1 330 291
f 1 291 251
f 1 251 218
f 1 218 178
f 1 178 177
f 1 177 175
f 1 175 174
f 1 174 172
f 1 172 171
f 1 171 217
f 1 217 216
f 1 216 169
f 1 169 167
f 1 167 168
f 1 168 166
f 1 166 165
f 1 165 215
f 1 215 213
f 1 213 214
f 1 214 192
f 1 192 193
f 1 193 191
f 1 191 190
f 1 190 189
f 1 189 162
f 1 162 120
f 1 120 119
f 1 119 116
f 1 116 114
f 1 114 80
f 1 80 56
f 1 56 33
f 1 33 16
f 1 16 7
f 1 7 2
f 2 7 3
f 3 7 8
f 3 8 9
f 3 9 4
f 4 9 10
f 4 10 5
f 5 10 11
f 5 11 12
f 5 12 13
f 5 13 14
f 5 14 6
f 6 14 15
f 7 16 8
f 8 16 17
f 8 17 18
f 8 18 9
f 9 18 19
f 9 19 20
f 9 20 21
f 9 21 22
f 9 22 23
f 9 23 24
f 9 24 25
f 9 25 10
f 10 25 26
f 10 26 11
f 11 26 12
f 12 26 27
f 12 27 28
f 12 28 13
f 13 28 14
f 14 28 29
f 14 29 30
f 14 30 52
f 14 52 31
f 14 31 15
f 15 31 32
f 16 33 34
f 16 34 17
f 17 19 18
f 17 34 35
f 17 35 36
f 17 36 19
f 19 36 37
f 19 37 20
f 20 37 21
f 21 37 38
f 21 38 39
f 21 39 22
f 22 39 40
f 22 40 23
f 23 40 24
f 24 40 25
f 25 41 42
f 25 42 26
f 25 40 41
f 26 42 43
f 26 43 27
f 27 43 44
f 27 44 45
f 27 45 46
f 27 46 47
f 27 47 28
f 28 47 29
f 29 48 49
f 29 49 50
f 29 50 30
f 29 47 51
f 29 51 48
f 30 50 53
f 30 53 72
f 30 72 52
f 31 52 54
f 31 54 55
f 31 55 32
f 33 56 57
f 33 57 34
f 34 57 35
f 35 57 58
f 35 58 59
f 35 59 36
f 36 59 37
f 37 59 60
f 37 60 61
f 37 61 62
f 37 62 63
f 37 63 38
f 38 63 39
f 39 63 40
f 40 63 64
f 40 64 41
f 41 64 42
f 42 65 43
f 42 64 65
f 43 65 66
f 43 66 44
f 44 66 67
f 44 67 45
f 45 67 68
f 45 68 46
f 46 68 51
f 46 51 47
f 48 69 49
f 48 51 64
f 48 64 69
f 49 70 71
f 49 71 53
f 49 53 50
f 49 69 70
f 51 68 64
f 52 72 73
f 52 73 74
f 52 74 54
f 53 71 75
f 53 75 76
f 53 76 97
f 53 97 72
f 54 74 78
f 54 78 79
f 54 79 77
f 56 80 81
f 56 81 57
f 57 81 58
f 58 81 82
f 58 82 60
f 58 60 59
f 60 82 83
f 60 83 84
f 60 84 85
f 60 85 61
f 61 85 62
f 62 85 86
f 62 86 63
f 63 87 88
f 63 88 64
f 63 86 89
f 63 89 90
f 63 90 91
f 63 91 92
f 63 92 93
f 63 93 87
f 64 88 94
f 64 94 95
f 64 95 69
f 64 68 67
f 64 67 66
f 64 66 65
f 69 95 70
f 70 95 94
f 70 94 96
f 70 96 75
f 70 75 71
f 72 97 98
f 72 98 73
f 73 99 100
f 73 100 101
f 73 101 74
f 73 98 102
f 73 102 103
f 73 103 99
f 74 101 100
f 74 100 104
f 74 104 78
f 75 96 105
f 75 105 76
f 76 105 106
f 76 106 107
f 76 107 108
f 76 108 109
f 76 109 110
f 76 110 97
f 77 79 112
f 77 112 111
f 78 104 113
f 78 113 112
f 78 112 79
f 80 114 115
f 80 115 81
f 81 115 82
f 82 115 83
f 83 116 84
f 83 115 117
f 83 117 114
f 83 114 116
f 84 118 85
f 84 116 119
f 84 119 120
f 84 120 118
f 85 121 89
f 85 89 86
f 85 118 121
f 87 93 122
f 87 122 123
f 87 123 124
f 87 124 125
f 87 125 126
f 87 126 127
f 87 127 128
f 87 128 129
f 87 129 130
f 87 130 131
f 87 131 132
f 87 132 133
f 87 133 134
f 87 134 88
f 88 134 135
f 88 135 136
f 88 136 137
f 88 137 138
f 88 138 94
f 89 121 90
f 90 121 139
f 90 139 92
f 90 92 91
f 92 139 118
f 92 118 140
f 92 140 93
f 93 140 141
f 93 141 142
f 93 142 143
f 93 143 122
f 94 138 96
f 96 144 105
f 96 138 137
f 96 137 144
f 97 110 102
f 97 102 98
f 99 145 146
f 99 146 104
f 99 104 100
f 99 103 147
f 99 147 148
f 99 148 149
f 99 149 145
f 102 110 150
f 102 150 151
f 102 151 103
f 103 151 152
f 103 152 153
f 103 153 147
f 104 146 154
f 104 154 113
f 105 144 155
f 105 155 156
f 105 156 157
f 105 157 107
f 105 107 106
f 107 157 158
f 107 158 159
f 107 159 108
f 108 160 110
f 108 110 109
f 108 159 161
f 108 161 160
f 110 160 150
f 111 112 154
f 112 113 154
f 114 117 115
f 118 120 162
f 118 162 140
f 118 139 121
f 122 143 163
f 122 163 123
f 123 163 124
f 124 164 165
f 124 165 166
f 124 166 125
f 124 163 164
f 125 166 126
f 126 167 127
f 126 166 168
f 126 168 167
f 127 167 169
f 127 169 170
f 127 170 128
f 128 170 129
f 129 171 172
f 129 172 130
f 129 170 173
f 129 173 171
f 130 172 174
f 130 174 131
f 131 175 176
f 131 176 133
f 131 133 132
f 131 174 175
f 133 176 177
f 133 177 178
f 133 178 179
f 133 179 180
f 133 180 181
f 133 181 134
f 134 181 180
f 134 180 182
f 134 182 183
f 134 183 184
f 134 184 135
f 135 185 136
f 135 184 185
f 136 185 186
f 136 186 137
f 137 186 187
f 137 187 188
f 137 188 144
f 140 189 190
f 140 190 141
f 140 162 189
f 141 190 142
f 142 190 191
f 142 191 143
f 143 192 163
f 143 191 193
f 143 193 192
f 144 188 155
f 145 149 194
f 145 194 231
f 145 231 195
f 145 195 196
f 145 196 146
f 146 196 237
f 146 237 197
f 146 197 198
f 146 198 154
f 147 153 199
f 147 199 200
f 147 200 148
f 148 194 149
f 148 200 201
f 148 201 202
f 148 202 194
f 150 201 151
f 150 160 201
f 151 201 152
f 152 201 153
f 153 201 199
f 155 188 203
f 155 203 156
f 156 204 157
f 156 203 205
f 156 205 204
f 157 204 158
f 158 204 206
f 158 206 207
f 158 207 159
f 159 207 208
f 159 208 161
f 160 209 201
f 160 161 211
f 160 211 209
f 161 210 211
f 161 208 212
f 161 212 210
f 163 213 164
f 163 192 214
f 163 214 213
f 164 215 165
f 164 213 215
f 169 216 170
f 170 216 173
f 171 173 217
f 173 216 217
f 175 177 176
f 178 218 219
f 178 219 179
f 179 219 180
f 180 219 220
f 180 220 221
f 180 221 182
f 182 221 222
f 182 222 223
f 182 223 224
f 182 224 184
f 182 184 183
f 184 224 225
f 184 225 226
f 184 226 227
f 184 227 228
f 184 228 229
f 184 229 185
f 185 229 230
f 185 230 186
f 186 230 187
f 187 230 188
f 188 230 203
f 194 202 231
f 195 231 232
f 195 232 233
f 195 233 234
f 195 234 235
f 195 235 196
f 196 235 236
f 196 236 237
f 197 237 238
f 197 238 239
f 197 239 198
f 199 201 200
f 201 209 202
f 202 209 240
f 202 240 231
f 203 230 241
f 203 241 205
f 204 205 242
f 204 242 206
f 205 241 243
f 205 243 242
f 206 242 244
f 206 244 245
f 206 245 207
f 207 245 246
f 207 246 247
f 207 247 208
f 208 247 248
f 208 248 212
f 209 211 240
f 210 249 211
f 210 212 248
f 210 248 250
f 210 250 249
f 211 249 240
f 218 251 252
f 218 252 219
f 219 252 220
f 220 252 253
f 220 253 254
f 220 254 255
f 220 255 221
f 221 255 256
f 221 256 222
f 222 256 257
f 222 257 223
f 223 257 224
f 224 258 226
f 224 226 225
f 224 257 259
f 224 259 258
f 226 258 260
f 226 260 227
f 227 260 261
f 227 261 262
f 227 262 263
f 227 263 264
f 227 264 265
f 227 265 266
f 227 266 228
f 228 266 267
f 228 267 229
f 229 267 230
f 230 267 241
f 231 240 268
f 231 268 269
f 231 269 270
f 231 270 232
f 232 270 271
f 232 271 272
f 232 272 233
f 233 272 234
f 234 272 273
f 234 273 274
f 234 274 236
f 234 236 235
f 236 274 275
f 236 275 276
f 236 276 277
f 236 277 237
f 237 277 278
f 237 278 279
f 237 279 280
f 237 280 238
f 238 280 239
f 240 249 268
f 241 267 266
f 241 266 243
f 242 243 281
f 242 281 282
f 242 282 244
f 243 266 283
f 243 283 281
f 244 282 284
f 244 284 246
f 244 246 245
f 246 284 248
f 246 248 247
f 248 284 285
f 248 285 286
f 248 286 287
f 248 287 288
f 248 288 250
f 249 289 268
f 249 250 288
f 249 288 287
f 249 287 290
f 249 290 289
f 251 291 253
f 251 253 252
f 253 291 292
f 253 292 254
f 254 293 294
f 254 294 295
f 254 295 255
f 254 292 293
f 255 295 256
f 256 295 257
f 257 295 296
f 257 296 259
f 258 259 297
f 258 297 298
f 258 298 299
f 258 299 260
f 259 296 300
f 259 300 301
f 259 301 298
f 259 298 297
f 260 299 302
f 260 302 261
f 261 302 303
f 261 303 262
f 262 303 263
f 263 303 285
f 263 285 304
f 263 304 265
f 263 265 264
f 265 304 283
f 265 283 266
f 268 289 305
f 268 305 270
f 268 270 269
f 270 305 306
f 270 306 307
f 270 307 308
f 270 308 271
f 271 308 309
f 271 309 310
f 271 310 311
f 271 311 272
f 272 311 312
f 272 312 273
f 273 312 313
f 273 313 314
f 273 314 274
f 274 314 315
f 274 315 316
f 274 316 275
f 275 316 315
f 275 315 317
f 275 317 276
f 276 318 277
f 276 317 319
f 276 319 318
f 277 318 320
f 277 320 278
f 278 320 279
f 279 321 322
f 279 322 280
f 279 320 323
f 279 323 321
f 281 284 282
f 281 283 304
f 281 304 284
f 284 304 285
f 285 303 324
f 285 324 286
f 286 325 326
f 286 326 287
f 286 324 364
f 286 364 325
f 287 326 290
f 289 290 326
f 289 326 327
f 289 327 328
f 289 328 329
f 289 329 305
f 291 330 292
f 292 330 293
f 293 331 332
f 293 332 333
f 293 333 334
f 293 334 294
f 293 330 331
f 294 335 295
f 294 334 335
f 295 335 296
f 296 335 300
f 298 301 336
f 298 336 337
f 298 337 299
f 299 337 338
f 299 338 302
f 300 335 339
f 300 339 340
f 300 340 301
f 301 340 336
f 302 338 341
f 302 341 342
f 302 342 343
f 302 343 324
f 302 324 303
f 305 329 306
f 306 329 344
f 306 344 345
f 306 345 307
f 307 345 346
f 307 346 308
f 308 346 309
f 309 346 347
f 309 347 348
f 309 348 349
f 309 349 310
f 310 349 350
f 310 350 311
f 311 350 351
f 311 351 352
f 311 352 313
f 311 313 312
f 313 352 353
f 313 353 314
f 314 353 354
f 314 354 315
f 315 354 355
f 315 355 317
f 317 355 356
f 317 356 319
f 318 319 357
f 318 357 358
f 318 358 320
f 319 356 357
f 320 358 359
f 320 359 323
f 321 323 360
f 321 360 361
f 321 361 362
f 321 362 322
f 322 362 363
f 323 359 396
f 323 396 360
f 324 343 365
f 324 365 364
f 325 366 367
f 325 367 326
f 325 364 366
f 326 367 327
f 327 367 328
f 328 367 368
f 328 368 329
f 329 368 369
f 329 369 344
f 333 370 371
f 333 371 334
f 334 371 335
f 335 371 339
f 336 372 337
f 336 340 372
f 337 372 373
f 337 373 338
f 338 373 341
f 339 374 340
f 339 371 375
f 339 375 374
f 340 374 376
f 340 376 377
f 340 377 372
f 341 373 378
f 341 378 379
f 341 379 342
f 342 380 365
f 342 365 343
f 342 379 380
f 344 369 381
f 344 381 345
f 345 381 382
f 345 382 346
f 346 382 383
f 346 383 347
f 347 383 348
f 348 384 349
f 348 383 385
f 348 385 386
f 348 386 384
f 349 384 350
f 350 384 351
f 351 384 387
f 351 387 352
f 352 387 388
f 352 388 389
f 352 389 390
f 352 390 353
f 353 391 354
f 353 390 392
f 353 392 391
f 354 391 355
f 355 391 393
f 355 393 356
f 356 393 394
f 356 394 395
f 356 395 357
f 357 395 359
f 357 359 358
f 359 395 397
f 359 397 396
f 360 396 361
f 361 398 399
f 361 399 400
f 361 400 401
f 361 401 402
f 361 402 403
f 361 403 362
f 361 396 398
f 362 403 404
f 362 404 363
f 364 405 406
f 364 406 407
f 364 407 366
f 364 365 405
f 365 380 408
f 365 408 406
f 365 406 405
f 366 369 368
f 366 368 367
f 366 407 369
f 369 407 409
f 369 409 410
f 369 410 381
f 370 411 375
f 370 375 371
f 372 377 412
f 372 412 378
f 372 378 373
f 374 375 413
f 374 413 414
f 374 414 376
f 375 411 413
f 376 414 415
f 376 415 416
f 376 416 377
f 377 416 417
f 377 417 412
f 378 412 418
f 378 418 419
f 378 419 420
f 378 420 379
f 379 420 380
f 380 420 421
f 380 421 422
f 380 422 408
f 381 385 383
f 381 383 382
f 381 410 385
f 384 386 423
f 384 423 388
f 384 388 387
f 385 410 424
f 385 424 386
f 386 424 423
f 388 423 425
f 388 425 389
f 389 425 392
f 389 392 390
f 391 426 393
f 391 392 427
f 391 427 426
f 392 425 428
f 392 428 427
f 393 426 429
f 393 429 460
f 393 460 430
f 393 430 394
f 394 430 397
f 394 397 395
f 396 397 431
f 396 431 398
f 397 430 431
f 398 431 399
f 399 431 432
f 399 432 400
f 400 432 401
f 401 433 402
f 401 432 434
f 401 434 433
f 402 435 436
f 402 436 403
f 402 433 434
f 402 434 435
f 403 436 437
f 403 437 438
f 403 438 404
f 406 408 407
f 407 408 409
f 408 422 410
f 408 410 409
f 410 422 439
f 410 439 424
f 411 440 413
f 412 417 418
f 413 440 441
f 413 441 414
f 414 441 442
f 414 442 415
f 415 442 443
f 415 443 444
f 415 444 445
f 415 445 446
f 415 446 416
f 416 447 417
f 416 446 447
f 417 447 448
f 417 448 418
f 418 448 449
f 418 449 420
f 418 420 419
f 420 450 422
f 420 422 421
f 420 449 451
f 420 451 450
f 422 450 452
f 422 452 439
f 423 424 439
f 423 439 425
f 425 439 452
f 425 452 428
f 426 427 429
f 427 428 453
f 427 453 454
f 427 454 455
f 427 455 456
f 427 456 457
f 427 457 458
f 427 458 459
f 427 459 434
f 427 434 432
f 427 432 460
f 427 460 461
f 427 461 429
f 428 462 463
f 428 463 464
f 428 464 465
f 428 465 466
f 428 466 453
f 428 452 467
f 428 467 462
f 429 461 460
f 430 460 431
f 431 460 432
f 434 459 468
f 434 468 469
f 434 469 470
f 434 470 435
f 435 470 437
f 435 437 436
f 437 471 438
f 437 470 472
f 437 472 471
f 445 473 446
f 446 473 474
f 446 474 447
f 447 474 475
f 447 475 476
f 447 476 448
f 448 476 449
f 449 476 477
f 449 477 478
f 449 478 451
f 450 451 479
f 450 479 452
f 451 478 479
f 452 479 480
f 452 480 481
f 452 481 467
f 453 466 482
f 453 482 483
f 453 483 455
f 453 455 454
f 455 484 456
f 455 483 485
f 455 485 486
f 455 486 484
f 456 484 487
f 456 487 457
f 457 487 488
f 457 488 489
f 457 489 458
f 458 489 490
f 458 490 459
f 459 490 468
f 462 491 492
f 462 492 493
f 462 493 494
f 462 494 495
f 462 495 463
f 462 467 496
f 462 496 491
f 463 495 464
f 464 495 497
f 464 497 498
f 464 498 499
f 464 499 465
f 465 499 498
f 465 498 466
f 466 498 482
f 467 481 496
f 468 490 489
f 468 489 500
f 468 500 501
f 468 501 469
f 469 501 502
f 469 502 472
f 469 472 470
f 471 472 503
f 472 502 504
f 472 504 505
f 472 505 503
f 473 506 474
f 474 506 507
f 474 507 508
f 474 508 475
f 475 508 509
f 475 509 476
f 476 509 510
f 476 510 477
f 477 510 479
f 477 479 478
f 479 510 511
f 479 511 512
f 479 512 480
f 480 512 481
f 481 512 513
f 481 513 496
f 482 514 515
f 482 515 483
f 482 498 514
f 483 515 486
f 483 486 485
f 484 516 517
f 484 517 487
f 484 486 516
f 486 515 518
f 486 518 519
f 486 519 520
f 486 520 516
f 487 517 488
f 488 517 489
f 489 517 521
f 489 521 522
f 489 522 500
f 491 523 524
f 491 524 525
f 491 525 492
f 491 496 526
f 491 526 523
f 492 527 528
f 492 528 493
f 492 525 527
f 493 528 529
f 493 529 530
f 493 530 531
f 493 531 494
f 494 531 532
f 494 532 495
f 495 532 533
f 495 533 534
f 495 534 497
f 496 513 526
f 497 534 535
f 497 535 514
f 497 514 498
f 500 522 536
f 500 536 537
f 500 537 538
f 500 538 502
f 500 502 501
f 502 538 537
f 502 537 539
f 502 539 504
f 507 540 508
f 508 540 541
f 508 541 542
f 508 542 509
f 509 542 543
f 509 543 511
f 509 511 510
f 511 543 544
f 511 544 512
f 512 545 513
f 512 544 546
f 512 546 545
f 513 545 547
f 513 547 548
f 513 548 549
f 513 549 526
f 514 535 550
f 514 550 551
f 514 551 515
f 515 551 518
f 516 520 552
f 516 552 553
f 516 553 517
f 517 553 554
f 517 554 555
f 517 555 556
f 517 556 521
f 518 551 557
f 518 557 558
f 518 558 559
f 518 559 519
f 519 559 560
f 519 560 552
f 519 552 520
f 521 556 561
f 521 561 522
f 522 561 536
f 523 526 524
f 524 526 562
f 526 549 563
f 526 563 562
f 534 564 535
f 535 564 550
f 536 561 537
f 537 561 565
f 537 565 566
f 537 566 539
f 541 567 542
f 542 567 543
f 543 567 568
f 543 568 569
f 543 569 544
f 544 570 571
f 544 571 546
f 544 569 570
f 545 572 547
f 545 546 572
f 546 571 573
f 546 573 574
f 546 574 572
f 548 575 549
f 549 575 563
f 550 576 551
f 550 564 576
f 551 577 557
f 551 576 577

