v -0.00809425 -0.00295000 -0.00261496
v -0.00766261 -0.00299862 -0.00250734
v -0.00750279 -0.00295000 -0.00255260
v -0.00724418 -0.00314566 -0.00240302
v -0.00708180 -0.00295000 -0.00259392
v -0.00679572 -0.00295000 -0.00265212
v -0.00686737 -0.00338392 -0.00230907
v -0.00640682 -0.00295000 -0.00276084
v -0.00679572 0.00295000 -0.00265212
v -0.00640682 0.00295000 -0.00276084
v -0.00686737 0.00338392 -0.00230907
v -0.00708180 0.00295000 -0.00259392
v -0.00809425 0.00295000 -0.00261497
v -0.00750279 0.00295000 -0.00255260
v -0.00766261 0.00299862 -0.00250735
v -0.00724418 0.00314566 -0.00240302
v -0.00618449 -0.00384303 -0.00213881
v -0.00527034 -0.00295000 -0.00304428
v -0.00543730 -0.00417931 -0.00195252
v -0.00473318 -0.00295000 -0.00311017
v -0.00435475 -0.00295000 -0.00312172
v -0.00464641 -0.00438350 -0.00175532
v -0.00407252 -0.00295000 -0.00310842
v -0.00362180 -0.00295000 -0.00304314
v -0.00385311 -0.00445000 -0.00155753
v -0.00349023 -0.00295000 -0.00301297
v 0.00000000 -0.00700000 0.00150001
v -0.00057402 -0.00700000 0.00138582
v 0.00000000 -0.00700000 0.00000000
v 0.00138582 -0.00700000 0.00057403
v 0.00106066 -0.00700000 0.00106066
v 0.00057403 -0.00700000 0.00138583
v 0.00106066 -0.00700000 -0.00106065
v 0.00138582 -0.00700000 -0.00057402
v 0.00150000 -0.00700000 0.00000000
v -0.00057402 -0.00700000 -0.00138581
v 0.00000000 -0.00700000 -0.00149999
v 0.00057403 -0.00700000 -0.00138582
v -0.00150000 -0.00700000 0.00000001
v -0.00138582 -0.00700000 -0.00057402
v -0.00106066 -0.00700000 -0.00106065
v -0.00106066 -0.00700000 0.00106066
v -0.00138582 -0.00700000 0.00057403
v -0.00011108 -0.00195000 -0.00078762
v 0.00153868 -0.00195000 -0.00049673
v -0.00011380 -0.00214521 -0.00080800
v 0.00153459 -0.00217078 -0.00052250
v -0.00012109 -0.00232170 -0.00086258
v 0.00151956 -0.00237749 -0.00059756
v 0.00148848 -0.00255873 -0.00071539
v -0.00013453 -0.00250605 -0.00096315
v 0.00145562 -0.00266149 -0.00081327
v -0.00015181 -0.00265670 -0.00109250
v 0.00143191 -0.00271203 -0.00087345
v 0.00134396 -0.00282501 -0.00105491
v -0.00019656 -0.00287098 -0.00142753
v 0.00091583 -0.00295036 -0.00162198
v -0.00025000 -0.00295000 -0.00182755
v 0.00104691 -0.00294304 -0.00147929
v 0.00121566 -0.00290301 -0.00126148
v -0.00074245 -0.00295000 -0.00422130
v -0.00115874 -0.00295000 -0.00438723
v -0.00187981 -0.00295000 -0.00457887
v -0.00250866 -0.00295000 -0.00265580
v -0.00162272 -0.00295000 -0.00210248
v -0.00087107 -0.00295000 -0.00137717
v -0.00871188 -0.00295000 -0.00585808
v -0.00074002 -0.00295000 -0.00121434
v -0.00066391 -0.00295000 -0.00132571
v -0.00061123 -0.00295000 -0.00139744
v 0.00091391 -0.00295000 -0.00198224
v 0.00090342 -0.00295000 -0.00208478
v 0.00085769 -0.00295000 -0.00234148
v 0.00038535 -0.00295000 -0.00333574
v 0.00013486 -0.00295000 -0.00362030
v -0.00052837 -0.00295000 -0.00150363
v -0.00046696 -0.00295000 -0.00157825
v -0.00014826 -0.00295000 -0.00386779
v -0.00048059 -0.00295000 -0.00408807
v -0.00935082 -0.00295000 -0.00292826
v 0.00075084 -0.00295000 -0.00268756
v 0.00059037 -0.00295000 -0.00302575
v -0.00928624 -0.00295000 -0.00585375
v -0.00981685 -0.00295000 -0.00563387
v -0.01022593 -0.00295000 -0.00523069
v -0.01026211 -0.00295000 -0.00359219
v -0.00987122 -0.00295000 -0.00317135
v -0.01046617 -0.00295000 -0.00412909
v -0.01045349 -0.00295000 -0.00470331
v -0.00011108 0.00195000 -0.00078762
v 0.00153868 0.00195000 -0.00049673
v -0.00019753 0.00287388 -0.00143476
v -0.00025000 0.00295000 -0.00182754
v 0.00091583 0.00294984 -0.00162198
v -0.00015182 0.00265676 -0.00109257
v -0.00017293 0.00277996 -0.00125064
v 0.00124757 0.00288919 -0.00121478
v 0.00112785 0.00292955 -0.00138031
v -0.00019696 0.00287218 -0.00143049
v 0.00128646 0.00286793 -0.00115377
v 0.00139408 0.00277058 -0.00095730
v 0.00145707 0.00265746 -0.00080889
v -0.00012164 0.00233150 -0.00086670
v 0.00146118 0.00264691 -0.00079760
v 0.00150521 0.00247837 -0.00065594
v 0.00153758 0.00206961 -0.00050421
v 0.00152814 0.00228444 -0.00055706
v -0.00349022 0.00295000 -0.00301297
v -0.00385311 0.00445000 -0.00155753
v -0.00362180 0.00295000 -0.00304314
v -0.00466082 0.00438104 -0.00175892
v -0.00408347 0.00295000 -0.00310931
v -0.00435475 0.00295000 -0.00312171
v -0.00544651 0.00417606 -0.00195481
v -0.00474161 0.00295000 -0.00310956
v -0.00618877 0.00384064 -0.00213988
v -0.00527034 0.00295000 -0.00304427
v -0.00115874 0.00295000 -0.00438723
v -0.00074245 0.00295000 -0.00422130
v -0.00187981 0.00295000 -0.00457887
v -0.00250866 0.00295000 -0.00265580
v -0.00042915 0.00295000 -0.00162096
v -0.00052862 0.00295000 -0.00150177
v -0.00087107 0.00295000 -0.00137717
v -0.00037858 0.00295000 -0.00402758
v -0.00005321 0.00295000 -0.00379277
v 0.00020411 0.00295000 -0.00354978
v -0.00162272 0.00295000 -0.00210248
v -0.00060901 0.00295000 -0.00139950
v -0.00061674 0.00295000 -0.00138931
v -0.00074011 0.00295000 -0.00121446
v -0.00871188 0.00295000 -0.00585809
v 0.00044838 0.00295000 -0.00324939
v 0.00064741 0.00295000 -0.00291784
v 0.00079447 0.00295000 -0.00256565
v 0.00088600 0.00295000 -0.00220271
v 0.00092132 0.00295000 -0.00183582
v -0.01026211 0.00295000 -0.00359219
v -0.01046617 0.00295000 -0.00412909
v -0.01045349 0.00295000 -0.00470332
v -0.00935082 0.00295000 -0.00292826
v -0.00928624 0.00295000 -0.00585375
v -0.00987122 0.00295000 -0.00317135
v -0.00981685 0.00295000 -0.00563387
v -0.01022593 0.00295000 -0.00523068
v 0.00000000 0.00700000 0.00150000
v 0.00057403 0.00700000 0.00138582
v 0.00000000 0.00700000 0.00000001
v -0.00138582 0.00700000 0.00057403
v -0.00106066 0.00700000 0.00106067
v -0.00057402 0.00700000 0.00138583
v -0.00106066 0.00700000 -0.00106066
v -0.00138582 0.00700000 -0.00057402
v -0.00150000 0.00700000 0.00000000
v 0.00057403 0.00700000 -0.00138581
v 0.00000000 0.00700000 -0.00150000
v -0.00057402 0.00700000 -0.00138582
v 0.00150000 0.00700000 0.00000000
v 0.00138582 0.00700000 -0.00057402
v 0.00106066 0.00700000 -0.00106066
v 0.00106066 0.00700000 0.00106067
v 0.00138582 0.00700000 0.00057403
v -0.00113905 -0.00436711 0.00144115
v -0.00111206 -0.00435323 0.00158436
v -0.00105000 -0.00428824 0.00154323
v -0.00106559 -0.00431411 0.00194782
v -0.00105000 -0.00426919 0.00231505
v -0.00130121 -0.00441364 0.00086119
v -0.00105000 -0.00414220 0.00075313
v -0.00140252 -0.00442888 0.00060317
v -0.00105000 -0.00380893 -0.00011782
v -0.00160624 -0.00444516 0.00019121
v -0.00096035 -0.00319186 -0.00110362
v -0.00093220 -0.00315114 -0.00113370
v -0.00083048 -0.00303310 -0.00119530
v -0.00102172 -0.00330914 -0.00099151
v -0.00098498 -0.00323251 -0.00106916
v -0.00201970 -0.00445000 -0.00041247
v -0.00182960 -0.00445000 -0.00016443
v -0.00105000 -0.00344248 -0.00080657
v -0.00103197 -0.00333774 -0.00095788
v -0.00316601 -0.00445000 -0.00130750
v -0.00307304 -0.00445000 -0.00126045
v -0.00238551 -0.00445000 -0.00078712
v -0.00254585 -0.00445000 -0.00092018
v -0.00025000 -0.00195000 -0.00079970
v -0.00036146 -0.00287806 -0.00142853
v -0.00052124 -0.00291480 -0.00141386
v -0.00048910 -0.00267868 -0.00107115
v -0.00064531 -0.00272717 -0.00102344
v -0.00098401 -0.00318034 -0.00098768
v -0.00079150 -0.00295347 -0.00113736
v -0.00105000 -0.00195800 0.00000020
v -0.00105000 -0.00195000 0.00000022
v -0.00099156 -0.00195000 -0.00029991
v -0.00105000 -0.00248568 -0.00008248
v -0.00097797 -0.00223611 -0.00035835
v -0.00097843 -0.00195000 -0.00033052
v -0.00105000 -0.00307930 -0.00040435
v -0.00098189 -0.00299354 -0.00076102
v -0.00105000 -0.00290347 -0.00027654
v -0.00098013 -0.00276825 -0.00057681
v -0.00097880 -0.00251234 -0.00044157
v -0.00078371 -0.00279805 -0.00095364
v -0.00076743 -0.00195000 -0.00060991
v -0.00076935 -0.00218097 -0.00063124
v -0.00077239 -0.00240460 -0.00069727
v -0.00077724 -0.00261293 -0.00080534
v -0.00042499 -0.00195000 -0.00078040
v -0.00045959 -0.00195000 -0.00077183
v -0.00046150 -0.00214863 -0.00079113
v -0.00046732 -0.00234087 -0.00084856
v -0.00047662 -0.00251983 -0.00094246
v -0.00032211 -0.00265491 -0.00109449
v -0.00025000 0.00195000 -0.00079957
v -0.00042499 0.00195000 -0.00078040
v -0.00046741 0.00234101 -0.00084791
v -0.00052125 0.00291524 -0.00141371
v -0.00050423 0.00281224 -0.00123011
v -0.00079153 0.00295348 -0.00113734
v -0.00079393 0.00299774 -0.00120597
v -0.00098555 0.00323271 -0.00106956
v -0.00096232 0.00319427 -0.00110222
v -0.00098459 0.00318032 -0.00098770
v -0.00093379 0.00315295 -0.00113279
v -0.00083133 0.00303401 -0.00119491
v -0.00105000 0.00344248 -0.00080657
v -0.00103214 0.00333750 -0.00095848
v -0.00102244 0.00331014 -0.00099081
v -0.00097871 0.00223610 -0.00035838
v -0.00105000 0.00247106 -0.00007802
v -0.00105000 0.00275626 -0.00019345
v -0.00032211 0.00265499 -0.00109429
v -0.00048915 0.00267900 -0.00107072
v -0.00078375 0.00279806 -0.00095361
v -0.00098253 0.00299352 -0.00076104
v -0.00077729 0.00261292 -0.00080530
v -0.00047670 0.00252006 -0.00094190
v -0.00062898 0.00236631 -0.00078802
v -0.00062321 0.00195000 -0.00070739
v -0.00105000 0.00195000 0.00000022
v -0.00099156 0.00195000 -0.00029991
v -0.00097860 0.00195000 -0.00033014
v -0.00076941 0.00218097 -0.00063118
v -0.00076743 0.00195000 -0.00060991
v -0.00105000 0.00308380 -0.00040819
v -0.00098081 0.00276822 -0.00057683
v -0.00097952 0.00251232 -0.00044160
v -0.00077245 0.00240460 -0.00069722
v -0.00029565 0.00232964 -0.00087496
v -0.00105000 0.00343357 -0.00079326
v -0.00201970 0.00445000 -0.00041246
v -0.00182960 0.00445000 -0.00016444
v -0.00160624 0.00444516 0.00019122
v -0.00105000 0.00380290 -0.00013053
v -0.00105000 0.00395103 0.00020436
v -0.00140252 0.00442888 0.00060318
v -0.00130121 0.00441364 0.00086118
v -0.00105000 0.00414875 0.00077635
v -0.00105000 0.00421963 0.00106756
v -0.00113905 0.00436711 0.00144115
v -0.00105000 0.00429078 0.00157664
v -0.00105000 0.00430013 0.00185443
v -0.00106563 0.00431416 0.00194740
v -0.00105000 0.00426919 0.00231505
v -0.00238551 0.00445000 -0.00078711
v -0.00254585 0.00445000 -0.00092018
v -0.00316601 0.00445000 -0.00130751
v -0.00307304 0.00445000 -0.00126045
v -0.00871188 -0.00495000 -0.00585809
v -0.00928624 -0.00495000 -0.00585374
v -0.00981685 -0.00495000 -0.00563387
v -0.01022593 -0.00495000 -0.00523069
v -0.01045349 -0.00495000 -0.00470332
v -0.01046617 -0.00495000 -0.00412909
v -0.01026211 -0.00495000 -0.00359219
v -0.00987122 -0.00495000 -0.00317135
v -0.00935082 -0.00495000 -0.00292826
v -0.00385311 -0.00495000 -0.00155753
v -0.00307304 -0.00495000 -0.00126045
v -0.00238551 -0.00495000 -0.00078712
v -0.00182960 -0.00495000 -0.00016443
v -0.00140252 -0.00495000 0.00060317
v -0.00105000 -0.00495000 0.00231504
v -0.00113905 -0.00495000 0.00144115
v 0.00220000 -0.00462199 0.00554539
v 0.00220000 -0.00425416 0.00587544
v -0.00105000 -0.00425416 0.00587544
v -0.00105000 -0.00462199 0.00554540
v -0.00105000 -0.00486562 0.00510520
v 0.00220000 -0.00486562 0.00510520
v -0.00105000 -0.00495000 0.00460921
v 0.00220000 -0.00495000 0.00460921
v -0.00187981 -0.00495000 -0.00457887
v 0.00163429 -0.00359534 -0.00194063
v 0.00159342 -0.00344621 -0.00192230
v 0.00176428 -0.00343390 -0.00157302
v 0.00107785 -0.00296721 -0.00166707
v 0.00170470 -0.00275445 -0.00080141
v 0.00175250 -0.00258585 -0.00063106
v 0.00178017 -0.00238905 -0.00050520
v 0.00179407 -0.00217405 -0.00042856
v 0.00186023 -0.00195000 -0.00036308
v 0.00162902 -0.00288455 -0.00100960
v 0.00152122 -0.00297064 -0.00124468
v 0.00138130 -0.00301303 -0.00149056
v 0.00121031 -0.00301382 -0.00173389
v 0.00101150 -0.00297887 -0.00196931
v 0.00091421 -0.00297408 -0.00230271
v 0.00002357 -0.00301362 -0.00375121
v -0.00002838 -0.00322191 -0.00382448
v -0.00017167 -0.00316402 -0.00391665
v 0.00190128 -0.00336772 -0.00121983
v 0.00202638 -0.00356705 -0.00096953
v 0.00110635 -0.00319191 -0.00250281
v 0.00102199 -0.00306804 -0.00240786
v 0.00133001 -0.00326870 -0.00220439
v 0.00124331 -0.00314542 -0.00213494
v 0.00152770 -0.00330866 -0.00189109
v 0.00143954 -0.00318791 -0.00184807
v 0.00160735 -0.00318813 -0.00155202
v 0.00139182 -0.00341214 -0.00226063
v 0.00142615 -0.00356951 -0.00230136
v 0.00116303 -0.00333987 -0.00258283
v 0.00118932 -0.00350453 -0.00264406
v 0.00063799 -0.00311336 -0.00315817
v 0.00092775 -0.00340895 -0.00296329
v 0.00064527 -0.00329125 -0.00325391
v 0.00061592 -0.00348112 -0.00331649
v 0.00001095 -0.00323792 -0.00379801
v 0.00200987 -0.00195000 -0.00022635
v 0.00212033 -0.00195000 -0.00005643
v 0.00200617 -0.00221114 -0.00025798
v 0.00214679 -0.00226065 -0.00002730
v 0.00199300 -0.00246176 -0.00035181
v 0.00213665 -0.00255830 -0.00014173
v 0.00196673 -0.00269120 -0.00050571
v 0.00211460 -0.00283010 -0.00032818
v 0.00192107 -0.00288776 -0.00071364
v 0.00207336 -0.00306312 -0.00057829
v 0.00184824 -0.00303933 -0.00096721
v 0.00200401 -0.00324450 -0.00088089
v 0.00174381 -0.00313937 -0.00125308
v 0.00059441 -0.00295896 -0.00303530
v 0.00207835 -0.00347652 -0.00076057
v 0.00213169 -0.00331876 -0.00049043
v 0.00217217 -0.00306705 -0.00019209
v 0.00219523 -0.00263677 0.00011659
v 0.00219932 -0.00231678 0.00023633
v 0.00219972 -0.00215307 0.00026847
v 0.00219972 -0.00195000 0.00028263
v 0.00188063 -0.00369586 -0.00142419
v 0.00183966 -0.00371446 -0.00152977
v 0.00157656 -0.00374956 -0.00208025
v 0.00138263 -0.00372512 -0.00240115
v 0.00119435 -0.00368041 -0.00266984
v 0.00069673 -0.00351208 -0.00323928
v 0.00069032 -0.00350965 -0.00324554
v 0.00186023 0.00195000 -0.00036307
v 0.00219972 0.00195000 0.00028262
v 0.00212033 0.00195000 -0.00005643
v 0.00200983 0.00195000 -0.00022639
v 0.00133127 0.00308745 -0.00179619
v 0.00143844 0.00318694 -0.00184937
v 0.00160730 0.00318807 -0.00155044
v 0.00092851 0.00340964 -0.00296211
v 0.00118877 0.00350374 -0.00264635
v 0.00116241 0.00333916 -0.00258501
v 0.00110568 0.00319124 -0.00250487
v 0.00139023 0.00341049 -0.00226450
v 0.00162873 0.00288439 -0.00100961
v 0.00170431 0.00275426 -0.00080196
v 0.00002256 0.00301266 -0.00375317
v -0.00054946 0.00301821 -0.00412924
v -0.00017136 0.00316358 -0.00391779
v -0.00002923 0.00322094 -0.00382650
v 0.00107685 0.00296647 -0.00166793
v 0.00091349 0.00297348 -0.00230450
v 0.00120926 0.00301297 -0.00173497
v 0.00138125 0.00301297 -0.00148920
v 0.00152134 0.00297073 -0.00124328
v 0.00175241 0.00258591 -0.00063099
v 0.00178030 0.00238927 -0.00050466
v 0.00179411 0.00217415 -0.00042831
v 0.00124160 0.00314390 -0.00213850
v 0.00113386 0.00304598 -0.00205871
v 0.00102128 0.00306740 -0.00240979
v 0.00138378 0.00372385 -0.00240159
v 0.00159241 0.00344519 -0.00192366
v 0.00158703 0.00374866 -0.00206180
v 0.00176425 0.00343393 -0.00157126
v 0.00064599 0.00329206 -0.00325215
v 0.00063869 0.00311416 -0.00315645
v 0.00059509 0.00295973 -0.00303360
v 0.00016506 0.00330029 -0.00369022
v 0.00061666 0.00348195 -0.00331468
v 0.00068923 0.00350988 -0.00324539
v 0.00075227 0.00353365 -0.00318290
v 0.00122598 0.00368809 -0.00262912
v 0.00174392 0.00313950 -0.00125146
v 0.00190142 0.00336794 -0.00121803
v 0.00184795 0.00303916 -0.00096724
v 0.00200377 0.00324435 -0.00088092
v 0.00192066 0.00288755 -0.00071431
v 0.00207302 0.00306291 -0.00057904
v 0.00196664 0.00269129 -0.00050565
v 0.00211457 0.00283022 -0.00032812
v 0.00199314 0.00246202 -0.00035119
v 0.00213682 0.00255860 -0.00014105
v 0.00200624 0.00221126 -0.00025768
v 0.00214688 0.00226079 -0.00002696
v 0.00219865 0.00243492 0.00020193
v 0.00219469 0.00266787 0.00010151
v 0.00218620 0.00288387 -0.00003542
v 0.00214426 0.00326022 -0.00041087
v 0.00204314 0.00354200 -0.00090522
v 0.00197456 0.00362828 -0.00114704
v 0.00187947 0.00369685 -0.00142526
v 0.00186811 0.00370245 -0.00145524
v -0.00871188 0.00495000 -0.00585808
v -0.00928624 0.00495000 -0.00585375
v -0.00981685 0.00495000 -0.00563387
v -0.01022593 0.00495000 -0.00523069
v -0.01045349 0.00495000 -0.00470332
v -0.01046617 0.00495000 -0.00412909
v -0.01026211 0.00495000 -0.00359219
v -0.00987122 0.00495000 -0.00317134
v -0.00935082 0.00495000 -0.00292826
v -0.00385311 0.00495000 -0.00155753
v -0.00307304 0.00495000 -0.00126045
v -0.00238551 0.00495000 -0.00078711
v -0.00182960 0.00495000 -0.00016444
v -0.00105000 0.00495000 0.00231505
v -0.00113905 0.00495000 0.00144115
v -0.00140252 0.00495000 0.00060318
v -0.00187981 0.00495000 -0.00457887
v -0.00105000 0.00462200 0.00554539
v -0.00105000 0.00425416 0.00587543
v 0.00220000 0.00425416 0.00587543
v 0.00220000 0.00462199 0.00554539
v 0.00220000 0.00486563 0.00510519
v -0.00105000 0.00486563 0.00510520
v 0.00220000 0.00495000 0.00460921
v -0.00105000 0.00495000 0.00460921
v 0.00220000 0.00149619 0.00756240
v 0.00220000 0.00207144 0.00726166
v 0.00141584 0.00179014 0.00742413
v 0.00049441 0.00207143 0.00726166
v 0.00049444 -0.00207144 0.00726166
v 0.00220000 -0.00207144 0.00726166
v 0.00141585 -0.00179014 0.00742413
v 0.00220000 -0.00149620 0.00756240
v -0.00105000 0.00129326 0.00282104
v -0.00105000 0.00078004 0.00556654
v -0.00105000 0.00016147 0.00574254
v -0.00105000 0.00250023 0.00698933
v -0.00105000 -0.00250023 0.00698934
v -0.00105000 -0.00105461 0.00539654
v -0.00105000 -0.00148788 0.00492126
v -0.00105000 -0.00047891 0.00231681
v -0.00105000 -0.00047891 0.00568320
v -0.00105000 0.00163183 0.00336783
v -0.00105000 0.00175000 0.00400001
v -0.00105000 0.00163182 0.00463218
v -0.00105000 0.00129327 0.00517897
v -0.00105000 -0.00172020 0.00432157
v -0.00105000 -0.00172020 0.00367845
v -0.00105000 -0.00148788 0.00307875
v -0.00105000 -0.00105461 0.00260347
v -0.00105000 0.00016147 0.00225747
v -0.00105000 0.00078004 0.00243347
v -0.00106066 -0.00495000 0.00106067
v -0.00057402 -0.00495000 0.00138582
v 0.00057403 -0.00495000 0.00138582
v 0.00106066 -0.00495000 0.00106067
v 0.00220000 -0.00495000 0.00033573
v 0.00000000 -0.00495000 0.00150000
v 0.00000000 -0.00495000 -0.00149999
v -0.00057402 -0.00495000 -0.00138581
v -0.00115874 -0.00495000 -0.00438723
v 0.00138582 -0.00495000 0.00057403
v 0.00150000 -0.00495000 0.00000001
v 0.00215035 -0.00495000 -0.00036717
v 0.00187930 -0.00495000 -0.00142614
v 0.00138582 -0.00495000 -0.00057402
v 0.00106066 -0.00495000 -0.00106066
v 0.00138460 -0.00495000 -0.00240090
v 0.00057403 -0.00495000 -0.00138582
v 0.00068990 -0.00495000 -0.00324486
v -0.00017161 -0.00495000 -0.00391769
v -0.00138582 -0.00495000 0.00057403
v -0.00150000 -0.00495000 0.00000000
v -0.00138582 -0.00495000 -0.00057402
v -0.00106066 -0.00495000 -0.00106066
v 0.00068990 0.00495000 -0.00324487
v -0.00017161 0.00495000 -0.00391769
v -0.00115874 0.00495000 -0.00438723
v 0.00138460 0.00495000 -0.00240090
v 0.00187930 0.00495000 -0.00142614
v 0.00215035 0.00495000 -0.00036717
v 0.00220000 0.00495000 0.00033573
v 0.00000000 0.00495000 -0.00149999
v -0.00057402 0.00495000 -0.00138581
v -0.00106066 0.00495000 -0.00106065
v 0.00057403 0.00495000 -0.00138582
v -0.00138582 0.00495000 -0.00057402
v -0.00150000 0.00495000 0.00000001
v -0.00138582 0.00495000 0.00057403
v -0.00106066 0.00495000 0.00106066
v -0.00057402 0.00495000 0.00138582
v 0.00000000 0.00495000 0.00150001
v 0.00057403 0.00495000 0.00138583
v 0.00106066 0.00495000 -0.00106066
v 0.00138582 0.00495000 -0.00057402
v 0.00150000 0.00495000 0.00000001
v 0.00138582 0.00495000 0.00057403
v 0.00106066 0.00495000 0.00106067
v 0.00220000 -0.00047891 0.00231681
v 0.00220000 0.00016147 0.00225747
v 0.00220000 0.00078004 0.00243347
v 0.00220000 0.00129326 0.00282104
v 0.00220000 -0.00148788 0.00492126
v 0.00220000 -0.00172020 0.00432157
v 0.00220000 -0.00172020 0.00367844
v 0.00220000 -0.00148788 0.00307875
v 0.00220000 -0.00105461 0.00260348
v 0.00220000 0.00175000 0.00400000
v 0.00220000 0.00163183 0.00336783
v 0.00220000 -0.00047891 0.00568320
v 0.00220000 -0.00105461 0.00539654
v 0.00220000 0.00163183 0.00463217
v 0.00220000 0.00129327 0.00517897
v 0.00220000 0.00078004 0.00556654
v 0.00220000 0.00016147 0.00574254
f 1 2 3
f 3 2 4
f 3 4 5
f 5 4 6
f 6 4 7
f 6 7 8
f 9 10 11
f 9 11 12
f 13 14 15
f 15 14 12
f 15 12 16
f 16 12 11
f 8 7 17
f 8 17 18
f 18 17 19
f 18 19 20
f 20 19 21
f 21 19 22
f 21 22 23
f 23 22 24
f 24 22 25
f 24 25 26
f 27 28 29
f 30 31 29
f 29 31 32
f 29 32 27
f 33 34 29
f 29 34 35
f 29 35 30
f 36 37 29
f 29 37 38
f 29 38 33
f 39 40 29
f 29 40 41
f 29 41 36
f 28 42 29
f 29 42 43
f 29 43 39
f 44 45 46
f 46 45 47
f 46 47 48
f 47 49 48
f 48 49 50
f 48 50 51
f 51 50 52
f 51 52 53
f 52 54 53
f 53 54 55
f 53 55 56
f 57 58 59
f 59 58 56
f 59 56 60
f 60 56 55
f 61 62 58
f 24 26 63
f 63 26 64
f 63 64 62
f 62 64 65
f 62 65 58
f 58 65 66
f 8 18 67
f 68 69 66
f 66 69 70
f 57 71 58
f 58 71 72
f 58 72 73
f 8 67 6
f 74 75 58
f 70 76 66
f 66 76 77
f 66 77 58
f 75 78 58
f 58 78 79
f 58 79 61
f 80 1 67
f 18 20 67
f 67 20 21
f 67 21 63
f 63 21 23
f 63 23 24
f 73 81 58
f 58 81 82
f 58 82 74
f 1 3 67
f 67 3 5
f 67 5 6
f 67 83 80
f 80 83 84
f 80 84 85
f 86 87 88
f 88 87 80
f 88 80 89
f 89 80 85
f 44 90 45
f 45 90 91
f 92 93 94
f 95 96 97
f 94 98 92
f 92 98 97
f 92 97 99
f 99 97 96
f 97 100 95
f 95 100 101
f 95 101 102
f 95 102 103
f 103 102 104
f 103 104 105
f 91 90 106
f 106 90 103
f 106 103 107
f 107 103 105
f 108 109 110
f 110 109 111
f 110 111 112
f 112 111 113
f 113 111 114
f 113 114 115
f 115 114 116
f 115 116 117
f 117 116 11
f 117 11 10
f 93 118 119
f 120 121 108
f 122 123 124
f 119 125 93
f 93 125 126
f 93 126 127
f 121 120 128
f 128 120 118
f 128 118 124
f 124 118 93
f 124 93 122
f 123 129 124
f 124 129 130
f 124 130 131
f 115 117 132
f 132 117 10
f 127 133 93
f 93 133 134
f 93 134 135
f 135 136 93
f 93 136 137
f 93 137 94
f 108 110 120
f 120 110 112
f 120 112 132
f 132 112 113
f 132 113 115
f 10 9 132
f 132 9 12
f 132 12 14
f 138 139 140
f 14 13 132
f 132 13 141
f 132 141 142
f 142 141 143
f 142 143 144
f 144 143 138
f 144 138 145
f 145 138 140
f 146 147 148
f 149 150 148
f 148 150 151
f 148 151 146
f 152 153 148
f 148 153 154
f 148 154 149
f 155 156 148
f 148 156 157
f 148 157 152
f 158 159 148
f 148 159 160
f 148 160 155
f 147 161 148
f 148 161 162
f 148 162 158
f 163 164 165
f 165 164 166
f 165 166 167
f 163 165 168
f 168 165 169
f 168 169 170
f 170 169 171
f 170 171 172
f 173 174 66
f 66 174 175
f 66 175 68
f 176 177 178
f 172 171 179
f 179 171 180
f 179 180 178
f 178 180 181
f 178 181 176
f 64 26 25
f 25 182 64
f 64 182 183
f 64 183 65
f 177 173 178
f 178 173 66
f 178 66 184
f 184 66 65
f 184 65 185
f 185 65 183
f 186 44 46
f 187 188 189
f 70 69 190
f 191 176 181
f 174 173 191
f 191 173 177
f 191 177 176
f 174 191 175
f 175 191 192
f 175 192 68
f 193 194 195
f 196 193 197
f 197 193 195
f 197 195 198
f 180 199 200
f 200 199 201
f 200 201 202
f 202 201 196
f 202 196 203
f 203 196 197
f 69 68 190
f 190 68 192
f 190 192 204
f 204 192 191
f 198 205 197
f 197 205 206
f 197 206 203
f 203 206 207
f 203 207 202
f 202 207 208
f 202 208 200
f 186 46 209
f 210 209 211
f 211 209 46
f 211 46 212
f 212 46 48
f 212 48 213
f 56 214 53
f 53 214 213
f 53 213 51
f 51 213 48
f 56 187 214
f 214 187 189
f 214 189 213
f 213 189 208
f 213 208 212
f 212 208 207
f 212 207 211
f 211 207 206
f 211 206 210
f 210 206 205
f 181 180 191
f 191 180 200
f 191 200 204
f 204 200 208
f 204 208 190
f 190 208 189
f 190 189 70
f 70 189 188
f 70 188 76
f 76 188 187
f 76 187 77
f 77 187 56
f 77 56 58
f 215 216 217
f 93 92 122
f 129 123 218
f 218 123 122
f 129 218 130
f 130 218 219
f 130 219 131
f 131 219 220
f 131 220 221
f 222 223 224
f 224 223 225
f 224 225 220
f 220 225 226
f 220 226 221
f 227 228 224
f 224 228 229
f 224 229 222
f 230 231 232
f 233 234 219
f 219 234 235
f 219 235 220
f 220 235 236
f 220 236 224
f 122 92 218
f 218 92 99
f 218 99 219
f 219 99 96
f 219 96 233
f 237 238 217
f 237 217 239
f 239 217 216
f 239 216 240
f 241 231 242
f 242 231 230
f 242 230 243
f 243 230 244
f 243 244 245
f 246 247 248
f 248 247 237
f 248 237 249
f 249 237 239
f 240 245 239
f 239 245 244
f 239 244 249
f 249 244 230
f 249 230 248
f 248 230 232
f 248 232 246
f 96 95 233
f 233 95 250
f 250 95 103
f 250 103 90
f 90 215 250
f 250 215 217
f 250 217 233
f 233 217 238
f 233 238 234
f 234 238 237
f 234 237 235
f 235 237 247
f 235 247 236
f 236 247 246
f 236 246 224
f 224 246 251
f 224 251 227
f 131 221 124
f 124 221 226
f 124 226 225
f 223 222 252
f 252 222 229
f 229 228 252
f 252 228 227
f 252 227 253
f 253 227 254
f 227 255 254
f 254 255 256
f 254 256 257
f 257 256 258
f 256 259 258
f 258 259 260
f 258 260 261
f 260 262 261
f 261 262 263
f 261 263 264
f 264 263 265
f 225 223 124
f 124 223 252
f 124 252 128
f 252 266 128
f 128 266 267
f 128 267 121
f 109 108 268
f 268 108 121
f 268 121 269
f 269 121 267
f 67 270 271
f 67 271 83
f 83 271 272
f 83 272 84
f 84 272 273
f 84 273 85
f 85 273 274
f 85 274 89
f 89 274 275
f 89 275 88
f 88 275 276
f 88 276 86
f 86 276 277
f 86 277 87
f 87 277 278
f 87 278 80
f 1 80 278
f 279 25 22
f 279 22 278
f 22 19 278
f 278 19 17
f 278 17 7
f 7 4 278
f 278 4 2
f 278 2 1
f 25 279 182
f 182 279 280
f 182 280 183
f 183 280 185
f 185 280 281
f 185 281 184
f 184 281 178
f 178 281 282
f 178 282 179
f 179 282 172
f 172 282 283
f 172 283 170
f 284 167 166
f 284 166 285
f 166 164 285
f 285 164 163
f 285 163 283
f 283 163 168
f 283 168 170
f 286 287 288
f 288 289 286
f 286 289 290
f 286 290 291
f 291 290 292
f 291 292 293
f 270 67 294
f 294 67 63
f 295 296 297
f 57 298 71
f 299 50 300
f 300 50 49
f 300 49 301
f 301 49 47
f 301 47 302
f 302 47 45
f 302 45 303
f 55 54 299
f 299 54 52
f 299 52 50
f 299 304 55
f 55 304 305
f 55 305 60
f 60 305 306
f 60 306 59
f 59 306 307
f 57 59 298
f 298 59 307
f 298 307 71
f 71 307 308
f 71 308 72
f 72 308 309
f 72 309 73
f 73 309 81
f 310 311 312
f 75 310 78
f 78 310 312
f 78 312 79
f 79 312 61
f 297 313 314
f 315 316 317
f 317 316 318
f 317 318 319
f 319 318 320
f 319 320 321
f 296 295 322
f 322 295 323
f 322 323 324
f 324 323 325
f 324 325 326
f 326 325 327
f 326 327 328
f 328 329 330
f 331 332 333
f 333 332 334
f 333 334 335
f 335 334 336
f 335 336 337
f 337 336 338
f 337 338 339
f 339 338 340
f 339 340 341
f 341 340 342
f 341 342 343
f 343 342 313
f 343 313 321
f 321 313 297
f 321 297 319
f 319 297 296
f 319 296 317
f 317 296 322
f 317 322 315
f 315 322 324
f 315 324 344
f 344 324 326
f 314 313 345
f 345 313 342
f 345 342 346
f 346 342 340
f 346 340 347
f 347 340 338
f 347 338 348
f 348 338 336
f 348 336 349
f 349 336 334
f 349 334 350
f 350 334 332
f 350 332 351
f 314 352 297
f 297 352 353
f 297 353 295
f 295 353 354
f 295 354 323
f 323 354 355
f 323 355 325
f 325 355 356
f 325 356 327
f 327 356 357
f 327 357 328
f 328 357 358
f 328 358 329
f 303 331 302
f 302 331 333
f 302 333 301
f 301 333 335
f 301 335 300
f 300 335 337
f 300 337 299
f 299 337 339
f 299 339 304
f 304 339 341
f 304 341 305
f 305 341 343
f 305 343 306
f 306 343 321
f 306 321 307
f 307 321 320
f 307 320 308
f 308 320 318
f 308 318 309
f 309 318 316
f 309 316 81
f 81 316 315
f 81 315 82
f 82 315 344
f 82 344 74
f 74 344 326
f 74 326 75
f 75 326 328
f 75 328 310
f 310 328 330
f 310 330 311
f 45 91 359
f 360 351 361
f 361 351 332
f 361 332 362
f 362 332 331
f 362 331 359
f 359 331 303
f 359 303 45
f 363 364 365
f 366 367 368
f 369 368 370
f 101 371 372
f 127 126 373
f 373 126 125
f 125 119 374
f 125 374 373
f 373 374 375
f 373 375 376
f 98 94 377
f 377 94 137
f 377 137 136
f 135 378 136
f 136 378 379
f 136 379 377
f 377 379 380
f 377 380 98
f 98 380 381
f 98 381 97
f 371 101 381
f 381 101 100
f 381 100 97
f 105 104 372
f 372 104 102
f 372 102 101
f 372 382 105
f 105 382 383
f 105 383 107
f 107 383 384
f 107 384 106
f 106 384 359
f 106 359 91
f 364 363 385
f 385 363 386
f 385 386 387
f 368 367 370
f 370 367 388
f 370 388 389
f 389 388 390
f 389 390 391
f 392 366 393
f 393 366 368
f 393 368 394
f 394 368 369
f 395 396 392
f 392 396 397
f 392 397 366
f 366 397 398
f 366 398 367
f 367 398 399
f 367 399 388
f 387 369 385
f 385 369 370
f 385 370 364
f 364 370 389
f 364 389 365
f 365 389 391
f 365 391 400
f 400 391 401
f 400 401 402
f 402 401 403
f 402 403 404
f 404 403 405
f 404 405 406
f 406 405 407
f 406 407 408
f 408 407 409
f 408 409 410
f 410 409 411
f 410 411 362
f 362 411 361
f 360 361 412
f 412 361 411
f 412 411 413
f 413 411 409
f 413 409 414
f 414 409 407
f 414 407 415
f 415 407 405
f 415 405 416
f 416 405 403
f 416 403 417
f 417 403 401
f 417 401 418
f 418 401 391
f 418 391 419
f 419 391 390
f 376 395 373
f 373 395 392
f 373 392 127
f 127 392 393
f 127 393 133
f 133 393 394
f 133 394 134
f 134 394 369
f 134 369 135
f 135 369 387
f 135 387 378
f 378 387 386
f 378 386 379
f 379 386 363
f 379 363 380
f 380 363 365
f 380 365 381
f 381 365 400
f 381 400 371
f 371 400 402
f 371 402 372
f 372 402 404
f 372 404 382
f 382 404 406
f 382 406 383
f 383 406 408
f 383 408 384
f 384 408 410
f 384 410 359
f 359 410 362
f 420 132 142
f 420 142 421
f 421 142 144
f 421 144 422
f 422 144 145
f 422 145 423
f 423 145 140
f 423 140 424
f 424 140 139
f 424 139 425
f 425 139 138
f 425 138 426
f 426 138 143
f 426 143 427
f 427 143 141
f 427 141 428
f 116 114 428
f 428 114 429
f 429 114 111
f 429 111 109
f 141 13 428
f 428 13 15
f 15 16 428
f 428 16 11
f 428 11 116
f 109 268 429
f 429 268 430
f 268 269 430
f 430 269 267
f 430 267 431
f 431 267 266
f 431 266 432
f 432 266 252
f 432 252 253
f 264 265 433
f 264 433 261
f 261 433 434
f 261 434 258
f 258 434 435
f 258 435 257
f 432 253 435
f 435 253 254
f 435 254 257
f 420 436 132
f 132 436 120
f 437 438 439
f 439 440 437
f 437 440 441
f 437 441 442
f 442 441 443
f 442 443 444
f 445 446 447
f 447 446 448
f 449 450 451
f 451 450 452
f 259 256 453
f 454 455 456
f 456 455 457
f 167 458 459
f 241 194 460
f 455 461 457
f 457 461 458
f 457 458 288
f 288 458 167
f 462 265 453
f 453 265 263
f 263 262 453
f 453 262 260
f 453 260 259
f 462 463 265
f 265 463 444
f 265 444 433
f 442 444 437
f 437 444 463
f 437 463 438
f 438 463 464
f 438 464 456
f 456 464 465
f 456 465 454
f 290 289 292
f 292 289 288
f 292 288 284
f 284 288 167
f 459 466 167
f 167 466 467
f 167 467 165
f 165 467 468
f 165 468 169
f 169 468 469
f 169 469 171
f 171 469 180
f 460 194 469
f 469 194 193
f 469 193 196
f 196 201 469
f 469 201 199
f 469 199 180
f 460 470 241
f 241 470 471
f 241 471 231
f 231 471 453
f 231 453 232
f 232 453 256
f 232 256 246
f 246 256 255
f 246 255 251
f 251 255 227
f 457 288 449
f 449 288 287
f 449 287 450
f 285 472 473
f 293 474 475
f 293 475 476
f 474 293 477
f 477 293 292
f 477 292 473
f 473 292 284
f 473 284 285
f 478 479 480
f 475 481 476
f 476 481 482
f 476 482 483
f 483 482 484
f 482 485 484
f 484 485 486
f 484 486 487
f 487 486 488
f 487 488 489
f 489 488 478
f 489 478 490
f 490 478 480
f 472 285 491
f 491 285 283
f 491 283 492
f 492 283 282
f 492 282 493
f 282 281 493
f 493 281 280
f 493 280 494
f 494 280 270
f 494 270 479
f 479 270 294
f 479 294 480
f 280 279 270
f 270 279 278
f 270 278 271
f 271 278 277
f 277 276 275
f 272 271 273
f 273 271 277
f 273 277 274
f 274 277 275
f 495 397 496
f 496 397 396
f 496 396 395
f 395 376 496
f 496 376 375
f 496 375 497
f 497 375 374
f 497 374 119
f 390 388 498
f 498 388 399
f 498 399 495
f 495 399 398
f 495 398 397
f 390 498 419
f 419 498 499
f 419 499 418
f 418 499 417
f 417 499 500
f 417 500 416
f 347 476 346
f 346 476 483
f 346 483 345
f 347 348 476
f 476 348 349
f 476 349 350
f 350 351 476
f 476 351 360
f 476 360 501
f 501 360 412
f 412 413 501
f 501 413 414
f 501 414 500
f 500 414 415
f 500 415 416
f 487 355 354
f 487 354 484
f 354 353 484
f 484 353 352
f 484 352 483
f 483 352 314
f 483 314 345
f 355 487 356
f 356 487 489
f 356 489 357
f 490 312 311
f 311 330 490
f 490 330 329
f 490 329 489
f 489 329 358
f 489 358 357
f 312 490 61
f 61 490 480
f 61 480 62
f 62 480 294
f 62 294 63
f 119 118 497
f 497 118 120
f 497 120 436
f 502 497 503
f 503 497 436
f 503 436 504
f 499 498 505
f 505 498 495
f 505 495 502
f 502 495 496
f 502 496 497
f 426 427 428
f 420 429 430
f 436 420 504
f 504 420 430
f 504 430 506
f 506 430 431
f 506 431 507
f 507 431 432
f 507 432 508
f 508 432 435
f 508 435 509
f 509 435 434
f 509 434 510
f 510 434 433
f 510 433 511
f 511 433 444
f 511 444 512
f 512 444 443
f 505 513 499
f 499 513 514
f 499 514 500
f 500 514 515
f 500 515 501
f 501 515 516
f 501 516 443
f 443 516 517
f 443 517 512
f 429 420 428
f 428 420 421
f 428 421 426
f 424 425 423
f 423 425 426
f 423 426 422
f 422 426 421
f 446 439 448
f 448 439 438
f 448 438 456
f 456 457 449
f 452 445 451
f 451 445 447
f 451 447 449
f 449 447 448
f 449 448 456
f 518 476 519
f 519 476 501
f 519 501 520
f 520 501 521
f 522 286 523
f 523 286 291
f 523 291 524
f 524 291 293
f 524 293 525
f 525 293 476
f 525 476 526
f 526 476 518
f 443 527 501
f 501 527 528
f 501 528 521
f 445 452 529
f 529 452 530
f 530 452 450
f 530 450 522
f 522 450 287
f 522 287 286
f 443 441 527
f 527 441 440
f 527 440 531
f 531 440 439
f 531 439 532
f 532 439 446
f 532 446 533
f 533 446 445
f 533 445 534
f 534 445 529
f 90 44 215
f 215 44 186
f 215 186 216
f 194 241 195
f 195 241 242
f 195 242 198
f 198 242 243
f 198 243 205
f 243 245 205
f 205 245 240
f 205 240 210
f 210 240 216
f 210 216 209
f 209 216 186
f 27 473 28
f 28 473 472
f 28 472 42
f 42 472 491
f 42 491 43
f 43 491 492
f 43 492 39
f 39 492 493
f 39 493 40
f 40 493 494
f 40 494 41
f 41 494 479
f 41 479 36
f 36 479 478
f 36 478 37
f 37 478 488
f 37 488 38
f 38 488 486
f 38 486 33
f 33 486 485
f 33 485 34
f 34 485 482
f 34 482 35
f 35 482 481
f 35 481 30
f 30 481 475
f 30 475 31
f 31 475 474
f 31 474 32
f 32 474 477
f 32 477 27
f 27 477 473
f 511 151 510
f 510 151 150
f 510 150 509
f 509 150 149
f 509 149 508
f 508 149 154
f 508 154 507
f 507 154 153
f 507 153 506
f 506 153 152
f 506 152 504
f 504 152 157
f 504 157 503
f 503 157 156
f 503 156 502
f 502 156 155
f 502 155 505
f 505 155 160
f 505 160 513
f 513 160 159
f 513 159 514
f 514 159 158
f 514 158 515
f 515 158 162
f 515 162 516
f 516 162 161
f 516 161 517
f 517 161 147
f 517 147 512
f 512 147 146
f 512 146 511
f 511 146 151
f 463 527 464
f 464 527 531
f 464 531 465
f 465 531 532
f 465 532 454
f 454 532 533
f 454 533 455
f 455 533 534
f 455 534 461
f 461 534 529
f 461 529 458
f 458 529 530
f 458 530 459
f 459 530 522
f 459 522 466
f 466 522 523
f 466 523 467
f 467 523 524
f 467 524 468
f 468 524 525
f 468 525 469
f 469 525 526
f 469 526 460
f 460 526 518
f 460 518 470
f 470 518 519
f 470 519 471
f 471 519 520
f 471 520 453
f 453 520 521
f 453 521 462
f 462 521 528
f 462 528 463
f 463 528 527

