# https://github.com/mikedh/trimesh
v 0.00220000 0.00149511 0.00756240
v 0.00220000 0.00207067 0.00726101
v 0.00141546 0.00178974 0.00742302
v 0.00049416 0.00207067 0.00726101
v 0.00220000 -0.00149511 0.00756240
v 0.00220000 0.00425372 0.00587435
v -0.00104964 0.00425372 0.00587435
v -0.00104964 0.00249961 0.00698820
v 0.00049416 -0.00207067 0.00726101
v 0.00141546 -0.00178974 0.00742302
v 0.00220000 -0.00207067 0.00726101
v 0.00220000 0.00462099 0.00554437
v -0.00104964 0.00462099 0.00554437
v -0.00203394 0.00494988 -0.00039298
v -0.00104964 -0.00249961 0.00698820
v -0.00104964 -0.00425372 0.00587435
v 0.00220000 -0.00425372 0.00587435
v 0.00220000 0.00486492 0.00510479
v 0.00000014 0.00700000 0.00149997
v -0.00057386 0.00700000 0.00138680
v -0.00104964 0.00486492 0.00510479
v -0.00138575 0.00700000 0.00057434
v -0.00149972 0.00700000 0.00000015
v -0.00203394 0.00494988 -0.00460773
v -0.00203394 -0.00494988 -0.00039298
v -0.00104964 -0.00462099 0.00554437
v 0.00220000 -0.00462099 0.00554437
v 0.00220000 0.00494988 0.00460802
v 0.00149959 0.00700000 0.00000015
v 0.00138562 0.00700000 0.00057434
v 0.00106029 0.00700000 0.00106158
v 0.00057373 0.00700000 0.00138680
v -0.00106041 0.00700000 0.00106158
v -0.00138575 0.00700000 -0.00057286
v -0.00106041 0.00700000 -0.00106009
v -0.00057386 0.00700000 -0.00138531
v 0.00000014 0.00700000 -0.00149968
v -0.00187976 0.00494988 -0.00457795
v -0.00203394 -0.00494988 -0.00460773
v -0.00149972 -0.00700000 0.00000015
v -0.00138575 -0.00700000 0.00057434
v -0.00104964 -0.00486492 0.00510479
v -0.00057386 -0.00700000 0.00138680
v 0.00000014 -0.00700000 0.00149997
v 0.00220000 -0.00486492 0.00510479
v 0.00220000 0.00494988 0.00033609
v 0.00215027 0.00494988 -0.00036677
v 0.00138562 0.00700000 -0.00057286
v 0.00057373 0.00700000 -0.00138531
v -0.00115864 0.00494988 -0.00438615
v -0.00187976 -0.00494988 -0.00457795
v 0.00000014 -0.00700000 -0.00149968
v -0.00057386 -0.00700000 -0.00138531
v -0.00106041 -0.00700000 -0.00106009
v -0.00138575 -0.00700000 -0.00057286
v -0.00106041 -0.00700000 0.00106158
v 0.00057373 -0.00700000 0.00138680
v 0.00220000 -0.00494988 0.00460802
v 0.00106029 -0.00700000 0.00106158
v 0.00138562 -0.00700000 0.00057434
v 0.00149959 -0.00700000 0.00000015
v 0.00219959 0.00194871 0.00028367
v 0.00219834 0.00243383 0.00020267
v 0.00219461 0.00266680 0.00010260
v 0.00218591 0.00288332 -0.00003440
v 0.00220000 -0.00494988 0.00033609
v 0.00219959 -0.00215290 0.00026938
v 0.00187922 0.00494988 -0.00142582
v 0.00217182 -0.00306695 -0.00019165
v 0.00215027 -0.00494988 -0.00036677
v 0.00214405 0.00326018 -0.00041084
v 0.00204293 0.00354111 -0.00090404
v 0.00106029 0.00700000 -0.00106009
v 0.00138438 0.00494988 -0.00240028
v -0.00017144 0.00494988 -0.00391679
v -0.00054941 0.00301762 -0.00412883
v -0.00074212 0.00294910 -0.00422056
v -0.00115864 -0.00494988 -0.00438615
v 0.00057373 -0.00700000 -0.00138531
v 0.00138562 -0.00700000 -0.00057286
v 0.00219917 -0.00231597 0.00023721
v 0.00219503 -0.00263665 0.00011689
v 0.00186803 0.00370145 -0.00145441
v 0.00158663 0.00374804 -0.00206077
v 0.00197454 0.00362745 -0.00114587
v 0.00188047 -0.00369460 -0.00142343
v 0.00183944 -0.00371378 -0.00152946
v 0.00187922 -0.00494988 -0.00142582
v 0.00202635 -0.00356578 -0.00096836
v 0.00207815 -0.00347533 -0.00075989
v 0.00213162 -0.00331774 -0.00048947
v 0.00068977 0.00494988 -0.00324371
v 0.00122565 0.00368774 -0.00262901
v 0.00157627 -0.00374941 -0.00207983
v 0.00138438 -0.00494988 -0.00240028
v 0.00016468 0.00329992 -0.00368925
v -0.00002887 0.00322044 -0.00382625
v -0.00017102 0.00316288 -0.00391679
v -0.00017144 -0.00494988 -0.00391679
v -0.00048019 -0.00294910 -0.00408714
v -0.00074212 -0.00294910 -0.00422056
v 0.00106029 -0.00700000 -0.00106009
v 0.00075194 0.00353289 -0.00318176
v 0.00068895 0.00350959 -0.00324490
v 0.00061642 0.00348081 -0.00331400
v 0.00119415 -0.00367952 -0.00266951
v 0.00068977 -0.00494988 -0.00324371
v 0.00061559 -0.00348081 -0.00331638
v 0.00001133 -0.00323688 -0.00379766
v -0.00002804 -0.00322181 -0.00382386
v 0.00069641 -0.00351096 -0.00323895
v 0.00069019 -0.00350959 -0.00324490
f 1 2 3
f 1 3 4
f 1 4 9
f 1 9 5
f 1 5 11
f 1 11 17
f 1 17 27
f 1 27 45
f 1 45 58
f 1 58 66
f 1 66 46
f 1 46 28
f 1 28 18
f 1 18 12
f 1 12 6
f 1 6 2
f 2 4 3
f 2 6 7
f 2 7 4
f 4 7 8
f 4 8 15
f 4 15 9
f 5 9 10
f 5 10 11
f 6 12 13
f 6 13 7
f 7 13 14
f 7 14 8
f 8 14 25
f 8 25 15
f 9 15 16
f 9 16 17
f 9 17 11
f 9 11 10
f 12 18 19
f 12 19 13
f 13 19 20
f 13 20 21
f 13 21 22
f 13 22 23
f 13 23 14
f 14 23 24
f 14 24 39
f 14 39 25
f 15 25 16
f 16 25 26
f 16 26 27
f 16 27 17
f 18 28 29
f 18 29 30
f 18 30 31
f 18 31 32
f 18 32 19
f 19 32 31
f 19 31 30
f 19 30 29
f 19 29 48
f 19 48 73
f 19 73 49
f 19 49 37
f 19 37 36
f 19 36 35
f 19 35 34
f 19 34 23
f 19 23 22
f 19 22 33
f 19 33 20
f 20 33 21
f 21 33 22
f 23 34 24
f 24 34 35
f 24 35 36
f 24 36 37
f 24 37 38
f 24 38 51
f 24 51 39
f 25 39 40
f 25 40 26
f 26 40 41
f 26 41 42
f 26 42 43
f 26 43 44
f 26 44 27
f 27 44 45
f 28 46 29
f 29 46 47
f 29 47 48
f 37 49 38
f 38 49 50
f 38 50 78
f 38 78 51
f 39 51 52
f 39 52 53
f 39 53 54
f 39 54 55
f 39 55 40
f 40 55 54
f 40 54 53
f 40 53 52
f 40 52 79
f 40 79 102
f 40 102 80
f 40 80 61
f 40 61 60
f 40 60 59
f 40 59 57
f 40 57 44
f 40 44 43
f 40 43 56
f 40 56 41
f 41 56 42
f 42 56 43
f 44 57 45
f 45 57 59
f 45 59 60
f 45 60 61
f 45 61 58
f 46 62 63
f 46 63 64
f 46 64 65
f 46 65 47
f 46 66 67
f 46 67 62
f 47 68 48
f 47 65 69
f 47 69 70
f 47 70 71
f 47 71 72
f 47 72 68
f 48 68 74
f 48 74 73
f 49 73 75
f 49 75 50
f 50 75 76
f 50 76 77
f 50 77 101
f 50 101 78
f 51 78 79
f 51 79 52
f 58 61 66
f 61 80 70
f 61 70 66
f 62 67 81
f 62 81 63
f 63 81 82
f 63 82 64
f 64 82 65
f 65 82 69
f 66 70 69
f 66 69 82
f 66 82 81
f 66 81 67
f 68 83 84
f 68 84 74
f 68 72 85
f 68 85 86
f 68 86 87
f 68 87 83
f 70 80 88
f 70 88 89
f 70 89 90
f 70 90 91
f 70 91 71
f 71 91 90
f 71 90 72
f 72 90 89
f 72 89 85
f 73 74 92
f 73 92 75
f 74 93 92
f 74 84 94
f 74 94 95
f 74 95 93
f 75 92 96
f 75 96 97
f 75 97 98
f 75 98 76
f 76 98 99
f 76 99 100
f 76 100 101
f 76 101 77
f 78 101 99
f 78 99 79
f 79 99 102
f 80 102 95
f 80 95 88
f 83 87 84
f 84 87 94
f 85 89 88
f 85 88 86
f 86 88 87
f 87 88 94
f 88 95 94
f 92 93 103
f 92 103 104
f 92 104 105
f 92 105 96
f 93 95 106
f 93 106 103
f 95 102 107
f 95 107 106
f 96 105 108
f 96 108 109
f 96 109 97
f 97 109 110
f 97 110 99
f 97 99 98
f 99 110 109
f 99 109 107
f 99 107 102
f 99 101 100
f 103 106 111
f 103 111 104
f 104 111 108
f 104 108 105
f 106 107 111
f 107 109 108
f 107 108 112
f 107 112 111
f 108 111 112

