v -0.00809425 -0.00295000 -0.00261496
v -0.00766261 -0.00299862 -0.00250735
v -0.00751494 -0.00295000 -0.00255234
v -0.00724418 -0.00314566 -0.00240302
v -0.00708345 -0.00295000 -0.00259365
v -0.00682619 -0.00295000 -0.00264495
v -0.00686737 -0.00338392 -0.00230907
v -0.00640682 -0.00295000 -0.00276084
v -0.00682618 0.00295000 -0.00264495
v -0.00640682 0.00295000 -0.00276084
v -0.00686737 0.00338392 -0.00230907
v -0.00708345 0.00295000 -0.00259365
v -0.00809425 0.00295000 -0.00261496
v -0.00751494 0.00295000 -0.00255234
v -0.00766261 0.00299862 -0.00250735
v -0.00724418 0.00314566 -0.00240302
v -0.00618449 -0.00384303 -0.00213881
v -0.00528942 -0.00295000 -0.00304100
v -0.00543730 -0.00417931 -0.00195251
v -0.00473235 -0.00295000 -0.00311023
v -0.00438672 -0.00295000 -0.00312199
v -0.00464641 -0.00438350 -0.00175532
v -0.00407271 -0.00295000 -0.00310844
v -0.00366474 -0.00295000 -0.00305186
v -0.00385311 -0.00445000 -0.00155753
v -0.00349023 -0.00295000 -0.00301298
v 0.00000000 -0.00700000 0.00150000
v -0.00057402 -0.00700000 0.00138583
v 0.00000000 -0.00700000 0.00000001
v 0.00138582 -0.00700000 0.00057403
v 0.00106066 -0.00700000 0.00106067
v 0.00057403 -0.00700000 0.00138582
v 0.00106066 -0.00700000 -0.00106066
v 0.00138582 -0.00700000 -0.00057402
v 0.00150000 -0.00700000 0.00000001
v -0.00057402 -0.00700000 -0.00138581
v 0.00000000 -0.00700000 -0.00150000
v 0.00057403 -0.00700000 -0.00138582
v -0.00150000 -0.00700000 0.00000000
v -0.00138582 -0.00700000 -0.00057402
v -0.00106066 -0.00700000 -0.00106066
v -0.00106066 -0.00700000 0.00106067
v -0.00138582 -0.00700000 0.00057403
v -0.00011108 -0.00195000 -0.00078762
v 0.00153868 -0.00195000 -0.00049673
v -0.00011380 -0.00214520 -0.00080800
v 0.00153476 -0.00216669 -0.00052154
v -0.00012105 -0.00232083 -0.00086222
v 0.00152037 -0.00237024 -0.00059397
v 0.00149069 -0.00254969 -0.00070804
v -0.00013453 -0.00250605 -0.00096315
v 0.00144264 -0.00269088 -0.00084709
v -0.00015006 -0.00264402 -0.00107939
v -0.00015240 -0.00266087 -0.00109693
v 0.00136464 -0.00280505 -0.00101630
v -0.00019755 -0.00287395 -0.00143492
v 0.00091583 -0.00295035 -0.00162198
v -0.00025000 -0.00295000 -0.00182754
v 0.00110152 -0.00293495 -0.00141373
v 0.00125160 -0.00288706 -0.00120823
v -0.00074245 -0.00295000 -0.00422130
v -0.00128866 -0.00295000 -0.00443039
v -0.00187981 -0.00295000 -0.00457887
v -0.00250866 -0.00295000 -0.00265579
v -0.00162272 -0.00295000 -0.00210248
v -0.00087107 -0.00295000 -0.00137717
v -0.00046696 -0.00295000 -0.00157825
v -0.00074002 -0.00295000 -0.00121434
v 0.00091446 -0.00295000 -0.00197532
v 0.00090342 -0.00295000 -0.00208480
v 0.00086086 -0.00295000 -0.00232768
v -0.00871188 -0.00295000 -0.00585809
v 0.00040700 -0.00295000 -0.00330710
v 0.00016067 -0.00295000 -0.00359429
v -0.00011025 -0.00295000 -0.00383818
v -0.00044570 -0.00295000 -0.00406786
v -0.00935082 -0.00295000 -0.00292826
v 0.00075835 -0.00295000 -0.00266798
v 0.00060446 -0.00295000 -0.00300047
v -0.00928624 -0.00295000 -0.00585374
v -0.00981685 -0.00295000 -0.00563387
v -0.01022593 -0.00295000 -0.00523068
v -0.01026211 -0.00295000 -0.00359219
v -0.00987122 -0.00295000 -0.00317135
v -0.01046617 -0.00295000 -0.00412909
v -0.01045349 -0.00295000 -0.00470332
v -0.00011108 0.00195000 -0.00078762
v 0.00153868 0.00195000 -0.00049673
v -0.00017293 0.00277996 -0.00125064
v -0.00020254 0.00288798 -0.00147231
v 0.00128112 0.00287117 -0.00116240
v -0.00025000 0.00295000 -0.00182755
v 0.00091583 0.00294985 -0.00162198
v 0.00112432 0.00293033 -0.00138479
v -0.00015655 0.00268886 -0.00112802
v 0.00138861 0.00277759 -0.00096862
v -0.00015027 0.00264563 -0.00108102
v 0.00145728 0.00265693 -0.00080831
v 0.00150222 0.00249489 -0.00066714
v -0.00012125 0.00232445 -0.00086372
v 0.00153726 0.00208522 -0.00050630
v 0.00152687 0.00230087 -0.00056336
v -0.00349022 0.00295000 -0.00301297
v -0.00385311 0.00445000 -0.00155753
v -0.00366474 0.00295000 -0.00305186
v -0.00466082 0.00438105 -0.00175892
v -0.00408370 0.00295000 -0.00310933
v -0.00438672 0.00295000 -0.00312198
v -0.00544651 0.00417606 -0.00195481
v -0.00474082 0.00295000 -0.00310961
v -0.00618877 0.00384064 -0.00213988
v -0.00528942 0.00295000 -0.00304099
v -0.00128866 0.00295000 -0.00443039
v -0.00074245 0.00295000 -0.00422130
v -0.00187981 0.00295000 -0.00457887
v -0.00250866 0.00295000 -0.00265579
v -0.00038519 0.00295000 -0.00403168
v -0.00006499 0.00295000 -0.00380254
v 0.00019304 0.00295000 -0.00356155
v -0.00042912 0.00295000 -0.00162100
v -0.00052868 0.00295000 -0.00150170
v -0.00087107 0.00295000 -0.00137717
v -0.00162272 0.00295000 -0.00210248
v -0.00060894 0.00295000 -0.00139959
v -0.00061145 0.00295000 -0.00139629
v -0.00074011 0.00295000 -0.00121445
v -0.00871188 0.00295000 -0.00585809
v 0.00043501 0.00295000 -0.00326826
v 0.00063334 0.00295000 -0.00294522
v 0.00078254 0.00295000 -0.00260067
v 0.00087798 0.00295000 -0.00224644
v 0.00091985 0.00295000 -0.00188575
v -0.00935082 0.00295000 -0.00292826
v -0.00928624 0.00295000 -0.00585375
v -0.00987122 0.00295000 -0.00317134
v -0.00981685 0.00295000 -0.00563387
v -0.01045349 0.00295000 -0.00470331
v -0.01022593 0.00295000 -0.00523068
v -0.01046617 0.00295000 -0.00412909
v -0.01026211 0.00295000 -0.00359219
v 0.00000000 0.00700000 0.00150000
v 0.00057403 0.00700000 0.00138583
v 0.00000000 0.00700000 0.00000001
v -0.00138582 0.00700000 0.00057403
v -0.00106066 0.00700000 0.00106066
v -0.00057402 0.00700000 0.00138582
v -0.00106066 0.00700000 -0.00106065
v -0.00138582 0.00700000 -0.00057402
v -0.00150000 0.00700000 0.00000001
v 0.00057403 0.00700000 -0.00138581
v 0.00000000 0.00700000 -0.00150000
v -0.00057402 0.00700000 -0.00138581
v 0.00150000 0.00700000 0.00000000
v 0.00138582 0.00700000 -0.00057402
v 0.00106066 0.00700000 -0.00106065
v 0.00106066 0.00700000 0.00106066
v 0.00138582 0.00700000 0.00057403
v -0.00113905 -0.00436711 0.00144115
v -0.00111206 -0.00435323 0.00158436
v -0.00105000 -0.00428940 0.00155802
v -0.00106559 -0.00431411 0.00194783
v -0.00105000 -0.00426919 0.00231505
v -0.00096186 -0.00319419 -0.00110177
v -0.00093220 -0.00315114 -0.00113370
v -0.00102172 -0.00330914 -0.00099152
v -0.00098497 -0.00323249 -0.00106918
v -0.00201970 -0.00445000 -0.00041246
v -0.00130121 -0.00441364 0.00086119
v -0.00105000 -0.00415100 0.00078444
v -0.00140252 -0.00442888 0.00060318
v -0.00105000 -0.00383391 -0.00006436
v -0.00160624 -0.00444516 0.00019121
v -0.00105000 -0.00381335 -0.00010844
v -0.00182960 -0.00445000 -0.00016443
v -0.00105000 -0.00344248 -0.00080657
v -0.00103268 -0.00333994 -0.00095517
v -0.00083269 -0.00303533 -0.00119451
v -0.00079388 -0.00299770 -0.00120597
v -0.00316601 -0.00445000 -0.00130750
v -0.00307304 -0.00445000 -0.00126046
v -0.00238551 -0.00445000 -0.00078711
v -0.00254585 -0.00445000 -0.00092018
v -0.00032211 -0.00265491 -0.00109448
v -0.00048910 -0.00267868 -0.00107114
v -0.00047663 -0.00251983 -0.00094246
v -0.00025000 -0.00195000 -0.00079971
v -0.00099156 -0.00195000 -0.00029992
v -0.00097843 -0.00195000 -0.00033052
v -0.00097797 -0.00223611 -0.00035835
v -0.00079150 -0.00295347 -0.00113736
v -0.00098401 -0.00318034 -0.00098768
v -0.00098189 -0.00299354 -0.00076102
v -0.00105000 -0.00195000 0.00000023
v -0.00105000 -0.00309490 -0.00041747
v -0.00105000 -0.00282924 -0.00023205
v -0.00098013 -0.00276824 -0.00057680
v -0.00105000 -0.00263986 -0.00013911
v -0.00097880 -0.00251234 -0.00044157
v -0.00105000 -0.00234157 -0.00004349
v -0.00105000 -0.00230259 -0.00003513
v -0.00050420 -0.00281185 -0.00123040
v -0.00036146 -0.00287806 -0.00142853
v -0.00052124 -0.00291480 -0.00141387
v -0.00078371 -0.00279805 -0.00095365
v -0.00077724 -0.00261293 -0.00080534
v -0.00077240 -0.00240461 -0.00069727
v -0.00076935 -0.00218097 -0.00063123
v -0.00076743 -0.00195000 -0.00060991
v -0.00042499 -0.00195000 -0.00078041
v -0.00045959 -0.00195000 -0.00077183
v -0.00046150 -0.00214863 -0.00079113
v -0.00046732 -0.00234087 -0.00084857
v -0.00032211 0.00265499 -0.00109429
v -0.00047670 0.00252006 -0.00094191
v -0.00048915 0.00267900 -0.00107072
v -0.00050423 0.00281225 -0.00123011
v -0.00083355 0.00303626 -0.00119410
v -0.00079391 0.00299772 -0.00120597
v -0.00079153 0.00295348 -0.00113735
v -0.00052125 0.00291524 -0.00141371
v -0.00093379 0.00315295 -0.00113279
v -0.00103284 0.00333971 -0.00095575
v -0.00102244 0.00331014 -0.00099082
v -0.00098459 0.00318032 -0.00098770
v -0.00098553 0.00323269 -0.00106958
v -0.00096380 0.00319659 -0.00110038
v -0.00105000 0.00344248 -0.00080657
v -0.00098253 0.00299352 -0.00076104
v -0.00105000 0.00310827 -0.00042876
v -0.00098081 0.00276822 -0.00057683
v -0.00105000 0.00280066 -0.00021680
v -0.00097871 0.00223610 -0.00035839
v -0.00097860 0.00195000 -0.00033014
v -0.00099156 0.00195000 -0.00029992
v -0.00097952 0.00251232 -0.00044160
v -0.00105000 0.00246124 -0.00007502
v -0.00105000 0.00195000 0.00000022
v -0.00077245 0.00240460 -0.00069722
v -0.00046741 0.00234101 -0.00084791
v -0.00076941 0.00218097 -0.00063117
v -0.00046160 0.00214869 -0.00079040
v -0.00076743 0.00195000 -0.00060991
v -0.00046001 0.00195000 -0.00077172
v -0.00042499 0.00195000 -0.00078040
v -0.00025000 0.00195000 -0.00079957
v -0.00029565 0.00232964 -0.00087496
v -0.00078375 0.00279806 -0.00095361
v -0.00077729 0.00261293 -0.00080530
v -0.00201970 0.00445000 -0.00041246
v -0.00182960 0.00445000 -0.00016443
v -0.00160624 0.00444516 0.00019121
v -0.00105000 0.00380357 -0.00012914
v -0.00105000 0.00394386 0.00018688
v -0.00140252 0.00442888 0.00060318
v -0.00130121 0.00441364 0.00086118
v -0.00105000 0.00414902 0.00077729
v -0.00105000 0.00421309 0.00103649
v -0.00113905 0.00436711 0.00144115
v -0.00105000 0.00429080 0.00157683
v -0.00105000 0.00430005 0.00181011
v -0.00106563 0.00431416 0.00194740
v -0.00105000 0.00426919 0.00231505
v -0.00238551 0.00445000 -0.00078711
v -0.00254585 0.00445000 -0.00092018
v -0.00316601 0.00445000 -0.00130750
v -0.00307304 0.00445000 -0.00126046
v -0.00871188 -0.00495000 -0.00585808
v -0.00928624 -0.00495000 -0.00585375
v -0.00981685 -0.00495000 -0.00563387
v -0.01022593 -0.00495000 -0.00523069
v -0.01045349 -0.00495000 -0.00470332
v -0.01046617 -0.00495000 -0.00412909
v -0.01026211 -0.00495000 -0.00359219
v -0.00987122 -0.00495000 -0.00317135
v -0.00935082 -0.00495000 -0.00292826
v -0.00385311 -0.00495000 -0.00155753
v -0.00307304 -0.00495000 -0.00126045
v -0.00238551 -0.00495000 -0.00078712
v -0.00182960 -0.00495000 -0.00016444
v -0.00140252 -0.00495000 0.00060318
v -0.00105000 -0.00495000 0.00231505
v -0.00113905 -0.00495000 0.00144115
v 0.00220000 -0.00462199 0.00554540
v 0.00220000 -0.00425416 0.00587544
v -0.00105000 -0.00425416 0.00587544
v -0.00105000 -0.00462199 0.00554540
v -0.00105000 -0.00486562 0.00510520
v 0.00220000 -0.00486562 0.00510520
v -0.00105000 -0.00495000 0.00460922
v 0.00220000 -0.00495000 0.00460922
v -0.00187981 -0.00495000 -0.00457887
v 0.00092775 -0.00340895 -0.00296329
v 0.00064527 -0.00329125 -0.00325391
v 0.00063799 -0.00311336 -0.00315818
v -0.00040776 -0.00307140 -0.00405439
v 0.00107784 -0.00296721 -0.00166707
v 0.00121031 -0.00301382 -0.00173389
v 0.00138130 -0.00301303 -0.00149056
v 0.00152123 -0.00297063 -0.00124468
v 0.00162902 -0.00288455 -0.00100959
v 0.00170470 -0.00275445 -0.00080140
v 0.00175250 -0.00258585 -0.00063106
v 0.00178017 -0.00238905 -0.00050519
v 0.00179407 -0.00217405 -0.00042856
v 0.00186023 -0.00195000 -0.00036307
v 0.00102199 -0.00306804 -0.00240786
v 0.00091421 -0.00297408 -0.00230271
v 0.00101150 -0.00297887 -0.00196931
v 0.00002357 -0.00301361 -0.00375121
v -0.00000313 -0.00323218 -0.00380754
v -0.00037643 -0.00308342 -0.00403709
v 0.00200401 -0.00324450 -0.00088089
v 0.00207835 -0.00347652 -0.00076057
v 0.00202776 -0.00356511 -0.00096444
v 0.00190128 -0.00336772 -0.00121983
v 0.00196973 -0.00363242 -0.00116404
v 0.00176428 -0.00343390 -0.00157302
v 0.00184629 -0.00371180 -0.00151320
v 0.00163429 -0.00359534 -0.00194062
v 0.00154909 -0.00374791 -0.00212904
v 0.00142615 -0.00356951 -0.00230136
v 0.00059441 -0.00295896 -0.00303530
v 0.00110635 -0.00319191 -0.00250281
v 0.00116303 -0.00333987 -0.00258283
v 0.00133001 -0.00326869 -0.00220439
v 0.00124331 -0.00314541 -0.00213495
v 0.00152770 -0.00330866 -0.00189109
v 0.00143954 -0.00318791 -0.00184807
v 0.00160735 -0.00318812 -0.00155201
v 0.00105889 -0.00363999 -0.00284289
v 0.00067131 -0.00350241 -0.00326396
v 0.00038283 -0.00338900 -0.00352039
v 0.00118932 -0.00350452 -0.00264406
v 0.00116546 -0.00367227 -0.00270805
v 0.00139182 -0.00341214 -0.00226064
v 0.00159342 -0.00344620 -0.00192230
v 0.00200987 -0.00195000 -0.00022635
v 0.00212033 -0.00195000 -0.00005642
v 0.00200617 -0.00221114 -0.00025798
v 0.00214679 -0.00226065 -0.00002729
v 0.00199300 -0.00246176 -0.00035182
v 0.00213664 -0.00255830 -0.00014174
v 0.00196673 -0.00269120 -0.00050570
v 0.00211460 -0.00283010 -0.00032818
v 0.00192107 -0.00288776 -0.00071364
v 0.00207336 -0.00306312 -0.00057829
v 0.00184824 -0.00303933 -0.00096721
v 0.00174381 -0.00313937 -0.00125308
v 0.00213098 -0.00332166 -0.00049465
v 0.00217324 -0.00305630 -0.00018174
v 0.00219531 -0.00263297 0.00011849
v 0.00219932 -0.00231678 0.00023633
v 0.00219972 -0.00215880 0.00026766
v 0.00219972 -0.00195000 0.00028263
v 0.00186023 0.00195000 -0.00036307
v 0.00219972 0.00195000 0.00028262
v 0.00212033 0.00195000 -0.00005643
v 0.00200983 0.00195000 -0.00022638
v 0.00133127 0.00308745 -0.00179618
v 0.00143844 0.00318694 -0.00184937
v 0.00160730 0.00318807 -0.00155044
v 0.00012547 0.00328409 -0.00371911
v 0.00038300 0.00338908 -0.00352012
v 0.00064599 0.00329206 -0.00325215
v 0.00092851 0.00340965 -0.00296210
v 0.00118877 0.00350374 -0.00264635
v 0.00116241 0.00333916 -0.00258500
v -0.00040782 0.00307110 -0.00405510
v -0.00002923 0.00322094 -0.00382650
v 0.00002256 0.00301266 -0.00375317
v -0.00057983 0.00300717 -0.00414440
v 0.00107685 0.00296647 -0.00166793
v 0.00091349 0.00297348 -0.00230450
v 0.00120926 0.00301297 -0.00173497
v 0.00138125 0.00301297 -0.00148920
v 0.00152134 0.00297074 -0.00124328
v 0.00162873 0.00288439 -0.00100960
v 0.00170431 0.00275426 -0.00080196
v 0.00175241 0.00258591 -0.00063099
v 0.00178030 0.00238927 -0.00050466
v 0.00179411 0.00217415 -0.00042830
v 0.00113386 0.00304598 -0.00205871
v 0.00124160 0.00314391 -0.00213850
v 0.00102128 0.00306740 -0.00240980
v 0.00110568 0.00319124 -0.00250487
v 0.00139023 0.00341049 -0.00226450
v 0.00155138 0.00374662 -0.00212593
v 0.00118549 0.00367726 -0.00268339
v 0.00063869 0.00311416 -0.00315645
v 0.00059509 0.00295973 -0.00303361
v 0.00071072 0.00351804 -0.00322433
v 0.00105920 0.00364000 -0.00284330
v 0.00200377 0.00324435 -0.00088091
v 0.00190142 0.00336795 -0.00121803
v 0.00202204 0.00357328 -0.00098447
v 0.00207822 0.00347640 -0.00076056
v 0.00213157 0.00331803 -0.00049055
v 0.00207302 0.00306291 -0.00057904
v 0.00214798 0.00324074 -0.00038572
v 0.00211457 0.00283022 -0.00032811
v 0.00218708 0.00286766 -0.00002347
v 0.00213682 0.00255861 -0.00014104
v 0.00219469 0.00266788 0.00010151
v 0.00214688 0.00226080 -0.00002695
v 0.00219873 0.00242578 0.00020499
v 0.00159241 0.00344519 -0.00192367
v 0.00176425 0.00343393 -0.00157126
v 0.00174392 0.00313950 -0.00125145
v 0.00184794 0.00303916 -0.00096724
v 0.00192066 0.00288755 -0.00071432
v 0.00196664 0.00269129 -0.00050565
v 0.00199314 0.00246202 -0.00035119
v 0.00200624 0.00221126 -0.00025768
v 0.00183924 0.00371480 -0.00152881
v 0.00196924 0.00363338 -0.00116411
v -0.00871188 0.00495000 -0.00585809
v -0.00928624 0.00495000 -0.00585375
v -0.00981685 0.00495000 -0.00563387
v -0.01022593 0.00495000 -0.00523069
v -0.01045349 0.00495000 -0.00470332
v -0.01046617 0.00495000 -0.00412908
v -0.01026211 0.00495000 -0.00359219
v -0.00987122 0.00495000 -0.00317135
v -0.00935082 0.00495000 -0.00292826
v -0.00385311 0.00495000 -0.00155753
v -0.00307304 0.00495000 -0.00126045
v -0.00238551 0.00495000 -0.00078712
v -0.00182960 0.00495000 -0.00016444
v -0.00105000 0.00495000 0.00231505
v -0.00113905 0.00495000 0.00144115
v -0.00140252 0.00495000 0.00060317
v -0.00187981 0.00495000 -0.00457887
v -0.00105000 0.00462200 0.00554539
v -0.00105000 0.00425417 0.00587543
v 0.00220000 0.00425417 0.00587543
v 0.00220000 0.00462200 0.00554539
v 0.00220000 0.00486563 0.00510519
v -0.00105000 0.00486563 0.00510519
v 0.00220000 0.00495000 0.00460921
v -0.00105000 0.00495000 0.00460921
v 0.00220000 0.00149619 0.00756240
v 0.00220000 0.00207144 0.00726166
v 0.00141584 0.00179014 0.00742413
v 0.00049442 0.00207144 0.00726166
v 0.00049444 -0.00207144 0.00726166
v 0.00220000 -0.00207144 0.00726166
v 0.00141585 -0.00179014 0.00742413
v 0.00220000 -0.00149620 0.00756240
v -0.00105000 -0.00134058 0.00512488
v -0.00105000 -0.00164446 0.00459854
v -0.00105000 -0.00087500 0.00248446
v -0.00105000 -0.00030388 0.00227659
v -0.00105000 0.00030389 0.00227659
v -0.00105000 0.00087500 0.00248446
v -0.00105000 -0.00030388 0.00572342
v -0.00105000 -0.00250023 0.00698933
v -0.00105000 0.00030389 0.00572342
v -0.00105000 0.00250023 0.00698934
v -0.00105000 0.00134058 0.00287512
v -0.00105000 0.00164446 0.00340147
v -0.00105000 0.00175000 0.00400000
v -0.00105000 0.00164446 0.00459854
v -0.00105000 0.00134058 0.00512488
v -0.00105000 0.00087500 0.00551555
v -0.00105000 -0.00087500 0.00551555
v -0.00105000 -0.00134058 0.00287513
v -0.00105000 -0.00175000 0.00400001
v -0.00105000 -0.00164446 0.00340147
v -0.00106066 -0.00495000 0.00106067
v -0.00057402 -0.00495000 0.00138582
v 0.00000000 -0.00495000 -0.00150000
v -0.00057402 -0.00495000 -0.00138581
v -0.00128866 -0.00495000 -0.00443039
v -0.00138582 -0.00495000 -0.00057402
v -0.00106066 -0.00495000 -0.00106066
v -0.00138582 -0.00495000 0.00057403
v -0.00150000 -0.00495000 0.00000000
v 0.00000000 -0.00495000 0.00150000
v 0.00057403 -0.00495000 0.00138582
v 0.00106066 -0.00495000 0.00106067
v 0.00220000 -0.00495000 0.00033572
v 0.00138582 -0.00495000 0.00057403
v 0.00216774 -0.00495000 -0.00023137
v 0.00150000 -0.00495000 0.00000001
v 0.00196873 -0.00495000 -0.00116736
v 0.00138582 -0.00495000 -0.00057402
v 0.00159504 -0.00495000 -0.00204830
v 0.00106066 -0.00495000 -0.00106066
v 0.00106038 -0.00495000 -0.00284193
v 0.00057403 -0.00495000 -0.00138582
v 0.00038432 -0.00495000 -0.00351915
v -0.00040837 -0.00495000 -0.00405519
v -0.00040837 0.00495000 -0.00405519
v -0.00128867 0.00495000 -0.00443040
v 0.00038432 0.00495000 -0.00351916
v 0.00106038 0.00495000 -0.00284192
v 0.00196872 0.00495000 -0.00116736
v 0.00159504 0.00495000 -0.00204831
v 0.00216774 0.00495000 -0.00023136
v 0.00220000 0.00495000 0.00033572
v -0.00106066 0.00495000 -0.00106065
v -0.00057402 0.00495000 -0.00138581
v 0.00057403 0.00495000 -0.00138581
v 0.00106066 0.00495000 -0.00106065
v 0.00138582 0.00495000 -0.00057402
v 0.00150000 0.00495000 0.00000000
v 0.00138582 0.00495000 0.00057403
v 0.00000000 0.00495000 -0.00150000
v -0.00138582 0.00495000 -0.00057402
v -0.00150000 0.00495000 0.00000001
v -0.00138582 0.00495000 0.00057403
v -0.00106066 0.00495000 0.00106067
v -0.00057403 0.00495000 0.00138582
v 0.00000000 0.00495000 0.00150000
v 0.00057403 0.00495000 0.00138583
v 0.00106066 0.00495000 0.00106066
v 0.00220000 0.00134058 0.00287512
v 0.00220000 0.00087500 0.00248446
v 0.00220000 0.00030389 0.00227659
v 0.00220000 -0.00030388 0.00227659
v 0.00220000 -0.00087500 0.00248446
v 0.00220000 -0.00134058 0.00287513
v 0.00220000 -0.00164446 0.00340147
v 0.00220000 -0.00175000 0.00400001
v 0.00220000 -0.00164446 0.00459854
v 0.00220000 -0.00134058 0.00512488
v 0.00220000 -0.00087500 0.00551555
v 0.00220000 -0.00030388 0.00572342
v 0.00220000 0.00030389 0.00572342
v 0.00220000 0.00087500 0.00551555
v 0.00220000 0.00134058 0.00512488
v 0.00220000 0.00164446 0.00459854
v 0.00220000 0.00175000 0.00400000
v 0.00220000 0.00164446 0.00340147
f 1 2 3
f 3 2 4
f 3 4 5
f 5 4 6
f 6 4 7
f 6 7 8
f 9 10 11
f 9 11 12
f 13 14 15
f 15 14 12
f 15 12 16
f 16 12 11
f 8 7 17
f 8 17 18
f 18 17 19
f 18 19 20
f 20 19 21
f 21 19 22
f 21 22 23
f 23 22 24
f 24 22 25
f 24 25 26
f 27 28 29
f 30 31 29
f 29 31 32
f 29 32 27
f 33 34 29
f 29 34 35
f 29 35 30
f 36 37 29
f 29 37 38
f 29 38 33
f 39 40 29
f 29 40 41
f 29 41 36
f 28 42 29
f 29 42 43
f 29 43 39
f 44 45 46
f 46 45 47
f 46 47 48
f 47 49 48
f 48 49 50
f 48 50 51
f 51 50 52
f 51 52 53
f 53 52 54
f 54 52 55
f 54 55 56
f 57 58 59
f 59 58 56
f 59 56 60
f 60 56 55
f 61 62 58
f 24 26 63
f 63 26 64
f 63 64 62
f 62 64 65
f 62 65 58
f 58 65 66
f 58 66 67
f 67 66 68
f 57 69 58
f 58 69 70
f 58 70 71
f 8 18 72
f 8 72 6
f 73 74 58
f 74 75 58
f 58 75 76
f 58 76 61
f 77 1 72
f 18 20 72
f 72 20 21
f 72 21 63
f 63 21 23
f 63 23 24
f 71 78 58
f 58 78 79
f 58 79 73
f 1 3 72
f 72 3 5
f 72 5 6
f 72 80 77
f 77 80 81
f 77 81 82
f 83 84 85
f 85 84 77
f 85 77 86
f 86 77 82
f 44 87 45
f 45 87 88
f 89 90 91
f 92 93 90
f 90 93 94
f 90 94 91
f 89 91 95
f 95 91 96
f 95 96 97
f 96 98 97
f 97 98 99
f 97 99 100
f 88 87 101
f 101 87 100
f 101 100 102
f 102 100 99
f 103 104 105
f 105 104 106
f 105 106 107
f 107 106 108
f 108 106 109
f 108 109 110
f 110 109 111
f 110 111 112
f 112 111 11
f 112 11 10
f 92 113 114
f 115 116 103
f 114 117 92
f 92 117 118
f 92 118 119
f 120 121 122
f 116 115 123
f 123 115 113
f 123 113 122
f 122 113 92
f 122 92 120
f 121 124 122
f 122 124 125
f 122 125 126
f 110 112 127
f 127 112 10
f 119 128 92
f 92 128 129
f 92 129 130
f 130 131 92
f 92 131 132
f 92 132 93
f 103 105 115
f 115 105 107
f 115 107 127
f 127 107 108
f 127 108 110
f 10 9 127
f 127 9 12
f 127 12 14
f 14 13 127
f 127 13 133
f 127 133 134
f 134 133 135
f 134 135 136
f 137 138 139
f 139 138 136
f 139 136 140
f 140 136 135
f 141 142 143
f 144 145 143
f 143 145 146
f 143 146 141
f 147 148 143
f 143 148 149
f 143 149 144
f 150 151 143
f 143 151 152
f 143 152 147
f 153 154 143
f 143 154 155
f 143 155 150
f 142 156 143
f 143 156 157
f 143 157 153
f 158 159 160
f 160 159 161
f 160 161 162
f 163 164 66
f 165 166 167
f 158 160 168
f 168 160 169
f 168 169 170
f 170 169 171
f 170 171 172
f 172 171 173
f 172 173 174
f 174 173 175
f 174 175 167
f 167 175 176
f 167 176 165
f 164 177 66
f 66 177 178
f 66 178 68
f 64 26 25
f 25 179 64
f 64 179 180
f 64 180 65
f 166 163 167
f 167 163 66
f 167 66 181
f 181 66 65
f 181 65 182
f 182 65 180
f 183 184 185
f 186 44 46
f 187 188 189
f 68 178 190
f 191 166 165
f 165 176 191
f 191 176 175
f 191 175 192
f 177 164 191
f 191 164 163
f 191 163 166
f 56 58 67
f 187 189 193
f 175 194 192
f 192 194 195
f 192 195 196
f 196 195 197
f 196 197 198
f 198 197 199
f 198 199 189
f 189 199 200
f 189 200 193
f 184 183 201
f 201 183 202
f 201 202 203
f 178 177 190
f 190 177 191
f 190 191 204
f 204 191 192
f 204 192 205
f 205 192 196
f 205 196 206
f 206 196 198
f 206 198 207
f 207 198 189
f 207 189 208
f 208 189 188
f 186 46 209
f 210 209 211
f 211 209 46
f 211 46 212
f 212 46 48
f 212 48 185
f 185 48 51
f 185 51 183
f 183 51 53
f 53 54 183
f 183 54 56
f 183 56 202
f 202 56 67
f 202 67 203
f 203 67 68
f 203 68 201
f 201 68 190
f 201 190 184
f 184 190 204
f 184 204 185
f 185 204 205
f 185 205 212
f 212 205 206
f 212 206 211
f 211 206 207
f 211 207 210
f 210 207 208
f 213 97 100
f 214 215 213
f 213 215 216
f 217 218 219
f 121 220 124
f 92 90 120
f 124 220 125
f 125 220 216
f 125 216 126
f 217 219 221
f 222 223 224
f 224 223 225
f 224 225 226
f 222 224 227
f 227 224 228
f 227 228 229
f 229 228 230
f 229 230 231
f 232 233 234
f 230 235 231
f 231 235 232
f 231 232 236
f 236 232 234
f 236 234 237
f 121 120 220
f 220 120 90
f 220 90 216
f 216 90 89
f 216 89 213
f 213 89 95
f 213 95 97
f 238 239 240
f 240 239 241
f 240 241 242
f 242 241 243
f 243 241 244
f 244 241 239
f 244 239 245
f 245 239 246
f 245 246 87
f 218 126 219
f 219 126 216
f 219 216 247
f 247 216 215
f 247 215 248
f 248 215 214
f 248 214 238
f 238 214 239
f 239 214 213
f 239 213 246
f 246 213 100
f 246 100 87
f 226 221 224
f 224 221 219
f 224 219 228
f 228 219 247
f 228 247 230
f 230 247 248
f 230 248 235
f 235 248 238
f 235 238 232
f 232 238 240
f 232 240 233
f 233 240 242
f 126 218 122
f 122 218 217
f 122 217 221
f 226 225 249
f 249 225 223
f 223 222 249
f 249 222 227
f 249 227 250
f 250 227 251
f 227 252 251
f 251 252 253
f 251 253 254
f 254 253 255
f 253 256 255
f 255 256 257
f 255 257 258
f 257 259 258
f 258 259 260
f 258 260 261
f 261 260 262
f 221 226 122
f 122 226 249
f 122 249 123
f 249 263 123
f 123 263 264
f 123 264 116
f 104 103 265
f 265 103 116
f 265 116 266
f 266 116 264
f 72 267 268
f 72 268 80
f 80 268 269
f 80 269 81
f 81 269 270
f 81 270 82
f 82 270 271
f 82 271 86
f 86 271 272
f 86 272 85
f 85 272 273
f 85 273 83
f 83 273 274
f 83 274 84
f 84 274 275
f 84 275 77
f 1 77 275
f 276 25 22
f 276 22 275
f 22 19 275
f 275 19 17
f 275 17 7
f 7 4 275
f 275 4 2
f 275 2 1
f 25 276 179
f 179 276 277
f 179 277 180
f 180 277 182
f 182 277 278
f 182 278 181
f 181 278 167
f 167 278 279
f 167 279 174
f 174 279 172
f 172 279 280
f 172 280 170
f 281 162 161
f 281 161 282
f 161 159 282
f 282 159 158
f 282 158 280
f 280 158 168
f 280 168 170
f 283 284 285
f 285 286 283
f 283 286 287
f 283 287 288
f 288 287 289
f 288 289 290
f 267 72 291
f 291 72 63
f 292 293 294
f 295 61 76
f 57 296 69
f 297 59 298
f 298 59 60
f 298 60 299
f 299 60 55
f 299 55 300
f 300 55 52
f 300 52 301
f 301 52 50
f 301 50 302
f 302 50 49
f 302 49 303
f 303 49 47
f 303 47 304
f 304 47 45
f 304 45 305
f 79 78 306
f 306 78 307
f 306 307 308
f 57 59 296
f 296 59 297
f 296 297 69
f 69 297 308
f 69 308 70
f 70 308 307
f 70 307 71
f 71 307 78
f 74 309 75
f 75 309 310
f 75 310 76
f 76 310 311
f 76 311 295
f 312 313 314
f 312 314 315
f 315 314 316
f 315 316 317
f 317 316 318
f 317 318 319
f 319 318 320
f 319 320 321
f 322 323 324
f 325 326 327
f 327 326 328
f 327 328 329
f 292 330 293
f 293 330 331
f 293 331 332
f 322 324 294
f 294 324 333
f 294 333 292
f 292 333 334
f 292 334 330
f 321 335 319
f 319 335 336
f 319 336 317
f 306 323 79
f 79 323 322
f 79 322 73
f 73 322 294
f 73 294 74
f 74 294 293
f 74 293 309
f 309 293 332
f 309 332 310
f 337 338 339
f 339 338 340
f 339 340 341
f 341 340 342
f 341 342 343
f 343 342 344
f 343 344 345
f 345 344 346
f 345 346 347
f 347 346 312
f 347 312 348
f 348 312 315
f 348 315 329
f 329 315 317
f 329 317 327
f 327 317 336
f 327 336 325
f 325 336 335
f 313 312 349
f 349 312 346
f 349 346 350
f 350 346 344
f 350 344 351
f 351 344 342
f 351 342 352
f 352 342 340
f 352 340 353
f 353 340 338
f 353 338 354
f 305 337 304
f 304 337 339
f 304 339 303
f 303 339 341
f 303 341 302
f 302 341 343
f 302 343 301
f 301 343 345
f 301 345 300
f 300 345 347
f 300 347 299
f 299 347 348
f 299 348 298
f 298 348 329
f 298 329 297
f 297 329 328
f 297 328 308
f 308 328 326
f 308 326 306
f 306 326 325
f 306 325 323
f 323 325 335
f 323 335 324
f 324 335 321
f 324 321 333
f 333 321 320
f 333 320 334
f 45 88 355
f 356 354 357
f 357 354 338
f 357 338 358
f 358 338 337
f 358 337 355
f 355 337 305
f 355 305 45
f 359 360 361
f 362 363 364
f 365 366 367
f 368 369 370
f 117 114 371
f 371 368 117
f 117 368 370
f 117 370 118
f 118 370 119
f 94 93 372
f 372 93 132
f 372 132 131
f 130 373 131
f 131 373 374
f 131 374 372
f 372 374 375
f 372 375 94
f 94 375 376
f 94 376 91
f 91 376 377
f 91 377 96
f 96 377 378
f 96 378 98
f 98 378 379
f 98 379 99
f 99 379 380
f 99 380 102
f 102 380 381
f 102 381 101
f 101 381 355
f 101 355 88
f 359 382 383
f 382 384 383
f 383 384 385
f 383 385 386
f 386 385 367
f 386 367 387
f 387 367 366
f 387 366 388
f 364 365 389
f 389 365 367
f 389 367 390
f 390 367 385
f 364 363 365
f 365 363 391
f 365 391 366
f 366 391 392
f 366 392 388
f 393 394 395
f 395 396 393
f 393 396 397
f 393 397 398
f 398 397 399
f 398 399 400
f 400 399 401
f 400 401 402
f 402 401 403
f 402 403 404
f 404 403 405
f 404 405 357
f 357 405 356
f 360 406 361
f 361 406 407
f 361 407 408
f 408 407 394
f 408 394 409
f 409 394 393
f 409 393 410
f 410 393 398
f 410 398 411
f 411 398 400
f 411 400 412
f 412 400 402
f 412 402 413
f 413 402 404
f 413 404 358
f 358 404 357
f 359 383 360
f 360 383 386
f 360 386 406
f 406 386 387
f 406 387 407
f 407 387 414
f 407 414 394
f 394 414 415
f 394 415 395
f 369 362 370
f 370 362 364
f 370 364 119
f 119 364 389
f 119 389 128
f 128 389 390
f 128 390 129
f 129 390 385
f 129 385 130
f 130 385 384
f 130 384 373
f 373 384 382
f 373 382 374
f 374 382 359
f 374 359 375
f 375 359 361
f 375 361 376
f 376 361 408
f 376 408 377
f 377 408 409
f 377 409 378
f 378 409 410
f 378 410 379
f 379 410 411
f 379 411 380
f 380 411 412
f 380 412 381
f 381 412 413
f 381 413 355
f 355 413 358
f 416 127 134
f 416 134 417
f 417 134 136
f 417 136 418
f 418 136 138
f 418 138 419
f 419 138 137
f 419 137 420
f 420 137 139
f 420 139 421
f 421 139 140
f 421 140 422
f 422 140 135
f 422 135 423
f 423 135 133
f 423 133 424
f 111 109 424
f 424 109 425
f 425 109 106
f 425 106 104
f 133 13 424
f 424 13 15
f 15 16 424
f 424 16 11
f 424 11 111
f 104 265 425
f 425 265 426
f 265 266 426
f 426 266 264
f 426 264 427
f 427 264 263
f 427 263 428
f 428 263 249
f 428 249 250
f 261 262 429
f 261 429 258
f 258 429 430
f 258 430 255
f 255 430 431
f 255 431 254
f 428 250 431
f 431 250 251
f 431 251 254
f 416 432 127
f 127 432 115
f 433 434 435
f 435 436 433
f 433 436 437
f 433 437 438
f 438 437 439
f 438 439 440
f 441 442 443
f 443 442 444
f 445 446 447
f 447 446 448
f 162 449 450
f 451 452 193
f 262 453 454
f 256 253 229
f 229 253 252
f 229 252 227
f 455 456 457
f 457 456 458
f 256 229 257
f 257 229 231
f 257 231 259
f 194 175 173
f 454 459 262
f 262 459 460
f 262 460 429
f 193 452 237
f 237 452 453
f 237 453 236
f 236 453 262
f 236 262 231
f 231 262 260
f 231 260 259
f 197 195 169
f 169 195 194
f 169 194 171
f 171 194 173
f 429 460 440
f 440 460 461
f 440 461 438
f 438 461 462
f 438 462 433
f 433 462 434
f 434 462 463
f 434 463 458
f 458 463 464
f 458 464 457
f 455 465 456
f 456 465 449
f 456 449 285
f 285 449 162
f 193 200 451
f 451 200 199
f 451 199 466
f 450 467 162
f 162 467 468
f 162 468 160
f 160 468 466
f 160 466 169
f 169 466 199
f 169 199 197
f 287 286 289
f 289 286 285
f 289 285 281
f 281 285 162
f 456 285 445
f 445 285 284
f 445 284 446
f 469 470 282
f 282 470 281
f 471 472 473
f 474 277 475
f 475 277 267
f 475 267 472
f 472 267 291
f 472 291 473
f 270 269 268
f 469 282 476
f 476 282 280
f 476 280 477
f 477 280 279
f 477 279 474
f 474 279 278
f 474 278 277
f 281 470 289
f 289 470 478
f 289 478 290
f 277 276 267
f 267 276 275
f 267 275 268
f 268 275 274
f 478 479 290
f 290 479 480
f 290 480 481
f 481 480 482
f 481 482 483
f 483 482 484
f 483 484 485
f 485 484 486
f 485 486 487
f 487 486 488
f 487 488 489
f 489 488 490
f 489 490 491
f 491 490 471
f 491 471 492
f 492 471 473
f 271 270 272
f 272 270 268
f 272 268 273
f 273 268 274
f 369 368 493
f 493 368 494
f 494 368 371
f 494 371 114
f 495 496 392
f 392 391 495
f 495 391 363
f 495 363 493
f 493 363 362
f 493 362 369
f 497 414 498
f 498 414 387
f 498 387 496
f 496 387 388
f 496 388 392
f 397 396 499
f 499 396 395
f 499 395 497
f 497 395 415
f 497 415 414
f 481 352 353
f 353 354 481
f 481 354 356
f 481 356 500
f 500 356 405
f 405 403 500
f 500 403 401
f 500 401 499
f 499 401 399
f 499 399 397
f 313 349 483
f 483 349 350
f 483 350 481
f 481 350 351
f 481 351 352
f 485 316 483
f 483 316 314
f 483 314 313
f 489 334 487
f 487 334 320
f 487 320 485
f 485 320 318
f 485 318 316
f 491 331 489
f 489 331 330
f 489 330 334
f 295 311 492
f 492 311 310
f 492 310 491
f 491 310 332
f 491 332 331
f 295 492 61
f 61 492 473
f 61 473 62
f 62 473 291
f 62 291 63
f 114 113 494
f 494 113 115
f 494 115 432
f 501 502 432
f 503 504 498
f 498 504 497
f 497 504 505
f 497 505 499
f 499 505 506
f 499 506 500
f 500 506 507
f 500 507 439
f 422 423 424
f 424 425 416
f 416 425 426
f 498 496 503
f 503 496 495
f 503 495 508
f 508 495 493
f 508 493 502
f 502 493 494
f 502 494 432
f 432 416 501
f 501 416 426
f 501 426 509
f 509 426 427
f 509 427 510
f 510 427 428
f 510 428 511
f 511 428 431
f 511 431 512
f 512 431 430
f 512 430 513
f 513 430 429
f 513 429 514
f 514 429 440
f 514 440 515
f 515 440 439
f 515 439 516
f 516 439 507
f 418 419 420
f 416 417 424
f 424 417 418
f 424 418 422
f 422 418 420
f 422 420 421
f 442 435 444
f 444 435 434
f 444 434 458
f 458 456 445
f 448 441 447
f 447 441 443
f 447 443 445
f 445 443 444
f 445 444 458
f 517 518 500
f 500 518 519
f 500 519 481
f 481 519 520
f 481 520 521
f 521 522 481
f 481 522 523
f 481 523 290
f 290 523 524
f 290 524 288
f 288 524 525
f 288 525 283
f 283 525 284
f 284 525 526
f 284 526 446
f 446 526 527
f 446 527 448
f 448 527 528
f 448 528 441
f 441 528 529
f 441 529 442
f 442 529 530
f 442 530 435
f 435 530 531
f 435 531 436
f 436 531 532
f 436 532 437
f 437 532 533
f 437 533 439
f 439 533 500
f 500 533 534
f 500 534 517
f 87 44 245
f 245 44 186
f 245 186 244
f 244 186 209
f 244 209 243
f 243 209 210
f 243 210 242
f 242 210 208
f 242 208 233
f 233 208 188
f 233 188 234
f 234 188 187
f 234 187 237
f 237 187 193
f 27 470 28
f 28 470 469
f 28 469 42
f 42 469 476
f 42 476 43
f 43 476 477
f 43 477 39
f 39 477 474
f 39 474 40
f 40 474 475
f 40 475 41
f 41 475 472
f 41 472 36
f 36 472 471
f 36 471 37
f 37 471 490
f 37 490 38
f 38 490 488
f 38 488 33
f 33 488 486
f 33 486 34
f 34 486 484
f 34 484 35
f 35 484 482
f 35 482 30
f 30 482 480
f 30 480 31
f 31 480 479
f 31 479 32
f 32 479 478
f 32 478 27
f 27 478 470
f 514 146 513
f 513 146 145
f 513 145 512
f 512 145 144
f 512 144 511
f 511 144 149
f 511 149 510
f 510 149 148
f 510 148 509
f 509 148 147
f 509 147 501
f 501 147 152
f 501 152 502
f 502 152 151
f 502 151 508
f 508 151 150
f 508 150 503
f 503 150 155
f 503 155 504
f 504 155 154
f 504 154 505
f 505 154 153
f 505 153 506
f 506 153 157
f 506 157 507
f 507 157 156
f 507 156 516
f 516 156 142
f 516 142 515
f 515 142 141
f 515 141 514
f 514 141 146
f 461 533 462
f 462 533 532
f 462 532 463
f 463 532 531
f 463 531 464
f 464 531 530
f 464 530 457
f 457 530 529
f 457 529 455
f 455 529 528
f 455 528 465
f 465 528 527
f 465 527 449
f 449 527 526
f 449 526 450
f 450 526 525
f 450 525 467
f 467 525 524
f 467 524 468
f 468 524 523
f 468 523 466
f 466 523 522
f 466 522 451
f 451 522 521
f 451 521 452
f 452 521 520
f 452 520 453
f 453 520 519
f 453 519 454
f 454 519 518
f 454 518 459
f 459 518 517
f 459 517 460
f 460 517 534
f 460 534 461
f 461 534 533

