# https://github.com/mikedh/trimesh
v -0.00871138 -0.00295020 -0.00585809
v -0.00871138 -0.00494980 -0.00585756
v -0.00928586 -0.00494980 -0.00585328
v -0.00928586 -0.00295020 -0.00585328
v -0.00203394 -0.00295020 -0.00460744
v -0.00203394 -0.00494980 -0.00460744
v -0.00981658 -0.00494980 -0.00563342
v -0.00981658 -0.00295020 -0.00563342
v -0.00203394 -0.00295020 -0.00235969
v -0.00203394 -0.00494980 -0.00039331
v -0.01022515 -0.00494980 -0.00523062
v -0.01022515 -0.00295020 -0.00523062
v -0.00203394 -0.00445000 -0.00042754
v -0.00750383 -0.00295020 -0.00255280
v -0.00935024 -0.00494980 -0.00292831
v -0.00935024 -0.00295020 -0.00292831
v -0.01045296 -0.00494980 -0.00470319
v -0.01045296 -0.00295020 -0.00470319
v -0.00766230 -0.00299875 -0.00250786
v -0.00809399 -0.00295020 -0.00261538
v -0.00987106 -0.00494980 -0.00317117
v -0.00987106 -0.00295020 -0.00317117
v -0.01046617 -0.00494980 -0.00412868
v -0.01046617 -0.00295020 -0.00412868
v -0.01026147 -0.00494980 -0.00359215
v -0.01026147 -0.00295020 -0.00359215
f 1 2 3
f 1 3 4
f 1 4 8
f 1 8 12
f 1 12 18
f 1 18 24
f 1 24 26
f 1 26 22
f 1 22 16
f 1 16 20
f 1 20 14
f 1 14 9
f 1 9 5
f 1 5 6
f 1 6 2
f 2 6 10
f 2 10 15
f 2 15 21
f 2 21 25
f 2 25 23
f 2 23 17
f 2 17 11
f 2 11 7
f 2 7 3
f 3 7 8
f 3 8 4
f 5 9 13
f 5 13 10
f 5 10 6
f 7 11 12
f 7 12 8
f 9 14 13
f 10 13 16
f 10 16 15
f 11 17 18
f 11 18 12
f 13 14 19
f 13 19 20
f 13 20 16
f 14 20 19
f 15 16 22
f 15 22 21
f 17 23 24
f 17 24 18
f 21 22 26
f 21 26 25
f 23 25 26
f 23 26 24

