# https://github.com/mikedh/trimesh
v 0.00220000 0.00149511 0.00756240
v 0.00220000 0.00207067 0.00726101
v 0.00141546 0.00178974 0.00742302
v 0.00049416 0.00207067 0.00726101
v 0.00220000 -0.00149511 0.00756240
v 0.00220000 0.00425372 0.00587435
v -0.00104964 0.00425372 0.00587435
v -0.00104964 0.00249961 0.00698820
v 0.00049416 -0.00207067 0.00726101
v 0.00141546 -0.00178974 0.00742302
v 0.00220000 -0.00207067 0.00726101
v 0.00220000 0.00462099 0.00554437
v -0.00104964 0.00462099 0.00554437
v -0.00203394 0.00494988 -0.00039298
v -0.00104964 -0.00249961 0.00698820
v -0.00104964 -0.00425372 0.00587435
v 0.00220000 -0.00425372 0.00587435
v 0.00220000 0.00486492 0.00510479
v 0.00000014 0.00700000 0.00149997
v -0.00057386 0.00700000 0.00138680
v -0.00104964 0.00486492 0.00510479
v -0.00138575 0.00700000 0.00057434
v -0.00149972 0.00700000 0.00000015
v -0.00203394 0.00494988 -0.00460773
v -0.00203394 -0.00494988 -0.00039298
v -0.00104964 -0.00462099 0.00554437
v 0.00220000 -0.00462099 0.00554437
v 0.00220000 0.00494988 0.00460802
v 0.00149959 0.00700000 0.00000015
v 0.00138562 0.00700000 0.00057434
v 0.00106029 0.00700000 0.00106158
v 0.00057373 0.00700000 0.00138680
v -0.00106041 0.00700000 0.00106158
v -0.00138575 0.00700000 -0.00057286
v -0.00106041 0.00700000 -0.00106009
v -0.00057386 0.00700000 -0.00138531
v 0.00000014 0.00700000 -0.00149968
v -0.00187976 0.00494988 -0.00457795
v -0.00203394 -0.00494988 -0.00460773
v -0.00149972 -0.00700000 0.00000015
v -0.00138575 -0.00700000 0.00057434
v -0.00104964 -0.00486492 0.00510479
v -0.00057386 -0.00700000 0.00138680
v 0.00000014 -0.00700000 0.00149997
v 0.00220000 -0.00486492 0.00510479
v 0.00220000 0.00494988 0.00033609
v 0.00216767 0.00494988 -0.00023096
v 0.00138562 0.00700000 -0.00057286
v 0.00057373 0.00700000 -0.00138531
v -0.00128836 0.00494988 -0.00443023
v -0.00187976 -0.00494988 -0.00457795
v 0.00000014 -0.00700000 -0.00149968
v -0.00057386 -0.00700000 -0.00138531
v -0.00106041 -0.00700000 -0.00106009
v -0.00138575 -0.00700000 -0.00057286
v -0.00106041 -0.00700000 0.00106158
v 0.00057373 -0.00700000 0.00138680
v 0.00220000 -0.00494988 0.00460921
v 0.00106029 -0.00700000 0.00106158
v 0.00138562 -0.00700000 0.00057434
v 0.00149959 -0.00700000 0.00000015
v 0.00219959 0.00194871 0.00028367
v 0.00219834 0.00243383 0.00020267
v 0.00219461 0.00266680 0.00010260
v 0.00220000 -0.00494988 0.00033609
v 0.00219959 -0.00218305 0.00026461
v 0.00196833 0.00494988 -0.00116731
v 0.00218591 0.00288195 -0.00003321
v 0.00216933 -0.00309025 -0.00021428
v 0.00216767 -0.00494988 -0.00023096
v 0.00214447 0.00325744 -0.00040846
v 0.00214281 0.00326566 -0.00041918
v 0.00204127 0.00354385 -0.00091118
v 0.00106029 0.00700000 -0.00106009
v 0.00159492 0.00494988 -0.00204766
v -0.00040808 0.00494988 -0.00405497
v -0.00074212 0.00294910 -0.00422056
v -0.00128836 -0.00494988 -0.00443023
v 0.00057373 -0.00700000 -0.00138531
v 0.00138562 -0.00700000 -0.00057286
v 0.00219420 -0.00266406 0.00010260
v 0.00186555 0.00370282 -0.00146155
v 0.00202925 -0.00356167 -0.00095764
v 0.00196957 -0.00363156 -0.00116373
v 0.00196833 -0.00494988 -0.00116731
v 0.00207815 -0.00347533 -0.00075989
v 0.00213286 -0.00331226 -0.00048113
v 0.00106029 0.00494988 -0.00284106
v 0.00038392 0.00494988 -0.00351890
v 0.00184482 -0.00371104 -0.00151516
v 0.00159492 -0.00494988 -0.00204766
v 0.00157378 -0.00374941 -0.00208459
v 0.00158373 0.00374804 -0.00206673
v 0.00122233 0.00368637 -0.00263378
v -0.00002887 0.00322044 -0.00382625
v -0.00040767 0.00307106 -0.00405497
v -0.00055355 0.00301625 -0.00413122
v -0.00074212 -0.00294910 -0.00422056
v -0.00040808 -0.00494988 -0.00405497
v 0.00106029 -0.00700000 -0.00106009
v 0.00105904 0.00363978 -0.00284344
v 0.00074863 0.00353152 -0.00318534
v 0.00069433 -0.00351096 -0.00324133
v 0.00038267 0.00338900 -0.00352009
v 0.00016136 0.00329855 -0.00369163
v 0.00106029 -0.00494988 -0.00284106
v 0.00119166 -0.00367952 -0.00267309
v 0.00001009 -0.00323688 -0.00379885
v -0.00002804 -0.00322181 -0.00382386
v 0.00038392 -0.00494988 -0.00351890
v 0.00038267 -0.00338763 -0.00352009
v -0.00871138 -0.00295020 -0.00585809
v -0.00871138 -0.00494980 -0.00585756
v -0.00928586 -0.00494980 -0.00585328
v -0.00928586 -0.00295020 -0.00585328
v -0.00203394 -0.00295020 -0.00460744
v -0.00203394 -0.00494980 -0.00460744
v -0.00981658 -0.00494980 -0.00563342
v -0.00981658 -0.00295020 -0.00563342
v -0.00203394 -0.00295020 -0.00235969
v -0.00203394 -0.00494980 -0.00039331
v -0.01022515 -0.00494980 -0.00523062
v -0.01022515 -0.00295020 -0.00523062
v -0.00203394 -0.00445000 -0.00042754
v -0.00750383 -0.00295020 -0.00255280
v -0.00935024 -0.00494980 -0.00292831
v -0.00935024 -0.00295020 -0.00292831
v -0.01045296 -0.00494980 -0.00470319
v -0.01045296 -0.00295020 -0.00470319
v -0.00766230 -0.00299875 -0.00250786
v -0.00809399 -0.00295020 -0.00261538
v -0.00987106 -0.00494980 -0.00317117
v -0.00987106 -0.00295020 -0.00317117
v -0.01046617 -0.00494980 -0.00412868
v -0.01046617 -0.00295020 -0.00412868
v -0.01026147 -0.00494980 -0.00359215
v -0.01026147 -0.00295020 -0.00359215
v -0.00871138 0.00295020 -0.00585808
v -0.00928586 0.00295020 -0.00585327
v -0.00871138 0.00494980 -0.00585808
v -0.00203394 0.00295020 -0.00460743
v -0.00981658 0.00295020 -0.00563341
v -0.00928586 0.00494980 -0.00585327
v -0.00203394 0.00494980 -0.00460743
v -0.00203394 0.00295020 -0.00235968
v -0.00981658 0.00494980 -0.00563341
v -0.01022515 0.00295020 -0.00523062
v -0.00203394 0.00494980 -0.00039331
v -0.00203394 0.00445000 -0.00042754
v -0.00750383 0.00295020 -0.00255279
v -0.01022515 0.00494980 -0.00523062
v -0.01045296 0.00295020 -0.00470318
v -0.00935024 0.00295020 -0.00292831
v -0.00203394 0.00476617 -0.00039384
v -0.00935024 0.00494980 -0.00292831
v -0.00809399 0.00295020 -0.00261538
v -0.00766230 0.00299875 -0.00250786
v -0.01045296 0.00494980 -0.00470318
v -0.01046617 0.00295020 -0.00412867
v -0.00987106 0.00295020 -0.00317116
v -0.00987106 0.00494980 -0.00317116
v -0.01046617 0.00494980 -0.00412867
v -0.01026147 0.00295020 -0.00359215
v -0.01026147 0.00494980 -0.00359215
f 1 2 3
f 1 3 4
f 1 4 9
f 1 9 5
f 1 5 11
f 1 11 17
f 1 17 27
f 1 27 45
f 1 45 58
f 1 58 65
f 1 65 46
f 1 46 28
f 1 28 18
f 1 18 12
f 1 12 6
f 1 6 2
f 2 4 3
f 2 6 7
f 2 7 4
f 4 7 8
f 4 8 15
f 4 15 9
f 5 9 10
f 5 10 11
f 6 12 13
f 6 13 7
f 7 13 14
f 7 14 8
f 8 14 25
f 8 25 15
f 9 15 16
f 9 16 17
f 9 17 11
f 9 11 10
f 12 18 19
f 12 19 13
f 13 19 20
f 13 20 21
f 13 21 22
f 13 22 23
f 13 23 14
f 14 23 24
f 14 24 39
f 14 39 25
f 15 25 16
f 16 25 26
f 16 26 27
f 16 27 17
f 18 28 29
f 18 29 30
f 18 30 31
f 18 31 32
f 18 32 19
f 19 32 31
f 19 31 30
f 19 30 29
f 19 29 48
f 19 48 74
f 19 74 49
f 19 49 37
f 19 37 36
f 19 36 35
f 19 35 34
f 19 34 23
f 19 23 22
f 19 22 33
f 19 33 20
f 20 33 21
f 21 33 22
f 23 34 24
f 24 34 35
f 24 35 36
f 24 36 37
f 24 37 38
f 24 38 51
f 24 51 39
f 25 39 40
f 25 40 26
f 26 40 41
f 26 41 42
f 26 42 43
f 26 43 44
f 26 44 27
f 27 44 45
f 28 46 29
f 29 46 47
f 29 47 48
f 37 49 38
f 38 49 50
f 38 50 78
f 38 78 51
f 39 51 52
f 39 52 53
f 39 53 54
f 39 54 55
f 39 55 40
f 40 55 54
f 40 54 53
f 40 53 52
f 40 52 79
f 40 79 100
f 40 100 80
f 40 80 61
f 40 61 60
f 40 60 59
f 40 59 57
f 40 57 44
f 40 44 43
f 40 43 56
f 40 56 41
f 41 56 42
f 42 56 43
f 44 57 45
f 45 57 59
f 45 59 60
f 45 60 61
f 45 61 58
f 46 62 63
f 46 63 64
f 46 64 47
f 46 65 66
f 46 66 62
f 47 67 48
f 47 64 68
f 47 68 69
f 47 69 70
f 47 70 71
f 47 71 72
f 47 72 73
f 47 73 67
f 48 67 75
f 48 75 74
f 49 74 76
f 49 76 50
f 50 76 77
f 50 77 98
f 50 98 78
f 51 78 79
f 51 79 52
f 58 61 65
f 61 80 70
f 61 70 65
f 62 66 63
f 63 66 81
f 63 81 64
f 64 81 68
f 65 70 81
f 65 81 66
f 67 82 75
f 67 73 83
f 67 83 84
f 67 84 85
f 67 85 82
f 68 81 70
f 68 70 69
f 70 80 85
f 70 85 86
f 70 86 87
f 70 87 71
f 71 87 72
f 72 87 86
f 72 86 73
f 73 86 83
f 74 75 88
f 74 88 89
f 74 89 76
f 75 82 90
f 75 90 91
f 75 91 92
f 75 92 93
f 75 93 94
f 75 94 88
f 76 89 95
f 76 95 96
f 76 96 97
f 76 97 77
f 77 97 98
f 78 98 99
f 78 99 79
f 79 99 100
f 80 100 91
f 80 91 85
f 82 85 90
f 83 86 85
f 83 85 84
f 85 91 90
f 88 94 101
f 88 101 102
f 88 102 89
f 89 102 103
f 89 103 104
f 89 104 105
f 89 105 95
f 91 100 106
f 91 106 107
f 91 107 92
f 92 107 94
f 92 94 93
f 94 107 101
f 95 105 108
f 95 108 109
f 95 109 99
f 95 99 96
f 96 99 97
f 97 99 98
f 99 109 108
f 99 108 110
f 99 110 100
f 100 110 106
f 101 107 106
f 101 106 102
f 102 106 103
f 103 106 110
f 103 110 111
f 103 111 104
f 104 111 105
f 105 111 110
f 105 110 108
f 112 113 114
f 112 114 115
f 112 115 119
f 112 119 123
f 112 123 129
f 112 129 135
f 112 135 137
f 112 137 133
f 112 133 127
f 112 127 131
f 112 131 125
f 112 125 120
f 112 120 116
f 112 116 117
f 112 117 113
f 113 117 121
f 113 121 126
f 113 126 132
f 113 132 136
f 113 136 134
f 113 134 128
f 113 128 122
f 113 122 118
f 113 118 114
f 114 118 119
f 114 119 115
f 116 120 124
f 116 124 121
f 116 121 117
f 118 122 123
f 118 123 119
f 120 125 124
f 121 124 127
f 121 127 126
f 122 128 129
f 122 129 123
f 124 125 130
f 124 130 131
f 124 131 127
f 125 131 130
f 126 127 133
f 126 133 132
f 128 134 135
f 128 135 129
f 132 133 137
f 132 137 136
f 134 136 137
f 134 137 135
f 138 139 143
f 138 143 140
f 138 140 144
f 138 144 141
f 138 141 145
f 138 145 150
f 138 150 156
f 138 156 153
f 138 153 160
f 138 160 163
f 138 163 159
f 138 159 152
f 138 152 147
f 138 147 142
f 138 142 139
f 139 142 146
f 139 146 143
f 140 143 146
f 140 146 151
f 140 151 158
f 140 158 162
f 140 162 164
f 140 164 161
f 140 161 155
f 140 155 148
f 140 148 144
f 141 144 148
f 141 148 154
f 141 154 149
f 141 149 145
f 142 147 151
f 142 151 146
f 145 149 150
f 147 152 158
f 147 158 151
f 148 153 154
f 148 155 153
f 149 154 153
f 149 153 156
f 149 156 157
f 149 157 150
f 150 157 156
f 152 159 162
f 152 162 158
f 153 155 161
f 153 161 160
f 159 163 164
f 159 164 162
f 160 161 164
f 160 164 163

