# https://github.com/mikedh/trimesh
v -0.00068006 -0.00966621 -0.00082329
v 0.00068006 -0.00966371 -0.00082329
v 0.00068006 -0.00964622 0.00054242
v -0.00068006 -0.00964622 0.00054242
v -0.00204019 -0.00952627 -0.00082329
v -0.00068006 -0.00965372 -0.00218353
v 0.00204019 -0.00952627 -0.00082329
v 0.00068006 -0.00964872 -0.00218353
v 0.00204019 -0.00950377 0.00054242
v 0.00068006 -0.00959374 0.00190267
v -0.00204019 -0.00950377 0.00054242
v -0.00068006 -0.00959374 0.00190267
v -0.00332784 -0.00925637 0.00054242
v -0.00337260 -0.00926886 -0.00082329
v -0.00204019 -0.00951127 -0.00218353
v -0.00204019 -0.00947878 -0.00354378
v -0.00068006 -0.00961123 -0.00354378
v 0.00068006 -0.00960873 -0.00354378
v 0.00337260 -0.00926886 -0.00082329
v 0.00332784 -0.00925637 0.00054242
v 0.00204019 -0.00950627 -0.00218353
v 0.00334276 -0.00925887 -0.00218353
v 0.00204019 -0.00947379 -0.00354378
v 0.00322977 -0.00923138 0.00190267
v 0.00204019 -0.00945129 0.00190267
v 0.00068006 -0.00794437 0.03047331
v -0.00204019 -0.00945129 0.00190267
v -0.00322977 -0.00923138 0.00190267
v -0.00068006 -0.00794437 0.03047331
v -0.00400790 -0.00907394 0.00054242
v -0.00405267 -0.00908643 -0.00082329
v -0.00402282 -0.00907893 -0.00218353
v -0.00334276 -0.00925887 -0.00218353
v -0.00327454 -0.00923887 -0.00354378
v -0.00315515 -0.00920639 -0.00490402
v -0.00204019 -0.00941381 -0.00490402
v -0.00068006 -0.00953876 -0.00490402
v 0.00068006 -0.00953626 -0.00490402
v 0.00204019 -0.00940881 -0.00490402
v 0.00405267 -0.00908643 -0.00082329
v 0.00402282 -0.00907893 -0.00218353
v 0.00400790 -0.00907394 0.00054242
v 0.00327880 -0.00923887 -0.00354378
v 0.00395887 -0.00906144 -0.00354378
v 0.00315515 -0.00920389 -0.00490402
v 0.00390983 -0.00904645 0.00190267
v 0.00138358 -0.00773945 0.03258742
v 0.00306135 -0.00918639 0.00326292
v 0.00068006 -0.00786190 0.03183355
v 0.00003198 -0.00773695 0.03390397
v -0.00306135 -0.00918639 0.00326292
v -0.00138358 -0.00773945 0.03258742
v -0.00390983 -0.00904645 0.00190267
v -0.00003198 -0.00773695 0.03390397
v -0.00068006 -0.00786190 0.03183355
v -0.00476258 -0.00877155 0.00054242
v -0.00476258 -0.00871407 0.00190267
v -0.00476258 -0.00878655 -0.00218353
v -0.00476258 -0.00879904 -0.00082329
v -0.00476258 -0.00875406 -0.00354378
v -0.00395460 -0.00906144 -0.00354378
v -0.00383522 -0.00901396 -0.00490402
v -0.00295689 -0.00915391 -0.00566882
v -0.00204019 -0.00923138 -0.00576715
v -0.00068006 -0.00929385 -0.00583817
v 0.00068006 -0.00929135 -0.00583817
v 0.00204019 -0.00922638 -0.00576169
v 0.00295263 -0.00915141 -0.00566882
v 0.00476258 -0.00878655 -0.00218353
v 0.00476258 -0.00879904 -0.00082329
v 0.00476258 -0.00877155 0.00054242
v 0.00476258 -0.00875156 -0.00354378
v 0.00476258 -0.00871407 0.00190267
v 0.00383522 -0.00901396 -0.00490402
v 0.00476258 -0.00867409 -0.00490402
v 0.00476258 -0.00861911 0.00326292
v 0.00340032 -0.00708969 0.03183355
v 0.00215105 -0.00756951 0.03183355
v 0.00191868 -0.00753952 0.03310093
v 0.00204019 -0.00737458 0.03455405
v 0.00204019 -0.00724213 0.03591976
v 0.00068006 -0.00749204 0.03591976
v 0.00093802 -0.00769946 0.03349425
v 0.00056281 -0.00776694 0.03310093
v 0.00056281 -0.00764198 0.03443933
v -0.00056281 -0.00776694 0.03310093
v -0.00093802 -0.00769946 0.03349425
v -0.00068006 -0.00748954 0.03591976
v -0.00204019 -0.00723714 0.03591976
v -0.00204019 -0.00737458 0.03455405
v -0.00191868 -0.00753952 0.03310093
v -0.00215105 -0.00756951 0.03183355
v -0.00476258 -0.00861911 0.00326292
v -0.00340032 -0.00708969 0.03183355
v -0.00056281 -0.00764198 0.03443933
v -0.00606515 -0.00811180 0.00054242
v -0.00609286 -0.00812680 -0.00082329
v -0.00601398 -0.00808181 0.00190267
v -0.00593510 -0.00803433 0.00326292
v -0.00608860 -0.00812180 -0.00218353
v -0.00607154 -0.00810681 -0.00354378
v -0.00602890 -0.00807682 -0.00490402
v -0.00476258 -0.00867659 -0.00490402
v -0.00581359 -0.00794937 -0.00579993
v -0.00476258 -0.00817678 -0.00593650
v -0.00204019 -0.00841419 -0.00614409
v -0.00068006 -0.00841419 -0.00621510
v 0.00068006 -0.00841419 -0.00620964
v 0.00204019 -0.00841419 -0.00613862
v 0.00476258 -0.00817678 -0.00593104
v 0.00581145 -0.00794937 -0.00579993
v 0.00608860 -0.00812180 -0.00218353
v 0.00607154 -0.00810431 -0.00354378
v 0.00609286 -0.00812680 -0.00082329
v 0.00606515 -0.00811180 0.00054242
v 0.00601398 -0.00808181 0.00190267
v 0.00602677 -0.00807432 -0.00490402
v 0.00593510 -0.00803433 0.00326292
v 0.00424027 -0.00646993 0.03455405
v 0.00340032 -0.00698973 0.03319380
v 0.00340032 -0.00687477 0.03455405
v 0.00352184 -0.00666985 0.03599623
v 0.00325109 -0.00661237 0.03728000
v 0.00204019 -0.00701472 0.03728000
v 0.00068006 -0.00723464 0.03728000
v -0.00068006 -0.00723214 0.03728000
v -0.00204019 -0.00700223 0.03728000
v -0.00326814 -0.00660238 0.03728000
v -0.00353036 -0.00666985 0.03602901
v -0.00340032 -0.00687477 0.03455405
v -0.00340032 -0.00698973 0.03319380
v -0.00424027 -0.00646993 0.03455405
v -0.00674734 -0.00769196 0.00054242
v -0.00677292 -0.00771196 -0.00082329
v -0.00677079 -0.00770946 -0.00218353
v -0.00669404 -0.00765448 0.00190267
v -0.00661730 -0.00759950 0.00326292
v -0.00675374 -0.00769946 -0.00354378
v -0.00670897 -0.00766198 -0.00490402
v -0.00723127 -0.00676232 -0.00583271
v -0.00621011 -0.00714967 -0.00601298
v -0.00476258 -0.00705471 -0.00626427
v 0.00476258 -0.00705471 -0.00625881
v 0.00620798 -0.00714967 -0.00601298
v 0.00723127 -0.00675982 -0.00583271
v 0.00670684 -0.00766198 -0.00490402
v 0.00677079 -0.00770946 -0.00218353
v 0.00675160 -0.00769946 -0.00354378
v 0.00677292 -0.00771196 -0.00082329
v 0.00674734 -0.00769196 0.00054242
v 0.00669404 -0.00765448 0.00190267
v 0.00661730 -0.00759950 0.00326292
v 0.00492034 -0.00602260 0.03455405
v 0.00415713 -0.00641745 0.03559198
v 0.00405693 -0.00635997 0.03649882
v 0.00393115 -0.00630499 0.03728000
v 0.00299953 -0.00648992 0.03818137
v 0.00204019 -0.00661737 0.03841081
v 0.00068006 -0.00670734 0.03855831
v -0.00068006 -0.00670734 0.03855831
v -0.00204019 -0.00660738 0.03840534
v -0.00300806 -0.00647992 0.03817591
v -0.00394821 -0.00632248 0.03728000
v -0.00407186 -0.00636747 0.03655344
v -0.00415713 -0.00641745 0.03564661
v -0.00492034 -0.00602510 0.03455405
v -0.00745299 -0.00701222 0.00054242
v -0.00741675 -0.00697474 0.00190267
v -0.00747644 -0.00703221 -0.00082329
v -0.00816716 -0.00637496 -0.00265334
v -0.00816716 -0.00637496 -0.00303027
v -0.00816076 -0.00636997 -0.00393710
v -0.00761714 -0.00688977 -0.00350554
v -0.00736771 -0.00691976 0.00326292
v -0.00577734 -0.00528288 0.03591976
v -0.00645741 -0.00469061 0.03591976
v -0.00814371 -0.00634997 -0.00490402
v -0.00746151 -0.00698223 -0.00490402
v -0.00846136 -0.00544032 -0.00583271
v -0.00760435 -0.00581268 -0.00603483
v -0.00748283 -0.00433074 -0.00632982
v 0.00748283 -0.00433074 -0.00632982
v 0.00760435 -0.00581268 -0.00603483
v 0.00846136 -0.00544032 -0.00583271
v 0.00814158 -0.00634997 -0.00490402
v 0.00746151 -0.00697973 -0.00490402
v 0.00761714 -0.00688977 -0.00350007
v 0.00816716 -0.00637496 -0.00301935
v 0.00816076 -0.00636747 -0.00392618
v 0.00816716 -0.00637496 -0.00265334
v 0.00747644 -0.00703221 -0.00082329
v 0.00745299 -0.00701222 0.00054242
v 0.00741675 -0.00697474 0.00190267
v 0.00736771 -0.00691976 0.00326292
v 0.00644675 -0.00469061 0.03591976
v 0.00584130 -0.00534286 0.03455405
v 0.00576668 -0.00527288 0.03591976
v 0.00568567 -0.00520291 0.03728000
v 0.00467091 -0.00603009 0.03599623
v 0.00476258 -0.00581518 0.03728000
v 0.00557908 -0.00511794 0.03833979
v 0.00540000 -0.00499299 0.03924662
v 0.00487130 -0.00541283 0.03873312
v 0.00449183 -0.00520041 0.03962356
v 0.00336621 -0.00535035 0.04004420
v 0.00204019 -0.00624252 0.03909366
v 0.00068006 -0.00632748 0.03924116
v -0.00068006 -0.00632748 0.03924116
v -0.00204019 -0.00624751 0.03908820
v -0.00337260 -0.00535785 0.04004966
v -0.00343656 -0.00610257 0.03863478
v -0.00486278 -0.00542782 0.03872219
v -0.00558761 -0.00512544 0.03832340
v -0.00476258 -0.00584267 0.03728000
v -0.00467091 -0.00604259 0.03602901
v -0.00570060 -0.00521541 0.03728000
v -0.00813518 -0.00633498 0.00054242
v -0.00815650 -0.00636247 -0.00082329
v -0.00809894 -0.00629000 0.00190267
v -0.00816076 -0.00636997 -0.00174651
v -0.00854024 -0.00582767 -0.00219446
v -0.00854237 -0.00582517 -0.00350554
v -0.00861911 -0.00567023 -0.00490402
v -0.00804778 -0.00623002 0.00326292
v -0.00707565 -0.00394839 0.03728000
v -0.00638066 -0.00462813 0.03728000
v -0.00888773 -0.00428826 -0.00594196
v -0.00959764 -0.00380594 -0.00568521
v -0.00884509 -0.00297126 -0.00620964
v -0.00748283 -0.00297126 -0.00632982
v 0.00748283 -0.00297126 -0.00633529
v 0.00884509 -0.00297126 -0.00621510
v 0.00888773 -0.00429076 -0.00594196
v 0.00959977 -0.00380844 -0.00568521
v 0.00861911 -0.00567023 -0.00490402
v 0.00854024 -0.00582767 -0.00219446
v 0.00854024 -0.00582517 -0.00350007
v 0.00815650 -0.00636247 -0.00082329
v 0.00816076 -0.00636997 -0.00174651
v 0.00813518 -0.00633498 0.00054242
v 0.00809894 -0.00629000 0.00190267
v 0.00804778 -0.00623002 0.00326292
v 0.00707778 -0.00395089 0.03728000
v 0.00652350 -0.00474808 0.03455405
v 0.00636574 -0.00463063 0.03728000
v 0.00700743 -0.00386592 0.03864025
v 0.00691149 -0.00375846 0.03949791
v 0.00612057 -0.00406334 0.03997318
v 0.00566436 -0.00379844 0.04090186
v 0.00472634 -0.00400587 0.04136074
v 0.00487130 -0.00476058 0.04004420
v 0.00425093 -0.00373597 0.04213646
v 0.00379898 -0.00492052 0.04053039
v 0.00289080 -0.00506546 0.04077075
v 0.00204019 -0.00571022 0.04000049
v 0.00068006 -0.00525289 0.04109306
v -0.00068006 -0.00525289 0.04109306
v -0.00204019 -0.00571771 0.04000049
v -0.00290146 -0.00507046 0.04077622
v -0.00380964 -0.00492302 0.04053585
v -0.00447691 -0.00520291 0.03962902
v -0.00538295 -0.00498299 0.03923023
v -0.00700743 -0.00386342 0.03864025
v -0.00690936 -0.00375846 0.03950337
v -0.00859993 -0.00565524 0.00054242
v -0.00857221 -0.00561025 0.00190267
v -0.00862125 -0.00568273 -0.00082329
v -0.00853384 -0.00554778 0.00326292
v -0.00931410 -0.00458564 -0.00218353
v -0.00931623 -0.00459314 -0.00354378
v -0.00930131 -0.00457315 -0.00490402
v -0.00768749 -0.00307122 0.03864025
v -0.00823325 -0.00239148 0.03864025
v -0.00975753 -0.00297126 -0.00583817
v -0.00963815 -0.00389341 -0.00490402
v -0.00999417 -0.00297126 -0.00490402
v -0.00884509 -0.00160928 -0.00618779
v -0.00748283 0.01063606 -0.00618233
v -0.00980656 -0.00160928 -0.00587095
v -0.00476258 0.01335753 -0.00621510
v 0.00476258 0.01335753 -0.00621510
v 0.00748283 0.01063606 -0.00618233
v 0.00884509 0.00927408 -0.00597474
v 0.00980443 -0.00160928 -0.00587095
v 0.00975966 -0.00297126 -0.00583817
v 0.00999417 -0.00297126 -0.00490402
v 0.00963815 -0.00389341 -0.00490402
v 0.00929918 -0.00457315 -0.00490402
v 0.00931410 -0.00459064 -0.00354378
v 0.00931410 -0.00458564 -0.00218353
v 0.00862125 -0.00568273 -0.00082329
v 0.00859993 -0.00565524 0.00054242
v 0.00857221 -0.00561025 0.00190267
v 0.00853384 -0.00554778 0.00326292
v 0.00823325 -0.00239148 0.03864025
v 0.00768962 -0.00307122 0.03864025
v 0.00820340 -0.00234400 0.03945421
v 0.00803072 -0.00214657 0.04036104
v 0.00712468 -0.00257641 0.04106575
v 0.00657040 -0.00348356 0.04040474
v 0.00619519 -0.00302374 0.04143722
v 0.00515697 -0.00347357 0.04180869
v 0.00581998 -0.00256641 0.04223479
v 0.00204019 0.00061987 0.04732616
v 0.00340032 -0.00389341 0.04228396
v 0.00336621 -0.00460564 0.04127880
v 0.00204019 -0.00475558 0.04161203
v 0.00204019 -0.00516043 0.04093464
v 0.00068006 -0.00484305 0.04177592
v -0.00068006 -0.00484305 0.04177592
v -0.00204019 -0.00516293 0.04094010
v -0.00204019 -0.00475558 0.04161749
v -0.00337260 -0.00460814 0.04128426
v -0.00425093 -0.00373597 0.04213646
v -0.00472634 -0.00400587 0.04136074
v -0.00486278 -0.00475558 0.04004966
v -0.00566862 -0.00379595 0.04090186
v -0.00612271 -0.00405585 0.03997318
v -0.00820340 -0.00234400 0.03945421
v -0.00657679 -0.00348606 0.04041021
v -0.00712255 -0.00257891 0.04106575
v -0.00802859 -0.00214657 0.04036104
v -0.00927999 -0.00451567 0.00054242
v -0.00930131 -0.00455815 -0.00082329
v -0.00925228 -0.00446069 0.00190267
v -0.00921604 -0.00439072 0.00326292
v -0.00963815 -0.00390590 -0.00218353
v -0.00964454 -0.00391090 -0.00354378
v -0.00863617 -0.00160928 0.03864025
v -0.01011995 -0.00160928 -0.00490402
v -0.00998990 -0.00297126 -0.00354378
v -0.01032674 -0.00160928 -0.00082329
v -0.01032887 -0.00160928 -0.00218353
v -0.01061667 -0.00024979 -0.00082329
v -0.01076590 0.00111219 -0.00082329
v -0.00884509 0.00927408 -0.00597474
v -0.00887281 0.01056609 -0.00588734
v -0.00758516 0.01209301 -0.00600206
v -0.00992168 0.00791710 -0.00498050
v -0.00963175 0.00927408 -0.00569067
v -0.00068006 0.01471701 -0.00616594
v -0.00618666 0.01344000 -0.00598567
v -0.00476258 0.01447210 -0.00590919
v -0.00204019 0.01471701 -0.00612770
v 0.00068006 0.01471701 -0.00616594
v 0.00204019 0.01471701 -0.00613316
v 0.00476258 0.01447460 -0.00590919
v 0.00618240 0.01343500 -0.00598567
v 0.00758516 0.01209301 -0.00600206
v 0.00887281 0.01056859 -0.00588734
v 0.00963388 0.00927408 -0.00569067
v 0.00992381 0.00791960 -0.00498050
v 0.01011781 -0.00160928 -0.00490402
v 0.00998777 -0.00297126 -0.00354378
v 0.00963815 -0.00390590 -0.00218353
v 0.00964241 -0.00391090 -0.00354378
v 0.01076803 0.00111219 -0.00082329
v 0.01062093 -0.00024979 -0.00082329
v 0.01032887 -0.00160928 -0.00218353
v 0.01032674 -0.00160928 -0.00082329
v 0.00930131 -0.00455815 -0.00082329
v 0.00927999 -0.00451567 0.00054242
v 0.00925228 -0.00446069 0.00190267
v 0.00921604 -0.00439072 0.00326292
v 0.00863617 -0.00160928 0.03864025
v 0.00846989 -0.00165926 0.03994587
v 0.00836756 -0.00123942 0.04090732
v 0.00289080 0.00155702 0.04764846
v 0.00204019 0.00129962 0.04783420
v 0.00109578 0.00046493 0.04745727
v 0.00204019 -0.00004237 0.04664877
v 0.00204019 -0.00407584 0.04241507
v 0.00018974 0.00040995 0.04750643
v -0.00204019 -0.00407334 0.04241507
v -0.00018974 0.00040995 0.04750643
v -0.00109578 0.00046493 0.04745727
v -0.00340032 -0.00389341 0.04228396
v -0.00582211 -0.00256641 0.04223479
v -0.00515697 -0.00347357 0.04180869
v -0.00204019 0.00061987 0.04732616
v -0.00619945 -0.00302624 0.04143722
v -0.00846989 -0.00165926 0.03994587
v -0.00836756 -0.00123942 0.04090732
v -0.00960617 -0.00383593 0.00054242
v -0.00958272 -0.00378095 0.00190267
v -0.00962535 -0.00387592 -0.00082329
v -0.00955074 -0.00371098 0.00326292
v -0.00953155 -0.00366350 0.00404410
v -0.00954648 0.00036747 0.03529153
v -0.00932689 -0.00035975 0.03455405
v -0.01039282 0.00655262 -0.00354378
v -0.01037150 0.00791460 -0.00354378
v -0.01088528 0.00323138 -0.00148429
v -0.01088742 0.00413854 -0.00150614
v -0.01088742 0.00451589 -0.00150614
v -0.00996432 -0.00297126 -0.00218353
v -0.00993234 -0.00297126 -0.00082329
v -0.00989397 -0.00297126 0.00054242
v -0.01028623 -0.00160928 0.00054242
v -0.01074245 0.00111219 0.00054242
v -0.00974261 0.00111219 0.03455405
v -0.00996432 0.00247167 0.03455405
v -0.01085117 0.00256663 0.00044409
v -0.01088955 0.00308394 -0.00007488
v -0.01085757 0.00256663 -0.00094893
v -0.00957419 0.01006878 -0.00564151
v -0.00844004 0.01170316 -0.00579447
v -0.00719930 0.01304015 -0.00582178
v -0.00988118 0.00927408 -0.00490402
v -0.00068006 0.01563166 -0.00583817
v -0.00577734 0.01423469 -0.00576715
v -0.00342590 0.01481197 -0.00593650
v -0.00299100 0.01547422 -0.00567428
v -0.00204019 0.01556669 -0.00577262
v 0.00068006 0.01562666 -0.00583271
v 0.00343656 0.01481197 -0.00594196
v 0.00204019 0.01556919 -0.00577808
v 0.00300592 0.01547922 -0.00568521
v 0.00576882 0.01423469 -0.00576715
v 0.00719930 0.01303515 -0.00582178
v 0.00843791 0.01170316 -0.00579447
v 0.00957419 0.01007128 -0.00564151
v 0.00988544 0.00927408 -0.00490402
v 0.01037150 0.00791460 -0.00354378
v 0.01039069 0.00655262 -0.00354378
v 0.01088742 0.00451589 -0.00150614
v 0.01088742 0.00383115 -0.00150068
v 0.01088528 0.00315141 -0.00150068
v 0.00996432 -0.00297126 -0.00218353
v 0.00962535 -0.00387592 -0.00082329
v 0.01084904 0.00242169 -0.00082329
v 0.01088955 0.00308394 -0.00007488
v 0.01085117 0.00256663 0.00044409
v 0.01074671 0.00111219 0.00054242
v 0.01024146 -0.00160928 0.00190267
v 0.01028623 -0.00160928 0.00054242
v 0.00996645 0.00247167 0.03455405
v 0.00974047 0.00111219 0.03455405
v 0.00993234 -0.00297126 -0.00082329
v 0.00989397 -0.00297126 0.00054242
v 0.00960617 -0.00383593 0.00054242
v 0.00958272 -0.00378095 0.00190267
v 0.00955074 -0.00371098 0.00326292
v 0.00953155 -0.00366350 0.00404410
v 0.00932689 -0.00035226 0.03455405
v 0.00954434 0.00037247 0.03528607
v 0.01000483 0.00519063 0.03864025
v 0.00287375 0.00519063 0.04895408
v 0.00280340 0.00429847 0.04889945
v 0.00304217 0.00247167 0.04788337
v 0.00974474 0.00519063 0.03957986
v 0.00248575 0.00339132 0.04875742
v 0.00203593 0.00252915 0.04852798
v 0.00065661 0.00099473 0.04787790
v 0.00157758 0.00301896 0.04890492
v 0.00068006 0.00221177 0.04864270
v -0.00065661 0.00099473 0.04787790
v -0.00204019 0.00129962 0.04783420
v -0.00204019 -0.00004487 0.04664877
v -0.00289080 0.00155702 0.04764846
v -0.00978737 0.00519813 0.03867302
v -0.01002828 0.00519063 0.03728000
v -0.00304430 0.00247167 0.04788337
v -0.00280340 0.00429598 0.04889945
v -0.00287375 0.00519063 0.04895408
v -0.00963175 0.00565546 0.03942143
v -0.00984707 -0.00297126 0.00190267
v -0.01023933 -0.00160928 0.00190267
v -0.01019030 -0.00160928 0.00326292
v -0.00995792 0.00927408 -0.00354378
v -0.00962109 0.01016124 -0.00490402
v -0.01064438 0.00655262 -0.00218353
v -0.00966160 0.00769218 0.03728000
v -0.01088955 0.00308394 -0.00057746
v -0.01088955 0.00320389 -0.00007488
v -0.01088742 0.00451589 -0.00148975
v -0.01006239 0.00383115 0.03455405
v -0.00927360 0.01084098 -0.00490402
v -0.00859353 0.01190058 -0.00490402
v -0.00808189 0.01258282 -0.00490402
v -0.00739969 0.01322008 -0.00490402
v -0.00661517 0.01390232 -0.00490402
v -0.00068006 0.01586407 -0.00490402
v -0.00593510 0.01433715 -0.00490402
v -0.00476258 0.01492193 -0.00490402
v -0.00379685 0.01530429 -0.00490402
v -0.00311678 0.01550671 -0.00490402
v -0.00204019 0.01572413 -0.00490402
v 0.00068006 0.01585658 -0.00490402
v 0.00204019 0.01572413 -0.00490402
v 0.00312744 0.01551171 -0.00490402
v 0.00380750 0.01530429 -0.00490402
v 0.00476258 0.01492193 -0.00490402
v 0.00593297 0.01433465 -0.00490402
v 0.00661303 0.01389982 -0.00490402
v 0.00740609 0.01322008 -0.00490402
v 0.00808615 0.01258782 -0.00490402
v 0.00859566 0.01190558 -0.00490402
v 0.00927573 0.01084848 -0.00490402
v 0.00962322 0.01016624 -0.00490402
v 0.01064438 0.00655262 -0.00218353
v 0.00996006 0.00927408 -0.00354378
v 0.00965733 0.00767969 0.03728000
v 0.01088742 0.00451589 -0.00148975
v 0.01088955 0.00320139 -0.00007488
v 0.01088742 0.00309893 -0.00082329
v 0.01004320 0.00519063 0.03728000
v 0.01006665 0.00383115 0.03455405
v 0.01019030 -0.00160928 0.00326292
v 0.00984707 -0.00297126 0.00190267
v 0.00955927 0.00032749 0.03455405
v 0.00986412 0.00655262 0.03864025
v 0.00967652 0.00655262 0.03951976
v 0.00286522 0.00655262 0.04894862
v 0.00204019 0.00519063 0.04923815
v 0.00203593 0.00383865 0.04901964
v 0.00068006 0.00383115 0.04924361
v 0.00068006 0.00289401 0.04895955
v -0.00068006 0.00221177 0.04864270
v -0.00158184 0.00301896 0.04890492
v -0.00203806 0.00252915 0.04852798
v -0.00248788 0.00338882 0.04876288
v -0.00980869 0.00655262 0.03864025
v -0.00988970 0.00655262 0.03728000
v -0.00203806 0.00383615 0.04901964
v -0.00204019 0.00519063 0.04923815
v -0.00286522 0.00655262 0.04894862
v -0.00962535 0.00655262 0.03942143
v -0.00960830 0.01012126 -0.00354378
v -0.00946973 0.00839691 0.03591976
v -0.00910092 0.00927408 0.03591976
v -0.00961469 0.00748226 0.03864025
v -0.00942922 0.00837192 0.03728000
v -0.00847628 0.01040365 0.03591976
v -0.00801793 0.01111838 0.03455405
v -0.00733787 0.01181811 0.03455405
v -0.00056281 0.01396480 0.04126787
v -0.00003198 0.01403977 0.04074890
v 0.00003411 0.01403977 0.04074890
v -0.00542559 0.01402977 0.00778615
v -0.00488836 0.01428717 0.00733819
v -0.00340032 0.01322758 0.04136074
v -0.00204019 0.01370240 0.04136074
v 0.00056494 0.01396480 0.04126787
v 0.00204019 0.01370240 0.04136074
v 0.00488836 0.01428717 0.00733819
v 0.00340032 0.01322508 0.04136074
v 0.00542559 0.01402977 0.00778615
v 0.00735279 0.01181811 0.03455405
v 0.00803285 0.01114087 0.03455405
v 0.00848268 0.01046113 0.03455405
v 0.00847415 0.01041365 0.03591976
v 0.00909026 0.00927408 0.03591976
v 0.00989184 0.00655262 0.03728000
v 0.00946120 0.00836693 0.03591976
v 0.00942709 0.00835943 0.03728000
v 0.00962109 0.00748726 0.03864025
v 0.00956140 0.00728734 0.03936680
v 0.00690510 0.01011126 0.04220202
v 0.00279061 0.00740229 0.04889399
v 0.00204019 0.00655262 0.04922176
v 0.00068006 0.00519063 0.04947305
v -0.00068006 0.00383115 0.04924361
v -0.00068006 0.00289401 0.04895955
v -0.00955287 0.00727484 0.03935042
v -0.00068006 0.00519063 0.04947305
v -0.00204019 0.00655262 0.04922176
v -0.00279061 0.00739979 0.04889399
v -0.00836969 0.01023371 0.03691945
v -0.00790281 0.01108339 0.03591976
v -0.00722275 0.01167067 0.03591976
v -0.00420829 0.01275276 0.04215831
v -0.00428291 0.01280274 0.04136074
v -0.00068006 0.01380236 0.04272099
v 0.00068006 0.01380236 0.04272099
v -0.00339819 0.01300516 0.04265543
v -0.00204019 0.01355995 0.04272099
v 0.00204019 0.01355995 0.04272099
v 0.00339819 0.01300516 0.04265543
v 0.00420616 0.01275026 0.04215831
v 0.00427865 0.01280274 0.04136074
v 0.00722914 0.01167067 0.03591976
v 0.00790921 0.01109339 0.03591976
v 0.00836756 0.01023122 0.03691945
v 0.00566222 0.01153322 0.04232766
v 0.00290146 0.01150823 0.04634285
v 0.00287375 0.01014875 0.04762661
v 0.00302937 0.00927408 0.04785059
v 0.00242819 0.00830945 0.04874103
v 0.00200182 0.00787961 0.04899778
v 0.00068006 0.00655262 0.04945666
v -0.00690510 0.01011126 0.04220202
v -0.00068006 0.00655262 0.04945666
v -0.00199755 0.00787711 0.04899778
v -0.00242393 0.00830695 0.04874103
v -0.00287375 0.01014875 0.04762661
v -0.00302937 0.00927408 0.04785059
v -0.00566222 0.01153322 0.04232766
v -0.00496510 0.01232292 0.04136074
v -0.00276929 0.01271277 0.04482964
v -0.00292491 0.01285522 0.04408123
v -0.00068006 0.01344999 0.04408123
v 0.00068006 0.01344999 0.04408123
v -0.00204019 0.01320758 0.04408123
v 0.00204019 0.01320758 0.04408123
v 0.00292491 0.01285522 0.04408123
v 0.00495871 0.01231792 0.04136074
v 0.00276929 0.01271277 0.04482964
v 0.00204019 0.01240039 0.04570916
v 0.00204019 0.01171815 0.04657229
v 0.00204019 0.01106090 0.04725514
v 0.00204019 0.01037866 0.04779050
v 0.00200182 0.00919661 0.04848428
v 0.00152002 0.00868930 0.04888853
v 0.00068006 0.00791460 0.04921084
v -0.00289294 0.01150073 0.04633738
v -0.00068006 0.00791460 0.04921084
v -0.00151575 0.00868930 0.04888853
v -0.00199755 0.00919661 0.04848428
v -0.00204019 0.01037866 0.04779050
v -0.00204019 0.01106090 0.04724968
v -0.00204019 0.01239289 0.04570916
v -0.00204019 0.01282023 0.04502630
v -0.00068006 0.01294518 0.04525028
v 0.00068006 0.01294518 0.04525028
v 0.00204019 0.01282023 0.04502630
v 0.00068006 0.01255283 0.04593313
v 0.00068006 0.01187309 0.04673617
v 0.00068006 0.01124083 0.04741902
v 0.00068006 0.01056109 0.04792161
v 0.00068006 0.00947650 0.04860446
v 0.00068006 0.00879676 0.04893769
v -0.00204019 0.01171315 0.04656682
v -0.00068006 0.00879676 0.04893769
v -0.00068006 0.00947650 0.04860446
v -0.00068006 0.01056109 0.04792161
v -0.00068006 0.01124083 0.04741902
v -0.00068006 0.01255283 0.04593313
v -0.00068006 0.01187309 0.04673617
f 1 2 3
f 1 3 4
f 1 4 5
f 1 5 6
f 1 6 2
f 2 7 3
f 2 6 8
f 2 8 7
f 3 7 9
f 3 9 25
f 3 25 10
f 3 10 12
f 3 12 4
f 4 11 5
f 4 12 27
f 4 27 11
f 5 11 13
f 5 13 14
f 5 14 15
f 5 15 6
f 6 15 16
f 6 16 17
f 6 17 18
f 6 18 8
f 7 19 20
f 7 20 9
f 7 8 21
f 7 21 22
f 7 22 19
f 8 18 23
f 8 23 21
f 9 20 24
f 9 24 25
f 10 25 26
f 10 26 29
f 10 29 12
f 11 27 28
f 11 28 13
f 12 29 27
f 13 30 31
f 13 31 14
f 13 28 30
f 14 31 32
f 14 32 33
f 14 33 15
f 15 33 16
f 16 34 35
f 16 35 36
f 16 36 17
f 16 33 34
f 17 36 37
f 17 37 38
f 17 38 18
f 18 38 39
f 18 39 23
f 19 40 42
f 19 42 20
f 19 22 41
f 19 41 40
f 20 42 24
f 21 23 43
f 21 43 22
f 22 43 44
f 22 44 41
f 23 39 45
f 23 45 43
f 24 46 47
f 24 47 48
f 24 48 25
f 24 42 46
f 25 48 47
f 25 47 26
f 26 47 49
f 26 49 50
f 26 50 54
f 26 54 29
f 27 51 28
f 27 29 52
f 27 52 51
f 28 51 52
f 28 52 53
f 28 53 30
f 29 54 55
f 29 55 52
f 30 56 31
f 30 53 57
f 30 57 56
f 31 58 32
f 31 56 59
f 31 59 58
f 32 58 60
f 32 60 61
f 32 61 33
f 33 61 34
f 34 61 35
f 35 61 62
f 35 62 63
f 35 63 36
f 36 63 64
f 36 64 37
f 37 64 65
f 37 65 66
f 37 66 38
f 38 66 67
f 38 67 39
f 39 67 68
f 39 68 45
f 40 41 69
f 40 69 70
f 40 70 71
f 40 71 42
f 41 44 72
f 41 72 69
f 42 71 73
f 42 73 46
f 43 45 44
f 44 45 74
f 44 74 75
f 44 75 72
f 45 68 74
f 46 73 76
f 46 76 77
f 46 77 78
f 46 78 47
f 47 78 79
f 47 79 80
f 47 80 81
f 47 81 82
f 47 82 83
f 47 83 84
f 47 84 49
f 49 84 50
f 50 85 82
f 50 82 54
f 50 84 83
f 50 83 85
f 52 55 86
f 52 86 87
f 52 87 88
f 52 88 89
f 52 89 90
f 52 90 91
f 52 91 92
f 52 92 53
f 53 93 57
f 53 92 94
f 53 94 93
f 54 87 86
f 54 86 55
f 54 82 88
f 54 88 95
f 54 95 87
f 56 96 97
f 56 97 59
f 56 57 98
f 56 98 96
f 57 93 99
f 57 99 98
f 58 59 100
f 58 100 101
f 58 101 60
f 59 97 100
f 60 101 102
f 60 102 103
f 60 103 61
f 61 103 62
f 62 103 63
f 63 104 105
f 63 105 64
f 63 103 104
f 64 105 106
f 64 106 65
f 65 106 107
f 65 107 66
f 66 107 108
f 66 108 109
f 66 109 67
f 67 109 110
f 67 110 68
f 68 110 111
f 68 111 75
f 68 75 74
f 69 112 70
f 69 72 113
f 69 113 112
f 70 114 71
f 70 112 114
f 71 114 115
f 71 115 116
f 71 116 73
f 72 75 117
f 72 117 113
f 73 116 118
f 73 118 76
f 75 111 117
f 76 118 119
f 76 119 120
f 76 120 77
f 77 120 78
f 78 120 121
f 78 121 80
f 78 80 79
f 80 121 81
f 81 121 122
f 81 122 123
f 81 123 124
f 81 124 82
f 82 124 125
f 82 125 126
f 82 126 88
f 82 85 83
f 87 95 88
f 88 126 127
f 88 127 89
f 89 127 128
f 89 128 129
f 89 129 130
f 89 130 90
f 90 130 92
f 90 92 91
f 92 130 131
f 92 131 94
f 93 94 131
f 93 131 132
f 93 132 99
f 96 133 134
f 96 134 97
f 96 98 133
f 97 134 135
f 97 135 100
f 98 99 136
f 98 136 133
f 99 137 136
f 99 132 137
f 100 135 138
f 100 138 101
f 101 138 102
f 102 139 104
f 102 104 103
f 102 138 139
f 104 140 141
f 104 141 105
f 104 139 140
f 105 141 142
f 105 142 106
f 106 142 107
f 107 142 143
f 107 143 108
f 108 143 109
f 109 143 110
f 110 143 144
f 110 144 111
f 111 144 145
f 111 145 146
f 111 146 117
f 112 147 114
f 112 113 148
f 112 148 147
f 113 117 148
f 114 147 149
f 114 149 115
f 115 149 150
f 115 150 116
f 116 151 118
f 116 150 151
f 117 146 148
f 118 151 152
f 118 152 119
f 119 153 154
f 119 154 121
f 119 121 120
f 119 152 153
f 121 154 122
f 122 154 155
f 122 155 123
f 123 156 157
f 123 157 124
f 123 155 156
f 124 157 158
f 124 158 125
f 125 158 159
f 125 159 160
f 125 160 126
f 126 160 161
f 126 161 127
f 127 161 162
f 127 162 128
f 128 163 129
f 128 162 163
f 129 164 165
f 129 165 130
f 129 163 164
f 130 165 132
f 130 132 131
f 132 165 166
f 132 166 137
f 133 167 134
f 133 136 168
f 133 168 167
f 134 169 170
f 134 170 171
f 134 171 135
f 134 167 169
f 135 171 172
f 135 172 173
f 135 173 138
f 136 137 174
f 136 174 168
f 137 166 175
f 137 175 176
f 137 176 174
f 138 172 177
f 138 177 178
f 138 178 139
f 138 173 172
f 139 178 140
f 140 179 180
f 140 180 141
f 140 178 177
f 140 177 179
f 141 180 181
f 141 181 142
f 142 181 182
f 142 182 143
f 143 182 144
f 144 182 183
f 144 183 145
f 145 183 184
f 145 184 185
f 145 185 186
f 145 186 146
f 146 186 148
f 147 148 187
f 147 187 188
f 147 188 149
f 148 186 185
f 148 185 189
f 148 189 187
f 149 188 190
f 149 190 191
f 149 191 192
f 149 192 150
f 150 192 193
f 150 193 151
f 151 193 194
f 151 194 152
f 152 194 195
f 152 195 196
f 152 196 153
f 153 196 197
f 153 197 198
f 153 198 199
f 153 199 154
f 154 199 200
f 154 200 155
f 155 200 156
f 156 200 201
f 156 201 202
f 156 202 203
f 156 203 157
f 157 203 202
f 157 202 204
f 157 204 205
f 157 205 206
f 157 206 158
f 158 206 159
f 159 206 207
f 159 207 208
f 159 208 160
f 160 208 209
f 160 209 161
f 161 209 162
f 162 209 210
f 162 210 211
f 162 211 212
f 162 212 163
f 163 213 214
f 163 214 164
f 163 212 213
f 164 214 165
f 165 214 215
f 165 215 166
f 166 215 216
f 166 216 175
f 167 217 218
f 167 218 169
f 167 168 217
f 168 174 219
f 168 219 217
f 169 218 220
f 169 220 170
f 170 220 218
f 170 218 221
f 170 221 222
f 170 222 171
f 171 222 172
f 172 222 223
f 172 223 177
f 174 224 219
f 174 176 225
f 174 225 224
f 175 216 226
f 175 226 176
f 176 226 225
f 177 223 179
f 179 227 180
f 179 223 228
f 179 228 227
f 180 229 181
f 180 227 229
f 181 229 230
f 181 230 231
f 181 231 182
f 182 231 232
f 182 232 183
f 183 232 233
f 183 233 184
f 184 233 234
f 184 234 235
f 184 235 185
f 185 235 189
f 187 189 188
f 188 236 190
f 188 189 237
f 188 237 236
f 189 235 237
f 190 236 238
f 190 238 239
f 190 239 191
f 191 239 238
f 191 238 192
f 192 238 240
f 192 240 193
f 193 241 194
f 193 240 241
f 194 241 242
f 194 242 243
f 194 243 244
f 194 244 195
f 195 244 243
f 195 243 245
f 195 245 196
f 196 245 197
f 197 245 198
f 198 200 199
f 198 245 201
f 198 201 200
f 201 245 246
f 201 246 247
f 201 247 202
f 202 247 248
f 202 248 249
f 202 249 250
f 202 250 251
f 202 251 204
f 204 251 250
f 204 250 252
f 204 252 253
f 204 253 205
f 205 253 254
f 205 254 206
f 206 255 256
f 206 256 207
f 206 254 255
f 207 256 257
f 207 257 208
f 208 257 209
f 209 257 258
f 209 258 259
f 209 259 210
f 210 259 260
f 210 260 261
f 210 261 211
f 211 261 262
f 211 262 212
f 212 262 213
f 213 263 216
f 213 216 214
f 213 262 264
f 213 264 263
f 214 216 215
f 216 263 226
f 217 265 267
f 217 267 218
f 217 219 266
f 217 266 265
f 218 267 221
f 219 224 268
f 219 268 266
f 221 267 269
f 221 269 270
f 221 270 222
f 222 270 223
f 223 271 228
f 223 270 271
f 224 225 272
f 224 272 273
f 224 273 268
f 225 226 263
f 225 263 272
f 227 228 274
f 227 274 229
f 228 271 275
f 228 275 276
f 228 276 274
f 229 277 278
f 229 278 230
f 229 274 279
f 229 279 277
f 230 278 280
f 230 280 231
f 231 280 281
f 231 281 282
f 231 282 232
f 232 282 283
f 232 283 284
f 232 284 285
f 232 285 233
f 233 285 234
f 234 285 286
f 234 286 287
f 234 287 288
f 234 288 235
f 235 288 289
f 235 289 237
f 236 237 289
f 236 289 290
f 236 290 291
f 236 291 238
f 238 291 292
f 238 292 240
f 240 292 293
f 240 293 241
f 241 293 294
f 241 294 242
f 242 294 295
f 242 295 296
f 242 296 243
f 243 296 246
f 243 246 245
f 246 296 297
f 246 297 247
f 247 297 298
f 247 298 299
f 247 299 300
f 247 300 248
f 248 300 249
f 249 300 301
f 249 301 302
f 249 302 250
f 250 302 252
f 252 302 303
f 252 303 304
f 252 304 305
f 252 305 306
f 252 306 253
f 253 306 254
f 254 306 307
f 254 307 308
f 254 308 255
f 255 308 256
f 256 308 307
f 256 307 309
f 256 309 310
f 256 310 257
f 257 310 311
f 257 311 258
f 258 311 259
f 259 311 312
f 259 312 313
f 259 313 260
f 260 313 314
f 260 314 261
f 261 314 315
f 261 315 316
f 261 316 262
f 262 316 317
f 262 317 318
f 262 318 264
f 263 264 319
f 263 319 272
f 264 318 320
f 264 320 321
f 264 321 322
f 264 322 319
f 265 323 324
f 265 324 267
f 265 266 323
f 266 268 325
f 266 325 323
f 267 324 269
f 268 326 325
f 268 273 326
f 269 324 327
f 269 327 328
f 269 328 270
f 270 328 275
f 270 275 271
f 272 319 273
f 273 319 329
f 273 329 326
f 274 276 330
f 274 330 279
f 275 328 276
f 276 328 331
f 276 331 332
f 276 332 333
f 276 333 334
f 276 334 335
f 276 335 330
f 277 279 336
f 277 336 278
f 278 336 337
f 278 337 338
f 278 338 280
f 279 330 339
f 279 339 340
f 279 340 336
f 280 341 345
f 280 345 281
f 280 338 342
f 280 342 343
f 280 343 344
f 280 344 341
f 281 345 346
f 281 346 347
f 281 347 348
f 281 348 349
f 281 349 282
f 282 349 350
f 282 350 283
f 283 350 351
f 283 351 284
f 284 351 352
f 284 352 353
f 284 353 285
f 285 353 286
f 286 354 355
f 286 355 356
f 286 356 287
f 286 353 357
f 286 357 358
f 286 358 359
f 286 359 360
f 286 360 354
f 287 356 289
f 287 289 288
f 289 356 290
f 290 355 361
f 290 361 291
f 290 356 355
f 291 361 292
f 292 361 362
f 292 362 293
f 293 363 294
f 293 362 363
f 294 363 364
f 294 364 295
f 295 365 297
f 295 297 296
f 295 364 365
f 297 365 366
f 297 366 298
f 298 367 299
f 298 366 367
f 299 367 303
f 299 303 301
f 299 301 300
f 301 303 302
f 303 367 368
f 303 368 304
f 304 368 369
f 304 369 370
f 304 370 371
f 304 371 305
f 305 372 307
f 305 307 306
f 305 371 370
f 305 370 372
f 307 372 309
f 309 372 370
f 309 370 373
f 309 373 375
f 309 375 310
f 310 374 312
f 310 312 311
f 310 375 376
f 310 376 374
f 312 374 377
f 312 377 313
f 313 377 314
f 314 378 379
f 314 379 315
f 314 377 380
f 314 380 378
f 315 379 317
f 315 317 316
f 317 320 318
f 317 379 381
f 317 381 320
f 319 382 329
f 319 322 382
f 320 381 321
f 321 383 322
f 321 381 378
f 321 378 383
f 322 383 382
f 323 384 324
f 323 325 385
f 323 385 384
f 324 386 327
f 324 384 386
f 325 326 387
f 325 387 385
f 326 388 387
f 326 329 388
f 327 386 331
f 327 331 328
f 329 382 389
f 329 389 390
f 329 390 388
f 330 391 392
f 330 392 339
f 330 335 393
f 330 393 394
f 330 394 395
f 330 395 391
f 331 386 396
f 331 396 332
f 332 334 333
f 332 396 397
f 332 397 398
f 332 398 399
f 332 399 334
f 334 400 335
f 334 399 401
f 334 401 402
f 334 402 400
f 335 400 403
f 335 403 404
f 335 404 405
f 335 405 393
f 336 340 337
f 337 340 406
f 337 406 407
f 337 407 338
f 338 407 408
f 338 408 342
f 339 392 409
f 339 409 340
f 340 409 406
f 341 344 410
f 341 410 345
f 342 408 411
f 342 411 343
f 343 412 344
f 343 411 413
f 343 413 414
f 343 414 412
f 344 412 414
f 344 414 410
f 345 410 415
f 345 415 346
f 346 416 347
f 346 415 417
f 346 417 416
f 347 416 418
f 347 418 419
f 347 419 348
f 348 419 420
f 348 420 349
f 349 420 421
f 349 421 350
f 350 421 422
f 350 422 351
f 351 422 423
f 351 423 352
f 352 423 424
f 352 424 353
f 353 424 425
f 353 425 426
f 353 426 427
f 353 427 428
f 353 428 357
f 354 360 429
f 354 429 430
f 354 430 355
f 355 430 361
f 357 428 431
f 357 431 432
f 357 432 433
f 357 433 434
f 357 434 358
f 358 435 436
f 358 436 360
f 358 360 359
f 358 434 437
f 358 437 438
f 358 438 435
f 360 439 429
f 360 436 440
f 360 440 439
f 361 430 441
f 361 441 362
f 362 441 442
f 362 442 363
f 363 442 443
f 363 443 364
f 364 443 444
f 364 444 365
f 365 445 446
f 365 446 366
f 365 444 445
f 366 446 447
f 366 447 367
f 367 448 449
f 367 449 450
f 367 450 368
f 367 447 451
f 367 451 448
f 368 450 449
f 368 449 452
f 368 452 453
f 368 453 369
f 369 454 370
f 369 453 455
f 369 455 456
f 369 456 454
f 370 454 373
f 373 454 457
f 373 457 375
f 374 376 377
f 375 457 376
f 376 457 458
f 376 458 380
f 376 380 459
f 376 459 377
f 377 459 380
f 378 381 379
f 378 380 460
f 378 460 383
f 380 458 460
f 382 461 462
f 382 462 389
f 382 383 461
f 383 460 463
f 383 463 464
f 383 464 465
f 383 465 466
f 383 466 461
f 384 398 397
f 384 397 386
f 384 385 398
f 385 387 467
f 385 467 398
f 386 397 396
f 387 388 390
f 387 390 389
f 387 389 467
f 389 462 402
f 389 402 401
f 389 401 399
f 389 399 468
f 389 468 469
f 389 469 467
f 391 395 392
f 392 470 471
f 392 471 409
f 392 395 472
f 392 472 473
f 392 473 470
f 393 405 474
f 393 474 394
f 394 474 395
f 395 474 475
f 395 475 476
f 395 476 472
f 398 467 468
f 398 468 399
f 400 402 403
f 402 462 477
f 402 477 403
f 403 477 404
f 404 475 474
f 404 474 405
f 404 477 462
f 404 462 475
f 406 409 471
f 406 471 478
f 406 478 479
f 406 479 407
f 407 479 480
f 407 480 408
f 408 480 481
f 408 481 482
f 408 482 411
f 410 414 483
f 410 483 415
f 411 482 484
f 411 484 485
f 411 485 413
f 413 485 486
f 413 486 487
f 413 487 488
f 413 488 414
f 414 488 483
f 415 483 489
f 415 489 417
f 416 417 418
f 417 489 490
f 417 490 418
f 418 490 491
f 418 491 492
f 418 492 493
f 418 493 419
f 419 493 494
f 419 494 495
f 419 495 420
f 420 495 496
f 420 496 497
f 420 497 421
f 421 497 498
f 421 498 422
f 422 498 499
f 422 499 500
f 422 500 423
f 423 500 424
f 424 501 426
f 424 426 425
f 424 500 502
f 424 502 503
f 424 503 501
f 426 501 504
f 426 504 505
f 426 505 432
f 426 432 427
f 427 432 506
f 427 506 428
f 428 506 431
f 429 439 430
f 430 439 441
f 431 506 432
f 432 505 507
f 432 507 508
f 432 508 433
f 433 508 434
f 434 508 437
f 435 509 510
f 435 510 440
f 435 440 436
f 435 438 446
f 435 446 511
f 435 511 509
f 437 508 447
f 437 447 446
f 437 446 438
f 439 440 441
f 440 510 442
f 440 442 441
f 442 510 443
f 443 510 446
f 443 446 445
f 443 445 444
f 446 510 511
f 447 508 507
f 447 507 512
f 447 512 513
f 447 513 451
f 448 514 515
f 448 515 449
f 448 451 514
f 449 515 516
f 449 516 452
f 451 513 514
f 452 516 455
f 452 455 453
f 454 456 519
f 454 519 457
f 455 516 517
f 455 517 518
f 455 518 456
f 456 518 564
f 456 564 519
f 457 519 458
f 458 519 520
f 458 520 521
f 458 521 460
f 460 521 522
f 460 522 464
f 460 464 463
f 461 466 523
f 461 523 462
f 462 523 524
f 462 524 476
f 462 476 475
f 464 522 525
f 464 525 526
f 464 526 465
f 465 526 527
f 465 527 528
f 465 528 466
f 466 528 523
f 467 469 468
f 470 529 471
f 470 473 530
f 470 530 529
f 471 529 531
f 471 531 478
f 472 476 524
f 472 524 473
f 473 524 523
f 473 523 532
f 473 532 533
f 473 533 530
f 478 531 534
f 478 534 479
f 479 534 535
f 479 535 480
f 480 535 536
f 480 536 481
f 481 536 482
f 482 536 484
f 483 488 537
f 483 537 538
f 483 538 539
f 483 539 489
f 484 536 540
f 484 540 485
f 485 540 541
f 485 541 486
f 486 541 542
f 486 542 543
f 486 543 487
f 487 543 488
f 488 543 537
f 489 539 490
f 490 539 544
f 490 544 545
f 490 545 491
f 491 545 492
f 492 546 493
f 492 545 547
f 492 547 546
f 493 546 548
f 493 548 494
f 494 548 549
f 494 549 495
f 495 549 496
f 496 549 497
f 497 549 550
f 497 550 498
f 498 550 551
f 498 551 499
f 499 551 552
f 499 552 553
f 499 553 500
f 500 553 502
f 501 503 554
f 501 554 504
f 502 553 555
f 502 555 503
f 503 555 556
f 503 556 557
f 503 557 512
f 503 512 554
f 504 554 507
f 504 507 505
f 507 554 512
f 509 511 510
f 512 557 558
f 512 558 513
f 513 558 559
f 513 559 560
f 513 560 514
f 514 560 561
f 514 561 515
f 515 562 516
f 515 561 591
f 515 591 562
f 516 562 517
f 517 562 566
f 517 566 563
f 517 563 564
f 517 564 518
f 519 564 520
f 520 564 563
f 520 563 525
f 520 525 522
f 520 522 521
f 523 528 565
f 523 565 532
f 525 563 566
f 525 566 526
f 526 566 593
f 526 593 567
f 526 567 527
f 527 567 568
f 527 568 528
f 528 568 565
f 529 530 531
f 530 533 531
f 531 533 534
f 532 565 533
f 533 565 569
f 533 569 534
f 534 569 570
f 534 570 535
f 535 570 536
f 536 570 571
f 536 571 572
f 536 572 573
f 536 573 542
f 536 542 540
f 537 543 574
f 537 574 538
f 538 574 575
f 538 575 539
f 539 575 544
f 540 542 541
f 542 573 572
f 542 572 576
f 542 576 577
f 542 577 543
f 543 577 574
f 544 575 545
f 545 575 578
f 545 578 547
f 546 547 548
f 547 578 579
f 547 579 580
f 547 580 581
f 547 581 549
f 547 549 548
f 549 581 580
f 549 580 582
f 549 582 583
f 549 583 550
f 550 583 552
f 550 552 551
f 552 583 584
f 552 584 556
f 552 556 553
f 553 556 555
f 556 558 557
f 556 584 558
f 558 584 559
f 559 585 586
f 559 586 587
f 559 587 588
f 559 588 560
f 559 584 585
f 560 588 587
f 560 587 589
f 560 589 590
f 560 590 561
f 561 590 591
f 562 591 593
f 562 593 566
f 565 568 592
f 565 592 569
f 567 593 594
f 567 594 568
f 568 594 595
f 568 595 596
f 568 596 597
f 568 597 592
f 569 592 598
f 569 598 570
f 570 598 571
f 571 598 599
f 571 599 572
f 572 599 598
f 572 598 600
f 572 600 601
f 572 601 576
f 574 577 604
f 574 604 602
f 574 602 603
f 574 603 575
f 575 603 605
f 575 605 578
f 576 601 577
f 577 601 604
f 578 605 606
f 578 606 579
f 579 606 580
f 580 607 582
f 580 606 608
f 580 608 585
f 580 585 607
f 582 607 585
f 582 585 583
f 583 585 584
f 585 608 586
f 586 608 609
f 586 609 610
f 586 610 611
f 586 611 587
f 587 611 612
f 587 612 613
f 587 613 589
f 589 613 614
f 589 614 590
f 590 615 591
f 590 614 615
f 591 615 617
f 591 617 593
f 592 597 596
f 592 596 616
f 592 616 598
f 593 617 594
f 594 617 618
f 594 618 595
f 595 618 619
f 595 619 596
f 596 619 620
f 596 620 621
f 596 621 616
f 598 616 600
f 600 616 622
f 600 622 623
f 600 623 604
f 600 604 601
f 602 604 623
f 602 623 624
f 602 624 625
f 602 625 603
f 603 625 626
f 603 626 605
f 605 626 608
f 605 608 606
f 608 626 609
f 609 627 610
f 609 626 627
f 610 628 629
f 610 629 611
f 610 627 628
f 611 629 612
f 612 629 630
f 612 630 631
f 612 631 614
f 612 614 613
f 614 631 632
f 614 632 615
f 615 632 634
f 615 634 617
f 616 621 633
f 616 633 622
f 617 634 618
f 618 635 620
f 618 620 619
f 618 634 635
f 620 636 637
f 620 637 621
f 620 635 636
f 621 637 633
f 622 633 638
f 622 638 623
f 623 638 624
f 624 638 627
f 624 627 625
f 625 627 626
f 627 638 639
f 627 639 628
f 628 639 637
f 628 637 629
f 629 637 636
f 629 636 630
f 630 636 635
f 630 635 631
f 631 635 634
f 631 634 632
f 633 637 639
f 633 639 638

