# https://github.com/mikedh/trimesh

o right_finger1_link2.STL
v -0.00009873 -0.00710000 -0.00189744
v -0.00032216 -0.00720000 -0.00184530
v -0.00032676 -0.00710000 -0.00187169
v -0.00075440 -0.00720000 -0.00171458
v -0.00076519 -0.00710000 -0.00173910
v -0.00114281 -0.00720000 -0.00148422
v -0.00115915 -0.00710000 -0.00150544
v -0.00146479 -0.00720000 -0.00116759
v -0.00148575 -0.00710000 -0.00118429
v -0.00170165 -0.00720000 -0.00078312
v -0.00172599 -0.00710000 -0.00079432
v -0.00183961 -0.00720000 -0.00035313
v -0.00186593 -0.00710000 -0.00035818
v -0.00187067 -0.00720000 0.00009738
v -0.00189743 -0.00710000 0.00009878
v -0.00179300 -0.00720000 0.00054223
v -0.00181865 -0.00710000 0.00054999
v -0.00161114 -0.00720000 0.00095557
v -0.00163418 -0.00710000 0.00096924
v -0.00133563 -0.00720000 0.00131338
v -0.00135474 -0.00710000 0.00133216
v -0.00098251 -0.00720000 0.00159485
v -0.00099656 -0.00710000 0.00161767
v -0.00057229 -0.00720000 0.00178364
v -0.00058047 -0.00710000 0.00180915
v -0.00012880 -0.00720000 0.00186877
v -0.00013065 -0.00710000 0.00189550
v 0.00032217 -0.00720000 0.00184529
v 0.00032677 -0.00710000 0.00187169
v 0.00075441 -0.00720000 0.00171457
v 0.00076520 -0.00710000 0.00173910
v 0.00114282 -0.00720000 0.00148421
v 0.00115916 -0.00710000 0.00150544
v 0.00146480 -0.00720000 0.00116759
v 0.00148575 -0.00710000 0.00118429
v 0.00170166 -0.00720000 0.00078311
v 0.00172600 -0.00710000 0.00079431
v 0.00183962 -0.00720000 0.00035312
v 0.00186594 -0.00710000 0.00035817
v 0.00187068 -0.00720000 -0.00009739
v 0.00189744 -0.00710000 -0.00009878
v 0.00179301 -0.00720000 -0.00054224
v 0.00181866 -0.00710000 -0.00054999
v 0.00161115 -0.00720000 -0.00095558
v 0.00163419 -0.00710000 -0.00096925
v 0.00133564 -0.00720000 -0.00131338
v 0.00135475 -0.00710000 -0.00133217
v 0.00098252 -0.00720000 -0.00159486
v 0.00099657 -0.00710000 -0.00161767
v 0.00057230 -0.00720000 -0.00178365
v 0.00058048 -0.00710000 -0.00180916
v -0.00009734 -0.00720000 -0.00187068
v -0.00030957 -0.00727321 -0.00177318
v -0.00072492 -0.00727321 -0.00164757
v -0.00109814 -0.00727321 -0.00142621
v -0.00140755 -0.00727321 -0.00112196
v -0.00163515 -0.00727321 -0.00075251
v -0.00176772 -0.00727320 -0.00033933
v -0.00179756 -0.00727321 0.00009358
v -0.00172293 -0.00727321 0.00052104
v -0.00154817 -0.00727321 0.00091823
v -0.00128344 -0.00727321 0.00126205
v -0.00094411 -0.00727320 0.00153252
v -0.00054992 -0.00727321 0.00171393
v -0.00012377 -0.00727321 0.00179574
v 0.00030958 -0.00727321 0.00177318
v 0.00072493 -0.00727321 0.00164757
v 0.00109815 -0.00727321 0.00142621
v 0.00140756 -0.00727321 0.00112196
v 0.00163516 -0.00727321 0.00075251
v 0.00176773 -0.00727321 0.00033932
v 0.00179757 -0.00727321 -0.00009358
v 0.00172294 -0.00727321 -0.00052105
v 0.00154818 -0.00727321 -0.00091824
v 0.00128345 -0.00727320 -0.00126206
v 0.00094412 -0.00727321 -0.00153253
v 0.00054993 -0.00727321 -0.00171394
v -0.00009353 -0.00727321 -0.00179757
v 0.00144205 -0.00730000 0.00090027
v 0.00154432 -0.00730000 0.00071070
v 0.00166953 -0.00730000 0.00032047
v 0.00169771 -0.00730000 -0.00008839
v 0.00162722 -0.00730000 -0.00049210
v 0.00146217 -0.00730000 -0.00086722
v 0.00121214 -0.00730000 -0.00119194
v 0.00089167 -0.00730000 -0.00144739
v 0.00051938 -0.00730000 -0.00161872
v -0.00008834 -0.00730000 -0.00169771
v -0.00029237 -0.00730000 -0.00167467
v -0.00068465 -0.00730000 -0.00155604
v -0.00103714 -0.00730000 -0.00134698
v -0.00132935 -0.00730000 -0.00105963
v -0.00154431 -0.00730000 -0.00071071
v -0.00166952 -0.00730000 -0.00032048
v -0.00169770 -0.00730000 0.00008838
v -0.00162721 -0.00730000 0.00049210
v -0.00146216 -0.00730000 0.00086722
v -0.00121214 -0.00730000 0.00119194
v -0.00089166 -0.00730000 0.00144738
v -0.00051937 -0.00730000 0.00161872
v -0.00011689 -0.00730000 0.00169597
v 0.00029238 -0.00730000 0.00167467
v 0.00068465 -0.00730000 0.00155604
v 0.00103715 -0.00730000 0.00134697
v 0.00132936 -0.00730000 0.00105963
v 0.00179598 -0.00693905 0.01303168
v 0.00064333 -0.00730634 0.01309171
v 0.00065653 -0.00730327 0.00394575
v 0.00555001 0.00356230 0.00679967
v 0.00555001 0.00356230 0.00558647
v 0.00483999 0.00464307 0.00495678
v 0.00634825 0.00123123 0.00679967
v 0.00621604 0.00185870 0.00679967
v 0.00608017 0.00232613 0.01280803
v 0.00350234 0.00596039 0.00422583
v 0.00359060 0.00589193 0.01293740
v 0.00403603 0.00551202 0.00446040
v 0.00465326 0.00487061 0.01288215
v 0.00580962 0.00303245 0.01282207
v 0.00580963 0.00303242 0.00679967
v 0.00552853 0.00360181 0.01283666
v 0.00483997 0.00464309 0.01287244
v 0.00451658 0.00502626 0.00473389
v 0.00330768 0.00610415 0.00415647
v 0.00231386 0.00670332 0.01300381
v 0.00350025 0.00596199 0.01294210
v 0.00267756 0.00650809 0.00398605
v 0.00187462 0.00690627 0.00388021
v 0.00187459 0.00690628 0.01302666
v 0.00127519 0.00713046 0.00387850
v 0.00065653 0.00730327 0.00394575
v -0.00035523 0.00746775 0.00398419
v -0.00085820 0.00749755 0.00390684
v -0.00181425 0.00746096 0.01321867
v -0.00105956 0.00749999 0.01317938
v -0.00071449 0.00749249 0.01316141
v 0.00006522 0.00741662 0.00399947
v 0.00006520 0.00741663 0.01312083
v 0.00086025 0.00725265 0.01307945
v -0.00134424 0.00749422 0.00376736
v -0.00181426 0.00746096 0.00356489
v -0.00231144 0.00739315 0.01324455
v -0.00224712 0.00740384 0.00330914
v -0.00364569 0.00703650 0.01331404
v -0.00364571 0.00703649 0.00235940
v -0.00389596 0.00693905 0.01332708
v -0.00490407 0.00643398 0.00150489
v -0.00521549 0.00623687 0.01339582
v -0.00531407 0.00616990 0.00129109
v -0.00531405 0.00616991 0.01340095
v -0.00568755 0.00589432 0.00118859
v -0.00775899 0.00335252 0.01352842
v -0.00725257 0.00421641 0.01350200
v -0.00756014 0.00372398 0.00187438
v -0.00613813 0.00551007 0.00116252
v -0.00656129 0.00508681 0.00123197
v -0.00636059 0.00529600 0.01345549
v -0.00671449 0.00491563 0.00128111
v -0.00671447 0.00491566 0.01347394
v -0.00703825 0.00451561 0.00143358
v -0.00732593 0.00410641 0.00163814
v -0.00802763 0.00275000 0.00315946
v -0.00794817 0.00294366 0.01353830
v -0.00812628 0.00248520 0.01354760
v -0.00776396 0.00334255 0.00216690
v -0.00784916 0.00316564 0.00233361
v -0.00797462 0.00288090 0.00270201
v -0.00801322 0.00278630 0.00291977
v -0.00802763 0.00275000 0.00226879
v -0.00812628 0.00248520 0.00226879
v -0.00838109 0.00158272 0.01356092
v -0.00854992 0.00003267 0.00226879
v -0.00854999 0.00000672 0.00226719
v -0.00823054 0.00216558 0.00226880
v -0.00838196 0.00157870 0.00226884
v -0.00844325 0.00126085 0.00226885
v -0.00850469 0.00082308 0.00226883
v -0.00854976 0.00005943 0.00226881
v -0.00854999 0.00000156 0.00226656
v -0.00854999 -0.00000000 0.00226880
v -0.00854999 0.00000336 0.00226800
v -0.00848295 -0.00100057 0.01356640
v -0.00854422 -0.00029428 0.01356954
v -0.00854422 -0.00029427 0.00226510
v -0.00854999 -0.00000956 0.01356982
v -0.00853383 -0.00049209 0.00226292
v -0.00841809 -0.00140039 0.00225969
v -0.00823559 -0.00214878 0.01355360
v -0.00826229 -0.00205738 0.00226432
v -0.00823559 -0.00214877 0.00226516
v -0.00812590 -0.00248627 0.00226790
v -0.00802763 -0.00275000 0.00226879
v -0.00802763 -0.00275000 0.00315947
v -0.00818015 -0.00232613 0.01355072
v -0.00762851 -0.00360181 0.01352209
v -0.00747545 -0.00386828 0.01351414
v -0.00767930 -0.00350746 0.00203163
v -0.00786400 -0.00313358 0.00259555
v -0.00784916 -0.00316564 0.00233361
v -0.00797462 -0.00288089 0.00270203
v -0.00801340 -0.00278585 0.00292128
v -0.00747938 -0.00386174 0.00178380
v -0.00732593 -0.00410641 0.00163814
v -0.00675325 -0.00487062 0.01347661
v -0.00696905 -0.00460596 0.00139488
v -0.00655685 -0.00509162 0.00123075
v -0.00631157 -0.00534470 0.01345364
v -0.00631160 -0.00534467 0.00117972
v -0.00569059 -0.00589193 0.01342135
v -0.00568755 -0.00589433 0.00118859
v -0.00224712 -0.00740384 0.00330914
v -0.00181569 -0.00746081 0.00356415
v -0.00308595 -0.00721837 0.01328585
v -0.00529268 -0.00618463 0.00129940
v -0.00490407 -0.00643398 0.00150489
v -0.00481710 -0.00648529 0.01337592
v -0.00481713 -0.00648527 0.00156393
v -0.00441385 -0.00670332 0.01335494
v -0.00397461 -0.00690627 0.00213606
v -0.00308596 -0.00721837 0.00273951
v 0.00021145 -0.00739316 0.01311420
v -0.00036130 -0.00746831 0.00398364
v 0.00014360 -0.00740441 0.00399742
v -0.00104043 -0.00749999 0.01317938
v -0.00122686 -0.00749792 0.01318908
v -0.00122686 -0.00749792 0.00380720
v -0.00138550 -0.00749249 0.01319734
v -0.00296023 -0.00725265 0.01327930
v 0.00133637 -0.00711022 0.00387568
v 0.00199503 -0.00685404 0.00388845
v 0.00240713 -0.00665570 0.01299984
v 0.00240716 -0.00665568 0.00393691
v 0.00311551 -0.00623688 0.01296294
v 0.00330768 -0.00610416 0.00415647
v 0.00395372 -0.00558685 0.01291926
v 0.00395375 -0.00558682 0.00441976
v 0.00426060 -0.00529600 0.01290326
v 0.00451658 -0.00502626 0.00473390
v 0.00515258 -0.00421641 0.01285675
v 0.00518593 -0.00416692 0.00523628
v 0.00555001 -0.00356230 0.00679967
v 0.00555001 -0.00356230 0.00558647
v 0.00634825 0.00123124 0.01279415
v 0.00638296 0.00100057 0.01279235
v 0.00645001 -0.00000000 0.00679967
v 0.00645000 0.00000956 0.01278893
v 0.00642202 -0.00064732 0.00679967
v 0.00642202 -0.00064733 0.01279043
v 0.00621604 -0.00185870 0.00679967
v 0.00628110 -0.00158273 0.01279783
v 0.00602629 -0.00248520 0.00679967
v 0.00602628 -0.00248522 0.01281115
v 0.00584819 -0.00294366 0.01282046
v 0.00555001 -0.00339717 0.00672266
v 0.00555001 -0.00323458 0.00664967
v 0.00607072 -0.00182153 0.00664967
v 0.00607072 0.00182153 0.00664967
v 0.00555001 0.00323458 0.00664967
v 0.00555001 0.00339717 0.00672266
v 0.00630001 -0.00000000 0.00664967
v 0.00149797 0.00275000 -0.00007798
v 0.00133627 0.00688000 0.00068145
v 0.00133627 0.00275000 0.00068145
v 0.00081652 0.00688000 0.00125829
v 0.00081652 0.00275000 0.00125829
v 0.00007798 0.00688000 0.00149797
v 0.00007798 0.00275000 0.00149797
v -0.00068145 0.00688000 0.00133627
v -0.00068145 0.00275000 0.00133627
v -0.00125829 0.00688000 0.00081652
v -0.00125829 0.00275000 0.00081652
v -0.00149797 0.00688000 0.00007798
v -0.00149797 0.00275000 0.00007798
v -0.00133627 0.00688000 -0.00068145
v -0.00133627 0.00275000 -0.00068145
v -0.00081652 0.00688000 -0.00125829
v -0.00081652 0.00275000 -0.00125829
v -0.00007799 0.00688000 -0.00149797
v -0.00007798 0.00275000 -0.00149797
v 0.00068145 0.00688000 -0.00133627
v 0.00068145 0.00275000 -0.00133627
v 0.00125829 0.00688000 -0.00081652
v 0.00125829 0.00275000 -0.00081652
v 0.00149797 0.00688000 -0.00007798
v 0.00149798 -0.00500000 -0.00007799
v 0.00133628 -0.00275000 0.00068145
v 0.00133628 -0.00500000 0.00068145
v 0.00081653 -0.00275000 0.00125829
v 0.00081652 -0.00500000 0.00125829
v 0.00007799 -0.00275000 0.00149797
v 0.00007799 -0.00500000 0.00149797
v -0.00068144 -0.00275000 0.00133627
v -0.00068145 -0.00500000 0.00133627
v -0.00125828 -0.00275000 0.00081652
v -0.00125829 -0.00500000 0.00081652
v -0.00149797 -0.00275000 0.00007798
v -0.00149797 -0.00500000 0.00007798
v -0.00133627 -0.00275000 -0.00068145
v -0.00133627 -0.00500000 -0.00068145
v -0.00081652 -0.00275000 -0.00125829
v -0.00081652 -0.00500000 -0.00125829
v -0.00007798 -0.00275000 -0.00149797
v -0.00007798 -0.00500000 -0.00149798
v 0.00068145 -0.00275000 -0.00133628
v 0.00068146 -0.00500000 -0.00133628
v 0.00125829 -0.00275000 -0.00081652
v 0.00125829 -0.00500000 -0.00081652
v 0.00149798 -0.00275000 -0.00007799
v 0.00114029 0.00710000 0.00058150
v 0.00069676 0.00710000 0.00107374
v 0.00006654 0.00710000 0.00127827
v -0.00058150 0.00710000 0.00114029
v -0.00107374 0.00710000 0.00069676
v -0.00127827 0.00710000 0.00006655
v -0.00114029 0.00710000 -0.00058150
v -0.00069676 0.00710000 -0.00107374
v -0.00006655 0.00710000 -0.00127827
v 0.00058150 0.00710000 -0.00114029
v 0.00107374 0.00710000 -0.00069677
v 0.00127827 0.00710000 -0.00006655
v -0.00096544 -0.00500000 0.00005026
v -0.00081096 -0.00530000 0.00052624
v -0.00081096 -0.00500000 0.00052624
v -0.00043919 -0.00530000 0.00086123
v -0.00043919 -0.00500000 0.00086122
v 0.00005027 -0.00530000 0.00096544
v 0.00005026 -0.00500000 0.00096544
v 0.00052625 -0.00530000 0.00081096
v 0.00052625 -0.00500000 0.00081096
v 0.00086123 -0.00530000 0.00043919
v 0.00086123 -0.00500000 0.00043919
v 0.00096545 -0.00530000 -0.00005026
v 0.00096545 -0.00500000 -0.00005026
v 0.00081097 -0.00530000 -0.00052625
v 0.00081097 -0.00500000 -0.00052625
v 0.00043920 -0.00530000 -0.00086123
v 0.00043920 -0.00500000 -0.00086123
v -0.00005026 -0.00530000 -0.00096545
v -0.00005025 -0.00500000 -0.00096545
v -0.00052624 -0.00530000 -0.00081097
v -0.00052624 -0.00500000 -0.00081097
v -0.00086122 -0.00530000 -0.00043920
v -0.00086122 -0.00500000 -0.00043920
v -0.00096544 -0.00530000 0.00005026
v -0.00189743 -0.00530000 0.00009878
v -0.00172599 -0.00530000 -0.00079432
v -0.00115915 -0.00530000 -0.00150544
v -0.00032676 -0.00530000 -0.00187169
v 0.00058048 -0.00530000 -0.00180916
v 0.00135475 -0.00530000 -0.00133217
v 0.00181866 -0.00530000 -0.00055000
v 0.00186594 -0.00530000 0.00035817
v 0.00148575 -0.00530000 0.00118429
v 0.00076520 -0.00530000 0.00173910
v -0.00013065 -0.00530000 0.00189550
v -0.00099657 -0.00530000 0.00161766
v -0.00163418 -0.00530000 0.00096924
v -0.00288225 -0.00725256 0.01477728
v 0.00652799 0.00000966 0.01428690
v 0.00650000 -0.00064723 0.01428840
v 0.00635909 -0.00158263 0.01429580
v 0.00610427 -0.00248512 0.01430913
v 0.00592617 -0.00294356 0.01431843
v 0.00523056 -0.00421631 0.01435473
v 0.00433858 -0.00529590 0.01440123
v 0.00403170 -0.00558675 0.01441723
v 0.00319349 -0.00623678 0.01446091
v 0.00248511 -0.00665560 0.01449781
v 0.00187396 -0.00693896 0.01452965
v 0.00072131 -0.00730625 0.01458968
v 0.00028944 -0.00739306 0.01461217
v -0.00096245 -0.00749990 0.01467735
v -0.00114888 -0.00749782 0.01468705
v -0.00130752 -0.00749239 0.01469531
v -0.00300797 -0.00721827 0.01478382
v -0.00433587 -0.00670322 0.01485291
v -0.00473912 -0.00648519 0.01487389
v -0.00561260 -0.00589183 0.01491932
v -0.00623358 -0.00534460 0.01495162
v -0.00667526 -0.00487051 0.01497458
v -0.00739746 -0.00386818 0.01501211
v -0.00755053 -0.00360171 0.01502006
v -0.00810217 -0.00232603 0.01504869
v -0.00847200 -0.00000946 0.01506779
v -0.00846623 -0.00029418 0.01506751
v -0.00840497 -0.00100048 0.01506437
v -0.00815760 -0.00214868 0.01505157
v -0.00098158 0.00750009 0.01467735
v -0.00173627 0.00746106 0.01471664
v -0.00037920 0.00747663 0.02599761
v 0.00650945 0.00052711 0.03524562
v 0.00649483 0.00070460 0.03479747
v 0.00642624 0.00123133 0.03722650
v 0.00649392 0.00071414 0.03755178
v 0.00652712 0.00011408 0.03782019
v 0.00652671 -0.00013869 0.03596226
v 0.00650000 -0.00064722 0.03621179
v 0.00652421 0.00023815 0.03564299
v 0.00648940 0.00075994 0.03431594
v 0.00649654 0.00068623 0.03383348
v 0.00642624 0.00123134 0.01429212
v 0.00651183 0.00049212 0.03338409
v 0.00652563 0.00018813 0.03298449
v 0.00652535 -0.00019870 0.03266594
v 0.00646095 0.00100067 0.01429033
v 0.00651035 -0.00051397 0.03799588
v 0.00650000 -0.00064722 0.03802023
v 0.00645334 -0.00105541 0.03630605
v 0.00642987 -0.00120911 0.03807381
v 0.00636931 -0.00153453 0.03631073
v 0.00631742 -0.00176462 0.03804619
v 0.00625751 -0.00199590 0.03620077
v 0.00610427 -0.00248510 0.03787636
v 0.00610427 -0.00248510 0.03592569
v 0.00581566 -0.00319013 0.03387200
v 0.00579421 -0.00323537 0.03435386
v 0.00526392 -0.00416682 0.03650527
v 0.00588366 -0.00304124 0.03341722
v 0.00598779 -0.00279476 0.03301426
v 0.00610427 -0.00248510 0.03270546
v 0.00582273 -0.00317504 0.03483019
v 0.00589678 -0.00301151 0.03527791
v 0.00548596 -0.00381364 0.03698153
v 0.00600480 -0.00275201 0.03566945
v 0.00571771 -0.00339071 0.03737961
v 0.00594477 -0.00289957 0.03769606
v 0.00650000 -0.00064722 0.03244264
v 0.00644315 -0.00112479 0.03233037
v 0.00635474 -0.00160262 0.03233476
v 0.00623995 -0.00205844 0.03245655
v 0.00588760 0.00303255 0.01432004
v 0.00590283 0.00299787 0.02872914
v 0.00615815 0.00232622 0.01430600
v 0.00605930 0.00260982 0.02946614
v 0.00615032 0.00235010 0.03026923
v 0.00618824 0.00223186 0.03108477
v 0.00609693 0.00250612 0.03570179
v 0.00620319 0.00218332 0.03626503
v 0.00628100 0.00190897 0.03523716
v 0.00631567 0.00177200 0.03675971
v 0.00618288 0.00224902 0.03191330
v 0.00614534 0.00236513 0.03259119
v 0.00607384 0.00257030 0.03324781
v 0.00600889 0.00274181 0.03385450
v 0.00598949 0.00279072 0.03448780
v 0.00602143 0.00270967 0.03510911
v 0.00533080 0.00406514 0.02754560
v 0.00541924 0.00392463 0.02766230
v 0.00568696 0.00345091 0.02813008
v 0.00498990 0.00455044 0.02720079
v 0.00560651 0.00360191 0.01433463
v 0.00491652 0.00464501 0.02714054
v 0.00491795 0.00464319 0.01437041
v 0.00473125 0.00487071 0.01438012
v 0.00419430 0.00543694 0.02654524
v 0.00366858 0.00589203 0.01443537
v 0.00357824 0.00596208 0.02605212
v 0.00357823 0.00596208 0.01444007
v 0.00263989 0.00657309 0.02540833
v 0.00239185 0.00670342 0.01450178
v 0.00195261 0.00690637 0.02510924
v 0.00195258 0.00690638 0.01452464
v 0.00148522 0.00708614 0.02506591
v 0.00093823 0.00725275 0.01457742
v 0.00101629 0.00723174 0.02517656
v 0.00014319 0.00741672 0.01461880
v -0.00063650 0.00749259 0.01465939
v 0.00014320 0.00741672 0.02564699
v 0.00057050 0.00733976 0.02538863
v -0.00356771 0.00703660 0.01481201
v -0.00335679 0.00711085 0.02801250
v -0.00276709 0.00728211 0.02760443
v -0.00223345 0.00739325 0.01474253
v -0.00173330 0.00746136 0.02694340
v -0.00159157 0.00747446 0.02684632
v -0.00472288 0.00649478 0.03426721
v -0.00486017 0.00641354 0.03379544
v -0.00504727 0.00629631 0.03535636
v -0.00465495 0.00653354 0.03475337
v -0.00516111 0.00622114 0.03679630
v -0.00495165 0.00635717 0.03636947
v -0.00478610 0.00645787 0.03590875
v -0.00466995 0.00652507 0.03534027
v -0.00504470 0.00629797 0.03313521
v -0.00523084 0.00617362 0.03691728
v -0.00514323 0.00623315 0.03245263
v -0.00515666 0.00622414 0.03173141
v -0.00523607 0.00617001 0.01489892
v -0.00508125 0.00627418 0.03102097
v -0.00491150 0.00638214 0.03030876
v -0.00464962 0.00653655 0.02964011
v -0.00430321 0.00671970 0.02903387
v -0.00387351 0.00691612 0.02849234
v -0.00357503 0.00703390 0.02819783
v -0.00381798 0.00693915 0.01482504
v -0.00513751 0.00623697 0.01489379
v -0.00663648 0.00491576 0.01497191
v -0.00662393 0.00493018 0.03389940
v -0.00628260 0.00529610 0.01495346
v -0.00653265 0.00503292 0.03409932
v -0.00636434 0.00521284 0.03473812
v -0.00640646 0.00516892 0.03450173
v -0.00646394 0.00510781 0.03429016
v -0.00634312 0.00523471 0.03498370
v -0.00636185 0.00521543 0.03542828
v -0.00639464 0.00518133 0.03563415
v -0.00642159 0.00515297 0.03575557
v -0.00651447 0.00505293 0.03605698
v -0.00547204 0.00600008 0.03728396
v -0.00658416 0.00497542 0.03622789
v -0.00582124 0.00572154 0.03771782
v -0.00663148 0.00492152 0.03632843
v -0.00618227 0.00539483 0.03808034
v -0.00655153 0.00501198 0.03838019
v -0.00663383 0.00491882 0.03843759
v -0.00669352 0.00484925 0.03644568
v -0.00678062 0.00474457 0.03658702
v -0.00689294 0.00460364 0.03674065
v -0.00712838 0.00428368 0.03698656
v -0.00709690 0.00432858 0.03869371
v -0.00726310 0.00408325 0.03708611
v -0.00740966 0.00384804 0.03878750
v -0.00749180 0.00370716 0.03718352
v -0.00767776 0.00335911 0.03879520
v -0.00762872 0.00345528 0.03719435
v -0.00768166 0.00335130 0.03718699
v -0.00790547 0.00285965 0.03871913
v -0.00781711 0.00306515 0.03713013
v -0.00809574 0.00234585 0.03855364
v -0.00790315 0.00286528 0.03705749
v -0.00824043 0.00184943 0.03830570
v -0.00804830 0.00248529 0.03683850
v -0.00830509 0.00157362 0.03812651
v -0.00815260 0.00216554 0.03654101
v -0.00819062 0.00203519 0.03637405
v -0.00824927 0.00181434 0.03597619
v -0.00826693 0.00174197 0.03577555
v -0.00827312 0.00171586 0.03568282
v -0.00787019 0.00294376 0.01503627
v -0.00804829 0.00248529 0.01504557
v -0.00828414 0.00166825 0.03485277
v -0.00830311 0.00158282 0.01505890
v -0.00828729 0.00165436 0.03532655
v -0.00768100 0.00335262 0.01502639
v -0.00825769 0.00178025 0.03441065
v -0.00823325 0.00187744 0.03418933
v -0.00816440 0.00212602 0.03380957
v -0.00811537 0.00228534 0.03363565
v -0.00807969 0.00239404 0.03353762
v -0.00804829 0.00248529 0.03346568
v -0.00790716 0.00285557 0.03324763
v -0.00782437 0.00304889 0.03317332
v -0.00833952 0.00140358 0.03799832
v -0.00846407 0.00034516 0.03670641
v -0.00844468 0.00063979 0.03719003
v -0.00840535 0.00099782 0.03762535
v -0.00846464 0.00033244 0.03668144
v -0.00846624 -0.00029418 0.03545656
v -0.00837026 -0.00123113 0.03368760
v -0.00815761 -0.00214867 0.03203074
v -0.00783163 -0.00303232 0.03051210
v -0.00739748 -0.00386815 0.02915565
v -0.00703128 -0.00441977 0.02831109
v -0.00623362 -0.00534457 0.02826963
v -0.00473915 -0.00648517 0.02819190
v -0.00300798 -0.00721827 0.02810183
v -0.00114888 -0.00749782 0.02800507
v 0.00072133 -0.00730624 0.02790769
v 0.00248515 -0.00665558 0.02999450
v 0.00174873 -0.00698901 0.02887509
v 0.00098071 -0.00724123 0.02789418
v 0.00403173 -0.00558672 0.03306538
v 0.00329206 -0.00616980 0.03145630
v 0.00507553 -0.00443581 0.03597686
v 0.00458352 -0.00503837 0.03448718
v -0.00709874 0.00432597 0.03329088
v -0.00694098 0.00454117 0.03343924
v -0.00718081 0.00420733 0.03323032
v -0.00768172 0.00335118 0.03310582
v -0.00763119 0.00345050 0.03309576
v -0.00717458 0.00421651 0.01499997
v -0.00752541 0.00364741 0.03309337
v -0.00729524 0.00403331 0.03316316
v -0.00682811 0.00468583 0.03357430
v -0.00673650 0.00479808 0.03370469
v 0.00418586 -0.00259861 0.03491537
v 0.00509519 0.00030494 0.03274036
v 0.00534275 0.00090382 0.03344493
v 0.00478100 -0.00053945 0.03241687
v 0.00447216 -0.00143590 0.03254854
v 0.00423942 -0.00217906 0.03310523
v 0.00413610 -0.00259867 0.03395940
v 0.00437732 -0.00217888 0.03575414
v 0.00466660 -0.00143565 0.03628355
v 0.00498744 -0.00053918 0.03638233
v 0.00526633 0.00030516 0.03602784
v 0.00543939 0.00090394 0.03530130
v 0.00546697 0.00111999 0.03436915
v 0.00381869 0.00330841 0.03582033
v 0.00383949 0.00354785 0.03459968
v 0.00372282 0.00339823 0.03337015
v 0.00366270 0.00270626 0.03689775
v 0.00338870 0.00180767 0.03771336
v 0.00302684 0.00071154 0.03817739
v 0.00261694 -0.00046148 0.03823875
v 0.00220414 -0.00158229 0.03789071
v 0.00183384 -0.00252752 0.03717157
v 0.00154683 -0.00319316 0.03616048
v -0.00651109 0.00435061 0.03395676
v -0.00670285 0.00409133 0.03372092
v -0.00316377 0.00281044 0.03351755
v -0.00624949 0.00458765 0.03559437
v -0.00622895 0.00462085 0.03549543
v -0.00287534 0.00332852 0.03555431
v -0.00620821 0.00465689 0.03535598
v -0.00284775 0.00351805 0.03480185
v -0.00650890 0.00418869 0.03619737
v -0.00644561 0.00428610 0.03609954
v -0.00302870 0.00281061 0.03611211
v -0.00655482 0.00411717 0.03625784
v -0.00635468 0.00442657 0.03591691
v -0.00632492 0.00447207 0.03584258
v -0.00628703 0.00452976 0.03573218
v -0.00679930 0.00370727 0.03647039
v -0.00673997 0.00381151 0.03643442
v -0.00326674 0.00210310 0.03632578
v -0.00672260 0.00384151 0.03642203
v -0.00658822 0.00406426 0.03629726
v -0.00352566 0.00139557 0.03613808
v -0.00725228 0.00280510 0.03638042
v -0.00720725 0.00290523 0.03642603
v -0.00704394 0.00324828 0.03651217
v -0.00698479 0.00336517 0.03651860
v -0.00696393 0.00340525 0.03651817
v -0.00373611 0.00087759 0.03559928
v -0.00750175 0.00220122 0.03579132
v -0.00741086 0.00242683 0.03609855
v -0.00738015 0.00250196 0.03617164
v -0.00728893 0.00272086 0.03633393
v -0.00760093 0.00201283 0.03496335
v -0.00759697 0.00201040 0.03504919
v -0.00384168 0.00068796 0.03485378
v -0.00757604 0.00203572 0.03532661
v -0.00752153 0.00215330 0.03569703
v -0.00758824 0.00215496 0.03439271
v -0.00759605 0.00211156 0.03449629
v -0.00381409 0.00087749 0.03410131
v -0.00760360 0.00202002 0.03487775
v -0.00749036 0.00252401 0.03388955
v -0.00751813 0.00243325 0.03397877
v -0.00366073 0.00139540 0.03354351
v -0.00753914 0.00236039 0.03406250
v -0.00758174 0.00218760 0.03432627
v -0.00732023 0.00298173 0.03360735
v -0.00738711 0.00281777 0.03368222
v -0.00742267 0.00272361 0.03373738
v -0.00708388 0.00347359 0.03352232
v -0.00712014 0.00340535 0.03352224
v -0.00342270 0.00210290 0.03332984
v -0.00719662 0.00325409 0.03353567
v -0.00724284 0.00315657 0.03355420
v -0.00675790 0.00401140 0.03367144
v -0.00679999 0.00394874 0.03363851
v -0.00696127 0.00369149 0.03354907
v -0.00701346 0.00360112 0.03353295
v -0.00619517 0.00469686 0.03497604
v -0.00620428 0.00469309 0.03485953
v -0.00295333 0.00332842 0.03405634
v -0.00627464 0.00462855 0.03448934
v -0.00631324 0.00458762 0.03436690
v -0.00636463 0.00452951 0.03423350
v -0.00645726 0.00441805 0.03404512
v 0.00308741 0.00142795 0.03449300
v 0.00530131 0.00064831 0.03437781
v 0.00305982 0.00123842 0.03524547
v 0.00527372 0.00045878 0.03513027
v 0.00290646 0.00072051 0.03580327
v 0.00512037 -0.00005913 0.03568807
v 0.00266842 0.00001300 0.03601694
v 0.00488233 -0.00076664 0.03590174
v 0.00240949 -0.00069453 0.03582923
v 0.00462340 -0.00147417 0.03571403
v 0.00219905 -0.00121251 0.03529045
v 0.00441295 -0.00199215 0.03517524
v 0.00209347 -0.00140214 0.03454494
v 0.00430738 -0.00218178 0.03442974
v 0.00212106 -0.00121261 0.03379248
v 0.00433497 -0.00199225 0.03367727
v 0.00227442 -0.00069470 0.03323467
v 0.00448833 -0.00147434 0.03311947
v 0.00251246 0.00001280 0.03302100
v 0.00472637 -0.00076684 0.03290579
v 0.00277139 0.00072034 0.03320871
v 0.00498530 -0.00005930 0.03309350
v 0.00298183 0.00123832 0.03374750
v 0.00519574 0.00045868 0.03363229
v -0.00438834 -0.00110306 0.03646932
v -0.00438314 -0.00109196 0.03649406
v 0.00130137 0.00645570 0.02669578
v -0.00413011 -0.00050773 0.03740288
v -0.00609899 -0.00474808 0.02826258
v -0.00344146 0.00128762 0.03848684
v -0.00381397 0.00029062 0.03807536
v -0.00235881 0.00450223 0.03753765
v -0.00219245 0.00632412 0.02840486
v -0.00263213 0.00363174 0.03817623
v -0.00272425 0.00335064 0.03830820
v -0.00307361 0.00232108 0.03856188
v -0.00209580 0.00551046 0.03576875
v -0.00217098 0.00516815 0.03664071
v -0.00212060 0.00657991 0.02805472
v -0.00221559 0.00548223 0.03365783
v -0.00211076 0.00563759 0.03462098
v -0.00234536 0.00572510 0.02952021
v -0.00241214 0.00533424 0.03088208
v -0.00236582 0.00525507 0.03230811
v 0.00381454 0.00448974 0.02774588
v -0.00016383 -0.00683818 0.02795374
v 0.00362853 0.00379878 0.02884748
v 0.00357303 0.00316809 0.03204910
v 0.00352503 0.00327460 0.03040584
v 0.00186406 0.00669833 0.02585330
v -0.00086550 -0.00630000 -0.00002987
v 0.00000000 -0.00623438 -0.00000000
v -0.00045862 -0.00630000 0.00073462
v -0.00040688 -0.00630000 -0.00076449
v 0.00045863 -0.00630000 -0.00073462
v 0.00086552 -0.00630000 0.00002987
v 0.00040689 -0.00630000 0.00076449
v -0.00045862 -0.00730000 0.00073461
v -0.00086550 -0.00730000 -0.00002988
v -0.00040688 -0.00730000 -0.00076449
v 0.00045863 -0.00730000 -0.00073462
v 0.00086551 -0.00730000 0.00002987
v 0.00040689 -0.00730000 0.00076449
v -0.00000000 0.00710000 0.00000000
v -0.00490407 -0.00275000 0.00150489
v -0.00568755 -0.00275000 0.00118859
v -0.00784916 -0.00275000 0.00233361
v -0.00732593 -0.00275000 0.00163814
v -0.00655685 -0.00275000 0.00123075
v -0.00780102 -0.00275000 0.00050498
v -0.00758464 -0.00275000 -0.00017781
v -0.00306551 -0.00275000 -0.00441140
v -0.00336198 -0.00275000 -0.00431467
v -0.00224712 -0.00275000 0.00330914
v -0.00792289 -0.00275000 0.00106432
v 0.00199503 -0.00275000 0.00388845
v 0.00476327 -0.00275000 -0.00159041
v 0.00555001 -0.00275000 0.00000441
v 0.00045964 -0.00275000 -0.00454357
v 0.00074275 -0.00275000 -0.00447460
v -0.00468868 -0.00275000 -0.00368497
v -0.00423755 -0.00275000 -0.00393820
v -0.00370268 -0.00275000 -0.00418493
v 0.00065654 -0.00275000 0.00394575
v -0.00036130 -0.00275000 0.00398365
v -0.00135571 -0.00275000 0.00376324
v 0.00555001 -0.00275000 0.00558647
v 0.00451658 -0.00275000 0.00473389
v 0.00330768 -0.00275000 0.00415647
v -0.00219782 -0.00275000 -0.00461378
v -0.00131142 -0.00275000 -0.00470394
v -0.00042076 -0.00275000 -0.00468041
v -0.00734681 -0.00275000 -0.00073745
v -0.00713591 -0.00275000 -0.00114427
v -0.00607550 -0.00275000 -0.00257183
v 0.00094005 -0.00275000 -0.00441903
v 0.00171727 -0.00275000 -0.00413664
v 0.00213265 -0.00275000 -0.00394073
v 0.00359894 -0.00275000 -0.00293455
v -0.00146075 0.00126939 -0.00511157
v -0.00123388 0.00125371 -0.00512338
v -0.00143991 -0.00000050 -0.00522105
v -0.00168676 0.00124425 -0.00509980
v -0.00190466 0.00117910 -0.00508845
v -0.00210744 0.00107604 -0.00507789
v -0.00228858 0.00093838 -0.00506845
v -0.00244227 0.00077054 -0.00506044
v -0.00256356 0.00057793 -0.00505411
v -0.00264855 0.00036672 -0.00504967
v -0.00269451 0.00014371 -0.00504726
v -0.00269997 -0.00008394 -0.00504697
v -0.00266475 -0.00030890 -0.00504878
v -0.00258998 -0.00052396 -0.00505266
v -0.00247806 -0.00072218 -0.00505848
v -0.00233260 -0.00089721 -0.00506604
v -0.00215826 -0.00104342 -0.00507510
v -0.00196066 -0.00115611 -0.00508538
v -0.00174614 -0.00123166 -0.00509655
v -0.00152159 -0.00126763 -0.00510823
v -0.00129423 -0.00126288 -0.00512007
v -0.00107138 -0.00121755 -0.00513167
v -0.00086019 -0.00113311 -0.00514267
v -0.00066745 -0.00101226 -0.00515272
v -0.00049936 -0.00085890 -0.00516148
v -0.00036132 -0.00067794 -0.00516867
v -0.00025776 -0.00047521 -0.00517408
v -0.00019202 -0.00025722 -0.00517752
v -0.00016621 -0.00003098 -0.00517887
v -0.00018115 0.00019623 -0.00517811
v -0.00023637 0.00041713 -0.00517525
v -0.00033008 0.00062461 -0.00517039
v -0.00045930 0.00081199 -0.00516367
v -0.00061984 0.00097326 -0.00515533
v -0.00080656 0.00110323 -0.00514561
v -0.00101346 0.00119773 -0.00513485
v 0.00100082 0.00275000 -0.00440065
v 0.00197996 0.00275000 -0.00401664
v 0.00142290 0.00234379 -0.00441262
v 0.00359894 0.00275000 -0.00293455
v 0.00275026 0.00232252 -0.00376559
v 0.00213265 0.00275000 -0.00394073
v 0.00555001 0.00179829 -0.00080628
v 0.00537548 0.00229026 -0.00084858
v 0.00555001 0.00275000 0.00000441
v 0.00525812 -0.00260380 -0.00084214
v 0.00555001 -0.00179829 -0.00080628
v 0.00130730 -0.00247718 -0.00440628
v -0.00823802 -0.00178144 0.00108194
v -0.00794300 -0.00169168 -0.00015496
v -0.00744884 -0.00155305 -0.00132185
v -0.00707239 -0.00263578 -0.00134137
v -0.00564771 -0.00194563 -0.00332811
v -0.00523182 -0.00268226 -0.00334972
v -0.00398211 -0.00258773 -0.00413091
v -0.00440181 -0.00208271 -0.00410910
v -0.00318824 -0.00176801 -0.00469912
v -0.00284461 -0.00205620 -0.00471699
v -0.00245510 -0.00227832 -0.00473726
v -0.00203225 -0.00242723 -0.00475926
v -0.00158964 -0.00249814 -0.00478230
v -0.00114150 -0.00248878 -0.00480563
v -0.00070223 -0.00239944 -0.00482850
v -0.00028595 -0.00223299 -0.00485018
v 0.00009395 -0.00199479 -0.00486998
v 0.00466973 -0.00239037 -0.00195267
v 0.00500073 -0.00129285 -0.00196998
v 0.00555001 -0.00141694 -0.00099957
v 0.00513070 -0.00015379 -0.00197682
v 0.00555001 -0.00062509 -0.00123822
v 0.00555001 0.00062509 -0.00123823
v 0.00505548 0.00099020 -0.00197298
v 0.00555001 0.00108193 -0.00112522
v 0.00477747 0.00210236 -0.00195858
v 0.00476327 0.00275000 -0.00159041
v 0.00309854 0.00155153 -0.00378367
v 0.00179571 0.00180314 -0.00443199
v -0.00131142 0.00275000 -0.00470394
v -0.00191522 0.00245305 -0.00476568
v -0.00219782 0.00275000 -0.00461378
v -0.00234472 0.00232464 -0.00474331
v -0.00306551 0.00275000 -0.00441140
v -0.00274443 0.00212149 -0.00472249
v -0.00313523 0.00275000 -0.00438997
v -0.00621903 0.00275000 -0.00241826
v -0.00607551 0.00275000 -0.00257183
v -0.00554952 0.00214906 -0.00333350
v -0.00515595 0.00275000 -0.00337288
v -0.00468868 0.00275000 -0.00368497
v -0.00758450 0.00275000 -0.00017819
v -0.00713591 0.00275000 -0.00114427
v -0.00736727 0.00184853 -0.00132632
v -0.00701634 0.00275000 -0.00134923
v -0.00673295 0.00275000 -0.00177983
v -0.00814445 0.00212081 0.00107681
v -0.00780102 0.00275000 0.00050498
v -0.00840993 0.00083274 0.00109072
v -0.00854997 0.00001804 0.00226750
v -0.00844146 -0.00048210 0.00109245
v -0.00785414 0.00201376 -0.00015983
v -0.00810623 0.00079065 -0.00014663
v -0.00813617 -0.00045787 -0.00014499
v -0.00759869 0.00072573 -0.00131420
v -0.00762617 -0.00042041 -0.00131269
v 0.00391611 -0.00210788 -0.00294125
v 0.00420798 -0.00114011 -0.00295651
v 0.00432259 -0.00013571 -0.00296254
v 0.00425625 0.00087304 -0.00295915
v 0.00401111 0.00185372 -0.00294646
v 0.00450677 0.00275000 -0.00195137
v -0.00632057 0.00256757 -0.00240864
v -0.00669790 0.00162990 -0.00238894
v -0.00690195 0.00063983 -0.00237825
v -0.00692619 -0.00037081 -0.00237692
v -0.00676982 -0.00136955 -0.00238500
v -0.00643788 -0.00232428 -0.00240221
v 0.00263419 -0.00251786 -0.00375922
v 0.00301902 -0.00176450 -0.00377931
v 0.00326332 -0.00095443 -0.00379208
v 0.00335926 -0.00011371 -0.00379713
v 0.00330373 0.00073066 -0.00379430
v -0.00586536 0.00136419 -0.00331700
v -0.00603616 0.00053546 -0.00330806
v -0.00605645 -0.00031050 -0.00330694
v -0.00592556 -0.00114648 -0.00331370
v 0.00170559 -0.00195507 -0.00442705
v 0.00200438 -0.00137014 -0.00444264
v 0.00219406 -0.00074118 -0.00445256
v 0.00226855 -0.00008842 -0.00445648
v 0.00222544 0.00056717 -0.00445428
v 0.00206612 0.00120452 -0.00444603
v -0.00370170 0.00275000 -0.00418534
v -0.00385511 0.00270847 -0.00413787
v -0.00400254 0.00275000 -0.00405338
v -0.00429853 0.00222421 -0.00411476
v -0.00464848 0.00166846 -0.00409650
v -0.00489370 0.00105906 -0.00408369
v -0.00502632 0.00041561 -0.00407675
v -0.00504207 -0.00024121 -0.00407588
v -0.00494045 -0.00089029 -0.00408113
v -0.00472472 -0.00151078 -0.00409232
v 0.00050425 0.00160101 -0.00489158
v 0.00018780 0.00191889 -0.00487512
v 0.00093910 0.00275000 -0.00441932
v -0.00018025 0.00217508 -0.00485598
v 0.00045964 0.00275000 -0.00454357
v -0.00058807 0.00236135 -0.00483476
v -0.00042076 0.00275000 -0.00468041
v -0.00102255 0.00247170 -0.00481215
v -0.00146972 0.00250260 -0.00478887
v 0.00042528 -0.00169249 -0.00488725
v 0.00069737 -0.00133580 -0.00490144
v 0.00090150 -0.00093620 -0.00491209
v 0.00103108 -0.00050652 -0.00491886
v 0.00108197 -0.00006058 -0.00492154
v 0.00105251 0.00038730 -0.00492004
v 0.00094367 0.00082271 -0.00491440
v 0.00075894 0.00123166 -0.00490481
v -0.00310148 0.00185015 -0.00470388
v -0.00340441 0.00151932 -0.00468809
v -0.00364348 0.00113965 -0.00467562
v -0.00381101 0.00072334 -0.00466687
v -0.00390161 0.00028376 -0.00466212
v -0.00391237 -0.00016496 -0.00466153
v -0.00384294 -0.00060839 -0.00466512
v -0.00369556 -0.00103228 -0.00467276
v -0.00347496 -0.00142300 -0.00468422
v -0.00655684 0.00275000 0.00123075
v 0.00199503 0.00275000 0.00388845
v 0.00330768 0.00275000 0.00415647
v 0.00451658 0.00275000 0.00473389
v 0.00555001 0.00275000 0.00558647
v 0.00065654 0.00275000 0.00394575
v -0.00035523 0.00275000 0.00398419
v -0.00134424 0.00275000 0.00376736
v -0.00732593 0.00275000 0.00163814
v -0.00784916 0.00275000 0.00233361
v -0.00568755 0.00275000 0.00118859
v -0.00490407 0.00275000 0.00150489
v -0.00224712 0.00275000 0.00330914
v -0.00044173 0.00100000 -0.00068074
v -0.00072292 0.00100000 -0.00036867
v 0.00000001 0.00100000 -0.00000000
v -0.00081039 0.00100000 0.00004219
v -0.00068073 0.00100000 0.00044173
v 0.00068074 0.00100000 -0.00044174
v 0.00036867 0.00100000 -0.00072293
v -0.00004218 0.00100000 -0.00081041
v 0.00044175 0.00100000 0.00068073
v 0.00072293 0.00100000 0.00036866
v 0.00081041 0.00100000 -0.00004219
v -0.00036866 0.00100000 0.00072292
v 0.00004220 0.00100000 0.00081040
v -0.00036866 0.00130000 0.00072292
v -0.00068073 0.00130000 0.00044174
v 0.00000001 0.00130000 -0.00000001
v -0.00081040 0.00130000 0.00004218
v -0.00072292 0.00130000 -0.00036867
v 0.00072293 0.00130000 0.00036866
v 0.00044175 0.00130000 0.00068073
v 0.00004220 0.00130000 0.00081040
v 0.00036867 0.00130000 -0.00072293
v 0.00068074 0.00130000 -0.00044174
v 0.00081041 0.00130000 -0.00004219
v -0.00044173 0.00130000 -0.00068074
v -0.00004218 0.00130000 -0.00081041
f 1 2 3
f 3 2 4
f 3 4 5
f 5 4 6
f 5 6 7
f 7 6 8
f 7 8 9
f 9 8 10
f 9 10 11
f 11 10 12
f 11 12 13
f 13 12 14
f 13 14 15
f 15 14 16
f 15 16 17
f 17 16 18
f 17 18 19
f 19 18 20
f 19 20 21
f 21 20 22
f 21 22 23
f 23 22 24
f 23 24 25
f 25 24 26
f 25 26 27
f 27 26 28
f 27 28 29
f 29 28 30
f 29 30 31
f 31 30 32
f 31 32 33
f 33 32 34
f 33 34 35
f 35 34 36
f 35 36 37
f 37 36 38
f 37 38 39
f 39 38 40
f 39 40 41
f 41 40 42
f 41 42 43
f 43 42 44
f 43 44 45
f 45 44 46
f 45 46 47
f 47 46 48
f 47 48 49
f 49 48 50
f 49 50 51
f 51 50 52
f 51 52 1
f 1 52 2
f 52 53 2
f 2 53 54
f 2 54 4
f 4 54 55
f 4 55 6
f 6 55 56
f 6 56 8
f 8 56 57
f 8 57 10
f 10 57 58
f 10 58 12
f 12 58 59
f 12 59 14
f 14 59 60
f 14 60 16
f 16 60 61
f 16 61 18
f 18 61 62
f 18 62 20
f 20 62 63
f 20 63 22
f 22 63 64
f 22 64 24
f 24 64 65
f 24 65 26
f 26 65 66
f 26 66 28
f 28 66 67
f 28 67 30
f 30 67 68
f 30 68 32
f 32 68 69
f 32 69 34
f 34 69 70
f 34 70 36
f 36 70 71
f 36 71 38
f 38 71 72
f 38 72 40
f 40 72 73
f 40 73 42
f 42 73 74
f 42 74 44
f 44 74 75
f 44 75 46
f 46 75 76
f 46 76 48
f 48 76 77
f 48 77 50
f 50 77 78
f 50 78 52
f 52 78 53
f 79 80 70
f 70 80 81
f 70 81 71
f 71 81 82
f 71 82 72
f 72 82 83
f 72 83 73
f 73 83 84
f 73 84 74
f 74 84 85
f 74 85 75
f 75 85 86
f 75 86 76
f 76 86 87
f 76 87 77
f 77 87 88
f 77 88 78
f 78 88 89
f 78 89 53
f 53 89 90
f 53 90 54
f 54 90 91
f 54 91 55
f 55 91 92
f 55 92 56
f 56 92 93
f 56 93 57
f 57 93 94
f 57 94 58
f 58 94 95
f 58 95 59
f 59 95 96
f 59 96 60
f 60 96 97
f 60 97 61
f 61 97 98
f 61 98 62
f 62 98 99
f 62 99 63
f 63 99 100
f 63 100 64
f 64 100 101
f 64 101 65
f 65 101 102
f 65 102 66
f 66 102 103
f 66 103 67
f 67 103 104
f 67 104 68
f 68 104 105
f 68 105 69
f 69 105 79
f 69 79 70
f 106 107 108
f 109 110 111
f 112 113 114
f 115 116 117
f 117 116 118
f 114 113 119
f 119 113 120
f 119 120 121
f 121 120 109
f 121 109 122
f 122 109 111
f 122 111 118
f 118 111 123
f 118 123 117
f 124 125 115
f 115 125 126
f 115 126 116
f 124 127 125
f 125 127 128
f 125 128 129
f 129 128 130
f 129 130 131
f 132 133 134
f 134 135 132
f 132 135 136
f 132 136 137
f 137 136 138
f 137 138 131
f 131 138 139
f 131 139 129
f 133 140 134
f 134 140 141
f 134 141 142
f 142 141 143
f 142 143 144
f 144 143 145
f 144 145 146
f 146 145 147
f 146 147 148
f 148 147 149
f 148 149 150
f 150 149 151
f 152 153 154
f 151 155 150
f 150 155 156
f 150 156 157
f 157 156 158
f 157 158 159
f 159 158 160
f 159 160 153
f 153 160 161
f 153 161 154
f 162 163 152
f 163 162 164
f 154 165 152
f 152 165 166
f 152 166 162
f 162 166 167
f 162 167 168
f 169 170 162
f 162 170 171
f 162 171 164
f 172 173 171
f 170 174 171
f 171 174 175
f 171 175 176
f 176 177 171
f 171 177 178
f 171 178 172
f 179 180 181
f 182 183 184
f 184 183 185
f 184 185 180
f 180 185 171
f 180 171 181
f 181 171 173
f 181 173 179
f 184 186 182
f 182 186 187
f 182 187 188
f 188 187 189
f 188 189 190
f 191 192 193
f 190 191 188
f 188 191 193
f 188 193 194
f 194 193 195
f 196 195 197
f 197 195 198
f 197 198 199
f 199 198 200
f 195 193 198
f 198 193 201
f 198 201 200
f 197 202 196
f 196 202 203
f 196 203 204
f 203 205 204
f 204 205 206
f 204 206 207
f 207 206 208
f 207 208 209
f 209 208 210
f 211 212 213
f 210 214 209
f 209 214 215
f 209 215 216
f 216 215 217
f 216 217 218
f 218 217 219
f 218 219 213
f 213 219 220
f 213 220 211
f 221 222 107
f 107 222 223
f 107 223 108
f 221 224 222
f 222 224 225
f 222 225 226
f 226 225 227
f 226 227 212
f 212 227 228
f 212 228 213
f 108 229 106
f 106 229 230
f 106 230 231
f 231 230 232
f 231 232 233
f 233 232 234
f 233 234 235
f 235 234 236
f 235 236 237
f 237 236 238
f 237 238 239
f 239 238 240
f 239 240 241
f 241 240 242
f 114 243 112
f 112 243 244
f 112 244 245
f 245 244 246
f 245 246 247
f 247 246 248
f 247 248 249
f 249 248 250
f 249 250 251
f 251 250 252
f 251 252 241
f 241 252 253
f 241 253 239
f 241 254 251
f 251 254 255
f 251 255 256
f 257 258 120
f 120 258 259
f 120 259 109
f 120 113 257
f 257 113 112
f 257 112 260
f 112 245 260
f 260 245 247
f 260 247 256
f 256 247 249
f 256 249 251
f 261 262 263
f 263 262 264
f 263 264 265
f 265 264 266
f 265 266 267
f 267 266 268
f 267 268 269
f 269 268 270
f 269 270 271
f 271 270 272
f 271 272 273
f 273 272 274
f 273 274 275
f 275 274 276
f 275 276 277
f 277 276 278
f 277 278 279
f 279 278 280
f 279 280 281
f 281 280 282
f 281 282 283
f 283 282 284
f 283 284 261
f 261 284 262
f 285 286 287
f 287 286 288
f 287 288 289
f 289 288 290
f 289 290 291
f 291 290 292
f 291 292 293
f 293 292 294
f 293 294 295
f 295 294 296
f 295 296 297
f 297 296 298
f 297 298 299
f 299 298 300
f 299 300 301
f 301 300 302
f 301 302 303
f 303 302 304
f 303 304 305
f 305 304 306
f 305 306 307
f 307 306 308
f 307 308 285
f 285 308 286
f 284 309 262
f 262 309 310
f 262 310 264
f 264 310 311
f 264 311 266
f 266 311 312
f 266 312 268
f 268 312 313
f 268 313 270
f 270 313 314
f 270 314 272
f 272 314 315
f 272 315 274
f 274 315 316
f 274 316 276
f 276 316 317
f 276 317 278
f 278 317 318
f 278 318 280
f 280 318 319
f 280 319 282
f 282 319 320
f 282 320 284
f 284 320 309
f 321 322 323
f 323 322 324
f 323 324 325
f 325 324 326
f 325 326 327
f 327 326 328
f 327 328 329
f 329 328 330
f 329 330 331
f 331 330 332
f 331 332 333
f 333 332 334
f 333 334 335
f 335 334 336
f 335 336 337
f 337 336 338
f 337 338 339
f 339 338 340
f 339 340 341
f 341 340 342
f 341 342 343
f 343 342 344
f 343 344 321
f 321 344 322
f 13 345 346
f 347 9 346
f 346 9 11
f 346 11 13
f 348 5 347
f 347 5 7
f 347 7 9
f 349 1 348
f 348 1 3
f 348 3 5
f 350 49 349
f 349 49 51
f 349 51 1
f 351 45 350
f 350 45 47
f 350 47 49
f 352 41 351
f 351 41 43
f 351 43 45
f 353 37 352
f 352 37 39
f 352 39 41
f 354 33 353
f 353 33 35
f 353 35 37
f 355 29 354
f 354 29 31
f 354 31 33
f 356 25 355
f 355 25 27
f 355 27 29
f 357 21 356
f 356 21 23
f 356 23 25
f 13 15 345
f 345 15 17
f 345 17 357
f 357 17 19
f 357 19 21
f 358 228 227
f 246 359 248
f 248 359 360
f 248 360 250
f 250 360 361
f 250 361 252
f 252 361 362
f 252 362 253
f 362 363 253
f 253 363 364
f 253 364 239
f 239 364 365
f 239 365 237
f 237 365 235
f 235 365 366
f 235 366 233
f 233 366 367
f 233 367 231
f 231 367 368
f 231 368 106
f 106 368 369
f 106 369 107
f 107 369 370
f 107 370 221
f 221 370 371
f 221 371 224
f 224 371 372
f 224 372 225
f 225 372 373
f 225 373 227
f 227 373 374
f 227 374 358
f 228 358 213
f 213 358 375
f 213 375 218
f 218 375 376
f 218 376 216
f 216 376 377
f 216 377 209
f 209 377 378
f 209 378 207
f 207 378 379
f 207 379 204
f 204 379 380
f 204 380 196
f 196 380 381
f 196 381 195
f 195 381 382
f 195 382 383
f 384 185 385
f 385 185 183
f 385 183 386
f 386 183 182
f 386 182 387
f 387 182 188
f 387 188 383
f 383 188 194
f 383 194 195
f 388 389 390
f 391 392 393
f 394 395 396
f 396 395 397
f 394 396 393
f 393 396 398
f 393 398 391
f 399 400 401
f 401 400 402
f 402 403 401
f 401 403 404
f 401 404 405
f 395 406 397
f 397 406 407
f 397 407 408
f 408 407 409
f 408 409 410
f 410 409 411
f 410 411 412
f 412 411 413
f 412 413 414
f 415 416 417
f 418 415 364
f 418 364 419
f 419 364 420
f 420 364 363
f 420 363 362
f 416 421 417
f 417 421 422
f 417 422 423
f 423 422 424
f 423 424 425
f 425 424 414
f 425 414 426
f 426 414 413
f 405 404 359
f 359 404 427
f 359 427 360
f 360 427 428
f 360 428 361
f 361 428 429
f 361 429 362
f 362 429 430
f 362 430 420
f 431 432 433
f 433 432 434
f 433 434 401
f 401 434 435
f 435 436 401
f 401 436 393
f 401 393 399
f 399 393 392
f 437 438 439
f 439 438 440
f 439 440 393
f 436 441 393
f 393 441 442
f 393 442 439
f 439 442 443
f 439 443 444
f 444 445 439
f 439 445 446
f 439 446 437
f 447 448 431
f 431 448 449
f 431 449 432
f 447 431 450
f 450 431 451
f 450 451 452
f 451 453 452
f 452 453 454
f 452 454 455
f 455 454 456
f 455 456 457
f 457 456 458
f 457 458 459
f 459 458 460
f 459 460 461
f 461 460 462
f 461 462 463
f 463 462 464
f 463 464 465
f 465 464 466
f 388 390 467
f 467 390 468
f 467 468 466
f 466 468 469
f 466 469 465
f 470 471 472
f 470 472 473
f 473 472 474
f 473 474 389
f 389 474 475
f 389 475 390
f 476 477 478
f 476 478 479
f 478 480 481
f 481 482 478
f 478 482 483
f 478 483 479
f 477 484 478
f 478 484 485
f 478 485 480
f 484 486 485
f 485 486 487
f 485 487 488
f 488 487 489
f 488 489 490
f 490 491 488
f 488 491 492
f 488 492 493
f 471 470 494
f 494 470 495
f 494 495 493
f 493 495 496
f 493 496 488
f 497 498 499
f 499 498 500
f 499 500 488
f 501 485 502
f 502 485 488
f 502 488 503
f 503 488 500
f 501 504 485
f 485 504 505
f 485 505 506
f 506 507 485
f 485 507 508
f 485 508 509
f 509 508 510
f 509 510 511
f 511 510 512
f 511 512 513
f 513 512 514
f 514 512 515
f 515 512 516
f 515 516 517
f 517 518 515
f 515 518 519
f 515 519 520
f 520 519 521
f 520 521 522
f 522 521 523
f 522 523 524
f 523 525 524
f 524 525 526
f 524 526 527
f 527 526 528
f 527 528 529
f 529 528 530
f 529 530 531
f 531 530 532
f 531 532 533
f 533 532 534
f 533 534 535
f 535 536 533
f 533 536 537
f 533 537 538
f 539 540 541
f 541 540 542
f 541 542 543
f 539 541 544
f 544 541 545
f 544 545 546
f 546 547 544
f 544 547 548
f 544 548 549
f 549 550 544
f 544 550 551
f 544 551 552
f 538 543 533
f 533 543 542
f 533 542 553
f 554 555 542
f 542 555 556
f 542 556 553
f 554 542 557
f 557 542 384
f 557 384 558
f 558 384 385
f 558 385 559
f 559 385 386
f 559 386 560
f 560 386 387
f 560 387 561
f 561 387 383
f 561 383 562
f 383 382 562
f 562 382 381
f 562 381 563
f 563 381 564
f 381 380 564
f 564 380 379
f 564 379 565
f 379 378 565
f 565 378 377
f 565 377 566
f 566 377 376
f 376 375 566
f 566 375 358
f 566 358 567
f 567 358 374
f 567 374 373
f 373 372 567
f 567 372 371
f 567 371 568
f 569 570 368
f 368 570 571
f 368 571 369
f 369 571 568
f 369 568 370
f 370 568 371
f 366 572 573
f 569 368 573
f 573 368 367
f 573 367 366
f 415 417 364
f 364 417 574
f 364 574 575
f 572 366 575
f 575 366 365
f 575 365 364
f 576 577 497
f 576 497 578
f 552 579 544
f 544 579 580
f 544 580 581
f 581 580 582
f 581 582 497
f 497 582 583
f 497 583 578
f 577 584 497
f 497 584 585
f 497 585 498
f 422 421 586
f 587 404 403
f 587 403 588
f 404 587 427
f 427 587 589
f 427 589 428
f 428 589 429
f 429 589 590
f 429 590 430
f 430 590 420
f 420 590 591
f 420 591 419
f 419 591 418
f 418 591 592
f 418 592 415
f 586 421 592
f 592 421 416
f 592 416 415
f 422 586 424
f 424 586 593
f 424 593 414
f 414 593 594
f 414 594 412
f 412 594 410
f 410 594 595
f 410 595 408
f 408 595 397
f 397 595 596
f 397 596 396
f 597 391 596
f 596 391 398
f 596 398 396
f 403 402 588
f 588 402 400
f 588 400 598
f 598 400 399
f 598 399 597
f 597 399 392
f 597 392 391
f 599 446 600
f 600 446 445
f 600 445 601
f 601 445 444
f 601 444 443
f 602 438 599
f 599 438 437
f 599 437 446
f 603 393 602
f 602 393 440
f 602 440 438
f 604 395 603
f 603 395 394
f 603 394 393
f 411 409 605
f 605 409 407
f 605 407 604
f 604 407 406
f 604 406 395
f 411 605 413
f 413 605 606
f 413 606 426
f 426 606 425
f 425 606 607
f 425 607 423
f 608 574 607
f 607 574 417
f 607 417 423
f 609 610 611
f 612 613 614
f 614 613 615
f 614 615 616
f 617 618 619
f 617 619 620
f 618 621 619
f 619 621 622
f 619 622 614
f 614 622 623
f 614 623 612
f 624 625 626
f 626 625 627
f 626 627 619
f 619 627 628
f 619 628 620
f 629 630 631
f 631 632 629
f 629 632 633
f 629 633 626
f 626 633 634
f 626 634 624
f 635 636 629
f 629 636 637
f 637 638 629
f 629 638 639
f 629 639 630
f 640 641 642
f 642 641 643
f 642 643 635
f 635 643 644
f 635 644 636
f 645 646 647
f 647 646 642
f 642 646 648
f 642 648 640
f 649 650 651
f 651 650 652
f 651 652 647
f 647 652 653
f 647 653 645
f 654 655 651
f 651 655 656
f 651 656 649
f 657 658 659
f 659 658 660
f 659 660 651
f 651 660 661
f 651 661 654
f 611 610 659
f 659 610 662
f 659 662 663
f 663 664 659
f 659 664 665
f 659 665 657
f 615 666 616
f 616 666 667
f 616 667 668
f 668 667 669
f 669 670 668
f 668 670 671
f 668 671 611
f 611 671 672
f 611 672 609
f 673 674 675
f 675 674 676
f 675 676 677
f 677 676 678
f 677 678 679
f 679 678 680
f 679 680 681
f 681 680 682
f 681 682 683
f 683 682 684
f 683 684 685
f 685 684 686
f 685 686 687
f 687 686 688
f 687 688 689
f 689 688 690
f 689 690 691
f 691 690 692
f 691 692 693
f 693 692 694
f 693 694 695
f 695 694 696
f 695 696 673
f 673 696 674
f 666 504 667
f 667 504 501
f 667 501 669
f 669 501 502
f 669 502 670
f 670 502 503
f 670 503 671
f 671 503 500
f 671 500 672
f 672 500 498
f 672 498 609
f 583 582 657
f 657 665 583
f 583 665 664
f 583 664 578
f 578 664 663
f 578 663 576
f 576 663 662
f 576 662 577
f 577 662 610
f 577 610 584
f 584 610 609
f 584 609 585
f 585 609 498
f 541 648 545
f 545 648 646
f 545 646 546
f 646 645 546
f 546 645 653
f 546 653 547
f 547 653 652
f 547 652 548
f 548 652 650
f 548 650 549
f 549 650 649
f 549 649 550
f 550 649 656
f 550 656 551
f 551 656 655
f 551 655 552
f 552 655 654
f 552 654 579
f 579 654 661
f 579 661 580
f 580 661 660
f 580 660 582
f 582 660 658
f 582 658 657
f 697 698 557
f 557 698 554
f 472 699 474
f 474 699 475
f 450 452 472
f 472 452 455
f 472 455 699
f 629 700 635
f 635 700 698
f 635 698 642
f 642 698 697
f 642 697 647
f 647 697 701
f 647 701 651
f 626 702 629
f 629 702 703
f 629 703 700
f 704 619 614
f 705 611 659
f 704 706 619
f 619 706 707
f 619 707 626
f 626 707 708
f 626 708 702
f 616 709 614
f 614 709 710
f 614 710 704
f 651 701 659
f 659 701 711
f 659 711 705
f 668 712 616
f 616 712 713
f 616 713 709
f 705 714 611
f 611 714 715
f 611 715 668
f 668 715 716
f 668 716 712
f 673 675 599
f 599 675 602
f 602 675 677
f 602 677 603
f 717 718 689
f 689 691 717
f 717 691 693
f 717 693 719
f 599 600 673
f 673 600 601
f 673 601 695
f 695 601 720
f 695 720 693
f 693 720 721
f 693 721 719
f 603 677 604
f 604 677 679
f 604 679 605
f 605 679 606
f 606 679 681
f 606 681 607
f 607 681 683
f 607 683 608
f 608 683 685
f 608 685 718
f 718 685 687
f 718 687 689
f 593 586 686
f 686 586 592
f 686 592 688
f 688 592 591
f 688 591 690
f 690 591 590
f 690 590 692
f 692 590 589
f 692 589 694
f 694 589 587
f 694 587 696
f 696 587 588
f 696 588 674
f 674 588 598
f 674 598 676
f 676 598 597
f 676 597 678
f 678 597 596
f 678 596 680
f 680 596 595
f 680 595 682
f 682 595 594
f 682 594 684
f 684 594 593
f 684 593 686
f 557 558 697
f 697 558 559
f 697 559 560
f 563 701 562
f 562 701 697
f 562 697 561
f 561 697 560
f 483 482 709
f 554 698 555
f 555 698 700
f 555 700 556
f 556 700 553
f 553 700 703
f 553 703 533
f 702 529 703
f 703 529 531
f 703 531 533
f 707 522 708
f 708 522 524
f 708 524 702
f 702 524 527
f 702 527 529
f 706 515 707
f 707 515 520
f 707 520 522
f 509 511 704
f 704 511 513
f 704 513 706
f 706 513 514
f 706 514 515
f 709 482 710
f 482 481 710
f 710 481 480
f 710 480 704
f 704 480 485
f 704 485 509
f 483 709 479
f 479 709 713
f 479 713 476
f 476 713 712
f 476 712 477
f 477 712 484
f 484 712 716
f 715 487 716
f 716 487 486
f 716 486 484
f 492 491 714
f 714 491 490
f 714 490 715
f 715 490 489
f 715 489 487
f 492 714 493
f 493 714 705
f 493 705 494
f 448 447 717
f 717 447 450
f 717 450 711
f 711 450 472
f 711 472 705
f 705 472 471
f 705 471 494
f 390 475 699
f 465 469 722
f 465 722 463
f 457 459 722
f 722 459 461
f 722 461 463
f 469 468 722
f 722 468 390
f 722 390 457
f 457 390 699
f 457 699 455
f 443 442 601
f 601 442 720
f 448 717 449
f 449 717 719
f 721 434 719
f 719 434 432
f 719 432 449
f 442 441 720
f 720 441 436
f 720 436 721
f 721 436 435
f 721 435 434
f 575 574 608
f 569 573 608
f 608 573 572
f 608 572 575
f 718 571 608
f 608 571 570
f 608 570 569
f 718 717 711
f 563 564 701
f 701 564 565
f 701 565 711
f 565 566 711
f 711 566 567
f 711 567 718
f 718 567 568
f 718 568 571
f 643 641 543
f 543 641 541
f 541 641 640
f 541 640 648
f 543 538 643
f 643 538 537
f 643 537 644
f 644 537 536
f 644 536 636
f 636 536 535
f 636 535 637
f 639 638 532
f 532 638 637
f 532 637 534
f 534 637 535
f 639 532 630
f 630 532 530
f 630 530 631
f 525 632 526
f 526 632 631
f 526 631 528
f 528 631 530
f 519 625 521
f 521 625 624
f 521 624 523
f 523 624 634
f 523 634 525
f 525 634 633
f 525 633 632
f 618 617 517
f 517 617 518
f 617 620 518
f 518 620 628
f 518 628 519
f 519 628 627
f 519 627 625
f 508 622 510
f 510 622 621
f 510 621 512
f 512 621 618
f 512 618 516
f 516 618 517
f 504 666 505
f 505 666 615
f 505 615 506
f 506 615 613
f 506 613 507
f 507 613 612
f 507 612 508
f 508 612 623
f 508 623 622
f 359 246 244
f 454 118 116
f 495 146 148
f 171 185 542
f 542 185 384
f 171 542 164
f 164 542 540
f 164 540 163
f 163 540 539
f 163 539 152
f 152 539 544
f 152 544 153
f 153 544 581
f 153 581 159
f 159 581 497
f 159 497 157
f 157 497 499
f 157 499 150
f 150 499 488
f 150 488 148
f 148 488 496
f 148 496 495
f 146 495 144
f 144 495 470
f 144 470 142
f 142 470 473
f 142 473 134
f 134 473 389
f 134 389 135
f 135 389 388
f 135 388 136
f 136 388 467
f 136 467 138
f 138 467 466
f 138 466 139
f 139 466 464
f 139 464 129
f 129 464 462
f 129 462 125
f 125 462 460
f 125 460 126
f 126 460 458
f 126 458 116
f 116 458 456
f 116 456 454
f 118 454 122
f 122 454 453
f 122 453 121
f 121 453 451
f 121 451 119
f 119 451 431
f 119 431 114
f 114 431 433
f 114 433 243
f 243 433 401
f 243 401 244
f 244 401 405
f 244 405 359
f 723 724 725
f 726 724 723
f 727 724 726
f 728 724 727
f 729 724 728
f 725 724 729
f 725 730 723
f 723 730 731
f 723 731 726
f 726 731 732
f 726 732 727
f 727 732 733
f 727 733 728
f 728 733 734
f 728 734 729
f 729 734 735
f 729 735 725
f 725 735 730
f 732 90 89
f 82 734 83
f 83 734 733
f 83 733 84
f 84 733 85
f 89 88 732
f 732 88 87
f 732 87 733
f 733 87 86
f 733 86 85
f 94 93 731
f 731 93 92
f 731 92 732
f 732 92 91
f 732 91 90
f 730 99 98
f 98 97 730
f 730 97 96
f 730 96 731
f 731 96 95
f 731 95 94
f 79 735 80
f 80 735 734
f 80 734 81
f 81 734 82
f 79 105 735
f 735 105 104
f 735 104 103
f 103 102 735
f 735 102 101
f 735 101 730
f 730 101 100
f 730 100 99
f 353 352 332
f 332 352 351
f 332 351 334
f 334 351 350
f 334 350 336
f 336 350 349
f 336 349 338
f 338 349 348
f 338 348 340
f 340 348 347
f 340 347 342
f 342 347 346
f 342 346 344
f 344 346 345
f 344 345 322
f 322 345 357
f 322 357 324
f 324 357 356
f 324 356 326
f 326 356 355
f 326 355 328
f 328 355 354
f 328 354 330
f 330 354 353
f 330 353 332
f 310 309 736
f 736 309 320
f 736 320 319
f 313 312 736
f 736 312 311
f 736 311 310
f 316 315 736
f 736 315 314
f 736 314 313
f 319 318 736
f 736 318 317
f 736 317 316
f 341 301 339
f 339 301 303
f 339 303 337
f 337 303 305
f 337 305 335
f 335 305 307
f 335 307 333
f 333 307 285
f 333 285 331
f 331 285 287
f 331 287 329
f 329 287 289
f 329 289 327
f 327 289 291
f 327 291 325
f 325 291 293
f 325 293 323
f 323 293 295
f 323 295 321
f 321 295 297
f 321 297 343
f 343 297 299
f 343 299 341
f 341 299 301
f 255 258 256
f 256 258 257
f 256 257 260
f 737 215 214
f 737 214 738
f 199 200 739
f 739 200 201
f 739 201 193
f 199 739 197
f 197 739 740
f 197 740 202
f 741 205 740
f 740 205 203
f 740 203 202
f 214 210 738
f 738 210 208
f 738 208 741
f 741 208 206
f 741 206 205
f 296 742 743
f 744 300 745
f 745 300 298
f 292 746 294
f 294 746 737
f 294 737 296
f 296 737 738
f 296 738 742
f 742 738 741
f 742 741 747
f 747 741 740
f 747 740 192
f 192 740 739
f 192 739 193
f 290 288 748
f 306 749 308
f 308 749 750
f 308 750 286
f 751 752 302
f 753 754 298
f 298 754 755
f 298 755 745
f 748 756 290
f 290 756 757
f 290 757 292
f 292 757 758
f 292 758 746
f 750 759 286
f 286 759 760
f 286 760 288
f 288 760 761
f 288 761 748
f 744 762 300
f 300 762 763
f 300 763 302
f 302 763 764
f 302 764 751
f 743 765 296
f 296 765 766
f 296 766 298
f 298 766 767
f 298 767 753
f 752 768 302
f 302 768 769
f 302 769 304
f 304 769 770
f 304 770 306
f 306 770 771
f 306 771 749
f 772 773 774
f 772 774 775
f 776 775 774
f 777 776 774
f 778 777 774
f 779 778 774
f 780 779 774
f 781 780 774
f 782 781 774
f 783 782 774
f 784 783 774
f 785 784 774
f 786 785 774
f 787 786 774
f 788 787 774
f 789 788 774
f 790 789 774
f 791 790 774
f 792 791 774
f 793 792 774
f 794 793 774
f 795 794 774
f 796 795 774
f 797 796 774
f 798 797 774
f 799 798 774
f 800 799 774
f 801 800 774
f 802 801 774
f 803 802 774
f 804 803 774
f 805 804 774
f 806 805 774
f 807 806 774
f 773 807 774
f 808 809 810
f 811 812 813
f 814 815 816
f 750 817 818
f 768 819 769
f 190 189 820
f 190 820 191
f 191 820 747
f 191 747 192
f 821 743 742
f 822 823 765
f 824 825 767
f 826 754 827
f 827 754 753
f 745 755 828
f 828 829 745
f 745 829 830
f 745 830 744
f 744 830 831
f 744 831 762
f 762 831 832
f 762 832 763
f 832 833 763
f 763 833 834
f 763 834 764
f 764 834 835
f 764 835 751
f 751 835 836
f 751 836 752
f 837 749 771
f 750 749 817
f 817 749 837
f 817 837 818
f 818 837 838
f 818 838 839
f 839 838 840
f 839 840 841
f 841 840 842
f 842 840 843
f 842 843 844
f 844 843 814
f 814 843 845
f 814 845 815
f 815 845 846
f 815 846 816
f 812 811 847
f 810 809 848
f 849 850 851
f 851 850 852
f 851 852 853
f 853 852 854
f 853 854 855
f 856 857 858
f 858 857 859
f 858 859 860
f 861 862 863
f 863 862 864
f 863 864 865
f 866 867 861
f 868 175 866
f 866 175 174
f 866 174 867
f 867 174 170
f 867 170 169
f 869 179 173
f 172 178 177
f 870 180 179
f 870 179 868
f 173 172 869
f 869 172 179
f 179 172 177
f 179 177 868
f 868 177 176
f 868 176 175
f 189 187 820
f 820 187 186
f 820 186 870
f 870 186 184
f 870 184 180
f 861 871 866
f 866 871 872
f 866 872 868
f 868 872 873
f 868 873 870
f 870 873 821
f 870 821 820
f 820 821 742
f 820 742 747
f 861 863 871
f 871 863 874
f 871 874 872
f 872 874 875
f 872 875 873
f 873 875 822
f 873 822 821
f 821 822 765
f 821 765 743
f 771 876 837
f 837 876 877
f 837 877 838
f 838 877 878
f 838 878 840
f 840 878 879
f 840 879 843
f 843 879 880
f 843 880 845
f 845 880 881
f 845 881 846
f 856 882 865
f 865 882 883
f 865 883 863
f 863 883 884
f 863 884 874
f 874 884 885
f 874 885 875
f 875 885 886
f 875 886 822
f 822 886 887
f 822 887 823
f 823 887 766
f 823 766 765
f 770 888 771
f 771 888 889
f 771 889 876
f 876 889 890
f 876 890 877
f 877 890 891
f 877 891 878
f 878 891 892
f 878 892 879
f 879 892 847
f 879 847 880
f 880 847 811
f 880 811 881
f 856 858 882
f 882 858 893
f 882 893 883
f 883 893 894
f 883 894 884
f 884 894 895
f 884 895 885
f 885 895 896
f 885 896 886
f 886 896 824
f 886 824 887
f 887 824 767
f 887 767 766
f 769 819 770
f 770 819 897
f 770 897 888
f 888 897 898
f 888 898 889
f 889 898 899
f 889 899 890
f 890 899 900
f 890 900 891
f 891 900 901
f 891 901 892
f 892 901 902
f 892 902 847
f 847 902 848
f 847 848 812
f 812 848 809
f 812 809 813
f 903 904 905
f 905 904 906
f 905 906 860
f 860 906 907
f 860 907 858
f 858 907 908
f 858 908 893
f 893 908 909
f 893 909 894
f 894 909 910
f 894 910 895
f 895 910 911
f 895 911 896
f 896 911 912
f 896 912 824
f 824 912 827
f 824 827 825
f 825 827 753
f 825 753 767
f 913 914 915
f 915 914 916
f 915 916 917
f 917 916 918
f 917 918 919
f 919 918 920
f 919 920 849
f 849 920 921
f 849 921 850
f 752 836 768
f 768 836 922
f 768 922 819
f 819 922 923
f 819 923 897
f 897 923 924
f 897 924 898
f 898 924 925
f 898 925 899
f 899 925 926
f 899 926 900
f 900 926 927
f 900 927 901
f 901 927 928
f 901 928 902
f 902 928 929
f 902 929 848
f 848 929 913
f 848 913 810
f 810 913 915
f 810 915 808
f 855 854 903
f 903 854 930
f 903 930 904
f 904 930 931
f 904 931 906
f 906 931 932
f 906 932 907
f 907 932 933
f 907 933 908
f 908 933 934
f 908 934 909
f 909 934 935
f 909 935 910
f 910 935 936
f 910 936 911
f 911 936 937
f 911 937 912
f 912 937 938
f 912 938 827
f 827 938 828
f 827 828 826
f 826 828 755
f 826 755 754
f 918 773 920
f 920 773 772
f 920 772 921
f 921 772 775
f 921 775 850
f 850 775 776
f 850 776 852
f 852 776 777
f 852 777 854
f 854 777 778
f 854 778 930
f 930 778 779
f 930 779 931
f 931 779 780
f 931 780 932
f 932 780 781
f 932 781 933
f 933 781 782
f 933 782 934
f 934 782 783
f 934 783 935
f 935 783 784
f 935 784 936
f 936 784 785
f 936 785 937
f 937 785 786
f 937 786 938
f 938 786 787
f 938 787 828
f 828 787 788
f 828 788 829
f 829 788 789
f 829 789 830
f 830 789 790
f 830 790 831
f 831 790 791
f 831 791 832
f 832 791 792
f 832 792 833
f 833 792 793
f 833 793 834
f 834 793 794
f 834 794 835
f 835 794 795
f 835 795 836
f 836 795 796
f 836 796 922
f 922 796 797
f 922 797 923
f 923 797 798
f 923 798 924
f 924 798 799
f 924 799 925
f 925 799 800
f 925 800 926
f 926 800 801
f 926 801 927
f 927 801 802
f 927 802 928
f 928 802 803
f 928 803 929
f 929 803 804
f 929 804 913
f 913 804 805
f 913 805 914
f 914 805 806
f 914 806 916
f 916 806 807
f 916 807 918
f 918 807 773
f 939 271 273
f 940 941 265
f 265 941 263
f 865 864 273
f 273 864 862
f 855 275 853
f 853 275 277
f 853 277 851
f 941 942 263
f 263 942 943
f 263 943 261
f 261 943 816
f 940 265 944
f 944 265 267
f 944 267 945
f 945 267 269
f 945 269 946
f 947 867 948
f 948 867 169
f 948 169 162
f 947 939 867
f 867 939 273
f 867 273 861
f 861 273 862
f 939 949 271
f 271 949 950
f 271 950 269
f 269 950 951
f 269 951 946
f 855 903 275
f 275 903 905
f 275 905 860
f 813 281 283
f 816 846 261
f 261 846 881
f 261 881 283
f 283 881 811
f 283 811 813
f 860 859 275
f 275 859 857
f 275 857 273
f 273 857 856
f 273 856 865
f 915 279 808
f 808 279 281
f 808 281 809
f 809 281 813
f 915 917 279
f 279 917 919
f 279 919 277
f 277 919 849
f 277 849 851
f 154 161 947
f 158 156 939
f 939 156 949
f 156 155 949
f 949 155 151
f 949 151 950
f 950 151 149
f 950 149 147
f 947 161 939
f 939 161 160
f 939 160 158
f 948 162 168
f 168 167 948
f 948 167 166
f 948 166 947
f 947 166 165
f 947 165 154
f 143 951 145
f 145 951 950
f 145 950 147
f 131 944 137
f 137 944 945
f 137 945 132
f 132 945 133
f 133 945 946
f 133 946 140
f 140 946 141
f 141 946 951
f 141 951 143
f 110 943 111
f 111 943 942
f 124 115 941
f 941 115 117
f 941 117 942
f 942 117 123
f 942 123 111
f 124 941 127
f 127 941 940
f 127 940 128
f 128 940 130
f 130 940 944
f 130 944 131
f 759 258 255
f 814 816 943
f 759 255 242
f 242 255 254
f 242 254 241
f 839 759 818
f 818 759 750
f 844 814 759
f 759 814 943
f 759 943 258
f 258 943 110
f 258 110 259
f 259 110 109
f 839 841 759
f 759 841 842
f 759 842 844
f 108 756 229
f 229 756 748
f 229 748 230
f 761 234 748
f 748 234 232
f 748 232 230
f 760 759 242
f 242 240 760
f 760 240 238
f 760 238 761
f 761 238 236
f 761 236 234
f 211 746 212
f 212 746 758
f 212 758 226
f 226 758 757
f 226 757 222
f 222 757 223
f 223 757 756
f 223 756 108
f 746 211 220
f 215 737 217
f 217 737 746
f 217 746 219
f 219 746 220
f 952 953 954
f 954 953 955
f 954 955 956
f 957 958 954
f 954 958 959
f 954 959 952
f 960 961 954
f 954 961 962
f 954 962 957
f 956 963 954
f 954 963 964
f 954 964 960
f 965 966 967
f 967 966 968
f 967 968 969
f 970 971 967
f 967 971 972
f 967 972 965
f 973 974 967
f 967 974 975
f 967 975 970
f 969 976 967
f 967 976 977
f 967 977 973
f 955 968 956
f 956 968 966
f 956 966 963
f 963 966 965
f 963 965 964
f 964 965 972
f 964 972 960
f 960 972 971
f 960 971 961
f 961 971 970
f 961 970 962
f 962 970 975
f 962 975 957
f 957 975 974
f 957 974 958
f 958 974 973
f 958 973 959
f 959 973 977
f 959 977 952
f 952 977 976
f 952 976 953
f 953 976 969
f 953 969 955
f 955 969 968

