# https://github.com/mikedh/trimesh

o right_finger2_link1.STL
v -0.00809425 -0.00295000 -0.00261496
v -0.00766261 -0.00299862 -0.00250734
v -0.00750389 -0.00295000 -0.00255257
v -0.00724418 -0.00314566 -0.00240302
v -0.00708195 -0.00295000 -0.00259390
v -0.00679848 -0.00295000 -0.00265146
v -0.00686737 -0.00338392 -0.00230907
v -0.00640682 -0.00295000 -0.00276084
v -0.00679848 0.00295000 -0.00265147
v -0.00640682 0.00295000 -0.00276083
v -0.00686737 0.00338392 -0.00230906
v -0.00708195 0.00295000 -0.00259390
v -0.00809425 0.00295000 -0.00261496
v -0.00750389 0.00295000 -0.00255257
v -0.00766261 0.00299862 -0.00250735
v -0.00724418 0.00314566 -0.00240302
v -0.00618449 -0.00384303 -0.00213881
v -0.00527206 -0.00295000 -0.00304398
v -0.00543730 -0.00417931 -0.00195251
v -0.00473311 -0.00295000 -0.00311017
v -0.00435762 -0.00295000 -0.00312174
v -0.00464641 -0.00438350 -0.00175532
v -0.00407254 -0.00295000 -0.00310842
v -0.00362565 -0.00295000 -0.00304394
v -0.00385311 -0.00445000 -0.00155753
v -0.00349023 -0.00295000 -0.00301297
v 0.00000000 -0.00700000 0.00150001
v -0.00057402 -0.00700000 0.00138583
v 0.00000000 -0.00700000 0.00000001
v 0.00138582 -0.00700000 0.00057403
v 0.00106066 -0.00700000 0.00106067
v 0.00057403 -0.00700000 0.00138582
v 0.00106066 -0.00700000 -0.00106065
v 0.00138582 -0.00700000 -0.00057402
v 0.00150000 -0.00700000 0.00000001
v -0.00057403 -0.00700000 -0.00138582
v 0.00000000 -0.00700000 -0.00149999
v 0.00057403 -0.00700000 -0.00138581
v -0.00150000 -0.00700000 0.00000001
v -0.00138582 -0.00700000 -0.00057402
v -0.00106066 -0.00700000 -0.00106065
v -0.00106066 -0.00700000 0.00106067
v -0.00138582 -0.00700000 0.00057403
v -0.00011108 -0.00195000 -0.00078762
v 0.00153868 -0.00195000 -0.00049673
v -0.00011380 -0.00214521 -0.00080799
v 0.00153461 -0.00217041 -0.00052242
v -0.00012113 -0.00232234 -0.00086284
v 0.00151964 -0.00237683 -0.00059723
v 0.00148868 -0.00255793 -0.00071472
v -0.00013453 -0.00250605 -0.00096315
v 0.00145562 -0.00266148 -0.00081325
v -0.00015181 -0.00265670 -0.00109250
v 0.00143244 -0.00271104 -0.00087218
v 0.00134494 -0.00282412 -0.00105312
v -0.00019665 -0.00287125 -0.00142819
v 0.00091583 -0.00295035 -0.00162197
v -0.00025000 -0.00295000 -0.00182754
v 0.00104936 -0.00294276 -0.00147644
v 0.00121727 -0.00290237 -0.00125917
v -0.00074245 -0.00295000 -0.00422130
v -0.00128867 -0.00295000 -0.00443039
v -0.00187981 -0.00295000 -0.00457887
v -0.00250866 -0.00295000 -0.00265579
v -0.00162272 -0.00295000 -0.00210247
v -0.00087107 -0.00295000 -0.00137717
v -0.00046696 -0.00295000 -0.00157825
v -0.00074002 -0.00295000 -0.00121434
v -0.00871188 -0.00295000 -0.00585809
v 0.00091396 -0.00295000 -0.00198161
v 0.00090342 -0.00295000 -0.00208478
v 0.00085798 -0.00295000 -0.00234024
v 0.00038731 -0.00295000 -0.00333317
v 0.00013486 -0.00295000 -0.00362030
v -0.00014774 -0.00295000 -0.00386739
v -0.00047941 -0.00295000 -0.00408739
v -0.00935082 -0.00295000 -0.00292826
v 0.00075152 -0.00295000 -0.00268579
v 0.00059165 -0.00295000 -0.00302348
v -0.00928624 -0.00295000 -0.00585375
v -0.00981685 -0.00295000 -0.00563387
v -0.01022593 -0.00295000 -0.00523069
v -0.01026211 -0.00295000 -0.00359219
v -0.00987122 -0.00295000 -0.00317135
v -0.01046617 -0.00295000 -0.00412909
v -0.01045349 -0.00295000 -0.00470332
v -0.00011108 0.00195000 -0.00078762
v 0.00153868 0.00195000 -0.00049673
v -0.00019798 0.00287521 -0.00143812
v -0.00025000 0.00295000 -0.00182754
v 0.00091583 0.00294984 -0.00162198
v -0.00015164 0.00265547 -0.00109121
v -0.00017293 0.00277996 -0.00125064
v 0.00124759 0.00288918 -0.00121475
v 0.00112753 0.00292962 -0.00138071
v -0.00019696 0.00287218 -0.00143049
v 0.00128598 0.00286823 -0.00115454
v 0.00139359 0.00277122 -0.00095831
v 0.00145708 0.00265743 -0.00080885
v -0.00012161 0.00233087 -0.00086643
v 0.00146083 0.00264782 -0.00079856
v 0.00150495 0.00247987 -0.00065694
v 0.00153758 0.00206961 -0.00050421
v 0.00152828 0.00228261 -0.00055637
v -0.00349023 0.00295000 -0.00301298
v -0.00385311 0.00445000 -0.00155753
v -0.00362565 0.00295000 -0.00304395
v -0.00466082 0.00438105 -0.00175892
v -0.00408350 0.00295000 -0.00310932
v -0.00435762 0.00295000 -0.00312175
v -0.00544651 0.00417606 -0.00195481
v -0.00474155 0.00295000 -0.00310956
v -0.00618877 0.00384064 -0.00213988
v -0.00527206 0.00295000 -0.00304399
v -0.00128866 0.00295000 -0.00443039
v -0.00074245 0.00295000 -0.00422130
v -0.00187981 0.00295000 -0.00457887
v -0.00250866 0.00295000 -0.00265580
v -0.00042915 0.00295000 -0.00162097
v -0.00052863 0.00295000 -0.00150176
v -0.00087107 0.00295000 -0.00137717
v -0.00037917 0.00295000 -0.00402795
v -0.00005426 0.00295000 -0.00379365
v 0.00020312 0.00295000 -0.00355084
v -0.00162272 0.00295000 -0.00210248
v -0.00060901 0.00295000 -0.00139951
v -0.00061627 0.00295000 -0.00138993
v -0.00074011 0.00295000 -0.00121446
v -0.00871188 0.00295000 -0.00585808
v 0.00044718 0.00295000 -0.00325109
v 0.00064616 0.00295000 -0.00292031
v 0.00079341 0.00295000 -0.00256881
v 0.00088531 0.00295000 -0.00220665
v 0.00092123 0.00295000 -0.00184032
v -0.00935082 0.00295000 -0.00292826
v -0.00928624 0.00295000 -0.00585375
v -0.00987122 0.00295000 -0.00317135
v -0.01026211 0.00295000 -0.00359219
v -0.01022593 0.00295000 -0.00523069
v -0.00981685 0.00295000 -0.00563387
v -0.01045349 0.00295000 -0.00470332
v -0.01046617 0.00295000 -0.00412908
v 0.00000000 0.00700000 0.00150000
v 0.00057403 0.00700000 0.00138582
v -0.00000000 0.00700000 0.00000000
v -0.00138582 0.00700000 0.00057403
v -0.00106066 0.00700000 0.00106067
v -0.00057403 0.00700000 0.00138582
v -0.00106066 0.00700000 -0.00106065
v -0.00138582 0.00700000 -0.00057402
v -0.00150000 0.00700000 0.00000000
v 0.00057402 0.00700000 -0.00138582
v -0.00000000 0.00700000 -0.00150000
v -0.00057402 0.00700000 -0.00138581
v 0.00150000 0.00700000 0.00000001
v 0.00138582 0.00700000 -0.00057402
v 0.00106066 0.00700000 -0.00106066
v 0.00106066 0.00700000 0.00106066
v 0.00138582 0.00700000 0.00057403
v -0.00113905 -0.00436711 0.00144115
v -0.00111206 -0.00435323 0.00158436
v -0.00105000 -0.00428835 0.00154456
v -0.00106559 -0.00431411 0.00194782
v -0.00105000 -0.00426919 0.00231505
v -0.00130121 -0.00441364 0.00086119
v -0.00105000 -0.00414300 0.00075596
v -0.00140252 -0.00442888 0.00060317
v -0.00105000 -0.00381121 -0.00011298
v -0.00160624 -0.00444516 0.00019122
v -0.00096049 -0.00319207 -0.00110346
v -0.00093220 -0.00315114 -0.00113370
v -0.00102172 -0.00330914 -0.00099151
v -0.00098498 -0.00323251 -0.00106916
v -0.00201970 -0.00445000 -0.00041247
v -0.00182960 -0.00445000 -0.00016444
v -0.00105000 -0.00344248 -0.00080657
v -0.00103204 -0.00333793 -0.00095763
v -0.00083068 -0.00303330 -0.00119524
v -0.00079391 -0.00299772 -0.00120597
v -0.00316601 -0.00445000 -0.00130751
v -0.00307304 -0.00445000 -0.00126045
v -0.00238551 -0.00445000 -0.00078711
v -0.00254585 -0.00445000 -0.00092018
v -0.00032211 -0.00265491 -0.00109448
v -0.00048910 -0.00267868 -0.00107114
v -0.00047663 -0.00251983 -0.00094246
v -0.00025000 -0.00195000 -0.00079971
v -0.00099156 -0.00195000 -0.00029992
v -0.00097843 -0.00195000 -0.00033052
v -0.00097797 -0.00223611 -0.00035835
v -0.00079150 -0.00295347 -0.00113736
v -0.00098401 -0.00318034 -0.00098768
v -0.00098189 -0.00299354 -0.00076102
v -0.00105000 -0.00308154 -0.00040623
v -0.00105000 -0.00289647 -0.00027213
v -0.00098013 -0.00276824 -0.00057680
v -0.00105000 -0.00263987 -0.00013911
v -0.00097880 -0.00251234 -0.00044156
v -0.00105000 -0.00240879 -0.00006006
v -0.00105000 -0.00209783 -0.00000594
v -0.00105000 -0.00195000 0.00000022
v -0.00050420 -0.00281185 -0.00123040
v -0.00036147 -0.00287806 -0.00142853
v -0.00052124 -0.00291479 -0.00141386
v -0.00078371 -0.00279805 -0.00095364
v -0.00077724 -0.00261293 -0.00080534
v -0.00077239 -0.00240461 -0.00069727
v -0.00076935 -0.00218097 -0.00063123
v -0.00076743 -0.00195000 -0.00060991
v -0.00042499 -0.00195000 -0.00078040
v -0.00045959 -0.00195000 -0.00077184
v -0.00046150 -0.00214863 -0.00079113
v -0.00046732 -0.00234087 -0.00084857
v -0.00025000 0.00195000 -0.00079958
v -0.00042499 0.00195000 -0.00078040
v -0.00046741 0.00234101 -0.00084791
v -0.00052125 0.00291524 -0.00141371
v -0.00050423 0.00281225 -0.00123011
v -0.00079153 0.00295348 -0.00113735
v -0.00079393 0.00299774 -0.00120597
v -0.00098555 0.00323271 -0.00106956
v -0.00096245 0.00319448 -0.00110206
v -0.00098459 0.00318032 -0.00098770
v -0.00093379 0.00315295 -0.00113279
v -0.00083153 0.00303421 -0.00119483
v -0.00105000 0.00344248 -0.00080657
v -0.00103220 0.00333770 -0.00095824
v -0.00102244 0.00331014 -0.00099081
v -0.00097871 0.00223610 -0.00035838
v -0.00105000 0.00247018 -0.00007775
v -0.00105000 0.00276040 -0.00019557
v -0.00032211 0.00265499 -0.00109429
v -0.00048915 0.00267900 -0.00107072
v -0.00078375 0.00279806 -0.00095362
v -0.00098253 0.00299352 -0.00076104
v -0.00077729 0.00261293 -0.00080530
v -0.00047670 0.00252006 -0.00094190
v -0.00062898 0.00236631 -0.00078802
v -0.00062321 0.00195000 -0.00070739
v -0.00105000 0.00195000 0.00000022
v -0.00099156 0.00195000 -0.00029991
v -0.00097860 0.00195000 -0.00033014
v -0.00076941 0.00218097 -0.00063118
v -0.00076743 0.00195000 -0.00060992
v -0.00105000 0.00308529 -0.00040942
v -0.00098081 0.00276822 -0.00057683
v -0.00097952 0.00251232 -0.00044160
v -0.00077245 0.00240460 -0.00069722
v -0.00029565 0.00232964 -0.00087496
v -0.00105000 0.00343468 -0.00079491
v -0.00201970 0.00445000 -0.00041247
v -0.00182961 0.00445000 -0.00016444
v -0.00160624 0.00444516 0.00019121
v -0.00105000 0.00380296 -0.00013041
v -0.00105000 0.00395039 0.00020280
v -0.00140252 0.00442888 0.00060318
v -0.00130121 0.00441364 0.00086119
v -0.00105000 0.00414878 0.00077642
v -0.00105000 0.00421905 0.00106477
v -0.00113905 0.00436711 0.00144115
v -0.00105000 0.00429079 0.00157665
v -0.00105000 0.00430015 0.00185044
v -0.00106563 0.00431416 0.00194740
v -0.00105000 0.00426919 0.00231505
v -0.00238551 0.00445000 -0.00078712
v -0.00254585 0.00445000 -0.00092018
v -0.00316601 0.00445000 -0.00130750
v -0.00307304 0.00445000 -0.00126046
v -0.00871188 -0.00495000 -0.00585808
v -0.00928624 -0.00495000 -0.00585374
v -0.00981685 -0.00495000 -0.00563387
v -0.01022593 -0.00495000 -0.00523068
v -0.01045349 -0.00495000 -0.00470331
v -0.01046617 -0.00495000 -0.00412909
v -0.01026211 -0.00495000 -0.00359219
v -0.00987122 -0.00495000 -0.00317134
v -0.00935082 -0.00495000 -0.00292827
v -0.00385311 -0.00495000 -0.00155753
v -0.00307304 -0.00495000 -0.00126045
v -0.00238551 -0.00495000 -0.00078711
v -0.00182960 -0.00495000 -0.00016443
v -0.00140252 -0.00495000 0.00060317
v -0.00105000 -0.00495000 0.00231505
v -0.00113905 -0.00495000 0.00144115
v 0.00220000 -0.00462199 0.00554539
v 0.00220000 -0.00425416 0.00587544
v -0.00105000 -0.00425416 0.00587544
v -0.00105000 -0.00462199 0.00554540
v -0.00105000 -0.00486562 0.00510520
v 0.00220000 -0.00486562 0.00510521
v -0.00105000 -0.00495000 0.00460922
v 0.00220000 -0.00495000 0.00460922
v -0.00187981 -0.00495000 -0.00457887
v 0.00000968 -0.00323740 -0.00379886
v -0.00002838 -0.00322191 -0.00382448
v 0.00002357 -0.00301362 -0.00375121
v 0.00163429 -0.00359534 -0.00194063
v 0.00159342 -0.00344621 -0.00192230
v 0.00176428 -0.00343390 -0.00157302
v 0.00107784 -0.00296721 -0.00166707
v 0.00170470 -0.00275445 -0.00080141
v 0.00175250 -0.00258585 -0.00063105
v 0.00178017 -0.00238905 -0.00050519
v 0.00179407 -0.00217405 -0.00042856
v 0.00186023 -0.00195000 -0.00036307
v 0.00162902 -0.00288455 -0.00100959
v 0.00152122 -0.00297064 -0.00124468
v 0.00138130 -0.00301303 -0.00149056
v 0.00121031 -0.00301382 -0.00173389
v 0.00101150 -0.00297887 -0.00196931
v 0.00091421 -0.00297408 -0.00230271
v -0.00040774 -0.00307141 -0.00405438
v 0.00110635 -0.00319191 -0.00250281
v 0.00102199 -0.00306804 -0.00240786
v 0.00133001 -0.00326870 -0.00220439
v 0.00124331 -0.00314541 -0.00213495
v 0.00152769 -0.00330866 -0.00189109
v 0.00143954 -0.00318791 -0.00184808
v 0.00160735 -0.00318813 -0.00155201
v 0.00200401 -0.00324450 -0.00088089
v 0.00202956 -0.00356254 -0.00095773
v 0.00190128 -0.00336772 -0.00121983
v 0.00196978 -0.00363238 -0.00116389
v 0.00184519 -0.00371225 -0.00151596
v 0.00157411 -0.00374944 -0.00208464
v 0.00142615 -0.00356951 -0.00230136
v 0.00118932 -0.00350452 -0.00264406
v 0.00069444 -0.00351121 -0.00324151
v 0.00092775 -0.00340895 -0.00296329
v 0.00105872 -0.00363994 -0.00284308
v 0.00119177 -0.00367969 -0.00267329
v 0.00139182 -0.00341214 -0.00226063
v 0.00116303 -0.00333987 -0.00258283
v 0.00063799 -0.00311336 -0.00315817
v 0.00064527 -0.00329125 -0.00325391
v 0.00038273 -0.00338896 -0.00352047
v 0.00200987 -0.00195000 -0.00022635
v 0.00212033 -0.00195000 -0.00005643
v 0.00200617 -0.00221114 -0.00025798
v 0.00214679 -0.00226065 -0.00002729
v 0.00199300 -0.00246176 -0.00035181
v 0.00213664 -0.00255830 -0.00014174
v 0.00196673 -0.00269120 -0.00050571
v 0.00211460 -0.00283010 -0.00032818
v 0.00192107 -0.00288776 -0.00071363
v 0.00207335 -0.00306312 -0.00057830
v 0.00184824 -0.00303933 -0.00096720
v 0.00174381 -0.00313937 -0.00125308
v 0.00059441 -0.00295896 -0.00303530
v 0.00219972 -0.00195000 0.00028262
v 0.00219969 -0.00218410 0.00026381
v 0.00219452 -0.00266525 0.00010194
v 0.00216972 -0.00309027 -0.00021501
v 0.00213321 -0.00331240 -0.00048126
v 0.00207835 -0.00347652 -0.00076057
v 0.00186023 0.00195000 -0.00036307
v 0.00219972 0.00195000 0.00028262
v 0.00212033 0.00195000 -0.00005643
v 0.00200983 0.00195000 -0.00022639
v 0.00133127 0.00308745 -0.00179619
v 0.00143844 0.00318694 -0.00184937
v 0.00160730 0.00318807 -0.00155044
v 0.00162873 0.00288439 -0.00100960
v 0.00170431 0.00275426 -0.00080196
v 0.00002256 0.00301266 -0.00375317
v -0.00002923 0.00322094 -0.00382649
v -0.00040787 0.00307108 -0.00405513
v -0.00055363 0.00301669 -0.00413134
v 0.00107685 0.00296647 -0.00166793
v 0.00091349 0.00297348 -0.00230450
v 0.00120926 0.00301297 -0.00173497
v 0.00138125 0.00301297 -0.00148920
v 0.00152134 0.00297073 -0.00124328
v 0.00175241 0.00258591 -0.00063099
v 0.00178030 0.00238927 -0.00050466
v 0.00179411 0.00217415 -0.00042830
v 0.00113386 0.00304598 -0.00205871
v 0.00124160 0.00314391 -0.00213850
v 0.00074869 0.00353232 -0.00318650
v 0.00105906 0.00363996 -0.00284347
v 0.00118877 0.00350374 -0.00264634
v 0.00122250 0.00368718 -0.00263386
v 0.00158393 0.00374853 -0.00206747
v 0.00139023 0.00341049 -0.00226450
v 0.00016168 0.00329891 -0.00369270
v 0.00038299 0.00338908 -0.00352012
v 0.00064599 0.00329206 -0.00325215
v 0.00092851 0.00340965 -0.00296211
v 0.00063869 0.00311416 -0.00315645
v 0.00116241 0.00333916 -0.00258501
v 0.00059509 0.00295973 -0.00303360
v 0.00110568 0.00319124 -0.00250487
v 0.00102128 0.00306740 -0.00240980
v 0.00207302 0.00306291 -0.00057903
v 0.00214460 0.00325848 -0.00040859
v 0.00211457 0.00283022 -0.00032811
v 0.00218628 0.00288241 -0.00003434
v 0.00213682 0.00255860 -0.00014105
v 0.00219469 0.00266787 0.00010151
v 0.00214688 0.00226079 -0.00002695
v 0.00219866 0.00243410 0.00020221
v 0.00159241 0.00344519 -0.00192366
v 0.00176425 0.00343393 -0.00157126
v 0.00174392 0.00313950 -0.00125145
v 0.00190142 0.00336794 -0.00121803
v 0.00184794 0.00303916 -0.00096724
v 0.00200377 0.00324435 -0.00088092
v 0.00192066 0.00288755 -0.00071431
v 0.00196664 0.00269128 -0.00050565
v 0.00199314 0.00246202 -0.00035119
v 0.00200624 0.00221126 -0.00025768
v 0.00186559 0.00370364 -0.00146182
v 0.00196952 0.00363311 -0.00116320
v 0.00204130 0.00354494 -0.00091232
v 0.00214289 0.00326703 -0.00041985
v -0.00871188 0.00495000 -0.00585808
v -0.00928624 0.00495000 -0.00585374
v -0.00981685 0.00495000 -0.00563387
v -0.01022593 0.00495000 -0.00523068
v -0.01045349 0.00495000 -0.00470331
v -0.01046617 0.00495000 -0.00412909
v -0.01026211 0.00495000 -0.00359219
v -0.00987122 0.00495000 -0.00317134
v -0.00935082 0.00495000 -0.00292826
v -0.00385311 0.00495000 -0.00155753
v -0.00307304 0.00495000 -0.00126045
v -0.00238551 0.00495000 -0.00078711
v -0.00182960 0.00495000 -0.00016443
v -0.00105000 0.00495000 0.00231505
v -0.00113905 0.00495000 0.00144115
v -0.00140252 0.00495000 0.00060317
v -0.00187981 0.00495000 -0.00457887
v -0.00105000 0.00462199 0.00554539
v -0.00105000 0.00425417 0.00587543
v 0.00220000 0.00425416 0.00587543
v 0.00220000 0.00462200 0.00554538
v 0.00220000 0.00486562 0.00510520
v -0.00105000 0.00486563 0.00510519
v 0.00220000 0.00495000 0.00460921
v -0.00105000 0.00495000 0.00460921
v 0.00220000 0.00149619 0.00756240
v 0.00220000 0.00207144 0.00726166
v 0.00141584 0.00179014 0.00742413
v 0.00049441 0.00207143 0.00726166
v 0.00049444 -0.00207144 0.00726166
v 0.00220000 -0.00207144 0.00726166
v 0.00141585 -0.00179015 0.00742413
v 0.00220000 -0.00149620 0.00756240
v -0.00105000 0.00163183 0.00336783
v -0.00105000 0.00129327 0.00282104
v -0.00105000 0.00078004 0.00243347
v -0.00105000 -0.00105461 0.00260348
v -0.00105000 0.00175000 0.00400000
v -0.00105000 -0.00105461 0.00539654
v -0.00105000 -0.00148788 0.00492126
v -0.00105000 0.00250023 0.00698934
v -0.00105000 0.00078004 0.00556654
v -0.00105000 0.00016147 0.00574254
v -0.00105000 -0.00250023 0.00698934
v -0.00105000 -0.00047891 0.00568320
v -0.00105000 0.00163183 0.00463218
v -0.00105000 0.00129327 0.00517897
v -0.00105000 -0.00172020 0.00432157
v -0.00105000 -0.00172020 0.00367845
v -0.00105000 -0.00148788 0.00307875
v -0.00105000 0.00016147 0.00225747
v -0.00105000 -0.00047891 0.00231681
v -0.00106066 -0.00495000 0.00106067
v -0.00057402 -0.00495000 0.00138583
v -0.00138582 -0.00495000 0.00057403
v -0.00150000 -0.00495000 0.00000000
v -0.00138582 -0.00495000 -0.00057402
v 0.00000000 -0.00495000 -0.00149999
v -0.00057403 -0.00495000 -0.00138581
v -0.00128867 -0.00495000 -0.00443039
v -0.00106066 -0.00495000 -0.00106065
v 0.00000000 -0.00495000 0.00150001
v -0.00040837 -0.00495000 -0.00405519
v 0.00038432 -0.00495000 -0.00351915
v 0.00057403 -0.00495000 -0.00138581
v 0.00106038 -0.00495000 -0.00284193
v 0.00106066 -0.00495000 -0.00106066
v 0.00159504 -0.00495000 -0.00204831
v 0.00138582 -0.00495000 -0.00057402
v 0.00196872 -0.00495000 -0.00116736
v 0.00150000 -0.00495000 0.00000001
v 0.00216774 -0.00495000 -0.00023137
v 0.00138582 -0.00495000 0.00057403
v 0.00220000 -0.00495000 0.00033572
v 0.00106066 -0.00495000 0.00106066
v 0.00057403 -0.00495000 0.00138582
v 0.00106038 0.00495000 -0.00284192
v -0.00040837 0.00495000 -0.00405519
v -0.00128867 0.00495000 -0.00443039
v 0.00038432 0.00495000 -0.00351915
v 0.00159504 0.00495000 -0.00204831
v 0.00196872 0.00495000 -0.00116736
v 0.00216774 0.00495000 -0.00023137
v 0.00220000 0.00495000 0.00033572
v 0.00057403 0.00495000 -0.00138581
v 0.00106066 0.00495000 -0.00106066
v 0.00138582 0.00495000 -0.00057402
v 0.00150000 0.00495000 0.00000001
v 0.00138582 0.00495000 0.00057403
v -0.00106066 0.00495000 -0.00106065
v -0.00057402 0.00495000 -0.00138582
v -0.00138582 0.00495000 -0.00057402
v -0.00150000 0.00495000 0.00000000
v -0.00138582 0.00495000 0.00057403
v -0.00106066 0.00495000 0.00106067
v -0.00057402 0.00495000 0.00138583
v 0.00000000 0.00495000 0.00150001
v 0.00057403 0.00495000 0.00138582
v 0.00106066 0.00495000 0.00106066
v 0.00000000 0.00495000 -0.00149999
v 0.00220000 -0.00047891 0.00568320
v 0.00220000 -0.00105461 0.00539654
v 0.00220000 -0.00148788 0.00492126
v 0.00220000 -0.00172020 0.00432157
v 0.00220000 -0.00172020 0.00367844
v 0.00220000 -0.00148788 0.00307875
v 0.00220000 -0.00105461 0.00260347
v 0.00220000 0.00175000 0.00400001
v 0.00220000 0.00163183 0.00336784
v 0.00220000 0.00129327 0.00282104
v 0.00220000 0.00078004 0.00243347
v 0.00220000 0.00016147 0.00225747
v 0.00220000 -0.00047891 0.00231681
v 0.00220000 0.00016147 0.00574254
v 0.00220000 0.00078004 0.00556654
v 0.00220000 0.00129327 0.00517897
v 0.00220000 0.00163183 0.00463218
f 1 2 3
f 3 2 4
f 3 4 5
f 5 4 6
f 6 4 7
f 6 7 8
f 9 10 11
f 9 11 12
f 13 14 15
f 15 14 12
f 15 12 16
f 16 12 11
f 8 7 17
f 8 17 18
f 18 17 19
f 18 19 20
f 20 19 21
f 21 19 22
f 21 22 23
f 23 22 24
f 24 22 25
f 24 25 26
f 27 28 29
f 30 31 29
f 29 31 32
f 29 32 27
f 33 34 29
f 29 34 35
f 29 35 30
f 36 37 29
f 29 37 38
f 29 38 33
f 39 40 29
f 29 40 41
f 29 41 36
f 28 42 29
f 29 42 43
f 29 43 39
f 44 45 46
f 46 45 47
f 46 47 48
f 47 49 48
f 48 49 50
f 48 50 51
f 51 50 52
f 51 52 53
f 52 54 53
f 53 54 55
f 53 55 56
f 57 58 59
f 59 58 56
f 59 56 60
f 60 56 55
f 61 62 58
f 24 26 63
f 63 26 64
f 63 64 62
f 62 64 65
f 62 65 58
f 58 65 66
f 58 66 67
f 67 66 68
f 8 18 69
f 57 70 58
f 58 70 71
f 58 71 72
f 8 69 6
f 73 74 58
f 74 75 58
f 58 75 76
f 58 76 61
f 77 1 69
f 18 20 69
f 69 20 21
f 69 21 63
f 63 21 23
f 63 23 24
f 72 78 58
f 58 78 79
f 58 79 73
f 1 3 69
f 69 3 5
f 69 5 6
f 69 80 77
f 77 80 81
f 77 81 82
f 83 84 85
f 85 84 77
f 85 77 86
f 86 77 82
f 44 87 45
f 45 87 88
f 89 90 91
f 92 93 94
f 91 95 89
f 89 95 94
f 89 94 96
f 96 94 93
f 94 97 92
f 92 97 98
f 92 98 99
f 92 99 100
f 100 99 101
f 100 101 102
f 88 87 103
f 103 87 100
f 103 100 104
f 104 100 102
f 105 106 107
f 107 106 108
f 107 108 109
f 109 108 110
f 110 108 111
f 110 111 112
f 112 111 113
f 112 113 114
f 114 113 11
f 114 11 10
f 90 115 116
f 117 118 105
f 119 120 121
f 116 122 90
f 90 122 123
f 90 123 124
f 118 117 125
f 125 117 115
f 125 115 121
f 121 115 90
f 121 90 119
f 120 126 121
f 121 126 127
f 121 127 128
f 112 114 129
f 129 114 10
f 124 130 90
f 90 130 131
f 90 131 132
f 132 133 90
f 90 133 134
f 90 134 91
f 105 107 117
f 117 107 109
f 117 109 129
f 129 109 110
f 129 110 112
f 10 9 129
f 129 9 12
f 129 12 14
f 14 13 129
f 129 13 135
f 129 135 136
f 136 135 137
f 136 137 138
f 139 140 141
f 141 140 136
f 141 136 142
f 142 136 138
f 143 144 145
f 146 147 145
f 145 147 148
f 145 148 143
f 149 150 145
f 145 150 151
f 145 151 146
f 152 153 145
f 145 153 154
f 145 154 149
f 155 156 145
f 145 156 157
f 145 157 152
f 144 158 145
f 145 158 159
f 145 159 155
f 160 161 162
f 162 161 163
f 162 163 164
f 160 162 165
f 165 162 166
f 165 166 167
f 167 166 168
f 167 168 169
f 170 171 66
f 172 173 174
f 169 168 175
f 175 168 176
f 175 176 174
f 174 176 177
f 174 177 172
f 171 178 66
f 66 178 179
f 66 179 68
f 64 26 25
f 25 180 64
f 64 180 181
f 64 181 65
f 173 170 174
f 174 170 66
f 174 66 182
f 182 66 65
f 182 65 183
f 183 65 181
f 184 185 186
f 187 44 46
f 188 189 190
f 68 179 191
f 192 173 172
f 172 177 192
f 192 177 176
f 192 176 193
f 178 171 192
f 192 171 170
f 192 170 173
f 56 58 67
f 176 194 193
f 193 194 195
f 193 195 196
f 196 195 197
f 196 197 198
f 198 197 199
f 198 199 190
f 190 199 200
f 190 200 188
f 188 200 201
f 185 184 202
f 202 184 203
f 202 203 204
f 179 178 191
f 191 178 192
f 191 192 205
f 205 192 193
f 205 193 206
f 206 193 196
f 206 196 207
f 207 196 198
f 207 198 208
f 208 198 190
f 208 190 209
f 209 190 189
f 187 46 210
f 211 210 212
f 212 210 46
f 212 46 213
f 213 46 48
f 213 48 186
f 48 51 186
f 186 51 53
f 186 53 184
f 184 53 56
f 184 56 203
f 203 56 67
f 203 67 204
f 204 67 68
f 204 68 202
f 202 68 191
f 202 191 185
f 185 191 205
f 185 205 186
f 186 205 206
f 186 206 213
f 213 206 207
f 213 207 212
f 212 207 208
f 212 208 211
f 211 208 209
f 214 215 216
f 90 89 119
f 126 120 217
f 217 120 119
f 126 217 127
f 127 217 218
f 127 218 128
f 128 218 219
f 128 219 220
f 221 222 223
f 223 222 224
f 223 224 219
f 219 224 225
f 219 225 220
f 226 227 223
f 223 227 228
f 223 228 221
f 229 230 231
f 232 233 218
f 218 233 234
f 218 234 219
f 219 234 235
f 219 235 223
f 119 89 217
f 217 89 96
f 217 96 218
f 218 96 93
f 218 93 232
f 236 237 216
f 236 216 238
f 238 216 215
f 238 215 239
f 240 230 241
f 241 230 229
f 241 229 242
f 242 229 243
f 242 243 244
f 245 246 247
f 247 246 236
f 247 236 248
f 248 236 238
f 239 244 238
f 238 244 243
f 238 243 248
f 248 243 229
f 248 229 247
f 247 229 231
f 247 231 245
f 93 92 232
f 232 92 249
f 249 92 100
f 249 100 87
f 87 214 249
f 249 214 216
f 249 216 232
f 232 216 237
f 232 237 233
f 233 237 236
f 233 236 234
f 234 236 246
f 234 246 235
f 235 246 245
f 235 245 223
f 223 245 250
f 223 250 226
f 128 220 121
f 121 220 225
f 121 225 224
f 222 221 251
f 251 221 228
f 228 227 251
f 251 227 226
f 251 226 252
f 252 226 253
f 226 254 253
f 253 254 255
f 253 255 256
f 256 255 257
f 255 258 257
f 257 258 259
f 257 259 260
f 259 261 260
f 260 261 262
f 260 262 263
f 263 262 264
f 224 222 121
f 121 222 251
f 121 251 125
f 251 265 125
f 125 265 266
f 125 266 118
f 106 105 267
f 267 105 118
f 267 118 268
f 268 118 266
f 69 269 270
f 69 270 80
f 80 270 271
f 80 271 81
f 81 271 272
f 81 272 82
f 82 272 273
f 82 273 86
f 86 273 274
f 86 274 85
f 85 274 275
f 85 275 83
f 83 275 276
f 83 276 84
f 84 276 277
f 84 277 77
f 1 77 277
f 278 25 22
f 278 22 277
f 22 19 277
f 277 19 17
f 277 17 7
f 7 4 277
f 277 4 2
f 277 2 1
f 25 278 180
f 180 278 279
f 180 279 181
f 181 279 183
f 183 279 280
f 183 280 182
f 182 280 174
f 174 280 281
f 174 281 175
f 175 281 169
f 169 281 282
f 169 282 167
f 283 164 163
f 283 163 284
f 163 161 284
f 284 161 160
f 284 160 282
f 282 160 165
f 282 165 167
f 285 286 287
f 287 288 285
f 285 288 289
f 285 289 290
f 290 289 291
f 290 291 292
f 269 69 293
f 293 69 63
f 294 295 296
f 297 298 299
f 57 300 70
f 301 50 302
f 302 50 49
f 302 49 303
f 303 49 47
f 303 47 304
f 304 47 45
f 304 45 305
f 55 54 301
f 301 54 52
f 301 52 50
f 301 306 55
f 55 306 307
f 55 307 60
f 60 307 308
f 60 308 59
f 59 308 309
f 57 59 300
f 300 59 309
f 300 309 70
f 70 309 310
f 70 310 71
f 71 310 311
f 71 311 72
f 72 311 78
f 74 296 75
f 75 296 295
f 75 295 76
f 76 295 312
f 76 312 61
f 313 314 315
f 315 314 316
f 315 316 317
f 317 316 318
f 317 318 319
f 320 321 322
f 322 321 323
f 322 323 299
f 299 323 324
f 299 324 297
f 297 324 325
f 297 325 326
f 326 325 327
f 328 329 330
f 330 329 327
f 330 327 331
f 331 327 325
f 298 297 332
f 332 297 326
f 332 326 333
f 333 326 327
f 333 327 334
f 334 327 329
f 334 329 335
f 335 329 328
f 335 328 336
f 337 338 339
f 339 338 340
f 339 340 341
f 341 340 342
f 341 342 343
f 343 342 344
f 343 344 345
f 345 344 346
f 345 346 347
f 347 346 320
f 347 320 348
f 348 320 322
f 348 322 319
f 319 322 299
f 319 299 317
f 317 299 298
f 317 298 315
f 315 298 332
f 315 332 313
f 313 332 333
f 313 333 349
f 349 333 334
f 338 350 340
f 340 350 351
f 340 351 342
f 342 351 352
f 342 352 344
f 344 352 353
f 344 353 346
f 346 353 354
f 346 354 320
f 320 354 355
f 320 355 321
f 305 337 304
f 304 337 339
f 304 339 303
f 303 339 341
f 303 341 302
f 302 341 343
f 302 343 301
f 301 343 345
f 301 345 306
f 306 345 347
f 306 347 307
f 307 347 348
f 307 348 308
f 308 348 319
f 308 319 309
f 309 319 318
f 309 318 310
f 310 318 316
f 310 316 311
f 311 316 314
f 311 314 78
f 78 314 313
f 78 313 79
f 79 313 349
f 79 349 73
f 73 349 334
f 73 334 74
f 74 334 335
f 74 335 296
f 296 335 336
f 296 336 294
f 45 88 356
f 357 350 358
f 358 350 338
f 358 338 359
f 359 338 337
f 359 337 356
f 356 337 305
f 356 305 45
f 360 361 362
f 98 363 364
f 124 123 365
f 365 123 122
f 366 365 367
f 367 365 122
f 367 122 368
f 368 122 116
f 95 91 369
f 369 91 134
f 369 134 133
f 132 370 133
f 133 370 371
f 133 371 369
f 369 371 372
f 369 372 95
f 95 372 373
f 95 373 94
f 363 98 373
f 373 98 97
f 373 97 94
f 102 101 364
f 364 101 99
f 364 99 98
f 364 374 102
f 102 374 375
f 102 375 104
f 104 375 376
f 104 376 103
f 103 376 356
f 103 356 88
f 360 377 378
f 379 380 381
f 380 382 381
f 381 382 383
f 381 383 384
f 385 386 387
f 387 386 388
f 387 388 389
f 389 388 390
f 389 390 391
f 391 390 392
f 377 393 378
f 378 393 392
f 378 392 384
f 384 392 390
f 384 390 381
f 381 390 388
f 381 388 379
f 379 388 386
f 394 395 396
f 396 395 397
f 396 397 398
f 398 397 399
f 398 399 400
f 400 399 401
f 400 401 358
f 358 401 357
f 361 402 362
f 362 402 403
f 362 403 404
f 404 403 405
f 404 405 406
f 406 405 407
f 406 407 408
f 408 407 394
f 408 394 409
f 409 394 396
f 409 396 410
f 410 396 398
f 410 398 411
f 411 398 400
f 411 400 359
f 359 400 358
f 360 378 361
f 361 378 384
f 361 384 402
f 402 384 383
f 402 383 403
f 403 383 412
f 403 412 405
f 405 412 413
f 405 413 407
f 407 413 414
f 407 414 394
f 394 414 415
f 394 415 395
f 366 385 365
f 365 385 387
f 365 387 124
f 124 387 389
f 124 389 130
f 130 389 391
f 130 391 131
f 131 391 392
f 131 392 132
f 132 392 393
f 132 393 370
f 370 393 377
f 370 377 371
f 371 377 360
f 371 360 372
f 372 360 362
f 372 362 373
f 373 362 404
f 373 404 363
f 363 404 406
f 363 406 364
f 364 406 408
f 364 408 374
f 374 408 409
f 374 409 375
f 375 409 410
f 375 410 376
f 376 410 411
f 376 411 356
f 356 411 359
f 416 129 136
f 416 136 417
f 417 136 140
f 417 140 418
f 418 140 139
f 418 139 419
f 419 139 141
f 419 141 420
f 420 141 142
f 420 142 421
f 421 142 138
f 421 138 422
f 422 138 137
f 422 137 423
f 423 137 135
f 423 135 424
f 113 111 424
f 424 111 425
f 425 111 108
f 425 108 106
f 135 13 424
f 424 13 15
f 15 16 424
f 424 16 11
f 424 11 113
f 106 267 425
f 425 267 426
f 267 268 426
f 426 268 266
f 426 266 427
f 427 266 265
f 427 265 428
f 428 265 251
f 428 251 252
f 263 264 429
f 263 429 260
f 260 429 430
f 260 430 257
f 257 430 431
f 257 431 256
f 428 252 431
f 431 252 253
f 431 253 256
f 416 432 129
f 129 432 117
f 433 434 435
f 435 436 433
f 433 436 437
f 433 437 438
f 438 437 439
f 438 439 440
f 441 442 443
f 443 442 444
f 445 446 447
f 447 446 448
f 449 264 450
f 450 264 451
f 194 176 452
f 449 453 264
f 264 453 440
f 264 440 429
f 164 454 455
f 456 457 458
f 456 458 459
f 458 460 459
f 459 460 454
f 459 454 287
f 287 454 164
f 438 440 433
f 433 440 453
f 433 453 434
f 434 453 461
f 434 461 456
f 456 461 462
f 456 462 457
f 289 288 291
f 291 288 287
f 291 287 283
f 283 287 164
f 226 250 254
f 254 250 245
f 254 245 255
f 455 463 164
f 164 463 464
f 164 464 162
f 162 464 465
f 162 465 166
f 166 465 452
f 166 452 168
f 168 452 176
f 262 231 264
f 264 231 230
f 264 230 240
f 451 264 466
f 466 264 240
f 466 240 467
f 467 240 201
f 467 201 452
f 452 201 200
f 452 200 199
f 199 197 452
f 452 197 195
f 452 195 194
f 262 261 231
f 231 261 259
f 231 259 245
f 245 259 258
f 245 258 255
f 459 287 445
f 445 287 286
f 445 286 446
f 468 469 284
f 284 469 283
f 468 284 470
f 470 284 282
f 470 282 471
f 471 282 281
f 471 281 472
f 473 474 475
f 281 280 472
f 472 280 279
f 472 279 476
f 476 279 269
f 476 269 474
f 474 269 293
f 474 293 475
f 283 469 291
f 291 469 477
f 291 477 292
f 475 478 473
f 473 478 479
f 473 479 480
f 480 479 481
f 480 481 482
f 482 481 483
f 482 483 484
f 484 483 485
f 484 485 486
f 486 485 487
f 486 487 488
f 488 487 489
f 488 489 490
f 490 489 292
f 490 292 491
f 491 292 477
f 275 274 276
f 276 274 273
f 279 278 269
f 269 278 277
f 269 277 270
f 270 277 276
f 270 276 271
f 271 276 273
f 271 273 272
f 382 380 492
f 366 367 493
f 493 367 494
f 494 367 368
f 494 368 116
f 492 380 495
f 380 379 495
f 495 379 386
f 495 386 493
f 493 386 385
f 493 385 366
f 382 492 383
f 383 492 496
f 383 496 412
f 412 496 497
f 412 497 413
f 413 497 414
f 414 497 498
f 414 498 415
f 351 350 489
f 489 350 357
f 489 357 499
f 499 357 401
f 401 399 499
f 499 399 397
f 499 397 498
f 498 397 395
f 498 395 415
f 355 354 487
f 487 354 353
f 487 353 489
f 489 353 352
f 489 352 351
f 485 323 487
f 487 323 321
f 487 321 355
f 481 331 483
f 483 331 325
f 483 325 485
f 485 325 324
f 485 324 323
f 479 328 481
f 481 328 330
f 481 330 331
f 312 295 478
f 478 295 294
f 478 294 479
f 479 294 336
f 479 336 328
f 312 478 61
f 61 478 475
f 61 475 62
f 62 475 293
f 62 293 63
f 116 115 494
f 494 115 117
f 494 117 432
f 500 501 496
f 496 501 497
f 497 501 502
f 497 502 498
f 498 502 503
f 498 503 499
f 499 503 504
f 499 504 439
f 424 425 416
f 416 425 426
f 505 506 432
f 432 416 505
f 505 416 426
f 505 426 507
f 507 426 427
f 507 427 508
f 508 427 428
f 508 428 509
f 509 428 431
f 509 431 510
f 510 431 430
f 510 430 511
f 511 430 429
f 511 429 512
f 512 429 440
f 512 440 513
f 513 440 439
f 513 439 514
f 514 439 504
f 496 492 500
f 500 492 495
f 500 495 515
f 515 495 493
f 515 493 506
f 506 493 494
f 506 494 432
f 416 417 424
f 424 417 418
f 424 418 419
f 423 424 422
f 422 424 419
f 422 419 421
f 421 419 420
f 442 435 444
f 444 435 434
f 444 434 456
f 456 459 445
f 448 441 447
f 447 441 443
f 447 443 445
f 445 443 444
f 445 444 456
f 441 448 516
f 516 448 517
f 517 448 446
f 517 446 518
f 446 286 518
f 518 286 285
f 518 285 519
f 519 285 290
f 519 290 520
f 520 290 292
f 520 292 521
f 521 292 489
f 521 489 522
f 439 523 499
f 499 523 524
f 499 524 525
f 525 526 499
f 499 526 527
f 499 527 489
f 489 527 528
f 489 528 522
f 516 529 441
f 441 529 530
f 441 530 442
f 442 530 531
f 442 531 435
f 435 531 532
f 435 532 436
f 436 532 523
f 436 523 437
f 437 523 439
f 87 44 214
f 214 44 187
f 214 187 215
f 201 240 188
f 188 240 241
f 188 241 189
f 189 241 242
f 189 242 209
f 242 244 209
f 209 244 239
f 209 239 211
f 211 239 215
f 211 215 210
f 210 215 187
f 27 469 28
f 28 469 468
f 28 468 42
f 42 468 470
f 42 470 43
f 43 470 471
f 43 471 39
f 39 471 472
f 39 472 40
f 40 472 476
f 40 476 41
f 41 476 474
f 41 474 36
f 36 474 473
f 36 473 37
f 37 473 480
f 37 480 38
f 38 480 482
f 38 482 33
f 33 482 484
f 33 484 34
f 34 484 486
f 34 486 35
f 35 486 488
f 35 488 30
f 30 488 490
f 30 490 31
f 31 490 491
f 31 491 32
f 32 491 477
f 32 477 27
f 27 477 469
f 512 148 511
f 511 148 147
f 511 147 510
f 510 147 146
f 510 146 509
f 509 146 151
f 509 151 508
f 508 151 150
f 508 150 507
f 507 150 149
f 507 149 505
f 505 149 154
f 505 154 506
f 506 154 153
f 506 153 515
f 515 153 152
f 515 152 500
f 500 152 157
f 500 157 501
f 501 157 156
f 501 156 502
f 502 156 155
f 502 155 503
f 503 155 159
f 503 159 504
f 504 159 158
f 504 158 514
f 514 158 144
f 514 144 513
f 513 144 143
f 513 143 512
f 512 143 148
f 453 523 461
f 461 523 532
f 461 532 462
f 462 532 531
f 462 531 457
f 457 531 530
f 457 530 458
f 458 530 529
f 458 529 460
f 460 529 516
f 460 516 454
f 454 516 517
f 454 517 455
f 455 517 518
f 455 518 463
f 463 518 519
f 463 519 464
f 464 519 520
f 464 520 465
f 465 520 521
f 465 521 452
f 452 521 522
f 452 522 467
f 467 522 528
f 467 528 466
f 466 528 527
f 466 527 451
f 451 527 526
f 451 526 450
f 450 526 525
f 450 525 449
f 449 525 524
f 449 524 453
f 453 524 523

