# https://github.com/mikedh/trimesh
v -0.00067481 -0.00966136 0.00079431
v -0.00202903 -0.00949682 -0.00055795
v -0.00067481 -0.00963394 -0.00055795
v 0.00067517 -0.00965887 0.00079431
v 0.00067517 -0.00965139 0.00215200
v -0.00067481 -0.00965139 0.00215200
v -0.00202903 -0.00951427 0.00215200
v -0.00202903 -0.00952175 0.00079431
v -0.00338326 -0.00926246 0.00079431
v -0.00338326 -0.00923005 -0.00055795
v -0.00202903 -0.00945443 -0.00191020
v 0.00067517 -0.00962646 -0.00055795
v -0.00067481 -0.00958158 -0.00191020
v 0.00067517 -0.00957660 -0.00191020
v 0.00202940 -0.00952175 0.00079431
v 0.00202940 -0.00951427 0.00215200
v 0.00067517 -0.00960901 0.00350426
v -0.00067481 -0.00960901 0.00350426
v -0.00338326 -0.00925249 0.00215200
v -0.00202903 -0.00946939 0.00350426
v -0.00412947 -0.00905553 0.00079431
v -0.00409545 -0.00904057 -0.00055795
v -0.00406994 -0.00903060 -0.00131282
v -0.00411459 -0.00905054 0.00215200
v -0.00347893 -0.00916273 -0.00182331
v -0.00308776 -0.00912284 -0.00326246
v -0.00202903 -0.00930734 -0.00326246
v 0.00202940 -0.00948934 -0.00055795
v 0.00202940 -0.00944695 -0.00191020
v -0.00067481 -0.00941953 -0.00326246
v 0.00067517 -0.00941703 -0.00326246
v 0.00202940 -0.00930235 -0.00326246
v 0.00338362 -0.00926246 0.00079431
v 0.00338362 -0.00925249 0.00215200
v 0.00202940 -0.00946939 0.00350426
v -0.00067481 -0.00953421 0.00485651
v 0.00067517 -0.00789621 0.03328107
v -0.00202903 -0.00939709 0.00485651
v -0.00349381 -0.00917520 0.00346081
v -0.00407632 -0.00903309 0.00298291
v -0.00322594 -0.00916772 0.00485651
v -0.00480765 -0.00877629 0.00079431
v -0.00477150 -0.00876881 -0.00055795
v -0.00460781 -0.00879374 -0.00182331
v -0.00399553 -0.00901065 -0.00221433
v -0.00479064 -0.00876881 0.00215200
v -0.00461206 -0.00879125 0.00346081
v -0.00376593 -0.00888350 -0.00326246
v -0.00282839 -0.00905553 -0.00396846
v 0.00338362 -0.00923005 -0.00055795
v 0.00309024 -0.00912284 -0.00326246
v 0.00348567 -0.00916273 -0.00182874
v -0.00202903 -0.00910788 -0.00401734
v -0.00067481 -0.00915775 -0.00406078
v 0.00067517 -0.00915525 -0.00406078
v 0.00202940 -0.00910539 -0.00401734
v 0.00282237 -0.00905303 -0.00396846
v 0.00407030 -0.00903060 -0.00132368
v 0.00409369 -0.00904057 -0.00055795
v 0.00412983 -0.00905553 0.00079431
v 0.00411495 -0.00905054 0.00215200
v 0.00407668 -0.00903309 0.00298291
v 0.00349205 -0.00917520 0.00346081
v 0.00322630 -0.00916772 0.00485651
v 0.00202940 -0.00938961 0.00485651
v -0.00067481 -0.00789621 0.03328107
v 0.00146815 -0.00770423 0.03463333
v 0.00136185 -0.00767681 0.03533933
v 0.00067517 -0.00779648 0.03463333
v -0.00146778 -0.00770423 0.03463333
v -0.00401679 -0.00901564 0.00388441
v -0.00163148 -0.00775160 0.03328107
v -0.00609172 -0.00811810 0.00079431
v -0.00609172 -0.00810563 -0.00055795
v -0.00621715 -0.00799843 -0.00190477
v -0.00595566 -0.00797350 -0.00326246
v -0.00473749 -0.00850703 -0.00326246
v -0.00605770 -0.00806574 0.00350426
v -0.00622353 -0.00801588 0.00223346
v -0.00473749 -0.00865662 0.00485651
v -0.00570054 -0.00781892 -0.00404449
v -0.00473749 -0.00798845 -0.00409337
v 0.00376842 -0.00888599 -0.00326246
v 0.00400440 -0.00901314 -0.00223062
v -0.00202903 -0.00834996 -0.00417483
v -0.00067481 -0.00834996 -0.00421827
v 0.00067517 -0.00834996 -0.00421827
v 0.00202940 -0.00834996 -0.00417483
v 0.00473785 -0.00798845 -0.00409337
v 0.00569878 -0.00781643 -0.00404449
v 0.00473785 -0.00850454 -0.00326246
v 0.00460817 -0.00879374 -0.00182874
v 0.00477187 -0.00876881 -0.00055795
v 0.00480588 -0.00877629 0.00079431
v 0.00479100 -0.00876881 0.00215200
v 0.00461029 -0.00879125 0.00346081
v 0.00401716 -0.00901564 0.00388441
v 0.00163184 -0.00775160 0.03328107
v -0.00067481 -0.00779648 0.03463333
v -0.00136149 -0.00767681 0.03533933
v 0.00214420 -0.00751475 0.03463333
v 0.00189971 -0.00747486 0.03587154
v 0.00202940 -0.00730533 0.03734328
v 0.00202940 -0.00715075 0.03869554
v 0.00067517 -0.00739010 0.03869554
v 0.00067517 -0.00754966 0.03734328
v 0.00067517 -0.00770673 0.03565431
v -0.00214384 -0.00751475 0.03463333
v -0.00230753 -0.00755963 0.03328107
v -0.00338326 -0.00704105 0.03463333
v -0.00679115 -0.00769177 0.00079431
v -0.00678690 -0.00768927 -0.00055795
v -0.00678478 -0.00768678 0.00183702
v -0.00677840 -0.00768180 -0.00144859
v -0.00675289 -0.00766434 -0.00235552
v -0.00663383 -0.00754716 -0.00326246
v -0.00673375 -0.00764938 0.00350426
v -0.00676352 -0.00767182 0.00273852
v -0.00599180 -0.00802336 0.00485651
v -0.00430805 -0.00647012 0.03599102
v -0.00711004 -0.00661223 -0.00404449
v -0.00612786 -0.00703607 -0.00412595
v -0.00801145 -0.00621083 -0.00363175
v -0.00473749 -0.00699618 -0.00422913
v 0.00595389 -0.00797100 -0.00326246
v -0.00067481 0.00789297 -0.00598327
v 0.00067517 0.00789297 -0.00598327
v 0.00473785 -0.00699618 -0.00422370
v 0.00612609 -0.00703607 -0.00412595
v 0.00710828 -0.00661223 -0.00404449
v 0.00800968 -0.00620834 -0.00362632
v 0.00662994 -0.00754467 -0.00326246
v 0.00621538 -0.00799593 -0.00189934
v 0.00608995 -0.00810563 -0.00055795
v 0.00608995 -0.00811810 0.00079431
v 0.00622389 -0.00801588 0.00223346
v 0.00605806 -0.00806574 0.00350426
v 0.00473785 -0.00865662 0.00485651
v 0.00338362 -0.00704105 0.03463333
v 0.00230790 -0.00755963 0.03328107
v -0.00067481 -0.00770673 0.03565431
v -0.00067481 -0.00754966 0.03734328
v -0.00067481 -0.00738511 0.03869554
v -0.00202903 -0.00714577 0.03869554
v -0.00202903 -0.00730284 0.03734328
v -0.00189935 -0.00747486 0.03587154
v 0.00338362 -0.00692886 0.03599102
v 0.00338362 -0.00680420 0.03734328
v 0.00348992 -0.00660226 0.03872269
v 0.00304985 -0.00647511 0.04005322
v 0.00202940 -0.00677678 0.04005322
v 0.00067517 -0.00697623 0.04005322
v -0.00067481 -0.00697374 0.04005322
v -0.00338326 -0.00680919 0.03734328
v -0.00338326 -0.00692886 0.03599102
v -0.00421025 -0.00641028 0.03734328
v -0.00746720 -0.00703607 0.00079431
v -0.00816239 -0.00636790 -0.00055795
v -0.00746508 -0.00704355 -0.00055795
v -0.00815814 -0.00636291 -0.00191020
v -0.00731839 -0.00714826 0.00223346
v -0.00813900 -0.00634048 0.00215200
v -0.00815601 -0.00636042 0.00079431
v -0.00731626 -0.00715823 -0.00190477
v -0.00814113 -0.00634297 -0.00273025
v -0.00666785 -0.00760201 0.00485651
v -0.00738854 -0.00692637 0.00485651
v -0.00756712 -0.00684409 0.00341736
v -0.00812625 -0.00632552 0.00290687
v -0.00488843 -0.00597398 0.03734328
v -0.00498410 -0.00603132 0.03599102
v -0.00831546 -0.00530831 -0.00404449
v -0.00751398 -0.00571220 -0.00413138
v -0.00844726 -0.00571220 -0.00321358
v -0.00951236 -0.00369523 -0.00397932
v 0.00675112 -0.00766185 -0.00234466
v -0.00202903 0.00789297 -0.00586379
v -0.00202903 0.01060055 -0.00588009
v -0.00067481 0.01195433 -0.00599956
v 0.00067517 0.01195433 -0.00600499
v 0.00202940 0.00924676 -0.00587465
v 0.00202940 0.00789297 -0.00586379
v 0.00751434 -0.00571220 -0.00413138
v 0.00831582 -0.00530581 -0.00404449
v 0.00844550 -0.00571220 -0.00321358
v 0.00813936 -0.00634297 -0.00272482
v 0.00751434 -0.00677179 -0.00321358
v 0.00951485 -0.00370022 -0.00397932
v 0.00677876 -0.00768180 -0.00144316
v 0.00678726 -0.00768927 -0.00055795
v 0.00679151 -0.00769177 0.00079431
v 0.00678514 -0.00768678 0.00183702
v 0.00676388 -0.00767182 0.00273852
v 0.00673411 -0.00764938 0.00350426
v 0.00599003 -0.00802336 0.00485651
v 0.00430841 -0.00647012 0.03599102
v -0.00202903 -0.00677927 0.04005322
v -0.00308138 -0.00648009 0.04005322
v -0.00350231 -0.00660475 0.03876613
v 0.00420637 -0.00640779 0.03734328
v 0.00411920 -0.00635543 0.03828823
v 0.00401290 -0.00629560 0.03918973
v 0.00372590 -0.00620834 0.04005322
v 0.00275860 -0.00633549 0.04075379
v 0.00202940 -0.00640779 0.04087870
v 0.00067517 -0.00649007 0.04101990
v -0.00067481 -0.00649007 0.04101990
v -0.00202903 -0.00641278 0.04088956
v -0.00412522 -0.00635793 0.03835883
v -0.00403380 -0.00630806 0.03926576
v -0.00866411 -0.00564239 -0.00055795
v -0.00865773 -0.00564239 -0.00191020
v -0.00861309 -0.00564239 0.00215200
v -0.00864710 -0.00564239 0.00079431
v -0.00929977 -0.00461272 -0.00191020
v -0.00919135 -0.00450800 -0.00326246
v -0.00732902 -0.00685905 0.00621420
v -0.00581960 -0.00529833 0.03734328
v -0.00642336 -0.00465011 0.03869554
v -0.00649565 -0.00470995 0.03734328
v -0.00806459 -0.00625072 0.00485651
v -0.00810074 -0.00629311 0.00380838
v -0.00853868 -0.00557258 0.00485651
v -0.00848341 -0.00576206 0.00341736
v -0.00463970 -0.00598395 0.03876613
v -0.00565165 -0.00514874 0.04005322
v -0.00574519 -0.00523102 0.03869554
v -0.00877891 -0.00420384 -0.00408794
v -0.00879805 -0.00293482 -0.00420198
v -0.00744382 -0.00428860 -0.00425629
v -0.00961653 -0.00293482 -0.00404449
v -0.00957614 -0.00382986 -0.00326246
v -0.00988228 -0.00293482 -0.00326246
v 0.00731662 -0.00715823 -0.00189934
v -0.00338326 0.00789297 -0.00560311
v -0.00338326 0.01060055 -0.00562484
v -0.00202903 0.01195433 -0.00588551
v -0.00202903 0.01312861 -0.00559226
v -0.00068118 0.01342031 -0.00559769
v 0.00068155 0.01342031 -0.00559769
v 0.00202940 0.01312861 -0.00559226
v 0.00202940 0.01195433 -0.00588551
v 0.00338362 0.01060055 -0.00563570
v 0.00338362 0.00924676 -0.00562484
v 0.00338362 0.00789297 -0.00560854
v 0.00879841 -0.00293482 -0.00420741
v 0.00744418 -0.00428860 -0.00425629
v 0.00877927 -0.00420633 -0.00408794
v 0.00918958 -0.00450800 -0.00326246
v 0.00929801 -0.00461022 -0.00191020
v 0.00865597 -0.00564239 -0.00191020
v 0.00815637 -0.00636042 -0.00191020
v 0.00961690 -0.00293482 -0.00404992
v 0.00988051 -0.00293482 -0.00326246
v 0.00957438 -0.00382986 -0.00326246
v 0.00746331 -0.00704355 -0.00055795
v 0.00816275 -0.00636790 -0.00055795
v 0.00746757 -0.00703607 0.00079431
v 0.00813936 -0.00634048 0.00215200
v 0.00731875 -0.00714826 0.00223346
v 0.00815425 -0.00636042 0.00079431
v 0.00812448 -0.00632552 0.00290687
v 0.00756749 -0.00684409 0.00341736
v 0.00738891 -0.00692637 0.00485651
v 0.00666821 -0.00760201 0.00485651
v 0.00498446 -0.00603132 0.03599102
v -0.00277949 -0.00634297 0.04077008
v -0.00375743 -0.00621582 0.04005322
v 0.00488242 -0.00596899 0.03734328
v 0.00463581 -0.00596650 0.03872269
v 0.00564138 -0.00513877 0.04005322
v 0.00473785 -0.00570472 0.04005322
v 0.00553083 -0.00505151 0.04090042
v 0.00468470 -0.00524847 0.04137290
v 0.00327945 -0.00585930 0.04128600
v 0.00338362 -0.00516121 0.04241017
v 0.00237805 -0.00489943 0.04332254
v 0.00147665 -0.00499168 0.04348003
v 0.00067517 -0.00609615 0.04169874
v -0.00067481 -0.00609615 0.04169874
v -0.00147841 -0.00499168 0.04348003
v -0.00473749 -0.00572217 0.04005322
v -0.00930190 -0.00461521 -0.00055795
v -0.00927426 -0.00455537 0.00215200
v -0.00929127 -0.00459277 0.00079431
v -0.00924875 -0.00450551 0.00350426
v -0.00962291 -0.00393458 -0.00191020
v -0.00704414 -0.00390964 0.04005322
v -0.00632982 -0.00458778 0.04005322
v -0.00849403 -0.00550277 0.00621420
v -0.00772232 -0.00309438 0.04005322
v -0.00818365 -0.00234643 0.04140548
v -0.00822829 -0.00241624 0.04005322
v -0.00921473 -0.00444069 0.00485651
v -0.00553684 -0.00505400 0.04090585
v -0.00963992 -0.00158103 -0.00405535
v -0.00993968 -0.00158103 -0.00326246
v -0.01000346 -0.00293482 -0.00191020
v -0.01032235 -0.00158103 -0.00055795
v -0.01017991 -0.00158103 -0.00191020
v -0.01084958 0.00435019 0.00006659
v -0.00432506 0.01060055 -0.00538046
v -0.00338326 0.01195433 -0.00560854
v -0.00338326 0.01284439 -0.00544019
v -0.00202903 0.01380426 -0.00515236
v -0.00113614 0.01394886 -0.00527184
v -0.00023261 0.01401119 -0.00533158
v 0.00023297 0.01401119 -0.00533158
v 0.00113650 0.01394886 -0.00527184
v 0.00202940 0.01380426 -0.00515236
v 0.00338362 0.01284439 -0.00544019
v 0.00338362 0.01195433 -0.00561398
v 0.00434243 0.01060055 -0.00539131
v 0.00964028 -0.00158103 -0.00405535
v 0.00962115 -0.00393208 -0.00191020
v 0.00930013 -0.00461521 -0.00055795
v 0.00866447 -0.00564239 -0.00055795
v 0.00993792 -0.00158103 -0.00326246
v 0.01084782 0.00435767 0.00007202
v 0.01018027 -0.00158103 -0.00191020
v 0.01032271 -0.00158103 -0.00055795
v 0.00999957 -0.00293482 -0.00191020
v 0.00864747 -0.00564239 0.00079431
v 0.00861345 -0.00564239 0.00215200
v 0.00848377 -0.00576206 0.00341736
v 0.00810110 -0.00629311 0.00380838
v 0.00806496 -0.00625072 0.00485651
v 0.00732938 -0.00685905 0.00621420
v 0.00648963 -0.00470995 0.03734328
v 0.00581358 -0.00529335 0.03734328
v 0.00573492 -0.00522105 0.03869554
v -0.00238194 -0.00490192 0.04332797
v -0.00338326 -0.00516869 0.04241560
v -0.00329185 -0.00586677 0.04129143
v -0.00468647 -0.00525346 0.04137290
v 0.00631956 -0.00459028 0.04005322
v 0.00690207 -0.00375258 0.04140548
v 0.00677876 -0.00362044 0.04209519
v 0.00510139 -0.00482214 0.04180193
v 0.00419786 -0.00502907 0.04218208
v 0.00338362 -0.00475233 0.04308358
v 0.00331559 -0.00400189 0.04418060
v 0.00282025 -0.00364288 0.04481056
v 0.00067517 -0.00442573 0.04421861
v 0.00067517 -0.00502658 0.04353977
v -0.00067481 -0.00502658 0.04353977
v -0.00067481 -0.00442573 0.04421861
v -0.00281989 -0.00364288 0.04481056
v -0.00962079 -0.00393707 -0.00055795
v -0.00959315 -0.00387723 0.00215200
v -0.00956976 -0.00382737 0.00350426
v -0.00960803 -0.00391463 0.00079431
v -0.00954213 -0.00376504 0.00485651
v -0.00690595 -0.00375756 0.04140548
v -0.00813900 -0.00228410 0.04211691
v -0.00859395 -0.00158103 0.04140548
v -0.00950811 -0.00368526 0.00621420
v -0.00510528 -0.00481965 0.04180736
v -0.00678478 -0.00362792 0.04210605
v -0.00847915 0.01060055 -0.00407707
v -0.01031384 0.00789297 -0.00191020
v -0.00985677 0.00789297 -0.00303980
v -0.00976535 0.00924676 -0.00313755
v -0.00998220 -0.00293482 -0.00055795
v -0.01034148 -0.00158103 0.00079431
v -0.01058597 -0.00022725 0.00079431
v -0.01083895 0.00171742 0.00142428
v -0.01085596 0.00248032 0.00130480
v -0.01086021 0.00387151 0.00082690
v -0.01084958 0.00473913 0.00006659
v -0.00422939 0.01195433 -0.00535873
v -0.00410396 0.01266488 -0.00532072
v -0.00557299 0.01407103 -0.00400104
v -0.00264981 0.01532508 -0.00391958
v -0.00174841 0.01539240 -0.00399018
v -0.00067481 0.01542730 -0.00402820
v 0.00067517 0.01542481 -0.00402277
v 0.00178916 0.01538741 -0.00399018
v 0.00269057 0.01533506 -0.00393587
v 0.00410432 0.01266488 -0.00532072
v 0.00557122 0.01407103 -0.00400647
v 0.00423825 0.01195433 -0.00536416
v 0.00848377 0.01060055 -0.00407707
v 0.00976571 0.00924676 -0.00313755
v 0.00985713 0.00789297 -0.00303437
v 0.01031421 0.00789297 -0.00191020
v 0.00962115 -0.00393707 -0.00055795
v 0.00928950 -0.00459277 0.00079431
v 0.01084782 0.00472666 0.00007202
v 0.01085845 0.00387649 0.00082690
v 0.01085420 0.00248032 0.00130480
v 0.01083932 0.00170495 0.00142428
v 0.01059271 -0.00022725 0.00079431
v 0.01034185 -0.00158103 0.00079431
v 0.00998256 -0.00293482 -0.00055795
v 0.00927249 -0.00455537 0.00215200
v 0.00924698 -0.00450551 0.00350426
v 0.00853904 -0.00557258 0.00485651
v 0.00849440 -0.00550277 0.00621420
v 0.00818401 -0.00234643 0.04140548
v 0.00772268 -0.00309438 0.04005322
v 0.00704663 -0.00391214 0.04005322
v 0.00641097 -0.00465011 0.03869554
v -0.00331736 -0.00400438 0.04418060
v -0.00338326 -0.00475483 0.04309444
v -0.00420175 -0.00503157 0.04218751
v 0.00813936 -0.00228410 0.04211691
v 0.00730387 -0.00279022 0.04255680
v 0.00692545 -0.00239380 0.04357778
v 0.00633656 -0.00329633 0.04299669
v 0.00543304 -0.00362542 0.04345287
v 0.00596665 -0.00380992 0.04263283
v 0.00468470 -0.00448556 0.04268171
v 0.00473785 -0.00379745 0.04370269
v 0.00372378 -0.00329882 0.04468022
v 0.00203152 0.00253019 0.04854692
v 0.00202940 0.00129607 0.04785178
v 0.00067517 0.00220857 0.04866097
v 0.00071131 0.00100188 0.04790066
v 0.00202940 -0.00369773 0.04483772
v 0.00067517 -0.00375008 0.04485944
v -0.00067481 -0.00375008 0.04485944
v -0.00202903 -0.00369773 0.04483772
v -0.00071095 0.00100188 0.04790066
v -0.00067481 0.00220857 0.04866097
v -0.00202903 0.00129607 0.04785178
v -0.00203329 0.00253019 0.04854692
v -0.00372341 -0.00332874 0.04468022
v -0.00473749 -0.00379745 0.04370269
v -0.00991417 -0.00293482 0.00215200
v -0.00986952 -0.00293482 0.00350426
v -0.00930827 -0.00042421 0.03599102
v -0.00933166 -0.00016741 0.03746818
v -0.00954213 0.00025144 0.03599102
v -0.00981850 -0.00293482 0.00485651
v -0.00730563 -0.00279022 0.04256223
v -0.00692509 -0.00239380 0.04357778
v -0.00782649 -0.00185777 0.04301841
v -0.00815176 -0.00095525 0.04345830
v -0.00831546 -0.00147632 0.04264369
v -0.00995243 0.00518540 0.04005322
v -0.00947197 0.00046087 0.03800583
v -0.00951662 0.00032623 0.03710433
v -0.00866411 -0.00158103 0.04005322
v -0.00468647 -0.00448556 0.04268714
v -0.00543267 -0.00362542 0.04345287
v -0.00596629 -0.00381241 0.04263826
v -0.00633407 -0.00329633 0.04300755
v -0.00826656 0.01149559 -0.00402820
v -0.00999495 0.00924676 -0.00191020
v -0.00959315 0.01016175 -0.00293118
v -0.01063061 0.00653919 -0.00055795
v -0.01035849 0.00789297 -0.00055795
v -0.00915308 0.01060803 -0.00333306
v -0.01030322 -0.00158103 0.00215200
v -0.01058171 -0.00022725 0.00215200
v -0.01083895 0.00171742 0.00173383
v -0.01085596 0.00246537 0.00217372
v -0.01085171 0.00383162 0.00210312
v -0.01084746 0.00471170 0.00079431
v -0.01078155 0.00538984 0.00079431
v -0.00700375 0.01284439 -0.00403906
v -0.00651903 0.01378431 -0.00326246
v -0.00584085 0.01424056 -0.00326246
v -0.00473749 0.01475664 -0.00326246
v -0.00351720 0.01520043 -0.00338737
v -0.00315579 0.01545722 -0.00301808
v -0.00213108 0.01555944 -0.00338737
v -0.00067481 0.01573895 -0.00326246
v 0.00067517 0.01573147 -0.00326246
v 0.00215483 0.01555695 -0.00339823
v 0.00315615 0.01546221 -0.00303437
v 0.00351756 0.01520791 -0.00339823
v 0.00473785 0.01475664 -0.00326246
v 0.00700411 0.01283940 -0.00403906
v 0.00826692 0.01149559 -0.00402820
v 0.00583697 0.01423807 -0.00326246
v 0.00651302 0.01377683 -0.00326246
v 0.00915769 0.01060803 -0.00333849
v 0.00959139 0.01016175 -0.00293661
v 0.00999532 0.00924676 -0.00191020
v 0.01035885 0.00789297 -0.00055795
v 0.01062885 0.00653919 -0.00055795
v 0.00960839 -0.00391463 0.00079431
v 0.01078192 0.00537488 0.00079431
v 0.01084569 0.00469924 0.00079431
v 0.01085207 0.00382414 0.00208683
v 0.01085632 0.00246537 0.00216829
v 0.01083932 0.00170495 0.00173383
v 0.01058845 -0.00022725 0.00215200
v 0.01030358 -0.00158103 0.00215200
v 0.00991453 -0.00293482 0.00215200
v 0.00959139 -0.00387723 0.00215200
v 0.00957013 -0.00382737 0.00350426
v 0.00954249 -0.00376504 0.00485651
v 0.00921509 -0.00444069 0.00485651
v 0.00822865 -0.00241873 0.04005322
v 0.00859219 -0.00158103 0.04140548
v 0.00831582 -0.00147632 0.04264369
v 0.00815212 -0.00095525 0.04345830
v 0.00782898 -0.00185777 0.04301841
v 0.00248435 0.00338285 0.04876958
v 0.00288403 0.00155536 0.04766714
v 0.00475698 -0.00288246 0.04444670
v 0.00596665 -0.00288246 0.04378958
v 0.00158082 0.00301635 0.04891078
v 0.00067517 0.00288671 0.04896509
v 0.00028187 0.00041599 0.04752594
v -0.00028151 0.00041599 0.04752594
v -0.00067481 0.00288671 0.04896509
v -0.00158471 0.00301635 0.04891078
v -0.00248824 0.00338036 0.04877501
v -0.00288366 0.00155536 0.04766714
v -0.00477363 -0.00289991 0.04444670
v -0.00596629 -0.00288246 0.04378415
v -0.01015865 -0.00158103 0.00621420
v -0.01020967 -0.00158103 0.00485651
v -0.01025857 -0.00158103 0.00350426
v -0.00974622 0.00112654 0.03599102
v -0.00279012 0.00428288 0.04890535
v -0.00286240 0.00518540 0.04895966
v -0.00815176 -0.00087048 0.04345830
v -0.00969094 0.00653919 0.04107421
v -0.00967181 0.00518540 0.04099274
v -0.00989716 0.00653919 0.04005322
v -0.01003322 0.00518540 0.03869554
v -0.01002046 0.00383162 0.03734328
v -0.00985677 0.00248032 0.03734328
v -0.00961016 0.00099689 0.03746818
v -0.00841537 0.01194935 -0.00313755
v -0.00790515 0.01239812 -0.00350684
v -0.00961228 0.01020164 -0.00191020
v -0.00944646 0.00846889 0.03869554
v -0.00925938 0.01087729 -0.00191020
v -0.00812625 0.01263496 -0.00260534
v -0.01061148 0.00653919 0.00079431
v -0.00963567 0.00779076 0.03869554
v -0.01076455 0.00121131 0.00217372
v -0.00995881 0.00248032 0.03599102
v -0.01005873 0.00383162 0.03599102
v -0.01083895 0.00290665 0.00305893
v -0.01083895 0.00338036 0.00305893
v -0.00745020 0.01301393 -0.00313755
v -0.00658706 0.01385911 -0.00191020
v -0.00590889 0.01429042 -0.00191020
v -0.00473749 0.01489127 -0.00191020
v -0.00377869 0.01526276 -0.00191020
v -0.00310264 0.01544226 -0.00191020
v -0.00202903 0.01565668 -0.00191020
v -0.00067481 0.01580876 -0.00191020
v 0.00067517 0.01580626 -0.00191020
v 0.00202940 0.01565668 -0.00191020
v 0.00473785 0.01488878 -0.00191020
v 0.00310300 0.01544476 -0.00191020
v 0.00377905 0.01526276 -0.00191020
v 0.00790551 0.01239812 -0.00351771
v 0.00841786 0.01194935 -0.00314842
v 0.00591350 0.01428793 -0.00191020
v 0.00658955 0.01385911 -0.00191020
v 0.00812874 0.01263746 -0.00261620
v 0.00745056 0.01301143 -0.00314842
v 0.00926186 0.01087729 -0.00191020
v 0.00961265 0.01020164 -0.00191020
v 0.00944044 0.00844895 0.03869554
v 0.01061184 0.00653919 0.00079431
v 0.00963391 0.00766111 0.04005322
v 0.00989327 0.00653919 0.04005322
v 0.01004209 0.00518540 0.04005322
v 0.01083932 0.00337038 0.00305350
v 0.01083932 0.00290665 0.00305350
v 0.01076916 0.00120383 0.00216829
v 0.01006335 0.00383162 0.03599102
v 0.00996343 0.00248032 0.03599102
v 0.01025893 -0.00158103 0.00350426
v 0.00974445 0.00112654 0.03599102
v 0.00986988 -0.00293482 0.00350426
v 0.00981674 -0.00293482 0.00485651
v 0.00951485 0.00032873 0.03709346
v 0.00933202 -0.00016492 0.03746275
v 0.00930863 -0.00041922 0.03599102
v 0.00950847 -0.00368526 0.00621420
v 0.00866447 -0.00158103 0.04005322
v 0.00947021 0.00047333 0.03799497
v 0.00968068 0.00427041 0.04105791
v 0.00973595 0.00522529 0.04147065
v 0.00952973 0.00570149 0.04212234
v 0.00286277 0.00518540 0.04895966
v 0.00279049 0.00428537 0.04890535
v 0.00203152 0.00383411 0.04902483
v 0.00067517 0.00383162 0.04925292
v -0.00067481 0.00383162 0.04925292
v -0.00203329 0.00383162 0.04902483
v -0.00202903 0.00518540 0.04924205
v -0.00285178 0.00653919 0.04895422
v -0.00958252 0.00743174 0.04091128
v -0.00277737 0.00737938 0.04889992
v -0.00963567 0.00766610 0.04005322
v -0.00911481 0.00924676 0.03734328
v -0.00904253 0.00924676 0.03869554
v -0.00812625 0.01263496 -0.00256189
v -0.00846427 0.01044597 0.03734328
v -0.00732264 0.01178480 0.03734328
v -0.00541992 0.01398626 0.01095525
v -0.00473749 0.01437020 0.00891872
v -0.00338326 0.01486634 0.00891872
v -0.00202903 0.01366713 0.04140548
v -0.00202903 0.01517300 0.00891872
v -0.00059827 0.01391894 0.04138376
v -0.00092779 0.01531262 0.00891872
v -0.00009655 0.01399374 0.04091671
v -0.00006891 0.01534254 0.00962472
v 0.00006077 0.01534254 0.00962472
v 0.00009691 0.01399374 0.04091671
v 0.00092178 0.01531013 0.00891872
v 0.00060076 0.01392144 0.04138376
v 0.00202940 0.01516552 0.00891872
v 0.00473785 0.01437020 0.00891872
v 0.00541815 0.01398626 0.01095525
v 0.00202940 0.01366713 0.04140548
v 0.00338362 0.01486385 0.00891872
v 0.00734001 0.01178480 0.03734328
v 0.00812874 0.01263746 -0.00254017
v 0.00846464 0.01047090 0.03734328
v 0.00910242 0.00924676 0.03734328
v 0.00903651 0.00924676 0.03869554
v 0.00958288 0.00743174 0.04098188
v 0.00967642 0.00649431 0.04142177
v 0.00961052 0.00100437 0.03746275
v 0.00985926 0.00248032 0.03734328
v 0.01002295 0.00383162 0.03734328
v 0.01021004 -0.00158103 0.00485651
v 0.00953824 0.00025892 0.03599102
v 0.00952973 0.00601313 0.04212234
v 0.00285214 0.00653919 0.04895422
v 0.00202940 0.00518540 0.04924205
v 0.00067517 0.00518540 0.04947558
v -0.00067481 0.00518540 0.04947558
v -0.00202903 0.00653919 0.04922577
v -0.00825806 0.01006202 0.03950472
v -0.00839412 0.01028641 0.03869554
v -0.00301760 0.00924676 0.04785722
v -0.00286028 0.01011438 0.04763455
v -0.00688044 0.01009194 0.04224725
v -0.00198439 0.00785558 0.04899767
v -0.00240745 0.00827941 0.04874786
v -0.00799869 0.01112411 0.03734328
v -0.00564314 0.01150556 0.04237216
v -0.00419325 0.01270727 0.04220380
v -0.00427616 0.01276461 0.04140548
v -0.00338326 0.01319343 0.04140548
v -0.00609172 0.01233579 0.03734328
v -0.00202903 0.01352004 0.04275774
v -0.00067481 0.01376187 0.04275774
v 0.00067517 0.01376187 0.04275774
v 0.00338362 0.01319343 0.04140548
v 0.00608995 0.01233329 0.03734328
v 0.00202940 0.01352004 0.04275774
v 0.00419361 0.01270727 0.04220380
v 0.00564563 0.01150556 0.04237216
v 0.00839235 0.01029887 0.03869554
v 0.00801819 0.01114655 0.03734328
v 0.00825629 0.01006202 0.03950472
v 0.00688080 0.01009443 0.04224725
v 0.00286064 0.01011438 0.04763455
v 0.00301796 0.00924676 0.04786265
v 0.00277773 0.00738188 0.04889992
v 0.00202940 0.00653919 0.04922577
v 0.00067517 0.00653919 0.04945929
v -0.00067481 0.00653919 0.04945929
v -0.00198439 0.00916449 0.04848718
v -0.00202903 0.01034126 0.04779748
v -0.00202903 0.01101940 0.04725983
v -0.00287941 0.01146069 0.04635290
v -0.00067481 0.00789297 0.04920947
v -0.00150393 0.00866087 0.04889449
v -0.00275823 0.01266738 0.04485944
v -0.00291343 0.01281198 0.04411000
v -0.00338326 0.01296157 0.04269800
v -0.00202903 0.01316601 0.04411000
v -0.00067481 0.01340535 0.04411000
v 0.00067517 0.01340535 0.04411000
v 0.00202940 0.01316601 0.04411000
v 0.00338362 0.01296157 0.04269800
v 0.00291379 0.01281198 0.04411000
v 0.00275860 0.01266738 0.04485944
v 0.00288828 0.01146817 0.04635833
v 0.00202940 0.01101940 0.04726526
v 0.00202940 0.01034126 0.04779748
v 0.00198688 0.00916449 0.04848718
v 0.00240994 0.00828440 0.04874786
v 0.00198688 0.00785558 0.04899767
v 0.00067517 0.00789297 0.04920947
v -0.00067481 0.01052326 0.04792782
v -0.00067481 0.01119890 0.04742818
v -0.00067481 0.00944123 0.04860666
v -0.00202903 0.01167261 0.04658099
v -0.00202903 0.01234825 0.04573379
v -0.00067481 0.00876309 0.04893794
v -0.00202903 0.01277707 0.04505495
v -0.00067481 0.01289924 0.04527218
v 0.00067517 0.01289924 0.04527218
v 0.00202940 0.01277707 0.04505495
v 0.00202940 0.01235573 0.04573379
v 0.00202940 0.01167759 0.04658642
v 0.00067517 0.01119890 0.04742818
v 0.00067517 0.01052326 0.04792782
v 0.00067517 0.00944123 0.04860666
v 0.00150854 0.00866087 0.04889449
v 0.00067517 0.00876309 0.04893794
v -0.00067481 0.01182967 0.04674934
v -0.00067481 0.01250532 0.04595102
v 0.00067517 0.01250532 0.04595102
v 0.00067517 0.01182967 0.04674934
f 1 2 3
f 1 3 4
f 1 4 5
f 1 5 6
f 1 6 7
f 1 7 8
f 1 8 2
f 2 8 9
f 2 9 10
f 2 10 11
f 2 11 3
f 3 12 4
f 3 11 13
f 3 13 14
f 3 14 12
f 4 15 16
f 4 16 5
f 4 12 28
f 4 28 15
f 5 16 17
f 5 17 18
f 5 18 6
f 6 18 7
f 7 19 9
f 7 9 8
f 7 18 20
f 7 20 19
f 9 21 22
f 9 22 23
f 9 23 10
f 9 19 24
f 9 24 21
f 10 23 25
f 10 25 11
f 11 26 27
f 11 27 13
f 11 25 26
f 12 14 29
f 12 29 28
f 13 27 30
f 13 30 31
f 13 31 14
f 14 31 32
f 14 32 29
f 15 28 50
f 15 50 33
f 15 33 16
f 16 33 34
f 16 34 35
f 16 35 17
f 17 36 18
f 17 35 37
f 17 37 36
f 18 36 38
f 18 38 20
f 19 20 39
f 19 39 40
f 19 40 24
f 20 38 41
f 20 41 39
f 21 42 43
f 21 43 22
f 21 24 42
f 22 43 23
f 23 44 45
f 23 45 25
f 23 43 44
f 24 46 42
f 24 40 47
f 24 47 46
f 25 45 26
f 26 45 48
f 26 48 49
f 26 49 27
f 27 49 30
f 28 29 50
f 29 32 51
f 29 51 52
f 29 52 50
f 30 49 53
f 30 53 54
f 30 54 55
f 30 55 31
f 31 55 56
f 31 56 57
f 31 57 32
f 32 57 51
f 33 50 58
f 33 58 59
f 33 59 60
f 33 60 61
f 33 61 34
f 34 61 62
f 34 62 63
f 34 63 35
f 35 63 64
f 35 64 65
f 35 65 37
f 36 37 66
f 36 66 38
f 37 67 68
f 37 68 69
f 37 69 99
f 37 99 66
f 37 65 67
f 38 66 70
f 38 70 41
f 39 41 71
f 39 71 40
f 40 71 47
f 41 70 72
f 41 72 71
f 42 73 74
f 42 74 43
f 42 46 73
f 43 74 75
f 43 75 44
f 44 75 76
f 44 76 45
f 45 76 77
f 45 77 48
f 46 47 78
f 46 78 79
f 46 79 73
f 47 71 80
f 47 80 78
f 48 77 49
f 49 81 82
f 49 82 53
f 49 77 81
f 50 52 58
f 51 83 84
f 51 84 52
f 51 57 83
f 52 84 58
f 53 82 85
f 53 85 54
f 54 85 86
f 54 86 87
f 54 87 55
f 55 87 88
f 55 88 56
f 56 88 89
f 56 89 57
f 57 89 90
f 57 90 91
f 57 91 83
f 58 84 92
f 58 92 93
f 58 93 59
f 59 93 60
f 60 93 94
f 60 94 61
f 61 94 95
f 61 95 62
f 62 96 97
f 62 97 63
f 62 95 96
f 63 97 64
f 64 97 98
f 64 98 67
f 64 67 65
f 66 99 100
f 66 100 70
f 67 98 101
f 67 101 68
f 68 101 102
f 68 102 103
f 68 103 104
f 68 104 105
f 68 105 106
f 68 106 107
f 68 107 69
f 69 107 141
f 69 141 99
f 70 100 108
f 70 108 72
f 71 72 109
f 71 109 110
f 71 110 80
f 72 108 109
f 73 111 112
f 73 112 74
f 73 79 113
f 73 113 111
f 74 112 114
f 74 114 75
f 75 114 115
f 75 115 76
f 76 115 116
f 76 116 81
f 76 81 77
f 78 117 118
f 78 118 79
f 78 80 119
f 78 119 117
f 79 118 113
f 80 110 120
f 80 120 119
f 81 121 122
f 81 122 82
f 81 116 123
f 81 123 121
f 82 122 124
f 82 124 85
f 83 91 84
f 84 91 125
f 84 125 92
f 85 124 126
f 85 126 86
f 86 126 127
f 86 127 87
f 87 127 88
f 88 127 128
f 88 128 89
f 89 128 129
f 89 129 90
f 90 129 130
f 90 130 131
f 90 131 132
f 90 132 125
f 90 125 91
f 92 133 93
f 92 125 133
f 93 133 134
f 93 134 94
f 94 134 135
f 94 135 95
f 95 136 137
f 95 137 138
f 95 138 96
f 95 135 136
f 96 138 97
f 97 138 139
f 97 139 140
f 97 140 98
f 98 140 101
f 99 141 100
f 100 141 142
f 100 142 143
f 100 143 144
f 100 144 145
f 100 145 146
f 100 146 108
f 101 139 147
f 101 147 148
f 101 148 103
f 101 103 102
f 101 140 139
f 103 148 104
f 104 148 149
f 104 149 150
f 104 150 151
f 104 151 105
f 105 151 152
f 105 152 153
f 105 153 143
f 105 143 142
f 105 142 106
f 106 142 141
f 106 141 107
f 108 146 145
f 108 145 154
f 108 154 155
f 108 155 110
f 108 110 109
f 110 155 156
f 110 156 120
f 111 157 158
f 111 158 159
f 111 159 112
f 111 113 157
f 112 159 160
f 112 160 114
f 113 118 161
f 113 161 162
f 113 162 163
f 113 163 157
f 114 164 115
f 114 160 164
f 115 165 116
f 115 164 165
f 116 165 123
f 117 119 166
f 117 166 167
f 117 167 118
f 118 167 168
f 118 168 169
f 118 169 161
f 119 120 166
f 120 156 170
f 120 170 171
f 120 171 166
f 121 172 173
f 121 173 122
f 121 123 172
f 122 173 126
f 122 126 124
f 123 165 174
f 123 174 175
f 123 175 172
f 125 132 176
f 125 176 133
f 126 177 178
f 126 178 237
f 126 237 179
f 126 179 180
f 126 180 127
f 126 173 177
f 127 180 181
f 127 181 182
f 127 182 183
f 127 183 129
f 127 129 128
f 129 183 130
f 130 183 184
f 130 184 131
f 131 185 186
f 131 186 187
f 131 187 132
f 131 184 188
f 131 188 185
f 132 187 186
f 132 186 176
f 133 189 134
f 133 176 189
f 134 189 190
f 134 190 135
f 135 190 191
f 135 191 192
f 135 192 136
f 136 192 193
f 136 193 137
f 137 193 194
f 137 194 195
f 137 195 138
f 138 195 196
f 138 196 139
f 139 196 147
f 143 153 197
f 143 197 144
f 144 197 198
f 144 198 199
f 144 199 145
f 145 199 154
f 147 196 200
f 147 200 148
f 148 200 201
f 148 201 149
f 149 202 150
f 149 201 202
f 150 203 204
f 150 204 151
f 150 202 203
f 151 204 205
f 151 205 152
f 152 205 206
f 152 206 207
f 152 207 153
f 153 207 208
f 153 208 197
f 154 209 156
f 154 156 155
f 154 199 210
f 154 210 209
f 156 209 170
f 157 163 158
f 158 163 211
f 158 211 212
f 158 212 160
f 158 160 159
f 160 212 165
f 160 165 164
f 161 169 162
f 162 213 214
f 162 214 163
f 162 169 213
f 163 214 211
f 165 212 215
f 165 215 216
f 165 216 174
f 166 217 167
f 166 171 218
f 166 218 219
f 166 219 220
f 166 220 217
f 167 217 221
f 167 221 222
f 167 222 168
f 168 222 169
f 169 222 223
f 169 223 224
f 169 224 213
f 170 209 225
f 170 225 226
f 170 226 227
f 170 227 171
f 171 227 218
f 172 175 228
f 172 228 173
f 173 228 229
f 173 229 230
f 173 230 177
f 174 216 175
f 175 231 228
f 175 216 232
f 175 232 233
f 175 233 231
f 176 186 234
f 176 234 189
f 177 235 236
f 177 236 178
f 177 230 229
f 177 229 231
f 177 231 235
f 178 236 237
f 179 237 238
f 179 238 239
f 179 239 180
f 180 239 240
f 180 240 241
f 180 241 242
f 180 242 181
f 181 242 243
f 181 243 244
f 181 244 182
f 182 244 245
f 182 245 246
f 182 246 247
f 182 247 183
f 183 246 248
f 183 248 184
f 183 247 246
f 184 248 188
f 185 188 249
f 185 249 186
f 186 250 251
f 186 251 252
f 186 252 234
f 186 249 250
f 188 248 253
f 188 253 254
f 188 254 255
f 188 255 249
f 189 234 252
f 189 252 190
f 190 252 256
f 190 256 191
f 191 256 257
f 191 257 258
f 191 258 192
f 192 259 260
f 192 260 193
f 192 258 261
f 192 261 259
f 193 262 263
f 193 263 264
f 193 264 194
f 193 260 262
f 194 264 265
f 194 265 195
f 195 265 196
f 196 266 269
f 196 269 200
f 196 265 266
f 197 208 267
f 197 267 198
f 198 267 268
f 198 268 210
f 198 210 199
f 200 269 201
f 201 269 270
f 201 270 202
f 202 271 272
f 202 272 203
f 202 270 271
f 203 272 273
f 203 273 274
f 203 274 204
f 204 274 275
f 204 275 276
f 204 276 277
f 204 277 278
f 204 278 205
f 205 278 206
f 206 278 279
f 206 279 280
f 206 280 207
f 207 280 281
f 207 281 208
f 208 281 267
f 209 210 225
f 210 268 282
f 210 282 226
f 210 226 225
f 211 214 283
f 211 283 215
f 211 215 212
f 213 284 285
f 213 285 214
f 213 224 223
f 213 223 286
f 213 286 284
f 214 285 283
f 215 283 287
f 215 287 232
f 215 232 216
f 217 220 288
f 217 288 221
f 218 227 219
f 219 289 288
f 219 288 220
f 219 227 289
f 221 290 223
f 221 223 222
f 221 288 291
f 221 291 292
f 221 292 290
f 223 290 293
f 223 293 294
f 223 294 286
f 226 282 295
f 226 295 289
f 226 289 227
f 228 231 229
f 231 296 235
f 231 233 297
f 231 297 296
f 232 287 298
f 232 298 233
f 233 298 299
f 233 299 300
f 233 300 301
f 233 301 297
f 235 296 236
f 236 302 303
f 236 303 237
f 236 296 302
f 237 303 304
f 237 304 238
f 238 304 305
f 238 305 306
f 238 306 239
f 239 306 307
f 239 307 308
f 239 308 240
f 240 308 309
f 240 309 241
f 241 309 310
f 241 310 311
f 241 311 242
f 242 311 312
f 242 312 243
f 243 312 313
f 243 313 314
f 243 314 244
f 244 314 253
f 244 253 245
f 245 253 246
f 246 253 248
f 249 255 250
f 250 315 316
f 250 316 317
f 250 317 251
f 250 255 315
f 251 317 257
f 251 257 252
f 252 257 256
f 253 314 318
f 253 318 254
f 254 318 319
f 254 319 320
f 254 320 321
f 254 321 322
f 254 322 255
f 255 322 315
f 257 317 261
f 257 261 258
f 259 261 323
f 259 323 324
f 259 324 262
f 259 262 260
f 261 317 323
f 262 325 326
f 262 326 263
f 262 324 325
f 263 326 264
f 264 327 328
f 264 328 265
f 264 326 327
f 265 328 329
f 265 329 330
f 265 330 266
f 266 330 331
f 266 331 269
f 267 281 332
f 267 332 333
f 267 333 334
f 267 334 335
f 267 335 268
f 268 335 295
f 268 295 282
f 269 331 271
f 269 271 270
f 271 336 273
f 271 273 272
f 271 331 336
f 273 336 337
f 273 337 338
f 273 338 339
f 273 339 274
f 274 339 340
f 274 340 275
f 275 340 276
f 276 341 277
f 276 340 341
f 277 341 342
f 277 342 343
f 277 343 278
f 278 343 344
f 278 344 345
f 278 345 279
f 279 345 346
f 279 346 280
f 280 346 281
f 281 346 347
f 281 347 348
f 281 348 332
f 283 285 349
f 283 349 287
f 284 350 285
f 284 286 351
f 284 351 350
f 285 352 349
f 285 350 352
f 286 294 353
f 286 353 351
f 287 349 298
f 288 289 354
f 288 354 355
f 288 355 292
f 288 292 291
f 289 295 354
f 290 292 293
f 292 355 356
f 292 356 293
f 293 356 294
f 294 357 353
f 294 356 357
f 295 335 358
f 295 358 359
f 295 359 354
f 296 360 302
f 296 297 361
f 296 361 362
f 296 362 363
f 296 363 360
f 297 301 361
f 298 349 352
f 298 352 364
f 298 364 365
f 298 365 299
f 299 365 366
f 299 366 367
f 299 367 300
f 300 367 301
f 301 367 368
f 301 368 369
f 301 369 370
f 301 370 361
f 302 371 303
f 302 360 371
f 303 371 372
f 303 372 304
f 304 372 373
f 304 373 305
f 305 373 374
f 305 374 306
f 306 374 375
f 306 375 307
f 307 375 376
f 307 376 308
f 308 376 377
f 308 377 378
f 308 378 379
f 308 379 309
f 309 379 310
f 310 379 311
f 311 380 312
f 311 379 381
f 311 381 380
f 312 380 382
f 312 382 313
f 313 382 383
f 313 383 314
f 314 383 384
f 314 384 385
f 314 385 386
f 314 386 318
f 315 322 387
f 315 387 316
f 316 387 388
f 316 388 323
f 316 323 317
f 318 386 319
f 319 389 390
f 319 390 391
f 319 391 392
f 319 392 320
f 319 386 389
f 320 392 393
f 320 393 321
f 321 393 394
f 321 394 322
f 322 394 395
f 322 395 387
f 323 388 324
f 324 388 396
f 324 396 397
f 324 397 398
f 324 398 325
f 325 398 326
f 326 398 327
f 327 398 399
f 327 399 400
f 327 400 401
f 327 401 402
f 327 402 328
f 328 402 329
f 329 402 403
f 329 403 330
f 330 403 336
f 330 336 331
f 332 348 404
f 332 404 405
f 332 405 333
f 333 405 406
f 333 406 334
f 334 406 335
f 335 406 358
f 336 402 337
f 336 403 402
f 337 407 338
f 337 402 407
f 338 407 408
f 338 408 409
f 338 409 410
f 338 410 411
f 338 411 412
f 338 412 339
f 339 412 411
f 339 411 413
f 339 413 340
f 340 413 414
f 340 414 341
f 341 414 342
f 342 414 343
f 343 414 415
f 343 415 416
f 343 416 417
f 343 417 418
f 343 418 419
f 343 419 420
f 343 420 344
f 344 420 421
f 344 421 422
f 344 422 347
f 344 347 346
f 344 346 345
f 347 422 423
f 347 423 348
f 348 423 424
f 348 424 425
f 348 425 426
f 348 426 427
f 348 427 428
f 348 428 429
f 348 429 404
f 350 430 364
f 350 364 352
f 350 351 430
f 351 353 431
f 351 431 430
f 353 357 432
f 353 432 433
f 353 433 434
f 353 434 435
f 353 435 431
f 354 359 355
f 355 359 436
f 355 436 437
f 355 437 438
f 355 438 439
f 355 439 440
f 355 440 356
f 356 440 441
f 356 441 442
f 356 442 443
f 356 443 433
f 356 433 444
f 356 444 357
f 357 444 432
f 358 406 445
f 358 445 446
f 358 446 447
f 358 447 359
f 359 447 446
f 359 446 448
f 359 448 437
f 359 437 436
f 360 449 372
f 360 372 371
f 360 363 449
f 361 450 451
f 361 451 363
f 361 363 362
f 361 370 452
f 361 452 453
f 361 453 450
f 363 451 454
f 363 454 449
f 364 430 365
f 365 430 455
f 365 455 456
f 365 456 366
f 366 456 457
f 366 457 367
f 367 457 458
f 367 458 368
f 368 458 369
f 369 458 459
f 369 459 460
f 369 460 370
f 370 460 461
f 370 461 452
f 372 449 462
f 372 462 373
f 373 462 463
f 373 463 464
f 373 464 465
f 373 465 374
f 374 465 466
f 374 466 467
f 374 467 468
f 374 468 375
f 375 468 469
f 375 469 376
f 376 469 377
f 377 469 470
f 377 470 378
f 378 470 379
f 379 470 471
f 379 471 472
f 379 472 473
f 379 473 474
f 379 474 381
f 380 381 475
f 380 475 476
f 380 476 383
f 380 383 382
f 381 474 477
f 381 477 478
f 381 478 475
f 383 476 384
f 384 479 480
f 384 480 386
f 384 386 385
f 384 476 479
f 386 480 481
f 386 481 482
f 386 482 483
f 386 483 389
f 387 395 484
f 387 484 388
f 388 484 493
f 388 493 396
f 389 483 485
f 389 485 486
f 389 486 390
f 390 486 487
f 390 487 488
f 390 488 391
f 391 488 392
f 392 488 489
f 392 489 393
f 393 489 490
f 393 490 394
f 394 490 491
f 394 491 492
f 394 492 395
f 395 492 493
f 395 493 484
f 396 493 494
f 396 494 397
f 397 494 495
f 397 495 496
f 397 496 398
f 398 496 497
f 398 497 399
f 399 497 400
f 400 498 407
f 400 407 402
f 400 402 401
f 400 497 498
f 404 429 405
f 405 429 406
f 406 429 445
f 407 498 499
f 407 499 500
f 407 500 501
f 407 501 409
f 407 409 408
f 409 411 410
f 409 501 500
f 409 500 502
f 409 502 503
f 409 503 504
f 409 504 505
f 409 505 411
f 411 505 414
f 411 414 413
f 414 505 415
f 415 505 504
f 415 504 503
f 415 503 416
f 416 502 506
f 416 506 418
f 416 418 417
f 416 503 502
f 418 425 424
f 418 424 419
f 418 506 507
f 418 507 510
f 418 510 425
f 419 424 509
f 419 509 508
f 419 508 421
f 419 421 420
f 421 508 509
f 421 509 422
f 422 509 424
f 422 424 423
f 425 427 426
f 425 510 511
f 425 511 427
f 427 511 512
f 427 512 513
f 427 513 428
f 428 513 514
f 428 514 515
f 428 515 429
f 429 446 445
f 429 515 446
f 430 431 518
f 430 518 455
f 431 435 516
f 431 516 517
f 431 517 518
f 432 444 433
f 433 443 434
f 434 443 519
f 434 519 518
f 434 518 517
f 434 517 516
f 434 516 435
f 437 439 438
f 437 448 446
f 437 446 515
f 437 515 514
f 437 514 513
f 437 513 512
f 437 512 439
f 439 512 520
f 439 520 521
f 439 521 522
f 439 522 523
f 439 523 524
f 439 524 441
f 439 441 440
f 441 524 523
f 441 523 525
f 441 525 526
f 441 526 527
f 441 527 528
f 441 528 442
f 442 528 529
f 442 529 443
f 443 529 519
f 449 454 530
f 449 530 531
f 449 531 462
f 450 532 451
f 450 453 533
f 450 533 532
f 451 532 534
f 451 534 535
f 451 535 530
f 451 530 454
f 452 461 536
f 452 536 453
f 453 536 525
f 453 525 537
f 453 537 533
f 455 518 519
f 455 519 456
f 456 538 457
f 456 519 539
f 456 539 538
f 457 538 539
f 457 539 540
f 457 540 458
f 458 541 542
f 458 542 459
f 458 540 526
f 458 526 541
f 459 542 526
f 459 526 460
f 460 526 525
f 460 525 461
f 461 525 536
f 462 531 463
f 463 543 535
f 463 535 544
f 463 544 464
f 463 531 543
f 464 544 545
f 464 545 546
f 464 546 465
f 465 546 467
f 465 467 466
f 467 546 547
f 467 547 548
f 467 548 549
f 467 549 468
f 468 549 469
f 469 549 550
f 469 550 551
f 469 551 470
f 470 551 552
f 470 552 471
f 471 552 472
f 472 553 474
f 472 474 473
f 472 552 554
f 472 554 555
f 472 555 553
f 474 553 477
f 475 478 556
f 475 556 476
f 476 556 557
f 476 557 479
f 477 553 558
f 477 558 559
f 477 559 478
f 478 559 560
f 478 560 561
f 478 561 556
f 479 557 480
f 480 560 562
f 480 562 563
f 480 563 481
f 480 557 560
f 481 563 564
f 481 564 482
f 482 565 483
f 482 564 566
f 482 566 567
f 482 567 565
f 483 565 485
f 485 565 567
f 485 567 568
f 485 568 486
f 486 568 487
f 487 569 488
f 487 568 569
f 488 569 570
f 488 570 568
f 488 568 489
f 489 571 490
f 489 568 572
f 489 572 573
f 489 573 571
f 490 574 491
f 490 571 573
f 490 573 575
f 490 575 574
f 491 574 576
f 491 576 492
f 492 576 494
f 492 494 493
f 494 576 495
f 495 577 578
f 495 578 579
f 495 579 580
f 495 580 581
f 495 581 496
f 495 576 577
f 496 581 498
f 496 498 497
f 498 581 582
f 498 582 579
f 498 579 578
f 498 578 583
f 498 583 568
f 498 568 584
f 498 584 499
f 499 584 585
f 499 585 500
f 500 585 586
f 500 586 587
f 500 587 588
f 500 588 502
f 502 588 589
f 502 589 506
f 506 589 590
f 506 590 507
f 507 590 591
f 507 591 510
f 510 591 511
f 511 591 592
f 511 592 512
f 512 592 520
f 519 529 528
f 519 528 539
f 520 592 593
f 520 593 521
f 521 593 594
f 521 594 522
f 522 594 523
f 523 595 525
f 523 594 596
f 523 596 595
f 525 595 597
f 525 597 537
f 526 540 527
f 526 542 541
f 527 540 539
f 527 539 528
f 530 535 531
f 531 535 543
f 532 533 598
f 532 598 534
f 533 537 597
f 533 597 599
f 533 599 598
f 534 600 535
f 534 598 601
f 534 601 600
f 535 600 544
f 544 600 602
f 544 602 545
f 545 602 603
f 545 603 546
f 546 603 604
f 546 604 547
f 547 604 605
f 547 605 548
f 548 605 606
f 548 606 607
f 548 607 549
f 549 607 608
f 549 608 609
f 549 609 550
f 550 609 610
f 550 610 611
f 550 611 612
f 550 612 551
f 551 612 613
f 551 613 614
f 551 614 552
f 552 614 615
f 552 615 616
f 552 616 554
f 553 555 617
f 553 617 618
f 553 618 558
f 554 616 619
f 554 619 620
f 554 620 555
f 555 620 617
f 556 561 560
f 556 560 557
f 558 618 621
f 558 621 559
f 559 622 560
f 559 621 622
f 560 622 562
f 562 622 623
f 562 623 624
f 562 624 563
f 563 624 564
f 564 624 625
f 564 625 566
f 566 625 626
f 566 626 567
f 567 626 627
f 567 627 568
f 568 627 585
f 568 585 584
f 568 583 628
f 568 628 629
f 568 629 573
f 568 573 630
f 568 630 572
f 568 570 569
f 572 630 573
f 573 629 575
f 574 631 576
f 574 575 632
f 574 632 631
f 575 629 628
f 575 628 578
f 575 578 632
f 576 631 632
f 576 632 577
f 577 632 578
f 578 628 583
f 579 582 580
f 580 582 581
f 585 627 633
f 585 633 586
f 586 633 587
f 587 634 635
f 587 635 588
f 587 633 634
f 588 635 589
f 589 635 636
f 589 636 590
f 590 636 637
f 590 637 591
f 591 637 592
f 592 637 593
f 593 638 594
f 593 637 669
f 593 669 638
f 594 638 596
f 595 639 640
f 595 640 599
f 595 599 597
f 595 596 641
f 595 641 642
f 595 642 643
f 595 643 639
f 596 638 644
f 596 644 645
f 596 645 642
f 596 642 641
f 598 599 601
f 599 640 601
f 600 601 646
f 600 646 602
f 601 640 646
f 602 646 640
f 602 640 647
f 602 647 648
f 602 648 649
f 602 649 650
f 602 650 651
f 602 651 603
f 603 651 604
f 604 651 650
f 604 650 605
f 605 650 606
f 606 650 652
f 606 652 653
f 606 653 608
f 606 608 607
f 608 653 610
f 608 610 609
f 610 653 654
f 610 654 613
f 610 613 612
f 610 612 611
f 613 654 615
f 613 615 614
f 615 654 619
f 615 619 616
f 617 620 655
f 617 655 656
f 617 656 618
f 618 656 621
f 619 654 657
f 619 657 655
f 619 655 620
f 621 656 655
f 621 655 658
f 621 658 659
f 621 659 660
f 621 660 661
f 621 661 622
f 622 661 623
f 623 661 660
f 623 660 625
f 623 625 624
f 625 660 626
f 626 660 662
f 626 662 663
f 626 663 664
f 626 664 633
f 626 633 627
f 633 664 665
f 633 665 666
f 633 666 634
f 634 666 667
f 634 667 635
f 635 667 668
f 635 668 636
f 636 668 669
f 636 669 637
f 638 669 644
f 639 643 647
f 639 647 640
f 642 645 670
f 642 670 671
f 642 671 672
f 642 672 673
f 642 673 643
f 643 673 647
f 644 669 674
f 644 674 675
f 644 675 645
f 645 675 670
f 647 673 676
f 647 676 648
f 648 676 677
f 648 677 678
f 648 678 650
f 648 650 649
f 650 678 652
f 652 678 677
f 652 677 679
f 652 679 653
f 653 679 680
f 653 680 681
f 653 681 654
f 654 681 682
f 654 682 657
f 655 657 683
f 655 683 658
f 657 682 684
f 657 684 683
f 658 683 684
f 658 684 685
f 658 685 659
f 659 685 686
f 659 686 663
f 659 663 662
f 659 662 660
f 663 686 664
f 664 686 687
f 664 687 688
f 664 688 689
f 664 689 690
f 664 690 666
f 664 666 665
f 666 690 691
f 666 691 667
f 667 691 668
f 668 691 692
f 668 692 674
f 668 674 669
f 670 675 671
f 671 693 694
f 671 694 672
f 671 675 695
f 671 695 693
f 672 694 696
f 672 696 673
f 673 696 697
f 673 697 676
f 674 698 675
f 674 692 709
f 674 709 698
f 675 698 695
f 676 697 699
f 676 699 679
f 676 679 677
f 679 699 680
f 680 699 700
f 680 700 701
f 680 701 681
f 681 701 702
f 681 702 682
f 682 702 685
f 682 685 684
f 685 702 703
f 685 703 686
f 686 703 704
f 686 704 687
f 687 705 688
f 687 704 705
f 688 705 706
f 688 706 707
f 688 707 708
f 688 708 689
f 689 708 690
f 690 708 691
f 691 708 692
f 692 708 709
f 693 695 707
f 693 707 706
f 693 706 705
f 693 705 694
f 694 705 713
f 694 713 710
f 694 710 696
f 695 698 709
f 695 709 707
f 696 710 711
f 696 711 697
f 697 711 699
f 699 711 700
f 700 711 712
f 700 712 701
f 701 712 702
f 702 712 703
f 703 712 704
f 704 712 713
f 704 713 705
f 707 709 708
f 710 713 712
f 710 712 711

