# https://github.com/mikedh/trimesh
v 0.01142874 0.00050086 0.01816486
v 0.01142666 -0.00050154 0.01816486
v 0.01142666 0.00050086 0.01715969
v 0.01131006 0.00150518 0.01816486
v 0.01142249 0.00050086 0.01917002
v 0.01142249 -0.00050154 0.01917002
v 0.01131006 -0.00150393 0.01816486
v 0.01142458 -0.00050154 0.01715969
v 0.01142249 0.00050086 0.01615453
v 0.01130590 0.00150518 0.01715969
v 0.01106645 0.00250951 0.01715969
v 0.01106853 0.00250951 0.01816486
v 0.01130381 0.00150518 0.01917002
v 0.01140584 0.00050086 0.02017117
v 0.01130381 -0.00150393 0.01917002
v 0.01140584 -0.00050154 0.02017117
v 0.01107061 -0.00250826 0.01816486
v 0.01106228 -0.00250826 0.01615453
v 0.01129965 -0.00150393 0.01615453
v 0.01142041 -0.00050154 0.01615453
v 0.01138502 -0.00050154 0.01515339
v 0.01138293 0.00050086 0.01515339
v 0.01126425 0.00150518 0.01515339
v 0.01129965 0.00150518 0.01615453
v 0.01106228 0.00250951 0.01615453
v 0.01087697 0.00311597 0.01816486
v 0.01087281 0.00311211 0.01615453
v 0.01106228 0.00250951 0.01917002
v 0.01128091 0.00150518 0.02017117
v 0.01125176 0.00150518 0.02117633
v 0.01137461 0.00050086 0.02117633
v 0.01106020 -0.00250826 0.01917002
v 0.01128091 -0.00150393 0.02017117
v 0.01137461 -0.00050154 0.02117633
v 0.01125176 -0.00150393 0.02117633
v 0.01087281 -0.00310506 0.01917002
v 0.01087697 -0.00311665 0.01816486
v 0.01087489 -0.00311472 0.01715969
v 0.01087281 -0.00311086 0.01615453
v 0.01086032 -0.00307609 0.01515339
v 0.01103105 -0.00250826 0.01515339
v 0.01126633 -0.00150393 0.01515339
v 0.01114557 -0.00150393 0.01314708
v 0.01132047 -0.00050154 0.01415224
v 0.01125384 0.00050086 0.01314708
v 0.01114349 0.00150518 0.01314708
v 0.01094568 0.00240522 0.01314708
v 0.01102897 0.00250951 0.01515339
v 0.01085823 0.00307348 0.01515339
v 0.01066459 0.00361620 0.01715969
v 0.01066459 0.00361813 0.01816486
v 0.01087281 0.00310631 0.01917002
v 0.01066459 0.00361234 0.01615453
v 0.01065210 0.00357564 0.01515339
v 0.01086032 0.00307541 0.02017117
v 0.01103730 0.00250951 0.02017117
v 0.01100815 0.00250951 0.02117633
v 0.01121845 0.00150518 0.02218149
v 0.01133505 0.00050086 0.02218149
v 0.01103730 -0.00250826 0.02017117
v 0.01086032 -0.00307416 0.02017117
v 0.01133505 -0.00050154 0.02218149
v 0.01121845 -0.00150393 0.02218149
v 0.01100607 -0.00250826 0.02117633
v 0.01065835 -0.00360723 0.01917002
v 0.01066459 -0.00361881 0.01816486
v 0.01066459 -0.00361688 0.01715969
v 0.01066459 -0.00361302 0.01615453
v 0.01065210 -0.00357825 0.01515339
v 0.01066459 -0.00342567 0.01415626
v 0.01057506 -0.00351259 0.01314708
v 0.01084158 -0.00303167 0.01449400
v 0.01082492 -0.00297952 0.01382657
v 0.01094568 -0.00240976 0.01314708
v 0.01090196 -0.00225911 0.01214594
v 0.01029814 -0.00250826 0.00511783
v 0.01049178 -0.00150393 0.00511783
v 0.01125384 -0.00050154 0.01314708
v 0.01060213 0.00050086 0.00511783
v 0.01050011 0.00150518 0.00511783
v 0.01030022 0.00250951 0.00511783
v 0.01090196 0.00225457 0.01214594
v 0.01080410 0.00290738 0.01314708
v 0.01095193 0.00258870 0.01417235
v 0.01082284 0.00297498 0.01385069
v 0.01057298 0.00351384 0.01314708
v 0.01021693 0.00451623 0.01615453
v 0.01021277 0.00451623 0.01816486
v 0.01065835 0.00360848 0.01917002
v 0.01019403 0.00451623 0.01515339
v 0.01014822 0.00451623 0.01415224
v 0.01005244 0.00461280 0.01310687
v 0.01064586 0.00357757 0.02017117
v 0.01084574 0.00303871 0.02117633
v 0.01083533 0.00301747 0.02175128
v 0.01082492 0.00298077 0.02241871
v 0.01095193 0.00259063 0.02212119
v 0.01095818 0.00242067 0.02318264
v 0.01117680 0.00150518 0.02318264
v 0.01129132 0.00050086 0.02318264
v 0.01095193 -0.00259131 0.02212119
v 0.01083533 -0.00301622 0.02174726
v 0.01064586 -0.00357632 0.02017117
v 0.01129132 -0.00050154 0.02318264
v 0.01117472 -0.00150393 0.02318264
v 0.01095818 -0.00242135 0.02318264
v 0.01019819 -0.00451691 0.01917002
v 0.01021277 -0.00451691 0.01816486
v 0.01017113 -0.00451691 0.02017117
v 0.01021693 -0.00451691 0.01615453
v 0.01019611 -0.00451691 0.01515339
v 0.01015447 -0.00451691 0.01415224
v 0.01005453 -0.00461348 0.01309883
v 0.01080410 -0.00291192 0.01314708
v 0.01006702 -0.00447056 0.01214594
v 0.00957563 -0.00451691 0.00511783
v 0.00981924 -0.00398771 0.00511783
v 0.01000247 -0.00348555 0.00511783
v 0.00993376 -0.00329627 0.00411266
v 0.01015447 -0.00250826 0.00411266
v 0.01033770 -0.00150393 0.00411266
v 0.01059588 -0.00050154 0.00511783
v 0.01043972 -0.00050154 0.00411266
v 0.01044389 0.00050086 0.00411266
v 0.01034186 0.00150518 0.00411266
v 0.01015447 0.00250951 0.00411266
v 0.00993376 0.00329559 0.00411266
v 0.01000455 0.00348487 0.00511783
v 0.00981924 0.00398703 0.00511783
v 0.01006494 0.00446795 0.01214594
v 0.00987338 0.00508406 0.01515339
v 0.00988379 0.00509758 0.01615453
v 0.00987963 0.00508986 0.01816486
v 0.00987130 0.00508020 0.01917002
v 0.01019819 0.00451623 0.01917002
v 0.01017113 0.00451623 0.02017117
v 0.00982549 0.00501260 0.01274501
v 0.01013781 0.00451623 0.02117633
v 0.01062920 0.00354088 0.02117633
v 0.01065210 0.00341727 0.02212119
v 0.01080618 0.00292283 0.02318264
v 0.01056257 0.00351384 0.02318264
v 0.01045846 0.00351384 0.02519297
v 0.01035436 0.00351384 0.02719927
v 0.01088530 0.00217924 0.02619411
v 0.01086032 0.00209619 0.02719927
v 0.01107686 0.00150518 0.02519297
v 0.01114765 0.00050086 0.02619411
v 0.01119554 0.00050086 0.02519297
v 0.01082492 -0.00297952 0.02241469
v 0.01065002 -0.00341602 0.02212119
v 0.01062920 -0.00353963 0.02117633
v 0.01013781 -0.00451691 0.02117633
v 0.01114557 -0.00050154 0.02619411
v 0.01107478 -0.00150393 0.02519297
v 0.01085823 -0.00208915 0.02719927
v 0.01088322 -0.00217413 0.02619411
v 0.01080618 -0.00292351 0.02318264
v 0.00987130 -0.00507895 0.01917002
v 0.00987963 -0.00509054 0.01816486
v 0.00985672 -0.00505770 0.02017117
v 0.00988379 -0.00509826 0.01615453
v 0.00983174 -0.00502101 0.02170706
v 0.00987546 -0.00508668 0.01515339
v 0.00985672 -0.00505770 0.01415224
v 0.00984007 -0.00503646 0.01340038
v 0.00982549 -0.00501135 0.01273295
v 0.00908425 -0.00544785 0.00511783
v 0.00901554 -0.00534548 0.00411266
v 0.00943613 -0.00451691 0.00411266
v 0.00974845 -0.00379843 0.00411266
v 0.00985672 -0.00308768 0.00356183
v 0.00992960 -0.00250826 0.00342915
v 0.01001705 -0.00150393 0.00326833
v 0.01006286 -0.00050154 0.00318389
v 0.01006286 0.00050086 0.00318389
v 0.01001705 0.00150518 0.00326833
v 0.00992960 0.00250951 0.00342915
v 0.00985672 0.00308700 0.00356183
v 0.00974845 0.00379775 0.00411266
v 0.00943613 0.00451623 0.00411266
v 0.00957147 0.00451623 0.00511783
v 0.00949651 0.00555532 0.01415224
v 0.00951109 0.00558623 0.01515339
v 0.00954857 0.00542785 0.01310687
v 0.00951525 0.00559975 0.01615453
v 0.00950692 0.00559202 0.01816486
v 0.00949651 0.00558236 0.01917002
v 0.00985672 0.00505896 0.02017117
v 0.00983174 0.00502033 0.02171510
v 0.00908008 0.00544523 0.00511783
v 0.00877609 0.00594740 0.00511783
v 0.01005453 0.00460508 0.02210108
v 0.01008784 0.00446215 0.02318264
v 0.01072914 0.00268141 0.02619411
v 0.01003579 0.00437524 0.02519297
v 0.00998165 0.00428640 0.02719927
v 0.00991086 0.00416086 0.02820444
v 0.01019611 0.00351384 0.02820444
v 0.01084158 0.00203825 0.02773402
v 0.01070416 0.00259836 0.02719927
v 0.01097483 0.00150518 0.02719927
v 0.01102689 0.00150518 0.02619411
v 0.01109352 0.00050086 0.02719927
v 0.01035227 -0.00351259 0.02719927
v 0.01055841 -0.00351259 0.02318264
v 0.01008368 -0.00445704 0.02318264
v 0.01005453 -0.00460383 0.02209706
v 0.01109143 -0.00050154 0.02719927
v 0.01102481 -0.00150393 0.02619411
v 0.01084158 -0.00203314 0.02773000
v 0.01070416 -0.00259131 0.02719927
v 0.01072914 -0.00267629 0.02619411
v 0.00949651 -0.00558111 0.01917002
v 0.00950692 -0.00559270 0.01816486
v 0.00951525 -0.00560043 0.01615453
v 0.00951317 -0.00558691 0.01515339
v 0.00946112 -0.00553476 0.02117633
v 0.00947777 -0.00555987 0.02017117
v 0.00981508 -0.00499590 0.02237851
v 0.00950901 -0.00542081 0.02209706
v 0.00949859 -0.00555987 0.01415224
v 0.00955065 -0.00543046 0.01309883
v 0.00877817 -0.00595001 0.00511783
v 0.00871987 -0.00584765 0.00411266
v 0.00891143 -0.00517359 0.00346132
v 0.00904885 -0.00447829 0.00311956
v 0.00949859 -0.00345851 0.00317987
v 0.00898639 -0.00351259 0.00233151
v 0.00878858 -0.00290420 0.00164800
v 0.00964226 -0.00250826 0.00292657
v 0.00973804 -0.00150393 0.00276574
v 0.00978801 -0.00050154 0.00268131
v 0.00978593 0.00050086 0.00268131
v 0.00973596 0.00150518 0.00276574
v 0.00964226 0.00250951 0.00292657
v 0.00878858 0.00290352 0.00164800
v 0.00898847 0.00351384 0.00233151
v 0.00950068 0.00345783 0.00317987
v 0.00904885 0.00447761 0.00312358
v 0.00890935 0.00517291 0.00346534
v 0.00901554 0.00534480 0.00411266
v 0.00895724 0.00617917 0.01214594
v 0.00898014 0.00620234 0.01314708
v 0.00900929 0.00622938 0.01515339
v 0.00901345 0.00623131 0.01615453
v 0.00900513 0.00621779 0.01816486
v 0.00899472 0.00620621 0.01917002
v 0.00895932 0.00616565 0.02117633
v 0.00947985 0.00555919 0.02017117
v 0.00951109 0.00542206 0.02210108
v 0.00981716 0.00499908 0.02238253
v 0.00946112 0.00553601 0.02117633
v 0.00871779 0.00584697 0.00411266
v 0.00814728 0.00660214 0.00414081
v 0.00783913 0.00704443 0.00449463
v 0.00830553 0.00652489 0.00511783
v 0.00968599 0.00478856 0.02719927
v 0.00961728 0.00466302 0.02820444
v 0.00984423 0.00404304 0.02872712
v 0.01060213 0.00242646 0.02812403
v 0.01072498 0.00150518 0.02838939
v 0.01088947 0.00150518 0.02788681
v 0.01094777 0.00050086 0.02805567
v 0.01094777 -0.00050154 0.02805567
v 0.01019403 -0.00351259 0.02820444
v 0.00991086 -0.00415960 0.02820444
v 0.00997957 -0.00428128 0.02719927
v 0.01088947 -0.00150393 0.02788279
v 0.01097067 -0.00150393 0.02719927
v 0.01072498 -0.00150393 0.02838537
v 0.01060005 -0.00242328 0.02812000
v 0.00899472 -0.00619916 0.01917002
v 0.00895932 -0.00616633 0.02117633
v 0.00900513 -0.00621075 0.01816486
v 0.00900929 -0.00622041 0.01715969
v 0.00901345 -0.00622813 0.01615453
v 0.00900929 -0.00622813 0.01515339
v 0.00899680 -0.00621847 0.01415224
v 0.00898222 -0.00620302 0.01314708
v 0.00893642 -0.00614122 0.02218149
v 0.00937158 -0.00552124 0.02318264
v 0.00968390 -0.00478345 0.02719927
v 0.00918003 -0.00546716 0.02719927
v 0.00890727 -0.00611032 0.02318264
v 0.00895932 -0.00617985 0.01214594
v 0.00830553 -0.00652364 0.00511783
v 0.00783913 -0.00704511 0.00449463
v 0.00814728 -0.00660089 0.00414081
v 0.00778915 -0.00698717 0.00382720
v 0.00800778 -0.00626676 0.00310750
v 0.00850749 -0.00551351 0.00311956
v 0.00783080 -0.00503453 0.00159171
v 0.00871363 -0.00478731 0.00279389
v 0.00887395 -0.00411905 0.00252853
v 0.00867407 -0.00351259 0.00182893
v 0.00888020 -0.00223400 0.00153944
v 0.00910923 -0.00254496 0.00203399
v 0.00795573 -0.00451691 0.00148718
v 0.00202162 -0.00718224 -0.00357081
v 0.00215695 -0.00652364 -0.00365122
v 0.00935493 -0.00150393 0.00210636
v 0.00945070 -0.00050154 0.00210636
v 0.00945070 0.00050086 0.00210636
v 0.00935284 0.00150518 0.00210636
v 0.00888020 0.00223332 0.00154347
v 0.00910923 0.00254428 0.00203399
v 0.00795573 0.00451623 0.00148718
v 0.00783080 0.00503578 0.00159171
v 0.00867407 0.00351384 0.00182893
v 0.00215904 0.00652489 -0.00365122
v 0.00202370 0.00718156 -0.00357081
v 0.00887395 0.00411643 0.00252853
v 0.00871154 0.00478663 0.00279791
v 0.00850541 0.00551283 0.00312358
v 0.00800778 0.00626608 0.00310750
v 0.00785370 0.00705988 0.00511783
v 0.00849500 0.00667940 0.01214594
v 0.00850541 0.00670451 0.01314708
v 0.00851790 0.00673155 0.01515339
v 0.00851374 0.00673348 0.01615453
v 0.00849292 0.00671996 0.01816486
v 0.00847626 0.00670837 0.01917002
v 0.00893850 0.00614440 0.02218149
v 0.00891143 0.00611736 0.02318264
v 0.00937783 0.00552056 0.02318264
v 0.00918419 0.00547614 0.02719927
v 0.00778707 0.00698649 0.00382720
v 0.00739979 0.00739595 0.00414081
v 0.00674600 0.00797537 0.00411266
v 0.00732067 0.00753694 0.00511783
v 0.00911548 0.00540081 0.02820444
v 0.00898222 0.00523471 0.02895228
v 0.00875319 0.00487547 0.02961971
v 0.00891559 0.00420721 0.02979260
v 0.00955273 0.00351384 0.02937043
v 0.00994626 0.00351384 0.02886785
v 0.01011283 0.00250951 0.02906888
v 0.01014822 0.00143179 0.02928197
v 0.01077703 0.00050086 0.02855826
v 0.01077703 -0.00050154 0.02855826
v 0.00984423 -0.00404179 0.02872712
v 0.00961728 -0.00466177 0.02820444
v 0.01011074 -0.00250826 0.02906888
v 0.00994626 -0.00351259 0.02886785
v 0.00845960 -0.00670132 0.01917002
v 0.00847626 -0.00671291 0.01816486
v 0.00849292 -0.00672064 0.01715969
v 0.00850749 -0.00673030 0.01615453
v 0.00842837 -0.00666849 0.02117633
v 0.00844503 -0.00668587 0.02017117
v 0.00851790 -0.00673030 0.01515339
v 0.00851374 -0.00672064 0.01415224
v 0.00850749 -0.00670519 0.01314708
v 0.00849708 -0.00668201 0.01214594
v 0.00785370 -0.00705863 0.00511783
v 0.00840547 -0.00664338 0.02218149
v 0.00911548 -0.00539377 0.02820444
v 0.00871779 -0.00589593 0.02820444
v 0.00877817 -0.00596932 0.02719927
v 0.00782663 -0.00703159 0.02476678
v 0.00837424 -0.00661248 0.02318264
v 0.00827638 -0.00645217 0.02719927
v 0.00674392 -0.00797412 0.00411266
v 0.00739979 -0.00739276 0.00414081
v 0.00732067 -0.00753376 0.00511783
v 0.00656902 -0.00780608 0.00310750
v 0.00711038 -0.00730392 0.00310750
v 0.00761217 -0.00676892 0.00310750
v 0.00784329 -0.00605237 0.00257677
v 0.00797446 -0.00543046 0.00218677
v 0.00846377 -0.00447829 0.00215863
v 0.00759760 -0.00570472 0.00190532
v 0.00894474 -0.00150393 0.00147511
v 0.00129495 -0.00734448 -0.00373164
v 0.00129495 -0.00652364 -0.00405329
v 0.00692923 -0.00616053 0.00150728
v 0.00663773 -0.00682880 0.00182089
v 0.00690632 -0.00712044 0.00249234
v 0.00589024 -0.00808614 0.00252048
v 0.00527392 -0.00827734 0.00215460
v 0.00434112 -0.00880655 0.00207017
v 0.00402880 -0.00913102 0.00237976
v 0.00368317 -0.00896878 0.00171233
v 0.00301480 -0.00912330 0.00151130
v 0.00217569 -0.00552124 -0.00365122
v 0.00267749 -0.00552124 -0.00332153
v 0.00899263 -0.00050154 0.00143491
v 0.00899055 0.00050086 0.00143491
v 0.00894474 0.00150518 0.00147511
v 0.00759968 0.00570404 0.00190532
v 0.00784329 0.00605169 0.00257677
v 0.00797238 0.00542978 0.00218677
v 0.00846377 0.00447761 0.00215863
v 0.00267957 0.00552056 -0.00332153
v 0.00217778 0.00552056 -0.00365122
v 0.00129495 0.00652489 -0.00405329
v 0.00129495 0.00734573 -0.00373566
v 0.00301063 0.00912068 0.00151130
v 0.00332920 0.00926168 0.00207017
v 0.00368108 0.00896810 0.00171233
v 0.00402464 0.00913034 0.00237976
v 0.00433904 0.00880394 0.00207017
v 0.00527184 0.00827473 0.00215460
v 0.00588816 0.00808739 0.00252048
v 0.00626294 0.00748093 0.00217069
v 0.00690424 0.00711976 0.00249234
v 0.00663773 0.00683005 0.00182089
v 0.00692923 0.00616178 0.00150728
v 0.00761009 0.00676824 0.00310750
v 0.00795364 0.00715066 0.01013561
v 0.00797446 0.00716611 0.01114077
v 0.00799320 0.00717963 0.01214594
v 0.00800986 0.00718736 0.01415224
v 0.00801403 0.00718929 0.01515339
v 0.00800361 0.00718542 0.01314708
v 0.00800986 0.00718349 0.01615453
v 0.00799112 0.00716418 0.01816486
v 0.00797446 0.00715066 0.01917002
v 0.00793074 0.00711396 0.02117633
v 0.00843254 0.00666781 0.02117633
v 0.00840755 0.00664656 0.02218149
v 0.00837840 0.00661759 0.02318264
v 0.00888228 0.00608453 0.02418780
v 0.00885105 0.00605169 0.02519297
v 0.00883231 0.00603045 0.02580813
v 0.00881149 0.00600534 0.02647958
v 0.00878650 0.00597830 0.02719927
v 0.00872404 0.00590105 0.02820444
v 0.00710829 0.00730517 0.00310750
v 0.00656902 0.00780733 0.00310750
v 0.00624420 0.00830177 0.00411266
v 0.00678140 0.00800434 0.00511783
v 0.00606722 0.00820327 0.00310750
v 0.00802235 0.00623131 0.02920558
v 0.00785162 0.00605942 0.02974033
v 0.00804109 0.00552056 0.02988909
v 0.00838048 0.00453168 0.03005796
v 0.00905093 0.00351384 0.02990920
v 0.00970473 0.00250951 0.02957146
v 0.00978801 0.00171957 0.02966394
v 0.00983590 0.00104937 0.02971621
v 0.01029814 0.00050086 0.02920558
v 0.01029814 -0.00050154 0.02920558
v 0.01014822 -0.00143247 0.02928197
v 0.00955273 -0.00351259 0.02937043
v 0.00891559 -0.00420596 0.02979260
v 0.00875319 -0.00487615 0.02961971
v 0.00898222 -0.00522960 0.02894826
v 0.00978801 -0.00172025 0.02966394
v 0.00970473 -0.00250826 0.02957146
v 0.00800570 -0.00718031 0.01615453
v 0.00792658 -0.00711078 0.02117633
v 0.00794323 -0.00712430 0.02017117
v 0.00801403 -0.00718804 0.01515339
v 0.00790367 -0.00709147 0.02218149
v 0.00801194 -0.00718997 0.01415224
v 0.00800570 -0.00718610 0.01314708
v 0.00799320 -0.00718031 0.01214594
v 0.00797655 -0.00716679 0.01114077
v 0.00821599 -0.00640775 0.02820444
v 0.00801611 -0.00622427 0.02920558
v 0.00753097 -0.00672643 0.02920558
v 0.00740812 -0.00729426 0.02513668
v 0.00732067 -0.00739856 0.02418780
v 0.00732067 -0.00748740 0.02218149
v 0.00780165 -0.00701035 0.02543823
v 0.00722697 -0.00730778 0.02719927
v 0.00726862 -0.00733289 0.02619411
v 0.00767880 -0.00690798 0.02820444
v 0.00772877 -0.00695434 0.02719927
v 0.00777041 -0.00698717 0.02619411
v 0.00677931 -0.00800309 0.00511783
v 0.00624212 -0.00830245 0.00411266
v 0.00606722 -0.00820395 0.00310750
v 0.00725196 -0.00644059 0.00219883
v -0.00317750 -0.00906729 -0.00244905
v -0.00109535 -0.00803592 -0.00343009
v 0.00029344 -0.00747195 -0.00383617
v 0.00029344 -0.00652364 -0.00425432
v 0.00230062 -0.00957718 0.00210636
v 0.00469717 -0.00897844 0.00286224
v 0.00434112 -0.00917351 0.00315977
v 0.00330422 -0.00948640 0.00310750
v 0.00333128 -0.00926043 0.00207017
v 0.00725196 0.00644184 0.00219883
v 0.00029344 0.00652489 -0.00425432
v 0.00029344 0.00747127 -0.00383617
v -0.00109744 0.00803524 -0.00342607
v -0.00318374 0.00906274 -0.00244101
v 0.00230062 0.00957650 0.00210636
v 0.00330422 0.00949344 0.00310750
v 0.00433904 0.00917283 0.00316379
v 0.00469509 0.00897583 0.00286224
v 0.00732692 0.00768179 0.01214594
v 0.00732067 0.00768566 0.01515339
v 0.00732484 0.00768759 0.01314708
v 0.00732900 0.00766827 0.01114077
v 0.00732067 0.00767214 0.01615453
v 0.00732067 0.00764896 0.01715969
v 0.00732067 0.00762385 0.01816486
v 0.00732067 0.00759488 0.01917002
v 0.00732067 0.00756205 0.02017117
v 0.00732067 0.00752728 0.02117633
v 0.00790575 0.00709465 0.02218149
v 0.00787660 0.00707147 0.02318264
v 0.00782871 0.00703091 0.02478286
v 0.00834717 0.00658669 0.02418780
v 0.00828470 0.00646308 0.02719927
v 0.00822224 0.00641673 0.02820444
v 0.00523020 0.00873634 0.00316379
v 0.00484084 0.00904922 0.00353369
v 0.00534888 0.00880394 0.00411266
v 0.00627960 0.00831336 0.00511783
v 0.00682304 0.00803524 0.01035674
v 0.00753305 0.00673348 0.02920558
v 0.00687926 0.00707727 0.02976445
v 0.00725613 0.00644570 0.02992126
v 0.00732067 0.00552056 0.03031930
v 0.00293151 0.00222560 0.03380521
v 0.00308351 0.00150518 0.03390573
v 0.00832427 0.00351384 0.03035147
v 0.00920293 0.00250951 0.03002580
v 0.00940282 0.00143179 0.03001776
v 0.00985256 0.00050086 0.02973229
v 0.00932786 0.00050086 0.03013435
v 0.00985256 -0.00050154 0.02973229
v 0.00983590 -0.00105005 0.02971621
v 0.00905093 -0.00351259 0.02990920
v 0.00838048 -0.00453043 0.03005394
v 0.00803901 -0.00552124 0.02988507
v 0.00784745 -0.00605431 0.02973631
v 0.00940282 -0.00143247 0.03001776
v 0.00920293 -0.00250826 0.03002580
v 0.00732067 -0.00766316 0.01615453
v 0.00732067 -0.00768441 0.01515339
v 0.00732067 -0.00752217 0.02117633
v 0.00732067 -0.00758011 0.01917002
v 0.00732067 -0.00760908 0.01816486
v 0.00722073 -0.00775780 0.01412812
v 0.00722073 -0.00775587 0.01317522
v 0.00732067 -0.00767861 0.01214594
v 0.00680014 -0.00802047 0.00812930
v 0.00687926 -0.00707602 0.02976847
v 0.00702709 -0.00718417 0.02920558
v 0.00656902 -0.00790265 0.02318264
v 0.00660441 -0.00792390 0.02218149
v 0.00663773 -0.00793935 0.02117633
v 0.00717700 -0.00728074 0.02820444
v 0.00627752 -0.00831404 0.00511783
v 0.00535096 -0.00880462 0.00411266
v 0.00484084 -0.00904990 0.00352967
v 0.00523020 -0.00873895 0.00315977
v -0.00372094 -0.00907115 -0.00247719
v -0.00551991 -0.00821747 -0.00363514
v -0.00472661 -0.00819429 -0.00359091
v 0.00129495 -0.00976259 0.00210636
v -0.00271734 -0.00945357 -0.00090511
v -0.00602587 -0.00722666 -0.00454381
v -0.00804139 -0.00512144 -0.00547660
v -0.00790397 -0.00451691 -0.00554495
v -0.00874099 -0.00150393 -0.00583846
v -0.00874099 -0.00050154 -0.00585856
v -0.00874099 0.00050086 -0.00586259
v 0.00230062 -0.00970272 0.00310750
v 0.00430781 -0.00922952 0.00411266
v 0.00330422 -0.00949992 0.00411266
v -0.00874099 0.00150518 -0.00584248
v -0.00791438 0.00451623 -0.00554093
v -0.00804972 0.00512076 -0.00547660
v -0.00602795 0.00722791 -0.00453979
v -0.00551783 0.00821486 -0.00363514
v -0.00472661 0.00819168 -0.00359091
v -0.00372094 0.00906854 -0.00247317
v -0.00271734 0.00945095 -0.00090511
v 0.00129495 0.00975612 0.00210636
v 0.00230062 0.00970783 0.00310750
v 0.00330422 0.00950503 0.00411266
v 0.00430781 0.00922498 0.00411266
v 0.00682720 0.00803717 0.01114077
v 0.00681888 0.00803138 0.01388286
v 0.00681679 0.00802945 0.01455431
v 0.00682512 0.00803524 0.01214594
v 0.00680846 0.00802558 0.01515339
v 0.00678972 0.00801786 0.01615453
v 0.00676474 0.00800434 0.01715969
v 0.00667312 0.00795798 0.02017117
v 0.00670436 0.00797344 0.01917002
v 0.00663981 0.00794253 0.02117633
v 0.00732067 0.00748865 0.02218149
v 0.00732067 0.00744616 0.02318264
v 0.00732067 0.00740174 0.02418780
v 0.00741020 0.00729358 0.02514874
v 0.00723530 0.00730710 0.02719927
v 0.00780373 0.00701353 0.02545431
v 0.00822640 0.00664077 0.02514874
v 0.00777666 0.00699228 0.02619411
v 0.00773710 0.00696525 0.02719927
v 0.00768713 0.00691696 0.02820444
v 0.00484708 0.00905309 0.00411266
v 0.00533222 0.00881552 0.00511783
v 0.00630875 0.00831143 0.00913446
v 0.00703125 0.00718349 0.02920558
v 0.00631500 0.00710431 0.02979662
v -0.00071016 0.00290931 0.03464553
v 0.00029344 0.00274514 0.03456110
v 0.00203619 0.00310052 0.03383738
v -0.00010217 0.00909751 0.02681329
v -0.00071016 0.00911489 0.02698618
v 0.00234227 0.00253848 0.03398614
v 0.00230062 0.00150518 0.03432388
v 0.00221109 0.00046030 0.03452089
v 0.00320219 0.00050086 0.03398212
v 0.00932786 -0.00050154 0.03013435
v 0.00832427 -0.00351259 0.03035147
v 0.00308351 -0.00150393 0.03390573
v 0.00293151 -0.00222434 0.03380521
v 0.00732067 -0.00552124 0.03031528
v 0.00725613 -0.00644445 0.02991724
v 0.00320219 -0.00050154 0.03398212
v 0.00678348 -0.00801274 0.01615453
v 0.00680638 -0.00802433 0.01515339
v 0.00681679 -0.00803013 0.01444575
v 0.00670019 -0.00797025 0.01917002
v 0.00675641 -0.00799922 0.01715969
v 0.00681888 -0.00803013 0.01377430
v 0.00681888 -0.00803013 0.01352904
v 0.00681679 -0.00803013 0.01285759
v 0.00680638 -0.00802240 0.00913446
v 0.00234227 -0.00253916 0.03398614
v 0.00203619 -0.00310120 0.03383738
v 0.00029344 -0.00274582 0.03456110
v -0.00071016 -0.00290806 0.03464553
v 0.00631500 -0.00710305 0.02979662
v -0.00071016 -0.00911557 0.02699824
v -0.00010009 -0.00909626 0.02681731
v 0.00290653 -0.00905184 0.02287305
v 0.00531140 -0.00842027 0.02318264
v 0.00606722 -0.00815180 0.02318264
v 0.00610262 -0.00816919 0.02218149
v 0.00613593 -0.00818464 0.02117633
v 0.00629834 -0.00831404 0.00812930
v 0.00533014 -0.00881620 0.00511783
v 0.00484917 -0.00905377 0.00411266
v 0.00630459 -0.00831211 0.00913446
v -0.00426230 -0.00905184 -0.00246111
v -0.00672547 -0.00740435 -0.00392061
v -0.00655890 -0.00722666 -0.00454381
v -0.00566566 -0.00831404 -0.00291544
v 0.00029344 -0.00983984 0.00210636
v 0.00129495 -0.00982633 0.00310750
v -0.00171375 -0.00972589 0.00110119
v -0.00271734 -0.00955400 0.00009603
v -0.00830790 -0.00512144 -0.00547660
v -0.00845782 -0.00451691 -0.00554495
v -0.00874099 -0.00250826 -0.00576207
v -0.00948431 -0.00150393 -0.00567763
v -0.00952804 -0.00050154 -0.00570176
v -0.00953012 0.00050086 -0.00570176
v 0.00230062 -0.00968920 0.00411266
v 0.00477213 -0.00902286 0.00812930
v 0.00474714 -0.00901514 0.00913446
v 0.00424535 -0.00916965 0.00913446
v 0.00330422 -0.00948447 0.00511783
v -0.00948848 0.00150518 -0.00568165
v -0.00874099 0.00250951 -0.00576207
v -0.00830790 0.00512076 -0.00547660
v -0.00673380 0.00717963 -0.00451164
v -0.00723768 0.00702705 -0.00442319
v -0.00566150 0.00830950 -0.00291544
v -0.00426438 0.00905309 -0.00246513
v -0.00271734 0.00955332 0.00009603
v -0.00171375 0.00972521 0.00110119
v 0.00029344 0.00983723 0.00210636
v 0.00129495 0.00982371 0.00310750
v 0.00230062 0.00969238 0.00411266
v 0.00330422 0.00946641 0.00712414
v 0.00430781 0.00920180 0.00712414
v 0.00631500 0.00830563 0.01114077
v 0.00682096 0.00803331 0.01314708
v 0.00631500 0.00829212 0.01314708
v 0.00641494 0.00823417 0.01419245
v 0.00630667 0.00827473 0.01515339
v 0.00628793 0.00825928 0.01615453
v 0.00626294 0.00824383 0.01715969
v 0.00620048 0.00821486 0.01917002
v 0.00617133 0.00819941 0.02017117
v 0.00613801 0.00818396 0.02117633
v 0.00606930 0.00815306 0.02318264
v 0.00657110 0.00790390 0.02318264
v 0.00718533 0.00728006 0.02820444
v 0.00481169 0.00903570 0.00768703
v 0.00521146 0.00885802 0.00806497
v 0.00531973 0.00881552 0.00712414
v 0.00292527 0.00905888 0.02290119
v -0.00171375 0.00889857 0.02749680
v -0.00171375 0.00287841 0.03462543
v -0.00171375 0.00237624 0.03484254
v -0.00071016 0.00240715 0.03485058
v 0.00029344 0.00224298 0.03480234
v 0.00086603 0.00208074 0.03475409
v 0.00123873 0.00245157 0.03444852
v -0.00071016 0.00920567 0.02619411
v 0.00234851 0.00911296 0.02321480
v 0.00129495 0.00923850 0.02318264
v -0.00171375 0.00908206 0.02699422
v 0.00155313 0.00150518 0.03464553
v 0.00173636 0.00076739 0.03470986
v 0.00181548 0.00009913 0.03473801
v 0.00221109 -0.00046098 0.03452089
v 0.00230062 -0.00150393 0.03432388
v 0.00181548 -0.00009788 0.03473801
v 0.00628168 -0.00825996 0.01615453
v 0.00630459 -0.00827541 0.01515339
v 0.00641494 -0.00823485 0.01412812
v 0.00641494 -0.00824065 0.01317522
v 0.00622755 -0.00823099 0.01816486
v 0.00625461 -0.00824644 0.01715969
v 0.00616716 -0.00820009 0.02017117
v 0.00155313 -0.00150393 0.03464553
v 0.00086603 -0.00207949 0.03475409
v 0.00123873 -0.00245225 0.03444852
v 0.00029344 -0.00224366 0.03480234
v -0.00071016 -0.00240783 0.03485058
v -0.00171375 -0.00237499 0.03484254
v -0.00171375 -0.00287716 0.03462945
v -0.00171375 -0.00890312 0.02750484
v -0.00171375 -0.00908274 0.02700226
v -0.00071016 -0.00920635 0.02619411
v 0.00002900 -0.00913295 0.02619411
v 0.00129495 -0.00923918 0.02318264
v 0.00234851 -0.00910785 0.02319872
v 0.00230062 -0.00917158 0.02218149
v 0.00299814 -0.00906729 0.02218149
v 0.00349994 -0.00898230 0.02218149
v 0.00430781 -0.00879689 0.02218149
v 0.00531140 -0.00848400 0.02218149
v 0.00531140 -0.00863465 0.01715969
v 0.00531140 -0.00869453 0.01515339
v 0.00630875 -0.00829859 0.01214594
v 0.00531140 -0.00880462 0.00812930
v 0.00531140 -0.00879496 0.00913446
v 0.00531140 -0.00876985 0.01114077
v -0.00428103 -0.00905956 -0.00191028
v -0.00478283 -0.00881814 -0.00191028
v -0.00372094 -0.00926043 -0.00090511
v -0.00616746 -0.00798377 -0.00291544
v -0.00722727 -0.00702000 -0.00392061
v -0.00750003 -0.00635367 -0.00470464
v -0.00566358 -0.00831597 -0.00191028
v -0.00071016 -0.00983212 0.00210636
v 0.00029344 -0.00986495 0.00310750
v 0.00129495 -0.00976645 0.00611897
v 0.00230062 -0.00963512 0.00712414
v -0.00171375 -0.00973362 0.00210636
v -0.00372094 -0.00925849 0.00009603
v -0.00271734 -0.00954820 0.00110119
v -0.00372094 -0.00925463 0.00110119
v -0.00838702 -0.00526243 -0.00492175
v -0.00930525 -0.00319197 -0.00550877
v -0.00939270 -0.00250826 -0.00560526
v -0.00972584 -0.00150393 -0.00492175
v -0.00981954 -0.00050154 -0.00492175
v -0.00982370 0.00050086 -0.00492175
v 0.00330422 -0.00945163 0.00712414
v 0.00531140 -0.00875440 0.01214594
v 0.00531140 -0.00873895 0.01314708
v 0.00471799 -0.00900741 0.01013561
v 0.00465136 -0.00898810 0.01214594
v 0.00421619 -0.00915806 0.01013561
v -0.00939270 0.00250951 -0.00560526
v -0.00973417 0.00150518 -0.00492175
v -0.00845782 0.00451623 -0.00554093
v -0.00930317 0.00318743 -0.00550475
v -0.00838702 0.00525982 -0.00492175
v -0.00812884 0.00584697 -0.00392061
v -0.00754792 0.00662532 -0.00389246
v -0.00723768 0.00702705 -0.00421412
v -0.00616746 0.00798116 0.00210636
v -0.00616329 0.00798116 -0.00291544
v -0.00566150 0.00831143 -0.00191028
v -0.00478700 0.00881359 -0.00191028
v -0.00428312 0.00906274 -0.00191028
v -0.00372094 0.00926361 -0.00090511
v -0.00171375 0.00973487 0.00210636
v -0.00372094 0.00924236 0.00310750
v -0.00271734 0.00953400 0.00310750
v -0.00071016 0.00983144 0.00210636
v 0.00029344 0.00986620 0.00310750
v 0.00129495 0.00978702 0.00511783
v 0.00230062 0.00965568 0.00611897
v 0.00230062 0.00963637 0.00712414
v 0.00330422 0.00944516 0.00812930
v 0.00427658 0.00917863 0.00913446
v 0.00440151 0.00915931 0.00806497
v 0.00479920 0.00903184 0.00835848
v 0.00531140 0.00880394 0.00913446
v 0.00531140 0.00872861 0.01415224
v 0.00531140 0.00870157 0.01515339
v 0.00531140 0.00848332 0.02218149
v 0.00531140 0.00842152 0.02318264
v 0.00430781 0.00879235 0.02218149
v 0.00352492 0.00897776 0.02218149
v 0.00302313 0.00907819 0.02218149
v 0.00230062 0.00918249 0.02218149
v -0.00231549 0.00905309 0.02682937
v -0.00609458 0.00596671 0.02862661
v -0.00435183 0.00307348 0.03379717
v -0.00372094 0.00312949 0.03389769
v -0.00279438 0.00252882 0.03456110
v -0.00251121 0.00220821 0.03479027
v -0.00171375 0.00150518 0.03505564
v -0.00071016 0.00150518 0.03507574
v 0.00029344 0.00150518 0.03497121
v 0.00105134 0.00150518 0.03480636
v -0.00171375 0.00914000 0.02619411
v 0.00029344 0.00928679 0.02318264
v 0.00029344 0.00963251 0.01214594
v 0.00029344 0.00966341 0.01114077
v 0.00029344 0.00969238 0.01013561
v -0.00071016 0.00965761 0.01013561
v 0.00129495 0.00927713 0.02218149
v 0.00135949 0.00046030 0.03484656
v 0.00173636 -0.00076807 0.03470986
v 0.00135949 -0.00046098 0.03484656
v 0.00531140 -0.00871963 0.01415224
v 0.00105134 -0.00150393 0.03480636
v 0.00029344 -0.00150393 0.03497121
v -0.00071016 -0.00150393 0.03507574
v -0.00251121 -0.00220696 0.03479027
v -0.00171375 -0.00150393 0.03505564
v -0.00279438 -0.00252951 0.03456110
v -0.00435183 -0.00307416 0.03379717
v -0.00372094 -0.00313017 0.03389769
v -0.00231549 -0.00905184 0.02682133
v -0.00605086 -0.00593842 0.02858640
v -0.00171375 -0.00914068 0.02619411
v 0.00029344 -0.00928747 0.02318264
v -0.00071016 -0.00962739 0.01114077
v 0.00029344 -0.00966023 0.01114077
v 0.00029344 -0.00963125 0.01214594
v 0.00129495 -0.00927781 0.02218149
v 0.00230062 -0.00946515 0.01314708
v 0.00330422 -0.00924304 0.01515339
v 0.00384141 -0.00904411 0.01794372
v 0.00395176 -0.00907501 0.01615453
v 0.00400798 -0.00909046 0.01515339
v 0.00450978 -0.00895140 0.01515339
v 0.00456183 -0.00896492 0.01415224
v 0.00460972 -0.00897844 0.01314708
v -0.00427895 -0.00905956 -0.00090511
v -0.00477242 -0.00881427 0.00210636
v -0.00672547 -0.00748161 -0.00291544
v -0.00565109 -0.00831211 0.00210636
v -0.00616537 -0.00798184 -0.00191028
v -0.00763120 -0.00651784 -0.00392061
v -0.00722727 -0.00701807 -0.00291544
v -0.00071016 -0.00983019 0.00310750
v 0.00029344 -0.00981860 0.00511783
v 0.00129495 -0.00974327 0.00712414
v 0.00330422 -0.00943232 0.00812930
v 0.00330422 -0.00941108 0.00913446
v 0.00230062 -0.00961194 0.00812930
v -0.00271734 -0.00954048 0.00210636
v -0.00171375 -0.00972203 0.00310750
v -0.00271734 -0.00953275 0.00310750
v -0.00427062 -0.00905570 0.00210636
v -0.00427271 -0.00905763 0.00110119
v -0.00372094 -0.00924304 0.00310750
v -0.00372094 -0.00924884 0.00210636
v -0.00813300 -0.00585151 -0.00392061
v -0.00843075 -0.00534935 -0.00392061
v -0.00885550 -0.00451691 -0.00392061
v -0.00876597 -0.00451691 -0.00492175
v -0.00911994 -0.00379071 -0.00492175
v -0.00933648 -0.00328854 -0.00492175
v -0.00954469 -0.00250826 -0.00492175
v -0.00972792 -0.00150393 -0.00392061
v -0.00982578 -0.00050154 -0.00392061
v -0.00983203 0.00050086 -0.00392061
v 0.00414957 -0.00913295 0.01214594
v -0.00954469 0.00250951 -0.00492175
v -0.00973625 0.00150518 -0.00392061
v -0.00933232 0.00328207 -0.00492175
v -0.00911994 0.00378423 -0.00492175
v -0.00876597 0.00451623 -0.00492175
v -0.00885550 0.00451623 -0.00392061
v -0.00843075 0.00534480 -0.00392061
v -0.00841825 0.00532549 0.00812930
v -0.00811634 0.00582958 0.00712414
v -0.00761247 0.00648819 0.00812930
v -0.00761038 0.00648626 0.00913446
v -0.00720020 0.00698842 0.00913446
v -0.00670049 0.00745775 0.00812930
v -0.00670673 0.00747900 0.00310750
v -0.00566358 0.00831143 0.00210636
v -0.00616329 0.00797923 0.00310750
v -0.00566150 0.00830950 0.00310750
v -0.00476826 0.00881359 0.00210636
v -0.00428103 0.00906081 -0.00090511
v -0.00426230 0.00905309 0.00310750
v -0.00271734 0.00952242 0.00411266
v -0.00171375 0.00972135 0.00310750
v -0.00071016 0.00983144 0.00310750
v -0.00425188 0.00904729 0.00411266
v -0.00372094 0.00923271 0.00411266
v 0.00029344 0.00982178 0.00511783
v 0.00129495 0.00976770 0.00611897
v 0.00129495 0.00974453 0.00712414
v 0.00230062 0.00961126 0.00812930
v 0.00330422 0.00933893 0.01214594
v 0.00409959 0.00911489 0.01415224
v 0.00413916 0.00912841 0.01314708
v 0.00477837 0.00902411 0.00913446
v 0.00460139 0.00897583 0.01415224
v 0.00464095 0.00898549 0.01314708
v 0.00403921 0.00909944 0.01515339
v 0.00391012 0.00906467 0.01715969
v 0.00385598 0.00904922 0.01798393
v 0.00330422 0.00928292 0.01415224
v 0.00230062 0.00946447 0.01314708
v 0.00129495 0.00959774 0.01214594
v -0.00239669 0.00906854 0.02619411
v -0.00289849 0.00895652 0.02619411
v -0.00529920 0.00807966 0.02575988
v -0.00733970 0.00309279 0.03091034
v -0.00615080 0.00290931 0.03264324
v -0.00548243 0.00310824 0.03289252
v -0.00647145 0.00722212 0.02493564
v -0.00628197 0.00606715 0.02795516
v -0.00726891 0.00505896 0.02781041
v -0.00502020 0.00271231 0.03356397
v -0.00470163 0.00243032 0.03389769
v -0.00372094 0.00250951 0.03429171
v -0.00317958 0.00196293 0.03472192
v -0.00279438 0.00157858 0.03487873
v -0.00271734 0.00050086 0.03503956
v -0.00171375 0.00050086 0.03519234
v -0.00071016 0.00050086 0.03520842
v 0.00029344 0.00050086 0.03509584
v -0.00171375 0.00954752 0.01114077
v 0.00129495 0.00965954 0.01013561
v 0.00129495 0.00968852 0.00913446
v 0.00129495 0.00971749 0.00812930
v 0.00029344 0.00971942 0.00913446
v 0.00029344 0.00977350 0.00712414
v -0.00071016 0.00968272 0.00913446
v 0.00029344 -0.00050154 0.03509584
v -0.00071016 -0.00050154 0.03521244
v -0.00279438 -0.00157926 0.03487873
v -0.00317958 -0.00196361 0.03472192
v -0.00271734 -0.00050154 0.03503956
v -0.00171375 -0.00050154 0.03519234
v -0.00372094 -0.00250826 0.03429171
v -0.00470163 -0.00242907 0.03389769
v -0.00502020 -0.00271106 0.03356397
v -0.00615080 -0.00290999 0.03264324
v -0.00548243 -0.00310699 0.03289252
v -0.00529712 -0.00808034 0.02575586
v -0.00289849 -0.00895720 0.02619411
v -0.00239669 -0.00906729 0.02619411
v -0.00733762 -0.00309347 0.03091034
v -0.00666925 -0.00549806 0.02819640
v -0.00627781 -0.00606203 0.02791495
v -0.00171375 -0.00954627 0.01114077
v 0.00129495 -0.00959842 0.01214594
v 0.00029344 -0.00979542 0.00611897
v 0.00029344 -0.00971430 0.00913446
v 0.00129495 -0.00971817 0.00812930
v 0.00129495 -0.00968920 0.00913446
v 0.00129495 -0.00966023 0.01013561
v 0.00230062 -0.00949606 0.01214594
v 0.00330422 -0.00927395 0.01415224
v 0.00330422 -0.00933189 0.01214594
v 0.00406003 -0.00910591 0.01415224
v 0.00410792 -0.00911943 0.01314708
v -0.00476409 -0.00881041 0.00310750
v -0.00562402 -0.00827734 0.00913446
v -0.00562818 -0.00828314 0.00812930
v -0.00563859 -0.00829280 0.00611897
v -0.00564484 -0.00830438 0.00411266
v -0.00564900 -0.00830825 0.00310750
v -0.00672339 -0.00747968 -0.00191028
v -0.00721061 -0.00700069 0.00611897
v -0.00615496 -0.00797218 0.00210636
v -0.00613622 -0.00796059 0.00712414
v -0.00615080 -0.00797025 0.00310750
v -0.00670673 -0.00745843 0.00712414
v -0.00671298 -0.00746616 0.00411266
v -0.00762704 -0.00651205 -0.00090511
v -0.00761663 -0.00649853 0.00611897
v -0.00171375 -0.00970272 0.00411266
v -0.00171375 -0.00956945 0.01013561
v 0.00330422 -0.00938597 0.01013561
v 0.00230062 -0.00958297 0.00913446
v -0.00271734 -0.00940528 0.01013561
v -0.00271734 -0.00951923 0.00411266
v -0.00426230 -0.00905184 0.00310750
v -0.00424772 -0.00904604 0.00411266
v -0.00372094 -0.00922952 0.00411266
v -0.00415819 -0.00901321 0.00913446
v -0.00843075 -0.00534741 -0.00291544
v -0.00811843 -0.00583220 0.00611897
v -0.00842034 -0.00532810 0.00712414
v -0.00916574 -0.00379264 -0.00191028
v -0.00916574 -0.00379457 -0.00392061
v -0.00884718 -0.00451691 0.00110119
v -0.00915742 -0.00377333 0.00913446
v -0.00933648 -0.00329241 -0.00392061
v -0.00973625 -0.00150393 0.00210636
v -0.00973001 -0.00150393 -0.00291544
v -0.00954678 -0.00250826 0.01013561
v -0.00974458 -0.00150393 0.01013561
v -0.00974042 -0.00150393 0.00611897
v -0.00982995 -0.00050154 -0.00191028
v -0.00984036 0.00050086 0.00611897
v -0.00983411 -0.00050154 0.00110119
v -0.00984036 -0.00050154 0.00611897
v -0.00933440 0.00328786 -0.00392061
v -0.00974042 0.00150518 0.00411266
v -0.00954469 0.00250951 0.00812930
v -0.00916783 0.00379003 -0.00392061
v -0.00916158 0.00378230 0.00310750
v -0.00915742 0.00377458 0.00812930
v -0.00883677 0.00451623 0.00611897
v -0.00883052 0.00451623 0.00913446
v -0.00882427 0.00451623 0.01114077
v -0.00841409 0.00531390 0.01114077
v -0.00811426 0.00582765 0.00812930
v -0.00810593 0.00581606 0.01114077
v -0.00760414 0.00647660 0.01114077
v -0.00718771 0.00697297 0.01214594
v -0.00669632 0.00745389 0.00913446
v -0.00615913 0.00797537 0.00411266
v -0.00476409 0.00881166 0.00310750
v -0.00565525 0.00830563 0.00411266
v -0.00475368 0.00880780 0.00411266
v -0.00372094 0.00921919 0.00511783
v -0.00370636 0.00919601 0.00712414
v -0.00366264 0.00917863 0.00913446
v -0.00363765 0.00916897 0.01013561
v -0.00271734 0.00950503 0.00511783
v -0.00171375 0.00970397 0.00411266
v 0.00029344 0.00979861 0.00611897
v -0.00171375 0.00966341 0.00611897
v -0.00171375 0.00964216 0.00712414
v -0.00171375 0.00959774 0.00913446
v -0.00071016 0.00970783 0.00812930
v -0.00462875 0.00884449 0.00615114
v -0.00472661 0.00877496 0.00812930
v -0.00423939 0.00904150 0.00511783
v -0.00422898 0.00903764 0.00583351
v -0.00421857 0.00903377 0.00650495
v -0.00420816 0.00902991 0.00712414
v 0.00330422 0.00931189 0.01314708
v -0.00296096 0.00898742 0.02519297
v -0.00271734 0.00938529 0.01114077
v -0.00372094 0.00878848 0.02519297
v -0.00472661 0.00842152 0.02519297
v -0.00536583 0.00811636 0.02519297
v -0.00659846 0.00732642 0.02418780
v -0.00747088 0.00248633 0.03123199
v -0.00711275 0.00280501 0.03157777
v -0.00826626 0.00304451 0.02881156
v -0.00812467 0.00283785 0.02948301
v -0.00797684 0.00250565 0.03018662
v -0.00672339 0.00252303 0.03220901
v -0.00633403 0.00224105 0.03282015
v -0.00524923 0.00204211 0.03373686
v -0.00710026 0.00671996 0.02418780
v -0.00472661 0.00150518 0.03415501
v -0.00371261 0.00157858 0.03460130
v -0.00337322 0.00129466 0.03478223
v -0.00349815 0.00050086 0.03482646
v -0.00337322 -0.00129341 0.03478223
v -0.00371261 -0.00157926 0.03460130
v -0.00349815 -0.00050154 0.03482646
v -0.00472661 -0.00150393 0.03415501
v -0.00524923 -0.00204279 0.03373686
v -0.00570106 -0.00247543 0.03319005
v -0.00633403 -0.00223980 0.03282015
v -0.00672339 -0.00252178 0.03220901
v -0.00711275 -0.00280376 0.03157777
v -0.00646937 -0.00722087 0.02493162
v -0.00659638 -0.00732323 0.02418780
v -0.00536583 -0.00811511 0.02519297
v -0.00472661 -0.00842220 0.02519297
v -0.00372094 -0.00879110 0.02519297
v -0.00296096 -0.00898617 0.02519297
v -0.00271734 -0.00935893 0.01214594
v -0.00271734 -0.00938403 0.01114077
v -0.00746880 -0.00248508 0.03123199
v -0.00797684 -0.00250440 0.03018662
v -0.00812467 -0.00283660 0.02948301
v -0.00826626 -0.00304326 0.02881156
v -0.00726891 -0.00505964 0.02781041
v -0.00474952 -0.00880655 0.00411266
v -0.00561777 -0.00827155 0.01013561
v -0.00612581 -0.00795480 0.00913446
v -0.00720853 -0.00699876 0.00712414
v -0.00670049 -0.00745264 0.00913446
v -0.00761455 -0.00649660 0.00712414
v -0.00356478 -0.00914454 0.01214594
v -0.00360226 -0.00915613 0.01114077
v -0.00363349 -0.00916772 0.01013561
v -0.00472661 -0.00875826 0.00913446
v -0.00472661 -0.00874474 0.01013561
v -0.00365639 -0.00917544 0.00913446
v -0.00413737 -0.00900548 0.01013561
v -0.00883468 -0.00451691 0.00812930
v -0.00811426 -0.00582833 0.00812930
v -0.00841825 -0.00532231 0.00913446
v -0.00882844 -0.00451691 0.01114077
v -0.00883260 -0.00451691 0.00913446
v -0.00933648 -0.00328854 -0.00090511
v -0.00933648 -0.00329048 -0.00191028
v -0.00916366 -0.00378685 0.00110119
v -0.00933232 -0.00326537 0.01114077
v -0.00933232 -0.00326923 0.01013561
v -0.00933440 -0.00327502 0.00611897
v -0.00933648 -0.00328661 0.00009603
v -0.00915533 -0.00377139 0.01013561
v -0.00954678 -0.00250826 0.01114077
v -0.00974458 -0.00150393 0.01114077
v -0.00984244 -0.00050154 0.00913446
v -0.00984036 0.00050086 0.00913446
v -0.00933440 0.00328593 -0.00191028
v -0.00974042 0.00150518 0.00812930
v -0.00973001 0.00150518 0.01114077
v -0.00954053 0.00250951 0.00913446
v -0.00932815 0.00325889 0.01114077
v -0.00933232 0.00327048 0.00913446
v -0.00933440 0.00328400 -0.00090511
v -0.00915533 0.00377265 0.00913446
v -0.00915117 0.00376106 0.01114077
v -0.00759373 0.00647081 0.01214594
v -0.00668591 0.00743071 0.01214594
v -0.00668799 0.00744037 0.01114077
v -0.00661095 0.00733607 0.02318264
v -0.00661928 0.00734573 0.02218149
v -0.00663594 0.00736311 0.02017117
v -0.00664219 0.00737277 0.01917002
v -0.00664843 0.00738243 0.01816486
v -0.00666093 0.00739981 0.01615453
v -0.00667342 0.00741526 0.01415224
v -0.00612790 0.00795605 0.00913446
v -0.00615288 0.00797150 0.00511783
v -0.00564484 0.00829598 0.00611897
v -0.00562610 0.00827860 0.00913446
v -0.00472661 0.00878655 0.00712414
v -0.00561777 0.00827280 0.01013561
v -0.00418734 0.00902218 0.00812930
v -0.00416443 0.00901446 0.00913446
v -0.00413945 0.00900673 0.01013561
v -0.00271734 0.00945095 0.00812930
v -0.00271734 0.00948765 0.00611897
v -0.00410822 0.00899708 0.01114077
v -0.00360642 0.00915738 0.01114077
v -0.00271734 0.00942971 0.00913446
v -0.00271734 0.00940846 0.01013561
v -0.00472661 0.00876144 0.00913446
v -0.00472661 0.00874599 0.01013561
v -0.00345859 0.00910717 0.01515339
v -0.00399995 0.00896424 0.01415224
v -0.00472661 0.00844856 0.02418780
v -0.00353563 0.00913227 0.01314708
v -0.00540747 0.00813374 0.02418780
v -0.00591135 0.00782858 0.02418780
v -0.00598215 0.00786528 0.02017117
v -0.00599880 0.00787493 0.01917002
v -0.00601338 0.00788459 0.01816486
v -0.00603004 0.00789232 0.01715969
v -0.00778112 0.00150518 0.03121591
v -0.00727932 0.00213482 0.03177880
v -0.00828916 0.00216765 0.02983280
v -0.00815799 0.00150518 0.03052436
v -0.00837245 0.00250565 0.02916940
v -0.00831415 0.00316232 0.02820444
v -0.00855984 0.00250951 0.02820444
v -0.00695451 0.00150518 0.03238994
v -0.00645271 0.00150518 0.03293273
v -0.00584889 0.00150518 0.03343531
v -0.00534709 0.00150518 0.03380521
v -0.00836204 0.00328400 0.02719927
v -0.00472661 0.00050086 0.03430377
v -0.00399995 0.00050086 0.03464553
v -0.00400203 -0.00050154 0.03464553
v -0.00534709 -0.00150393 0.03380521
v -0.00472661 -0.00050154 0.03430377
v -0.00584889 -0.00150393 0.03343531
v -0.00645271 -0.00150393 0.03293273
v -0.00695451 -0.00150393 0.03238994
v -0.00727932 -0.00213550 0.03177880
v -0.00709818 -0.00671678 0.02418780
v -0.00592801 -0.00783505 0.02318264
v -0.00590927 -0.00782540 0.02418780
v -0.00718771 -0.00697365 0.01214594
v -0.00660887 -0.00733289 0.02318264
v -0.00602795 -0.00789300 0.01715969
v -0.00599880 -0.00787368 0.01917002
v -0.00540747 -0.00813249 0.02418780
v -0.00472661 -0.00845117 0.02418780
v -0.00348982 -0.00911943 0.01415224
v -0.00345234 -0.00910591 0.01515339
v -0.00313169 -0.00901900 0.02218149
v -0.00301926 -0.00899776 0.02418780
v -0.00410405 -0.00899582 0.01114077
v -0.00815799 -0.00150393 0.03052436
v -0.00828916 -0.00216833 0.02983280
v -0.00837245 -0.00250440 0.02917342
v -0.00855984 -0.00250826 0.02820444
v -0.00831415 -0.00316300 0.02820444
v -0.00610708 -0.00794128 0.01114077
v -0.00611957 -0.00794901 0.01013561
v -0.00555322 -0.00822520 0.01515339
v -0.00604253 -0.00790072 0.01615453
v -0.00606960 -0.00791617 0.01415224
v -0.00669632 -0.00744684 0.01013561
v -0.00720645 -0.00699490 0.00812930
v -0.00719395 -0.00698331 0.01114077
v -0.00720228 -0.00699103 0.00913446
v -0.00761038 -0.00648887 0.00913446
v -0.00472661 -0.00872543 0.01114077
v -0.00547827 -0.00817691 0.02017117
v -0.00549492 -0.00818657 0.01917002
v -0.00551158 -0.00819623 0.01816486
v -0.00554073 -0.00821554 0.01615453
v -0.00472661 -0.00849559 0.02218149
v -0.00472661 -0.00856126 0.01917002
v -0.00811218 -0.00582447 0.00913446
v -0.00841617 -0.00531458 0.01114077
v -0.00915325 -0.00376753 0.01114077
v -0.00865146 -0.00250826 0.02719927
v -0.00890548 -0.00150393 0.02719927
v -0.00984036 -0.00050154 0.01114077
v -0.00903665 -0.00050154 0.02719927
v -0.00983620 0.00050086 0.01114077
v -0.00953220 0.00250951 0.01114077
v -0.00903665 0.00050086 0.02719927
v -0.00890548 0.00150518 0.02719927
v -0.00865146 0.00250951 0.02719927
v -0.00611957 0.00795026 0.01013561
v -0.00604253 0.00790197 0.01615453
v -0.00606960 0.00791742 0.01415224
v -0.00560528 0.00826508 0.01114077
v -0.00472661 0.00872861 0.01114077
v -0.00472661 0.00864749 0.01515339
v -0.00472661 0.00858182 0.01816486
v -0.00559279 0.00825542 0.01214594
v -0.00556780 0.00823610 0.01415224
v -0.00554073 0.00821679 0.01615453
v -0.00549701 0.00818782 0.01917002
v -0.00542621 0.00814533 0.02318264
v -0.00822253 0.00080795 0.03067312
v -0.00799558 0.00048541 0.03113148
v -0.00736261 0.00150518 0.03188736
v -0.00836828 0.00150518 0.03002178
v -0.00863272 0.00150518 0.02920558
v -0.00882635 0.00150518 0.02820444
v -0.00704612 0.00050086 0.03250252
v -0.00654433 0.00050086 0.03302119
v -0.00596549 0.00050086 0.03352377
v -0.00546369 0.00050086 0.03388563
v -0.00546369 -0.00050154 0.03388563
v -0.00596549 -0.00050154 0.03352377
v -0.00654433 -0.00050154 0.03302119
v -0.00704612 -0.00050154 0.03250252
v -0.00736261 -0.00150393 0.03188736
v -0.00778112 -0.00150393 0.03121591
v -0.00836204 -0.00328275 0.02719927
v -0.00810593 -0.00581674 0.01114077
v -0.00759373 -0.00647149 0.01214594
v -0.00542621 -0.00814408 0.02318264
v -0.00760414 -0.00648114 0.01114077
v -0.00664219 -0.00737152 0.01917002
v -0.00663594 -0.00736186 0.02017117
v -0.00661928 -0.00734255 0.02218149
v -0.00836828 -0.00150393 0.03002178
v -0.00822253 -0.00080863 0.03067312
v -0.00863272 -0.00150393 0.02920558
v -0.00882635 -0.00150393 0.02820444
v -0.00669216 -0.00743912 0.01114077
v -0.00665468 -0.00739083 0.01715969
v -0.00896586 -0.00050154 0.02820444
v -0.00896586 0.00050086 0.02820444
v -0.00825168 0.00013969 0.03073745
v -0.00840993 0.00048541 0.03028714
v -0.00744589 0.00050086 0.03199994
v -0.00878055 0.00050086 0.02920558
v -0.00744589 -0.00050154 0.03199994
v -0.00799558 -0.00048416 0.03113148
v -0.00840993 -0.00048416 0.03028714
v -0.00878055 -0.00050154 0.02920558
v -0.00825168 -0.00013844 0.03073745
f 1 2 8
f 1 8 3
f 1 3 4
f 1 4 13
f 1 13 5
f 1 5 6
f 1 6 2
f 2 7 8
f 2 6 7
f 3 8 20
f 3 20 9
f 3 9 10
f 3 10 4
f 4 10 25
f 4 25 11
f 4 11 12
f 4 12 28
f 4 28 13
f 5 13 14
f 5 14 16
f 5 16 6
f 6 15 7
f 6 16 15
f 7 15 17
f 7 17 18
f 7 18 19
f 7 19 20
f 7 20 8
f 9 20 21
f 9 21 22
f 9 22 23
f 9 23 24
f 9 24 10
f 10 24 25
f 11 26 12
f 11 25 27
f 11 27 26
f 12 26 28
f 13 28 29
f 13 29 14
f 14 29 30
f 14 30 31
f 14 31 34
f 14 34 16
f 15 32 17
f 15 16 33
f 15 33 60
f 15 60 32
f 16 34 35
f 16 35 33
f 17 32 36
f 17 36 37
f 17 37 38
f 17 38 39
f 17 39 18
f 18 39 40
f 18 40 41
f 18 41 19
f 19 41 42
f 19 42 20
f 20 42 21
f 21 42 43
f 21 43 44
f 21 44 45
f 21 45 22
f 22 45 46
f 22 46 23
f 23 46 47
f 23 47 48
f 23 48 24
f 24 48 25
f 25 48 49
f 25 49 27
f 26 50 51
f 26 51 52
f 26 52 28
f 26 27 53
f 26 53 50
f 27 49 54
f 27 54 53
f 28 52 55
f 28 55 56
f 28 56 29
f 29 56 57
f 29 57 30
f 30 57 58
f 30 58 31
f 31 58 59
f 31 59 62
f 31 62 34
f 32 60 61
f 32 61 36
f 33 35 60
f 34 62 63
f 34 63 35
f 35 64 60
f 35 63 64
f 36 65 66
f 36 66 37
f 36 61 103
f 36 103 65
f 37 66 67
f 37 67 68
f 37 68 38
f 38 68 39
f 39 68 69
f 39 69 40
f 40 69 70
f 40 70 71
f 40 71 72
f 40 72 73
f 40 73 41
f 41 73 74
f 41 74 42
f 42 74 43
f 43 74 75
f 43 75 76
f 43 76 77
f 43 77 78
f 43 78 44
f 44 78 45
f 45 78 79
f 45 79 80
f 45 80 46
f 46 80 81
f 46 81 82
f 46 82 47
f 47 82 81
f 47 81 83
f 47 83 84
f 47 84 48
f 48 84 83
f 48 83 85
f 48 85 49
f 49 85 86
f 49 86 54
f 50 53 87
f 50 87 51
f 51 88 89
f 51 89 52
f 51 87 88
f 52 89 93
f 52 93 55
f 53 54 90
f 53 90 87
f 54 91 90
f 54 86 92
f 54 92 91
f 55 93 94
f 55 94 56
f 56 94 57
f 57 94 95
f 57 95 96
f 57 96 97
f 57 97 98
f 57 98 58
f 58 98 99
f 58 99 59
f 59 99 100
f 59 100 104
f 59 104 62
f 60 64 101
f 60 101 102
f 60 102 61
f 61 102 103
f 62 104 105
f 62 105 63
f 63 105 106
f 63 106 64
f 64 106 101
f 65 107 108
f 65 108 66
f 65 103 109
f 65 109 107
f 66 108 110
f 66 110 67
f 67 110 68
f 68 110 111
f 68 111 69
f 69 111 112
f 69 112 113
f 69 113 71
f 69 71 70
f 71 114 73
f 71 73 72
f 71 113 115
f 71 115 116
f 71 116 117
f 71 117 114
f 73 114 74
f 74 114 76
f 74 76 75
f 76 118 119
f 76 119 120
f 76 120 77
f 76 114 118
f 77 120 121
f 77 121 122
f 77 122 78
f 78 122 79
f 79 122 123
f 79 123 124
f 79 124 125
f 79 125 80
f 80 125 126
f 80 126 81
f 81 126 127
f 81 127 128
f 81 128 83
f 83 128 129
f 83 129 86
f 83 86 85
f 86 129 130
f 86 130 92
f 87 90 131
f 87 131 132
f 87 132 88
f 88 133 134
f 88 134 135
f 88 135 89
f 88 132 133
f 89 135 136
f 89 136 93
f 90 91 92
f 90 92 137
f 90 137 131
f 92 130 137
f 93 136 138
f 93 138 139
f 93 139 140
f 93 140 94
f 94 140 95
f 95 140 96
f 96 141 98
f 96 98 97
f 96 140 142
f 96 142 143
f 96 143 144
f 96 144 141
f 98 141 145
f 98 145 99
f 99 145 146
f 99 146 147
f 99 147 148
f 99 148 149
f 99 149 100
f 100 149 104
f 101 150 102
f 101 106 150
f 102 150 151
f 102 151 152
f 102 152 103
f 103 152 153
f 103 153 109
f 104 149 148
f 104 148 154
f 104 154 105
f 105 154 155
f 105 155 156
f 105 156 157
f 105 157 106
f 106 158 150
f 106 157 158
f 107 159 160
f 107 160 108
f 107 109 161
f 107 161 159
f 108 160 162
f 108 162 110
f 109 153 163
f 109 163 161
f 110 162 164
f 110 164 111
f 111 164 165
f 111 165 166
f 111 166 112
f 112 166 167
f 112 167 113
f 113 167 115
f 114 117 118
f 115 167 116
f 116 168 169
f 116 169 170
f 116 170 117
f 116 167 168
f 117 170 171
f 117 171 119
f 117 119 118
f 119 171 172
f 119 172 120
f 120 172 173
f 120 173 121
f 121 173 174
f 121 174 123
f 121 123 122
f 123 174 175
f 123 175 124
f 124 175 176
f 124 176 177
f 124 177 125
f 125 177 178
f 125 178 126
f 126 178 179
f 126 179 127
f 127 179 180
f 127 180 129
f 127 129 128
f 129 180 181
f 129 181 182
f 129 182 130
f 130 182 137
f 131 183 184
f 131 184 132
f 131 137 185
f 131 185 183
f 132 184 186
f 132 186 133
f 133 187 134
f 133 186 187
f 134 187 188
f 134 188 189
f 134 189 135
f 135 189 136
f 136 189 190
f 136 190 138
f 137 182 191
f 137 191 192
f 137 192 185
f 138 190 193
f 138 193 194
f 138 194 139
f 139 194 142
f 139 142 140
f 141 144 195
f 141 195 145
f 142 194 196
f 142 196 197
f 142 197 143
f 143 197 144
f 144 197 198
f 144 198 199
f 144 199 200
f 144 200 201
f 144 201 195
f 145 195 201
f 145 201 146
f 146 201 200
f 146 200 202
f 146 202 203
f 146 203 147
f 147 203 148
f 148 203 202
f 148 202 204
f 148 204 209
f 148 209 154
f 150 158 205
f 150 205 206
f 150 206 151
f 151 206 152
f 152 206 207
f 152 207 153
f 153 207 208
f 153 208 163
f 154 209 270
f 154 270 210
f 154 210 155
f 155 210 156
f 156 211 212
f 156 212 213
f 156 213 157
f 156 210 211
f 157 213 158
f 158 213 205
f 159 214 215
f 159 215 160
f 159 161 214
f 160 215 216
f 160 216 162
f 161 163 214
f 162 216 217
f 162 217 164
f 163 218 219
f 163 219 214
f 163 208 220
f 163 220 221
f 163 221 218
f 164 217 222
f 164 222 223
f 164 223 165
f 165 223 166
f 166 223 167
f 167 223 224
f 167 224 168
f 168 224 225
f 168 225 169
f 169 225 226
f 169 226 170
f 170 226 172
f 170 172 171
f 172 226 227
f 172 227 228
f 172 228 229
f 172 229 230
f 172 230 231
f 172 231 173
f 173 231 232
f 173 232 174
f 174 232 233
f 174 233 175
f 175 233 176
f 176 233 234
f 176 234 177
f 177 234 235
f 177 235 178
f 178 235 236
f 178 236 179
f 179 236 237
f 179 237 238
f 179 238 239
f 179 239 240
f 179 240 241
f 179 241 181
f 179 181 180
f 181 241 242
f 181 242 182
f 182 242 191
f 183 185 243
f 183 243 244
f 183 244 184
f 184 245 186
f 184 244 245
f 185 192 243
f 186 245 246
f 186 246 187
f 187 247 188
f 187 246 247
f 188 247 248
f 188 248 249
f 188 249 250
f 188 250 189
f 189 250 190
f 190 251 252
f 190 252 193
f 190 250 253
f 190 253 251
f 191 242 254
f 191 254 192
f 192 254 255
f 192 255 256
f 192 256 257
f 192 257 243
f 193 252 194
f 194 252 196
f 196 258 197
f 196 252 258
f 197 258 259
f 197 259 198
f 198 259 260
f 198 260 199
f 199 261 200
f 199 260 261
f 200 261 262
f 200 262 263
f 200 263 202
f 202 263 204
f 204 263 264
f 204 264 265
f 204 265 209
f 205 213 212
f 205 212 211
f 205 211 266
f 205 266 267
f 205 267 268
f 205 268 206
f 206 268 207
f 207 220 208
f 207 268 220
f 209 265 269
f 209 269 270
f 210 270 211
f 211 269 271
f 211 271 272
f 211 272 266
f 211 270 269
f 214 273 275
f 214 275 215
f 214 219 274
f 214 274 273
f 215 275 276
f 215 276 277
f 215 277 216
f 216 277 278
f 216 278 217
f 217 278 279
f 217 279 280
f 217 280 222
f 218 221 281
f 218 281 274
f 218 274 219
f 220 282 221
f 220 268 283
f 220 283 284
f 220 284 282
f 221 282 285
f 221 285 281
f 222 280 286
f 222 286 223
f 223 286 224
f 224 287 288
f 224 288 289
f 224 289 225
f 224 286 287
f 225 289 290
f 225 290 291
f 225 291 226
f 226 291 292
f 226 292 293
f 226 293 294
f 226 294 227
f 227 294 295
f 227 295 228
f 228 295 229
f 229 295 296
f 229 296 230
f 230 297 298
f 230 298 231
f 230 296 293
f 230 293 299
f 230 299 300
f 230 300 301
f 230 301 297
f 231 298 297
f 231 297 302
f 231 302 232
f 232 302 233
f 233 302 303
f 233 303 304
f 233 304 234
f 234 304 305
f 234 305 235
f 235 305 236
f 236 305 306
f 236 306 307
f 236 307 237
f 237 308 309
f 237 309 310
f 237 310 238
f 237 307 306
f 237 306 311
f 237 311 312
f 237 312 308
f 238 310 313
f 238 313 239
f 239 313 240
f 240 313 314
f 240 314 241
f 241 314 309
f 241 309 315
f 241 315 316
f 241 316 254
f 241 254 242
f 243 257 256
f 243 256 317
f 243 317 244
f 244 317 318
f 244 318 319
f 244 319 245
f 245 320 246
f 245 319 320
f 246 320 321
f 246 321 247
f 247 322 248
f 247 321 322
f 248 322 323
f 248 323 249
f 249 324 253
f 249 253 250
f 249 323 324
f 251 253 324
f 251 324 325
f 251 325 326
f 251 326 252
f 252 326 327
f 252 327 258
f 254 316 328
f 254 328 255
f 255 328 256
f 256 328 329
f 256 329 330
f 256 330 331
f 256 331 317
f 258 327 332
f 258 332 259
f 259 332 333
f 259 333 260
f 260 333 334
f 260 334 335
f 260 335 336
f 260 336 337
f 260 337 261
f 261 337 262
f 262 337 338
f 262 338 339
f 262 339 340
f 262 340 264
f 262 264 263
f 264 340 341
f 264 341 265
f 265 341 271
f 265 271 269
f 266 272 342
f 266 342 267
f 267 343 268
f 267 342 343
f 268 343 283
f 271 341 344
f 271 344 345
f 271 345 272
f 272 345 342
f 273 346 347
f 273 347 348
f 273 348 349
f 273 349 275
f 273 274 350
f 273 350 351
f 273 351 346
f 274 281 357
f 274 357 350
f 275 349 276
f 276 349 277
f 277 349 352
f 277 352 278
f 278 352 353
f 278 353 354
f 278 354 279
f 279 354 280
f 280 354 355
f 280 355 356
f 280 356 288
f 280 288 286
f 281 285 357
f 282 284 285
f 283 343 358
f 283 358 284
f 284 358 359
f 284 359 360
f 284 360 285
f 285 361 362
f 285 362 357
f 285 360 363
f 285 363 361
f 286 288 287
f 288 364 365
f 288 365 290
f 288 290 289
f 288 356 366
f 288 366 364
f 290 367 368
f 290 368 369
f 290 369 291
f 290 365 364
f 290 364 367
f 291 369 370
f 291 370 292
f 292 370 371
f 292 371 293
f 293 296 372
f 293 372 294
f 293 371 370
f 293 370 373
f 293 373 300
f 293 300 299
f 294 372 295
f 295 372 296
f 297 374 302
f 297 301 374
f 300 375 376
f 300 376 301
f 300 373 377
f 300 377 378
f 300 378 379
f 300 379 380
f 300 380 381
f 300 381 382
f 300 382 383
f 300 383 384
f 300 384 385
f 300 385 375
f 301 376 386
f 301 386 387
f 301 387 374
f 302 374 303
f 303 374 388
f 303 388 304
f 304 388 389
f 304 389 390
f 304 390 305
f 305 390 306
f 306 390 311
f 308 312 309
f 309 391 392
f 309 392 393
f 309 393 315
f 309 314 394
f 309 394 310
f 309 312 391
f 310 394 313
f 311 395 396
f 311 396 397
f 311 397 312
f 311 390 395
f 312 397 398
f 312 398 399
f 312 399 400
f 312 400 401
f 312 401 402
f 312 402 403
f 312 403 404
f 312 404 405
f 312 405 406
f 312 406 407
f 312 407 408
f 312 408 409
f 312 409 391
f 313 394 314
f 315 393 392
f 315 392 316
f 316 410 328
f 316 392 410
f 317 331 411
f 317 411 318
f 318 411 412
f 318 412 319
f 319 412 413
f 319 413 320
f 320 414 415
f 320 415 321
f 320 413 416
f 320 416 414
f 321 415 417
f 321 417 322
f 322 418 323
f 322 417 418
f 323 418 419
f 323 419 420
f 323 420 421
f 323 421 324
f 324 421 422
f 324 422 325
f 325 422 423
f 325 423 424
f 325 424 326
f 326 424 425
f 326 425 327
f 327 425 426
f 327 426 427
f 327 427 428
f 327 428 429
f 327 429 332
f 328 410 430
f 328 430 431
f 328 431 330
f 328 330 329
f 330 432 433
f 330 433 331
f 330 431 434
f 330 434 432
f 331 433 412
f 331 412 411
f 332 429 333
f 333 435 436
f 333 436 334
f 333 429 435
f 334 436 437
f 334 437 335
f 335 437 438
f 335 438 439
f 335 439 336
f 336 439 440
f 336 440 338
f 336 338 337
f 338 440 441
f 338 441 339
f 339 441 442
f 339 442 443
f 339 443 340
f 340 443 444
f 340 444 341
f 341 444 445
f 341 445 344
f 342 345 446
f 342 446 447
f 342 447 448
f 342 448 449
f 342 449 343
f 343 449 358
f 344 445 450
f 344 450 451
f 344 451 446
f 344 446 345
f 346 452 347
f 346 351 453
f 346 453 454
f 346 454 452
f 347 452 349
f 347 349 348
f 349 452 455
f 349 455 352
f 350 453 351
f 350 357 456
f 350 456 453
f 352 455 457
f 352 457 458
f 352 458 353
f 353 458 459
f 353 459 354
f 354 459 460
f 354 460 355
f 355 460 356
f 356 460 366
f 357 362 361
f 357 361 456
f 358 449 359
f 359 461 360
f 359 449 462
f 359 462 463
f 359 463 461
f 360 461 363
f 361 464 465
f 361 465 466
f 361 466 456
f 361 363 467
f 361 467 468
f 361 468 469
f 361 469 464
f 363 461 470
f 363 470 471
f 363 471 472
f 363 472 467
f 364 366 473
f 364 473 474
f 364 474 475
f 364 475 367
f 366 460 473
f 367 475 380
f 367 380 368
f 368 380 379
f 368 379 369
f 369 379 370
f 370 379 476
f 370 476 373
f 373 476 377
f 374 387 388
f 375 477 478
f 375 478 479
f 375 479 480
f 375 480 376
f 375 385 481
f 375 481 477
f 376 480 487
f 376 487 397
f 376 397 396
f 376 396 386
f 377 476 378
f 378 476 379
f 380 475 482
f 380 482 382
f 380 382 381
f 382 482 383
f 383 482 483
f 383 483 484
f 383 484 481
f 383 481 485
f 383 485 384
f 384 485 385
f 385 485 481
f 386 396 395
f 386 395 387
f 387 395 388
f 388 395 389
f 389 395 390
f 391 409 486
f 391 486 392
f 392 486 407
f 392 407 410
f 397 487 398
f 398 487 488
f 398 488 489
f 398 489 490
f 398 490 491
f 398 491 399
f 399 491 400
f 400 491 402
f 400 402 401
f 402 491 492
f 402 492 493
f 402 493 494
f 402 494 403
f 403 494 405
f 403 405 404
f 405 494 434
f 405 434 431
f 405 431 430
f 405 430 407
f 405 407 406
f 407 486 408
f 407 430 410
f 408 486 409
f 412 433 413
f 413 433 416
f 414 416 495
f 414 495 415
f 415 496 417
f 415 495 497
f 415 497 496
f 416 433 498
f 416 498 495
f 417 496 499
f 417 499 418
f 418 500 419
f 418 499 500
f 419 500 501
f 419 501 502
f 419 502 503
f 419 503 420
f 420 503 504
f 420 504 505
f 420 505 421
f 421 505 422
f 422 505 506
f 422 506 507
f 422 507 423
f 423 507 508
f 423 508 424
f 424 508 509
f 424 509 425
f 425 509 426
f 426 509 427
f 427 509 428
f 428 509 510
f 428 510 429
f 429 510 435
f 432 434 511
f 432 511 512
f 432 512 513
f 432 513 514
f 432 514 433
f 433 514 515
f 433 515 495
f 433 495 498
f 434 494 511
f 435 510 516
f 435 516 517
f 435 517 436
f 436 517 518
f 436 518 437
f 437 518 519
f 437 519 438
f 438 519 520
f 438 520 521
f 438 521 522
f 438 522 439
f 439 523 440
f 439 522 523
f 440 523 441
f 441 523 524
f 441 524 442
f 442 525 443
f 442 524 526
f 442 526 525
f 443 525 527
f 443 527 444
f 444 527 528
f 444 528 445
f 445 528 450
f 446 451 529
f 446 529 447
f 447 529 530
f 447 530 531
f 447 531 448
f 448 531 532
f 448 532 449
f 449 532 462
f 450 528 533
f 450 533 534
f 450 534 451
f 451 534 529
f 452 535 536
f 452 536 455
f 452 454 535
f 453 456 466
f 453 466 537
f 453 537 538
f 453 538 539
f 453 539 535
f 453 535 454
f 455 536 540
f 455 540 457
f 457 540 541
f 457 541 542
f 457 542 458
f 458 542 543
f 458 543 473
f 458 473 459
f 459 473 460
f 461 463 470
f 462 532 544
f 462 544 463
f 463 544 545
f 463 545 470
f 464 469 465
f 465 469 546
f 465 546 466
f 466 547 548
f 466 548 537
f 466 546 547
f 467 472 468
f 468 472 471
f 468 471 549
f 468 549 546
f 468 546 469
f 470 549 471
f 470 545 549
f 473 550 474
f 473 543 550
f 474 551 552
f 474 552 553
f 474 553 475
f 474 550 551
f 475 553 482
f 477 554 555
f 477 555 556
f 477 556 478
f 477 481 557
f 477 557 558
f 477 558 554
f 478 556 479
f 479 556 555
f 479 555 559
f 479 559 480
f 480 559 560
f 480 560 561
f 480 561 562
f 480 562 563
f 480 563 564
f 480 564 487
f 481 484 565
f 481 565 557
f 482 553 552
f 482 552 483
f 483 552 484
f 484 552 566
f 484 566 567
f 484 567 565
f 487 564 568
f 487 568 569
f 487 569 570
f 487 570 571
f 487 571 488
f 488 572 573
f 488 573 489
f 488 571 572
f 489 573 490
f 490 573 572
f 490 572 574
f 490 574 575
f 490 575 576
f 490 576 491
f 491 576 577
f 491 577 492
f 492 577 578
f 492 578 579
f 492 579 512
f 492 512 493
f 493 512 494
f 494 512 511
f 495 515 580
f 495 580 497
f 496 581 582
f 496 582 499
f 496 497 580
f 496 580 583
f 496 583 581
f 499 582 584
f 499 584 585
f 499 585 500
f 500 585 501
f 501 585 502
f 502 585 586
f 502 586 503
f 503 587 504
f 503 586 588
f 503 588 587
f 504 587 589
f 504 589 590
f 504 590 505
f 505 590 591
f 505 591 506
f 506 591 592
f 506 592 507
f 507 592 593
f 507 593 594
f 507 594 595
f 507 595 596
f 507 596 508
f 508 596 509
f 509 595 597
f 509 597 598
f 509 598 599
f 509 599 510
f 509 596 595
f 510 599 516
f 512 579 600
f 512 600 513
f 513 600 601
f 513 601 602
f 513 602 514
f 514 602 580
f 514 580 515
f 516 603 517
f 516 599 603
f 517 604 605
f 517 605 606
f 517 606 607
f 517 607 518
f 517 603 608
f 517 608 609
f 517 609 604
f 518 607 610
f 518 610 519
f 519 610 520
f 520 610 611
f 520 611 521
f 521 611 612
f 521 612 613
f 521 613 523
f 521 523 522
f 523 613 524
f 524 613 526
f 525 526 614
f 525 614 527
f 526 613 620
f 526 620 614
f 527 614 528
f 528 614 533
f 529 534 615
f 529 615 530
f 530 615 616
f 530 616 617
f 530 617 618
f 530 618 531
f 531 619 532
f 531 618 619
f 532 619 544
f 533 614 620
f 533 620 534
f 534 620 616
f 534 616 615
f 535 539 621
f 535 621 622
f 535 622 536
f 536 622 623
f 536 623 540
f 537 548 624
f 537 624 625
f 537 625 621
f 537 621 538
f 538 621 539
f 540 626 627
f 540 627 541
f 540 623 626
f 541 627 628
f 541 628 629
f 541 629 543
f 541 543 542
f 543 629 550
f 544 619 630
f 544 630 631
f 544 631 632
f 544 632 633
f 544 633 634
f 544 634 635
f 544 635 636
f 544 636 545
f 545 636 637
f 545 637 638
f 545 638 549
f 546 639 547
f 546 549 639
f 547 640 641
f 547 641 548
f 547 639 640
f 548 641 624
f 549 638 639
f 550 629 642
f 550 642 551
f 551 643 644
f 551 644 552
f 551 642 645
f 551 645 643
f 552 644 566
f 554 646 555
f 554 558 646
f 555 647 648
f 555 648 559
f 555 646 649
f 555 649 647
f 557 650 558
f 557 565 651
f 557 651 650
f 558 650 652
f 558 652 653
f 558 653 646
f 559 648 654
f 559 654 560
f 560 654 655
f 560 655 561
f 561 655 656
f 561 656 562
f 562 656 657
f 562 657 658
f 562 658 563
f 563 658 564
f 564 658 659
f 564 659 568
f 565 567 660
f 565 660 651
f 566 644 661
f 566 661 662
f 566 662 663
f 566 663 567
f 567 663 664
f 567 664 660
f 568 659 665
f 568 665 666
f 568 666 569
f 569 666 570
f 570 666 667
f 570 667 571
f 571 667 668
f 571 668 572
f 572 668 669
f 572 669 670
f 572 670 671
f 572 671 574
f 574 671 575
f 575 672 673
f 575 673 674
f 575 674 576
f 575 671 672
f 576 674 675
f 576 675 577
f 577 675 676
f 577 676 677
f 577 677 578
f 578 677 678
f 578 678 579
f 579 678 600
f 580 602 679
f 580 679 583
f 581 583 680
f 581 680 679
f 581 679 582
f 582 679 681
f 582 681 682
f 582 682 584
f 583 679 680
f 584 683 585
f 584 682 683
f 585 683 684
f 585 684 586
f 586 685 686
f 586 686 687
f 586 687 588
f 586 684 685
f 587 588 687
f 587 687 688
f 587 688 589
f 589 688 689
f 589 689 690
f 589 690 590
f 590 690 591
f 591 690 592
f 592 690 594
f 592 594 593
f 594 691 598
f 594 598 597
f 594 597 595
f 594 690 691
f 598 691 599
f 599 691 603
f 600 678 692
f 600 692 693
f 600 693 694
f 600 694 601
f 601 694 679
f 601 679 602
f 603 691 695
f 603 695 608
f 604 609 696
f 604 696 605
f 605 697 698
f 605 698 699
f 605 699 700
f 605 700 606
f 605 696 697
f 606 700 701
f 606 701 702
f 606 702 607
f 607 702 610
f 608 703 609
f 608 695 704
f 608 704 705
f 608 705 703
f 609 703 706
f 609 706 696
f 610 702 701
f 610 701 707
f 610 707 611
f 611 707 708
f 611 708 612
f 612 708 709
f 612 709 613
f 613 709 712
f 613 712 620
f 616 620 710
f 616 710 711
f 616 711 617
f 617 711 630
f 617 630 618
f 618 630 619
f 620 712 710
f 621 713 714
f 621 714 622
f 621 625 718
f 621 718 713
f 622 714 623
f 623 715 716
f 623 716 645
f 623 645 626
f 623 714 715
f 624 717 718
f 624 718 625
f 624 641 719
f 624 719 717
f 626 645 627
f 627 645 642
f 627 642 628
f 628 642 629
f 630 711 720
f 630 720 721
f 630 721 722
f 630 722 631
f 631 722 632
f 632 722 721
f 632 721 723
f 632 723 633
f 633 723 724
f 633 724 725
f 633 725 726
f 633 726 727
f 633 727 634
f 634 727 635
f 635 727 728
f 635 728 729
f 635 729 636
f 636 729 730
f 636 730 731
f 636 731 732
f 636 732 637
f 637 732 733
f 637 733 734
f 637 734 735
f 637 735 736
f 637 736 638
f 638 736 737
f 638 737 639
f 639 737 640
f 640 737 738
f 640 738 739
f 640 739 641
f 641 739 719
f 643 645 740
f 643 740 715
f 643 715 644
f 644 715 741
f 644 741 742
f 644 742 743
f 644 743 661
f 645 716 740
f 646 744 745
f 646 745 649
f 646 653 746
f 646 746 744
f 647 649 747
f 647 747 748
f 647 748 648
f 648 749 654
f 648 748 749
f 649 745 750
f 649 750 747
f 650 751 652
f 650 651 752
f 650 752 751
f 651 753 752
f 651 660 754
f 651 754 753
f 652 751 755
f 652 755 653
f 653 756 746
f 653 755 757
f 653 757 870
f 653 870 758
f 653 758 756
f 654 759 760
f 654 760 655
f 654 749 748
f 654 748 759
f 655 760 761
f 655 761 656
f 656 761 657
f 657 761 762
f 657 762 763
f 657 763 658
f 658 763 764
f 658 764 659
f 659 764 665
f 660 664 765
f 660 765 754
f 661 743 766
f 661 766 767
f 661 767 662
f 662 768 663
f 662 767 768
f 663 768 769
f 663 769 770
f 663 770 765
f 663 765 664
f 665 771 666
f 665 764 772
f 665 772 771
f 666 771 773
f 666 773 667
f 667 773 771
f 667 771 774
f 667 774 775
f 667 775 669
f 667 669 668
f 669 775 776
f 669 776 777
f 669 777 778
f 669 778 779
f 669 779 780
f 669 780 670
f 670 780 781
f 670 781 782
f 670 782 671
f 671 782 783
f 671 783 784
f 671 784 672
f 672 785 673
f 672 784 786
f 672 786 787
f 672 787 785
f 673 785 788
f 673 788 674
f 674 788 789
f 674 789 675
f 675 789 790
f 675 790 676
f 676 790 791
f 676 791 677
f 677 791 792
f 677 792 793
f 677 793 794
f 677 794 678
f 678 794 795
f 678 795 796
f 678 796 692
f 679 694 681
f 681 694 797
f 681 797 683
f 681 683 682
f 683 797 798
f 683 798 684
f 684 798 685
f 685 798 799
f 685 799 686
f 686 799 687
f 687 799 688
f 688 799 689
f 689 799 800
f 689 800 801
f 689 801 691
f 689 691 690
f 691 801 695
f 692 796 797
f 692 797 693
f 693 797 694
f 695 801 802
f 695 802 803
f 695 803 804
f 695 804 805
f 695 805 704
f 696 706 806
f 696 806 807
f 696 807 808
f 696 808 809
f 696 809 697
f 697 809 808
f 697 808 810
f 697 810 811
f 697 811 698
f 698 811 812
f 698 812 813
f 698 813 699
f 699 813 700
f 700 813 814
f 700 814 701
f 701 814 815
f 701 815 707
f 703 816 706
f 703 705 817
f 703 817 818
f 703 818 819
f 703 819 820
f 703 820 821
f 703 821 816
f 704 805 705
f 705 805 822
f 705 822 817
f 706 816 806
f 707 815 708
f 708 815 823
f 708 823 709
f 709 823 825
f 709 825 712
f 710 712 824
f 710 824 711
f 711 824 720
f 712 825 824
f 713 718 714
f 714 826 767
f 714 767 766
f 714 766 743
f 714 743 742
f 714 742 715
f 714 718 826
f 715 742 741
f 715 740 716
f 717 739 718
f 717 719 739
f 718 739 826
f 720 824 827
f 720 827 721
f 721 827 828
f 721 828 723
f 723 828 829
f 723 829 724
f 724 829 725
f 725 830 726
f 725 829 831
f 725 831 830
f 726 830 832
f 726 832 833
f 726 833 834
f 726 834 727
f 727 835 728
f 727 834 833
f 727 833 836
f 727 836 835
f 728 835 837
f 728 837 729
f 729 838 731
f 729 731 730
f 729 837 839
f 729 839 840
f 729 840 841
f 729 841 838
f 731 838 842
f 731 842 733
f 731 733 732
f 733 842 843
f 733 843 734
f 734 844 735
f 734 843 844
f 735 844 845
f 735 845 736
f 736 845 846
f 736 846 847
f 736 847 848
f 736 848 737
f 737 848 849
f 737 849 738
f 738 849 739
f 739 849 850
f 739 850 826
f 744 746 851
f 744 851 745
f 745 851 852
f 745 852 750
f 746 756 851
f 747 853 748
f 747 750 854
f 747 854 855
f 747 855 983
f 747 983 853
f 748 856 759
f 748 853 857
f 748 857 856
f 750 852 854
f 751 752 858
f 751 858 755
f 752 753 860
f 752 860 859
f 752 859 858
f 753 754 863
f 753 863 860
f 754 765 861
f 754 861 862
f 754 862 863
f 755 864 757
f 755 858 865
f 755 865 866
f 755 866 864
f 756 758 867
f 756 867 868
f 756 868 851
f 757 864 869
f 757 869 870
f 758 870 867
f 759 856 871
f 759 871 872
f 759 872 873
f 759 873 874
f 759 874 760
f 760 874 875
f 760 875 876
f 760 876 877
f 760 877 762
f 760 762 761
f 762 877 878
f 762 878 879
f 762 879 763
f 763 879 880
f 763 880 764
f 764 880 772
f 765 770 861
f 767 826 768
f 768 826 769
f 769 850 770
f 769 826 850
f 770 850 881
f 770 881 861
f 771 772 774
f 772 882 774
f 772 880 883
f 772 883 882
f 774 882 884
f 774 884 885
f 774 885 886
f 774 886 775
f 775 886 887
f 775 887 888
f 775 888 776
f 776 888 889
f 776 889 890
f 776 890 777
f 777 890 891
f 777 891 778
f 778 891 892
f 778 892 893
f 778 893 894
f 778 894 895
f 778 895 779
f 779 896 781
f 779 781 780
f 779 895 894
f 779 894 897
f 779 897 898
f 779 898 896
f 781 896 782
f 782 896 899
f 782 899 783
f 783 899 900
f 783 900 784
f 784 900 901
f 784 901 786
f 785 787 902
f 785 902 903
f 785 903 904
f 785 904 788
f 786 901 905
f 786 905 906
f 786 906 787
f 787 906 902
f 788 904 789
f 789 904 907
f 789 907 908
f 789 908 790
f 790 908 792
f 790 792 791
f 792 908 909
f 792 909 910
f 792 910 793
f 793 910 911
f 793 911 912
f 793 912 913
f 793 913 794
f 794 914 796
f 794 796 795
f 794 913 915
f 794 915 916
f 794 916 914
f 796 914 798
f 796 798 797
f 798 915 799
f 798 914 916
f 798 916 915
f 799 915 800
f 800 802 801
f 800 915 802
f 802 915 917
f 802 917 918
f 802 918 919
f 802 919 803
f 803 919 804
f 804 919 920
f 804 920 921
f 804 921 805
f 805 921 922
f 805 922 822
f 806 816 923
f 806 923 924
f 806 924 925
f 806 925 807
f 807 926 927
f 807 927 928
f 807 928 808
f 807 925 929
f 807 929 930
f 807 930 931
f 807 931 926
f 808 928 927
f 808 927 932
f 808 932 933
f 808 933 934
f 808 934 810
f 810 934 935
f 810 935 811
f 811 936 812
f 811 935 936
f 812 936 937
f 812 937 938
f 812 938 813
f 813 938 939
f 813 939 814
f 814 939 940
f 814 940 815
f 815 940 823
f 816 821 941
f 816 941 923
f 817 822 922
f 817 922 818
f 818 922 942
f 818 942 819
f 819 942 943
f 819 943 944
f 819 944 820
f 820 944 945
f 820 945 821
f 821 945 946
f 821 946 947
f 821 947 941
f 823 940 948
f 823 948 825
f 824 825 827
f 825 948 827
f 827 948 828
f 828 948 949
f 828 949 829
f 829 949 953
f 829 953 831
f 830 831 950
f 830 950 951
f 830 951 832
f 831 952 950
f 831 953 952
f 832 954 833
f 832 951 954
f 833 954 955
f 833 955 956
f 833 956 957
f 833 957 958
f 833 958 836
f 835 959 960
f 835 960 961
f 835 961 837
f 835 836 959
f 836 958 957
f 836 957 962
f 836 962 963
f 836 963 964
f 836 964 959
f 837 961 965
f 837 965 839
f 838 841 966
f 838 966 842
f 839 965 858
f 839 858 967
f 839 967 968
f 839 968 840
f 840 968 969
f 840 969 970
f 840 970 841
f 841 970 971
f 841 971 966
f 842 966 843
f 843 966 972
f 843 972 973
f 843 973 844
f 844 973 845
f 845 973 846
f 846 973 974
f 846 974 847
f 847 975 848
f 847 974 975
f 848 975 849
f 849 975 976
f 849 976 850
f 850 976 881
f 851 868 852
f 852 868 867
f 852 867 998
f 852 998 977
f 852 977 978
f 852 978 979
f 852 979 980
f 852 980 981
f 852 981 982
f 852 982 854
f 853 983 1100
f 853 1100 984
f 853 984 857
f 854 985 855
f 854 982 986
f 854 986 987
f 854 987 985
f 855 985 988
f 855 988 989
f 855 989 983
f 856 857 990
f 856 990 871
f 857 984 991
f 857 991 990
f 858 992 865
f 858 859 967
f 858 965 993
f 858 993 992
f 859 860 967
f 860 863 969
f 860 969 967
f 861 881 862
f 862 994 863
f 862 881 976
f 862 976 975
f 862 975 994
f 863 994 974
f 863 974 995
f 863 995 970
f 863 970 969
f 864 866 869
f 865 992 996
f 865 996 997
f 865 997 866
f 866 997 1000
f 866 1000 869
f 867 870 869
f 867 869 998
f 869 999 998
f 869 1000 1001
f 869 1001 999
f 871 1002 872
f 871 990 1003
f 871 1003 1004
f 871 1004 1002
f 872 1002 873
f 873 1005 1006
f 873 1006 876
f 873 876 875
f 873 875 874
f 873 1002 1007
f 873 1007 1008
f 873 1008 1005
f 876 1006 1009
f 876 1009 877
f 877 1010 1011
f 877 1011 878
f 877 1009 1012
f 877 1012 1013
f 877 1013 1014
f 877 1014 1010
f 878 1011 1015
f 878 1015 879
f 879 1015 880
f 880 1016 883
f 880 1015 1017
f 880 1017 1018
f 880 1018 1016
f 882 1019 884
f 882 883 1020
f 882 1020 1128
f 882 1128 1021
f 882 1021 1019
f 883 1016 1020
f 884 1019 1022
f 884 1022 885
f 885 1022 887
f 885 887 886
f 887 1022 1023
f 887 1023 1024
f 887 1024 1025
f 887 1025 889
f 887 889 888
f 889 1025 1026
f 889 1026 1027
f 889 1027 1028
f 889 1028 1029
f 889 1029 890
f 890 1029 892
f 890 892 891
f 892 1029 1030
f 892 1030 1031
f 892 1031 893
f 893 1031 1032
f 893 1032 1033
f 893 1033 894
f 894 1033 1034
f 894 1034 897
f 896 898 899
f 897 1034 898
f 898 1035 899
f 898 1034 1147
f 898 1147 1036
f 898 1036 1035
f 899 1035 900
f 900 1035 901
f 901 1035 1037
f 901 1037 905
f 902 906 1038
f 902 1038 1039
f 902 1039 1040
f 902 1040 1041
f 902 1041 1042
f 902 1042 1043
f 902 1043 903
f 903 1043 904
f 904 1044 907
f 904 1043 1045
f 904 1045 1046
f 904 1046 1047
f 904 1047 1048
f 904 1048 1044
f 905 1037 1049
f 905 1049 1050
f 905 1050 1051
f 905 1051 906
f 906 1051 1052
f 906 1052 1053
f 906 1053 1054
f 906 1054 1038
f 907 1044 909
f 907 909 908
f 909 1044 946
f 909 946 945
f 909 945 944
f 909 944 910
f 910 944 943
f 910 943 942
f 910 942 921
f 910 921 920
f 910 920 1055
f 910 1055 911
f 911 1055 912
f 912 917 915
f 912 915 913
f 912 1055 917
f 917 1055 920
f 917 920 918
f 918 920 919
f 921 942 922
f 923 1056 924
f 923 941 1047
f 923 1047 1057
f 923 1057 1056
f 924 1056 1058
f 924 1058 1059
f 924 1059 925
f 925 1059 1060
f 925 1060 1061
f 925 1061 929
f 926 1062 1063
f 926 1063 927
f 926 931 1064
f 926 1064 1065
f 926 1065 1066
f 926 1066 1062
f 927 1063 1067
f 927 1067 1068
f 927 1068 1069
f 927 1069 932
f 929 1061 1070
f 929 1070 931
f 929 931 930
f 931 1070 1064
f 932 1069 933
f 933 1069 1071
f 933 1071 1072
f 933 1072 935
f 933 935 934
f 935 1072 1073
f 935 1073 936
f 936 1073 937
f 937 952 953
f 937 953 938
f 937 1073 1074
f 937 1074 1077
f 937 1077 952
f 938 953 949
f 938 949 939
f 939 949 940
f 940 949 948
f 941 947 1047
f 946 1044 1048
f 946 1048 947
f 947 1048 1047
f 950 952 1075
f 950 1075 951
f 951 1076 955
f 951 955 954
f 951 1075 1076
f 952 1077 1075
f 955 1076 1078
f 955 1078 1079
f 955 1079 956
f 956 1079 1080
f 956 1080 957
f 957 1080 1081
f 957 1081 1082
f 957 1082 1083
f 957 1083 962
f 959 964 1084
f 959 1084 1085
f 959 1085 1086
f 959 1086 1087
f 959 1087 960
f 960 1087 1088
f 960 1088 1089
f 960 1089 961
f 961 1089 1090
f 961 1090 1091
f 961 1091 965
f 962 1083 1092
f 962 1092 1093
f 962 1093 1094
f 962 1094 1095
f 962 1095 1096
f 962 1096 963
f 963 1096 964
f 964 1096 1084
f 965 1091 993
f 966 971 972
f 967 969 968
f 970 995 972
f 970 972 971
f 972 995 974
f 972 974 973
f 974 994 975
f 977 998 1097
f 977 1097 1098
f 977 1098 978
f 978 1098 1214
f 978 1214 1099
f 978 1099 979
f 979 1099 980
f 980 1099 981
f 981 1099 982
f 982 1099 986
f 983 989 1100
f 984 1100 1102
f 984 1102 991
f 985 987 988
f 986 988 987
f 986 1099 1101
f 986 1101 988
f 988 1101 1100
f 988 1100 989
f 990 991 1003
f 991 1102 1111
f 991 1111 1003
f 992 993 1091
f 992 1091 996
f 996 1091 1103
f 996 1103 1104
f 996 1104 1105
f 996 1105 997
f 997 1105 1000
f 998 999 1106
f 998 1106 1097
f 999 1001 1107
f 999 1107 1106
f 1000 1105 1108
f 1000 1108 1109
f 1000 1109 1001
f 1001 1109 1107
f 1002 1004 1110
f 1002 1110 1007
f 1003 1111 1112
f 1003 1112 1004
f 1004 1112 1113
f 1004 1113 1114
f 1004 1114 1110
f 1005 1115 1116
f 1005 1116 1009
f 1005 1009 1006
f 1005 1008 1117
f 1005 1117 1118
f 1005 1118 1119
f 1005 1119 1120
f 1005 1120 1121
f 1005 1121 1115
f 1007 1110 1008
f 1008 1110 1114
f 1008 1114 1113
f 1008 1113 1122
f 1008 1122 1118
f 1008 1118 1117
f 1009 1116 1123
f 1009 1123 1012
f 1010 1014 1018
f 1010 1018 1011
f 1011 1018 1017
f 1011 1017 1015
f 1012 1123 1124
f 1012 1124 1013
f 1013 1124 1125
f 1013 1125 1018
f 1013 1018 1014
f 1016 1018 1125
f 1016 1125 1126
f 1016 1126 1128
f 1016 1128 1020
f 1019 1127 1022
f 1019 1021 1127
f 1021 1128 1129
f 1021 1129 1130
f 1021 1130 1131
f 1021 1131 1132
f 1021 1132 1133
f 1021 1133 1127
f 1022 1127 1133
f 1022 1133 1132
f 1022 1132 1023
f 1023 1132 1024
f 1024 1132 1134
f 1024 1134 1026
f 1024 1026 1025
f 1026 1134 1027
f 1027 1134 1135
f 1027 1135 1070
f 1027 1070 1028
f 1028 1030 1029
f 1028 1070 1030
f 1030 1136 1031
f 1030 1070 1136
f 1031 1136 1032
f 1032 1137 1138
f 1032 1138 1033
f 1032 1136 1070
f 1032 1070 1061
f 1032 1061 1139
f 1032 1139 1140
f 1032 1140 1141
f 1032 1141 1142
f 1032 1142 1143
f 1032 1143 1144
f 1032 1144 1145
f 1032 1145 1137
f 1033 1138 1146
f 1033 1146 1147
f 1033 1147 1034
f 1035 1036 1148
f 1035 1148 1149
f 1035 1149 1037
f 1036 1147 1146
f 1036 1146 1148
f 1037 1150 1049
f 1037 1149 1151
f 1037 1151 1050
f 1037 1050 1150
f 1038 1054 1039
f 1039 1054 1152
f 1039 1152 1153
f 1039 1153 1040
f 1040 1153 1154
f 1040 1154 1041
f 1041 1155 1156
f 1041 1156 1042
f 1041 1154 1157
f 1041 1157 1158
f 1041 1158 1155
f 1042 1156 1043
f 1043 1156 1155
f 1043 1155 1045
f 1045 1155 1159
f 1045 1159 1046
f 1046 1159 1160
f 1046 1160 1047
f 1047 1160 1057
f 1049 1150 1050
f 1050 1151 1161
f 1050 1161 1053
f 1050 1053 1052
f 1050 1052 1051
f 1053 1161 1054
f 1054 1161 1162
f 1054 1162 1152
f 1056 1163 1058
f 1056 1057 1163
f 1057 1160 1163
f 1058 1164 1165
f 1058 1165 1059
f 1058 1163 1166
f 1058 1166 1164
f 1059 1165 1167
f 1059 1167 1060
f 1060 1167 1168
f 1060 1168 1061
f 1061 1168 1169
f 1061 1169 1170
f 1061 1170 1171
f 1061 1171 1172
f 1061 1172 1243
f 1061 1243 1139
f 1062 1173 1174
f 1062 1174 1063
f 1062 1066 1175
f 1062 1175 1176
f 1062 1176 1173
f 1063 1174 1067
f 1064 1177 1065
f 1064 1070 1178
f 1064 1178 1179
f 1064 1179 1177
f 1065 1177 1175
f 1065 1175 1066
f 1067 1174 1068
f 1068 1174 1180
f 1068 1180 1181
f 1068 1181 1182
f 1068 1182 1069
f 1069 1182 1183
f 1069 1183 1071
f 1070 1184 1178
f 1070 1135 1184
f 1071 1185 1186
f 1071 1186 1072
f 1071 1183 1185
f 1072 1186 1073
f 1073 1186 1074
f 1074 1186 1187
f 1074 1187 1077
f 1075 1077 1187
f 1075 1187 1076
f 1076 1187 1078
f 1078 1188 1079
f 1078 1187 1189
f 1078 1189 1188
f 1079 1190 1081
f 1079 1081 1080
f 1079 1188 1190
f 1081 1191 1192
f 1081 1192 1193
f 1081 1193 1082
f 1081 1190 1191
f 1082 1193 1083
f 1083 1193 1092
f 1084 1194 1085
f 1084 1096 1194
f 1085 1195 1196
f 1085 1196 1086
f 1085 1194 1197
f 1085 1197 1198
f 1085 1198 1199
f 1085 1199 1200
f 1085 1200 1195
f 1086 1196 1201
f 1086 1201 1087
f 1087 1201 1202
f 1087 1202 1088
f 1088 1203 1204
f 1088 1204 1205
f 1088 1205 1206
f 1088 1206 1089
f 1088 1202 1207
f 1088 1207 1104
f 1088 1104 1103
f 1088 1103 1203
f 1089 1206 1091
f 1089 1091 1090
f 1091 1206 1205
f 1091 1205 1204
f 1091 1204 1203
f 1091 1203 1103
f 1092 1193 1208
f 1092 1208 1209
f 1092 1209 1093
f 1093 1209 1094
f 1094 1209 1210
f 1094 1210 1095
f 1095 1210 1211
f 1095 1211 1212
f 1095 1212 1194
f 1095 1194 1096
f 1097 1106 1098
f 1098 1213 1214
f 1098 1106 1107
f 1098 1107 1215
f 1098 1215 1199
f 1098 1199 1216
f 1098 1216 1217
f 1098 1217 1213
f 1099 1214 1218
f 1099 1218 1101
f 1100 1101 1219
f 1100 1219 1222
f 1100 1222 1102
f 1101 1218 1220
f 1101 1220 1221
f 1101 1221 1219
f 1102 1222 1230
f 1102 1230 1111
f 1104 1207 1105
f 1105 1207 1109
f 1105 1109 1108
f 1107 1109 1223
f 1107 1223 1224
f 1107 1224 1225
f 1107 1225 1226
f 1107 1226 1227
f 1107 1227 1215
f 1109 1207 1202
f 1109 1202 1228
f 1109 1228 1229
f 1109 1229 1223
f 1111 1230 1231
f 1111 1231 1112
f 1112 1231 1113
f 1113 1232 1122
f 1113 1231 1194
f 1113 1194 1232
f 1115 1121 1123
f 1115 1123 1116
f 1118 1123 1119
f 1118 1122 1232
f 1118 1232 1233
f 1118 1233 1123
f 1119 1123 1120
f 1120 1123 1121
f 1123 1233 1234
f 1123 1234 1124
f 1124 1235 1125
f 1124 1234 1236
f 1124 1236 1235
f 1125 1235 1126
f 1126 1235 1237
f 1126 1237 1128
f 1128 1237 1129
f 1129 1238 1130
f 1129 1237 1239
f 1129 1239 1240
f 1129 1240 1238
f 1130 1238 1131
f 1131 1135 1134
f 1131 1134 1132
f 1131 1238 1241
f 1131 1241 1135
f 1135 1241 1184
f 1137 1242 1146
f 1137 1146 1138
f 1137 1145 1242
f 1139 1243 1244
f 1139 1244 1242
f 1139 1242 1140
f 1140 1242 1141
f 1141 1242 1142
f 1142 1242 1143
f 1143 1242 1144
f 1144 1242 1145
f 1146 1242 1151
f 1146 1151 1149
f 1146 1149 1148
f 1151 1242 1245
f 1151 1245 1161
f 1152 1162 1246
f 1152 1246 1153
f 1153 1246 1154
f 1154 1246 1247
f 1154 1247 1248
f 1154 1248 1165
f 1154 1165 1157
f 1155 1158 1159
f 1157 1165 1164
f 1157 1164 1158
f 1158 1166 1160
f 1158 1160 1159
f 1158 1164 1166
f 1160 1166 1163
f 1161 1245 1162
f 1162 1245 1249
f 1162 1249 1250
f 1162 1250 1251
f 1162 1251 1252
f 1162 1252 1246
f 1165 1248 1167
f 1167 1253 1168
f 1167 1248 1247
f 1167 1247 1253
f 1168 1253 1252
f 1168 1252 1169
f 1169 1252 1170
f 1170 1252 1251
f 1170 1251 1171
f 1171 1251 1250
f 1171 1250 1172
f 1172 1250 1249
f 1172 1249 1245
f 1172 1245 1243
f 1173 1254 1255
f 1173 1255 1256
f 1173 1256 1174
f 1173 1176 1254
f 1174 1256 1180
f 1175 1257 1176
f 1175 1177 1258
f 1175 1258 1257
f 1176 1257 1254
f 1177 1179 1258
f 1178 1184 1179
f 1179 1184 1241
f 1179 1241 1259
f 1179 1259 1258
f 1180 1260 1181
f 1180 1256 1260
f 1181 1260 1261
f 1181 1261 1262
f 1181 1262 1182
f 1182 1262 1183
f 1183 1262 1263
f 1183 1263 1185
f 1185 1187 1186
f 1185 1263 1264
f 1185 1264 1189
f 1185 1189 1187
f 1188 1189 1264
f 1188 1264 1265
f 1188 1265 1190
f 1190 1265 1191
f 1191 1266 1267
f 1191 1267 1192
f 1191 1265 1266
f 1192 1267 1268
f 1192 1268 1193
f 1193 1268 1269
f 1193 1269 1208
f 1194 1212 1270
f 1194 1270 1232
f 1194 1231 1271
f 1194 1271 1272
f 1194 1272 1197
f 1195 1200 1224
f 1195 1224 1196
f 1196 1273 1201
f 1196 1224 1273
f 1197 1272 1274
f 1197 1274 1220
f 1197 1220 1283
f 1197 1283 1275
f 1197 1275 1276
f 1197 1276 1277
f 1197 1277 1198
f 1198 1277 1213
f 1198 1213 1217
f 1198 1217 1216
f 1198 1216 1199
f 1199 1215 1227
f 1199 1227 1226
f 1199 1226 1200
f 1200 1226 1225
f 1200 1225 1224
f 1201 1228 1202
f 1201 1273 1229
f 1201 1229 1228
f 1208 1278 1209
f 1208 1269 1279
f 1208 1279 1278
f 1209 1278 1280
f 1209 1280 1210
f 1210 1280 1211
f 1211 1281 1233
f 1211 1233 1270
f 1211 1270 1212
f 1211 1280 1281
f 1213 1277 1214
f 1214 1282 1218
f 1214 1277 1276
f 1214 1276 1275
f 1214 1275 1283
f 1214 1283 1282
f 1218 1282 1220
f 1219 1221 1274
f 1219 1274 1222
f 1220 1274 1221
f 1220 1282 1283
f 1222 1274 1271
f 1222 1271 1230
f 1223 1229 1273
f 1223 1273 1224
f 1230 1271 1231
f 1232 1270 1233
f 1233 1281 1234
f 1234 1281 1284
f 1234 1284 1236
f 1235 1239 1237
f 1235 1236 1239
f 1236 1284 1285
f 1236 1285 1239
f 1238 1240 1241
f 1239 1285 1240
f 1240 1285 1259
f 1240 1259 1241
f 1242 1244 1245
f 1243 1245 1244
f 1246 1252 1253
f 1246 1253 1247
f 1254 1286 1255
f 1254 1257 1287
f 1254 1287 1286
f 1255 1286 1288
f 1255 1288 1256
f 1256 1288 1260
f 1257 1258 1289
f 1257 1289 1287
f 1258 1259 1289
f 1259 1285 1289
f 1260 1288 1290
f 1260 1290 1267
f 1260 1267 1266
f 1260 1266 1261
f 1261 1266 1265
f 1261 1265 1262
f 1262 1265 1264
f 1262 1264 1263
f 1267 1290 1268
f 1268 1291 1269
f 1268 1290 1291
f 1269 1291 1279
f 1271 1274 1272
f 1278 1279 1292
f 1278 1292 1293
f 1278 1293 1280
f 1279 1291 1294
f 1279 1294 1292
f 1280 1293 1281
f 1281 1293 1284
f 1284 1293 1289
f 1284 1289 1285
f 1286 1287 1292
f 1286 1292 1294
f 1286 1294 1290
f 1286 1290 1288
f 1287 1289 1293
f 1287 1293 1292
f 1290 1294 1291

