####
#
# OBJ File Generated by Meshlab
#
####
# Object screwdriver_simplified.obj
#
# Vertices: 250
# Faces: 500
#
####
mtllib ./screwdriver_simplified.obj.mtl

vn 0.9550086 0.0302471 -0.2950318
v 0.0038588 0.1793596 -0.0012910
vn 0.9023982 0.0264455 0.4300908
v 0.0032082 0.1852939 0.0015873
vn 0.5997918 0.0657432 -0.7974507
v 0.0019843 0.1963772 -0.0041189
vn 0.8324065 0.0295854 -0.5533752
v 0.0037850 0.1791620 -0.0014210
vn 0.9770426 0.0852487 -0.1952448
v 0.0030227 0.1878188 -0.0014267
vn 0.9377224 -0.3353837 -0.0905237
v 0.0039396 0.1062260 -0.0005273
vn 0.9077954 0.0046791 0.4193872
v 0.0038187 0.1758660 0.0007310
vn 0.8213895 0.0001120 0.5703678
v 0.0036899 0.1448542 0.0008552
vn 0.5097500 0.4079393 0.7574566
v 0.0024019 0.1061417 0.0018706
vn 0.7556963 -0.1677842 -0.6330652
v 0.0035560 0.1067325 -0.0016530
vn -0.9680507 0.0289615 0.2490765
v -0.0037870 0.1791120 0.0005960
vn -0.9835033 -0.1555473 -0.0923378
v -0.0038465 0.1075467 -0.0004895
vn -0.8891528 0.0413140 0.4557418
v -0.0029297 0.1868795 0.0017935
vn -0.9875522 0.0398080 -0.1521707
v -0.0038171 0.1791517 -0.0009929
vn -0.9766150 0.0843923 -0.1977403
v -0.0020730 0.1953906 -0.0023972
vn -0.7662956 0.0084906 -0.6424322
v -0.0032757 0.1803395 -0.0018541
vn -0.9116282 0.1490361 0.3830436
v -0.0016119 0.1995102 0.0021679
vn -0.9867793 -0.0000916 0.1620702
v -0.0038215 0.1528136 0.0002320
vn -0.9499631 0.0074473 0.3122734
v -0.0038080 0.1068170 0.0006090
vn -0.7305524 -0.0041064 0.6828443
v -0.0036610 0.1751600 0.0008570
vn -0.8219748 0.3808509 -0.4234501
v -0.0037747 0.1062707 -0.0012990
vn -0.8008301 -0.0000222 0.5988917
v -0.0036703 0.1432339 0.0008342
vn 0.0938387 -0.0003721 -0.9955873
v 0.0013961 0.1450673 -0.0029447
vn -0.1941579 0.5088692 -0.8386625
v -0.0016327 0.1062165 -0.0029255
vn 0.1939837 -0.0819605 -0.9775750
v 0.0013263 0.1867700 -0.0035859
vn 0.0934503 -0.0523436 -0.9942471
v 0.0012124 0.1071895 -0.0029250
vn 0.3214898 -0.0193144 -0.9467160
v 0.0017895 0.1763998 -0.0028918
vn 0.4064300 0.2126893 -0.8885819
v 0.0021115 0.1061539 -0.0027155
vn -0.2693710 -0.0309253 -0.9625398
v -0.0017252 0.1791503 -0.0029213
vn -0.0946449 0.0057043 -0.9954947
v -0.0004853 0.1960650 -0.0047397
vn -0.7249699 0.3050887 -0.6175269
v -0.0012434 0.2023632 -0.0036372
vn 0.8512077 0.4068424 -0.3315490
v 0.0012369 0.2048736 -0.0028194
vn -0.6189618 -0.0237920 -0.7850608
v -0.0018235 0.1908860 -0.0037934
vn -0.5977831 -0.0020716 -0.8016552
v -0.0029293 0.1219579 -0.0020559
vn 0.6686084 -0.0075103 -0.7435767
v 0.0031822 0.1667856 -0.0019163
vn 0.7222551 -0.0034274 -0.6916183
v 0.0029468 0.1832979 -0.0023290
vn 0.4285612 0.8792242 0.2080871
v 0.0038395 0.1062404 0.0007154
vn -0.4586644 0.8654149 0.2017030
v -0.0036929 0.1061886 0.0014305
vn -0.2086873 0.5581675 0.8030559
v -0.0016480 0.1061590 0.0022165
vn -0.5320114 0.2142112 0.8191932
v -0.0029897 0.1066912 0.0013589
vn 0.1742828 0.9677411 -0.1819412
v 0.0003558 0.2057652 -0.0014542
vn 0.4028356 0.4156002 0.8154753
v 0.0007940 0.2032034 0.0030866
vn -0.6809026 0.6051918 0.4124496
v -0.0004779 0.2055687 0.0019638
vn -0.0073427 -0.0001748 0.9999731
v 0.0003699 0.1407404 0.0022865
vn 0.1696751 0.5001804 0.8491349
v 0.0013965 0.1063818 0.0022938
vn -0.2974886 0.0003869 0.9547253
v -0.0014921 0.1423031 0.0022480
vn -0.5452187 -0.0005109 0.8382937
v -0.0024844 0.1452930 0.0017295
vn -0.3878641 -0.0025332 0.9217131
v -0.0021496 0.1715032 0.0019359
vn 0.6145891 -0.0204553 0.7885822
v 0.0030497 0.1765611 0.0013667
vn -0.2463517 -0.0542109 0.9676632
v -0.0010099 0.1840260 0.0024461
vn -0.3433042 0.0235012 0.9389302
v -0.0012953 0.1952294 0.0035575
vn 0.3254324 -0.0545085 0.9439929
v 0.0016743 0.1903928 0.0033078
vn -0.0610760 -0.0114684 0.9980673
v -0.0004674 0.1783020 0.0022881
vn 0.7968908 0.0836825 0.5982996
v 0.0021016 0.1966859 0.0032411
vn 0.2048327 -0.0245149 0.9784900
v 0.0017095 0.1764710 0.0022485
vn 0.0158945 0.1881091 0.9820195
v 0.0001191 0.0625946 0.0121226
vn 0.6239265 0.1560715 0.7657397
v 0.0106914 0.0520540 0.0114957
vn 0.3961993 -0.0671258 0.9157076
v 0.0079029 0.0298012 0.0144621
vn 0.4090420 0.0780797 0.9091690
v 0.0084589 0.0436693 0.0140171
vn 0.1817387 0.1685748 0.9687898
v 0.0038102 0.0497375 0.0144743
vn -0.0938987 0.1627415 0.9821905
v -0.0022225 0.0501074 0.0146005
vn 0.0252597 0.0379211 0.9989614
v 0.0008763 0.0391177 0.0162553
vn -0.6798984 0.1532695 0.7171099
v -0.0113478 0.0516055 0.0111843
vn -0.2169589 -0.1327740 0.9671090
v -0.0052291 0.0195277 0.0141350
vn -0.3691256 0.0931307 0.9247016
v -0.0082517 0.0420940 0.0143139
vn -0.0583374 0.9169868 0.3946288
v -0.0033725 0.1061081 0.0085443
vn 0.1271245 0.4701456 0.8733856
v 0.0052361 0.1042471 0.0092326
vn -0.9675651 0.1599297 -0.1955516
v -0.0128291 0.0632540 -0.0042294
vn -0.3967094 0.8845254 -0.2454315
v -0.0083357 0.1062028 -0.0065057
vn 0.0220200 0.8925203 -0.4504693
v 0.0005587 0.1060385 -0.0091732
vn -0.3475706 0.3760530 -0.8589406
v -0.0126716 0.0128157 0.0027306
vn 0.0114364 -0.1712309 -0.9851646
v -0.0003466 0.0171167 0.0028395
vn -0.4018014 -0.2516418 -0.8804726
v -0.0132321 0.0159276 0.0029806
vn 0.0059035 -0.6513116 -0.7587874
v 0.0005142 0.0177478 0.0024953
vn 0.0132731 -0.6843008 0.7290790
v -0.0136937 0.0176860 -0.0032706
vn -0.0000981 -0.4916516 0.8707920
v 0.0035819 0.0176723 -0.0033456
vn 0.6834211 0.2925358 0.6688486
v 0.0131385 0.0124580 -0.0032186
vn 0.4472722 0.1714919 0.8778030
v 0.0071560 0.0719055 0.0090229
vn 0.5222223 0.0026246 0.8528054
v 0.0060043 0.0808563 0.0081663
vn 0.2349645 -0.1105241 0.9656999
v 0.0053027 0.0882218 0.0088906
vn 0.1417816 0.1022992 0.9845978
v 0.0032362 0.0795286 0.0089106
vn -0.3913856 -0.0836968 0.9164127
v -0.0057010 0.0851625 0.0086728
vn -0.2864828 0.1765575 0.9416767
v -0.0052454 0.0577155 0.0126111
vn -0.2716794 0.1274439 0.9539121
v -0.0042831 0.0770421 0.0094450
vn 0.3669726 0.0805357 0.9267390
v 0.0056489 0.0994842 0.0112237
vn 0.9500704 -0.0256717 0.3109781
v 0.0090865 0.0849761 0.0056225
vn 0.9366617 0.2320720 0.2623118
v 0.0104219 0.1007156 0.0064971
vn -0.9996757 -0.0164992 -0.0193994
v -0.0162651 0.0370879 -0.0013151
vn -0.0129234 -0.9971806 -0.0739180
v 0.0055354 0.0190138 0.0001833
vn -0.1648703 -0.9492454 0.2678638
v 0.0137222 0.0186702 -0.0016403
vn 0.0148334 -0.9641290 0.2650195
v -0.0052256 0.0189949 -0.0008345
vn 0.3275752 -0.8960384 -0.2996827
v 0.0142646 0.0185616 0.0014642
vn 0.3200443 0.8762767 -0.3601538
v 0.0134201 0.0110356 0.0008215
vn -0.1229664 0.7750526 -0.6198167
v -0.0122877 0.0112792 0.0011342
vn -0.0142776 0.6633323 -0.7481887
v 0.0061732 0.0119852 0.0021942
vn -0.0299234 0.9975482 0.0632629
v -0.0027296 0.0110293 -0.0009243
vn 0.7806254 -0.2169402 -0.5861408
v 0.0116435 0.0135614 -0.0096084
vn -0.9938288 0.1098589 -0.0153450
v -0.0161050 0.0476844 0.0010709
vn -0.9760755 0.1665807 0.1397406
v -0.0125195 0.0657865 0.0026311
vn 0.1923248 -0.5640450 -0.8030345
v 0.0038050 0.0038209 -0.0104823
vn 0.4727159 -0.7761643 -0.4172634
v 0.0078603 0.0027098 -0.0077115
vn 0.5523998 0.1308951 -0.8232381
v 0.0107850 0.0454808 -0.0133393
vn 0.6347061 -0.1324089 -0.7613252
v 0.0109722 0.0218402 -0.0123480
vn 0.6325091 -0.0293213 -0.7739978
v 0.0117334 0.0329483 -0.0130946
vn 0.2666930 -0.0733847 -0.9609836
v 0.0055191 0.0329985 -0.0159050
vn 0.2426372 -0.1586190 -0.9570618
v 0.0056739 0.0183931 -0.0143091
vn 0.0410360 -0.1582525 -0.9865456
v 0.0021140 0.0187502 -0.0147472
vn -0.7686329 0.1653102 -0.6179612
v -0.0098939 0.1000362 -0.0086804
vn -0.9027612 -0.1277003 -0.4107492
v -0.0094296 0.0902608 -0.0068001
vn -0.3621470 0.0554767 -0.9304687
v -0.0056375 0.0995717 -0.0115546
vn -0.0954648 0.1902903 -0.9770753
v -0.0017529 0.0591690 -0.0133569
vn -0.4139844 0.1861335 -0.8910507
v -0.0076600 0.0628960 -0.0111328
vn -0.3060912 0.1770444 -0.9353948
v -0.0060416 0.0525052 -0.0138689
vn -0.6269754 0.1550985 -0.7634438
v -0.0079814 0.0744556 -0.0083579
vn -0.9055417 0.1819857 0.3832434
v -0.0124446 0.0575509 0.0065543
vn -0.8196582 0.0677917 0.5688275
v -0.0100957 0.0986920 0.0077664
vn -0.6233402 0.7290391 0.2827526
v -0.0084409 0.1062154 0.0053769
vn -0.6656005 0.1933739 0.7208207
v -0.0093379 0.0645613 0.0096001
vn -0.9280078 0.1689770 0.3320365
v -0.0103588 0.0762858 0.0044515
vn -0.6732091 0.1539181 -0.7232558
v -0.0115870 0.0501028 -0.0115065
vn -0.8992240 0.1767501 -0.4001945
v -0.0111949 0.0694204 -0.0059650
vn -0.9819072 0.1844529 -0.0428406
v -0.0119506 0.0710669 -0.0004216
vn -0.7557732 0.1827428 -0.6288179
v -0.0108729 0.0634279 -0.0088718
vn -0.8681325 0.0976574 -0.4866303
v -0.0146599 0.0458322 -0.0082212
vn -0.9343804 0.1198180 -0.3355249
v -0.0098114 0.0791229 -0.0051043
vn -0.8808486 0.0131026 0.4732168
v -0.0091599 0.0851621 0.0055700
vn -0.9943127 0.0996709 -0.0375233
v -0.0115103 0.0990292 -0.0029001
vn -0.9316936 -0.1540261 0.3289729
v -0.0100156 0.0936580 0.0064184
vn 0.3973540 0.0127039 -0.9175774
v 0.0053840 0.0821939 -0.0090906
vn 0.9283448 -0.0999379 -0.3580339
v 0.0107539 0.0960857 -0.0059423
vn 0.8715152 0.1050985 -0.4789736
v 0.0093628 0.0823720 -0.0060475
vn 0.7375043 0.4779842 -0.4770938
v 0.0089793 0.1048099 -0.0081430
vn 0.2695987 0.1035675 -0.9573873
v 0.0067226 0.0995207 -0.0112717
vn 0.8476090 0.1631317 -0.5049228
v 0.0102564 0.0723334 -0.0066320
vn 0.4823928 0.1889691 -0.8553292
v 0.0074293 0.0661432 -0.0106299
vn 0.7514390 0.1853999 -0.6332190
v 0.0109704 0.0580262 -0.0102647
vn 0.9316910 0.0995158 -0.3493543
v 0.0144394 0.0434921 -0.0094188
vn 0.0087333 -0.0102568 -0.9999093
v 0.0003369 0.0364243 -0.0166503
vn -0.0252414 0.1448062 -0.9891381
v -0.0007544 0.0462673 -0.0159531
vn 0.0450930 -0.1064573 -0.9932943
v 0.0016295 0.0277823 -0.0158968
vn 0.0598124 -0.2641082 -0.9626367
v 0.0021039 0.0093969 -0.0129145
vn 0.2603626 0.0619703 -0.9635202
v 0.0061701 0.0412922 -0.0160362
vn -0.2003877 0.0789857 -0.9765275
v -0.0046401 0.0412242 -0.0162298
vn 0.2041065 0.1838229 -0.9615351
v 0.0046615 0.0502275 -0.0147947
vn -0.1505992 0.1154861 -0.9818263
v -0.0040741 0.0769877 -0.0097697
vn 0.3527377 -0.0676872 -0.9332709
v 0.0054612 0.0863675 -0.0092781
vn -0.3698877 -0.0532710 -0.9275480
v -0.0059440 0.0857505 -0.0089148
vn 0.2113951 0.1706454 -0.9623888
v 0.0031087 0.0700697 -0.0112311
vn -0.2660337 0.4517827 -0.8515388
v -0.0060105 0.1041402 -0.0094248
vn -0.5183189 0.3670232 0.7724244
v -0.0076367 0.1026837 0.0087269
vn -0.2105120 0.1088557 0.9715118
v -0.0053016 0.0989738 0.0108874
vn -0.5646191 0.1577503 0.8101359
v -0.0073728 0.0740971 0.0084549
vn 0.7450855 0.1807235 0.6420177
v 0.0104125 0.0668370 0.0082083
vn -0.9013734 -0.0483322 0.4303370
v -0.0146623 0.0361826 0.0084111
vn -0.5489786 0.0611566 -0.8335961
v -0.0098331 0.0395929 -0.0143750
vn -0.0065325 0.4473332 0.8943436
v -0.0128209 0.0123383 -0.0032748
vn -0.8386933 0.4848322 -0.2480554
v -0.0134986 0.0098360 0.0006044
vn -0.9637644 0.1684838 -0.2068128
v -0.0144491 0.0543471 -0.0040528
vn -0.9544353 0.0200211 -0.2977457
v -0.0157588 0.0408172 -0.0066401
vn -0.9651357 -0.0585125 0.2551265
v -0.0157910 0.0343904 0.0051823
vn -0.2212934 -0.9560298 -0.1924479
v -0.0147473 0.0187965 0.0008273
vn -0.8468236 -0.0989020 -0.5225976
v -0.0148596 0.0259795 -0.0069289
vn -0.9948917 -0.0924327 -0.0405800
v -0.0156614 0.0242634 -0.0022113
vn -0.9263804 -0.0933271 0.3648417
v -0.0139938 0.0230232 0.0065975
vn -0.9882056 -0.1526324 -0.0123700
v -0.0135138 0.0133894 0.0046654
vn -0.8939659 0.1625116 -0.4176302
v -0.0124122 0.0562699 -0.0079991
vn -0.9702516 -0.1106409 0.2153382
v -0.0148904 0.0234722 0.0044687
vn 0.9105339 -0.0291625 -0.4124046
v 0.0144436 0.0329618 -0.0075807
vn 0.6791334 0.0352079 -0.7331701
v 0.0154747 0.0408359 -0.0075370
vn 0.6405829 -0.1865803 0.7448768
v 0.0104109 0.0146776 0.0108536
vn 0.6595840 -0.5057431 0.5560330
v 0.0095570 0.0059662 0.0080657
vn 0.1809453 -0.1603654 0.9703308
v 0.0053192 0.0164568 0.0135267
vn 0.7038843 0.0121401 0.7102109
v 0.0131379 0.0374601 0.0108979
vn 0.9194688 0.1827714 -0.3480974
v 0.0120042 0.0668308 -0.0052893
vn -0.2538139 -0.1138806 -0.9605258
v -0.0050248 0.0244173 -0.0152522
vn -0.2412338 -0.0393837 -0.9696676
v -0.0049257 0.0355484 -0.0161480
vn -0.0626986 -0.0868575 -0.9942458
v -0.0024229 0.0325270 -0.0163142
vn -0.0530438 -0.1604356 -0.9856200
v -0.0019931 0.0176084 -0.0144646
vn -0.8281540 -0.0408965 -0.5590068
v -0.0148184 0.0385445 -0.0076966
vn -0.0242450 -0.5472857 -0.8365946
v -0.0136321 0.0180086 0.0025234
vn -0.7852802 -0.4831738 -0.3871411
v -0.0112532 0.0050964 -0.0066595
vn -0.5344720 -0.8369396 0.1177788
v -0.0096257 0.0023840 0.0012025
vn -0.8194174 -0.4499708 0.3550794
v -0.0113981 0.0061785 0.0054753
vn -0.2358954 -0.9362313 -0.2604314
v -0.0050270 0.0010609 -0.0053680
vn 0.0020154 -0.8965694 -0.4428988
v -0.0004177 0.0013829 -0.0072322
vn -0.0988950 -0.9779682 0.1838423
v -0.0021137 0.0007095 0.0036641
vn 0.1502515 -0.9872820 -0.0519488
v 0.0034867 0.0003897 -0.0014057
vn 0.3263054 -0.8857484 0.3301129
v 0.0062634 0.0017669 0.0050754
vn 0.9543821 -0.0682063 0.2906934
v 0.0157308 0.0344917 0.0068033
vn -0.4544565 -0.1954243 0.8690677
v -0.0082659 0.0156423 0.0122007
vn 0.0057619 -0.0970234 0.9952654
v -0.0009364 0.0290348 0.0153664
vn -0.1123493 -0.2697034 0.9563670
v -0.0022333 0.0104019 0.0129410
vn -0.0268456 -0.7210413 0.6923718
v 0.0007389 0.0026630 0.0099262
vn -0.4352429 -0.3960181 0.8085378
v -0.0067850 0.0067695 0.0104210
vn -0.3880481 -0.7609990 0.5199031
v -0.0055160 0.0032173 0.0085381
vn 0.3233728 -0.4677042 0.8226074
v 0.0048915 0.0050589 0.0108648
vn -0.9089264 0.0628585 0.4121913
v -0.0154087 0.0448240 0.0066103
vn 0.3096622 0.1848189 0.9327118
v 0.0059349 0.0626472 0.0114608
vn 0.4166405 -0.2731339 -0.8670689
v 0.0073731 0.0091957 -0.0114967
vn -0.3618124 -0.2306036 -0.9032795
v -0.0066422 0.0129683 -0.0130319
vn -0.2044247 -0.5814009 -0.7875174
v -0.0039088 0.0050088 -0.0111608
vn -0.9774819 0.0906941 0.1905355
v -0.0162154 0.0430939 0.0041727
vn -0.3457463 -0.0422172 0.9373778
v -0.0071530 0.0336277 0.0150588
vn -0.6275887 -0.0988672 0.7722420
v -0.0109005 0.0243183 0.0118552
vn 0.9300302 0.0801329 0.3586398
v 0.0157641 0.0424705 0.0070820
vn 0.8471098 -0.0602216 0.5279947
v 0.0151630 0.0357681 0.0079847
vn -0.8592858 -0.1004464 0.5015363
v -0.0132703 0.0237206 0.0086328
vn -0.7563171 -0.2069941 0.6205947
v -0.0114687 0.0134045 0.0091930
vn -0.7165424 0.0019637 0.6975409
v -0.0124268 0.0389513 0.0114043
vn 0.8397456 -0.4645829 0.2810517
v 0.0146561 0.0175081 -0.0033638
vn 0.7762938 -0.0950547 -0.6231634
v 0.0148502 0.0259315 -0.0070896
vn 0.8927572 0.4502241 -0.0168191
v 0.0138923 0.0105935 -0.0003931
vn 0.9753208 -0.1564639 -0.1557835
v 0.0135786 0.0139300 -0.0059000
vn 0.9996989 -0.0197364 0.0145792
v 0.0136082 0.0109320 0.0037753
vn 0.3370597 0.2735727 -0.9008600
v 0.0129339 0.0132712 0.0027246
vn 0.4862227 -0.3937830 -0.7800784
v 0.0137642 0.0171551 0.0030960
vn 0.9832185 -0.1268586 0.1311042
v 0.0153376 0.0248085 0.0039041
vn 0.9721519 -0.2343294 -0.0032292
v 0.0141999 0.0169794 0.0043546
vn 0.9004113 0.1545296 -0.4066696
v 0.0144630 0.0531454 -0.0063575
vn 0.9900194 0.1397652 0.0180940
v 0.0156344 0.0493530 -0.0016811
vn 0.9964890 0.0024789 -0.0836875
v 0.0164429 0.0396290 -0.0039872
vn 0.9313271 0.1710272 0.3215270
v 0.0135578 0.0551200 0.0056030
vn 0.9700813 -0.0448501 -0.2386017
v 0.0148490 0.0342535 -0.0087873
vn 0.9982223 -0.0492754 -0.0335305
v 0.0136964 0.0207829 -0.0080605
vn 0.6301918 -0.3943394 -0.6688459
v 0.0095369 0.0064635 -0.0090920
vn 0.9094387 -0.3195574 -0.2660908
v 0.0124532 0.0071646 -0.0038845
vn 0.7471364 0.1148133 -0.6546794
v 0.0140885 0.0500248 -0.0072734
vn 0.8279060 0.1682191 -0.5350457
v 0.0123762 0.0582699 -0.0072499
vn 0.9430715 0.0161495 -0.3321978
v 0.0131152 0.0165037 -0.0068153
vn 0.7419875 0.0458396 0.6688448
v 0.0091357 0.0988000 0.0088785
vn 0.9840338 0.1745999 -0.0345298
v 0.0113611 0.0995658 -0.0023547
vn 0.9714326 -0.0783132 0.2240217
v 0.0109602 0.0968836 0.0055075
vn 0.4915391 0.7046520 0.5117176
v 0.0083734 0.1061525 0.0066607
vn 0.8951789 -0.0703719 -0.4401166
v 0.0091814 0.0872754 -0.0065060
vn 0.9742565 0.1852195 -0.1285226
v 0.0112399 0.0738063 -0.0026279
vn 0.8922819 0.1593181 0.4224343
v 0.0094634 0.0805214 0.0052966
vn 0.4997547 0.8658141 -0.0247252
v 0.0085380 0.1062197 -0.0004224
vn 0.8475970 -0.1629518 0.5050011
v 0.0095506 0.0904640 0.0064007
vn 0.7605926 -0.0887208 0.6431389
v 0.0128843 0.0297936 0.0105673
vn 0.9828478 0.1724293 0.0654102
v 0.0127801 0.0664242 0.0007335
vn 0.7702237 -0.6285101 0.1083086
v 0.0113242 0.0033751 0.0003863
vn 0.8492551 -0.2659839 0.4560903
v 0.0123408 0.0115819 0.0073446
vn 0.8911013 -0.1217020 0.4371808
v 0.0140073 0.0239514 0.0072317
vn -0.9663842 -0.2433678 -0.0829082
v -0.0141642 0.0161509 -0.0043743
vn -0.8661110 -0.1107936 -0.4874183
v -0.0134958 0.0211737 -0.0072723
vn -0.8748488 -0.0205257 -0.4839610
v -0.0143240 0.0388622 -0.0097196
vn -0.5834426 -0.0749908 -0.8086848
v -0.0106971 0.0308584 -0.0134702
vn -0.5897405 -0.1363921 -0.7959920
v -0.0095863 0.0208173 -0.0127202
vn -0.8314818 -0.1022475 -0.5460619
v -0.0130756 0.0275265 -0.0101250
vn -0.8040580 -0.1567540 -0.5735146
v -0.0119364 0.0160889 -0.0095418
# 250 vertices, 0 vertices normals


usemtl material_0
vt 0.0023860 0.1449940
vt 0.0013810 0.1425030
vt 0.0030340 0.1412010
f 24/1/24 69/2/69 21/3/21
vt 0.1558820 0.6816860
vt 0.1552040 0.6773180
vt 0.1549610 0.6873930
f 12/4/12 21/5/21 38/6/38
vt 0.1587370 0.6866230
vt 0.1557370 0.6868370
vt 0.1587790 0.6884710
f 18/7/18 12/8/12 19/9/19
vt 0.1818620 0.6773590
vt 0.1603200 0.6783700
vt 0.2031080 0.6793980
f 21/10/21 12/11/12 14/12/14
vt 0.6345560 0.6997600
vt 0.6049970 0.7021370
vt 0.6340250 0.7043230
f 14/13/14 18/14/18 11/15/11
f 19/9/19 12/8/12 38/6/38
vt 0.1587320 0.6905020
vt 0.1962080 0.6912210
f 19/9/19 40/16/40 22/17/22
vt 0.5737380 0.7034120
vt 0.5255630 0.7022060
vt 0.5792740 0.7048170
f 18/18/18 22/19/22 20/20/20
vt 0.6402160 0.6919150
vt 0.5796350 0.6901580
vt 0.6157560 0.6925600
f 16/21/16 21/22/21 14/23/14
vt 0.6348730 0.7054890
f 11/24/11 18/18/18 20/20/20
vt 0.6396230 0.7051910
f 14/13/14 11/15/11 13/25/13
vt 0.6396630 0.7003950
f 15/26/15 14/13/14 13/25/13
vt 0.1856230 0.4281080
vt 0.2326140 0.4265180
vt 0.1939410 0.4265300
f 20/27/20 47/28/47 48/29/48
vt 0.2265210 0.5811100
vt 0.2623650 0.5849870
vt 0.2629910 0.5778430
f 16/30/16 29/31/29 34/32/34
vt 0.3801550 0.5868680
vt 0.3669820 0.5849130
vt 0.3193460 0.5857740
f 24/33/24 34/34/34 29/35/29
vt 0.1745330 0.5894330
vt 0.1793780 0.5870350
vt 0.1563090 0.5898040
f 29/36/29 16/37/16 33/38/33
vt 0.7379940 0.7273390
vt 0.7326730 0.7263820
vt 0.7347900 0.7282140
f 17/39/17 13/40/13 51/41/51
vt 0.0236500 0.1272860
vt 0.0208470 0.1267230
vt 0.0243210 0.1268130
f 39/42/39 38/43/38 66/44/66
vt 0.0100980 0.1580860
vt 0.0094960 0.1566050
vt 0.0102560 0.1573950
f 28/45/28 24/46/24 26/47/26
vt 0.7856930 0.6854860
vt 0.7653820 0.6879980
vt 0.7755740 0.6895370
f 31/48/31 15/49/15 17/50/17
vt 0.6696860 0.4133100
vt 0.6695130 0.4113260
vt 0.6393410 0.4119580
f 39/51/39 45/52/45 44/53/44
vt 0.6113650 0.4133720
f 46/54/46 39/51/39 44/53/44
vt 0.0657650 0.5933520
vt 0.0603010 0.5922920
vt 0.0552960 0.5935540
f 30/55/30 33/56/33 31/57/31
vt 0.7763800 0.7234970
vt 0.7734420 0.7243890
vt 0.7831780 0.7248330
f 17/58/17 51/59/51 42/60/42
vt 0.0767400 0.5946020
vt 0.0785120 0.5931720
vt 0.0744990 0.5939830
f 25/61/25 33/62/33 30/63/30
vt 0.1719680 0.5928650
vt 0.1568650 0.5919750
vt 0.1526450 0.6013890
f 29/64/29 33/65/33 25/66/25
vt 0.8032000 0.7182700
vt 0.8015370 0.7245000
vt 0.8087550 0.7246270
f 31/67/31 17/68/17 43/69/43
vt 0.8079040 0.7255100
vt 0.7993680 0.7255140
f 43/70/43 17/68/17 42/71/42
vt 0.8118530 0.6858350
vt 0.8103790 0.6853830
vt 0.8101920 0.6973720
f 41/72/41 31/73/31 43/74/43
vt 0.6141820 0.6671190
vt 0.6077570 0.6756820
vt 0.6174660 0.6750680
f 51/75/51 50/76/50 52/77/52
vt 0.0152690 0.6058620
vt 0.0165550 0.5991640
vt 0.0093880 0.6004610
f 32/78/32 31/79/31 41/80/41
vt 0.0171220 0.6789420
vt 0.0268440 0.6772590
vt 0.0159990 0.6776190
f 42/81/42 32/82/32 41/83/41
vt 0.0524310 0.3901040
vt 0.0540900 0.3887270
vt 0.0406160 0.3856430
f 51/84/51 54/85/54 42/86/42
vt 0.5607960 0.2147510
vt 0.5959410 0.2131830
vt 0.5218640 0.2131830
f 44/87/44 45/88/45 55/89/55
vt 0.0746640 0.6110910
vt 0.0746640 0.6092930
vt 0.0730260 0.6104580
f 3/90/3 30/91/30 31/92/31
vt 0.0650220 0.3929410
vt 0.0741870 0.3939260
vt 0.0646390 0.3918380
f 51/93/51 52/94/52 54/95/54
vt 0.0424800 0.6795940
vt 0.0584330 0.6788470
vt 0.0505890 0.6779420
f 42/96/42 54/97/54 32/98/32
vt 0.0416360 0.1368790
vt 0.0401050 0.1349650
vt 0.0423760 0.1348690
f 9/99/9 45/100/45 66/101/66
vt 0.1928150 0.3941940
vt 0.2337000 0.3939240
vt 0.2266240 0.3922700
f 55/102/55 45/103/45 9/104/9
vt 0.2293230 0.6122210
vt 0.2128550 0.6105540
vt 0.1954680 0.6124510
f 28/105/28 27/106/27 35/107/35
vt 0.2019700 0.3902350
f 55/102/55 9/104/9 49/108/49
vt 0.1853860 0.3932720
f 52/109/52 55/102/55 49/108/49
vt 0.1799490 0.6130700
vt 0.1871120 0.6107050
f 36/110/36 35/107/35 27/111/27
vt 0.1639440 0.6117300
f 36/110/36 27/111/27 25/112/25
vt 0.1281050 0.6383870
vt 0.1282680 0.6332750
vt 0.1166090 0.6365530
f 36/113/36 25/114/25 3/115/3
vt 0.1255830 0.6395500
vt 0.1242930 0.6385030
f 5/116/5 36/113/36 3/117/3
vt 0.1738340 0.3819430
vt 0.1873420 0.3872210
vt 0.1896360 0.3808110
f 2/118/2 52/119/52 49/120/49
vt 0.6367950 0.6333340
vt 0.6654850 0.6312340
vt 0.6170740 0.6325660
f 1/121/1 10/122/10 35/123/35
vt 0.2281940 0.6444970
vt 0.2243670 0.6432790
vt 0.1887170 0.6455810
f 1/124/1 35/125/35 4/126/4
vt 0.5726150 0.6486710
vt 0.5149380 0.6493110
vt 0.5071970 0.6504870
f 37/127/37 6/128/6 8/129/8
vt 0.1894180 0.6590540
vt 0.1883690 0.6569920
vt 0.1805570 0.6597460
f 7/130/7 1/131/1 2/132/2
vt 0.1838010 0.6568960
f 2/132/2 1/131/1 5/133/5
vt 0.1781590 0.6443720
vt 0.1794790 0.6457040
f 4/126/4 36/134/36 5/135/5
vt 0.1833480 0.6796330
vt 0.2210000 0.6809440
f 14/12/14 12/136/12 18/137/18
vt 0.0034420 0.1446210
vt 0.0032610 0.1420970
f 34/138/34 24/1/24 21/139/21
vt 0.1547760 0.6906750
f 19/9/19 38/140/38 40/16/40
vt 0.1915960 0.6895900
f 18/141/18 19/9/19 22/17/22
vt 0.6375220 0.7068580
f 13/25/13 11/24/11 20/142/20
vt 0.6418950 0.6932320
vt 0.6381120 0.6954340
vt 0.6564200 0.6934800
f 16/143/16 14/144/14 15/145/15
vt 0.6451320 0.7070410
f 13/25/13 20/142/20 50/146/50
vt 0.6237940 0.4278260
vt 0.6657180 0.4278230
vt 0.6341070 0.4264840
f 22/147/22 40/148/40 47/149/47
vt 0.4538810 0.3521380
vt 0.5090020 0.3517130
vt 0.4424630 0.3497620
f 20/150/20 22/151/22 47/152/47
vt 0.5808010 0.6890390
f 21/22/21 16/21/16 34/153/34
vt 0.1769900 0.4258950
f 20/27/20 48/29/48 50/154/50
vt 0.7178230 0.7195450
vt 0.7076120 0.7173590
vt 0.7151620 0.7201020
f 17/155/17 15/156/15 13/157/13
vt 0.1196000 0.4166100
vt 0.1184620 0.4128810
vt 0.1073300 0.4136700
f 13/158/13 50/159/50 51/160/51
vt 0.7386540 0.6777380
vt 0.7303490 0.6792960
vt 0.7278740 0.6807620
f 15/161/15 33/162/33 16/163/16
vt 0.5975000 0.4158790
vt 0.6639310 0.4158860
vt 0.6388100 0.4148120
f 47/164/47 40/165/40 46/166/46
vt 0.0217970 0.1276230
f 40/167/40 38/43/38 39/42/39
vt 0.6703420 0.4139590
f 46/166/46 40/165/40 39/168/39
vt 0.3204050 0.4159100
vt 0.3862850 0.4140380
vt 0.3264440 0.4141530
f 47/169/47 46/170/46 48/171/48
vt 0.7663050 0.6820370
vt 0.7579210 0.6807990
vt 0.7677030 0.6834620
f 31/172/31 33/173/33 15/174/15
vt 0.6535750 0.3212590
vt 0.6695330 0.3194610
vt 0.6047180 0.3188840
f 48/175/48 46/176/46 53/177/53
vt 0.1951160 0.4142300
vt 0.2416050 0.4142270
vt 0.1926380 0.4124970
f 50/178/50 48/179/48 53/180/53
vt 0.6703460 0.4134660
f 39/51/39 66/181/66 45/52/45
vt 0.1947660 0.4078060
vt 0.2289100 0.4096840
vt 0.2182650 0.4043280
f 53/182/53 46/183/46 44/184/44
vt 0.9321030 0.8937050
vt 0.9311950 0.8927000
vt 0.9324500 0.8924430
f 43/185/43 42/186/42 41/187/41
vt 0.2279630 0.6073350
vt 0.2089340 0.6051950
vt 0.1853410 0.6080610
f 23/188/23 24/189/24 29/190/29
vt 0.6596040 0.6072530
vt 0.6231200 0.6062060
vt 0.6308040 0.6082060
f 26/191/26 24/192/24 23/193/23
vt 0.0309360 0.6101750
vt 0.0309090 0.6088920
vt 0.0223280 0.6089990
f 3/194/3 31/195/31 32/196/32
vt 0.1867220 0.6097400
f 23/188/23 29/190/29 27/197/27
vt 0.1927100 0.3954570
vt 0.2183900 0.3970890
vt 0.2188930 0.3949810
f 53/198/53 44/199/44 55/200/55
vt 0.0782170 0.6095230
f 25/201/25 30/91/30 3/90/3
vt 0.6257100 0.6102270
vt 0.5793110 0.6098240
f 26/202/26 23/193/23 28/203/28
vt 0.1753380 0.3954630
f 50/204/50 53/198/53 55/102/55
vt 0.1715880 0.6095540
f 29/190/29 25/205/25 27/197/27
vt 0.1752700 0.3945890
f 50/204/50 55/102/55 52/206/52
vt 0.0330940 0.1776910
vt 0.0212030 0.1666160
vt 0.0280030 0.1671720
f 70/207/70 24/208/24 28/209/28
vt 0.2991110 0.6098760
vt 0.2139000 0.6094580
f 28/210/28 23/211/23 27/106/27
vt 0.0733580 0.6329950
vt 0.0673730 0.6341220
vt 0.0592660 0.6373870
f 5/212/5 3/213/3 32/214/32
vt 0.0838780 0.6688790
vt 0.0707510 0.6508310
vt 0.0611990 0.6572880
f 54/215/54 5/216/5 32/217/32
vt 0.0433150 0.1386870
vt 0.0450410 0.1377060
f 9/218/9 66/101/66 37/219/37
vt 0.1014750 0.6754300
vt 0.1022970 0.6669760
vt 0.0899170 0.6788100
f 2/220/2 5/221/5 54/222/54
vt 0.0990590 0.6775460
vt 0.0914790 0.6794580
f 52/223/52 2/220/2 54/224/54
vt 0.2202860 0.3847250
vt 0.2671530 0.3819500
vt 0.2303330 0.3806410
f 49/225/49 9/226/9 8/227/8
vt 0.6689650 0.6330200
vt 0.6697830 0.6314170
f 6/228/6 28/229/28 10/122/10
vt 0.6360040 0.6307490
f 10/122/10 28/230/28 35/123/35
vt 0.5686410 0.6520210
vt 0.5686270 0.6495410
vt 0.5640120 0.6505260
f 9/231/9 37/232/37 8/233/8
vt 0.2308910 0.6585410
vt 0.1903510 0.6611710
vt 0.2309800 0.6598330
f 7/234/7 49/235/49 8/236/8
vt 0.1910180 0.6442010
f 35/237/35 36/134/36 4/126/4
vt 0.1873160 0.6598240
vt 0.1787760 0.6607380
f 49/235/49 7/238/7 2/239/2
vt 0.6642920 0.6328500
f 6/228/6 10/122/10 1/240/1
vt 0.3074440 0.6558850
vt 0.2387730 0.6567830
vt 0.2355600 0.6578470
f 8/241/8 6/242/6 7/243/7
vt 0.1955080 0.6563310
f 6/242/6 1/244/1 7/130/7
vt 0.1875530 0.6475440
vt 0.1787210 0.6473260
f 1/245/1 4/126/4 5/246/5
vt 0.0958070 0.2315870
vt 0.0975610 0.2321240
vt 0.1002410 0.2303630
f 63/247/63 65/248/65 83/249/83
vt 0.7331290 0.2064420
vt 0.7293550 0.2052220
vt 0.7294030 0.2079320
f 203/250/203 204/251/204 64/252/64
vt 0.9515490 0.5196710
vt 0.9551730 0.5196650
vt 0.9541580 0.5217960
f 63/253/63 83/254/83 118/255/118
vt 0.7262830 0.6667240
vt 0.7266890 0.6677810
vt 0.7308680 0.6672250
f 117/256/117 150/257/150 66/258/66
vt 0.6982550 0.6179930
vt 0.6772150 0.6281930
vt 0.7020000 0.6272200
f 69/259/69 117/260/117 38/261/38
vt 0.7879570 0.2404700
vt 0.7850400 0.2421310
vt 0.7864420 0.2431650
f 65/262/65 203/263/203 62/264/62
vt 0.0774520 0.8415570
vt 0.0698440 0.8340760
vt 0.0781100 0.8316500
f 150/265/150 151/266/151 66/267/66
vt 0.2556250 0.8755390
vt 0.2728360 0.8777580
vt 0.2727320 0.8735300
f 83/268/83 65/269/65 61/270/61
vt 0.6893160 0.5979810
vt 0.6974450 0.6032820
f 70/271/70 69/259/69 24/272/24
vt 0.2581550 0.8489620
vt 0.2698550 0.8491420
vt 0.2629190 0.8384900
f 61/273/61 62/274/62 60/275/60
vt 0.3853800 0.8371810
vt 0.3838940 0.8369320
vt 0.3843630 0.8382270
f 172/276/172 58/277/58 191/278/191
vt 0.3234370 0.8355080
vt 0.3302630 0.8361030
vt 0.3264730 0.8353420
f 191/279/191 58/280/58 62/281/62
vt 0.0942830 0.7931570
vt 0.0948100 0.8081440
vt 0.0899160 0.7924860
f 233/282/233 66/283/66 67/284/67
vt 0.7035620 0.2250590
vt 0.7000330 0.2241010
vt 0.7002190 0.2262300
f 203/285/203 64/286/64 191/287/191
vt 0.7817350 0.2404160
vt 0.7808790 0.2418180
vt 0.7825080 0.2419200
f 203/288/203 191/289/191 62/290/62
vt 0.7461270 0.6331220
vt 0.7189480 0.6446410
vt 0.7234680 0.6585700
f 66/291/66 38/292/38 117/293/117
vt 0.2850600 0.8737460
vt 0.3039950 0.8722170
vt 0.2881530 0.8700690
f 65/294/65 62/295/62 61/296/61
vt 0.7027740 0.6219410
vt 0.7002650 0.6184290
f 69/259/69 38/297/38 21/298/21
vt 0.1202910 0.9936140
vt 0.1239600 0.9930830
vt 0.1207570 0.9898860
f 56/299/56 83/300/83 61/301/61
vt 0.2396260 0.8482160
vt 0.2393260 0.8412320
vt 0.2285710 0.8417250
f 61/302/61 60/303/60 56/304/56
vt 0.2673520 0.8294480
vt 0.2770480 0.8269950
vt 0.2585440 0.8247440
f 60/305/60 62/306/62 59/307/59
vt 0.7678350 0.6002440
vt 0.7499380 0.6115580
vt 0.7496370 0.6307630
f 233/308/233 37/309/37 66/310/66
vt 0.0741970 0.7900430
vt 0.0663830 0.7862350
vt 0.0785980 0.7761600
f 66/311/66 151/312/151 67/313/67
vt 0.1917470 0.8185440
vt 0.1922120 0.8153330
vt 0.1898090 0.8154270
f 56/314/56 60/315/60 198/316/198
vt 0.2365770 0.8107470
vt 0.2392720 0.8107380
vt 0.2383850 0.8084730
f 60/317/60 59/318/59 57/319/57
vt 0.2060290 0.8049550
vt 0.2109170 0.8000300
vt 0.2046390 0.8014090
f 60/320/60 57/321/57 198/322/198
vt 0.3104100 0.8054810
vt 0.3159750 0.7977200
vt 0.3092060 0.7993320
f 62/323/62 58/324/58 59/325/59
vt 0.2071960 0.7972180
vt 0.2097580 0.7986870
vt 0.2107260 0.7972550
f 198/326/198 57/327/57 153/328/153
vt 0.0498010 0.4642530
vt 0.0660430 0.4659410
vt 0.0605020 0.4605510
f 98/329/98 88/330/88 202/331/202
vt 0.6761150 0.8772730
vt 0.6599760 0.8770770
vt 0.6714030 0.8781520
f 159/332/159 163/333/163 88/334/88
vt 0.0606230 0.3451370
vt 0.0615650 0.3534620
vt 0.0601800 0.3537960
f 98/335/98 159/336/159 88/337/88
vt 0.0973810 0.4411670
vt 0.1109030 0.4381140
vt 0.1038220 0.4362840
f 202/338/202 88/339/88 160/340/160
vt 0.0441310 0.9810450
vt 0.0651490 0.9825200
vt 0.0558110 0.9796350
f 202/341/202 160/342/160 197/343/197
vt 0.6755360 0.1073750
vt 0.6682480 0.1079490
vt 0.6791100 0.1089200
f 124/344/124 159/345/159 158/346/158
vt 0.1650400 0.4395800
vt 0.1677560 0.4386400
vt 0.1612840 0.4383220
f 163/347/163 167/348/167 160/349/160
vt 0.7271610 0.1562010
vt 0.7262350 0.1571870
vt 0.7347300 0.1565240
f 179/350/179 159/351/159 124/352/124
vt 0.6490770 0.1568330
vt 0.6462230 0.1587290
vt 0.6626040 0.1574670
f 245/353/245 162/354/162 179/355/179
vt 0.0032880 0.4625130
vt 0.0028770 0.4586020
vt 0.0042900 0.4614540
f 124/356/124 246/357/246 179/358/179
vt 0.4979870 0.1716230
vt 0.4919670 0.1740560
vt 0.4962420 0.1763270
f 163/359/163 161/360/161 167/361/167
vt 0.5168020 0.1926630
vt 0.5154810 0.1959520
vt 0.5215520 0.1957830
f 167/362/167 164/363/164 160/364/160
vt 0.0048730 0.4193550
vt 0.0082930 0.4175700
vt 0.0085490 0.4218360
f 246/365/246 245/366/245 179/367/179
vt 0.4172130 0.0455060
vt 0.4124640 0.0477050
vt 0.4210200 0.0482830
f 197/368/197 164/369/164 154/370/154
vt 0.6012660 0.7152080
vt 0.5953880 0.7119950
vt 0.6007650 0.7183600
f 244/371/244 75/372/75 161/373/161
vt 0.7069320 0.2600220
vt 0.7232620 0.2643650
vt 0.7132420 0.2606680
f 249/374/249 250/375/250 245/376/245
vt 0.0901280 0.7095040
vt 0.0941600 0.7100650
vt 0.0903370 0.7089290
f 115/377/115 197/378/197 63/379/63
vt 0.3991910 0.0683520
vt 0.3970140 0.0675210
vt 0.3928080 0.0684720
f 166/380/166 158/381/158 68/382/68
vt 0.6738080 0.2602150
vt 0.6658370 0.2557440
vt 0.6631490 0.2585800
f 247/383/247 249/384/249 246/385/246
vt 0.4501140 0.1269230
vt 0.4557680 0.1274180
vt 0.4644800 0.1273410
f 244/386/244 156/387/156 75/388/75
vt 0.4330840 0.1325230
vt 0.4285620 0.1409310
vt 0.4297340 0.1466150
f 244/389/244 181/390/181 157/391/157
vt 0.0167170 0.2366870
vt 0.0151180 0.2453410
vt 0.0152910 0.2397660
f 99/392/99 98/393/98 202/394/202
vt 0.3499240 0.9943930
vt 0.3470660 0.9931760
vt 0.3496370 0.9954860
f 165/395/165 157/396/157 183/397/183
vt 0.4441240 0.1671030
vt 0.4401010 0.1689220
vt 0.4429710 0.1722860
f 71/398/71 157/399/157 165/400/165
vt 0.6451020 0.0820140
vt 0.6418510 0.0803340
vt 0.6371850 0.0803850
f 245/401/245 244/402/244 162/403/162
vt 0.9617070 0.1780840
vt 0.9660600 0.1778240
vt 0.9642570 0.1816900
f 161/404/161 75/405/75 91/406/91
vt 0.2309750 0.1320810
vt 0.2314760 0.1335580
vt 0.2429140 0.1326180
f 207/407/207 209/408/209 154/409/154
vt 0.6794030 0.0769340
vt 0.6752670 0.0768500
vt 0.6759380 0.0776250
f 250/410/250 244/411/244 245/412/245
vt 0.1196490 0.1196720
vt 0.1172150 0.1206430
vt 0.1230010 0.1207050
f 165/413/165 207/414/207 164/415/164
vt 0.4436580 0.1604430
vt 0.4448620 0.1636410
f 94/416/94 157/399/157 71/417/71
vt 0.0175740 0.2241600
vt 0.0162030 0.2298010
vt 0.0148010 0.2235330
f 99/418/99 202/419/202 115/420/115
vt 0.4429400 0.1473890
vt 0.4423230 0.1502560
vt 0.4430560 0.1503090
f 156/421/156 157/422/157 96/423/96
vt 0.1063960 0.1198260
vt 0.1007680 0.1194830
vt 0.1001360 0.1256020
f 207/424/207 165/425/165 208/426/208
vt 0.8265420 0.0087780
vt 0.8300540 0.0090180
vt 0.8265460 0.0066620
f 72/427/72 73/428/73 74/429/74
vt 0.3621150 0.7236700
vt 0.3599600 0.7221320
vt 0.3599660 0.7258090
f 93/430/93 96/431/96 94/432/94
vt 0.8269760 0.0287050
vt 0.8286870 0.0180930
vt 0.8240890 0.0112570
f 71/433/71 73/434/73 72/435/72
vt 0.3498390 0.3211030
vt 0.3486910 0.3219920
vt 0.3487630 0.3257370
f 122/436/122 99/437/99 119/438/119
vt 0.3434560 0.2856910
vt 0.3425080 0.2860800
vt 0.3446800 0.2879350
f 121/439/121 68/440/68 122/441/122
vt 0.0831630 0.1209220
vt 0.0755850 0.1240890
vt 0.0845900 0.1262740
f 165/442/165 183/443/183 208/444/208
vt 0.9513370 0.4091920
vt 0.9522960 0.4221340
vt 0.9471360 0.4104350
f 120/445/120 155/446/155 124/447/124
vt 0.3375910 0.2791760
vt 0.3348160 0.2763440
vt 0.3365640 0.2797960
f 121/448/121 166/449/166 68/450/68
vt 0.7583590 0.3046480
vt 0.7613200 0.3063700
vt 0.7629760 0.3056570
f 248/451/248 250/452/250 249/453/249
vt 0.2258690 0.1485720
vt 0.2258110 0.1525710
vt 0.2384120 0.1520630
f 209/454/209 204/455/204 203/456/203
vt 0.5369930 0.2471470
vt 0.5311700 0.2449640
vt 0.5297840 0.2510090
f 69/457/69 108/458/108 127/459/127
vt 0.3207340 0.2581340
vt 0.3170000 0.2590050
vt 0.3207890 0.2590080
f 123/460/123 166/461/166 121/462/121
vt 0.3742750 0.2714210
vt 0.3699880 0.2757110
vt 0.3739180 0.2766700
f 121/463/121 122/464/122 125/465/125
vt 0.5352580 0.2526630
vt 0.5387710 0.2660850
vt 0.5483470 0.2673720
f 69/466/69 127/467/127 117/468/117
vt 0.0719870 0.1348940
vt 0.0723250 0.1394530
vt 0.0771290 0.1376930
f 208/469/208 183/470/183 194/471/194
vt 0.4772190 0.0290560
vt 0.4775140 0.0270050
vt 0.4745300 0.0275150
f 209/472/209 203/473/203 65/474/65
vt 0.5037430 0.2372980
vt 0.5004190 0.2380530
vt 0.5039330 0.2384830
f 108/475/108 109/476/109 127/477/127
vt 0.5510460 0.3081130
vt 0.5517000 0.3130980
vt 0.5547020 0.3141560
f 127/478/127 116/479/116 117/480/117
vt 0.3198100 0.1552810
vt 0.3246240 0.1615850
vt 0.3323020 0.1568900
f 209/481/209 65/482/65 63/483/63
vt 0.4945700 0.2417450
vt 0.4883240 0.2403940
vt 0.4944800 0.2455510
f 127/484/127 109/485/109 128/486/128
vt 0.8589760 0.0790810
vt 0.8582620 0.0767840
vt 0.8615800 0.0724220
f 182/487/182 181/488/181 184/489/184
vt 0.1433710 0.2002660
vt 0.1411930 0.2042450
vt 0.1491230 0.2030890
f 112/490/112 123/491/123 114/492/114
vt 0.4769640 0.3137250
vt 0.4711420 0.3175090
vt 0.4798340 0.3189470
f 109/493/109 126/494/126 128/495/128
vt 0.4329290 0.2543720
vt 0.4260030 0.2557920
vt 0.4281810 0.2596230
f 109/496/109 125/497/125 126/498/126
vt 0.2034720 0.3360970
vt 0.2112350 0.3356970
vt 0.2017590 0.3354430
f 128/499/128 126/500/126 82/501/82
vt 0.8463360 0.1589150
vt 0.8496530 0.1565100
vt 0.8525510 0.1610750
f 194/502/194 183/503/183 195/504/195
vt 0.8526390 0.1497240
vt 0.8588370 0.1438470
vt 0.8608580 0.1482210
f 183/505/183 182/506/182 195/507/195
vt 0.7327220 0.4031140
vt 0.7370630 0.4047470
vt 0.7373950 0.4032310
f 204/508/204 190/509/190 64/510/64
vt 0.4111000 0.3358240
vt 0.4012340 0.3407250
vt 0.4091370 0.3406720
f 119/511/119 118/512/118 152/513/152
vt 0.1315530 0.3194330
vt 0.1327970 0.3179400
vt 0.1316740 0.3155960
f 150/514/150 116/515/116 151/516/151
vt 0.4926430 0.2103770
vt 0.4897960 0.2169750
vt 0.4936460 0.2170270
f 149/517/149 108/518/108 69/519/69
vt 0.8661790 0.1442270
vt 0.8749560 0.1436890
f 195/507/195 182/520/182 186/521/186
vt 0.8715530 0.1169450
vt 0.8825270 0.1047910
vt 0.8821190 0.1154100
f 182/522/182 184/523/184 186/524/186
vt 0.3784010 0.5336430
vt 0.3791390 0.5329540
vt 0.3790260 0.5303990
f 152/525/152 118/526/118 83/527/83
vt 0.2112950 0.3105920
vt 0.2150750 0.3091960
vt 0.2102080 0.3096800
f 82/528/82 80/529/80 151/530/151
vt 0.7937190 0.9781180
vt 0.7965820 0.9784220
vt 0.7953180 0.9773760
f 110/531/110 108/532/108 149/533/149
vt 0.1656470 0.1783890
vt 0.1641860 0.1818470
vt 0.1779010 0.1796660
f 112/534/112 114/535/114 145/536/145
vt 0.2109910 0.1722750
vt 0.2117030 0.1768240
vt 0.2172050 0.1747680
f 145/537/145 114/538/114 147/539/147
vt 0.7143320 0.9673930
vt 0.7129530 0.9713860
vt 0.7189790 0.9684480
f 145/540/145 147/541/147 146/542/146
vt 0.4484810 0.9730260
vt 0.4442350 0.9771750
vt 0.4499940 0.9789770
f 138/543/138 176/544/176 143/545/143
vt 0.4971210 0.9717960
vt 0.4922340 0.9798810
vt 0.5050650 0.9782990
f 139/546/139 143/547/143 113/548/113
vt 0.7947000 0.9644000
vt 0.7939520 0.9678760
vt 0.7971450 0.9749660
f 133/549/133 110/550/110 149/551/149
vt 0.4187330 0.9649950
vt 0.4172160 0.9663610
vt 0.4214110 0.9669360
f 138/552/138 177/553/177 176/554/176
vt 0.1745170 0.1619660
vt 0.1868920 0.1668510
vt 0.1857310 0.1620190
f 111/555/111 145/556/145 148/557/148
vt 0.5531170 0.9733100
vt 0.5591120 0.9709490
vt 0.5610510 0.9693710
f 139/558/139 113/559/113 111/560/111
vt 0.1189570 0.5665000
vt 0.1184030 0.5658950
vt 0.1168640 0.5664900
f 178/561/178 175/562/175 177/563/177
vt 0.1034340 0.5718530
vt 0.1087160 0.5722570
vt 0.1108250 0.5705070
f 177/564/177 140/565/140 178/566/178
vt 0.8945580 0.1585730
vt 0.8946990 0.1566810
vt 0.9052970 0.1585480
f 195/567/195 186/568/186 193/569/193
vt 0.3232470 0.4973980
vt 0.3243010 0.5091930
vt 0.3282880 0.4958890
f 82/570/82 84/571/84 81/572/81
vt 0.0777000 0.9431260
vt 0.0939190 0.9608030
vt 0.0916620 0.9400900
f 141/573/141 200/574/200 178/575/178
vt 0.8545030 0.9564860
vt 0.8548330 0.9543400
vt 0.8524550 0.9569410
f 100/576/100 185/577/185 201/578/201
vt 0.7779720 0.3617080
vt 0.7831730 0.3565280
vt 0.7785500 0.3551260
f 64/579/64 192/580/192 172/581/172
vt 0.7203800 0.3383440
vt 0.7192700 0.3463340
vt 0.7295430 0.3401400
f 172/582/172 191/583/191 64/584/64
vt 0.8378540 0.3807930
vt 0.8433210 0.3713620
vt 0.8365250 0.3675370
f 193/585/193 196/586/196 192/587/192
vt 0.3710330 0.4934910
vt 0.3806760 0.4954730
vt 0.3759400 0.4909480
f 84/588/84 56/589/56 81/590/81
vt 0.9198960 0.0933600
vt 0.9299540 0.0872820
vt 0.9304940 0.0918490
f 184/591/184 185/592/185 187/593/187
vt 0.4734520 0.9259980
vt 0.4694110 0.9444650
vt 0.4806760 0.9345330
f 142/594/142 138/595/138 139/596/139
vt 0.0922650 0.0345860
vt 0.0907400 0.0350670
vt 0.0934220 0.0360460
f 100/597/100 201/598/201 141/599/141
vt 0.7691330 0.9569910
vt 0.7726100 0.9555840
vt 0.7694830 0.9473480
f 147/600/147 110/601/110 133/602/133
vt 0.9013220 0.2042700
vt 0.9027030 0.2024560
vt 0.9033010 0.2054480
f 192/603/192 196/604/196 172/605/172
vt 0.4334980 0.9169720
vt 0.4284700 0.9183640
vt 0.4343210 0.9179490
f 105/606/105 138/607/138 142/608/142
vt 0.9279490 0.1135270
vt 0.9329380 0.1161460
vt 0.9308790 0.1239010
f 186/609/186 187/610/187 188/611/188
vt 0.5328930 0.9181100
vt 0.5321440 0.9265800
vt 0.5394580 0.9202750
f 142/612/142 139/613/139 144/614/144
vt 0.9345510 0.1013370
vt 0.9371730 0.0856270
vt 0.9376310 0.0940740
f 187/615/187 185/616/185 101/617/101
vt 0.8823650 0.5623180
vt 0.8797470 0.5621740
vt 0.8806870 0.5610720
f 199/618/199 100/619/100 141/620/141
vt 0.9382390 0.1013190
f 187/615/187 101/617/101 241/621/241
vt 0.9349230 0.1090020
vt 0.9384640 0.1201460
f 187/610/187 241/622/241 188/623/188
vt 0.8777400 0.7640030
vt 0.8699230 0.7647050
vt 0.8757170 0.7629080
f 106/624/106 140/625/140 105/626/105
vt 0.7104890 0.9390400
vt 0.7075020 0.9404350
vt 0.7115240 0.9396730
f 129/627/129 148/628/148 145/629/145
vt 0.3538550 0.8954820
vt 0.3544970 0.8947870
vt 0.3549140 0.8982630
f 81/630/81 198/631/198 78/632/78
vt 0.3359490 0.4718720
vt 0.3346510 0.4704100
vt 0.3297340 0.4691670
f 81/633/81 79/634/79 80/635/80
vt 0.3501080 0.4741670
vt 0.3478120 0.4668290
vt 0.3418930 0.4660950
f 81/636/81 78/637/78 79/638/79
vt 0.7560080 0.9395570
vt 0.7587740 0.9435450
vt 0.7640160 0.9408480
f 146/639/146 147/640/147 133/641/133
vt 0.7470900 0.8250510
vt 0.7272810 0.8054910
vt 0.7215880 0.8262980
f 237/642/237 37/643/37 233/644/233
vt 0.8817390 0.7658780
vt 0.8806600 0.7625090
vt 0.8835680 0.7636810
f 106/645/106 105/646/105 103/647/103
vt 0.8824350 0.9712300
vt 0.8790050 0.9765810
vt 0.8808910 0.9788560
f 101/648/101 100/649/100 225/650/225
vt 0.8987720 0.8482830
vt 0.8977790 0.8501330
vt 0.8963300 0.8481410
f 199/651/199 141/652/141 106/653/106
vt 0.8749670 0.9823370
vt 0.8719000 0.9855510
vt 0.8770700 0.9876500
f 100/654/100 199/655/199 225/656/225
vt 0.8345580 0.3328540
vt 0.8358120 0.3294380
vt 0.8346490 0.3304350
f 196/657/196 171/658/171 170/659/170
vt 0.7931740 0.8735410
vt 0.7936560 0.8700140
vt 0.7822740 0.8712870
f 188/660/188 171/661/171 196/662/196
vt 0.7040760 0.9225640
vt 0.7036110 0.9247610
vt 0.7108970 0.9230390
f 134/663/134 135/664/135 131/665/131
vt 0.9180290 0.2326060
vt 0.9188710 0.2309880
vt 0.9185590 0.2343700
f 172/666/172 170/667/170 58/668/58
vt 0.3148950 0.4482070
vt 0.3201080 0.4396730
vt 0.3151460 0.4396990
f 79/669/79 236/670/236 86/671/86
vt 0.8952570 0.6884540
vt 0.8901200 0.6927210
vt 0.8905180 0.6879030
f 142/672/142 104/673/104 105/674/105
vt 0.7579270 0.9209250
vt 0.7565630 0.9270390
vt 0.7632880 0.9205620
f 234/675/234 146/676/146 130/677/130
vt 0.7501470 0.9225480
f 129/678/129 146/676/146 234/675/234
vt 0.5482520 0.8399410
vt 0.5535510 0.8445610
vt 0.5570100 0.8421070
f 236/679/236 131/680/131 86/681/86
vt 0.5635740 0.8445700
f 86/681/86 131/680/131 234/682/234
vt 0.5582390 0.7730270
vt 0.5490700 0.7754040
vt 0.5530150 0.7778530
f 238/683/238 86/684/86 234/685/234
vt 0.5367840 0.8388610
vt 0.5405420 0.8433910
vt 0.5430240 0.8395160
f 235/686/235 131/687/131 236/688/236
vt 0.7855700 0.9253720
vt 0.7863130 0.9282440
vt 0.7889310 0.9283510
f 130/689/130 146/690/146 133/691/133
vt 0.5964400 0.8441180
vt 0.5902780 0.8450110
vt 0.5992390 0.8441460
f 238/692/238 234/693/234 130/694/130
vt 0.6713710 0.9161390
vt 0.6659790 0.9179750
vt 0.6725390 0.9188230
f 134/695/134 136/696/136 135/697/135
vt 0.5162080 0.8419610
vt 0.5171130 0.8431630
vt 0.5226560 0.8426650
f 235/698/235 134/699/134 131/700/131
vt 0.9190410 0.5461600
vt 0.9160590 0.5447620
vt 0.9233810 0.5387340
f 225/701/225 199/702/199 97/703/97
vt 0.6388060 0.7343570
vt 0.6421220 0.7375350
vt 0.6406200 0.7346590
f 230/704/230 232/705/232 87/706/87
vt 0.7873390 0.9216330
vt 0.7881790 0.9237140
vt 0.7928970 0.9238920
f 130/707/130 133/708/133 132/709/132
vt 0.6489740 0.7435230
vt 0.6557100 0.7428280
vt 0.6585910 0.7400090
f 87/710/87 237/711/237 233/712/233
vt 0.9312900 0.9641120
vt 0.9242050 0.9675000
vt 0.9284940 0.9786930
f 241/713/241 101/714/101 226/715/226
vt 0.6834170 0.8112730
vt 0.6928730 0.7992930
vt 0.6781550 0.8000120
f 231/716/231 132/717/132 237/718/237
vt 0.0706830 0.7216920
vt 0.0668330 0.7211250
vt 0.0727610 0.7247110
f 170/719/170 171/720/171 242/721/242
vt 0.8585730 0.4773750
vt 0.8571110 0.4810450
vt 0.8565810 0.4758890
f 174/722/174 228/723/228 134/724/134
vt 0.5964430 0.9040620
vt 0.5971910 0.9043490
vt 0.5980580 0.9040470
f 136/725/136 102/726/102 135/727/135
vt 0.0242300 0.7415080
vt 0.0241880 0.7439130
vt 0.0251510 0.7438600
f 171/728/171 241/729/241 242/730/242
vt 0.9304850 0.2750550
vt 0.9289970 0.2620840
vt 0.9335420 0.2642200
f 239/731/239 58/732/58 170/733/170
vt 0.4931820 0.7213870
vt 0.4851250 0.7212030
vt 0.4787490 0.7226170
f 212/734/212 96/735/96 93/736/93
vt 0.4529570 0.8450050
vt 0.4543530 0.8510670
vt 0.4600860 0.8417080
f 174/737/174 134/738/134 235/739/235
vt 0.4548460 0.7860340
vt 0.4534130 0.7917610
vt 0.4599530 0.7908030
f 153/740/153 240/741/240 236/742/236
vt 0.6415170 0.7687180
vt 0.6454360 0.7732830
vt 0.6471680 0.7736620
f 87/743/87 232/744/232 231/745/231
vt 0.6631340 0.8143330
vt 0.6647370 0.8166330
vt 0.6643380 0.8120030
f 130/746/130 132/747/132 231/748/231
vt 0.8344040 0.8829480
vt 0.8337950 0.8755160
vt 0.8369770 0.8735850
f 226/749/226 225/750/225 97/751/97
vt 0.4491990 0.4930200
vt 0.4439910 0.4947390
vt 0.4381860 0.4993500
f 240/752/240 174/753/174 235/754/235
vt 0.9771550 0.3232790
vt 0.9813970 0.3297080
vt 0.9781400 0.3300960
f 76/755/76 210/756/210 90/757/90
vt 0.0786620 0.3677240
vt 0.0748330 0.3565350
vt 0.0770140 0.3457260
f 242/758/242 243/759/243 170/760/170
vt 0.1951060 0.0058920
vt 0.2007650 0.0060880
vt 0.1996330 0.0051290
f 228/761/228 174/762/174 219/763/219
vt 0.9629330 0.8837610
vt 0.9637420 0.8814200
vt 0.9712870 0.8831500
f 210/764/210 76/765/76 77/766/77
vt 0.4883440 0.5469110
vt 0.4805090 0.5457120
vt 0.4815350 0.5466950
f 222/767/222 240/768/240 153/769/153
vt 0.3032220 0.7324320
vt 0.2992410 0.7255660
vt 0.2975710 0.7291390
f 97/770/97 103/771/103 224/772/224
vt 0.8427690 0.8368090
vt 0.8416540 0.8372320
vt 0.8401440 0.8331600
f 213/773/213 97/774/97 224/775/224
vt 0.0441210 0.7733350
vt 0.0408430 0.7805430
vt 0.0431310 0.7783410
f 214/776/214 241/777/241 212/778/212
vt 0.8479720 0.8482190
vt 0.8463800 0.8472840
vt 0.8464310 0.8445420
f 226/779/226 97/780/97 213/781/213
vt 0.0792520 0.7511460
vt 0.0810550 0.7518230
vt 0.0813420 0.7508910
f 242/782/242 214/783/214 243/784/243
vt 0.7975050 0.4758180
vt 0.7910520 0.4753740
vt 0.7952660 0.4766810
f 229/785/229 211/786/211 213/787/213
vt 0.6861000 0.0031030
vt 0.6855460 0.0005940
vt 0.6852700 0.0034190
f 74/788/74 92/789/92 216/790/216
vt 0.4620250 0.3307600
vt 0.4665620 0.3378710
vt 0.4634680 0.3342760
f 214/791/214 212/792/212 93/793/93
vt 0.8278500 0.4996490
vt 0.8240300 0.4938510
vt 0.8220290 0.4938810
f 212/794/212 226/795/226 77/796/77
vt 0.8173390 0.4908160
vt 0.8100380 0.4894880
vt 0.8120310 0.4911710
f 226/797/226 213/798/213 77/799/77
vt 0.8048500 0.5477560
vt 0.8144860 0.5437560
vt 0.8024860 0.5478590
f 218/800/218 214/801/214 216/802/216
vt 0.7930740 0.4895660
vt 0.8027080 0.4891870
vt 0.7835200 0.4825850
f 210/803/210 213/804/213 211/805/211
vt 0.7975200 0.0981550
vt 0.7979360 0.0967220
vt 0.7925060 0.0974740
f 211/806/211 229/807/229 168/808/168
vt 0.1569490 0.7465920
vt 0.1566350 0.7501780
vt 0.1781940 0.7518340
f 170/809/170 243/810/243 239/811/239
vt 0.1511140 0.0046400
vt 0.1519580 0.0058550
vt 0.1595940 0.0055030
f 219/812/219 227/813/227 228/814/228
vt 0.7775440 0.4861890
f 221/815/221 210/803/210 211/805/211
vt 0.8559110 0.6119860
vt 0.8521290 0.6200860
vt 0.8510310 0.6084370
f 227/816/227 137/817/137 228/818/228
vt 0.5500450 0.4869740
vt 0.5420410 0.4840640
vt 0.5300130 0.4837320
f 220/819/220 219/820/219 240/821/240
vt 0.7719380 0.5008890
vt 0.7771380 0.4994690
vt 0.7720850 0.4965080
f 92/822/92 90/823/90 210/824/210
vt 0.8522030 0.6609830
vt 0.8377490 0.6824220
vt 0.8402470 0.6634050
f 137/825/137 104/826/104 102/827/102
vt 0.7417960 0.0504160
vt 0.7410330 0.0514430
vt 0.7450020 0.0506210
f 169/828/169 168/829/168 227/830/227
vt 0.1922790 0.7567220
vt 0.1933180 0.7597700
vt 0.2061460 0.7611830
f 239/831/239 243/832/243 206/833/206
vt 0.2199690 0.7587600
vt 0.2030860 0.7566660
vt 0.2244030 0.7629370
f 173/834/173 239/835/239 206/836/206
vt 0.1527310 0.0917600
vt 0.1433810 0.0940510
vt 0.1538540 0.0958620
f 206/837/206 243/838/243 189/839/189
vt 0.8510940 0.6692850
f 104/826/104 137/825/137 223/840/223
vt 0.1845650 0.0918540
vt 0.1906750 0.0947530
vt 0.1980860 0.0921820
f 206/841/206 189/842/189 205/843/205
vt 0.7240000 0.0575930
vt 0.7282820 0.0583830
vt 0.7309990 0.0569740
f 168/844/168 137/845/137 227/846/227
vt 0.7239600 0.0586250
f 168/844/168 223/847/223 137/845/137
vt 0.6721070 0.4749110
vt 0.6690340 0.4736960
vt 0.6652500 0.4741720
f 221/848/221 211/849/211 169/850/169
vt 0.5886550 0.1786190
vt 0.5816750 0.1772210
vt 0.5796420 0.1787410
f 169/851/169 227/852/227 219/853/219
vt 0.6053800 0.4774360
vt 0.6030860 0.4755180
vt 0.5941690 0.4766790
f 221/854/221 169/855/169 219/856/219
vt 0.5477970 0.1300480
vt 0.5427190 0.1383610
vt 0.5552360 0.1363940
f 221/857/221 220/858/220 205/859/205
vt 0.5823080 0.5475200
vt 0.5924480 0.5473160
vt 0.5800270 0.5463770
f 222/860/222 205/861/205 220/862/220
vt 0.6384660 0.5488380
vt 0.6352230 0.5398310
vt 0.6230690 0.5481720
f 205/863/205 189/864/189 221/865/221
vt 0.1272090 0.4381150
vt 0.1205060 0.4363150
f 88/339/88 163/866/163 160/867/160
vt 0.6951660 0.8762790
vt 0.6983530 0.8773170
vt 0.7068150 0.8772370
f 159/868/159 98/869/98 158/870/158
vt 0.5908450 0.1064660
vt 0.5848610 0.1072090
vt 0.5894150 0.1078920
f 159/871/159 162/872/162 163/873/163
vt 0.6605280 0.0680130
vt 0.6615130 0.0696190
vt 0.6788920 0.0683870
f 164/874/164 197/875/197 160/876/160
vt 0.5037720 0.1350990
vt 0.4984800 0.1398610
vt 0.4998870 0.1426010
f 244/877/244 161/878/161 163/879/163
vt 0.6598640 0.1591560
f 162/354/162 159/880/159 179/355/179
vt 0.2915560 0.1122580
vt 0.2716930 0.1129290
vt 0.2805710 0.1128740
f 209/881/209 197/882/197 154/883/154
vt 0.2968330 0.1103590
vt 0.2987570 0.1111560
vt 0.3058880 0.1097400
f 197/884/197 209/885/209 63/886/63
vt 0.7082990 0.1818610
vt 0.7015520 0.1830460
vt 0.7080800 0.1841070
f 202/887/202 197/888/197 115/889/115
vt 0.6756440 0.2506740
vt 0.6816790 0.2515360
vt 0.6657240 0.2464170
f 249/890/249 245/891/245 246/892/246
vt 0.4283260 0.0663420
vt 0.4237980 0.0659150
vt 0.4270030 0.0681060
f 124/893/124 158/894/158 166/895/166
vt 0.5170470 0.1202810
vt 0.5104720 0.1221090
vt 0.5178750 0.1215040
f 162/896/162 244/897/244 163/898/163
vt 0.4060520 0.0497700
vt 0.4104280 0.0516420
vt 0.4154990 0.0510590
f 164/899/164 207/900/207 154/901/154
vt 0.4870850 0.1766480
vt 0.4824450 0.1782830
vt 0.4889300 0.1832840
f 161/902/161 165/903/165 167/904/167
vt 0.5641440 0.7348460
vt 0.5655880 0.7390330
vt 0.5698030 0.7397740
f 180/905/180 165/906/165 161/907/161
vt 0.4780500 0.1792220
vt 0.4669810 0.1825420
f 165/908/165 164/909/164 167/904/167
vt 0.8065980 0.2816090
vt 0.8095920 0.2814780
vt 0.8089560 0.2803090
f 250/910/250 181/911/181 244/912/244
vt 0.0199390 0.2333770
vt 0.0161410 0.2492130
vt 0.0172460 0.2307820
f 158/913/158 98/914/98 99/915/99
vt 0.8512970 0.2507970
vt 0.8521410 0.2512390
vt 0.8528620 0.2437790
f 157/916/157 181/917/181 183/918/183
vt 0.5600950 0.7285810
vt 0.5613990 0.7336120
vt 0.5634890 0.7296290
f 73/919/73 165/920/165 180/921/180
vt 0.4438160 0.1445350
vt 0.4374780 0.1412560
vt 0.4357230 0.1452350
f 156/922/156 244/923/244 157/924/157
vt 0.5376020 0.7152450
vt 0.5350240 0.7132210
vt 0.5329400 0.7210590
f 73/925/73 71/926/71 165/927/165
vt 0.8308210 0.0050510
f 180/928/180 74/429/74 73/428/73
vt 0.9446410 0.1798830
vt 0.9466850 0.1852760
vt 0.9447380 0.1832700
f 180/929/180 161/930/161 74/931/74
vt 0.6153900 0.2497960
vt 0.6044670 0.2477890
vt 0.6063960 0.2511920
f 246/932/246 124/933/124 155/934/155
vt 0.0432010 0.2133690
vt 0.0350730 0.2141240
vt 0.0331330 0.2037500
f 68/935/68 158/936/158 99/937/99
vt 0.6851770 0.2809930
vt 0.6953600 0.2842100
vt 0.6816860 0.2782400
f 247/938/247 248/939/248 249/940/249
vt 0.2197360 0.1401780
vt 0.2105230 0.1418470
vt 0.2214250 0.1411260
f 207/941/207 204/942/204 209/943/209
vt 0.0471980 0.1997180
vt 0.0360680 0.1940290
f 68/944/68 99/937/99 122/945/122
vt 0.4429710 0.1536220
f 96/423/96 157/422/157 94/946/94
vt 0.6599210 0.2762760
vt 0.6502490 0.2706840
vt 0.6450240 0.2713660
f 155/947/155 247/948/247 246/949/246
vt 0.1801400 0.2434800
vt 0.1742880 0.2484920
vt 0.1835190 0.2512090
f 120/950/120 124/951/124 166/952/166
vt 0.3648550 0.7373060
vt 0.3589840 0.7391320
vt 0.3597040 0.7397850
f 94/953/94 71/954/71 95/955/95
vt 0.9621930 0.1821090
vt 0.9618320 0.1959280
vt 0.9590230 0.1871600
f 161/956/161 91/957/91 89/958/89
vt 0.2076800 0.2445840
vt 0.1936190 0.2479800
vt 0.2038760 0.2476150
f 123/959/123 120/960/120 166/961/166
vt 0.3233270 0.3425370
vt 0.3232040 0.3451430
vt 0.3260880 0.3443860
f 99/962/99 115/963/115 119/964/119
vt 0.8379960 0.1142450
vt 0.8370070 0.1223290
vt 0.8363450 0.1188530
f 182/965/182 183/966/183 181/967/181
vt 0.1461150 0.1415330
vt 0.1378420 0.1418040
vt 0.1466550 0.1423350
f 207/968/207 208/969/208 204/970/204
vt 0.5327370 0.3029810
vt 0.5330750 0.3052830
vt 0.5348690 0.3017630
f 128/971/128 116/972/116 127/973/127
vt 0.3599320 0.7181930
vt 0.3681550 0.7192100
vt 0.3676760 0.7159980
f 156/974/156 96/975/96 77/976/77
vt 0.2967140 0.3685980
vt 0.2940600 0.3699550
vt 0.3013500 0.3682630
f 115/977/115 63/978/63 118/979/118
vt 0.7733970 0.3142340
vt 0.7669450 0.3085920
vt 0.7641340 0.3105410
f 200/980/200 250/981/250 248/982/248
vt 0.1959890 0.2338740
vt 0.2134060 0.2394370
vt 0.2106000 0.2345780
f 120/983/120 123/984/123 112/985/112
vt 0.3731780 0.2786030
vt 0.3684430 0.2831280
vt 0.3702750 0.2856340
f 125/986/125 122/987/122 119/988/119
vt 0.9452550 0.1983940
vt 0.9487040 0.2000570
f 74/989/74 161/930/161 92/990/92
vt 0.9697410 0.1841850
vt 0.9728040 0.1996630
vt 0.9702240 0.2011870
f 75/991/75 76/992/76 91/993/91
vt 0.0737540 0.1944630
vt 0.0744580 0.1956910
vt 0.0750470 0.1947740
f 113/994/113 120/995/120 112/996/112
vt 0.3400820 0.3519310
vt 0.3389480 0.3521150
vt 0.3383610 0.3540310
f 119/997/119 115/998/115 118/999/118
vt 0.1167050 0.1433930
vt 0.1167850 0.1478270
vt 0.1238610 0.1485210
f 208/1000/208 190/1001/190 204/1002/204
vt 0.9628240 0.3938180
vt 0.9592060 0.3873560
vt 0.9614110 0.3897010
f 155/1003/155 120/1004/120 113/1005/113
vt 0.3393190 0.2535300
vt 0.3306100 0.2585550
vt 0.3385890 0.2597940
f 114/1006/114 123/1007/123 121/1008/121
vt 0.7974130 0.4354650
vt 0.7965750 0.4347610
vt 0.7945920 0.4366540
f 194/1009/194 190/1010/190 208/1011/208
vt 0.3899140 0.2627730
vt 0.3832590 0.2676400
vt 0.3914530 0.2668920
f 114/1012/114 121/1013/121 125/1014/125
vt 0.1192290 0.3383930
vt 0.1243020 0.3357290
vt 0.1222200 0.3319250
f 117/1015/117 116/1016/116 150/1017/150
vt 0.0205880 0.0502420
vt 0.0171210 0.0673800
vt 0.0221170 0.0653350
f 181/1018/181 250/1019/250 200/1020/200
vt 0.9513930 0.2045570
vt 0.9515070 0.1856140
vt 0.9534530 0.2013040
f 92/1021/92 161/1022/161 89/1023/89
vt 0.4199790 0.3183010
vt 0.4200110 0.3218720
vt 0.4302870 0.3186060
f 125/1024/125 119/1025/119 126/1026/126
vt 0.1726220 0.3390730
vt 0.1802950 0.3340070
vt 0.1809280 0.3265930
f 128/1027/128 82/1028/82 116/1029/116
vt 0.2383480 0.2179920
vt 0.2573010 0.2140400
vt 0.2523720 0.2087790
f 114/1030/114 125/1031/125 147/1032/147
vt 0.4252530 0.3312220
vt 0.4145820 0.3328660
vt 0.4189560 0.3373460
f 126/1033/126 119/1034/119 152/1035/152
vt 0.2738900 0.2066040
vt 0.2627830 0.2197450
vt 0.2823460 0.2191010
f 147/1036/147 125/1037/125 109/1038/109
vt 0.3995300 0.7361110
vt 0.3936670 0.7382050
f 93/1039/93 94/953/94 95/1040/95
vt 0.0313480 0.0362410
vt 0.0299320 0.0461360
vt 0.0350920 0.0370920
f 181/1041/181 200/1042/200 201/1043/201
vt 0.4258400 0.3384670
f 126/1033/126 152/1035/152 84/1044/84
vt 0.2553380 0.3273700
vt 0.2600470 0.3312570
vt 0.2608080 0.3234140
f 82/1045/82 126/1046/126 84/1047/84
vt 0.3477910 0.1988570
vt 0.3552340 0.2037240
vt 0.3672780 0.1955170
f 109/1048/109 108/1049/108 110/1050/110
vt 0.1226730 0.5382100
vt 0.1228470 0.5325590
vt 0.1184060 0.5367840
f 175/1051/175 248/1052/248 247/1053/247
vt 0.1113060 0.5399940
vt 0.1108630 0.5329130
vt 0.1060920 0.5395390
f 175/1054/175 247/1055/247 176/1056/176
vt 0.8764470 0.0478200
vt 0.8748810 0.0505540
vt 0.8727010 0.0508160
f 201/1057/201 184/1058/184 181/1059/181
vt 0.0824850 0.5424130
vt 0.0791210 0.5424070
vt 0.0793180 0.5468020
f 247/1060/247 155/1061/155 176/1062/176
vt 0.7966770 0.4107050
vt 0.7984500 0.4117410
vt 0.7989990 0.4098440
f 190/1063/190 194/1064/194 192/1065/192
vt 0.9898430 0.4162710
vt 0.9853930 0.4176090
vt 0.9891560 0.4023270
f 143/1066/143 155/1067/155 113/1068/113
vt 0.3594840 0.1829560
vt 0.3605310 0.1913150
vt 0.3630130 0.1775000
f 109/1069/109 110/1070/110 147/1071/147
vt 0.2014930 0.3103340
vt 0.1959470 0.3090000
vt 0.1907670 0.3091310
f 82/1072/82 151/1073/151 116/1074/116
vt 0.7739360 0.4005120
vt 0.7739720 0.3970660
vt 0.7717860 0.3971130
f 190/1075/190 192/1076/192 64/1077/64
vt 0.0376670 0.5548490
vt 0.0352590 0.5531720
vt 0.0329630 0.5553970
f 176/1078/176 155/1079/155 143/1080/143
vt 0.8812260 0.0459190
vt 0.8829550 0.0435530
vt 0.8863170 0.0429130
f 184/1081/184 201/1082/201 185/1083/185
vt 0.1819270 0.5406860
vt 0.1780370 0.5407390
vt 0.1781770 0.5432940
f 200/1084/200 248/1085/248 175/1086/175
vt 0.1808360 0.5422890
f 178/1087/178 200/1084/200 175/1086/175
vt 0.0872670 0.5497410
vt 0.0819400 0.5519710
vt 0.0848710 0.5525040
f 176/1088/176 177/1089/177 175/1090/175
vt 0.1215540 0.1775240
vt 0.1215630 0.1787900
vt 0.1233700 0.1781570
f 113/1091/113 112/1092/112 111/1093/111
vt 0.7985190 0.9728220
vt 0.7991830 0.9775030
vt 0.8003880 0.9728420
f 133/1094/133 149/1095/149 70/1096/70
vt 0.8084190 0.7614610
vt 0.8057580 0.7553580
vt 0.8062690 0.7596960
f 70/1097/70 149/1098/149 69/1099/69
vt 0.3498870 0.5211640
vt 0.3547290 0.5180540
vt 0.3488460 0.5173060
f 152/1100/152 83/1101/83 84/1102/84
vt 0.1647380 0.1723810
vt 0.1791060 0.1735420
vt 0.1757300 0.1680310
f 112/1103/112 145/1104/145 111/1105/111
vt 0.8438250 0.4060360
vt 0.8484590 0.4053940
vt 0.8448440 0.4014300
f 194/1106/194 195/1107/195 193/1108/193
vt 0.8348390 0.4034710
vt 0.8422430 0.4026430
vt 0.8346790 0.3985510
f 194/1109/194 193/1110/193 192/1111/192
vt 0.3861110 0.5192560
vt 0.3873680 0.5190320
vt 0.3885340 0.5174260
f 84/1112/84 83/1113/83 56/1114/56
vt 0.0643720 0.0458520
vt 0.0644520 0.0521500
vt 0.0691330 0.0487420
f 201/1115/201 200/1116/200 141/1117/141
vt 0.3716260 0.9531510
vt 0.3777860 0.9594740
vt 0.3930550 0.9537600
f 140/1118/140 177/1119/177 138/1120/138
vt 0.4812670 0.9485700
vt 0.4693960 0.9569710
vt 0.4798080 0.9637360
f 139/1121/139 138/1122/138 143/1123/143
vt 0.1722550 0.9313630
vt 0.1859590 0.9183320
vt 0.1721240 0.9171730
f 178/1124/178 140/1125/140 107/1126/107
vt 0.8678360 0.9482210
vt 0.8711340 0.9505980
vt 0.8710290 0.9483560
f 185/1127/185 100/1128/100 101/1129/101
vt 0.1373300 0.9170500
vt 0.1440590 0.9195800
vt 0.1499220 0.9166650
f 141/1130/141 178/1131/178 107/1132/107
vt 0.9100370 0.1525070
vt 0.9154660 0.1513350
vt 0.9189940 0.1581960
f 186/1133/186 188/1134/188 193/1135/193
vt 0.6028800 0.9466650
vt 0.6074590 0.9479530
vt 0.6080820 0.9473170
f 144/1136/144 111/1137/111 148/1138/148
vt 0.5442070 0.9374260
vt 0.5519710 0.9417290
vt 0.5583980 0.9337070
f 139/1139/139 111/1140/111 144/1141/144
vt 0.8552540 0.7006700
vt 0.8554820 0.6955790
vt 0.8579250 0.7020090
f 140/1142/140 138/1143/138 105/1144/105
vt 0.9244140 0.0997280
vt 0.9332500 0.0983350
vt 0.9322320 0.1055850
f 184/1145/184 187/1146/187 186/1147/186
vt 0.3917150 0.4882670
vt 0.3925230 0.4877840
vt 0.3915940 0.4864860
f 81/1148/81 56/1149/56 198/1150/198
vt 0.8737860 0.7859960
vt 0.8737110 0.7839060
vt 0.8784440 0.7824180
f 107/1151/107 140/1152/140 106/1153/106
vt 0.3268620 0.4791510
vt 0.3244510 0.4678360
vt 0.3223370 0.4734890
f 81/1154/81 80/1155/80 82/1156/82
vt 0.7159010 0.9386920
vt 0.7167140 0.9451600
vt 0.7186030 0.9419340
f 129/1157/129 145/1158/145 146/1159/146
vt 0.7035760 0.9394030
f 131/1160/131 148/628/148 129/627/129
vt 0.7020500 0.9415040
vt 0.6974050 0.9400100
f 148/1161/148 131/1160/131 135/1162/135
vt 0.2439760 0.4670410
vt 0.2544850 0.4616140
vt 0.2524730 0.4567230
f 151/1163/151 80/1164/80 85/1165/85
vt 0.7582970 0.8113200
vt 0.7516060 0.8114780
vt 0.7507390 0.8167080
f 28/1166/28 6/1167/6 37/1168/37
vt 0.8906330 0.8333080
vt 0.8878300 0.8322440
vt 0.8888880 0.8275210
f 106/1169/106 141/1170/141 107/1171/107
vt 0.9323840 0.1735290
vt 0.9385140 0.1716530
vt 0.9368760 0.1737570
f 193/1172/193 188/1173/188 196/1174/196
f 28/1166/28 37/1168/37 237/642/237
vt 0.8985610 0.8457810
f 199/651/199 106/653/106 103/1175/103
vt 0.3600580 0.9018230
vt 0.3607180 0.9019500
vt 0.3612130 0.9044400
f 78/1176/78 198/1177/198 153/1178/153
vt 0.2749820 0.4564310
vt 0.2675140 0.4557890
vt 0.2717210 0.4568530
f 238/1179/238 85/1180/85 80/1181/80
vt 0.2333650 0.4563630
vt 0.2305280 0.4504350
vt 0.2296660 0.4529260
f 85/1182/85 238/1183/238 230/1184/230
vt 0.2194690 0.4525120
vt 0.2213210 0.4526670
vt 0.2171870 0.4509720
f 151/1185/151 85/1186/85 67/1187/67
vt 0.2167610 0.4474240
f 85/1186/85 233/1188/233 67/1187/67
vt 0.6160460 0.9256510
vt 0.6157510 0.9269480
vt 0.6180810 0.9253720
f 144/1189/144 148/1190/148 135/1191/135
vt 0.3395100 0.4614080
vt 0.3430820 0.4601590
vt 0.3391280 0.4548410
f 79/1192/79 78/1193/78 236/1194/236
vt 0.9157580 0.2109090
vt 0.9158790 0.2095040
vt 0.9197810 0.2112820
f 172/1195/172 196/1196/196 170/1197/170
vt 0.3035230 0.4610340
vt 0.3002390 0.4475250
vt 0.2907820 0.4514880
f 80/1198/80 79/1199/79 238/1200/238
vt 0.7926980 0.9384320
vt 0.7942390 0.9400900
vt 0.7940860 0.9352760
f 133/1201/133 70/1202/70 132/1203/132
vt 0.5086700 0.8900980
vt 0.5322070 0.8935910
vt 0.5336220 0.8859580
f 142/1204/142 144/1205/144 102/1206/102
vt 0.7909790 0.8312710
vt 0.7743770 0.8270550
vt 0.7666960 0.8327590
f 70/1207/70 28/1208/28 237/1209/237
vt 0.8921140 0.7438750
vt 0.8884070 0.7415370
vt 0.8931930 0.7383470
f 103/1210/103 105/1211/105 104/1212/104
vt 0.2201950 0.4443550
vt 0.2224680 0.4523980
vt 0.2245050 0.4470240
f 233/1213/233 85/1214/85 230/1215/230
vt 0.8179420 0.9315770
vt 0.8199020 0.9321260
vt 0.8191360 0.9302760
f 132/1216/132 70/1217/70 237/1218/237
vt 0.3041630 0.4394430
vt 0.2938550 0.4448140
f 79/1199/79 86/1219/86 238/1220/238
vt 0.5589640 0.8458670
f 131/680/131 129/1221/129 234/682/234
vt 0.8991210 0.6661820
vt 0.8968680 0.6664010
vt 0.8971460 0.6644650
f 102/1222/102 104/1223/104 142/1224/142
vt 0.6072940 0.9143570
vt 0.6069400 0.9153690
vt 0.6082710 0.9160220
f 102/1225/102 144/1226/144 135/1227/135
vt 0.9672190 0.9372920
vt 0.9664440 0.9400170
vt 0.9707650 0.9355410
f 188/1228/188 241/1229/241 171/1230/171
vt 0.4604480 0.7691060
vt 0.4787430 0.7681910
vt 0.4625990 0.7637110
f 153/1231/153 236/1232/236 78/1233/78
vt 0.6408190 0.7337670
vt 0.6363120 0.7284260
vt 0.6369290 0.7316470
f 87/1234/87 233/1235/233 230/1236/230
vt 0.9160030 0.8411150
vt 0.9160110 0.8378340
vt 0.9172130 0.8339640
f 199/1237/199 103/1238/103 97/1239/97
vt 0.9734760 0.8642840
vt 0.9771290 0.8736050
vt 0.9689470 0.8747720
f 75/1240/75 156/1241/156 76/1242/76
vt 0.4596170 0.1704280
vt 0.4528190 0.1488750
vt 0.4597240 0.1454100
f 232/1243/232 238/1244/238 130/1245/130
vt 0.8297120 0.9011110
vt 0.8275050 0.8998430
vt 0.8315200 0.8999420
f 101/1246/101 225/1247/225 226/1248/226
vt 0.6933830 0.0191550
vt 0.7110080 0.0133240
vt 0.6921280 0.0111750
f 215/1249/215 71/1250/71 72/1251/72
vt 0.8528700 0.4860500
vt 0.8517790 0.4804510
vt 0.8533750 0.4840400
f 228/1252/228 136/1253/136 134/1254/134
vt 0.6142770 0.7556460
vt 0.6228240 0.7591940
vt 0.6210520 0.7528300
f 238/1255/238 232/1256/232 230/1257/230
vt 0.9126760 0.9221180
vt 0.9290620 0.9269600
vt 0.9410220 0.9150830
f 87/1258/87 231/1259/231 237/1260/237
vt 0.9166050 0.3728230
vt 0.9201530 0.3696610
vt 0.9181920 0.3746000
f 58/1261/58 173/1262/173 59/1263/59
vt 0.6529050 0.7878530
vt 0.6604400 0.8025500
vt 0.6613070 0.8014360
f 232/1264/232 130/1265/130 231/1266/231
vt 0.9301080 0.4227240
vt 0.9335800 0.4364100
vt 0.9255350 0.4416240
f 173/1267/173 57/1268/57 59/1269/59
vt 0.9672450 0.4852140
vt 0.9657120 0.4901230
vt 0.9721010 0.4922800
f 240/1270/240 235/1271/235 236/1272/236
vt 0.7004360 0.0399140
vt 0.6992380 0.0385220
vt 0.6896350 0.0382810
f 95/1273/95 71/1274/71 215/1275/215
vt 0.9301560 0.3244490
vt 0.9275420 0.3367240
vt 0.9247360 0.3313110
f 239/1276/239 173/1277/173 58/1278/58
vt 0.4954970 0.7141220
vt 0.4901950 0.7179750
vt 0.4961610 0.7195860
f 77/1279/77 96/1280/96 212/1281/212
vt 0.5862820 0.8970050
vt 0.5920310 0.8994980
vt 0.5900170 0.8957600
f 102/1282/102 136/1283/136 137/1284/137
vt 0.9775960 0.8821250
f 156/1241/156 77/1285/77 76/765/76
vt 0.9844650 0.9247350
vt 0.9838860 0.9340850
vt 0.9831220 0.9266570
f 153/1286/153 57/1287/57 222/1288/222
vt 0.4961390 0.7341700
vt 0.4897380 0.7362010
vt 0.4964570 0.7388480
f 93/1289/93 95/1290/95 215/1291/215
vt 0.2113840 0.0039960
vt 0.2112480 0.0048190
vt 0.2154600 0.0050810
f 240/1292/240 219/1293/219 174/1294/174
vt 0.0347510 0.7563660
vt 0.0378680 0.7618450
vt 0.0415840 0.7568500
f 242/1295/242 241/1296/241 214/1297/214
vt 0.6880120 0.0140170
vt 0.6865540 0.0090450
f 215/1298/215 72/1251/72 216/1299/216
vt 0.6941690 0.0097980
vt 0.6932260 0.0083290
f 72/1300/72 74/1301/74 216/1299/216
vt 0.9627010 0.3200600
vt 0.9652530 0.3222340
vt 0.9632270 0.3323210
f 89/1302/89 91/1303/91 90/1304/90
vt 0.8437240 0.6108520
vt 0.8405940 0.5945240
vt 0.8488690 0.6015920
f 137/1305/137 136/1306/136 228/1307/228
vt 0.0286390 0.7766540
vt 0.0344200 0.7884620
vt 0.0388790 0.7822120
f 226/1308/226 212/1309/212 241/1310/241
vt 0.0318630 0.1134200
vt 0.0281930 0.1156270
vt 0.0284820 0.1173890
f 213/1311/213 224/1312/224 229/1313/229
vt 0.2905340 0.7273170
vt 0.2936560 0.7270380
vt 0.2848940 0.7264540
f 229/1314/229 224/1315/224 168/1316/168
vt 0.8169380 0.5422820
vt 0.8177900 0.5366180
vt 0.8060170 0.5435650
f 214/1317/214 215/1318/215 216/1319/216
vt 0.9685070 0.3237430
vt 0.9714440 0.3284530
vt 0.9700070 0.3311110
f 91/1320/91 76/1321/76 90/1322/90
vt 0.8159020 0.5581980
vt 0.8109630 0.5592810
vt 0.8104930 0.5609760
f 214/1323/214 218/1324/218 243/1325/243
vt 0.8003700 0.3426370
vt 0.7893770 0.3427240
vt 0.7807830 0.3484650
f 103/1326/103 104/1327/104 223/1328/223
vt 0.3180710 0.7658110
vt 0.3207780 0.7708320
vt 0.3213500 0.7687810
f 205/1329/205 222/1330/222 57/1331/57
vt 0.8312020 0.5329160
vt 0.8273260 0.5359650
vt 0.8260150 0.5398070
f 93/1332/93 215/1333/215 214/1334/214
vt 0.8085390 0.4908400
f 77/799/77 213/798/213 210/1335/210
vt 0.9608830 0.3318890
vt 0.9580240 0.3322670
f 89/1336/89 90/1304/90 92/1337/92
vt 0.7955300 0.5663200
vt 0.7826190 0.5707670
vt 0.7865270 0.5712970
f 218/1338/218 217/1339/217 243/1340/243
vt 0.8409140 0.7675830
vt 0.8415560 0.7428930
vt 0.8453520 0.7454470
f 103/1341/103 223/1342/223 224/1343/224
vt 0.7850850 0.5493720
vt 0.7791440 0.5488670
vt 0.7813050 0.5534470
f 216/1344/216 92/1345/92 218/1346/218
vt 0.3220700 0.7013060
vt 0.3123250 0.7131830
vt 0.3319910 0.7060840
f 205/1347/205 57/1348/57 173/1349/173
vt 0.7767760 0.5526560
f 92/1345/92 217/1350/217 218/1346/218
vt 0.6367890 0.0577580
vt 0.6451720 0.0582440
vt 0.6375760 0.0565840
f 224/1351/224 223/1352/223 168/1353/168
vt 0.6538380 0.1775290
vt 0.6423080 0.1741010
vt 0.6310090 0.1774240
f 211/1354/211 168/1355/168 169/1356/169
vt 0.2456950 0.7658850
vt 0.2628890 0.7689940
vt 0.2627320 0.7679680
f 173/1357/173 206/1358/206 205/1359/205
vt 0.0155350 0.8473870
vt 0.0087520 0.8485110
vt 0.0122080 0.8497330
f 217/1360/217 92/1361/92 210/1362/210
vt 0.1861860 0.8795670
vt 0.1869970 0.8747620
vt 0.1851510 0.8759140
f 217/1363/217 210/1364/210 221/1365/221
vt 0.7482850 0.5749760
vt 0.7446940 0.5721640
vt 0.7381140 0.5703340
f 189/1366/189 217/1367/217 221/1368/221
vt 0.5442870 0.3690320
vt 0.5398580 0.3695860
vt 0.5410200 0.3701650
f 243/1369/243 217/1370/217 189/1371/189
vt 0.5642270 0.5446580
vt 0.5588040 0.5448220
vt 0.5611340 0.5458520
f 220/1372/220 240/1373/240 222/1374/222
vt 0.5975740 0.4790500
vt 0.5903820 0.4782330
vt 0.5863450 0.4887980
f 221/1375/221 219/1376/219 220/1377/220
# 500 faces, 1377 coords texture

# End of File
