# https://github.com/mikedh/trimesh
v 0.00219873 0.00149666 0.00756121
v 0.00219873 0.00207230 0.00726100
v 0.00141467 0.00178996 0.00742302
v 0.00049295 0.00207093 0.00726100
v 0.00049543 -0.00207093 0.00726100
v 0.00220081 -0.00149392 0.00756121
v 0.00219749 0.00425425 0.00587431
v -0.00105238 0.00425288 0.00587431
v 0.00220247 -0.00425288 0.00587431
v -0.00105114 0.00249855 0.00698819
v -0.00104823 -0.00249992 0.00698819
v -0.00104741 -0.00425425 0.00587431
v 0.00220081 -0.00206956 0.00726100
v 0.00141674 -0.00178859 0.00742302
v 0.00219708 0.00495050 0.00033587
v 0.00219708 0.00495050 0.00460913
v 0.00219708 0.00486689 0.00510471
v 0.00219708 0.00462293 0.00554431
v 0.00220288 -0.00494776 0.00460913
v 0.00220288 -0.00494776 0.00033587
v -0.00105238 0.00462019 0.00554431
v -0.00203298 0.00494776 -0.00038845
v -0.00104699 -0.00462156 0.00554431
v 0.00220247 -0.00462019 0.00554431
v -0.00203298 0.00476821 -0.00038845
v -0.00203298 -0.00495050 -0.00039440
v 0.00219708 0.00241906 0.00020840
v 0.00219293 0.00266850 0.00010238
v 0.00218588 0.00285627 -0.00001437
v 0.00216473 0.00495050 -0.00023119
v 0.00148930 0.00700087 0.00013931
v 0.00220081 -0.00194758 0.00028346
v 0.00220081 -0.00212027 0.00027273
v 0.00133838 0.00699950 0.00066944
v 0.00100626 0.00699950 0.00110904
v 0.00053773 0.00699950 0.00139972
v -0.00000378 0.00699950 0.00149979
v 0.00220247 -0.00486415 0.00510471
v 0.00149759 -0.00699813 0.00013931
v 0.00217054 -0.00494776 -0.00023119
v 0.00219749 -0.00258901 0.00013931
v 0.00220039 -0.00231489 0.00023700
v -0.00054570 0.00699950 0.00139972
v -0.00105280 0.00486415 0.00510471
v -0.00134677 0.00699813 0.00066944
v -0.00149728 0.00699813 0.00013931
v -0.00203298 0.00494776 -0.00460690
v -0.00148940 -0.00700087 0.00013931
v -0.00133848 -0.00699950 0.00066944
v -0.00104699 -0.00486552 0.00510471
v -0.00053741 -0.00699950 0.00139972
v 0.00000410 -0.00699950 0.00149979
v -0.00203298 -0.00495050 -0.00460690
v 0.00217759 0.00298784 -0.00011802
v 0.00217842 -0.00301251 -0.00014303
v 0.00196571 0.00495050 -0.00116638
v 0.00143830 0.00699950 -0.00040989
v 0.00214856 0.00322632 -0.00036581
v 0.00211871 0.00335927 -0.00055046
v 0.00207600 0.00347714 -0.00076014
v 0.00119284 0.00699950 -0.00090309
v 0.00078526 0.00699950 -0.00127479
v 0.00027153 0.00699950 -0.00147374
v -0.00027951 0.00699950 -0.00147374
v -0.00079365 0.00699950 -0.00127479
v 0.00054560 -0.00699950 0.00139972
v 0.00101455 -0.00699813 0.00110904
v 0.00134667 -0.00699813 0.00066944
v 0.00079355 -0.00699950 -0.00127479
v 0.00144659 -0.00699813 -0.00040989
v 0.00197152 -0.00494776 -0.00116638
v 0.00208015 -0.00347439 -0.00076014
v 0.00212369 -0.00335515 -0.00054689
v 0.00214608 -0.00325921 -0.00040989
v -0.00101424 0.00699813 0.00110904
v -0.00144669 0.00699813 -0.00040989
v -0.00120082 0.00699813 -0.00090309
v -0.00188247 0.00494776 -0.00457831
v -0.00188123 0.00294810 -0.00457831
v -0.00187667 -0.00495050 -0.00457831
v -0.00143840 -0.00699950 -0.00040989
v -0.00119294 -0.00699950 -0.00090309
v -0.00078536 -0.00699950 -0.00127479
v -0.00027122 -0.00699950 -0.00147374
v 0.00027941 -0.00699950 -0.00147374
v -0.00100636 -0.00699950 0.00110904
v 0.00181354 0.00372384 -0.00158572
v 0.00159213 0.00495050 -0.00204795
v 0.00200261 0.00359637 -0.00104486
v 0.00197152 -0.00363064 -0.00116399
v 0.00182805 -0.00371836 -0.00156308
v 0.00201464 -0.00358267 -0.00101865
v 0.00105726 0.00495050 -0.00284137
v 0.00038141 0.00494913 -0.00351803
v -0.00041095 0.00494913 -0.00405413
v -0.00129121 0.00494913 -0.00442939
v -0.00128540 -0.00495050 -0.00442939
v -0.00040514 -0.00494913 -0.00405413
v 0.00038680 -0.00494913 -0.00351803
v 0.00120072 -0.00699813 -0.00090309
v 0.00159752 -0.00494776 -0.00204795
v 0.00152040 0.00374440 -0.00217542
v 0.00115096 0.00366764 -0.00272462
v 0.00105726 0.00364023 -0.00284256
v 0.00067538 0.00350455 -0.00325594
v 0.00065382 -0.00349358 -0.00328215
v 0.00038100 0.00338805 -0.00351923
v 0.00009158 0.00327018 -0.00374081
v -0.00037819 0.00308241 -0.00403745
v -0.00040929 0.00307008 -0.00405413
v -0.00060458 0.00299744 -0.00415539
v -0.00074390 0.00294947 -0.00422091
v -0.00074058 -0.00294947 -0.00422091
v -0.00069870 -0.00294947 -0.00420185
v -0.00040597 -0.00307145 -0.00405413
v -0.00037446 -0.00308241 -0.00403626
v -0.00001166 -0.00322769 -0.00381467
v 0.00106306 -0.00494913 -0.00284137
v 0.00038473 -0.00338805 -0.00351923
v 0.00152952 -0.00374440 -0.00216589
v 0.00114516 -0.00366490 -0.00273653
v -0.00870899 -0.00495491 -0.00585809
v -0.00928259 -0.00495530 -0.00585328
v -0.00928424 -0.00295550 -0.00585328
v -0.00870982 -0.00295511 -0.00585756
v -0.00203298 -0.00295138 -0.00460740
v -0.00203298 -0.00490546 -0.00460793
v -0.00203298 -0.00495099 -0.00460793
v -0.00981327 -0.00495570 -0.00563351
v -0.00981492 -0.00295589 -0.00563351
v -0.01022346 -0.00295609 -0.00523034
v -0.01045124 -0.00295609 -0.00470311
v -0.00203298 -0.00295118 -0.00448923
v -0.00203298 -0.00495118 -0.00199640
v -0.00986774 -0.00495570 -0.00317116
v -0.01022263 -0.00495589 -0.00523034
v -0.00203298 -0.00495118 -0.00064785
v -0.01045042 -0.00495589 -0.00470311
v -0.01046445 -0.00295628 -0.00412883
v -0.01025977 -0.00295609 -0.00359198
v -0.00934862 -0.00295550 -0.00292840
v -0.00809248 -0.00295471 -0.00261506
v -0.00473013 -0.00295275 -0.00311074
v -0.00369600 -0.00295216 -0.00305834
v -0.00250754 -0.00295157 -0.00265623
v -0.00203298 -0.00295138 -0.00236000
v -0.00934779 -0.00495530 -0.00292840
v -0.00986939 -0.00295589 -0.00317116
v -0.01025895 -0.00495589 -0.00359198
v -0.00203298 -0.00495099 -0.00039547
v -0.01046280 -0.00495589 -0.00412883
v -0.00203298 -0.00445113 -0.00042916
v -0.00766084 -0.00300319 -0.00250758
v -0.00752218 -0.00295452 -0.00255250
v -0.00708229 -0.00295412 -0.00259367
v -0.00871346 0.00294509 -0.00585809
v -0.00928737 0.00294469 -0.00585327
v -0.00928902 0.00494450 -0.00585327
v -0.00871429 0.00494490 -0.00585755
v -0.00203381 0.00494882 -0.00460699
v -0.00203381 0.00294901 -0.00460699
v -0.00981834 0.00294430 -0.00563378
v -0.00981917 0.00494411 -0.00563378
v -0.01022875 0.00494392 -0.00523067
v -0.01045584 0.00494392 -0.00470282
v -0.00385628 0.00494764 -0.00155768
v -0.00203381 0.00494863 -0.00038902
v -0.00935343 0.00494450 -0.00292869
v -0.00203381 0.00294901 -0.00235801
v -0.00251110 0.00294862 -0.00265620
v -0.00408585 0.00294764 -0.00310964
v -0.00987284 0.00294430 -0.00317120
v -0.01022710 0.00294411 -0.00523067
v -0.00441368 0.00294744 -0.00312248
v -0.00474233 0.00294725 -0.00311017
v -0.01045501 0.00294411 -0.00470282
v -0.01046905 0.00494372 -0.00412893
v -0.01026426 0.00494392 -0.00359198
v -0.00935178 0.00294469 -0.00292869
v -0.00203381 0.00476827 -0.00038956
v -0.00987367 0.00494411 -0.00317120
v -0.00203381 0.00444877 -0.00042382
v -0.00752518 0.00294568 -0.00255234
v -0.01026343 0.00294411 -0.00359198
v -0.01046740 0.00294411 -0.00412893
v -0.00809579 0.00294548 -0.00261498
v -0.00766391 0.00299435 -0.00250737
f 1 2 3
f 1 3 4
f 1 4 5
f 1 5 6
f 1 6 2
f 2 7 8
f 2 8 4
f 2 4 3
f 2 6 9
f 2 9 7
f 4 8 10
f 4 10 11
f 4 11 5
f 5 11 12
f 5 12 9
f 5 9 13
f 5 13 14
f 5 14 6
f 6 14 13
f 6 13 9
f 7 15 16
f 7 16 17
f 7 17 18
f 7 18 8
f 7 9 19
f 7 19 20
f 7 20 15
f 8 18 21
f 8 21 22
f 8 22 10
f 9 12 23
f 9 23 24
f 9 24 19
f 10 22 25
f 10 25 26
f 10 26 11
f 11 26 12
f 12 26 23
f 15 27 28
f 15 28 29
f 15 29 30
f 15 30 31
f 15 31 16
f 15 20 32
f 15 32 33
f 15 33 27
f 16 31 17
f 17 31 34
f 17 34 35
f 17 35 36
f 17 36 37
f 17 37 18
f 18 37 21
f 19 24 38
f 19 38 39
f 19 39 20
f 20 39 40
f 20 40 41
f 20 41 42
f 20 42 33
f 20 33 32
f 21 37 43
f 21 43 44
f 21 44 45
f 21 45 46
f 21 46 22
f 22 46 47
f 22 47 53
f 22 53 26
f 22 26 25
f 23 26 48
f 23 48 49
f 23 49 50
f 23 50 51
f 23 51 52
f 23 52 24
f 24 52 38
f 26 53 48
f 27 33 42
f 27 42 41
f 27 41 28
f 28 41 29
f 29 54 30
f 29 41 55
f 29 55 54
f 30 56 57
f 30 57 31
f 30 54 40
f 30 40 58
f 30 58 59
f 30 59 60
f 30 60 56
f 31 43 37
f 31 37 36
f 31 36 35
f 31 35 34
f 31 57 61
f 31 61 62
f 31 62 63
f 31 63 64
f 31 64 65
f 31 65 43
f 38 52 66
f 38 66 67
f 38 67 68
f 38 68 39
f 39 68 66
f 39 66 69
f 39 69 70
f 39 70 40
f 40 70 71
f 40 71 72
f 40 72 73
f 40 73 74
f 40 74 58
f 40 54 55
f 40 55 41
f 43 65 46
f 43 46 45
f 43 45 75
f 43 75 44
f 44 75 45
f 46 65 76
f 46 76 47
f 47 76 77
f 47 77 65
f 47 65 64
f 47 64 63
f 47 63 78
f 47 78 79
f 47 79 80
f 47 80 53
f 48 81 82
f 48 82 83
f 48 83 84
f 48 84 85
f 48 85 69
f 48 69 66
f 48 66 52
f 48 52 51
f 48 51 86
f 48 86 49
f 48 53 81
f 49 86 50
f 50 86 51
f 53 80 85
f 53 85 84
f 53 84 83
f 53 83 82
f 53 82 81
f 56 87 88
f 56 88 57
f 56 60 89
f 56 89 90
f 56 90 71
f 56 71 91
f 56 91 87
f 57 88 61
f 58 74 59
f 59 74 73
f 59 73 60
f 60 73 72
f 60 72 92
f 60 92 89
f 61 88 93
f 61 93 94
f 61 94 62
f 62 94 95
f 62 95 96
f 62 96 63
f 63 96 78
f 65 77 76
f 66 68 67
f 69 85 97
f 69 97 98
f 69 98 99
f 69 99 100
f 69 100 70
f 70 100 101
f 70 101 71
f 71 101 91
f 71 90 92
f 71 92 72
f 78 96 79
f 79 96 97
f 79 97 80
f 80 97 85
f 87 91 101
f 87 101 88
f 88 102 93
f 88 101 102
f 89 92 90
f 93 102 103
f 93 103 104
f 93 104 105
f 93 105 94
f 94 105 106
f 94 106 107
f 94 107 108
f 94 108 95
f 95 108 109
f 95 109 110
f 95 110 111
f 95 111 112
f 95 112 96
f 96 112 97
f 97 113 98
f 97 112 113
f 98 113 114
f 98 114 111
f 98 111 115
f 98 115 109
f 98 109 116
f 98 116 117
f 98 117 99
f 99 118 100
f 99 117 108
f 99 108 119
f 99 119 106
f 99 106 118
f 100 118 101
f 101 118 120
f 101 120 102
f 102 120 103
f 103 120 121
f 103 121 118
f 103 118 104
f 104 118 105
f 105 118 106
f 106 119 107
f 107 119 108
f 108 117 109
f 109 117 116
f 109 115 110
f 110 115 111
f 111 114 112
f 112 114 113
f 118 121 120
f 122 123 124
f 122 124 125
f 122 125 126
f 122 126 127
f 122 127 128
f 122 128 123
f 123 129 130
f 123 130 124
f 123 128 129
f 124 130 131
f 124 131 132
f 124 132 125
f 125 132 133
f 125 133 126
f 126 133 146
f 126 146 152
f 126 152 150
f 126 150 137
f 126 137 134
f 126 134 128
f 126 128 127
f 128 134 129
f 129 135 136
f 129 136 130
f 129 134 137
f 129 137 135
f 130 136 131
f 131 136 138
f 131 138 132
f 132 138 139
f 132 139 140
f 132 140 141
f 132 141 142
f 132 142 143
f 132 143 133
f 133 143 144
f 133 144 145
f 133 145 146
f 135 147 148
f 135 148 149
f 135 149 136
f 135 137 150
f 135 150 147
f 136 149 151
f 136 151 138
f 138 151 139
f 139 151 149
f 139 149 140
f 140 149 148
f 140 148 141
f 141 148 147
f 141 147 150
f 141 150 152
f 141 152 142
f 142 153 154
f 142 154 146
f 142 146 155
f 142 155 143
f 142 152 153
f 143 155 144
f 144 155 145
f 145 155 146
f 146 154 152
f 152 154 153
f 156 157 158
f 156 158 159
f 156 159 160
f 156 160 161
f 156 161 157
f 157 162 158
f 157 161 162
f 158 162 163
f 158 163 164
f 158 164 165
f 158 165 159
f 159 165 160
f 160 166 167
f 160 167 180
f 160 180 182
f 160 182 169
f 160 169 161
f 160 165 168
f 160 168 166
f 161 169 170
f 161 170 171
f 161 171 162
f 162 172 173
f 162 173 164
f 162 164 163
f 162 171 174
f 162 174 175
f 162 175 172
f 164 176 165
f 164 173 176
f 165 177 178
f 165 178 168
f 165 176 177
f 166 168 167
f 167 168 179
f 167 179 180
f 168 178 181
f 168 181 172
f 168 172 179
f 169 182 183
f 169 183 170
f 170 183 175
f 170 175 171
f 171 175 174
f 172 181 178
f 172 178 184
f 172 184 173
f 172 175 183
f 172 183 179
f 173 184 185
f 173 185 176
f 176 185 177
f 177 185 184
f 177 184 178
f 179 183 186
f 179 186 182
f 179 182 180
f 182 186 187
f 182 187 183
f 183 187 186

