# https://github.com/mikedh/trimesh
v -0.00870899 -0.00495491 -0.00585809
v -0.00928259 -0.00495530 -0.00585328
v -0.00928424 -0.00295550 -0.00585328
v -0.00870982 -0.00295511 -0.00585756
v -0.00203298 -0.00295138 -0.00460740
v -0.00203298 -0.00490546 -0.00460793
v -0.00203298 -0.00495099 -0.00460793
v -0.00981327 -0.00495570 -0.00563351
v -0.00981492 -0.00295589 -0.00563351
v -0.01022346 -0.00295609 -0.00523034
v -0.01045124 -0.00295609 -0.00470311
v -0.00203298 -0.00295118 -0.00448923
v -0.00203298 -0.00495118 -0.00199640
v -0.00986774 -0.00495570 -0.00317116
v -0.01022263 -0.00495589 -0.00523034
v -0.00203298 -0.00495118 -0.00064785
v -0.01045042 -0.00495589 -0.00470311
v -0.01046445 -0.00295628 -0.00412883
v -0.01025977 -0.00295609 -0.00359198
v -0.00934862 -0.00295550 -0.00292840
v -0.00809248 -0.00295471 -0.00261506
v -0.00473013 -0.00295275 -0.00311074
v -0.00369600 -0.00295216 -0.00305834
v -0.00250754 -0.00295157 -0.00265623
v -0.00203298 -0.00295138 -0.00236000
v -0.00934779 -0.00495530 -0.00292840
v -0.00986939 -0.00295589 -0.00317116
v -0.01025895 -0.00495589 -0.00359198
v -0.00203298 -0.00495099 -0.00039547
v -0.01046280 -0.00495589 -0.00412883
v -0.00203298 -0.00445113 -0.00042916
v -0.00766084 -0.00300319 -0.00250758
v -0.00752218 -0.00295452 -0.00255250
v -0.00708229 -0.00295412 -0.00259367
f 1 2 3
f 1 3 4
f 1 4 5
f 1 5 6
f 1 6 7
f 1 7 2
f 2 8 9
f 2 9 3
f 2 7 8
f 3 9 10
f 3 10 11
f 3 11 4
f 4 11 12
f 4 12 5
f 5 12 25
f 5 25 31
f 5 31 29
f 5 29 16
f 5 16 13
f 5 13 7
f 5 7 6
f 7 13 8
f 8 14 15
f 8 15 9
f 8 13 16
f 8 16 14
f 9 15 10
f 10 15 17
f 10 17 11
f 11 17 18
f 11 18 19
f 11 19 20
f 11 20 21
f 11 21 22
f 11 22 12
f 12 22 23
f 12 23 24
f 12 24 25
f 14 26 27
f 14 27 28
f 14 28 15
f 14 16 29
f 14 29 26
f 15 28 30
f 15 30 17
f 17 30 18
f 18 30 28
f 18 28 19
f 19 28 27
f 19 27 20
f 20 27 26
f 20 26 29
f 20 29 31
f 20 31 21
f 21 32 33
f 21 33 25
f 21 25 34
f 21 34 22
f 21 31 32
f 22 34 23
f 23 34 24
f 24 34 25
f 25 33 31
f 31 33 32

