# https://github.com/mikedh/trimesh
v -0.00049272 -0.01111090 0.02704941
v 0.00020993 -0.01110022 0.02687237
v 0.00021198 -0.01110022 0.02692511
v -0.00047217 -0.01110877 0.02713604
v -0.00121591 -0.01104041 0.02717747
v -0.00202129 -0.01057471 0.00069382
v -0.00143164 -0.01062384 0.00194437
v 0.00148785 -0.01094428 0.02684600
v 0.00011337 -0.01063880 0.00444922
v 0.00037429 -0.01062812 0.00438142
v 0.00118583 -0.01057044 0.00342468
v 0.00164193 -0.01051490 0.00309321
v 0.00156386 -0.01092078 0.02704941
v 0.00022020 -0.01103827 0.02727164
v -0.00046190 -0.01110236 0.02717747
v -0.00118510 -0.01101691 0.02736204
v -0.00140493 -0.01097632 0.02739218
v -0.00144191 -0.01099768 0.02721137
v -0.00286775 -0.01042090 -0.00082792
v -0.00202540 -0.01054694 0.00041509
v 0.00343965 -0.01017096 0.00064862
v 0.00155975 -0.01093146 0.02684600
v 0.00222337 -0.01042090 0.00270524
v 0.00257880 -0.01035468 0.00236624
v 0.00754870 -0.00818427 0.02626593
v 0.00755281 -0.00814368 0.02652960
v 0.00156797 -0.01086951 0.02724151
v 0.00420188 -0.01004706 0.02251430
v 0.00546952 -0.00950660 0.02248794
v -0.00045368 -0.01108954 0.02722267
v 0.00157003 -0.01081183 0.02736581
v 0.00021815 -0.01086737 0.02756921
v -0.00007771 -0.00763526 0.03324562
v -0.00116661 -0.01098059 0.02744491
v -0.00151793 -0.01093787 0.02741101
v -0.00153437 -0.01096564 0.02726411
v -0.00146657 -0.01099127 0.02722644
v -0.00135973 -0.01089087 0.02755414
v -0.00104950 -0.00769935 0.03309872
v -0.00145218 -0.00768867 0.03295559
v -0.00296432 -0.01040168 -0.00076765
v -0.00345535 -0.01025214 -0.00147956
v -0.00388269 -0.01006415 -0.00231953
v -0.00276708 -0.01041449 -0.00088819
v 0.00347046 -0.01014533 0.00045276
v 0.00491891 -0.00960700 0.00085203
v 0.00431282 -0.01001075 0.01959135
v 0.00346841 -0.01029914 0.02252937
v 0.00766376 -0.00808387 0.02625087
v 0.00565237 -0.00941260 0.02249547
v 0.00612286 -0.00915412 0.02258587
v 0.00603041 -0.00924598 0.02153873
v 0.00658308 -0.00889564 0.02202463
v 0.00695494 -0.00867560 0.02014128
v 0.00757952 -0.00819068 0.02001698
v 0.00795345 -0.00781684 0.02620943
v 0.00802741 -0.00774421 0.02620190
v 0.00808288 -0.00768867 0.02619437
v 0.00867048 -0.00701789 0.02630360
v 0.00864582 -0.00698158 0.02647687
v 0.00755898 -0.00800910 0.02677444
v 0.00566059 -0.00944251 0.01983618
v 0.00115912 -0.00736610 0.03306482
v 0.00055920 -0.00752418 0.03320796
v 0.00006817 0.00721579 0.03324939
v -0.00007771 0.00314841 0.03324562
v -0.00077419 0.00729483 0.03316652
v -0.00167407 -0.01082679 0.02741478
v -0.00161449 -0.01091437 0.02731307
v -0.00207676 -0.00762885 0.03262035
v -0.00262327 -0.00753272 0.03217588
v -0.00214456 -0.01073706 0.02637140
v -0.00171311 -0.01091223 0.02675937
v -0.00145218 0.00728842 0.03295559
v -0.00411485 -0.00998084 -0.00231200
v -0.00284926 -0.01046790 0.02342584
v -0.00195143 -0.00294838 -0.00464735
v -0.00180762 -0.00294838 -0.00466619
v -0.00076392 -0.00294838 -0.00470009
v -0.00365464 -0.01007270 -0.00232330
v 0.00249662 -0.00943183 -0.00245137
v 0.00348690 -0.01009406 0.00029079
v 0.00494151 -0.00953009 0.00049419
v 0.00495589 -0.00958991 0.00085956
v 0.00636119 -0.00905585 0.01959135
v 0.00726518 -0.00838080 0.01637459
v 0.00619271 -0.00889777 0.00102529
v 0.00629955 -0.00882728 0.00103659
v 0.00636940 -0.00878028 0.00104789
v 0.00793085 -0.00783393 0.01545175
v 0.00844653 -0.00736823 0.01651019
v 0.00823492 -0.00758186 0.01911674
v 0.00806439 -0.00770789 0.02619437
v 0.00828012 -0.00748359 0.02616800
v 0.00867253 -0.00703285 0.02613033
v 0.00956009 -0.00565711 0.02626217
v 0.00952310 -0.00564002 0.02643920
v 0.00873417 -0.00658424 0.02677444
v 0.00852460 -0.00685981 0.02679327
v 0.00756103 -0.00787025 0.02691380
v 0.00195011 -0.00707343 0.03269945
v 0.00563388 -0.00923957 0.00094996
v 0.00130705 -0.00314918 0.03301209
v 0.00130705 0.00691886 0.03301209
v 0.00070507 0.00709189 0.03318159
v 0.00021815 0.01046499 0.02756921
v 0.00022020 0.01063589 0.02727164
v -0.00079679 0.01062948 0.02738088
v 0.00157003 0.01040732 0.02736958
v -0.00114811 0.01052694 0.02752024
v -0.00135973 0.01048849 0.02755414
v -0.00169256 -0.01082892 0.02736958
v -0.00326017 -0.00736610 0.03135097
v -0.00277325 -0.01045295 0.02551259
v -0.00216716 0.00721579 0.03255632
v -0.00262327 0.00713248 0.03217588
v -0.00306088 0.00702353 0.03166361
v -0.00284926 -0.01044013 0.02521126
v -0.00140493 0.01057394 0.02739218
v -0.00151793 0.01053549 0.02741101
v -0.00448467 -0.00975867 -0.00230447
v -0.00258217 -0.00285652 -0.00457202
v -0.00183227 -0.00155769 -0.00506169
v -0.00345535 -0.01007483 0.02472912
v -0.00425662 -0.00961982 0.02166680
v -0.00153437 -0.00169014 -0.00506169
v -0.00121386 -0.00175850 -0.00506169
v -0.00088513 -0.00175850 -0.00506169
v -0.00056463 -0.00169014 -0.00506169
v -0.00026467 -0.00155769 -0.00506169
v 0.00000037 -0.00136543 -0.00506169
v 0.00100298 -0.00247841 -0.00457202
v 0.00461073 -0.00764381 -0.00249657
v 0.00671867 -0.00822059 0.00044146
v 0.00613108 -0.00864356 0.00036236
v 0.00619682 -0.00882087 0.00067122
v 0.00587632 -0.00909644 0.00098386
v 0.00695905 -0.00834235 0.00111946
v 0.00803357 -0.00766303 0.01199392
v 0.00860473 -0.00715034 0.01292052
v 0.00712752 -0.00820777 0.00114206
v 0.00735763 -0.00800910 0.00116843
v 0.00915123 -0.00655647 0.01304106
v 0.00894989 -0.00681281 0.01689816
v 0.00956830 -0.00565925 0.02608890
v 0.00938545 -0.00628517 0.01565138
v 0.00939367 -0.00627235 0.01575685
v 0.00950461 -0.00612068 0.01577945
v 0.00978403 -0.00572120 0.01577568
v 0.00976965 -0.00572334 0.01633692
v 0.01013946 -0.00415107 0.02649194
v 0.01019494 -0.00414894 0.02613787
v 0.00995456 -0.00416816 0.02680457
v 0.00936901 -0.00556526 0.02675560
v 0.00759801 -0.00556312 0.02863895
v 0.00759596 -0.00564216 0.02858999
v 0.00757952 -0.00671882 0.02782158
v 0.00220282 0.00655570 0.03253372
v 0.00815479 -0.00470649 0.02857868
v 0.00863144 -0.00365120 0.02856739
v 0.00831504 -0.00352943 0.02883859
v 0.00865404 -0.00244637 0.02883105
v 0.00885949 -0.00133125 0.02882729
v 0.00892729 -0.00020119 0.02882352
v 0.00756103 0.00746787 0.02691380
v 0.00755692 0.00765799 0.02670287
v -0.00045368 0.01068716 0.02722267
v 0.00156386 0.01051840 0.02705317
v 0.00021198 0.01069784 0.02692511
v -0.00047217 0.01070639 0.02713604
v -0.00082555 0.01067648 0.02725657
v -0.00118510 0.01061453 0.02736204
v 0.00755281 0.00776267 0.02645803
v -0.00339782 0.00692099 0.03108354
v -0.00339782 -0.00732124 0.03108354
v -0.00418060 -0.00955359 0.02406618
v -0.00167407 0.01042441 0.02741478
v -0.00169256 0.01042654 0.02736958
v -0.00121591 0.01063803 0.02717747
v -0.00144191 0.01059530 0.02721137
v -0.00146657 0.01058889 0.02722644
v -0.00158162 0.01053549 0.02729424
v -0.00164942 0.01047995 0.02733568
v -0.00484216 -0.00951514 -0.00229693
v -0.00310197 -0.00247841 -0.00457202
v -0.00209936 -0.00136543 -0.00506169
v -0.00104950 -0.00020119 -0.00523119
v -0.00411896 -0.00965400 0.02392305
v -0.00522019 -0.00867988 0.02302281
v -0.00587969 -0.00860511 -0.00227433
v -0.00510514 -0.00931220 -0.00229317
v 0.00022020 -0.00112190 -0.00506169
v 0.00615368 -0.00615272 -0.00252670
v 0.00542432 -0.00694312 -0.00251163
v 0.00724874 -0.00777839 0.00051679
v 0.00734325 -0.00793647 0.00081813
v 0.00756719 -0.00781898 0.00119103
v 0.00863349 -0.00696876 0.00865286
v 0.00808904 -0.00729774 0.00125130
v 0.00813013 -0.00726997 0.00171460
v 0.00949023 -0.00614204 0.01353073
v 0.00933203 -0.00635993 0.01498467
v 0.00814246 -0.00724006 0.00125883
v 0.00838695 -0.00696449 0.00128143
v 0.00917384 -0.00632362 0.00834775
v 0.00943887 -0.00609077 0.01035917
v 0.00950256 -0.00603309 0.01086391
v 0.01049901 -0.00448005 0.01606948
v 0.01107633 -0.00311928 0.01605442
v 0.00950256 -0.00612708 0.01364750
v 0.00974088 -0.00570838 0.01105601
v 0.01048257 -0.00446296 0.01103341
v 0.01056064 -0.00235451 0.02658234
v 0.01039012 -0.00234169 0.02689874
v 0.00997099 -0.00411476 0.02680834
v 0.01061406 -0.00234596 0.02622827
v 0.01087293 -0.00312141 0.01953108
v 0.01146052 -0.00167946 0.01604312
v 0.01123863 -0.00167946 0.01953108
v 0.00885949 0.00092887 0.02882729
v 0.00865404 0.00204399 0.02883105
v 0.00831504 0.00312705 0.02883859
v 0.00863144 0.00324882 0.02856739
v 0.00815479 0.00430411 0.02857868
v 0.00759596 0.00523978 0.02858999
v 0.00757952 0.00631644 0.02782158
v 0.00898071 -0.00252968 0.02855985
v 0.00919438 -0.00137398 0.02855608
v 0.00926629 -0.00020119 0.02855232
v 0.00852460 0.00645529 0.02679327
v 0.00864582 0.00657920 0.02647687
v 0.00155975 0.01052908 0.02684600
v 0.00151250 0.01053763 0.02684600
v 0.00546952 0.00910422 0.02248794
v 0.00476276 0.00942465 0.02250300
v 0.00020993 0.01069784 0.02687237
v -0.00049272 0.01070852 0.02704941
v 0.00867048 0.00661338 0.02630360
v 0.00833764 0.00701712 0.02616423
v 0.00785483 0.00750846 0.02622450
v 0.00780141 0.00755759 0.02623203
v 0.00773567 0.00761740 0.02623957
v 0.00757952 0.00775626 0.02626217
v 0.00754870 0.00778189 0.02626593
v -0.00430387 0.00655570 0.02913992
v -0.00615089 0.00529746 0.02518112
v -0.00345535 0.00967245 0.02472912
v -0.00418060 0.00915121 0.02406618
v -0.00461205 0.00879660 0.02368574
v -0.00563520 0.00777121 0.02289474
v -0.00615089 -0.00569770 0.02518112
v -0.00527361 -0.00639625 0.02706071
v -0.00436756 -0.00692390 0.02900056
v -0.00525101 -0.00859016 0.02317724
v -0.00277325 0.01005057 0.02551259
v -0.00201513 0.01017233 0.00091229
v -0.00286981 0.01001852 -0.00083169
v -0.00296637 0.00999716 -0.00077142
v -0.00214456 0.01033468 0.02637140
v -0.00345329 0.00985190 -0.00147956
v -0.00353137 -0.00200203 -0.00457202
v -0.00231714 -0.00112190 -0.00506169
v -0.00248150 -0.00083779 -0.00506169
v -0.00258423 -0.00052590 -0.00506169
v -0.00261710 -0.00020119 -0.00506169
v -0.00258423 0.00012565 -0.00506169
v -0.00248150 0.00043754 -0.00506169
v -0.00231714 0.00072166 -0.00506169
v -0.00209936 0.00096519 -0.00506169
v -0.00183227 0.00115745 -0.00506169
v -0.00153437 0.00128990 -0.00506169
v -0.00121386 0.00135826 -0.00506169
v -0.00088513 0.00135826 -0.00506169
v -0.00056463 0.00128990 -0.00506169
v -0.00026467 0.00115745 -0.00506169
v 0.00000037 0.00096519 -0.00506169
v 0.00022020 0.00072166 -0.00506169
v 0.00038456 0.00043754 -0.00506169
v 0.00048524 0.00012565 -0.00506169
v 0.00052016 -0.00020119 -0.00506169
v 0.00048524 -0.00052590 -0.00506169
v 0.00038456 -0.00083779 -0.00506169
v -0.00625978 -0.00747077 0.02229960
v -0.00660700 -0.00778266 -0.00225927
v 0.00731654 -0.00435188 -0.00255307
v 0.00678647 -0.00528541 -0.00254177
v 0.00823492 -0.00676368 0.00064486
v 0.00835408 -0.00689826 0.00094243
v 0.00954776 -0.00598823 0.01124058
v 0.00965254 -0.00584510 0.01126694
v 0.00867253 -0.00661201 0.00131156
v 0.00968130 -0.00571052 0.00958323
v 0.01106400 -0.00310646 0.01101458
v 0.00965870 -0.00571052 0.00908603
v 0.00925396 -0.00578102 0.00136806
v 0.01019904 -0.00446937 0.00551896
v 0.01072706 -0.00020119 0.02663130
v 0.01049284 -0.00153633 0.02692887
v 0.01077637 -0.00020119 0.02628100
v 0.01141533 -0.00020119 0.01905647
v 0.01137423 -0.00020119 0.01953108
v 0.01144409 -0.00167091 0.01099951
v 0.01163516 -0.00020119 0.01479634
v 0.00919438 0.00097160 0.02855608
v 0.00898071 0.00212730 0.02855985
v 0.01000797 0.00359916 0.02681587
v 0.00995456 0.00376578 0.02680457
v 0.00936901 0.00516288 0.02675560
v 0.00873417 0.00618186 0.02677444
v 0.01055653 -0.00020119 0.02694771
v 0.00952105 0.00523764 0.02644297
v 0.00956009 0.00525473 0.02626217
v 0.00346841 0.00989676 0.02252937
v 0.00343965 0.00976858 0.00064862
v 0.00263633 0.00993948 0.00230220
v 0.00231377 0.01000143 0.00262614
v 0.00174877 0.01009756 0.00303294
v 0.00164193 0.01011252 0.00309321
v 0.00556197 0.00905722 0.02248794
v 0.00599959 0.00886282 0.02144833
v 0.00566059 0.00904013 0.01983618
v 0.00432104 0.00960409 0.01959135
v 0.00118583 0.01016806 0.00342468
v 0.00037429 0.01022574 0.00438142
v 0.00011337 0.01023642 0.00444922
v -0.00143164 0.01022146 0.00194437
v 0.00867253 0.00662833 0.02613033
v 0.00886771 0.00650016 0.01750836
v 0.00851844 0.00688040 0.01890204
v 0.00806850 0.00734610 0.01848394
v 0.00781785 0.00754263 0.02622827
v 0.00744803 0.00789725 0.01961018
v 0.00686044 0.00833731 0.01986255
v 0.00651938 0.00854025 0.02188526
v 0.00612286 0.00875174 0.02258587
v 0.00565237 0.00901022 0.02249547
v -0.00666658 0.00649588 0.02213763
v -0.00666452 0.00645102 0.02222050
v -0.00527361 0.00599601 0.02706071
v -0.00691312 0.00447501 0.02354638
v -0.00284926 0.01006552 0.02342584
v -0.00385598 0.00943960 0.02416412
v -0.00411896 0.00925162 0.02392305
v -0.00265203 0.01013388 0.02544479
v -0.00456685 0.00889273 0.02353884
v -0.00561466 0.00785452 0.02273277
v -0.00691312 -0.00487526 0.02354638
v -0.00666452 -0.00685981 0.02221297
v -0.00627005 -0.00739600 0.02246910
v -0.00202334 0.01016592 0.00059212
v -0.00276914 0.01000998 -0.00089195
v -0.00372655 0.00967673 -0.00231953
v -0.00396487 0.00964041 -0.00231577
v -0.00411485 0.00957846 -0.00231200
v -0.00385187 -0.00144661 -0.00457202
v -0.00674465 -0.00760749 -0.00225927
v -0.00749661 -0.00651801 -0.00224420
v -0.00404911 -0.00083779 -0.00457202
v -0.00411691 -0.00020119 -0.00457202
v -0.00404911 0.00043754 -0.00457202
v -0.00385187 0.00104637 -0.00457202
v -0.00353137 0.00160179 -0.00457202
v -0.00310197 0.00207816 -0.00457202
v -0.00258217 0.00245628 -0.00457202
v -0.00231098 0.00254813 -0.00459085
v -0.00195143 0.00254813 -0.00464735
v -0.00180351 0.00254813 -0.00466619
v -0.00075981 0.00254813 -0.00470009
v 0.00249662 0.00902945 -0.00245137
v 0.00100298 0.00207816 -0.00457202
v 0.00615368 0.00575034 -0.00252670
v 0.00678647 0.00488303 -0.00254177
v 0.00731654 0.00394950 -0.00255307
v 0.00773772 0.00296043 -0.00256060
v 0.00803974 0.00192863 -0.00256814
v 0.00822464 0.00087120 -0.00257190
v 0.00828628 -0.00020119 -0.00257190
v 0.00822464 -0.00127358 -0.00257190
v 0.00803974 -0.00233101 -0.00256814
v 0.00773772 -0.00336281 -0.00256060
v -0.00666658 -0.00690467 0.02211503
v -0.00666863 -0.00691108 0.02204347
v 0.00973472 -0.00435615 0.00082566
v 0.00906700 -0.00561439 0.00074656
v 0.00854309 -0.00637702 0.00068252
v 0.00920671 -0.00572547 0.00103659
v 0.01075377 -0.00310432 0.00548506
v 0.00994428 -0.00448646 0.00142833
v 0.01061611 0.00192649 0.02623203
v 0.01056475 0.00193290 0.02658610
v 0.01049284 0.00113395 0.02692887
v 0.01146052 0.00127708 0.01604312
v 0.01123863 0.00127708 0.01953108
v 0.01157969 -0.00020119 0.01099198
v 0.01110920 -0.00167091 0.00546246
v 0.01147080 -0.00020119 0.00882989
v 0.01144409 0.00126853 0.01099951
v 0.01039422 0.00192222 0.02689874
v 0.01017644 0.00363334 0.02649947
v 0.01010454 0.00401572 0.02612657
v 0.00956830 0.00525687 0.02608890
v 0.00419160 0.00951224 0.00070889
v 0.00347046 0.00974295 0.00045276
v -0.00202540 0.01014456 0.00041132
v 0.00630160 0.00868552 0.01940678
v 0.00558047 0.00886710 0.00094243
v 0.00492507 0.00920248 0.00081059
v 0.00976965 0.00532096 0.01633692
v 0.00921287 0.00605368 0.01804323
v 0.00943476 0.00582297 0.01437070
v 0.00892318 0.00642539 0.01804323
v 0.00915534 0.00617118 0.01437824
v 0.00913480 0.00619681 0.01427277
v 0.00874238 0.00665183 0.01586608
v 0.00825341 0.00714530 0.01560618
v 0.00775005 0.00756613 0.01463814
v 0.00678853 0.00807456 0.00110063
v 0.00625846 0.00845267 0.00103283
v 0.00617628 0.00850607 0.00102153
v -0.00666863 0.00650870 0.02204347
v -0.00817460 0.00214012 0.02083812
v -0.00789518 0.00286002 0.02143703
v -0.00754386 0.00354789 0.02219037
v -0.00803078 -0.00293983 0.02114699
v -0.00448467 0.00935629 -0.00230447
v -0.00428332 0.00919607 0.02097749
v -0.00565575 0.00842703 -0.00228187
v -0.00527977 0.00826468 0.02090216
v -0.00606255 0.00801260 -0.00227057
v -0.00686587 0.00704276 -0.00225550
v -0.00622280 0.00713889 0.02077786
v -0.00754386 -0.00394813 0.02219037
v -0.00759728 -0.00635139 -0.00224043
v -0.00823213 -0.00515937 -0.00222537
v -0.00869029 -0.00404426 -0.00221783
v -0.00905188 -0.00281593 -0.00221030
v -0.00927788 -0.00151711 -0.00220653
v -0.00935390 -0.00020119 -0.00220277
v -0.00928815 0.00102287 -0.00220653
v -0.00908476 0.00226615 -0.00221030
v -0.00872727 0.00353507 -0.00221783
v -0.00823213 0.00475699 -0.00222537
v -0.00780684 0.00558799 -0.00223667
v -0.00708775 0.00673514 -0.00225173
v -0.00484216 0.00911276 -0.00229693
v 0.00461073 0.00724143 -0.00249657
v 0.00421420 0.00942892 0.00036612
v 0.00493945 0.00911917 0.00047159
v 0.00619682 0.00841849 0.00067122
v 0.00613108 0.00824118 0.00036236
v 0.00671867 0.00781821 0.00044146
v 0.00542432 0.00654074 -0.00251163
v 0.00724874 0.00737601 0.00051679
v 0.00823492 0.00636130 0.00064486
v 0.00854309 0.00597464 0.00068252
v 0.00906700 0.00521201 0.00074656
v 0.00973472 0.00395377 0.00082943
v 0.00984772 0.00369102 0.00084073
v 0.01022781 0.00261436 0.00089346
v 0.01053804 0.00122154 0.00094619
v 0.01064693 -0.00020119 0.00096879
v 0.01055242 -0.00153206 0.00094996
v 0.01053804 -0.00162178 0.00094619
v 0.01022781 -0.00301674 0.00089346
v 0.00984772 -0.00409340 0.00084073
v 0.00988470 -0.00443947 0.00110816
v 0.01045586 -0.00311287 0.00147730
v 0.01022986 0.00362907 0.02614540
v 0.01107633 0.00271690 0.01605442
v 0.01087293 0.00271903 0.01953108
v 0.01106400 0.00270408 0.01101458
v 0.01077637 -0.00167732 0.00151496
v 0.01088937 -0.00020119 0.00153380
v 0.01110920 0.00126853 0.00546246
v 0.01075377 0.00270194 0.00548506
v 0.01049901 0.00407767 0.01606948
v 0.00583112 0.00872183 0.00097633
v 0.00980252 0.00531028 0.01436317
v 0.00974088 0.00530600 0.01105601
v 0.00918822 0.00607718 0.01196002
v 0.00912453 0.00620749 0.01415977
v 0.00907933 0.00625235 0.01369270
v 0.00886976 0.00643393 0.01168505
v 0.00835202 0.00696372 0.01175661
v 0.00734530 0.00761954 0.00116466
v 0.00703713 0.00787802 0.00113076
v 0.00734325 0.00753409 0.00081813
v -0.00828144 0.00178337 0.02058575
v -0.00817460 -0.00254036 0.02083812
v -0.00842525 -0.00155769 0.02013752
v -0.00852798 -0.00075875 0.01955745
v -0.00854031 -0.00055153 0.01940678
v -0.00854852 -0.00018624 0.01915818
v -0.00848072 0.00080711 0.01988515
v -0.00836156 0.00146720 0.02035975
v 0.00835408 0.00649588 0.00094243
v 0.00920671 0.00532309 0.00103659
v 0.00988676 0.00403709 0.00110816
v 0.01038601 0.00267417 0.00116466
v 0.01070240 0.00125358 0.00120986
v 0.01081129 -0.00020119 0.00123246
v 0.01070240 -0.00165596 0.00121363
v 0.01038601 -0.00307655 0.00116466
v 0.01048257 0.00406058 0.01103341
v 0.01019904 0.00406699 0.00551896
v 0.01077637 0.00127494 0.00151496
v 0.01045586 0.00271049 0.00147730
v 0.00994634 0.00408408 0.00142833
v 0.00968747 0.00530600 0.00972637
v 0.00946558 0.00560721 0.00955310
v 0.00921287 0.00593833 0.00956063
v 0.00917178 0.00597892 0.00933086
v 0.00838695 0.00656211 0.00128143
v 0.00797810 0.00701285 0.00124000
v 0.00788565 0.00710684 0.00122870
v 0.00884922 0.00597464 0.00133040
v 0.00906700 0.00566489 0.00135300
v 0.00912042 0.00558799 0.00135676
v 0.00925396 0.00537864 0.00136806
v 0.00915329 0.00553672 0.00136053
f 1 2 3
f 1 3 4
f 1 4 5
f 1 5 6
f 1 6 7
f 1 7 2
f 2 8 3
f 2 7 9
f 2 9 10
f 2 10 11
f 2 11 12
f 2 12 8
f 3 13 14
f 3 14 15
f 3 15 4
f 3 8 13
f 4 15 16
f 4 16 5
f 5 16 17
f 5 17 18
f 5 18 19
f 5 19 6
f 6 19 20
f 6 20 21
f 6 21 12
f 6 12 11
f 6 11 7
f 7 11 10
f 7 10 9
f 8 22 13
f 8 12 23
f 8 23 24
f 8 24 22
f 12 21 23
f 13 25 26
f 13 26 27
f 13 27 14
f 13 22 28
f 13 28 29
f 13 29 25
f 14 30 15
f 14 27 31
f 14 31 32
f 14 32 33
f 14 33 30
f 15 30 16
f 16 30 34
f 16 34 17
f 17 35 36
f 17 36 37
f 17 37 18
f 17 34 38
f 17 38 39
f 17 39 40
f 17 40 35
f 18 37 41
f 18 41 19
f 19 41 42
f 19 42 43
f 19 43 44
f 19 44 20
f 20 45 21
f 20 44 45
f 21 24 23
f 21 45 46
f 21 46 47
f 21 47 48
f 21 48 22
f 21 22 24
f 22 48 28
f 25 49 26
f 25 29 50
f 25 50 51
f 25 51 52
f 25 52 53
f 25 53 54
f 25 54 55
f 25 55 49
f 26 49 56
f 26 56 57
f 26 57 58
f 26 58 59
f 26 59 60
f 26 60 61
f 26 61 31
f 26 31 27
f 28 48 47
f 28 47 62
f 28 62 29
f 29 62 52
f 29 52 50
f 30 33 34
f 31 61 63
f 31 63 64
f 31 64 33
f 31 33 32
f 33 64 65
f 33 65 66
f 33 66 67
f 33 67 39
f 33 39 34
f 34 39 38
f 35 68 69
f 35 69 36
f 35 40 70
f 35 70 71
f 35 71 68
f 36 69 72
f 36 72 73
f 36 73 37
f 37 73 42
f 37 42 41
f 39 67 74
f 39 74 40
f 40 74 70
f 42 75 43
f 42 73 76
f 42 76 75
f 43 75 77
f 43 77 78
f 43 78 79
f 43 79 80
f 43 80 44
f 44 80 81
f 44 81 45
f 45 82 83
f 45 83 46
f 45 81 82
f 46 83 84
f 46 84 62
f 46 62 47
f 49 55 56
f 50 52 51
f 52 62 85
f 52 85 53
f 53 85 54
f 54 86 55
f 54 85 87
f 54 87 88
f 54 88 89
f 54 89 86
f 55 86 90
f 55 90 91
f 55 91 92
f 55 92 56
f 56 92 57
f 57 92 93
f 57 93 58
f 58 93 92
f 58 92 94
f 58 94 59
f 59 94 95
f 59 95 96
f 59 96 97
f 59 97 60
f 60 97 98
f 60 98 99
f 60 99 61
f 61 99 100
f 61 100 101
f 61 101 63
f 62 84 102
f 62 102 85
f 63 101 103
f 63 103 104
f 63 104 105
f 63 105 64
f 64 105 65
f 65 106 107
f 65 107 108
f 65 108 67
f 65 67 66
f 65 105 109
f 65 109 106
f 67 108 110
f 67 110 111
f 67 111 74
f 68 112 69
f 68 71 113
f 68 113 112
f 69 112 114
f 69 114 72
f 70 74 115
f 70 115 71
f 71 115 116
f 71 116 117
f 71 117 113
f 72 114 118
f 72 118 76
f 72 76 73
f 74 111 119
f 74 119 120
f 74 120 115
f 75 121 122
f 75 122 123
f 75 123 77
f 75 76 121
f 76 118 124
f 76 124 125
f 76 125 121
f 77 123 78
f 78 123 126
f 78 126 127
f 78 127 79
f 79 127 128
f 79 128 129
f 79 129 81
f 79 81 80
f 81 129 130
f 81 130 131
f 81 131 132
f 81 132 133
f 81 133 134
f 81 134 135
f 81 135 136
f 81 136 83
f 81 83 82
f 83 136 102
f 83 102 84
f 85 102 137
f 85 137 87
f 86 89 138
f 86 138 90
f 87 137 136
f 87 136 88
f 88 136 89
f 89 136 138
f 90 139 140
f 90 140 91
f 90 138 141
f 90 141 142
f 90 142 139
f 91 140 143
f 91 143 144
f 91 144 94
f 91 94 92
f 94 144 95
f 95 145 96
f 95 144 146
f 95 146 147
f 95 147 148
f 95 148 149
f 95 149 150
f 95 150 145
f 96 151 97
f 96 145 152
f 96 152 151
f 97 151 153
f 97 153 154
f 97 154 98
f 98 154 155
f 98 155 156
f 98 156 99
f 99 156 157
f 99 157 100
f 100 157 101
f 101 158 104
f 101 104 103
f 101 157 156
f 101 156 155
f 101 155 159
f 101 159 160
f 101 160 161
f 101 161 162
f 101 162 163
f 101 163 164
f 101 164 158
f 102 136 137
f 104 158 165
f 104 165 166
f 104 166 109
f 104 109 105
f 106 109 107
f 107 167 108
f 107 109 168
f 107 168 169
f 107 169 170
f 107 170 167
f 108 167 171
f 108 171 172
f 108 172 110
f 109 166 173
f 109 173 168
f 110 172 111
f 111 172 119
f 112 124 114
f 112 113 124
f 113 117 174
f 113 174 175
f 113 175 176
f 113 176 124
f 114 124 118
f 115 120 116
f 116 120 177
f 116 177 117
f 117 177 178
f 117 178 174
f 119 172 179
f 119 179 180
f 119 180 181
f 119 181 120
f 120 181 182
f 120 182 183
f 120 183 177
f 121 184 185
f 121 185 122
f 121 125 184
f 122 185 186
f 122 186 123
f 123 186 187
f 123 187 126
f 124 176 188
f 124 188 125
f 125 188 189
f 125 189 190
f 125 190 191
f 125 191 184
f 126 187 127
f 127 187 128
f 128 187 129
f 129 187 130
f 130 187 131
f 131 187 192
f 131 192 193
f 131 193 132
f 132 193 194
f 132 194 133
f 133 194 134
f 134 195 196
f 134 196 136
f 134 136 135
f 134 194 195
f 136 196 138
f 138 196 141
f 139 142 197
f 139 197 140
f 140 198 143
f 140 197 199
f 140 199 200
f 140 200 198
f 141 196 142
f 142 196 197
f 143 201 202
f 143 202 144
f 143 198 203
f 143 203 204
f 143 204 205
f 143 205 206
f 143 206 207
f 143 207 201
f 144 202 146
f 145 150 208
f 145 208 209
f 145 209 152
f 146 202 148
f 146 148 147
f 148 202 210
f 148 210 149
f 149 208 150
f 149 210 211
f 149 211 212
f 149 212 208
f 151 152 213
f 151 213 214
f 151 214 215
f 151 215 153
f 152 216 213
f 152 209 217
f 152 217 218
f 152 218 219
f 152 219 216
f 153 215 160
f 153 160 159
f 153 159 154
f 154 159 155
f 158 164 220
f 158 220 221
f 158 221 222
f 158 222 223
f 158 223 224
f 158 224 225
f 158 225 226
f 158 226 165
f 160 227 162
f 160 162 161
f 160 215 227
f 162 227 228
f 162 228 163
f 163 228 229
f 163 229 164
f 164 229 220
f 165 230 166
f 165 226 230
f 166 231 173
f 166 230 231
f 167 170 171
f 168 232 233
f 168 233 169
f 168 173 234
f 168 234 235
f 168 235 232
f 169 236 237
f 169 237 170
f 169 233 236
f 170 237 171
f 171 237 179
f 171 179 172
f 173 231 238
f 173 238 239
f 173 239 240
f 173 240 241
f 173 241 242
f 173 242 243
f 173 243 244
f 173 244 234
f 174 245 246
f 174 246 251
f 174 251 175
f 174 178 247
f 174 247 248
f 174 248 249
f 174 249 250
f 174 250 245
f 175 251 252
f 175 252 253
f 175 253 254
f 175 254 176
f 176 254 189
f 176 189 188
f 177 183 178
f 178 183 255
f 178 255 247
f 179 237 256
f 179 256 257
f 179 257 180
f 180 257 258
f 180 258 181
f 181 259 182
f 181 258 260
f 181 260 259
f 182 259 183
f 183 259 255
f 184 191 185
f 185 261 186
f 185 191 190
f 185 190 261
f 186 261 262
f 186 262 187
f 187 262 263
f 187 263 264
f 187 264 265
f 187 265 266
f 187 266 267
f 187 267 268
f 187 268 269
f 187 269 270
f 187 270 271
f 187 271 272
f 187 272 273
f 187 273 274
f 187 274 275
f 187 275 276
f 187 276 277
f 187 277 278
f 187 278 279
f 187 279 280
f 187 280 281
f 187 281 282
f 187 282 192
f 189 254 283
f 189 283 284
f 189 284 190
f 190 284 261
f 192 282 285
f 192 285 286
f 192 286 193
f 193 286 287
f 193 287 195
f 193 195 194
f 195 287 288
f 195 288 196
f 196 288 199
f 196 199 197
f 198 200 203
f 199 203 200
f 199 288 203
f 201 210 202
f 201 207 289
f 201 289 290
f 201 290 210
f 203 288 204
f 204 288 291
f 204 291 206
f 204 206 205
f 206 291 207
f 207 291 292
f 207 292 290
f 207 290 289
f 208 212 293
f 208 293 209
f 209 293 218
f 209 218 217
f 210 290 211
f 211 292 212
f 211 290 292
f 212 292 294
f 212 294 295
f 212 295 296
f 212 296 293
f 213 216 297
f 213 297 298
f 213 298 214
f 214 298 228
f 214 228 227
f 214 227 215
f 216 299 297
f 216 219 300
f 216 300 301
f 216 301 299
f 218 300 219
f 218 293 302
f 218 302 303
f 218 303 300
f 220 229 304
f 220 304 221
f 221 304 305
f 221 305 223
f 221 223 222
f 223 305 306
f 223 306 307
f 223 307 224
f 224 307 308
f 224 308 225
f 225 308 309
f 225 309 230
f 225 230 226
f 228 298 310
f 228 310 229
f 229 310 304
f 230 309 231
f 231 311 312
f 231 312 238
f 231 309 311
f 232 235 313
f 232 313 314
f 232 314 233
f 233 314 315
f 233 315 316
f 233 316 317
f 233 317 318
f 233 318 236
f 234 319 320
f 234 320 321
f 234 321 235
f 234 244 319
f 235 321 322
f 235 322 313
f 236 318 323
f 236 323 324
f 236 324 325
f 236 325 326
f 236 326 237
f 237 326 256
f 238 312 327
f 238 327 239
f 239 327 328
f 239 328 329
f 239 329 330
f 239 330 240
f 240 331 241
f 240 330 331
f 241 331 330
f 241 330 242
f 242 330 332
f 242 332 243
f 243 332 244
f 244 332 333
f 244 333 334
f 244 334 335
f 244 335 336
f 244 336 319
f 245 250 337
f 245 337 338
f 245 338 339
f 245 339 246
f 246 340 347
f 246 347 251
f 246 339 338
f 246 338 340
f 247 341 342
f 247 342 343
f 247 343 248
f 247 255 344
f 247 344 341
f 248 343 345
f 248 345 249
f 249 345 346
f 249 346 250
f 250 346 337
f 251 347 348
f 251 348 252
f 252 348 253
f 253 348 349
f 253 349 254
f 254 349 283
f 255 259 344
f 256 326 350
f 256 350 257
f 257 351 352
f 257 352 260
f 257 260 258
f 257 350 351
f 259 260 341
f 259 341 344
f 260 352 353
f 260 353 354
f 260 354 341
f 261 355 263
f 261 263 262
f 261 284 356
f 261 356 357
f 261 357 355
f 263 355 264
f 264 355 358
f 264 358 359
f 264 359 265
f 265 359 266
f 266 359 360
f 266 360 361
f 266 361 267
f 267 361 362
f 267 362 268
f 268 362 269
f 269 362 363
f 269 363 364
f 269 364 270
f 270 364 365
f 270 365 354
f 270 354 366
f 270 366 271
f 271 366 367
f 271 367 272
f 272 367 368
f 272 368 273
f 273 368 274
f 274 368 369
f 274 369 275
f 275 369 276
f 276 370 371
f 276 371 277
f 276 369 370
f 277 371 372
f 277 372 373
f 277 373 278
f 278 373 374
f 278 374 279
f 279 374 375
f 279 375 376
f 279 376 280
f 280 376 377
f 280 377 378
f 280 378 281
f 281 378 379
f 281 379 380
f 281 380 282
f 282 380 285
f 283 349 381
f 283 381 382
f 283 382 356
f 283 356 284
f 285 380 383
f 285 383 384
f 285 384 286
f 286 384 385
f 286 385 287
f 287 385 288
f 288 385 386
f 288 386 291
f 291 386 295
f 291 295 294
f 291 294 292
f 293 296 387
f 293 387 302
f 295 386 388
f 295 388 296
f 296 388 387
f 297 299 389
f 297 389 390
f 297 390 391
f 297 391 310
f 297 310 298
f 299 301 389
f 300 303 392
f 300 392 393
f 300 393 389
f 300 389 301
f 302 394 303
f 302 387 395
f 302 395 396
f 302 396 394
f 303 394 397
f 303 397 392
f 304 310 391
f 304 391 398
f 304 398 305
f 305 398 306
f 306 398 399
f 306 399 307
f 307 399 311
f 307 311 308
f 308 311 309
f 311 399 312
f 312 399 400
f 312 400 401
f 312 401 327
f 313 322 314
f 314 402 403
f 314 403 404
f 314 404 350
f 314 350 318
f 314 318 317
f 314 317 316
f 314 316 315
f 314 322 402
f 318 350 323
f 319 336 320
f 320 336 335
f 320 335 334
f 320 334 405
f 320 405 321
f 321 405 406
f 321 406 407
f 321 407 402
f 321 402 322
f 323 350 326
f 323 326 324
f 324 326 325
f 327 401 408
f 327 408 409
f 327 409 410
f 327 410 411
f 327 411 328
f 328 411 410
f 328 410 412
f 328 412 413
f 328 413 414
f 328 414 329
f 329 414 330
f 330 414 415
f 330 415 416
f 330 416 332
f 332 416 417
f 332 417 333
f 333 405 334
f 333 417 418
f 333 418 419
f 333 419 405
f 337 420 421
f 337 421 422
f 337 422 338
f 337 346 420
f 338 422 423
f 338 423 340
f 340 423 422
f 340 422 421
f 340 421 424
f 340 424 347
f 341 354 425
f 341 425 342
f 342 425 426
f 342 426 343
f 343 426 345
f 345 426 427
f 345 427 428
f 345 428 346
f 346 428 429
f 346 429 430
f 346 430 431
f 346 431 420
f 347 424 432
f 347 432 348
f 348 432 424
f 348 424 381
f 348 381 349
f 350 404 351
f 351 404 403
f 351 403 369
f 351 369 352
f 352 369 368
f 352 368 367
f 352 367 353
f 353 367 366
f 353 366 354
f 354 365 364
f 354 364 425
f 355 357 433
f 355 433 434
f 355 434 435
f 355 435 358
f 356 382 357
f 357 382 433
f 358 435 436
f 358 436 437
f 358 437 359
f 359 437 438
f 359 438 439
f 359 439 360
f 360 439 440
f 360 440 441
f 360 441 361
f 361 441 442
f 361 442 443
f 361 443 362
f 362 443 444
f 362 444 430
f 362 430 429
f 362 429 427
f 362 427 363
f 363 427 445
f 363 445 425
f 363 425 364
f 369 446 370
f 369 403 447
f 369 447 448
f 369 448 449
f 369 449 450
f 369 450 451
f 369 451 446
f 370 446 452
f 370 452 371
f 371 452 453
f 371 453 454
f 371 454 372
f 372 454 455
f 372 455 456
f 372 456 373
f 373 456 457
f 373 457 374
f 374 457 458
f 374 458 459
f 374 459 375
f 375 459 460
f 375 460 376
f 376 460 461
f 376 461 377
f 377 461 378
f 378 461 462
f 378 462 463
f 378 463 379
f 379 463 464
f 379 464 380
f 380 464 465
f 380 465 383
f 381 424 382
f 382 424 435
f 382 435 434
f 382 434 433
f 383 465 466
f 383 466 384
f 384 466 386
f 384 386 385
f 386 466 388
f 387 388 467
f 387 467 395
f 388 466 467
f 389 468 390
f 389 393 468
f 390 468 399
f 390 399 398
f 390 398 391
f 392 469 470
f 392 470 468
f 392 468 393
f 392 397 471
f 392 471 469
f 394 396 397
f 395 467 472
f 395 472 473
f 395 473 396
f 396 473 474
f 396 474 397
f 397 474 475
f 397 475 471
f 399 468 400
f 400 468 469
f 400 469 476
f 400 476 401
f 401 476 408
f 402 407 447
f 402 447 403
f 405 419 477
f 405 477 406
f 406 477 449
f 406 449 448
f 406 448 407
f 407 448 447
f 408 476 478
f 408 478 410
f 408 410 409
f 410 478 479
f 410 479 480
f 410 480 481
f 410 481 413
f 410 413 412
f 413 481 414
f 414 481 482
f 414 482 483
f 414 483 415
f 415 483 484
f 415 484 485
f 415 485 416
f 416 485 486
f 416 486 417
f 417 486 487
f 417 487 449
f 417 449 418
f 418 449 419
f 419 449 477
f 420 431 430
f 420 430 444
f 420 444 443
f 420 443 442
f 420 442 441
f 420 441 421
f 421 488 489
f 421 489 424
f 421 441 440
f 421 440 488
f 424 489 435
f 425 445 426
f 426 445 427
f 427 429 428
f 435 489 436
f 436 489 490
f 436 490 437
f 437 490 491
f 437 491 438
f 438 491 492
f 438 492 493
f 438 493 494
f 438 494 439
f 439 494 495
f 439 495 440
f 440 495 488
f 446 451 452
f 449 487 451
f 449 451 450
f 451 487 453
f 451 453 452
f 453 487 496
f 453 496 454
f 454 496 455
f 455 496 497
f 455 497 456
f 456 497 498
f 456 498 457
f 457 498 458
f 458 498 499
f 458 499 459
f 459 499 500
f 459 500 460
f 460 500 461
f 461 500 501
f 461 501 462
f 462 501 502
f 462 502 463
f 463 502 464
f 464 502 503
f 464 503 465
f 465 503 466
f 466 503 467
f 467 503 472
f 468 470 469
f 469 471 476
f 471 504 476
f 471 475 505
f 471 505 504
f 472 503 502
f 472 502 473
f 473 502 501
f 473 501 500
f 473 500 506
f 473 506 474
f 474 506 507
f 474 507 475
f 475 507 508
f 475 508 505
f 476 504 478
f 478 504 479
f 479 504 509
f 479 509 510
f 479 510 480
f 480 483 482
f 480 482 481
f 480 510 511
f 480 511 512
f 480 512 513
f 480 513 483
f 483 513 514
f 483 514 515
f 483 515 484
f 484 515 485
f 485 515 487
f 485 487 486
f 487 515 514
f 487 514 496
f 488 495 489
f 489 495 490
f 490 495 494
f 490 494 491
f 491 494 492
f 492 494 493
f 496 514 513
f 496 513 516
f 496 516 497
f 497 516 517
f 497 517 518
f 497 518 519
f 497 519 508
f 497 508 498
f 498 508 507
f 498 507 499
f 499 507 506
f 499 506 500
f 504 505 519
f 504 519 509
f 505 508 519
f 509 519 520
f 509 520 518
f 509 518 517
f 509 517 516
f 509 516 510
f 510 516 511
f 511 516 512
f 512 516 513
f 518 520 519

