# https://github.com/mikedh/trimesh
v -0.00324018 -0.00848609 -0.02715610
v -0.00324018 -0.00847281 -0.02668279
v -0.00357926 -0.00838483 -0.02749324
v -0.00324018 -0.00845953 -0.02749324
v -0.00357926 -0.00836158 -0.02668279
v -0.00324018 -0.00841969 -0.02505864
v -0.00357926 -0.00831178 -0.02505864
v -0.00402905 -0.00813581 -0.02505864
v -0.00407948 -0.00816071 -0.02668279
v -0.00410325 -0.00817233 -0.02749324
v -0.00411426 -0.00817565 -0.02830694
v -0.00407079 -0.00815241 -0.02876404
v -0.00324018 -0.00837985 -0.02800221
v -0.00398674 -0.00811589 -0.02381702
v -0.00324018 -0.00839147 -0.02424818
v -0.00357926 -0.00828522 -0.02424818
v -0.00443480 -0.00792663 -0.02505864
v -0.00448522 -0.00795153 -0.02668279
v -0.00450899 -0.00796150 -0.02749324
v -0.00452000 -0.00797312 -0.02830694
v -0.00560101 -0.00729745 -0.02911740
v -0.00506543 -0.00736551 -0.02956801
v -0.00383604 -0.00815241 -0.02876404
v -0.00324018 -0.00827194 -0.02826804
v -0.00364592 -0.00823209 -0.02350256
v -0.00392762 -0.00809265 -0.02262403
v -0.00439074 -0.00773406 -0.01937897
v -0.00439074 -0.00776892 -0.02019267
v -0.00439074 -0.00780212 -0.02100312
v -0.00439074 -0.00786355 -0.02262403
v -0.00440755 -0.00791335 -0.02424818
v -0.00324018 -0.00832838 -0.02262403
v -0.00347840 -0.00822545 -0.02181358
v -0.00352188 -0.00824372 -0.02262403
v -0.00503298 -0.00746512 -0.02181358
v -0.00505500 -0.00748006 -0.02262403
v -0.00486894 -0.00735721 -0.01613391
v -0.00509500 -0.00750828 -0.02424818
v -0.00513325 -0.00753318 -0.02587234
v -0.00515064 -0.00754480 -0.02668279
v -0.00516745 -0.00755643 -0.02749324
v -0.00518310 -0.00756639 -0.02830694
v -0.00601371 -0.00692558 -0.02911740
v -0.00644496 -0.00651885 -0.02962312
v -0.00601371 -0.00671474 -0.02975279
v -0.00558884 -0.00728749 -0.02830694
v -0.00471882 -0.00736551 -0.02956801
v -0.00665073 -0.00586310 -0.03041088
v -0.00324018 -0.00770252 -0.02865382
v -0.00324018 -0.00776062 -0.02861491
v -0.00388415 -0.00807604 -0.02181358
v -0.00480170 -0.00730741 -0.01404294
v -0.00481909 -0.00731903 -0.01451300
v -0.00484575 -0.00733895 -0.01532345
v -0.00324018 -0.00826198 -0.02100312
v -0.00343319 -0.00820719 -0.02100312
v -0.00383893 -0.00805944 -0.02100312
v -0.00653074 -0.00578342 -0.00477457
v -0.00552045 -0.00723602 -0.02505864
v -0.00651567 -0.00576017 -0.00396412
v -0.00553899 -0.00725096 -0.02587234
v -0.00555638 -0.00726424 -0.02668279
v -0.00557319 -0.00727587 -0.02749324
v -0.00645133 -0.00652549 -0.02911740
v -0.00719036 -0.00564895 -0.02992785
v -0.00672724 -0.00611378 -0.02990840
v -0.00627107 -0.00586310 -0.03041088
v -0.00619803 -0.00527376 -0.03044978
v -0.00467766 -0.00689736 -0.02959394
v -0.00739903 -0.00511937 -0.03051786
v -0.00812937 -0.00342604 -0.03120189
v -0.00324018 -0.00689736 -0.02866354
v -0.00427192 -0.00689736 -0.02934757
v -0.00363954 -0.00689736 -0.02893910
v -0.00439074 -0.00755145 -0.01532345
v -0.00439074 -0.00750994 -0.01451300
v -0.00445508 -0.00743690 -0.01374469
v -0.00476866 -0.00728915 -0.01350155
v -0.00324018 -0.00822711 -0.02019267
v -0.00338219 -0.00818727 -0.02019267
v -0.00378793 -0.00804284 -0.02019267
v -0.00723615 -0.00487699 -0.00269657
v -0.00720311 -0.00564231 -0.02911740
v -0.00682983 -0.00608556 -0.02911740
v -0.00647336 -0.00572033 -0.00343246
v -0.00472403 -0.00726756 -0.01289209
v -0.00465969 -0.00723934 -0.01207839
v -0.00458840 -0.00720946 -0.01126794
v -0.00450667 -0.00717792 -0.01045748
v -0.00410093 -0.00734393 -0.01045748
v -0.00403253 -0.00731903 -0.00988692
v -0.00748192 -0.00524388 -0.02992785
v -0.00790621 -0.00342604 -0.03120189
v -0.00682462 -0.00446196 -0.03074479
v -0.00619861 0.00527465 -0.03044978
v -0.00520223 0.00608479 -0.02990192
v -0.00520223 -0.00608556 -0.02990192
v -0.00783375 -0.00284002 -0.03123755
v -0.00742801 -0.00284002 -0.03105600
v -0.00467824 0.00689659 -0.02959394
v -0.00808763 -0.00414322 -0.03049841
v -0.00822037 -0.00367838 -0.03075776
v -0.00889622 -0.00179580 -0.03120189
v -0.00894896 -0.00121642 -0.03126672
v -0.00825225 -0.00284002 -0.03123755
v -0.00844758 -0.00121642 -0.03136398
v -0.00324018 0.00689659 -0.02866030
v -0.00364128 0.00689659 -0.02893910
v -0.00427250 0.00689659 -0.02934432
v -0.00372707 -0.00802458 -0.01937897
v -0.00357926 -0.00794323 -0.01694436
v -0.00357926 -0.00780378 -0.01451300
v -0.00431829 -0.00743856 -0.01289209
v -0.00324018 -0.00814577 -0.01856852
v -0.00332132 -0.00816403 -0.01937897
v -0.00711501 -0.00483217 -0.00215518
v -0.00743091 -0.00452172 -0.00239184
v -0.00748482 -0.00446196 -0.00315366
v -0.00788244 -0.00458647 -0.02911740
v -0.00747670 -0.00523558 -0.02911740
v -0.00394443 -0.00729247 -0.00934554
v -0.00383720 -0.00726424 -0.00883333
v -0.00356651 -0.00723104 -0.00795804
v -0.00357926 -0.00712645 -0.00720918
v -0.00357926 -0.00700361 -0.00639872
v -0.00357926 -0.00686914 -0.00558827
v -0.00403369 -0.00651387 -0.00426885
v -0.00376010 -0.00645078 -0.00372747
v -0.00352535 -0.00635948 -0.00321526
v -0.00357926 -0.00609386 -0.00233997
v -0.00410730 -0.00574689 -0.00175968
v -0.00376242 -0.00563899 -0.00121830
v -0.00425395 -0.00740701 -0.01207839
v -0.00418266 -0.00737547 -0.01126794
v -0.00357926 -0.00775232 -0.01370254
v -0.00357926 -0.00769256 -0.01289209
v -0.00357926 -0.00762615 -0.01207839
v -0.00357926 -0.00749334 -0.01045748
v -0.00363606 -0.00740369 -0.00962758
v -0.00788766 -0.00459311 -0.02992785
v -0.00627165 0.00586566 -0.03041088
v -0.00471824 0.00736475 -0.02956801
v -0.00742975 0.00283925 -0.03105600
v -0.00783549 0.00283925 -0.03123755
v -0.00682462 0.00446285 -0.03074479
v -0.00844758 -0.00040462 -0.03140936
v -0.00782912 -0.00202822 -0.03124403
v -0.00782796 -0.00040462 -0.03124403
v -0.00782796 0.00040552 -0.03124403
v -0.00324018 0.00762538 -0.02865706
v -0.00811082 -0.00418804 -0.02992785
v -0.00835716 -0.00365016 -0.02992785
v -0.00878435 -0.00231210 -0.03074155
v -0.00892056 -0.00190537 -0.03074155
v -0.00904866 -0.00121642 -0.03074155
v -0.00899070 -0.00040462 -0.03131211
v -0.00913155 -0.00040462 -0.03074155
v -0.00324018 -0.00811091 -0.01794284
v -0.00325525 -0.00814079 -0.01856852
v -0.00324018 -0.00808434 -0.01749872
v -0.00324018 -0.00804948 -0.01694436
v -0.00657421 -0.00490521 -0.00189260
v -0.00412701 -0.00494339 -0.00022306
v -0.00725180 -0.00407183 -0.00111132
v -0.00736889 -0.00424448 -0.00152951
v -0.00805343 -0.00326667 -0.00110159
v -0.00788244 -0.00369830 -0.00233997
v -0.00808937 -0.00414322 -0.02668279
v -0.00809575 -0.00415650 -0.02749324
v -0.00810792 -0.00418140 -0.02911740
v -0.00343145 -0.00737215 -0.00883333
v -0.00328713 -0.00733231 -0.00818497
v -0.00324018 -0.00732069 -0.00799046
v -0.00324018 -0.00728583 -0.00770842
v -0.00324018 -0.00708163 -0.00641493
v -0.00324018 -0.00720780 -0.00720918
v -0.00324018 -0.00694052 -0.00558827
v -0.00357926 -0.00671640 -0.00477457
v -0.00324018 -0.00650225 -0.00356213
v -0.00324018 -0.00648897 -0.00350702
v -0.00352535 -0.00655371 -0.00398357
v -0.00324018 -0.00638106 -0.00313745
v -0.00324018 -0.00614034 -0.00233997
v -0.00352651 -0.00579836 -0.00150682
v -0.00324018 -0.00569377 -0.00113401
v -0.00324018 -0.00567219 -0.00108862
v -0.00352651 -0.00543977 -0.00079038
v -0.00324018 -0.00784031 -0.01370254
v -0.00324018 -0.00777888 -0.01289209
v -0.00324018 -0.00771248 -0.01207839
v -0.00324018 -0.00757635 -0.01045748
v -0.00324018 -0.00749998 -0.00963730
v -0.00324018 -0.00754480 -0.01011709
v -0.00790737 0.00342860 -0.03120189
v -0.00665478 0.00586566 -0.03041088
v -0.00505906 0.00736475 -0.02956801
v -0.00384879 0.00814832 -0.02876080
v -0.00324018 0.00770839 -0.02863761
v -0.00782854 0.00121566 -0.03124403
v -0.00782970 0.00202746 -0.03124403
v -0.00844758 0.00040552 -0.03141260
v -0.00844758 0.00121566 -0.03136722
v -0.00835252 -0.00365016 -0.02911740
v -0.00867190 -0.00284002 -0.02992785
v -0.00867016 -0.00284002 -0.02911740
v -0.00883130 -0.00233866 -0.02992785
v -0.00892462 -0.00193359 -0.02992785
v -0.00905562 -0.00121642 -0.02992785
v -0.00899186 0.00040552 -0.03131211
v -0.00913908 0.00040552 -0.02992785
v -0.00913271 0.00040552 -0.03074155
v -0.00914372 -0.00040462 -0.02911740
v -0.00357926 -0.00500482 -0.00015174
v -0.00421338 -0.00414488 0.00057119
v -0.00475475 -0.00403863 0.00048042
v -0.00520223 -0.00346755 0.00067168
v -0.00564507 -0.00328825 0.00053877
v -0.00804532 -0.00243993 -0.00031059
v -0.00811430 -0.00276200 -0.00078714
v -0.00833861 -0.00202822 -0.00071906
v -0.00845280 -0.00202822 -0.00152951
v -0.00821689 -0.00284002 -0.00152951
v -0.00805807 -0.00328161 -0.00152951
v -0.00832354 -0.00365016 -0.02668279
v -0.00324018 -0.00741698 -0.00883333
v -0.00324018 -0.00746180 -0.00926449
v -0.00324018 -0.00734061 -0.00816227
v -0.00324018 -0.00678281 -0.00477457
v -0.00324018 -0.00660186 -0.00397709
v -0.00324018 -0.00501146 -0.00014850
v -0.00813110 0.00342860 -0.03120189
v -0.00739961 0.00512192 -0.03051786
v -0.00672956 0.00611633 -0.02990840
v -0.00644438 0.00651808 -0.02962312
v -0.00601371 0.00671232 -0.02975279
v -0.00559406 0.00729502 -0.02911740
v -0.00406383 0.00814832 -0.02876080
v -0.00357868 0.00824793 -0.02835557
v -0.00324018 0.00825457 -0.02824535
v -0.00895186 0.00121566 -0.03126996
v -0.00865277 -0.00284002 -0.02668279
v -0.00883130 -0.00234198 -0.02911740
v -0.00882492 -0.00232538 -0.02668279
v -0.00892984 -0.00193193 -0.02830694
v -0.00892694 -0.00193691 -0.02911740
v -0.00906953 -0.00121642 -0.02749324
v -0.00906547 -0.00121642 -0.02830694
v -0.00916169 -0.00040462 -0.02668279
v -0.00905272 0.00121566 -0.03074155
v -0.00914488 0.00040552 -0.02911740
v -0.00357926 -0.00460639 0.00025349
v -0.00357926 -0.00419966 0.00061009
v -0.00439074 -0.00302263 0.00121631
v -0.00444697 -0.00372155 0.00079163
v -0.00521440 -0.00282176 0.00109960
v -0.00549378 -0.00234198 0.00126818
v -0.00813284 -0.00202822 -0.00023927
v -0.00572158 -0.00180078 0.00137192
v -0.00853743 -0.00121642 -0.00071906
v -0.00857278 -0.00121642 -0.00152951
v -0.00903823 -0.00121642 -0.02424818
v -0.00905446 -0.00121642 -0.02505864
v -0.00891361 -0.00184229 -0.02424818
v -0.00892172 -0.00187383 -0.02505864
v -0.00881971 -0.00230878 -0.02587234
v -0.00864060 -0.00284002 -0.02587234
v -0.00324018 -0.00459477 0.00025673
v -0.00889912 0.00180002 -0.03120513
v -0.00822269 0.00367928 -0.03076100
v -0.00808937 0.00414577 -0.03050489
v -0.00748192 0.00524643 -0.02992785
v -0.00719384 0.00565150 -0.02992785
v -0.00645017 0.00652472 -0.02911740
v -0.00601371 0.00692315 -0.02911740
v -0.00558420 0.00728506 -0.02830694
v -0.00517846 0.00756562 -0.02830694
v -0.00451189 0.00797069 -0.02830694
v -0.00410614 0.00817156 -0.02830694
v -0.00357926 0.00838240 -0.02749324
v -0.00324018 0.00844382 -0.02749324
v -0.00893042 -0.00192031 -0.02668279
v -0.00893158 -0.00192529 -0.02749324
v -0.00892752 -0.00190371 -0.02587234
v -0.00907127 -0.00121642 -0.02668279
v -0.00916111 -0.00040462 -0.02587234
v -0.00916111 0.00040552 -0.02587234
v -0.00916053 0.00040552 -0.02668279
v -0.00915010 0.00040552 -0.02830694
v -0.00892346 0.00189963 -0.03074155
v -0.00905620 0.00121566 -0.02992785
v -0.00324018 -0.00418970 0.00059712
v -0.00357926 -0.00365016 0.00093427
v -0.00357926 -0.00295955 0.00122928
v -0.00439074 -0.00261756 0.00137840
v -0.00495241 -0.00253954 0.00135247
v -0.00521440 -0.00205478 0.00143675
v -0.00627744 -0.00121642 0.00119362
v -0.00638699 -0.00067522 0.00128763
v -0.00826036 -0.00121642 -0.00013229
v -0.00520223 -0.00121642 0.00162154
v -0.00587170 -0.00121642 0.00144324
v -0.00861394 -0.00040462 -0.00071906
v -0.00914836 -0.00040462 -0.02505864
v -0.00906721 -0.00121642 -0.02587234
v -0.00878145 0.00230636 -0.03074155
v -0.00835890 0.00365105 -0.02992785
v -0.00811198 0.00418893 -0.02992785
v -0.00788766 0.00459400 -0.02992785
v -0.00788244 0.00458570 -0.02911740
v -0.00747670 0.00523647 -0.02911740
v -0.00720369 0.00564320 -0.02911740
v -0.00682925 0.00608479 -0.02911740
v -0.00678520 0.00608479 -0.02749324
v -0.00642061 0.00649318 -0.02702966
v -0.00609080 0.00678536 -0.02672818
v -0.00601371 0.00687667 -0.02749324
v -0.00555464 0.00726348 -0.02668279
v -0.00450319 0.00795907 -0.02749324
v -0.00513267 0.00753242 -0.02587234
v -0.00409745 0.00816990 -0.02749324
v -0.00357926 0.00835916 -0.02668279
v -0.00324018 0.00845710 -0.02620948
v -0.00324018 0.00847039 -0.02668279
v -0.00402789 0.00813504 -0.02505864
v -0.00914894 0.00040552 -0.02505864
v -0.00906489 0.00121566 -0.02587234
v -0.00906489 0.00121566 -0.02668279
v -0.00892404 0.00190295 -0.02992785
v -0.00882145 0.00230802 -0.02992785
v -0.00866263 0.00283925 -0.02992785
v -0.00324018 -0.00365016 0.00090185
v -0.00324018 -0.00287322 0.00120334
v -0.00324018 -0.00256112 0.00129735
v -0.00324018 -0.00247479 0.00132329
v -0.00357926 -0.00255282 0.00134922
v -0.00439074 -0.00202822 0.00152752
v -0.00607573 -0.00040462 0.00146917
v -0.00643916 -0.00013402 0.00132653
v -0.00830789 -0.00040462 -0.00009339
v -0.00439074 -0.00121642 0.00164747
v -0.00520223 -0.00040462 0.00170582
v -0.00829050 0.00040552 -0.00010960
v -0.00858496 0.00040552 -0.00071906
v -0.00862263 0.00040552 -0.00152951
v -0.00864872 0.00283925 -0.02668279
v -0.00835252 0.00365105 -0.02911740
v -0.00810734 0.00418063 -0.02911740
v -0.00809575 0.00415573 -0.02749324
v -0.00808937 0.00414245 -0.02668279
v -0.00787375 0.00457408 -0.02830694
v -0.00746801 0.00522319 -0.02830694
v -0.00745873 0.00520991 -0.02749324
v -0.00718283 0.00561498 -0.02749324
v -0.00669594 0.00616282 -0.02672818
v -0.00641192 0.00648322 -0.02648828
v -0.00599458 0.00684513 -0.02587234
v -0.00553841 0.00725020 -0.02587234
v -0.00511296 0.00752080 -0.02505864
v -0.00448001 0.00794911 -0.02668279
v -0.00443364 0.00792587 -0.02505864
v -0.00400181 0.00812176 -0.02424818
v -0.00398674 0.00811512 -0.02381702
v -0.00357926 0.00831101 -0.02505864
v -0.00324018 0.00843054 -0.02539903
v -0.00905272 0.00121566 -0.02505864
v -0.00853395 0.00121566 -0.00152951
v -0.00892520 0.00189797 -0.02587234
v -0.00892520 0.00190295 -0.02668279
v -0.00882029 0.00230802 -0.02668279
v -0.00881855 0.00230470 -0.02587234
v -0.00324018 -0.00202822 0.00140109
v -0.00357926 -0.00202822 0.00145945
v -0.00607631 0.00040718 0.00146917
v -0.00643916 0.00013658 0.00132653
v -0.00439074 -0.00040462 0.00169934
v -0.00357926 -0.00121642 0.00156318
v -0.00439074 0.00040552 0.00169934
v -0.00520223 0.00040552 0.00170258
v -0.00638757 0.00067778 0.00128763
v -0.00820356 0.00121566 -0.00018092
v -0.00844874 0.00121566 -0.00071906
v -0.00863944 0.00283925 -0.02587234
v -0.00833282 0.00365105 -0.02749324
v -0.00832296 0.00365105 -0.02668279
v -0.00785462 0.00454918 -0.02668279
v -0.00830557 0.00365105 -0.02587234
v -0.00807894 0.00412419 -0.02587234
v -0.00744888 0.00519165 -0.02668279
v -0.00736773 0.00427526 -0.00315366
v -0.00710226 0.00468033 -0.00396412
v -0.00716950 0.00559672 -0.02668279
v -0.00640033 0.00647160 -0.02587234
v -0.00707212 0.00468199 -0.00315366
v -0.00597777 0.00682853 -0.02505864
v -0.00551871 0.00723526 -0.02505864
v -0.00505384 0.00747929 -0.02262403
v -0.00440755 0.00791259 -0.02424818
v -0.00503298 0.00746435 -0.02181358
v -0.00439074 0.00786278 -0.02262403
v -0.00439074 0.00783290 -0.02181358
v -0.00439074 0.00780136 -0.02100312
v -0.00439074 0.00776816 -0.02019267
v -0.00396066 0.00810516 -0.02327888
v -0.00357926 0.00828445 -0.02424818
v -0.00324018 0.00839070 -0.02424818
v -0.00889854 0.00179504 -0.02343773
v -0.00890839 0.00183322 -0.02424818
v -0.00891824 0.00186808 -0.02505864
v -0.00835426 0.00202746 -0.00152951
v -0.00880985 0.00227481 -0.02505864
v -0.00814154 0.00268486 -0.00152951
v -0.00324018 -0.00122140 0.00149835
v -0.00587228 0.00121566 0.00144324
v -0.00357926 -0.00040462 0.00159884
v -0.00357926 0.00040552 0.00159884
v -0.00357926 0.00121566 0.00156318
v -0.00439074 0.00121566 0.00164747
v -0.00520223 0.00121566 0.00162154
v -0.00572100 0.00180002 0.00137192
v -0.00627744 0.00121566 0.00119362
v -0.00810676 0.00176184 -0.00025872
v -0.00820588 0.00203078 -0.00070285
v -0.00810850 0.00259024 -0.00096544
v -0.00771435 0.00365105 -0.00233997
v -0.00798678 0.00310487 -0.00233997
v -0.00736425 0.00424040 -0.00233997
v -0.00638294 0.00645334 -0.02505864
v -0.00669652 0.00514516 -0.00396412
v -0.00666638 0.00506050 -0.00315366
v -0.00595691 0.00681026 -0.02424818
v -0.00545958 0.00718379 -0.02262403
v -0.00486952 0.00735644 -0.01613391
v -0.00484517 0.00733984 -0.01532345
v -0.00439074 0.00773329 -0.01937897
v -0.00480170 0.00730664 -0.01403321
v -0.00392704 0.00809188 -0.02262403
v -0.00364592 0.00823133 -0.02350256
v -0.00352130 0.00824295 -0.02262403
v -0.00324018 0.00834090 -0.02292876
v -0.00794794 0.00308993 -0.00152951
v -0.00324018 -0.00040462 0.00153401
v -0.00324018 0.00040552 0.00153401
v -0.00324018 0.00072592 0.00152104
v -0.00324018 0.00122064 0.00149835
v -0.00324018 0.00167219 0.00144648
v -0.00324018 0.00202746 0.00140109
v -0.00357926 0.00202746 0.00145945
v -0.00439074 0.00202746 0.00152752
v -0.00521440 0.00205402 0.00143675
v -0.00549262 0.00234122 0.00126818
v -0.00741236 0.00338709 -0.00101406
v -0.00564565 0.00328749 0.00053877
v -0.00731672 0.00415739 -0.00180831
v -0.00489155 0.00657121 -0.00720918
v -0.00495820 0.00662931 -0.00802288
v -0.00450319 0.00717715 -0.01045748
v -0.00459188 0.00721367 -0.01126794
v -0.00467186 0.00724688 -0.01207839
v -0.00473562 0.00727344 -0.01289209
v -0.00477388 0.00729170 -0.01349183
v -0.00543872 0.00716553 -0.02181358
v -0.00590590 0.00677872 -0.02262403
v -0.00403369 0.00651476 -0.00426885
v -0.00413513 0.00656291 -0.00477457
v -0.00428351 0.00663429 -0.00558827
v -0.00477214 0.00647658 -0.00607454
v -0.00483648 0.00652472 -0.00661593
v -0.00656436 0.00495425 -0.00260904
v -0.00439074 0.00750586 -0.01451300
v -0.00378735 0.00804374 -0.02019267
v -0.00383836 0.00806034 -0.02100312
v -0.00343261 0.00820809 -0.02100312
v -0.00324018 0.00830769 -0.02208589
v -0.00324018 0.00236280 0.00134922
v -0.00357926 0.00255703 0.00134922
v -0.00439074 0.00261514 0.00137516
v -0.00495183 0.00253877 0.00135247
v -0.00521440 0.00282099 0.00109960
v -0.00520223 0.00346844 0.00067168
v -0.00475707 0.00403952 0.00048042
v -0.00466955 0.00479488 -0.00044999
v -0.00439596 0.00509038 -0.00071906
v -0.00439074 0.00694805 -0.00802288
v -0.00439074 0.00704600 -0.00883333
v -0.00409745 0.00734150 -0.01045748
v -0.00433626 0.00715889 -0.00963406
v -0.00402905 0.00731826 -0.00989665
v -0.00418613 0.00737305 -0.01126794
v -0.00426612 0.00740459 -0.01207839
v -0.00432988 0.00743613 -0.01289209
v -0.00445856 0.00743613 -0.01373820
v -0.00375721 0.00645002 -0.00372747
v -0.00352362 0.00655295 -0.00398357
v -0.00357926 0.00671066 -0.00477457
v -0.00357926 0.00686339 -0.00558827
v -0.00357926 0.00699952 -0.00639872
v -0.00410904 0.00574779 -0.00175968
v -0.00357926 0.00712071 -0.00720918
v -0.00439074 0.00683351 -0.00720918
v -0.00445682 0.00667579 -0.00636631
v -0.00366041 0.00800389 -0.01856852
v -0.00372649 0.00802381 -0.01937897
v -0.00338161 0.00818651 -0.02019267
v -0.00324018 0.00826287 -0.02100312
v -0.00324018 0.00827283 -0.02123653
v -0.00324018 0.00248067 0.00132329
v -0.00324018 0.00287744 0.00120334
v -0.00357926 0.00296210 0.00122603
v -0.00439074 0.00302187 0.00121631
v -0.00444813 0.00372244 0.00079163
v -0.00421627 0.00414577 0.00057119
v -0.00412875 0.00494429 -0.00021982
v -0.00376068 0.00563822 -0.00121830
v -0.00383256 0.00726348 -0.00883333
v -0.00394211 0.00729170 -0.00935526
v -0.00357926 0.00768847 -0.01289209
v -0.00357926 0.00774989 -0.01370254
v -0.00363432 0.00740127 -0.00963406
v -0.00357926 0.00748925 -0.01045748
v -0.00357926 0.00762206 -0.01207839
v -0.00357926 0.00779970 -0.01451300
v -0.00357926 0.00794081 -0.01694436
v -0.00352362 0.00635871 -0.00321850
v -0.00324018 0.00648820 -0.00350702
v -0.00324018 0.00649650 -0.00353944
v -0.00357926 0.00609309 -0.00233997
v -0.00324018 0.00659943 -0.00397709
v -0.00324018 0.00666915 -0.00428182
v -0.00324018 0.00677374 -0.00477457
v -0.00324018 0.00684347 -0.00511496
v -0.00324018 0.00693311 -0.00558827
v -0.00324018 0.00699454 -0.00592218
v -0.00324018 0.00707754 -0.00641818
v -0.00324018 0.00726348 -0.00755930
v -0.00356419 0.00723028 -0.00796128
v -0.00351724 0.00800555 -0.01772564
v -0.00325467 0.00814168 -0.01856852
v -0.00332074 0.00816326 -0.01937897
v -0.00324018 0.00822635 -0.02019267
v -0.00324018 0.00324930 0.00107043
v -0.00324018 0.00365105 0.00090185
v -0.00357926 0.00365105 0.00093427
v -0.00357926 0.00420221 0.00061333
v -0.00357926 0.00460894 0.00025349
v -0.00352535 0.00544066 -0.00079038
v -0.00357926 0.00500571 -0.00015174
v -0.00324018 0.00568470 -0.00111456
v -0.00324018 0.00569466 -0.00113725
v -0.00352535 0.00579759 -0.00150358
v -0.00328423 0.00733154 -0.00819145
v -0.00342682 0.00736973 -0.00883333
v -0.00324018 0.00777646 -0.01289209
v -0.00324018 0.00783788 -0.01370254
v -0.00324018 0.00791591 -0.01489553
v -0.00324018 0.00803377 -0.01669799
v -0.00324018 0.00807528 -0.01733338
v -0.00324018 0.00743945 -0.00906350
v -0.00324018 0.00749756 -0.00963730
v -0.00324018 0.00757226 -0.01045748
v -0.00324018 0.00767021 -0.01160509
v -0.00324018 0.00811180 -0.01794609
v -0.00324018 0.00622590 -0.00262200
v -0.00324018 0.00613792 -0.00233997
v -0.00324018 0.00728506 -0.00771490
v -0.00324018 0.00813670 -0.01839670
v -0.00324018 0.00814666 -0.01859121
v -0.00324018 0.00387185 0.00078839
v -0.00324018 0.00419391 0.00060036
v -0.00324018 0.00436325 0.00046745
v -0.00324018 0.00459898 0.00025673
v -0.00324018 0.00477994 0.00008816
v -0.00324018 0.00566976 -0.00108862
v -0.00324018 0.00501069 -0.00014850
v -0.00324018 0.00518003 -0.00038191
v -0.00324018 0.00594866 -0.00181803
v -0.00324018 0.00734814 -0.00824332
v -0.00324018 0.00741455 -0.00883333
f 1 2 3
f 1 3 4
f 1 4 13
f 1 13 24
f 1 24 50
f 1 50 49
f 1 49 72
f 1 72 107
f 1 107 150
f 1 150 198
f 1 198 239
f 1 239 280
f 1 280 323
f 1 323 322
f 1 322 364
f 1 364 405
f 1 405 439
f 1 439 473
f 1 473 505
f 1 505 504
f 1 504 539
f 1 539 566
f 1 566 565
f 1 565 561
f 1 561 556
f 1 556 555
f 1 555 554
f 1 554 553
f 1 553 552
f 1 552 560
f 1 560 559
f 1 559 558
f 1 558 557
f 1 557 577
f 1 577 576
f 1 576 564
f 1 564 534
f 1 534 533
f 1 533 532
f 1 532 531
f 1 531 530
f 1 530 529
f 1 529 528
f 1 528 527
f 1 527 525
f 1 525 524
f 1 524 562
f 1 562 563
f 1 563 575
f 1 575 548
f 1 548 547
f 1 547 572
f 1 572 574
f 1 574 573
f 1 573 571
f 1 571 570
f 1 570 569
f 1 569 568
f 1 568 567
f 1 567 541
f 1 541 540
f 1 540 507
f 1 507 506
f 1 506 474
f 1 474 446
f 1 446 445
f 1 445 444
f 1 444 443
f 1 443 442
f 1 442 441
f 1 441 412
f 1 412 371
f 1 371 334
f 1 334 333
f 1 333 332
f 1 332 331
f 1 331 291
f 1 291 267
f 1 267 230
f 1 230 186
f 1 186 185
f 1 185 183
f 1 183 182
f 1 182 180
f 1 180 179
f 1 179 229
f 1 229 228
f 1 228 177
f 1 177 175
f 1 175 176
f 1 176 174
f 1 174 173
f 1 173 227
f 1 227 225
f 1 225 226
f 1 226 192
f 1 192 193
f 1 193 191
f 1 191 190
f 1 190 189
f 1 189 188
f 1 188 161
f 1 161 160
f 1 160 158
f 1 158 114
f 1 114 79
f 1 79 55
f 1 55 32
f 1 32 15
f 1 15 6
f 1 6 2
f 2 5 3
f 2 6 7
f 2 7 5
f 3 5 8
f 3 8 9
f 3 9 10
f 3 10 11
f 3 11 12
f 3 12 4
f 4 12 13
f 5 7 14
f 5 14 8
f 6 15 16
f 6 16 7
f 7 16 14
f 8 17 18
f 8 18 9
f 8 14 17
f 9 18 10
f 10 18 19
f 10 19 20
f 10 20 11
f 11 20 12
f 12 20 21
f 12 21 22
f 12 22 47
f 12 47 23
f 12 23 13
f 13 23 24
f 14 16 25
f 14 25 26
f 14 26 27
f 14 27 28
f 14 28 29
f 14 29 30
f 14 30 31
f 14 31 17
f 15 32 33
f 15 33 34
f 15 34 16
f 16 34 25
f 17 35 36
f 17 36 18
f 17 31 37
f 17 37 35
f 18 36 38
f 18 38 19
f 19 38 39
f 19 39 40
f 19 40 41
f 19 41 42
f 19 42 20
f 20 42 21
f 21 43 44
f 21 44 45
f 21 45 22
f 21 42 46
f 21 46 43
f 22 45 48
f 22 48 67
f 22 67 47
f 23 47 49
f 23 49 50
f 23 50 24
f 25 34 26
f 26 34 51
f 26 51 52
f 26 52 27
f 27 52 28
f 28 52 53
f 28 53 54
f 28 54 29
f 29 54 37
f 29 37 30
f 30 37 31
f 32 55 56
f 32 56 33
f 33 56 57
f 33 57 34
f 34 57 51
f 35 37 58
f 35 58 36
f 36 59 38
f 36 58 59
f 37 54 60
f 37 60 58
f 38 59 61
f 38 61 39
f 39 61 62
f 39 62 40
f 40 62 63
f 40 63 41
f 41 63 46
f 41 46 42
f 43 64 44
f 43 46 58
f 43 58 64
f 44 65 66
f 44 66 48
f 44 48 45
f 44 64 65
f 46 63 58
f 47 67 68
f 47 68 69
f 47 69 49
f 48 66 70
f 48 70 71
f 48 71 93
f 48 93 67
f 49 69 73
f 49 73 74
f 49 74 72
f 51 57 75
f 51 75 52
f 52 75 76
f 52 76 77
f 52 77 78
f 52 78 60
f 52 60 53
f 53 60 54
f 55 79 80
f 55 80 56
f 56 80 81
f 56 81 57
f 57 81 75
f 58 60 82
f 58 82 83
f 58 83 84
f 58 84 64
f 58 63 62
f 58 62 61
f 58 61 59
f 60 85 82
f 60 78 86
f 60 86 87
f 60 87 88
f 60 88 89
f 60 89 90
f 60 90 91
f 60 91 85
f 64 84 65
f 65 84 83
f 65 83 92
f 65 92 70
f 65 70 66
f 67 93 94
f 67 94 68
f 68 95 96
f 68 96 97
f 68 97 69
f 68 94 98
f 68 98 99
f 68 99 95
f 69 97 96
f 69 96 100
f 69 100 73
f 70 92 101
f 70 101 71
f 71 101 102
f 71 102 103
f 71 103 104
f 71 104 105
f 71 105 106
f 71 106 93
f 72 74 108
f 72 108 107
f 73 100 109
f 73 109 108
f 73 108 74
f 75 81 76
f 76 81 110
f 76 110 111
f 76 111 112
f 76 112 113
f 76 113 77
f 77 113 78
f 78 113 86
f 79 114 115
f 79 115 80
f 80 115 110
f 80 110 81
f 82 85 116
f 82 116 117
f 82 117 118
f 82 118 119
f 82 119 120
f 82 120 83
f 83 120 92
f 85 91 121
f 85 121 122
f 85 122 123
f 85 123 124
f 85 124 125
f 85 125 126
f 85 126 127
f 85 127 128
f 85 128 129
f 85 129 130
f 85 130 131
f 85 131 132
f 85 132 116
f 86 113 87
f 87 113 133
f 87 133 88
f 88 133 134
f 88 134 90
f 88 90 89
f 90 134 135
f 90 135 136
f 90 136 91
f 91 136 137
f 91 137 138
f 91 138 139
f 91 139 121
f 92 140 101
f 92 120 119
f 92 119 140
f 93 106 98
f 93 98 94
f 95 141 142
f 95 142 100
f 95 100 96
f 95 99 143
f 95 143 144
f 95 144 145
f 95 145 141
f 98 106 146
f 98 146 147
f 98 147 99
f 99 147 148
f 99 148 149
f 99 149 143
f 100 142 150
f 100 150 109
f 101 140 151
f 101 151 152
f 101 152 153
f 101 153 103
f 101 103 102
f 103 153 154
f 103 154 155
f 103 155 104
f 104 156 106
f 104 106 105
f 104 155 157
f 104 157 156
f 106 156 146
f 107 108 150
f 108 109 150
f 110 115 111
f 111 158 112
f 111 115 159
f 111 159 114
f 111 114 158
f 112 135 113
f 112 158 160
f 112 160 161
f 112 161 135
f 113 135 133
f 114 159 115
f 116 132 162
f 116 162 163
f 116 163 164
f 116 164 165
f 116 165 166
f 116 166 117
f 117 167 118
f 117 166 167
f 118 167 168
f 118 168 119
f 119 168 169
f 119 169 170
f 119 170 140
f 121 139 171
f 121 171 122
f 122 171 123
f 123 172 173
f 123 173 174
f 123 174 124
f 123 171 172
f 124 174 125
f 125 175 126
f 125 174 176
f 125 176 175
f 126 175 177
f 126 177 178
f 126 178 127
f 127 178 128
f 128 179 180
f 128 180 129
f 128 178 181
f 128 181 179
f 129 180 182
f 129 182 130
f 130 183 184
f 130 184 132
f 130 132 131
f 130 182 183
f 132 184 185
f 132 185 186
f 132 186 187
f 132 187 163
f 132 163 162
f 133 135 134
f 135 161 188
f 135 188 136
f 136 189 190
f 136 190 137
f 136 188 189
f 137 190 138
f 138 190 191
f 138 191 139
f 139 192 171
f 139 191 193
f 139 193 192
f 140 170 151
f 141 145 194
f 141 194 231
f 141 231 195
f 141 195 196
f 141 196 142
f 142 196 237
f 142 237 197
f 142 197 198
f 142 198 150
f 143 149 199
f 143 199 200
f 143 200 144
f 144 194 145
f 144 200 201
f 144 201 202
f 144 202 194
f 146 201 147
f 146 156 201
f 147 201 148
f 148 201 149
f 149 201 199
f 151 170 203
f 151 203 152
f 152 204 153
f 152 203 205
f 152 205 204
f 153 204 154
f 154 204 206
f 154 206 207
f 154 207 155
f 155 207 208
f 155 208 157
f 156 209 201
f 156 157 211
f 156 211 209
f 157 210 211
f 157 208 212
f 157 212 210
f 163 187 213
f 163 213 214
f 163 214 215
f 163 215 164
f 164 215 216
f 164 216 217
f 164 217 218
f 164 218 166
f 164 166 165
f 166 218 219
f 166 219 220
f 166 220 221
f 166 221 222
f 166 222 223
f 166 223 167
f 167 223 224
f 167 224 168
f 168 224 169
f 169 224 170
f 170 224 203
f 171 225 172
f 171 192 226
f 171 226 225
f 172 227 173
f 172 225 227
f 177 228 178
f 178 228 181
f 179 181 229
f 181 228 229
f 183 185 184
f 186 230 213
f 186 213 187
f 194 202 231
f 195 231 232
f 195 232 233
f 195 233 234
f 195 234 235
f 195 235 196
f 196 235 236
f 196 236 237
f 197 237 238
f 197 238 239
f 197 239 198
f 199 201 200
f 201 209 202
f 202 209 240
f 202 240 231
f 203 224 241
f 203 241 205
f 204 205 242
f 204 242 206
f 205 241 243
f 205 243 242
f 206 242 244
f 206 244 245
f 206 245 207
f 207 245 246
f 207 246 247
f 207 247 208
f 208 247 248
f 208 248 212
f 209 211 240
f 210 249 211
f 210 212 248
f 210 248 250
f 210 250 249
f 211 249 240
f 213 230 251
f 213 251 214
f 214 251 252
f 214 252 253
f 214 253 254
f 214 254 215
f 215 254 255
f 215 255 216
f 216 255 256
f 216 256 217
f 217 256 218
f 218 257 220
f 218 220 219
f 218 256 258
f 218 258 257
f 220 257 259
f 220 259 221
f 221 259 260
f 221 260 261
f 221 261 262
f 221 262 263
f 221 263 264
f 221 264 265
f 221 265 222
f 222 265 266
f 222 266 223
f 223 266 224
f 224 266 241
f 230 267 251
f 231 240 268
f 231 268 269
f 231 269 270
f 231 270 232
f 232 270 271
f 232 271 272
f 232 272 233
f 233 272 234
f 234 272 273
f 234 273 274
f 234 274 236
f 234 236 235
f 236 274 275
f 236 275 276
f 236 276 277
f 236 277 237
f 237 277 278
f 237 278 279
f 237 279 280
f 237 280 238
f 238 280 239
f 240 249 268
f 241 266 265
f 241 265 243
f 242 243 281
f 242 281 282
f 242 282 244
f 243 265 283
f 243 283 281
f 244 282 284
f 244 284 246
f 244 246 245
f 246 284 248
f 246 248 247
f 248 284 285
f 248 285 286
f 248 286 287
f 248 287 288
f 248 288 250
f 249 289 268
f 249 250 288
f 249 288 287
f 249 287 290
f 249 290 289
f 251 267 252
f 252 291 292
f 252 292 253
f 252 267 291
f 253 293 294
f 253 294 295
f 253 295 254
f 253 292 293
f 254 295 255
f 255 295 256
f 256 295 296
f 256 296 258
f 257 258 297
f 257 297 298
f 257 298 299
f 257 299 259
f 258 296 300
f 258 300 301
f 258 301 298
f 258 298 297
f 259 299 302
f 259 302 260
f 260 302 303
f 260 303 261
f 261 303 262
f 262 303 285
f 262 285 304
f 262 304 264
f 262 264 263
f 264 304 283
f 264 283 265
f 268 289 305
f 268 305 270
f 268 270 269
f 270 305 306
f 270 306 307
f 270 307 308
f 270 308 271
f 271 308 309
f 271 309 310
f 271 310 311
f 271 311 272
f 272 311 312
f 272 312 273
f 273 312 313
f 273 313 314
f 273 314 274
f 274 314 315
f 274 315 316
f 274 316 275
f 275 316 315
f 275 315 317
f 275 317 276
f 276 318 277
f 276 317 319
f 276 319 318
f 277 318 320
f 277 320 278
f 278 320 279
f 279 321 322
f 279 322 323
f 279 323 280
f 279 320 324
f 279 324 321
f 281 284 282
f 281 283 304
f 281 304 284
f 284 304 285
f 285 303 325
f 285 325 286
f 286 326 327
f 286 327 287
f 286 325 365
f 286 365 326
f 287 327 290
f 289 290 327
f 289 327 328
f 289 328 329
f 289 329 330
f 289 330 305
f 291 331 292
f 292 331 293
f 293 332 333
f 293 333 334
f 293 334 335
f 293 335 294
f 293 331 332
f 294 336 295
f 294 335 336
f 295 336 296
f 296 336 300
f 298 301 337
f 298 337 338
f 298 338 299
f 299 338 339
f 299 339 302
f 300 336 340
f 300 340 341
f 300 341 301
f 301 341 337
f 302 339 342
f 302 342 343
f 302 343 344
f 302 344 325
f 302 325 303
f 305 330 306
f 306 330 345
f 306 345 346
f 306 346 307
f 307 346 347
f 307 347 308
f 308 347 309
f 309 347 348
f 309 348 349
f 309 349 350
f 309 350 310
f 310 350 351
f 310 351 311
f 311 351 352
f 311 352 353
f 311 353 313
f 311 313 312
f 313 353 354
f 313 354 314
f 314 354 355
f 314 355 315
f 315 355 356
f 315 356 317
f 317 356 357
f 317 357 319
f 318 319 358
f 318 358 359
f 318 359 320
f 319 357 358
f 320 359 360
f 320 360 324
f 321 324 361
f 321 361 362
f 321 362 363
f 321 363 322
f 322 363 404
f 322 404 364
f 324 360 397
f 324 397 361
f 325 344 366
f 325 366 365
f 326 367 368
f 326 368 327
f 326 365 367
f 327 368 328
f 328 368 329
f 329 368 369
f 329 369 330
f 330 369 370
f 330 370 345
f 334 371 372
f 334 372 335
f 335 372 336
f 336 372 340
f 337 373 338
f 337 341 373
f 338 373 374
f 338 374 339
f 339 374 342
f 340 375 341
f 340 372 376
f 340 376 375
f 341 375 377
f 341 377 378
f 341 378 373
f 342 374 379
f 342 379 380
f 342 380 343
f 343 381 366
f 343 366 344
f 343 380 381
f 345 370 382
f 345 382 346
f 346 382 383
f 346 383 347
f 347 383 384
f 347 384 348
f 348 384 349
f 349 385 350
f 349 384 386
f 349 386 387
f 349 387 385
f 350 385 351
f 351 385 352
f 352 385 388
f 352 388 353
f 353 388 389
f 353 389 390
f 353 390 391
f 353 391 354
f 354 392 355
f 354 391 393
f 354 393 392
f 355 392 356
f 356 392 394
f 356 394 357
f 357 394 395
f 357 395 396
f 357 396 358
f 358 396 360
f 358 360 359
f 360 396 398
f 360 398 397
f 361 397 362
f 362 399 400
f 362 400 401
f 362 401 402
f 362 402 403
f 362 403 404
f 362 404 363
f 362 397 399
f 364 404 405
f 365 406 407
f 365 407 408
f 365 408 367
f 365 366 406
f 366 381 409
f 366 409 407
f 366 407 406
f 367 370 369
f 367 369 368
f 367 408 370
f 370 408 410
f 370 410 411
f 370 411 382
f 371 412 376
f 371 376 372
f 373 378 413
f 373 413 379
f 373 379 374
f 375 376 414
f 375 414 415
f 375 415 377
f 376 412 414
f 377 415 416
f 377 416 417
f 377 417 378
f 378 417 418
f 378 418 413
f 379 413 419
f 379 419 420
f 379 420 421
f 379 421 380
f 380 421 381
f 381 421 422
f 381 422 423
f 381 423 409
f 382 386 384
f 382 384 383
f 382 411 386
f 385 387 424
f 385 424 389
f 385 389 388
f 386 411 425
f 386 425 387
f 387 425 424
f 389 424 426
f 389 426 390
f 390 426 393
f 390 393 391
f 392 427 394
f 392 393 428
f 392 428 427
f 393 426 429
f 393 429 428
f 394 427 430
f 394 430 461
f 394 461 431
f 394 431 395
f 395 431 398
f 395 398 396
f 397 398 432
f 397 432 399
f 398 431 432
f 399 432 400
f 400 432 433
f 400 433 401
f 401 433 402
f 402 434 403
f 402 433 435
f 402 435 434
f 403 436 437
f 403 437 404
f 403 434 435
f 403 435 436
f 404 437 438
f 404 438 405
f 405 438 439
f 407 409 408
f 408 409 410
f 409 423 411
f 409 411 410
f 411 423 440
f 411 440 425
f 412 441 414
f 413 418 419
f 414 441 442
f 414 442 415
f 415 442 443
f 415 443 416
f 416 443 444
f 416 444 445
f 416 445 446
f 416 446 447
f 416 447 417
f 417 448 418
f 417 447 448
f 418 448 449
f 418 449 419
f 419 449 450
f 419 450 421
f 419 421 420
f 421 451 423
f 421 423 422
f 421 450 452
f 421 452 451
f 423 451 453
f 423 453 440
f 424 425 440
f 424 440 426
f 426 440 453
f 426 453 429
f 427 428 430
f 428 429 454
f 428 454 455
f 428 455 456
f 428 456 457
f 428 457 458
f 428 458 459
f 428 459 460
f 428 460 435
f 428 435 433
f 428 433 461
f 428 461 462
f 428 462 430
f 429 463 464
f 429 464 465
f 429 465 466
f 429 466 467
f 429 467 454
f 429 453 468
f 429 468 463
f 430 462 461
f 431 461 432
f 432 461 433
f 435 460 469
f 435 469 470
f 435 470 471
f 435 471 436
f 436 471 438
f 436 438 437
f 438 471 472
f 438 472 439
f 439 472 473
f 446 474 447
f 447 474 475
f 447 475 448
f 448 475 476
f 448 476 477
f 448 477 449
f 449 477 450
f 450 477 478
f 450 478 479
f 450 479 452
f 451 452 480
f 451 480 453
f 452 479 480
f 453 480 481
f 453 481 482
f 453 482 468
f 454 467 483
f 454 483 484
f 454 484 456
f 454 456 455
f 456 485 457
f 456 484 486
f 456 486 487
f 456 487 485
f 457 485 488
f 457 488 458
f 458 488 489
f 458 489 490
f 458 490 459
f 459 490 491
f 459 491 460
f 460 491 469
f 463 492 493
f 463 493 494
f 463 494 495
f 463 495 496
f 463 496 464
f 463 468 497
f 463 497 492
f 464 496 465
f 465 496 498
f 465 498 499
f 465 499 500
f 465 500 466
f 466 500 499
f 466 499 467
f 467 499 483
f 468 482 497
f 469 491 490
f 469 490 501
f 469 501 502
f 469 502 470
f 470 502 503
f 470 503 472
f 470 472 471
f 472 503 504
f 472 504 505
f 472 505 473
f 474 506 475
f 475 506 507
f 475 507 508
f 475 508 476
f 476 508 509
f 476 509 477
f 477 509 510
f 477 510 478
f 478 510 480
f 478 480 479
f 480 510 511
f 480 511 512
f 480 512 481
f 481 512 482
f 482 512 513
f 482 513 497
f 483 514 515
f 483 515 484
f 483 499 514
f 484 515 487
f 484 487 486
f 485 516 517
f 485 517 488
f 485 487 516
f 487 515 518
f 487 518 519
f 487 519 520
f 487 520 516
f 488 517 489
f 489 517 490
f 490 517 521
f 490 521 522
f 490 522 501
f 492 523 524
f 492 524 525
f 492 525 493
f 492 497 526
f 492 526 523
f 493 527 528
f 493 528 494
f 493 525 527
f 494 528 529
f 494 529 530
f 494 530 531
f 494 531 495
f 495 531 532
f 495 532 496
f 496 532 533
f 496 533 534
f 496 534 498
f 497 513 526
f 498 534 535
f 498 535 514
f 498 514 499
f 501 522 536
f 501 536 537
f 501 537 538
f 501 538 503
f 501 503 502
f 503 538 537
f 503 537 539
f 503 539 504
f 507 540 508
f 508 540 541
f 508 541 542
f 508 542 509
f 509 542 543
f 509 543 511
f 509 511 510
f 511 543 544
f 511 544 512
f 512 545 513
f 512 544 546
f 512 546 545
f 513 545 547
f 513 547 548
f 513 548 549
f 513 549 526
f 514 535 550
f 514 550 551
f 514 551 515
f 515 551 518
f 516 520 552
f 516 552 553
f 516 553 517
f 517 553 554
f 517 554 555
f 517 555 556
f 517 556 521
f 518 551 557
f 518 557 558
f 518 558 559
f 518 559 519
f 519 559 560
f 519 560 552
f 519 552 520
f 521 556 561
f 521 561 522
f 522 561 536
f 523 526 524
f 524 526 562
f 526 549 563
f 526 563 562
f 534 564 535
f 535 564 550
f 536 561 537
f 537 561 565
f 537 565 566
f 537 566 539
f 541 567 542
f 542 567 543
f 543 567 568
f 543 568 569
f 543 569 544
f 544 570 571
f 544 571 546
f 544 569 570
f 545 572 547
f 545 546 572
f 546 571 573
f 546 573 574
f 546 574 572
f 548 575 549
f 549 575 563
f 550 576 551
f 550 564 576
f 551 577 557
f 551 576 577

