# https://github.com/mikedh/trimesh
v -0.00067993 -0.00968364 -0.00082326
v 0.00067996 -0.00968114 -0.00082326
v 0.00067996 -0.00965613 0.00054245
v -0.00067993 -0.00965613 0.00054245
v -0.00203981 -0.00954361 -0.00082326
v -0.00067993 -0.00966363 -0.00218351
v 0.00067996 -0.00966363 -0.00218351
v 0.00203985 -0.00954361 -0.00082326
v 0.00203985 -0.00951610 0.00054245
v 0.00203985 -0.00945109 0.00190270
v 0.00067996 -0.00958862 0.00190270
v -0.00067993 -0.00959112 0.00190270
v -0.00203981 -0.00951610 0.00054245
v -0.00203981 -0.00945359 0.00190270
v -0.00332936 -0.00925855 0.00054245
v -0.00337412 -0.00926855 -0.00082326
v -0.00334428 -0.00925855 -0.00218351
v -0.00203981 -0.00952360 -0.00218351
v -0.00203981 -0.00948359 -0.00354375
v -0.00067993 -0.00961362 -0.00354375
v 0.00203985 -0.00952360 -0.00218351
v 0.00067996 -0.00961362 -0.00354375
v 0.00203985 -0.00948359 -0.00354375
v 0.00337416 -0.00926855 -0.00082326
v 0.00332939 -0.00925855 0.00054245
v 0.00334431 -0.00925855 -0.00218351
v 0.00322921 -0.00923104 0.00190270
v 0.00306296 -0.00918603 0.00326295
v 0.00138335 -0.00774071 0.03258747
v 0.00067996 -0.00794326 0.03047335
v -0.00067993 -0.00794326 0.03047335
v -0.00322918 -0.00923104 0.00190270
v -0.00306292 -0.00918603 0.00326295
v -0.00138331 -0.00774071 0.03258747
v -0.00400930 -0.00907601 0.00054245
v -0.00405406 -0.00908851 -0.00082326
v -0.00402422 -0.00907851 -0.00218351
v -0.00395602 -0.00906100 -0.00354375
v -0.00327607 -0.00923854 -0.00354375
v -0.00315458 -0.00920603 -0.00490400
v -0.00203981 -0.00941358 -0.00490400
v -0.00067993 -0.00953861 -0.00490400
v 0.00327611 -0.00923854 -0.00354375
v 0.00067996 -0.00953611 -0.00490400
v 0.00203985 -0.00941108 -0.00490400
v 0.00315248 -0.00920353 -0.00490400
v 0.00405410 -0.00908851 -0.00082326
v 0.00400934 -0.00907601 0.00054245
v 0.00402426 -0.00907851 -0.00218351
v 0.00395818 -0.00906100 -0.00354375
v 0.00390916 -0.00904850 0.00190270
v 0.00215068 -0.00757068 0.03183360
v 0.00191835 -0.00754067 0.03310098
v 0.00203985 -0.00737313 0.03455410
v 0.00203985 -0.00723060 0.03591981
v 0.00067996 -0.00748816 0.03591981
v 0.00094640 -0.00769821 0.03349431
v 0.00056699 -0.00776822 0.03310098
v 0.00067996 -0.00786074 0.03183360
v 0.00003838 -0.00773821 0.03390948
v -0.00003835 -0.00773821 0.03390948
v -0.00067993 -0.00786074 0.03183360
v -0.00390912 -0.00904850 0.00190270
v -0.00056696 -0.00776822 0.03310098
v -0.00094636 -0.00769821 0.03349431
v -0.00067993 -0.00749316 0.03591981
v -0.00203981 -0.00724060 0.03591981
v -0.00203981 -0.00737313 0.03455410
v -0.00191832 -0.00754067 0.03310098
v -0.00215065 -0.00757068 0.03183360
v -0.00476172 -0.00877344 0.00054245
v -0.00476172 -0.00871343 0.00190270
v -0.00476172 -0.00879844 -0.00082326
v -0.00476172 -0.00878594 -0.00218351
v -0.00476172 -0.00875343 -0.00354375
v -0.00476172 -0.00867592 -0.00490400
v -0.00383452 -0.00901349 -0.00490400
v -0.00295635 -0.00915352 -0.00566880
v -0.00203981 -0.00923104 -0.00576713
v -0.00067993 -0.00929355 -0.00583815
v 0.00067996 -0.00929105 -0.00583815
v 0.00203985 -0.00922604 -0.00576713
v 0.00295212 -0.00915102 -0.00566880
v 0.00383242 -0.00901349 -0.00490400
v 0.00476175 -0.00879844 -0.00082326
v 0.00476175 -0.00877344 0.00054245
v 0.00476175 -0.00878594 -0.00218351
v 0.00476175 -0.00871343 0.00190270
v 0.00476175 -0.00875093 -0.00354375
v 0.00476175 -0.00867342 -0.00490400
v 0.00476175 -0.00861841 0.00326295
v 0.00340187 -0.00709057 0.03183360
v 0.00340187 -0.00698805 0.03319385
v 0.00340187 -0.00687302 0.03455410
v 0.00352762 -0.00666548 0.03601267
v 0.00326758 -0.00660547 0.03728005
v 0.00203985 -0.00700805 0.03728005
v 0.00067996 -0.00723310 0.03728005
v 0.00056699 -0.00764319 0.03443938
v -0.00056696 -0.00764319 0.03443938
v -0.00476172 -0.00861841 0.00326295
v -0.00340183 -0.00709057 0.03183360
v -0.00067993 -0.00723810 0.03728005
v -0.00203981 -0.00701806 0.03728005
v -0.00327394 -0.00661047 0.03728005
v -0.00353185 -0.00667048 0.03602906
v -0.00340183 -0.00687302 0.03455410
v -0.00340183 -0.00698805 0.03319385
v -0.00606618 -0.00811079 0.00054245
v -0.00609176 -0.00812580 -0.00082326
v -0.00601503 -0.00808079 0.00190270
v -0.00593616 -0.00803328 0.00326295
v -0.00608963 -0.00812080 -0.00218351
v -0.00607258 -0.00810579 -0.00354375
v -0.00602995 -0.00807579 -0.00490400
v -0.00581467 -0.00794826 -0.00579991
v -0.00476172 -0.00817581 -0.00593648
v -0.00203981 -0.00841336 -0.00614407
v -0.00067993 -0.00841336 -0.00621508
v 0.00067996 -0.00841336 -0.00620962
v 0.00203985 -0.00841336 -0.00613861
v 0.00476175 -0.00817581 -0.00593101
v 0.00581257 -0.00794826 -0.00579991
v 0.00608967 -0.00812080 -0.00218351
v 0.00609180 -0.00812580 -0.00082326
v 0.00606622 -0.00811079 0.00054245
v 0.00601293 -0.00808079 0.00190270
v 0.00607048 -0.00810329 -0.00354375
v 0.00593620 -0.00803328 0.00326295
v 0.00602572 -0.00807329 -0.00490400
v 0.00424167 -0.00647044 0.03455410
v 0.00415641 -0.00641792 0.03562481
v 0.00406476 -0.00636541 0.03653164
v 0.00394752 -0.00631540 0.03728005
v 0.00301180 -0.00649044 0.03818688
v 0.00203985 -0.00661797 0.03841632
v 0.00067996 -0.00671049 0.03855836
v -0.00424163 -0.00646794 0.03455410
v -0.00067993 -0.00671049 0.03855836
v -0.00203981 -0.00661797 0.03841632
v -0.00301603 -0.00649044 0.03818688
v -0.00395388 -0.00632040 0.03728005
v -0.00407112 -0.00636791 0.03655350
v -0.00415637 -0.00641792 0.03564666
v -0.00674613 -0.00769320 0.00054245
v -0.00677170 -0.00771071 -0.00082326
v -0.00676957 -0.00771071 -0.00218351
v -0.00669497 -0.00765570 0.00190270
v -0.00661611 -0.00760068 0.00326295
v -0.00675252 -0.00769821 -0.00354375
v -0.00670989 -0.00766320 -0.00490400
v -0.00723210 -0.00676050 -0.00583268
v -0.00620899 -0.00715059 -0.00601296
v -0.00476172 -0.00705306 -0.00626425
v 0.00476175 -0.00705306 -0.00625879
v 0.00620903 -0.00714809 -0.00601296
v 0.00723001 -0.00676050 -0.00583268
v 0.00670566 -0.00766070 -0.00490400
v 0.00676961 -0.00771071 -0.00218351
v 0.00675256 -0.00769821 -0.00354375
v 0.00677174 -0.00771071 -0.00082326
v 0.00674616 -0.00769320 0.00054245
v 0.00669501 -0.00765570 0.00190270
v 0.00661614 -0.00760068 0.00326295
v 0.00492161 -0.00602534 0.03455410
v 0.00467010 -0.00603784 0.03601267
v 0.00476175 -0.00583530 0.03728005
v 0.00558664 -0.00512264 0.03832892
v 0.00486619 -0.00542271 0.03872771
v 0.00203985 -0.00624539 0.03909372
v 0.00539054 -0.00498761 0.03924121
v 0.00448253 -0.00520266 0.03962361
v 0.00344023 -0.00609786 0.03864030
v 0.00336989 -0.00535769 0.04004971
v 0.00067996 -0.00632791 0.03924121
v -0.00492158 -0.00602534 0.03455410
v -0.00067993 -0.00632791 0.03924121
v -0.00203981 -0.00624539 0.03909372
v -0.00344233 -0.00610036 0.03864030
v -0.00539050 -0.00498761 0.03924121
v -0.00486616 -0.00542521 0.03872771
v -0.00337199 -0.00535769 0.04004971
v -0.00558660 -0.00512514 0.03833438
v -0.00476172 -0.00584030 0.03728005
v -0.00467219 -0.00604284 0.03602906
v -0.00745378 -0.00701306 0.00054245
v -0.00741754 -0.00697555 0.00190270
v -0.00747509 -0.00703056 -0.00082326
v -0.00816569 -0.00637542 -0.00265331
v -0.00761790 -0.00690053 -0.00218897
v -0.00816569 -0.00637542 -0.00303571
v -0.00761790 -0.00689053 -0.00351098
v -0.00736639 -0.00692054 0.00326295
v -0.00577630 -0.00528268 0.03591981
v -0.00645838 -0.00469255 0.03591981
v -0.00814438 -0.00635291 -0.00490400
v -0.00746230 -0.00698055 -0.00490400
v -0.00846197 -0.00544271 -0.00583268
v -0.00760511 -0.00581529 -0.00603481
v -0.00748362 -0.00433247 -0.00633527
v 0.00748366 -0.00433247 -0.00633527
v 0.00760515 -0.00581279 -0.00603481
v 0.00846201 -0.00544021 -0.00583268
v 0.00814228 -0.00635041 -0.00490400
v 0.00746234 -0.00698055 -0.00490400
v 0.00761794 -0.00689053 -0.00350551
v 0.00816573 -0.00637542 -0.00302479
v 0.00761794 -0.00690053 -0.00218897
v 0.00816147 -0.00636791 -0.00393162
v 0.00816573 -0.00637542 -0.00265331
v 0.00747513 -0.00703056 -0.00082326
v 0.00745381 -0.00701306 0.00054245
v 0.00741758 -0.00697555 0.00190270
v 0.00736642 -0.00692054 0.00326295
v 0.00645628 -0.00469255 0.03591981
v 0.00577634 -0.00528018 0.03591981
v 0.00569960 -0.00521266 0.03728005
v 0.00701047 -0.00386487 0.03864030
v 0.00691242 -0.00375734 0.03950889
v 0.00289670 -0.00506763 0.04077627
v 0.00203985 -0.00571527 0.04000055
v 0.00067996 -0.00525267 0.04109312
v 0.00612377 -0.00405991 0.03997870
v 0.00567189 -0.00379735 0.04090192
v 0.00486619 -0.00475756 0.04004971
v 0.00472765 -0.00400490 0.04136080
v 0.00425020 -0.00373484 0.04213652
v 0.00380472 -0.00492010 0.04053044
v 0.00336989 -0.00460753 0.04128432
v -0.00569957 -0.00521516 0.03728005
v -0.00067993 -0.00525267 0.04109312
v -0.00203981 -0.00571777 0.04000055
v -0.00289880 -0.00507013 0.04077627
v -0.00448249 -0.00520266 0.03962361
v -0.00486616 -0.00475756 0.04004971
v -0.00567186 -0.00379735 0.04090192
v -0.00612373 -0.00405991 0.03997870
v -0.00691238 -0.00375734 0.03950889
v -0.00337199 -0.00460753 0.04128432
v -0.00380468 -0.00492010 0.04053044
v -0.00701256 -0.00386487 0.03864030
v -0.00813372 -0.00633541 0.00054245
v -0.00815717 -0.00636291 -0.00082326
v -0.00809749 -0.00629040 0.00190270
v -0.00816143 -0.00637042 -0.00174648
v -0.00854084 -0.00582780 -0.00218897
v -0.00854297 -0.00582530 -0.00351098
v -0.00816143 -0.00636791 -0.00394254
v -0.00804846 -0.00622788 0.00326295
v -0.00708077 -0.00394989 0.03728005
v -0.00637951 -0.00463003 0.03728005
v -0.00861970 -0.00567026 -0.00490400
v -0.00888614 -0.00428746 -0.00594194
v -0.00959805 -0.00380486 -0.00568519
v -0.00884564 -0.00297217 -0.00620962
v -0.00748362 -0.00297217 -0.00633527
v 0.00748366 -0.00297217 -0.00633527
v 0.00884567 -0.00297217 -0.00621508
v 0.00888830 -0.00428996 -0.00594194
v 0.00960022 -0.00380736 -0.00568519
v 0.00861974 -0.00567026 -0.00490400
v 0.00854087 -0.00582780 -0.00218897
v 0.00854087 -0.00582530 -0.00350551
v 0.00816147 -0.00637042 -0.00174648
v 0.00815720 -0.00636291 -0.00082326
v 0.00813376 -0.00633541 0.00054245
v 0.00809752 -0.00629040 0.00190270
v 0.00804850 -0.00622788 0.00326295
v 0.00707867 -0.00394989 0.03728005
v 0.00637955 -0.00463003 0.03728005
v 0.00769254 -0.00307470 0.03864030
v 0.00820197 -0.00234204 0.03944334
v 0.00802932 -0.00214449 0.04035017
v 0.00712130 -0.00258459 0.04106580
v 0.00657991 -0.00349229 0.04041572
v 0.00203985 -0.00475506 0.04161755
v 0.00203985 -0.00516265 0.04093469
v 0.00067996 -0.00484258 0.04177597
v 0.00620050 -0.00302719 0.04143727
v 0.00515821 -0.00347228 0.04180875
v 0.00582110 -0.00256458 0.04223485
v 0.00289244 0.00155632 0.04764853
v 0.00203985 0.00061861 0.04732622
v 0.00340187 -0.00389487 0.04228401
v -0.00067993 -0.00484258 0.04177597
v -0.00203981 -0.00475506 0.04161755
v -0.00203981 -0.00516265 0.04093469
v -0.00425016 -0.00373484 0.04213652
v -0.00472761 -0.00400490 0.04136080
v -0.00657774 -0.00348729 0.04041572
v -0.00515817 -0.00347228 0.04180875
v -0.00620047 -0.00302719 0.04143727
v -0.00819980 -0.00234204 0.03944334
v -0.00712127 -0.00258209 0.04106580
v -0.00802928 -0.00214699 0.04035017
v -0.00340183 -0.00389237 0.04228401
v -0.00769251 -0.00306219 0.03864030
v -0.00860052 -0.00565526 0.00054245
v -0.00857281 -0.00560775 0.00190270
v -0.00861970 -0.00568277 -0.00082326
v -0.00853444 -0.00554774 0.00326295
v -0.00931243 -0.00458753 -0.00218351
v -0.00931456 -0.00459253 -0.00354375
v -0.00929964 -0.00457252 -0.00490400
v -0.00975791 -0.00297217 -0.00583815
v -0.00963855 -0.00389237 -0.00490400
v -0.00999451 -0.00297217 -0.00490400
v -0.00884564 -0.00160938 -0.00618777
v -0.00748362 0.01063580 -0.00618231
v -0.00980694 -0.00160938 -0.00587092
v -0.00476172 0.01335639 -0.00620962
v 0.00476175 0.01335639 -0.00621508
v 0.00748366 0.01063580 -0.00618231
v 0.00884567 0.00927550 -0.00597472
v 0.00980484 -0.00160938 -0.00587092
v 0.00976008 -0.00297217 -0.00583815
v 0.00999454 -0.00297217 -0.00490400
v 0.00963859 -0.00389237 -0.00490400
v 0.00929968 -0.00457252 -0.00490400
v 0.00931460 -0.00459003 -0.00354375
v 0.00931247 -0.00458753 -0.00218351
v 0.00861974 -0.00568277 -0.00082326
v 0.00860055 -0.00565526 0.00054245
v 0.00857284 -0.00560775 0.00190270
v 0.00853448 -0.00554774 0.00326295
v 0.00823394 -0.00239455 0.03864030
v 0.00863679 -0.00160938 0.03864030
v 0.00846840 -0.00165939 0.03994046
v 0.00836822 -0.00123679 0.04090738
v 0.00203985 -0.00407491 0.04241512
v 0.00109773 0.00046358 0.04745732
v 0.00018972 0.00041107 0.04750649
v 0.00304378 0.00247152 0.04788343
v 0.00280292 0.00429941 0.04889952
v 0.00248533 0.00339172 0.04875748
v 0.00203558 0.00252903 0.04852804
v 0.00203985 0.00129876 0.04783426
v 0.00203985 -0.00004403 0.04664882
v -0.00203981 -0.00407491 0.04241512
v -0.00018968 0.00041107 0.04750649
v -0.00109770 0.00046358 0.04745732
v -0.00203981 0.00061611 0.04732622
v -0.00289667 0.00155382 0.04765399
v -0.00582106 -0.00256708 0.04223485
v -0.00846837 -0.00165939 0.03993499
v -0.00862823 -0.00160938 0.03864030
v -0.00921438 -0.00439248 0.00326295
v -0.00836819 -0.00123929 0.04090738
v -0.00203981 -0.00004403 0.04664882
v -0.00928046 -0.00451501 0.00054245
v -0.00930178 -0.00455752 -0.00082326
v -0.00925275 -0.00446000 0.00190270
v -0.00963855 -0.00390488 -0.00218351
v -0.00964281 -0.00391238 -0.00354375
v -0.01011813 -0.00160938 -0.00490400
v -0.00999024 -0.00297217 -0.00354375
v -0.01032702 -0.00160938 -0.00082326
v -0.01032915 -0.00160938 -0.00218351
v -0.01061690 -0.00024908 -0.00082326
v -0.01076610 0.00111122 -0.00082326
v -0.00884564 0.00927550 -0.00597472
v -0.00887335 0.01056828 -0.00588732
v -0.00758593 0.01209362 -0.00600203
v -0.00992204 0.00791770 -0.00498048
v -0.00963216 0.00927550 -0.00569065
v -0.00067993 0.01471919 -0.00616592
v -0.00618342 0.01343641 -0.00598565
v -0.00476172 0.01447414 -0.00590917
v -0.00203981 0.01471919 -0.00613314
v 0.00067996 0.01471919 -0.00616592
v 0.00203985 0.01471919 -0.00613314
v 0.00476175 0.01447414 -0.00590917
v 0.00618345 0.01343641 -0.00598565
v 0.00758597 0.01209362 -0.00600203
v 0.00887338 0.01056828 -0.00588732
v 0.00963219 0.00927550 -0.00569065
v 0.00992420 0.00792020 -0.00498048
v 0.01011817 -0.00160938 -0.00490400
v 0.00998815 -0.00297217 -0.00354375
v 0.00963859 -0.00390488 -0.00218351
v 0.00964285 -0.00390988 -0.00354375
v 0.01076827 0.00111122 -0.00082326
v 0.01062120 -0.00024908 -0.00082326
v 0.01032919 -0.00160938 -0.00218351
v 0.01032705 -0.00160938 -0.00082326
v 0.00930181 -0.00455752 -0.00082326
v 0.00928050 -0.00451501 0.00054245
v 0.00925279 -0.00446000 0.00190270
v 0.00921442 -0.00439248 0.00326295
v 0.00932739 -0.00035160 0.03455410
v 0.00954480 0.00037356 0.03528612
v 0.00953201 -0.00366482 0.00404413
v 0.01000520 0.00519211 0.03864030
v 0.00287326 0.00519211 0.04895414
v 0.00974516 0.00519211 0.03957991
v 0.00065865 0.00099619 0.04787796
v 0.00203985 0.00519211 0.04923821
v 0.00203558 0.00383931 0.04901970
v 0.00157945 0.00301913 0.04890498
v 0.00067996 0.00221396 0.04864276
v -0.00065861 0.00099619 0.04787796
v -0.00203981 0.00129626 0.04783426
v -0.00203555 0.00252903 0.04852804
v -0.00248742 0.00338922 0.04876294
v -0.00280288 0.00429691 0.04889952
v -0.00304587 0.00247152 0.04788889
v -0.01003074 0.00519211 0.03728005
v -0.00954690 0.00036856 0.03529158
v -0.00932735 -0.00035910 0.03455410
v -0.00953198 -0.00366482 0.00404413
v -0.00955116 -0.00370983 0.00326295
v -0.00287322 0.00519211 0.04895414
v -0.00963002 0.00565471 0.03942149
v -0.00978989 0.00519711 0.03867308
v -0.00960658 -0.00383486 0.00054245
v -0.00958100 -0.00377985 0.00190270
v -0.00962576 -0.00387737 -0.00082326
v -0.01039096 0.00655241 -0.00354375
v -0.01036965 0.00791270 -0.00354375
v -0.01088760 0.00413938 -0.00150612
v -0.01088760 0.00451696 -0.00150612
v -0.00996467 -0.00297217 -0.00218351
v -0.00993269 -0.00297217 -0.00082326
v -0.00989433 -0.00297217 0.00054245
v -0.01028652 -0.00160938 0.00054245
v -0.01074266 0.00111122 0.00054245
v -0.00974299 0.00111122 0.03455410
v -0.00996253 0.00247152 0.03455410
v -0.01083857 0.00247152 0.00054245
v -0.01084710 0.00247152 -0.00082326
v -0.00957460 0.01006817 -0.00564148
v -0.00843852 0.01170353 -0.00579445
v -0.00719800 0.01303632 -0.00582176
v -0.00988580 0.00927550 -0.00490400
v -0.00067993 0.01562939 -0.00583268
v -0.00576991 0.01423408 -0.00576713
v -0.00343380 0.01481171 -0.00594194
v -0.00300111 0.01547935 -0.00567973
v -0.00203981 0.01556687 -0.00577806
v 0.00067996 0.01562939 -0.00583268
v 0.00203985 0.01556687 -0.00577806
v 0.00343384 0.01481171 -0.00594194
v 0.00300115 0.01547935 -0.00567973
v 0.00576994 0.01423408 -0.00576713
v 0.00719804 0.01303382 -0.00582176
v 0.00843856 0.01170353 -0.00579445
v 0.00957464 0.01007068 -0.00564148
v 0.00988584 0.00927550 -0.00490400
v 0.01037182 0.00791270 -0.00354375
v 0.01039100 0.00655241 -0.00354375
v 0.01088763 0.00451696 -0.00150612
v 0.01088550 0.00314916 -0.00150065
v 0.00996470 -0.00297217 -0.00218351
v 0.00962580 -0.00387737 -0.00082326
v 0.01085353 0.00260905 -0.00095437
v 0.01083648 0.00247152 0.00054245
v 0.01074482 0.00111122 0.00054245
v 0.01028656 -0.00160938 0.00054245
v 0.00996683 0.00247152 0.03455410
v 0.00974090 0.00111122 0.03455410
v 0.00993273 -0.00297217 -0.00082326
v 0.00989436 -0.00297217 0.00054245
v 0.00960661 -0.00383486 0.00054245
v 0.00958103 -0.00377985 0.00190270
v 0.00955119 -0.00370983 0.00326295
v 0.00984747 -0.00297217 0.00190270
v 0.00955972 0.00032855 0.03455410
v 0.01006488 0.00383181 0.03455410
v 0.01004357 0.00519211 0.03728005
v 0.00986452 0.00655241 0.03864030
v 0.00967695 0.00655241 0.03951982
v 0.00286473 0.00655241 0.04894868
v 0.00067996 0.00519211 0.04947311
v 0.00203985 0.00655241 0.04922182
v 0.00067996 0.00383181 0.04924367
v 0.00067996 0.00289411 0.04895961
v -0.00067993 0.00221396 0.04864276
v -0.00157941 0.00301913 0.04890498
v -0.00203555 0.00383931 0.04901970
v -0.00203981 0.00519211 0.04923821
v -0.01006271 0.00383181 0.03455410
v -0.00981120 0.00655241 0.03864030
v -0.00989220 0.00655241 0.03728005
v -0.01088760 0.00451696 -0.00148973
v -0.01088760 0.00413938 -0.00148973
v -0.00956182 0.00032105 0.03455410
v -0.00984743 -0.00297217 0.00190270
v -0.00286470 0.00655241 0.04894868
v -0.00962576 0.00655241 0.03942149
v -0.00997319 0.00927550 -0.00354375
v -0.00962576 0.01017070 -0.00490400
v -0.01064461 0.00655241 -0.00218351
v -0.00966200 0.00769266 0.03728005
v -0.01023963 -0.00160938 0.00190270
v -0.00927620 0.01085085 -0.00490400
v -0.00859412 0.01190107 -0.00490400
v -0.00808044 0.01258372 -0.00490400
v -0.00740049 0.01321386 -0.00490400
v -0.00660758 0.01389401 -0.00490400
v -0.00067993 0.01586194 -0.00490400
v -0.00592764 0.01433410 -0.00490400
v -0.00476172 0.01492173 -0.00490400
v -0.00380468 0.01530432 -0.00490400
v -0.00312474 0.01550936 -0.00490400
v -0.00203981 0.01572441 -0.00490400
v 0.00067996 0.01586194 -0.00490400
v 0.00203985 0.01572441 -0.00490400
v 0.00312477 0.01550936 -0.00490400
v 0.00380472 0.01530432 -0.00490400
v 0.00476175 0.01492173 -0.00490400
v 0.00593407 0.01433410 -0.00490400
v 0.00661401 0.01390151 -0.00490400
v 0.00740479 0.01322136 -0.00490400
v 0.00808473 0.01258622 -0.00490400
v 0.00858990 0.01190607 -0.00490400
v 0.00927197 0.01084584 -0.00490400
v 0.00962580 0.01016570 -0.00490400
v 0.01064464 0.00655241 -0.00218351
v 0.00997323 0.00927550 -0.00354375
v 0.00966416 0.00768765 0.03728005
v 0.01088763 0.00451696 -0.00148973
v 0.01023966 -0.00160938 0.00190270
v 0.01019064 -0.00160938 0.00326295
v 0.00990076 0.00655241 0.03728005
v 0.00962366 0.00749011 0.03864030
v 0.00956185 0.00728757 0.03936686
v 0.00690602 0.01011068 0.04220207
v 0.00279013 0.00740259 0.04889405
v -0.00067993 0.00519211 0.04947311
v 0.00067996 0.00655241 0.04945673
v 0.00200148 0.00788020 0.04899785
v -0.00067993 0.00383181 0.04924367
v -0.00067993 0.00289411 0.04895961
v -0.00203981 0.00655241 0.04922182
v -0.00955329 0.00727506 0.03935047
v -0.00961510 0.00748261 0.03864030
v -0.01019060 -0.00160938 0.00326295
v -0.00279223 0.00740009 0.04889405
v -0.00962363 0.01015069 -0.00354375
v -0.00946803 0.00839781 0.03591981
v -0.00942966 0.00837280 0.03728005
v -0.00909928 0.00927550 0.03591981
v -0.00847476 0.01040325 0.03591981
v -0.00801862 0.01111840 0.03455410
v -0.00733655 0.01181856 0.03455410
v -0.00003195 0.01404154 0.04074896
v -0.00544166 0.01403904 0.00802654
v -0.00476172 0.01435911 0.00734369
v -0.00340183 0.01322636 0.04136080
v -0.00203981 0.01370147 0.04136080
v -0.00056269 0.01396402 0.04126793
v 0.00003199 0.01404154 0.04074896
v 0.00056273 0.01396402 0.04126793
v 0.00203985 0.01370397 0.04136080
v 0.00476175 0.01436161 0.00734369
v 0.00340187 0.01322636 0.04136080
v 0.00544383 0.01403904 0.00802654
v 0.00735363 0.01181856 0.03455410
v 0.00803358 0.01114091 0.03455410
v 0.00848119 0.01046076 0.03455410
v 0.00962153 0.01014319 -0.00354375
v 0.00847479 0.01041325 0.03591981
v 0.00946167 0.00838281 0.03591981
v 0.00942544 0.00836780 0.03728005
v 0.00836822 0.01023071 0.03691951
v 0.00566124 0.01153349 0.04232772
v 0.00290310 0.01150849 0.04634291
v 0.00287326 0.01014819 0.04762667
v 0.00303099 0.00927550 0.04785065
v 0.00242778 0.00831029 0.04874109
v -0.00067993 0.00655241 0.04945673
v 0.00067996 0.00791270 0.04921090
v 0.00152190 0.00869037 0.04888859
v -0.00199931 0.00787770 0.04899785
v -0.00837032 0.01023321 0.03691951
v -0.00690599 0.01011068 0.04220207
v -0.00242348 0.00830529 0.04874109
v -0.00287322 0.01014819 0.04762667
v -0.00302882 0.00927550 0.04785065
v -0.00790352 0.01108339 0.03591981
v -0.00722145 0.01167102 0.03591981
v -0.00420753 0.01275126 0.04215837
v -0.00428426 0.01280377 0.04136080
v -0.00067993 0.01380149 0.04272104
v -0.00339757 0.01300381 0.04265549
v -0.00203981 0.01355894 0.04272104
v 0.00067996 0.01380149 0.04272104
v 0.00203985 0.01355894 0.04272104
v 0.00339760 0.01300381 0.04265549
v 0.00420757 0.01275126 0.04215837
v 0.00427790 0.01280377 0.04136080
v 0.00722788 0.01167102 0.03591981
v 0.00790782 0.01109340 0.03591981
v 0.00909079 0.00927550 0.03591981
v 0.00277095 0.01271375 0.04482970
v 0.00203985 0.01240118 0.04570922
v 0.00203985 0.01172103 0.04657235
v 0.00203985 0.01106089 0.04725520
v 0.00203985 0.01037824 0.04779056
v 0.00200148 0.00919548 0.04848434
v -0.00067993 0.00791270 0.04921090
v 0.00067996 0.00879540 0.04893776
v 0.00067996 0.00947554 0.04860452
v -0.00151760 0.00869037 0.04888859
v -0.00566333 0.01153349 0.04232772
v -0.00290306 0.01150849 0.04634291
v -0.00199931 0.00919548 0.04848434
v -0.00203981 0.01037824 0.04779056
v -0.00203981 0.01106089 0.04725520
v -0.00496421 0.01232367 0.04136080
v -0.00276878 0.01271375 0.04482970
v -0.00292438 0.01285378 0.04408129
v -0.00067993 0.01345141 0.04408129
v -0.00203981 0.01320886 0.04408129
v 0.00067996 0.01345141 0.04408129
v 0.00203985 0.01320886 0.04408129
v 0.00292441 0.01285378 0.04408129
v 0.00203985 0.01282127 0.04502636
v 0.00067996 0.01255122 0.04593319
v 0.00067996 0.01187107 0.04673623
v 0.00067996 0.01124093 0.04741909
v 0.00067996 0.01056078 0.04792167
v -0.00067993 0.00879540 0.04893776
v -0.00067993 0.00947554 0.04860452
v -0.00203981 0.01172103 0.04657781
v -0.00203981 0.01240118 0.04570922
v -0.00067993 0.01056078 0.04792167
v -0.00067993 0.01124093 0.04741909
v -0.00203981 0.01282127 0.04502636
v -0.00067993 0.01294380 0.04525034
v 0.00067996 0.01294380 0.04525034
v -0.00067993 0.01255122 0.04593319
v -0.00067993 0.01187107 0.04673623
f 1 2 3
f 1 3 4
f 1 4 13
f 1 13 5
f 1 5 18
f 1 18 6
f 1 6 7
f 1 7 2
f 2 8 3
f 2 7 8
f 3 8 9
f 3 9 10
f 3 10 11
f 3 11 12
f 3 12 4
f 4 12 14
f 4 14 13
f 5 13 15
f 5 15 16
f 5 16 17
f 5 17 18
f 6 18 19
f 6 19 20
f 6 20 22
f 6 22 7
f 7 21 8
f 7 22 23
f 7 23 21
f 8 24 25
f 8 25 9
f 8 21 26
f 8 26 24
f 9 25 27
f 9 27 10
f 10 27 28
f 10 28 29
f 10 29 30
f 10 30 11
f 11 30 12
f 12 30 31
f 12 31 14
f 13 14 32
f 13 32 15
f 14 33 32
f 14 31 34
f 14 34 33
f 15 35 36
f 15 36 16
f 15 32 63
f 15 63 35
f 16 36 37
f 16 37 17
f 17 37 38
f 17 38 39
f 17 39 18
f 18 39 19
f 19 39 40
f 19 40 41
f 19 41 20
f 20 41 42
f 20 42 22
f 21 23 43
f 21 43 26
f 22 42 44
f 22 44 45
f 22 45 23
f 23 45 46
f 23 46 43
f 24 47 25
f 24 26 49
f 24 49 47
f 25 47 48
f 25 48 51
f 25 51 27
f 26 43 50
f 26 50 49
f 27 51 29
f 27 29 28
f 29 52 53
f 29 53 54
f 29 54 55
f 29 55 56
f 29 56 57
f 29 57 58
f 29 58 59
f 29 59 30
f 29 51 52
f 30 59 60
f 30 60 61
f 30 61 31
f 31 61 62
f 31 62 34
f 32 33 34
f 32 34 63
f 34 62 64
f 34 64 65
f 34 65 66
f 34 66 67
f 34 67 68
f 34 68 69
f 34 69 70
f 34 70 63
f 35 71 36
f 35 63 72
f 35 72 71
f 36 71 73
f 36 73 74
f 36 74 37
f 37 74 75
f 37 75 38
f 38 75 76
f 38 76 77
f 38 77 40
f 38 40 39
f 40 77 78
f 40 78 41
f 41 78 79
f 41 79 42
f 42 79 80
f 42 80 81
f 42 81 44
f 43 46 50
f 44 81 82
f 44 82 45
f 45 82 83
f 45 83 46
f 46 83 84
f 46 84 50
f 47 85 86
f 47 86 48
f 47 49 87
f 47 87 85
f 48 86 88
f 48 88 51
f 49 50 89
f 49 89 87
f 50 84 90
f 50 90 89
f 51 88 91
f 51 91 92
f 51 92 52
f 52 92 93
f 52 93 94
f 52 94 54
f 52 54 53
f 54 94 55
f 55 94 95
f 55 95 96
f 55 96 97
f 55 97 56
f 56 97 98
f 56 98 103
f 56 103 66
f 56 66 60
f 56 60 99
f 56 99 57
f 57 99 58
f 58 99 60
f 58 60 59
f 60 66 61
f 61 66 100
f 61 100 64
f 61 64 62
f 63 101 72
f 63 70 102
f 63 102 101
f 64 100 65
f 65 100 66
f 66 103 104
f 66 104 67
f 67 104 105
f 67 105 106
f 67 106 107
f 67 107 68
f 68 107 70
f 68 70 69
f 70 107 108
f 70 108 102
f 71 109 110
f 71 110 73
f 71 72 111
f 71 111 109
f 72 101 112
f 72 112 111
f 73 113 74
f 73 110 113
f 74 113 114
f 74 114 75
f 75 114 115
f 75 115 76
f 76 115 116
f 76 116 78
f 76 78 77
f 78 116 117
f 78 117 79
f 79 117 118
f 79 118 80
f 80 118 119
f 80 119 81
f 81 119 120
f 81 120 121
f 81 121 82
f 82 121 122
f 82 122 83
f 83 122 123
f 83 123 90
f 83 90 84
f 85 87 124
f 85 124 125
f 85 125 86
f 86 125 126
f 86 126 127
f 86 127 88
f 87 89 128
f 87 128 124
f 88 127 129
f 88 129 91
f 89 90 130
f 89 130 128
f 90 123 130
f 91 129 131
f 91 131 93
f 91 93 92
f 93 131 94
f 94 131 132
f 94 132 95
f 95 132 133
f 95 133 134
f 95 134 96
f 96 134 135
f 96 135 97
f 97 135 136
f 97 136 98
f 98 136 137
f 98 137 103
f 101 102 108
f 101 108 138
f 101 138 112
f 103 137 139
f 103 139 140
f 103 140 104
f 104 140 141
f 104 141 105
f 105 141 142
f 105 142 106
f 106 142 143
f 106 143 144
f 106 144 107
f 107 144 108
f 108 144 138
f 109 145 146
f 109 146 110
f 109 111 145
f 110 146 147
f 110 147 113
f 111 112 148
f 111 148 145
f 112 149 148
f 112 138 149
f 113 147 150
f 113 150 114
f 114 150 115
f 115 151 116
f 115 150 151
f 116 152 153
f 116 153 117
f 116 151 152
f 117 153 154
f 117 154 118
f 118 154 119
f 119 154 155
f 119 155 120
f 120 155 121
f 121 155 122
f 122 155 156
f 122 156 123
f 123 156 157
f 123 157 158
f 123 158 130
f 124 159 125
f 124 128 160
f 124 160 159
f 125 161 126
f 125 159 161
f 126 161 162
f 126 162 127
f 127 163 129
f 127 162 163
f 128 130 160
f 129 163 164
f 129 164 131
f 130 158 160
f 131 165 132
f 131 164 165
f 132 166 167
f 132 167 133
f 132 165 166
f 133 167 134
f 134 167 168
f 134 168 169
f 134 169 135
f 135 170 136
f 135 169 171
f 135 171 172
f 135 172 173
f 135 173 174
f 135 174 170
f 136 170 137
f 137 170 175
f 137 175 177
f 137 177 139
f 138 144 176
f 138 176 149
f 139 177 178
f 139 178 140
f 140 178 141
f 141 179 180
f 141 180 181
f 141 181 142
f 141 178 182
f 141 182 179
f 142 181 183
f 142 183 184
f 142 184 143
f 143 185 144
f 143 184 185
f 144 185 176
f 145 186 146
f 145 148 187
f 145 187 186
f 146 188 189
f 146 189 190
f 146 190 147
f 146 186 188
f 147 190 191
f 147 191 192
f 147 192 150
f 148 149 193
f 148 193 187
f 149 176 194
f 149 194 195
f 149 195 193
f 150 192 196
f 150 196 197
f 150 197 151
f 151 197 152
f 152 198 199
f 152 199 153
f 152 197 196
f 152 196 198
f 153 199 200
f 153 200 154
f 154 200 201
f 154 201 155
f 155 201 156
f 156 201 202
f 156 202 157
f 157 202 203
f 157 203 204
f 157 204 205
f 157 205 158
f 158 205 160
f 159 160 206
f 159 206 207
f 159 207 208
f 159 208 161
f 160 205 204
f 160 204 209
f 160 209 206
f 161 208 210
f 161 210 211
f 161 211 212
f 161 212 162
f 162 212 213
f 162 213 163
f 163 213 214
f 163 214 164
f 164 214 215
f 164 215 216
f 164 216 165
f 165 216 217
f 165 217 166
f 166 217 167
f 167 217 168
f 168 217 218
f 168 218 219
f 168 219 171
f 168 171 169
f 170 174 220
f 170 220 221
f 170 221 222
f 170 222 175
f 171 219 223
f 171 223 224
f 171 224 225
f 171 225 172
f 172 225 226
f 172 226 227
f 172 227 228
f 172 228 174
f 172 174 173
f 174 228 229
f 174 229 220
f 175 222 231
f 175 231 177
f 176 185 230
f 176 230 194
f 177 231 178
f 178 231 232
f 178 232 233
f 178 233 182
f 179 234 180
f 179 182 234
f 180 234 235
f 180 235 236
f 180 236 237
f 180 237 238
f 180 238 183
f 180 183 181
f 182 233 239
f 182 239 240
f 182 240 234
f 183 241 230
f 183 230 184
f 183 238 241
f 184 230 185
f 186 242 243
f 186 243 188
f 186 187 242
f 187 193 244
f 187 244 242
f 188 243 245
f 188 245 189
f 189 191 190
f 189 245 246
f 189 246 247
f 189 247 191
f 191 247 248
f 191 248 192
f 192 248 196
f 193 249 244
f 193 195 250
f 193 250 249
f 194 230 251
f 194 251 195
f 195 251 250
f 196 252 198
f 196 248 252
f 198 253 199
f 198 252 254
f 198 254 253
f 199 255 200
f 199 253 255
f 200 255 256
f 200 256 257
f 200 257 201
f 201 257 258
f 201 258 202
f 202 258 259
f 202 259 203
f 203 259 260
f 203 260 261
f 203 261 204
f 204 261 209
f 206 209 207
f 207 262 210
f 207 210 208
f 207 209 263
f 207 263 262
f 209 261 263
f 210 262 264
f 210 264 211
f 211 264 265
f 211 265 212
f 212 265 266
f 212 266 213
f 213 267 214
f 213 266 267
f 214 267 268
f 214 268 269
f 214 269 215
f 215 269 270
f 215 270 216
f 216 270 217
f 217 270 218
f 218 270 269
f 218 269 271
f 218 271 272
f 218 272 219
f 219 272 273
f 219 273 274
f 219 274 275
f 219 275 223
f 220 229 276
f 220 276 277
f 220 277 221
f 221 277 222
f 222 277 276
f 222 276 278
f 222 278 285
f 222 285 231
f 223 275 224
f 224 226 225
f 224 275 279
f 224 279 280
f 224 280 226
f 226 280 227
f 227 280 281
f 227 281 282
f 227 282 283
f 227 283 284
f 227 284 229
f 227 229 228
f 229 284 276
f 230 241 251
f 231 285 286
f 231 286 287
f 231 287 232
f 232 287 233
f 233 287 286
f 233 286 239
f 234 240 288
f 234 288 289
f 234 289 235
f 235 289 236
f 236 290 237
f 236 289 291
f 236 291 292
f 236 292 290
f 237 290 238
f 238 293 241
f 238 290 294
f 238 294 295
f 238 295 293
f 239 286 296
f 239 296 288
f 239 288 240
f 241 297 250
f 241 250 251
f 241 293 297
f 242 298 243
f 242 244 299
f 242 299 298
f 243 300 246
f 243 246 245
f 243 298 300
f 244 249 301
f 244 301 299
f 246 300 302
f 246 302 303
f 246 303 247
f 247 303 252
f 247 252 248
f 249 250 297
f 249 297 293
f 249 293 301
f 252 304 254
f 252 303 304
f 253 254 305
f 253 305 255
f 254 304 306
f 254 306 307
f 254 307 305
f 255 308 309
f 255 309 256
f 255 305 310
f 255 310 308
f 256 309 311
f 256 311 312
f 256 312 257
f 257 312 313
f 257 313 258
f 258 313 314
f 258 314 315
f 258 315 316
f 258 316 259
f 259 316 260
f 260 316 317
f 260 317 318
f 260 318 319
f 260 319 261
f 261 319 320
f 261 320 263
f 262 263 320
f 262 320 321
f 262 321 322
f 262 322 265
f 262 265 264
f 265 322 323
f 265 323 266
f 266 323 324
f 266 324 267
f 267 324 325
f 267 325 268
f 268 325 326
f 268 326 271
f 268 271 269
f 271 326 272
f 272 326 327
f 272 327 328
f 272 328 273
f 273 329 274
f 273 328 329
f 274 329 281
f 274 281 279
f 274 279 275
f 276 284 330
f 276 330 278
f 278 330 331
f 278 331 332
f 278 332 340
f 278 340 285
f 279 281 280
f 281 329 282
f 282 333 334
f 282 334 335
f 282 335 336
f 282 336 337
f 282 337 283
f 282 329 333
f 283 337 331
f 283 331 338
f 283 338 284
f 284 338 331
f 284 331 330
f 285 339 286
f 285 340 341
f 285 341 339
f 286 339 296
f 288 296 342
f 288 342 343
f 288 343 344
f 288 344 291
f 288 291 289
f 290 292 294
f 291 344 292
f 292 344 294
f 293 295 345
f 293 345 346
f 293 346 347
f 293 347 301
f 294 348 295
f 294 344 348
f 295 348 345
f 296 339 341
f 296 341 349
f 296 349 342
f 298 350 351
f 298 351 300
f 298 299 350
f 299 301 352
f 299 352 350
f 300 351 302
f 301 347 352
f 302 351 353
f 302 353 354
f 302 354 303
f 303 354 306
f 303 306 304
f 305 307 355
f 305 355 310
f 306 354 307
f 307 354 356
f 307 356 357
f 307 357 358
f 307 358 359
f 307 359 360
f 307 360 355
f 308 310 361
f 308 361 309
f 309 361 362
f 309 362 363
f 309 363 311
f 310 355 364
f 310 364 365
f 310 365 361
f 311 366 312
f 311 363 367
f 311 367 368
f 311 368 369
f 311 369 366
f 312 366 370
f 312 370 371
f 312 371 372
f 312 372 373
f 312 373 374
f 312 374 313
f 313 374 375
f 313 375 314
f 314 375 376
f 314 376 315
f 315 376 377
f 315 377 378
f 315 378 316
f 316 378 317
f 317 379 380
f 317 380 381
f 317 381 318
f 317 378 382
f 317 382 383
f 317 383 384
f 317 384 385
f 317 385 379
f 318 381 320
f 318 320 319
f 320 381 321
f 321 380 386
f 321 386 322
f 321 381 380
f 322 386 323
f 323 386 387
f 323 387 324
f 324 388 325
f 324 387 388
f 325 388 389
f 325 389 326
f 326 389 327
f 327 390 391
f 327 391 328
f 327 389 392
f 327 392 390
f 328 391 393
f 328 393 329
f 329 394 334
f 329 334 333
f 329 393 395
f 329 395 394
f 331 337 396
f 331 396 332
f 332 396 401
f 332 401 340
f 334 394 397
f 334 397 398
f 334 398 335
f 335 398 399
f 335 399 336
f 336 399 337
f 337 399 400
f 337 400 396
f 340 401 341
f 341 401 402
f 341 402 342
f 341 342 349
f 342 402 343
f 343 402 403
f 343 403 404
f 343 404 405
f 343 405 406
f 343 406 348
f 343 348 344
f 345 407 408
f 345 408 346
f 345 348 407
f 346 408 409
f 346 409 410
f 346 410 347
f 347 410 411
f 347 411 352
f 348 406 405
f 348 405 412
f 348 412 413
f 348 413 414
f 348 414 407
f 350 415 351
f 350 352 416
f 350 416 415
f 351 417 353
f 351 415 417
f 352 411 416
f 353 417 356
f 353 356 354
f 355 418 419
f 355 419 364
f 355 360 420
f 355 420 421
f 355 421 418
f 356 417 422
f 356 422 357
f 357 359 358
f 357 422 423
f 357 423 424
f 357 424 425
f 357 425 359
f 359 426 360
f 359 425 427
f 359 427 428
f 359 428 426
f 360 426 429
f 360 429 430
f 360 430 420
f 361 365 362
f 362 365 431
f 362 431 432
f 362 432 363
f 363 432 433
f 363 433 367
f 364 419 434
f 364 434 365
f 365 434 431
f 366 369 435
f 366 435 440
f 366 440 370
f 367 433 436
f 367 436 368
f 368 437 369
f 368 436 438
f 368 438 437
f 369 437 439
f 369 439 435
f 370 440 371
f 371 440 441
f 371 441 442
f 371 442 372
f 372 442 443
f 372 443 444
f 372 444 373
f 373 444 445
f 373 445 374
f 374 445 446
f 374 446 375
f 375 446 447
f 375 447 376
f 376 447 448
f 376 448 377
f 377 448 449
f 377 449 378
f 378 449 450
f 378 450 451
f 378 451 452
f 378 452 382
f 379 385 453
f 379 453 454
f 379 454 380
f 380 454 386
f 382 452 455
f 382 455 456
f 382 456 457
f 382 457 383
f 383 458 385
f 383 385 384
f 383 457 459
f 383 459 460
f 383 460 458
f 385 461 453
f 385 458 462
f 385 462 461
f 386 454 463
f 386 463 387
f 387 463 464
f 387 464 388
f 388 464 465
f 388 465 389
f 389 465 392
f 390 392 465
f 390 465 391
f 391 465 466
f 391 466 467
f 391 467 460
f 391 460 459
f 391 459 393
f 393 459 468
f 393 468 469
f 393 469 470
f 393 470 471
f 393 471 395
f 394 472 397
f 394 395 472
f 395 471 472
f 396 400 477
f 396 477 401
f 397 473 398
f 397 472 474
f 397 474 530
f 397 530 473
f 398 473 475
f 398 475 399
f 399 475 476
f 399 476 400
f 400 476 533
f 400 533 477
f 401 477 402
f 402 477 478
f 402 478 403
f 403 478 404
f 404 478 479
f 404 479 405
f 405 479 480
f 405 480 412
f 407 481 428
f 407 428 408
f 407 414 482
f 407 482 483
f 407 483 484
f 407 484 485
f 407 485 429
f 407 429 481
f 408 428 427
f 408 427 486
f 408 486 487
f 408 487 411
f 408 411 409
f 409 411 410
f 411 487 416
f 412 480 488
f 412 488 489
f 412 489 413
f 413 489 482
f 413 482 414
f 415 424 423
f 415 423 417
f 415 416 424
f 416 487 424
f 417 423 422
f 418 421 419
f 419 490 491
f 419 491 434
f 419 421 492
f 419 492 493
f 419 493 490
f 420 430 485
f 420 485 484
f 420 484 421
f 421 484 492
f 424 487 494
f 424 494 425
f 425 494 486
f 425 486 427
f 426 428 481
f 426 481 429
f 429 485 430
f 431 434 491
f 431 491 495
f 431 495 496
f 431 496 432
f 432 496 497
f 432 497 433
f 433 497 498
f 433 498 499
f 433 499 436
f 435 439 500
f 435 500 506
f 435 506 440
f 436 499 501
f 436 501 502
f 436 502 438
f 437 438 439
f 438 502 503
f 438 503 504
f 438 504 505
f 438 505 439
f 439 505 500
f 440 506 441
f 441 506 507
f 441 507 443
f 441 443 442
f 443 507 508
f 443 508 509
f 443 509 510
f 443 510 444
f 444 510 511
f 444 511 512
f 444 512 445
f 445 512 513
f 445 513 514
f 445 514 446
f 446 514 515
f 446 515 447
f 447 515 516
f 447 516 517
f 447 517 448
f 448 517 449
f 449 518 451
f 449 451 450
f 449 517 519
f 449 519 520
f 449 520 518
f 451 518 521
f 451 521 452
f 452 521 469
f 452 469 456
f 452 456 455
f 453 461 454
f 454 461 463
f 456 469 468
f 456 468 457
f 457 468 459
f 458 460 522
f 458 522 466
f 458 466 462
f 460 467 522
f 461 462 463
f 462 466 464
f 462 464 463
f 464 466 465
f 466 522 523
f 466 523 467
f 467 523 522
f 469 524 470
f 469 521 524
f 470 524 520
f 470 520 525
f 470 525 526
f 470 526 471
f 471 526 527
f 471 527 528
f 471 528 472
f 472 528 474
f 473 529 532
f 473 532 475
f 473 530 571
f 473 571 529
f 474 528 531
f 474 531 530
f 475 532 533
f 475 533 476
f 477 533 478
f 478 533 532
f 478 532 479
f 479 532 529
f 479 529 480
f 480 529 571
f 480 571 534
f 480 534 488
f 482 489 535
f 482 535 536
f 482 536 493
f 482 493 483
f 483 493 492
f 483 492 484
f 486 494 537
f 486 537 487
f 487 537 494
f 488 534 538
f 488 538 489
f 489 538 535
f 490 539 491
f 490 493 540
f 490 540 539
f 491 539 495
f 493 536 541
f 493 541 540
f 495 539 542
f 495 542 543
f 495 543 496
f 496 543 544
f 496 544 497
f 497 544 545
f 497 545 498
f 498 545 499
f 499 545 501
f 500 505 546
f 500 546 552
f 500 552 506
f 501 545 547
f 501 547 502
f 502 547 548
f 502 548 503
f 503 548 549
f 503 549 550
f 503 550 504
f 504 550 505
f 505 550 551
f 505 551 546
f 506 552 507
f 507 552 553
f 507 553 554
f 507 554 508
f 508 554 509
f 509 555 510
f 509 554 556
f 509 556 555
f 510 555 557
f 510 557 511
f 511 557 558
f 511 558 512
f 512 558 513
f 513 558 514
f 514 558 559
f 514 559 515
f 515 559 560
f 515 560 516
f 516 561 517
f 516 560 562
f 516 562 561
f 517 561 519
f 518 520 524
f 518 524 521
f 519 561 563
f 519 563 520
f 520 563 564
f 520 564 525
f 525 564 565
f 525 565 526
f 526 565 527
f 527 566 567
f 527 567 568
f 527 568 569
f 527 569 528
f 527 565 566
f 528 569 568
f 528 568 570
f 528 570 531
f 530 531 572
f 530 572 601
f 530 601 571
f 531 570 573
f 531 573 572
f 534 571 574
f 534 574 538
f 535 575 541
f 535 541 536
f 535 538 576
f 535 576 575
f 538 574 577
f 538 577 578
f 538 578 579
f 538 579 576
f 539 540 542
f 540 541 542
f 541 575 543
f 541 543 542
f 543 575 580
f 543 580 544
f 544 580 545
f 545 580 581
f 545 581 582
f 545 582 583
f 545 583 549
f 545 549 547
f 546 551 584
f 546 584 587
f 546 587 552
f 547 549 548
f 549 583 582
f 549 582 585
f 549 585 586
f 549 586 550
f 550 586 584
f 550 584 551
f 552 587 553
f 553 587 554
f 554 587 588
f 554 588 556
f 555 556 557
f 556 588 589
f 556 589 590
f 556 590 591
f 556 591 558
f 556 558 557
f 558 591 590
f 558 590 592
f 558 592 593
f 558 593 559
f 559 593 562
f 559 562 560
f 561 562 594
f 561 594 563
f 562 593 565
f 562 565 564
f 562 564 594
f 563 594 564
f 565 593 566
f 566 590 595
f 566 595 567
f 566 593 592
f 566 592 590
f 567 595 596
f 567 596 597
f 567 597 598
f 567 598 568
f 568 598 599
f 568 599 600
f 568 600 570
f 570 600 573
f 571 601 574
f 572 573 602
f 572 602 623
f 572 623 601
f 573 600 599
f 573 599 603
f 573 603 602
f 574 601 604
f 574 604 577
f 575 576 605
f 575 605 580
f 576 579 578
f 576 578 606
f 576 606 605
f 577 604 607
f 577 607 578
f 578 607 608
f 578 608 609
f 578 609 606
f 580 605 581
f 581 605 610
f 581 610 582
f 582 610 605
f 582 605 611
f 582 611 612
f 582 612 585
f 584 586 614
f 584 614 613
f 584 613 615
f 584 615 587
f 585 612 586
f 586 612 614
f 587 615 616
f 587 616 588
f 588 616 617
f 588 617 589
f 589 617 590
f 590 617 595
f 595 617 616
f 595 616 618
f 595 618 596
f 596 619 597
f 596 618 619
f 597 620 621
f 597 621 598
f 597 619 620
f 598 621 599
f 599 621 622
f 599 622 603
f 601 623 604
f 602 603 624
f 602 624 623
f 603 622 627
f 603 627 624
f 604 624 608
f 604 608 607
f 604 623 624
f 605 606 611
f 606 609 625
f 606 625 626
f 606 626 611
f 608 627 628
f 608 628 609
f 608 624 627
f 609 628 625
f 611 626 629
f 611 629 614
f 611 614 612
f 613 614 629
f 613 629 630
f 613 630 631
f 613 631 615
f 615 631 618
f 615 618 616
f 618 631 619
f 619 631 630
f 619 630 632
f 619 632 633
f 619 633 620
f 620 633 628
f 620 628 621
f 621 628 627
f 621 627 622
f 625 628 633
f 625 633 632
f 625 632 626
f 626 632 629
f 629 632 630

