# https://github.com/mikedh/trimesh
v 0.00137748 0.01787281 0.01025289
v 0.00007025 0.01785176 0.00890379
v 0.00042293 0.01780967 0.00987929
v 0.00082928 0.01759219 0.01192369
v 0.00165733 0.01786229 0.01052617
v 0.00598921 0.01442471 0.00639586
v 0.00355492 0.01605931 0.00796289
v 0.00512667 0.01448083 0.00563137
v 0.00424112 0.01453696 0.00488072
v 0.00269621 0.01463167 0.00365962
v -0.00028627 0.01783072 0.00852328
v -0.00072713 0.01768690 0.00928431
v -0.00045495 0.01749047 0.01144286
v 0.00004341 0.01721336 0.01341807
v 0.00147715 0.01726597 0.01376399
v 0.00227836 0.01762727 0.01233188
v 0.00261571 0.01779915 0.01141519
v 0.00715844 0.01434052 0.00749243
v 0.00516884 0.00457149 -0.00269150
v 0.00356642 0.00640253 -0.00263616
v 0.00214035 0.01465973 0.00324451
v 0.00059161 0.01616805 0.00540652
v -0.00134816 0.01771847 0.00733677
v -0.00174301 0.01752204 0.00866165
v -0.00158584 0.01732560 0.01091360
v -0.00122549 0.01708006 0.01300297
v -0.00063896 0.01674332 0.01489170
v 0.00078712 0.01680997 0.01517190
v 0.00308723 0.01724142 0.01404073
v 0.00389227 0.01759570 0.01265704
v 0.00394594 0.01761675 0.01256710
v 0.00881452 0.01414760 0.00915632
v 0.00633806 0.01588393 0.01078907
v 0.00928221 0.01406341 0.00965098
v 0.00989558 0.01391960 0.01031515
v 0.01012176 0.01385646 0.01056076
v 0.01082329 0.01360741 0.01134946
v 0.00625373 0.00239319 -0.00271572
v -0.01118116 0.00856329 -0.00216570
v 0.00155382 0.00776703 -0.00254276
v -0.00139033 0.01449136 0.00091992
v -0.00083447 0.01460010 0.00124163
v -0.00032844 0.01465271 0.00155296
v 0.00035393 0.01468428 0.00199574
v -0.00191936 0.01762727 0.00668989
v -0.00263622 0.01731508 0.00804591
v -0.00258256 0.01711163 0.01036358
v -0.00234104 0.01688012 0.01254981
v -0.00189252 0.01658898 0.01455615
v -0.00121782 0.01621716 0.01632727
v 0.00019675 0.01629082 0.01653829
v 0.00238570 0.01678892 0.01538983
v 0.00427946 0.01755361 0.01284384
v 0.00482765 0.01715022 0.01424483
v 0.00536051 0.01729403 0.01372940
v 0.00803248 0.01556823 0.01272277
v 0.00666008 0.01684855 0.01479484
v 0.00788298 0.01626978 0.01582569
v 0.01171267 0.01316543 0.01237339
v 0.01210369 0.01291639 0.01282655
v 0.01284739 0.01232709 0.01369827
v 0.01368694 0.01146769 0.01471182
v 0.02014643 -0.00099879 0.01998367
v 0.02031511 -0.00139165 0.02009436
v 0.02054895 -0.00275616 0.01989719
v 0.02062179 -0.00408910 0.01949246
v 0.02061412 -0.00660765 0.01858614
v 0.00675208 0.00001144 -0.00269496
v -0.00224137 -0.01019957 -0.00196507
v -0.01197470 0.00765829 -0.00208268
v -0.01225455 0.00966472 -0.00058830
v -0.01328193 0.01102221 0.00113093
v -0.01241172 0.01183250 0.00106866
v -0.01024194 0.00947881 -0.00216570
v 0.00662941 -0.00241591 -0.00263962
v 0.00639940 -0.00338755 -0.00260848
v 0.00606972 -0.00433113 -0.00257043
v 0.00564036 -0.00523262 -0.00252546
v 0.00422196 -0.00720397 -0.00240439
v 0.00235119 -0.00875438 -0.00226256
v 0.00015075 -0.00977163 -0.00211382
v -0.00073480 0.00857732 -0.00242515
v -0.00530819 0.01275152 -0.00095844
v -0.00449932 0.01313386 -0.00062635
v -0.00436131 0.01319700 -0.00056754
v -0.00351794 0.01358987 -0.00018357
v -0.00192702 0.01429142 0.00062243
v -0.00426931 0.01688363 0.00425460
v -0.00415430 0.01693975 0.00434454
v -0.00351027 0.01720283 0.00494645
v -0.00325726 0.01729053 0.00521281
v -0.00185035 0.01611544 0.00363195
v -0.00258256 0.01748345 0.00594616
v -0.00345660 0.01684504 0.00982049
v -0.00331476 0.01661704 0.01208281
v -0.00298508 0.01635396 0.01418948
v -0.00244838 0.01604177 0.01607129
v -0.00289690 0.01546651 0.01752762
v -0.00168551 0.01565592 0.01770058
v -0.00287774 0.01127827 0.02945846
v -0.00099547 0.01142209 0.02938236
v 0.00412612 0.01669421 0.01554549
v 0.00089445 0.01125021 0.02932356
v 0.00892569 0.01561032 0.01678043
v 0.00951223 0.01497542 0.01453540
v 0.00914421 0.01545248 0.01698799
v 0.01058945 0.01425283 0.01589833
v 0.00991091 0.01482459 0.01775593
v 0.01093446 0.01379683 0.01887672
v 0.01153249 0.01307423 0.01959969
v 0.01442297 0.01056270 0.01559046
v 0.01536602 0.00920520 0.01671817
v 0.01603689 0.00809676 0.01751379
v 0.01627457 0.00764426 0.01779052
v 0.01656208 0.00702690 0.01811915
v 0.01974391 -0.00010081 0.01978995
v 0.01919955 0.00110234 0.01956510
v 0.02021160 -0.00240188 0.02211109
v 0.02062946 -0.00224403 0.02048525
v 0.02047611 -0.00179855 0.02024311
v 0.01809549 0.00350865 0.01915000
v 0.01734029 0.00509063 0.01897704
v 0.01562670 0.00573957 0.02346710
v 0.02070996 -0.00286139 0.02038840
v 0.02079046 -0.00424695 0.01996983
v 0.02079430 -0.00676199 0.01903238
v 0.02065246 -0.00934719 0.01800154
v 0.02046461 -0.00914374 0.01757951
v 0.02025377 -0.01038899 0.01697069
v 0.01990492 -0.01157811 0.01626155
v 0.01937206 -0.01265147 0.01543826
v 0.01865135 -0.01355296 0.01452848
v -0.00312692 -0.01634862 0.00303004
v -0.00475617 -0.01626795 0.00285708
v -0.00638541 -0.01606801 0.00278790
v -0.00466416 -0.00999963 -0.00182324
v -0.00695661 -0.00919285 -0.00170563
v -0.00896921 -0.00782834 -0.00161223
v -0.01057163 -0.00599731 -0.00155342
v -0.01165652 -0.00381900 -0.00153267
v -0.01229672 0.00724087 -0.00202042
v -0.01412147 0.01013826 0.00131081
v -0.01329727 0.01076264 0.00267720
v -0.01190953 0.01177637 0.00441027
v -0.01122716 0.01263226 0.00265990
v -0.01184052 0.01232007 0.00108596
v -0.01074414 0.01095907 -0.00068170
v -0.00983559 0.00983309 -0.00213803
v 0.01778114 -0.01424048 0.01358066
v 0.01685343 -0.01522966 0.01284384
v 0.01471049 -0.01596628 0.01104505
v 0.01244104 -0.01645386 0.00942959
v 0.01006809 -0.01677657 0.00797672
v 0.00996075 -0.01721153 0.00822579
v 0.00738462 -0.01725713 0.00686285
v 0.00488132 -0.01703965 0.00572131
v 0.00237036 -0.01676604 0.00473544
v -0.00013676 -0.01670290 0.00396749
v -0.00319592 -0.01673447 0.00335175
v -0.00911872 0.01041186 -0.00204809
v -0.00798016 0.01122917 -0.00182324
v -0.00735146 0.01162905 -0.00166066
v -0.00674960 0.01198684 -0.00148078
v -0.00548454 0.01406341 0.00066394
v -0.00733613 0.01315140 -0.00003828
v -0.00804917 0.01488072 0.00209259
v -0.00662309 0.01567697 0.00282249
v -0.00630491 0.01584885 0.00300583
v -0.00568771 0.01618208 0.00336213
v -0.00316909 0.01510521 0.00177089
v -0.00488267 0.01658898 0.00383950
v -0.00477917 0.01655040 0.00535809
v -0.00407763 0.01682049 0.00692512
v -0.00487884 0.01623119 0.00883461
v -0.00417347 0.01629784 0.01161928
v -0.00393962 0.01604528 0.01380896
v -0.00351794 0.01577519 0.01579110
v -0.00394729 0.01518238 0.01733391
v -0.00426931 0.01460360 0.01877986
v -0.00323809 0.01490176 0.01889055
v -0.00331859 0.01119058 0.02948268
v -0.00326492 0.01102923 0.02978363
v -0.00283557 0.01111341 0.02975942
v -0.00252505 0.01115901 0.02974558
v -0.00098781 0.01125372 0.02969023
v 0.00023892 0.01117655 0.02965564
v 0.00087912 0.01108535 0.02963143
v 0.00291472 0.01055919 0.02954495
v 0.00295306 0.01071704 0.02923362
v 0.00949306 0.01517887 0.01733045
v 0.01197718 0.01248143 0.02017047
v 0.01278989 0.01127126 0.02124628
v 0.01294707 0.01102572 0.02144000
v 0.01337259 0.01032768 0.02193121
v 0.01386328 0.00946828 0.02239820
v 0.01544653 0.00824409 0.01945095
v 0.01438847 0.00844052 0.02278909
v 0.01474499 0.00766882 0.02302778
v 0.01699910 0.00596055 0.01859998
v 0.01957524 -0.00179855 0.02317307
v 0.02071379 -0.00372430 0.02266456
v 0.02069846 -0.00256674 0.02078967
v 0.01538136 0.00627274 0.02337370
v 0.01622857 0.00448730 0.02359163
v 0.01687260 0.00324206 0.02357088
v 0.00692843 0.00542387 0.03174847
v 0.00753796 0.00445574 0.03173117
v 0.02073296 -0.00298767 0.02090036
v 0.02082113 -0.00441532 0.02047142
v 0.02085180 -0.00692686 0.01950975
v 0.02071763 -0.00955064 0.01845469
v 0.02050678 -0.01088007 0.01781128
v 0.02044161 -0.01063804 0.01737196
v 0.02008126 -0.01188679 0.01663169
v 0.01952540 -0.01302329 0.01576342
v 0.01876253 -0.01398090 0.01479830
v 0.01785015 -0.01470700 0.01380550
v -0.00482900 -0.01663977 0.00317879
v -0.00653109 -0.01668537 0.00351433
v -0.00797250 -0.01573477 0.00281211
v -0.00950207 -0.01527175 0.00290897
v -0.01095881 -0.01468245 0.00304388
v -0.01119266 -0.01457722 0.00306809
v -0.01130383 -0.01412472 0.00285016
v -0.01149167 -0.01360908 0.00272909
v -0.01151084 -0.01357401 0.00272563
v -0.01318609 -0.00959624 0.00221367
v -0.01424415 -0.00708120 0.00189196
v -0.01456233 -0.00622882 0.00177435
v -0.01479234 -0.00511687 0.00158063
v -0.01490351 -0.00240890 0.00081268
v -0.01474634 -0.00006222 0.00004474
v -0.01473867 0.00001845 0.00001706
v -0.01447799 0.00188808 -0.00058138
v -0.01417514 0.00325609 -0.00100341
v -0.01409847 0.00352619 -0.00108643
v -0.01215487 -0.00143725 -0.00155342
v -0.01272607 0.00661299 -0.00190280
v -0.01345061 0.00840193 -0.00027351
v -0.01444732 0.00975943 0.00142150
v -0.01384163 0.00983660 0.00432725
v -0.01248072 0.01086436 0.00611220
v -0.01134600 0.01161852 0.00741979
v -0.01075947 0.01251650 0.00566251
v -0.01141500 0.01266032 0.00112401
v -0.01006560 0.01335134 0.00386717
v -0.01037228 0.01343553 0.00131427
v 0.01679593 -0.01566812 0.01311712
v 0.01462998 -0.01640475 0.01129757
v 0.01234520 -0.01689232 0.00967866
v 0.01218803 -0.01725011 0.01000728
v 0.00979974 -0.01756230 0.00855787
v 0.00719677 -0.01760088 0.00718110
v 0.00469731 -0.01737288 0.00604648
v -0.00020960 -0.01692038 0.00421309
v -0.00327259 -0.01702912 0.00375648
v -0.00907272 0.01213065 -0.00049144
v -0.00924139 0.01417917 0.00163252
v -0.00867786 0.01451942 0.00183315
v -0.00633558 0.01571205 0.00475273
v -0.00582955 0.01596811 0.00528891
v -0.00692211 0.01539635 0.00421309
v -0.00927589 0.01411603 0.00204762
v -0.00713295 0.01501050 0.00665184
v -0.00558037 0.01555771 0.01078215
v -0.00478300 0.01567346 0.01343537
v -0.00445332 0.01543143 0.01550398
v -0.00485967 0.01481407 0.01714019
v -0.00447248 0.01407394 0.02009782
v -0.00494018 0.01067845 0.02962105
v -0.00515869 0.01421775 0.01867262
v -0.00526602 0.01372316 0.02007015
v -0.00484434 0.01053113 0.02991508
v -0.00319975 0.00899123 0.03227773
v -0.00208036 0.00923327 0.03220508
v -0.00094564 0.00933499 0.03213590
v 0.00019675 0.00929641 0.03207017
v 0.00132381 0.00912102 0.03200791
v 0.00242403 0.00880532 0.03194910
v 0.00347442 0.00836335 0.03189375
v 0.00480849 0.00970681 0.02942733
v 0.00538735 0.00936305 0.02938582
v 0.00446730 0.00779159 0.03184878
v 0.00537968 0.00710407 0.03180727
v 0.00620772 0.00631133 0.03177614
v 0.01494817 0.00721632 0.02315577
v 0.01524718 0.00656037 0.02331489
v 0.02010043 -0.00272459 0.02299665
v 0.01911138 -0.00095670 0.02327338
v 0.00802098 0.00342095 0.03172425
v 0.00920938 0.00028153 0.03171733
v 0.01979375 -0.01013292 0.02005285
v 0.02018093 -0.01004172 0.01974152
v 0.02047228 -0.00990843 0.01935755
v 0.02065629 -0.00974006 0.01891823
v 0.02077513 -0.00709172 0.01998713
v 0.00855384 -0.00434166 0.03174847
v 0.00868418 -0.00439076 0.03164469
v 0.01837917 0.00040781 0.02338062
v 0.02044161 -0.01110106 0.01826444
v 0.02006209 -0.01244101 0.01748611
v 0.02013493 -0.01218144 0.01704679
v 0.01955607 -0.01337407 0.01614740
v 0.01876253 -0.01437728 0.01513730
v 0.01781565 -0.01513144 0.01410300
v -0.00489801 -0.01692038 0.00358698
v -0.00660009 -0.01689232 0.00445524
v -0.00812584 -0.01631355 0.00353509
v -0.00501301 -0.01713786 0.00454172
v -0.00966691 -0.01581194 0.00361811
v -0.01117349 -0.01490695 0.00335867
v -0.01124633 -0.01511390 0.00370805
v -0.01384163 -0.01290403 0.00683518
v -0.01572005 -0.01023114 0.00803899
v -0.01681644 -0.00798619 0.00806320
v -0.01754865 -0.00620777 0.00780722
v -0.01591173 -0.00624636 0.00450713
v -0.01767899 -0.00586050 0.00775533
v -0.01797034 -0.00490289 0.00761696
v -0.01805084 -0.00458018 0.00755816
v -0.01618775 -0.00472049 0.00404359
v -0.01818501 -0.00381900 0.00739903
v -0.01823102 -0.00346823 0.00730909
v -0.01829619 -0.00260884 0.00705311
v -0.01489585 -0.00435569 0.00144226
v -0.01625292 -0.00229314 0.00319954
v -0.01829235 -0.00118119 0.00653423
v -0.01815818 0.00046744 0.00583547
v -0.01800100 0.00153029 0.00534080
v -0.01632192 0.00110585 0.00253883
v -0.01769432 0.00303861 0.00459015
v -0.01742981 0.00404884 0.00407127
v -0.01724580 0.00465217 0.00375994
v -0.01588106 0.00345603 0.00161522
v -0.01688928 0.00562732 0.00325489
v -0.01374579 0.00457851 -0.00139084
v -0.01527153 0.00534319 0.00085765
v -0.01330493 0.00558873 -0.00166412
v -0.01494952 0.00911751 0.00163598
v -0.01336627 0.00898422 0.00926701
v -0.01428632 0.00887899 0.00589773
v -0.01226221 0.00977696 0.01071642
v -0.01027645 0.00815639 0.02363314
v -0.00999660 0.00858083 0.02314193
v -0.00745114 0.01201139 0.02018430
v -0.00728629 0.01261823 0.01851350
v -0.00664226 0.01321805 0.01852734
v -0.00637775 0.01385996 0.01680465
v -0.00665760 0.01404938 0.01474987
v -0.00617457 0.01481758 0.01276774
v -0.00771948 0.01468077 0.00609145
v 0.01665025 -0.01602942 0.01345612
v 0.01447281 -0.01676955 0.01162620
v 0.01424663 -0.01703263 0.01200325
v 0.01197335 -0.01750617 0.01039472
v 0.00959273 -0.01781135 0.00895568
v 0.00698210 -0.01783941 0.00756854
v 0.00449797 -0.01760439 0.00644429
v -0.00024794 -0.01701509 0.00435146
v -0.00335693 -0.01720802 0.00422347
v -0.00527753 0.01501752 0.01522724
v -0.00566471 0.01436859 0.01696031
v -0.00517785 0.01038380 0.02995313
v -0.00648125 0.00984361 0.02984936
v -0.00594073 0.01375473 0.01858614
v -0.00587939 0.01336187 0.02005977
v -0.00427697 0.00861591 0.03234691
v -0.00530436 0.00811430 0.03241955
v -0.00625891 0.00748642 0.03248874
v -0.00517019 0.00598861 0.03245415
v 0.00846567 -0.00431009 0.03176922
v -0.00818334 0.00640954 0.03262365
v 0.01957524 -0.01150795 0.01940598
v 0.01996242 -0.01142728 0.01908773
v 0.02025760 -0.01128697 0.01870030
v -0.00059295 -0.00868072 0.02684676
v -0.00059295 -0.00878595 0.02674298
v 0.00124331 -0.00864564 0.02699204
v 0.00127014 -0.00874386 0.02689173
v 0.00178000 -0.00868072 0.02695745
v 0.00356259 -0.00827733 0.02729991
v 0.01534302 -0.01426854 0.01834400
v 0.01745146 -0.01493150 0.01712289
v 0.01812233 -0.01405807 0.01797386
v 0.01842901 -0.01351438 0.01840972
v 0.01872419 -0.01285141 0.01886980
v 0.01917655 -0.01286194 0.01862765
v 0.01986658 -0.01264797 0.01791160
v 0.01926089 -0.01390373 0.01697761
v 0.01946406 -0.01367222 0.01656250
v 0.01864752 -0.01471051 0.01552128
v 0.01767764 -0.01548572 0.01445930
v -0.00545387 -0.01682918 0.00545841
v -0.00697195 -0.01656961 0.00537193
v -0.00766581 -0.01640825 0.00535809
v -0.00816417 -0.01651349 0.00444832
v -0.00343743 -0.01726063 0.00471814
v 0.00652974 -0.01795867 0.00845755
v 0.00682109 -0.01786747 0.00914940
v -0.00968608 -0.01600487 0.00450021
v -0.01140734 -0.01519458 0.00411969
v -0.01114282 -0.01518406 0.00373918
v -0.01166418 -0.01512442 0.00457631
v -0.01199770 -0.01490344 0.00503985
v -0.01458150 -0.01195694 0.00741633
v -0.01243089 -0.01449303 0.00552414
v -0.01282191 -0.01407211 0.00590811
v -0.01320526 -0.01364416 0.00627133
v -0.01122333 -0.00790200 0.02010820
v -0.01550154 -0.00935771 0.00969941
v -0.01617625 -0.00938578 0.00813931
v -0.01518719 -0.01109053 0.00780376
v -0.01196320 -0.00761437 0.01932988
v -0.01190953 -0.00736181 0.01980725
v -0.01665544 -0.00835801 0.00810471
v -0.01622225 -0.00819315 0.00943305
v -0.01668994 -0.00723203 0.00915978
v -0.01713463 -0.00721800 0.00795943
v -0.01742598 -0.00650593 0.00785565
v -0.01590023 -0.00668833 0.01180262
v -0.01635642 -0.00562549 0.01150167
v -0.01580439 -0.00474154 0.01369827
v -0.01114666 0.00091643 0.03059309
v -0.01749881 -0.00486782 0.00896952
v -0.01098565 0.00211608 0.03185224
v -0.01769816 -0.00392073 0.00898681
v -0.01742981 -0.00304380 0.01019062
v -0.01700812 -0.00175295 0.01193753
v -0.01750648 -0.00163018 0.01022521
v -0.01748348 -0.00083042 0.01015257
v -0.01831152 -0.00198797 0.00683864
v -0.01741831 0.00003599 0.00994848
v -0.01731097 0.00098659 0.00957142
v -0.01716530 0.00201786 0.00896606
v -0.01786683 0.00225639 0.00498796
v -0.01546704 0.00315437 0.01592946
v -0.01466583 0.00403832 0.01840626
v -0.01449716 0.00454694 0.01814682
v -0.01606124 0.00654634 0.00496374
v -0.01637942 0.00678136 0.00267028
v -0.01566255 0.00806870 0.00206146
v -0.01442049 0.00704444 0.00019348
v -0.01535204 0.00851067 0.00201995
v -0.01334710 0.00596406 0.01954089
v -0.01240789 0.00656388 0.02126012
v -0.01574689 0.00753202 0.00354201
v -0.01465433 0.00791436 0.00736790
v -0.01205904 0.00715318 0.02054752
v -0.01042212 0.00792839 0.02387529
v -0.00792266 0.00872464 0.02983552
v -0.00663076 0.01279712 0.02007707
v 0.01641641 -0.01629250 0.01383664
v 0.01397062 -0.01717294 0.01241144
v 0.01612123 -0.01643982 0.01423445
v 0.01171650 -0.01763947 0.01081328
v 0.00935122 -0.01793412 0.00938808
v 0.00675592 -0.01796218 0.00800440
v -0.00634325 0.00972435 0.03013301
v -0.00611323 0.01320051 0.02005977
v -0.00781915 0.00872114 0.03015723
v -0.00743197 0.00885092 0.03037516
v 0.00599688 -0.00344017 0.03189721
v -0.00376328 -0.00801425 0.02686751
v -0.00243305 -0.00840361 0.02682254
v -0.00981259 0.00579569 0.03194564
v -0.01086681 0.00295443 0.03198715
v -0.01095881 0.00249491 0.03195948
v 0.01956374 -0.01279178 0.01830249
v -0.00245988 -0.00850533 0.02672222
v -0.00247522 -0.00857900 0.02659423
v -0.00059295 -0.00885611 0.02661845
v 0.01233753 -0.01449654 0.01819179
v 0.01210752 -0.01325480 0.01997675
v 0.01707194 -0.01531034 0.01668011
v 0.01774281 -0.01514547 0.01666974
v 0.01856318 -0.01410017 0.01770750
v 0.01895037 -0.01404755 0.01736850
v 0.01811849 -0.01510689 0.01631344
v 0.01842901 -0.01495956 0.01592255
v 0.01745146 -0.01574529 0.01485019
v 0.00731945 -0.01787800 0.00941922
v 0.00583971 -0.01661872 0.01193061
v 0.00371210 -0.01524018 0.01417910
v -0.00835201 -0.01622235 0.00535464
v -0.00940240 -0.01588210 0.00537539
v 0.00909820 -0.01793412 0.00983086
v -0.01043745 -0.01547871 0.00541344
v -0.01116199 -0.01537698 0.00459361
v -0.01144184 -0.01501919 0.00546879
v -0.01060230 -0.00865967 0.01931258
v -0.01111982 -0.00733726 0.02109408
v -0.01054479 -0.00791253 0.02083464
v -0.00723646 -0.00633054 0.02702318
v -0.01252673 -0.00711627 0.01885942
v -0.01470417 -0.00863161 0.01231458
v -0.01434382 -0.00742145 0.01461496
v -0.01517953 -0.00794410 0.01217621
v -0.01028795 -0.00254570 0.02834114
v -0.01036462 -0.00238434 0.02841724
v -0.01056779 -0.00186520 0.02872857
v -0.01095115 -0.00069362 0.02941350
v -0.01481918 -0.00670236 0.01437628
v -0.01554755 -0.00535188 0.01389199
v -0.01111982 0.00014473 0.02994967
v -0.01105849 0.00082172 0.03068649
v -0.01094348 0.00180038 0.03171387
v -0.01097415 0.00198629 0.03180036
v -0.01097415 0.00242125 0.03194564
v -0.01649443 -0.00034284 0.01382972
v -0.01661327 -0.00002364 0.01342845
v -0.01657110 0.00063231 0.01339040
v -0.01648676 0.00131982 0.01325203
v -0.01560122 0.00257208 0.01613356
v -0.01480001 0.00350163 0.01850312
v -0.01397580 0.00442767 0.02039877
v -0.01380329 0.00496786 0.02030192
v -0.01359245 0.00546596 0.02002518
v -0.01271457 0.00600966 0.02172711
v -0.00896155 0.00731454 0.03053082
v -0.01077480 0.00736014 0.02441147
v 0.01366010 -0.01719399 0.01281963
v 0.01714478 -0.01589262 0.01523762
v 0.01577621 -0.01646438 0.01462188
v 0.01143282 -0.01764999 0.01123877
v -0.00765048 0.00863695 0.03043396
v -0.01096648 0.00245633 0.03195256
v -0.01093198 0.00173724 0.03167928
v -0.00561871 -0.00718643 0.02701626
v -0.00380545 -0.00811598 0.02676719
v -0.01031478 0.00475038 0.03169312
v -0.01056779 0.00407339 0.03173117
v -0.01074030 0.00348059 0.03188338
v -0.01484984 0.00297898 0.01860690
v -0.00383612 -0.00818262 0.02663920
v 0.00557903 -0.01536997 0.01480176
v 0.00812449 -0.01554185 0.01539674
v 0.00918637 -0.01445445 0.01787009
v 0.01108397 -0.01566111 0.01591563
v 0.01418913 -0.01563655 0.01632036
v 0.01629374 -0.01588911 0.01583952
v 0.01678059 -0.01592068 0.01561122
v 0.00784847 -0.01786396 0.00970633
v 0.00765680 -0.01668537 0.01258440
v 0.00963490 -0.01773067 0.01070950
v 0.00884136 -0.01780433 0.01025289
v -0.00572988 -0.00733375 0.02679487
v -0.01020361 -0.00259481 0.02841032
v -0.00819101 -0.00547465 0.02725840
v -0.00942540 -0.00399439 0.02774269
v -0.00717129 -0.00628845 0.02714771
v -0.01308259 -0.00648488 0.01838551
v -0.01414448 -0.00689529 0.01563543
v -0.01043745 -0.00188274 0.02885310
v -0.01089364 -0.00072168 0.02947230
v -0.01103165 0.00007107 0.03004653
v -0.01530220 0.00225288 0.01744460
v -0.01569705 0.00198980 0.01620966
v -0.01585039 0.00117601 0.01589833
v -0.01589256 0.00108831 0.01577726
v -0.01065980 0.00377524 0.03179344
v 0.01333425 -0.01708525 0.01320014
v 0.01231837 -0.01732027 0.01244603
v 0.01465299 -0.01667484 0.01428634
v 0.01540819 -0.01636265 0.01496780
v 0.01114531 -0.01753073 0.01164349
v -0.01085148 0.00147066 0.03150978
v -0.00709462 -0.00621479 0.02724457
v -0.00568005 -0.00727412 0.02691940
v 0.01014092 -0.01676604 0.01323127
v 0.01303524 -0.01679060 0.01382626
v -0.01000427 -0.00279475 0.02839994
v -0.00934490 -0.00398036 0.02785685
v -0.00811817 -0.00543958 0.02737948
v -0.00802617 -0.00537995 0.02747287
v -0.00924139 -0.00394528 0.02795025
f 1 2 3
f 1 3 4
f 1 4 5
f 1 5 6
f 1 6 7
f 1 7 8
f 1 8 9
f 1 9 2
f 2 9 10
f 2 10 11
f 2 11 12
f 2 12 3
f 3 12 13
f 3 13 4
f 4 13 14
f 4 14 15
f 4 15 16
f 4 16 17
f 4 17 5
f 5 17 6
f 6 18 19
f 6 19 8
f 6 8 7
f 6 17 18
f 8 19 20
f 8 20 9
f 9 20 10
f 10 21 22
f 10 22 11
f 10 20 21
f 11 23 12
f 11 22 23
f 12 23 24
f 12 24 25
f 12 25 13
f 13 25 26
f 13 26 14
f 14 26 27
f 14 27 15
f 15 27 28
f 15 28 29
f 15 29 30
f 15 30 16
f 16 30 31
f 16 31 17
f 17 31 18
f 18 32 19
f 18 31 33
f 18 33 32
f 19 32 34
f 19 34 35
f 19 35 36
f 19 36 37
f 19 37 38
f 19 38 39
f 19 39 20
f 20 40 41
f 20 41 42
f 20 42 43
f 20 43 44
f 20 44 21
f 20 39 40
f 21 44 45
f 21 45 23
f 21 23 22
f 23 45 24
f 24 45 46
f 24 46 47
f 24 47 25
f 25 47 48
f 25 48 26
f 26 48 49
f 26 49 27
f 27 49 50
f 27 50 28
f 28 51 52
f 28 52 29
f 28 50 51
f 29 53 30
f 29 52 54
f 29 54 55
f 29 55 53
f 30 53 31
f 31 53 33
f 32 33 53
f 32 53 55
f 32 55 34
f 34 55 35
f 35 55 56
f 35 56 36
f 36 56 57
f 36 57 37
f 37 57 58
f 37 58 59
f 37 59 38
f 38 59 60
f 38 60 61
f 38 61 62
f 38 62 63
f 38 63 64
f 38 64 65
f 38 65 66
f 38 66 67
f 38 67 68
f 38 68 39
f 39 69 70
f 39 70 71
f 39 71 72
f 39 72 73
f 39 73 74
f 39 74 40
f 39 68 75
f 39 75 76
f 39 76 77
f 39 77 78
f 39 78 79
f 39 79 80
f 39 80 81
f 39 81 69
f 40 74 82
f 40 82 83
f 40 83 84
f 40 84 85
f 40 85 86
f 40 86 87
f 40 87 41
f 41 87 88
f 41 88 89
f 41 89 90
f 41 90 42
f 42 90 91
f 42 91 43
f 43 91 92
f 43 92 93
f 43 93 44
f 44 93 45
f 45 93 46
f 46 93 91
f 46 91 94
f 46 94 47
f 47 94 95
f 47 95 48
f 48 95 96
f 48 96 49
f 49 96 97
f 49 97 50
f 50 97 98
f 50 98 99
f 50 99 100
f 50 100 51
f 51 100 101
f 51 101 52
f 52 102 54
f 52 101 102
f 54 57 55
f 54 102 57
f 55 57 56
f 57 103 58
f 57 102 101
f 57 101 103
f 58 103 104
f 58 104 105
f 58 105 59
f 59 105 104
f 59 104 60
f 60 104 106
f 60 106 107
f 60 107 61
f 61 107 108
f 61 108 109
f 61 109 62
f 62 109 110
f 62 110 111
f 62 111 63
f 63 111 112
f 63 112 113
f 63 113 114
f 63 114 115
f 63 115 116
f 63 116 117
f 63 117 64
f 64 118 119
f 64 119 120
f 64 120 65
f 64 117 121
f 64 121 122
f 64 122 123
f 64 123 118
f 65 120 119
f 65 119 124
f 65 124 125
f 65 125 66
f 66 125 126
f 66 126 67
f 67 126 127
f 67 127 128
f 67 128 68
f 68 128 129
f 68 129 130
f 68 130 131
f 68 131 132
f 68 132 75
f 69 133 134
f 69 134 135
f 69 135 136
f 69 136 70
f 69 81 133
f 70 136 137
f 70 137 138
f 70 138 139
f 70 139 140
f 70 140 141
f 70 141 142
f 70 142 72
f 70 72 71
f 72 142 143
f 72 143 144
f 72 144 73
f 73 144 145
f 73 145 146
f 73 146 74
f 74 146 147
f 74 147 148
f 74 148 82
f 75 132 149
f 75 149 76
f 76 149 150
f 76 150 77
f 77 150 151
f 77 151 78
f 78 151 152
f 78 152 79
f 79 152 153
f 79 153 154
f 79 154 80
f 80 154 155
f 80 155 156
f 80 156 81
f 81 156 157
f 81 157 158
f 81 158 159
f 81 159 133
f 82 148 160
f 82 160 161
f 82 161 162
f 82 162 163
f 82 163 83
f 83 164 84
f 83 163 165
f 83 165 166
f 83 166 164
f 84 164 167
f 84 167 85
f 85 167 86
f 86 167 168
f 86 168 169
f 86 169 170
f 86 170 87
f 87 170 171
f 87 171 88
f 88 171 89
f 89 171 172
f 89 172 173
f 89 173 90
f 90 173 91
f 91 173 94
f 91 93 92
f 94 173 174
f 94 174 175
f 94 175 95
f 95 175 176
f 95 176 96
f 96 176 177
f 96 177 97
f 97 177 178
f 97 178 98
f 98 178 179
f 98 179 180
f 98 180 181
f 98 181 99
f 99 181 100
f 100 181 182
f 100 182 183
f 100 183 184
f 100 184 101
f 101 184 185
f 101 185 186
f 101 186 103
f 103 186 187
f 103 187 188
f 103 188 189
f 103 189 190
f 103 190 106
f 103 106 104
f 106 190 107
f 107 190 108
f 108 190 189
f 108 189 188
f 108 188 109
f 109 188 110
f 110 191 111
f 110 188 191
f 111 191 112
f 112 191 192
f 112 192 193
f 112 193 194
f 112 194 113
f 113 194 195
f 113 195 196
f 113 196 114
f 114 196 115
f 115 196 197
f 115 197 198
f 115 198 199
f 115 199 117
f 115 117 116
f 117 199 121
f 118 200 201
f 118 201 119
f 118 123 200
f 119 201 202
f 119 202 124
f 121 199 122
f 122 199 203
f 122 203 123
f 123 204 205
f 123 205 200
f 123 203 206
f 123 206 207
f 123 207 204
f 124 202 208
f 124 208 209
f 124 209 125
f 125 209 210
f 125 210 126
f 126 210 211
f 126 211 127
f 127 212 213
f 127 213 128
f 127 211 212
f 128 213 129
f 129 213 214
f 129 214 130
f 130 214 215
f 130 215 131
f 131 215 216
f 131 216 132
f 132 216 217
f 132 217 149
f 133 159 134
f 134 159 218
f 134 218 135
f 135 219 220
f 135 220 136
f 135 218 219
f 136 220 221
f 136 221 137
f 137 221 222
f 137 222 223
f 137 223 224
f 137 224 138
f 138 224 139
f 139 224 225
f 139 225 226
f 139 226 227
f 139 227 228
f 139 228 229
f 139 229 140
f 140 229 230
f 140 230 231
f 140 231 232
f 140 232 233
f 140 233 234
f 140 234 235
f 140 235 236
f 140 236 237
f 140 237 238
f 140 238 141
f 141 238 239
f 141 239 240
f 141 240 142
f 142 240 241
f 142 241 143
f 143 241 242
f 143 242 144
f 144 243 244
f 144 244 145
f 144 242 243
f 145 245 146
f 145 244 246
f 145 246 247
f 145 247 245
f 146 245 147
f 147 245 148
f 148 245 160
f 149 217 150
f 150 217 248
f 150 248 151
f 151 248 249
f 151 249 152
f 152 249 250
f 152 250 153
f 153 250 154
f 154 250 251
f 154 251 252
f 154 252 155
f 155 253 156
f 155 252 253
f 156 253 254
f 156 254 158
f 156 158 157
f 158 255 159
f 158 254 255
f 159 256 218
f 159 255 256
f 160 257 161
f 160 245 247
f 160 247 257
f 161 257 247
f 161 247 162
f 162 247 258
f 162 258 163
f 163 258 259
f 163 259 165
f 164 166 167
f 165 259 166
f 166 260 167
f 166 259 260
f 167 260 168
f 168 260 169
f 169 261 172
f 169 172 171
f 169 171 170
f 169 260 261
f 172 261 174
f 172 174 173
f 174 261 260
f 174 260 262
f 174 262 259
f 174 259 263
f 174 263 264
f 174 264 265
f 174 265 175
f 175 265 266
f 175 266 176
f 176 266 267
f 176 267 177
f 177 267 178
f 178 267 268
f 178 268 179
f 179 269 270
f 179 270 180
f 179 268 271
f 179 271 272
f 179 272 269
f 180 270 181
f 181 270 182
f 182 270 273
f 182 273 274
f 182 274 275
f 182 275 183
f 183 275 184
f 184 275 276
f 184 276 185
f 185 276 277
f 185 277 186
f 186 277 187
f 187 277 278
f 187 278 188
f 188 278 279
f 188 279 280
f 188 280 281
f 188 281 191
f 191 281 192
f 192 281 193
f 193 281 282
f 193 282 194
f 194 282 283
f 194 283 284
f 194 284 195
f 195 197 196
f 195 284 285
f 195 285 197
f 197 285 198
f 198 286 199
f 198 285 206
f 198 206 286
f 199 286 287
f 199 287 203
f 200 288 201
f 200 205 289
f 200 289 290
f 200 290 291
f 200 291 288
f 201 292 293
f 201 293 294
f 201 294 295
f 201 295 296
f 201 296 210
f 201 210 209
f 201 209 208
f 201 208 202
f 201 288 291
f 201 291 297
f 201 297 298
f 201 298 292
f 203 287 206
f 204 207 205
f 205 299 289
f 205 207 290
f 205 290 299
f 206 285 207
f 206 287 286
f 207 285 290
f 210 296 295
f 210 295 211
f 211 295 300
f 211 300 212
f 212 300 301
f 212 301 302
f 212 302 213
f 213 302 214
f 214 302 303
f 214 303 215
f 215 303 304
f 215 304 216
f 216 304 305
f 216 305 217
f 217 305 248
f 218 256 306
f 218 306 219
f 219 307 308
f 219 308 220
f 219 306 309
f 219 309 307
f 220 308 221
f 221 308 310
f 221 310 311
f 221 311 222
f 222 311 223
f 223 311 312
f 223 312 226
f 223 226 224
f 224 226 225
f 226 312 227
f 227 313 314
f 227 314 315
f 227 315 228
f 227 312 313
f 228 315 316
f 228 316 317
f 228 317 229
f 229 317 318
f 229 318 319
f 229 319 320
f 229 320 321
f 229 321 230
f 230 321 322
f 230 322 323
f 230 323 324
f 230 324 325
f 230 325 231
f 231 325 326
f 231 326 327
f 231 327 328
f 231 328 232
f 232 328 329
f 232 329 233
f 233 329 330
f 233 330 331
f 233 331 234
f 234 331 332
f 234 332 333
f 234 333 334
f 234 334 235
f 235 334 335
f 235 335 236
f 236 336 237
f 236 335 337
f 236 337 336
f 237 336 338
f 237 338 238
f 238 338 339
f 238 339 240
f 238 240 239
f 240 339 241
f 241 340 242
f 241 339 341
f 241 341 340
f 242 340 342
f 242 342 343
f 242 343 344
f 242 344 345
f 242 345 346
f 242 346 243
f 243 346 347
f 243 347 348
f 243 348 244
f 244 348 349
f 244 349 350
f 244 350 246
f 246 350 265
f 246 265 351
f 246 351 263
f 246 263 247
f 247 263 258
f 248 352 353
f 248 353 249
f 248 305 352
f 249 353 250
f 250 353 251
f 251 353 354
f 251 354 355
f 251 355 252
f 252 355 356
f 252 356 253
f 253 357 254
f 253 356 357
f 254 357 358
f 254 358 359
f 254 359 255
f 255 359 256
f 256 360 306
f 256 359 358
f 256 358 360
f 258 263 259
f 259 262 260
f 263 351 264
f 264 351 265
f 265 350 266
f 266 350 361
f 266 361 267
f 267 361 268
f 268 361 362
f 268 362 271
f 269 272 270
f 270 363 273
f 270 272 364
f 270 364 363
f 271 362 365
f 271 365 366
f 271 366 272
f 272 366 364
f 273 363 367
f 273 367 274
f 274 276 275
f 274 367 368
f 274 368 369
f 274 369 285
f 274 285 278
f 274 278 277
f 274 277 276
f 278 285 283
f 278 283 279
f 279 283 280
f 280 283 281
f 281 283 282
f 283 285 284
f 285 291 290
f 285 369 370
f 285 370 291
f 289 299 290
f 291 371 297
f 291 370 372
f 291 372 371
f 292 373 293
f 292 298 373
f 293 373 374
f 293 374 294
f 294 375 295
f 294 374 375
f 295 375 300
f 297 371 376
f 297 376 377
f 297 377 378
f 297 378 379
f 297 379 380
f 297 380 381
f 297 381 382
f 297 382 383
f 297 383 384
f 297 384 385
f 297 385 298
f 298 385 386
f 298 386 387
f 298 387 373
f 300 375 301
f 301 375 388
f 301 388 389
f 301 389 390
f 301 390 303
f 301 303 302
f 303 390 391
f 303 391 304
f 304 391 392
f 304 392 305
f 305 392 352
f 306 360 309
f 307 309 393
f 307 393 394
f 307 394 395
f 307 395 396
f 307 396 308
f 308 396 310
f 309 360 397
f 309 397 398
f 309 398 399
f 309 399 393
f 310 396 400
f 310 400 401
f 310 401 402
f 310 402 312
f 310 312 311
f 312 402 401
f 312 401 403
f 312 403 404
f 312 404 313
f 313 405 314
f 313 404 406
f 313 406 407
f 313 407 408
f 313 408 409
f 313 409 405
f 314 410 411
f 314 411 315
f 314 405 412
f 314 412 413
f 314 413 414
f 314 414 410
f 315 411 415
f 315 415 416
f 315 416 417
f 315 417 418
f 315 418 316
f 316 418 419
f 316 419 417
f 316 417 420
f 316 420 421
f 316 421 318
f 316 318 317
f 318 421 422
f 318 422 423
f 318 423 424
f 318 424 319
f 319 424 425
f 319 425 426
f 319 426 320
f 320 426 322
f 320 322 321
f 322 426 427
f 322 427 428
f 322 428 429
f 322 429 323
f 323 429 324
f 324 429 430
f 324 430 431
f 324 431 325
f 325 431 326
f 326 431 327
f 327 431 430
f 327 430 432
f 327 432 328
f 328 432 433
f 328 433 329
f 329 433 434
f 329 434 435
f 329 435 330
f 330 435 331
f 331 435 436
f 331 436 332
f 332 436 437
f 332 437 333
f 333 335 334
f 333 437 438
f 333 438 335
f 335 439 440
f 335 440 337
f 335 438 439
f 336 337 440
f 336 440 441
f 336 441 338
f 338 441 442
f 338 442 339
f 339 442 441
f 339 441 443
f 339 443 341
f 340 341 444
f 340 444 445
f 340 445 342
f 341 443 446
f 341 446 447
f 341 447 444
f 342 445 448
f 342 448 343
f 343 448 449
f 343 449 450
f 343 450 345
f 343 345 344
f 345 450 451
f 345 451 347
f 345 347 346
f 347 451 365
f 347 365 348
f 348 365 362
f 348 362 361
f 348 361 350
f 348 350 349
f 352 392 452
f 352 452 354
f 352 354 353
f 354 453 355
f 354 452 454
f 354 454 453
f 355 453 455
f 355 455 356
f 356 455 456
f 356 456 457
f 356 457 357
f 357 457 358
f 358 457 360
f 360 457 397
f 363 368 367
f 363 364 458
f 363 458 368
f 364 366 459
f 364 459 460
f 364 460 461
f 364 461 458
f 365 451 459
f 365 459 366
f 368 458 372
f 368 372 369
f 369 372 370
f 371 372 462
f 371 462 463
f 371 463 464
f 371 464 376
f 372 458 461
f 372 461 465
f 372 465 466
f 372 466 467
f 372 467 462
f 373 387 468
f 373 468 374
f 374 468 388
f 374 388 375
f 376 464 469
f 376 469 377
f 377 469 470
f 377 470 471
f 377 471 472
f 377 472 379
f 377 379 378
f 379 472 473
f 379 473 380
f 380 473 382
f 380 382 381
f 382 473 472
f 382 472 474
f 382 474 383
f 383 475 476
f 383 476 384
f 383 474 475
f 384 476 385
f 385 476 387
f 385 387 386
f 387 476 477
f 387 477 468
f 388 468 389
f 389 477 478
f 389 478 479
f 389 479 391
f 389 391 390
f 389 468 477
f 391 479 480
f 391 480 392
f 392 480 452
f 393 399 481
f 393 481 394
f 394 481 482
f 394 482 483
f 394 483 470
f 394 470 395
f 395 484 396
f 395 470 484
f 396 484 485
f 396 485 400
f 397 457 398
f 398 457 486
f 398 486 481
f 398 481 399
f 400 485 487
f 400 487 488
f 400 488 401
f 401 488 403
f 403 488 404
f 404 488 487
f 404 487 489
f 404 489 406
f 405 409 413
f 405 413 412
f 406 489 490
f 406 490 409
f 406 409 407
f 407 409 408
f 409 491 414
f 409 414 413
f 409 490 492
f 409 492 493
f 409 493 491
f 410 414 494
f 410 494 495
f 410 495 496
f 410 496 497
f 410 497 411
f 411 497 416
f 411 416 415
f 414 491 498
f 414 498 499
f 414 499 500
f 414 500 501
f 414 501 494
f 416 420 417
f 416 497 502
f 416 502 420
f 417 419 418
f 420 503 421
f 420 502 504
f 420 504 423
f 420 423 503
f 421 503 422
f 422 503 423
f 423 504 505
f 423 505 506
f 423 506 507
f 423 507 424
f 424 507 425
f 425 508 428
f 425 428 427
f 425 427 426
f 425 507 462
f 425 462 508
f 428 509 429
f 428 508 509
f 429 509 510
f 429 510 430
f 430 510 511
f 430 511 432
f 432 511 512
f 432 512 433
f 433 512 513
f 433 513 434
f 434 513 436
f 434 436 435
f 436 513 437
f 437 513 514
f 437 514 515
f 437 515 516
f 437 516 438
f 438 516 517
f 438 517 439
f 439 446 440
f 439 517 446
f 440 446 441
f 441 446 443
f 444 517 518
f 444 518 445
f 444 447 517
f 445 518 465
f 445 465 519
f 445 519 520
f 445 520 449
f 445 449 448
f 446 517 447
f 449 520 450
f 450 519 460
f 450 460 451
f 450 520 519
f 451 460 459
f 452 480 454
f 453 454 521
f 453 521 455
f 454 480 522
f 454 522 523
f 454 523 521
f 455 521 524
f 455 524 456
f 456 524 486
f 456 486 457
f 460 525 461
f 460 519 465
f 460 465 525
f 461 525 465
f 462 467 526
f 462 526 508
f 462 507 506
f 462 506 527
f 462 527 528
f 462 528 463
f 463 528 529
f 463 529 464
f 464 529 469
f 465 518 517
f 465 517 516
f 465 516 530
f 465 530 531
f 465 531 532
f 465 532 466
f 466 532 515
f 466 515 514
f 466 514 467
f 467 514 533
f 467 533 508
f 467 508 526
f 469 529 470
f 470 529 534
f 470 534 484
f 470 483 535
f 470 535 536
f 470 536 471
f 471 536 537
f 471 537 472
f 472 537 538
f 472 538 539
f 472 539 540
f 472 540 474
f 474 540 541
f 474 541 475
f 475 478 477
f 475 477 476
f 475 541 478
f 478 541 522
f 478 522 479
f 479 522 480
f 481 486 542
f 481 542 482
f 482 542 543
f 482 543 535
f 482 535 483
f 484 534 485
f 485 534 487
f 486 524 544
f 486 544 545
f 486 545 542
f 487 534 546
f 487 546 489
f 489 546 490
f 490 546 492
f 491 547 498
f 491 493 548
f 491 548 549
f 491 549 547
f 492 546 493
f 493 546 550
f 493 550 548
f 494 551 496
f 494 496 495
f 494 501 551
f 496 552 502
f 496 502 497
f 496 551 552
f 498 547 500
f 498 500 499
f 500 547 553
f 500 553 554
f 500 554 501
f 501 554 555
f 501 555 504
f 501 504 502
f 501 502 552
f 501 552 551
f 504 555 505
f 505 555 527
f 505 527 506
f 508 533 556
f 508 556 557
f 508 557 558
f 508 558 559
f 508 559 509
f 509 559 510
f 510 559 511
f 511 559 557
f 511 557 512
f 512 557 513
f 513 557 514
f 514 557 556
f 514 556 533
f 515 532 560
f 515 560 531
f 515 531 516
f 516 531 530
f 521 561 562
f 521 562 524
f 521 523 563
f 521 563 561
f 522 541 523
f 523 564 563
f 523 541 540
f 523 540 564
f 524 562 565
f 524 565 544
f 527 555 554
f 527 554 553
f 527 553 566
f 527 566 567
f 527 567 528
f 528 567 568
f 528 568 529
f 529 568 546
f 529 546 534
f 531 560 532
f 535 543 536
f 536 543 569
f 536 569 538
f 536 538 537
f 538 569 570
f 538 570 563
f 538 563 539
f 539 563 564
f 539 564 540
f 542 545 543
f 543 545 544
f 543 544 569
f 544 565 569
f 546 568 550
f 547 571 553
f 547 549 572
f 547 572 571
f 548 550 573
f 548 573 572
f 548 572 549
f 550 567 574
f 550 574 573
f 550 568 567
f 553 571 566
f 557 559 558
f 561 570 562
f 561 563 570
f 562 570 569
f 562 569 565
f 566 571 572
f 566 572 575
f 566 575 573
f 566 573 574
f 566 574 567
f 572 573 575

