# https://github.com/mikedh/trimesh
v -0.00871346 0.00294509 -0.00585809
v -0.00928737 0.00294469 -0.00585327
v -0.00928902 0.00494450 -0.00585327
v -0.00871429 0.00494490 -0.00585755
v -0.00203381 0.00494882 -0.00460699
v -0.00203381 0.00294901 -0.00460699
v -0.00981834 0.00294430 -0.00563378
v -0.00981917 0.00494411 -0.00563378
v -0.01022875 0.00494392 -0.00523067
v -0.01045584 0.00494392 -0.00470282
v -0.00385628 0.00494764 -0.00155768
v -0.00203381 0.00494863 -0.00038902
v -0.00935343 0.00494450 -0.00292869
v -0.00203381 0.00294901 -0.00235801
v -0.00251110 0.00294862 -0.00265620
v -0.00408585 0.00294764 -0.00310964
v -0.00987284 0.00294430 -0.00317120
v -0.01022710 0.00294411 -0.00523067
v -0.00441368 0.00294744 -0.00312248
v -0.00474233 0.00294725 -0.00311017
v -0.01045501 0.00294411 -0.00470282
v -0.01046905 0.00494372 -0.00412893
v -0.01026426 0.00494392 -0.00359198
v -0.00935178 0.00294469 -0.00292869
v -0.00203381 0.00476827 -0.00038956
v -0.00987367 0.00494411 -0.00317120
v -0.00203381 0.00444877 -0.00042382
v -0.00752518 0.00294568 -0.00255234
v -0.01026343 0.00294411 -0.00359198
v -0.01046740 0.00294411 -0.00412893
v -0.00809579 0.00294548 -0.00261498
v -0.00766391 0.00299435 -0.00250737
f 1 2 3
f 1 3 4
f 1 4 5
f 1 5 6
f 1 6 2
f 2 7 3
f 2 6 7
f 3 7 8
f 3 8 9
f 3 9 10
f 3 10 4
f 4 10 5
f 5 11 12
f 5 12 25
f 5 25 27
f 5 27 14
f 5 14 6
f 5 10 13
f 5 13 11
f 6 14 15
f 6 15 16
f 6 16 7
f 7 17 18
f 7 18 9
f 7 9 8
f 7 16 19
f 7 19 20
f 7 20 17
f 9 21 10
f 9 18 21
f 10 22 23
f 10 23 13
f 10 21 22
f 11 13 12
f 12 13 24
f 12 24 25
f 13 23 26
f 13 26 17
f 13 17 24
f 14 27 28
f 14 28 15
f 15 28 20
f 15 20 16
f 16 20 19
f 17 26 23
f 17 23 29
f 17 29 18
f 17 20 28
f 17 28 24
f 18 29 30
f 18 30 21
f 21 30 22
f 22 30 29
f 22 29 23
f 24 28 31
f 24 31 27
f 24 27 25
f 27 31 32
f 27 32 28
f 28 32 31

