v -0.00809253 -0.00295471 -0.00261496
v -0.00766087 -0.00300308 -0.00250734
v -0.00752245 -0.00295438 -0.00255217
v -0.00724235 -0.00314987 -0.00240302
v -0.00708304 -0.00295412 -0.00259344
v -0.00684746 -0.00295398 -0.00263968
v -0.00686540 -0.00338791 -0.00230907
v -0.00640510 -0.00295373 -0.00276084
v -0.00685089 0.00294602 -0.00263968
v -0.00640853 0.00294627 -0.00276084
v -0.00686933 0.00337993 -0.00230907
v -0.00708647 0.00294588 -0.00259343
v -0.00809596 0.00294529 -0.00261496
v -0.00752588 0.00294562 -0.00255217
v -0.00766436 0.00299417 -0.00250734
v -0.00724601 0.00314144 -0.00240302
v -0.00618225 -0.00384662 -0.00213881
v -0.00530230 -0.00295308 -0.00303845
v -0.00543487 -0.00418247 -0.00195251
v -0.00472992 -0.00295275 -0.00311028
v -0.00440949 -0.00295256 -0.00312204
v -0.00464386 -0.00438620 -0.00175532
v -0.00407105 -0.00295237 -0.00310844
v -0.00369588 -0.00295215 -0.00305816
v -0.00385052 -0.00445224 -0.00155753
v -0.00348851 -0.00295203 -0.00301297
v 0.00000407 -0.00700000 0.00150000
v -0.00053779 -0.00700031 0.00139871
v 0.00000407 -0.00700000 0.00000000
v 0.00054593 -0.00699968 0.00139872
v 0.00149767 -0.00699913 0.00013841
v 0.00134682 -0.00699922 0.00066861
v 0.00101462 -0.00699941 0.00110852
v 0.00079372 -0.00699954 -0.00127532
v 0.00120110 -0.00699930 -0.00090395
v 0.00144681 -0.00699916 -0.00041049
v -0.00078558 -0.00700046 -0.00127532
v -0.00027155 -0.00700016 -0.00147446
v 0.00027970 -0.00699984 -0.00147445
v -0.00148953 -0.00700087 0.00013840
v -0.00143867 -0.00700084 -0.00041049
v -0.00119295 -0.00700069 -0.00090394
v -0.00100647 -0.00700059 0.00110852
v -0.00133867 -0.00700078 0.00066861
v -0.00010995 -0.00195006 -0.00078762
v 0.00153982 -0.00194910 -0.00049672
v -0.00011255 -0.00214527 -0.00080800
v 0.00153614 -0.00216267 -0.00052082
v -0.00011830 -0.00229429 -0.00085165
v -0.00015203 -0.00266916 -0.00110577
v -0.00014516 -0.00261831 -0.00105415
v 0.00145734 -0.00266022 -0.00081280
v -0.00013307 -0.00250612 -0.00096314
v 0.00149380 -0.00254186 -0.00070250
v 0.00152234 -0.00236381 -0.00059128
v 0.00144462 -0.00268918 -0.00084606
v 0.00136628 -0.00280426 -0.00101631
v -0.00019663 -0.00287628 -0.00144057
v 0.00091755 -0.00294982 -0.00162198
v -0.00024828 -0.00295014 -0.00182754
v 0.00110480 -0.00293402 -0.00141178
v 0.00125523 -0.00288536 -0.00120525
v -0.00037077 -0.00295022 -0.00402338
v -0.00069885 -0.00295041 -0.00420203
v -0.00074073 -0.00295043 -0.00422130
v -0.00128695 -0.00295075 -0.00443039
v -0.00187809 -0.00295109 -0.00457887
v -0.00250694 -0.00295146 -0.00265579
v -0.00162100 -0.00295094 -0.00210247
v -0.00086935 -0.00295051 -0.00137717
v -0.00046525 -0.00295027 -0.00157824
v -0.00073830 -0.00295043 -0.00121434
v -0.00871016 -0.00295507 -0.00585808
v 0.00091658 -0.00294947 -0.00197005
v 0.00090513 -0.00294947 -0.00208480
v 0.00086494 -0.00294950 -0.00231716
v 0.00042491 -0.00294975 -0.00328514
v 0.00018625 -0.00294989 -0.00356966
v -0.00007477 -0.00295004 -0.00381101
v -0.00928452 -0.00295540 -0.00585375
v -0.00934911 -0.00295544 -0.00292826
v 0.00076568 -0.00294955 -0.00265303
v 0.00061672 -0.00294964 -0.00298115
v -0.00981514 -0.00295571 -0.00563387
v -0.01022422 -0.00295595 -0.00523069
v -0.00986950 -0.00295574 -0.00317134
v -0.01026039 -0.00295597 -0.00359219
v -0.01046445 -0.00295609 -0.00412909
v -0.01045178 -0.00295608 -0.00470332
v -0.00011222 0.00194994 -0.00078763
v 0.00153755 0.00195089 -0.00049673
v -0.00019863 0.00287206 -0.00143049
v -0.00020377 0.00288665 -0.00146891
v 0.00127534 0.00287433 -0.00116898
v -0.00020810 0.00289767 -0.00150124
v -0.00025172 0.00294985 -0.00182754
v 0.00091412 0.00295038 -0.00162198
v 0.00111991 0.00293156 -0.00138820
v -0.00016179 0.00271161 -0.00115542
v 0.00138273 0.00278364 -0.00097730
v -0.00015069 0.00263719 -0.00107261
v 0.00145269 0.00266526 -0.00081652
v -0.00012309 0.00233299 -0.00086737
v 0.00149837 0.00250812 -0.00067585
v -0.00012230 0.00231900 -0.00086149
v 0.00153546 0.00210937 -0.00050991
v 0.00152403 0.00231961 -0.00057062
v -0.00349194 0.00294797 -0.00301297
v -0.00385570 0.00444776 -0.00155753
v -0.00369931 0.00294785 -0.00305816
v -0.00466337 0.00437833 -0.00175892
v -0.00408550 0.00294762 -0.00310934
v -0.00441292 0.00294743 -0.00312204
v -0.00544894 0.00417290 -0.00195481
v -0.00474184 0.00294724 -0.00310967
v -0.00619101 0.00383704 -0.00213988
v -0.00530574 0.00294691 -0.00303845
v -0.00087279 0.00294949 -0.00137717
v -0.00162443 0.00294906 -0.00210248
v -0.00129038 0.00294925 -0.00443039
v 0.00091631 0.00295053 -0.00192379
v 0.00087197 0.00295051 -0.00226821
v -0.00060907 0.00294965 -0.00140168
v -0.00074182 0.00294957 -0.00121445
v -0.00188152 0.00294891 -0.00457887
v -0.00251037 0.00294854 -0.00265580
v -0.00039196 0.00294977 -0.00403480
v -0.00007572 0.00294996 -0.00380993
v -0.00043081 0.00294975 -0.00162104
v -0.00053044 0.00294969 -0.00150165
v -0.00871360 0.00294493 -0.00585809
v -0.00074416 0.00294957 -0.00422130
v 0.00018284 0.00295011 -0.00357048
v 0.00042300 0.00295025 -0.00328256
v 0.00062067 0.00295036 -0.00296601
v 0.00077138 0.00295045 -0.00262725
v 0.00086962 0.00295051 -0.00227973
v -0.00935254 0.00294456 -0.00292826
v -0.00928795 0.00294460 -0.00585375
v -0.00987293 0.00294426 -0.00317134
v -0.00981857 0.00294429 -0.00563387
v -0.01045521 0.00294392 -0.00470332
v -0.01022765 0.00294405 -0.00523069
v -0.01046789 0.00294391 -0.00412909
v -0.01026382 0.00294403 -0.00359219
v -0.00000407 0.00700000 0.00150000
v 0.00053779 0.00700031 0.00139871
v -0.00000407 0.00700000 0.00000001
v -0.00054593 0.00699968 0.00139871
v -0.00149767 0.00699913 0.00013841
v -0.00134682 0.00699922 0.00066861
v -0.00101461 0.00699941 0.00110852
v -0.00079372 0.00699954 -0.00127532
v -0.00120110 0.00699930 -0.00090395
v -0.00144681 0.00699916 -0.00041049
v 0.00078558 0.00700046 -0.00127532
v 0.00027155 0.00700016 -0.00147446
v -0.00027970 0.00699984 -0.00147445
v 0.00148953 0.00700087 0.00013841
v 0.00143867 0.00700084 -0.00041049
v 0.00119295 0.00700069 -0.00090394
v 0.00100647 0.00700059 0.00110852
v 0.00133867 0.00700078 0.00066861
v -0.00104752 -0.00426980 0.00231505
v -0.00104750 -0.00429086 0.00156930
v -0.00106308 -0.00431473 0.00194783
v -0.00110953 -0.00435388 0.00158436
v -0.00113651 -0.00436777 0.00144115
v -0.00104758 -0.00415814 0.00080821
v -0.00129864 -0.00441440 0.00086119
v -0.00096114 -0.00319653 -0.00110034
v -0.00093037 -0.00315168 -0.00113370
v -0.00101979 -0.00330973 -0.00099151
v -0.00098308 -0.00323305 -0.00106919
v -0.00201711 -0.00445117 -0.00041247
v -0.00139995 -0.00442969 0.00060317
v -0.00104776 -0.00385304 -0.00002396
v -0.00160365 -0.00444609 0.00019121
v -0.00104778 -0.00381235 -0.00011186
v -0.00182702 -0.00445106 -0.00016444
v -0.00104800 -0.00344309 -0.00080657
v -0.00103126 -0.00334222 -0.00095309
v -0.00083260 -0.00303751 -0.00119389
v -0.00079212 -0.00299814 -0.00120597
v -0.00316342 -0.00445184 -0.00130750
v -0.00307045 -0.00445179 -0.00126045
v -0.00238292 -0.00445139 -0.00078711
v -0.00254326 -0.00445148 -0.00092018
v -0.00024886 -0.00195014 -0.00079971
v -0.00099043 -0.00195058 -0.00029992
v -0.00097729 -0.00195057 -0.00033052
v -0.00097667 -0.00223668 -0.00035834
v -0.00078978 -0.00295393 -0.00113736
v -0.00098216 -0.00318091 -0.00098768
v -0.00098015 -0.00299411 -0.00076102
v -0.00104820 -0.00310074 -0.00042189
v -0.00097852 -0.00276881 -0.00057681
v -0.00104838 -0.00277792 -0.00020380
v -0.00097734 -0.00251291 -0.00044157
v -0.00104857 -0.00245949 -0.00007424
v -0.00104887 -0.00195061 0.00000022
v -0.00035979 -0.00287827 -0.00142853
v -0.00051954 -0.00291510 -0.00141386
v -0.00050256 -0.00281214 -0.00123040
v -0.00032056 -0.00265509 -0.00109448
v -0.00078208 -0.00279851 -0.00095365
v -0.00077572 -0.00261338 -0.00080535
v -0.00077100 -0.00240506 -0.00069727
v -0.00076808 -0.00218142 -0.00063123
v -0.00076630 -0.00195045 -0.00060991
v -0.00042386 -0.00195025 -0.00078040
v -0.00045845 -0.00195027 -0.00077184
v -0.00046025 -0.00214890 -0.00079112
v -0.00046596 -0.00234114 -0.00084856
v -0.00047516 -0.00252011 -0.00094246
v -0.00048754 -0.00267897 -0.00107115
v -0.00032365 0.00265480 -0.00109429
v -0.00049071 0.00267872 -0.00107072
v -0.00050587 0.00281195 -0.00123011
v -0.00083700 0.00303748 -0.00119347
v -0.00079564 0.00299724 -0.00120598
v -0.00079325 0.00295302 -0.00113735
v -0.00052295 0.00291494 -0.00141371
v -0.00098644 0.00317974 -0.00098770
v -0.00098740 0.00323210 -0.00106959
v -0.00096679 0.00319778 -0.00109896
v -0.00093562 0.00315241 -0.00113279
v -0.00105200 0.00344187 -0.00080657
v -0.00103531 0.00334079 -0.00095367
v -0.00102436 0.00330954 -0.00099081
v -0.00098001 0.00223553 -0.00035838
v -0.00097974 0.00194943 -0.00033014
v -0.00099270 0.00194942 -0.00029992
v -0.00105198 0.00340833 -0.00075768
v -0.00098427 0.00299294 -0.00076104
v -0.00105181 0.00311637 -0.00043621
v -0.00098242 0.00276765 -0.00057683
v -0.00105165 0.00283163 -0.00023440
v -0.00098098 0.00251175 -0.00044159
v -0.00105153 0.00263915 -0.00013936
v -0.00105143 0.00245313 -0.00007278
v -0.00105113 0.00194939 0.00000022
v -0.00029701 0.00232947 -0.00087496
v -0.00025113 0.00194985 -0.00079958
v -0.00046877 0.00234074 -0.00084791
v -0.00042613 0.00194975 -0.00078041
v -0.00046285 0.00214842 -0.00079040
v -0.00046114 0.00194973 -0.00077172
v -0.00047816 0.00251979 -0.00094190
v -0.00078538 0.00279760 -0.00095361
v -0.00077881 0.00261247 -0.00080530
v -0.00077385 0.00240415 -0.00069722
v -0.00077068 0.00218052 -0.00063117
v -0.00076856 0.00194955 -0.00060991
v -0.00202229 0.00444882 -0.00041246
v -0.00183219 0.00444894 -0.00016443
v -0.00160883 0.00444423 0.00019122
v -0.00105221 0.00380346 -0.00012807
v -0.00105229 0.00393772 0.00017353
v -0.00140510 0.00442806 0.00060318
v -0.00130377 0.00441288 0.00086119
v -0.00105241 0.00414863 0.00077809
v -0.00105245 0.00420731 0.00101274
v -0.00114159 0.00436645 0.00144115
v -0.00105250 0.00429020 0.00157705
v -0.00105250 0.00429902 0.00177631
v -0.00106813 0.00431354 0.00194740
v -0.00105248 0.00426857 0.00231505
v -0.00238809 0.00444861 -0.00078712
v -0.00254844 0.00444852 -0.00092018
v -0.00316860 0.00444816 -0.00130751
v -0.00307563 0.00444821 -0.00126045
v -0.00870900 -0.00495507 -0.00585809
v -0.00928336 -0.00495540 -0.00585374
v -0.00981397 -0.00495571 -0.00563387
v -0.01022305 -0.00495595 -0.00523068
v -0.01045061 -0.00495608 -0.00470331
v -0.01046329 -0.00495609 -0.00412909
v -0.01025923 -0.00495597 -0.00359219
v -0.00986834 -0.00495574 -0.00317135
v -0.00934794 -0.00495544 -0.00292826
v -0.00385023 -0.00495224 -0.00155753
v -0.00307016 -0.00495179 -0.00126045
v -0.00238263 -0.00495139 -0.00078712
v -0.00182672 -0.00495106 -0.00016443
v -0.00139964 -0.00495081 0.00060318
v -0.00104712 -0.00495061 0.00231505
v -0.00113617 -0.00495066 0.00144115
v 0.00220269 -0.00462071 0.00554539
v 0.00220247 -0.00425288 0.00587544
v -0.00104752 -0.00425477 0.00587544
v -0.00104731 -0.00462260 0.00554539
v -0.00104717 -0.00486623 0.00510521
v 0.00220283 -0.00486434 0.00510521
v -0.00104712 -0.00495061 0.00460922
v 0.00220288 -0.00494872 0.00460922
v -0.00187693 -0.00495109 -0.00457887
v 0.00002532 -0.00301360 -0.00375121
v 0.00107957 -0.00296658 -0.00166707
v 0.00175401 -0.00258483 -0.00063105
v 0.00178156 -0.00238802 -0.00050520
v 0.00179533 -0.00217301 -0.00042856
v 0.00186137 -0.00194892 -0.00036308
v 0.00121206 -0.00301311 -0.00173390
v 0.00138305 -0.00301222 -0.00149056
v 0.00152295 -0.00296975 -0.00124468
v 0.00163070 -0.00288360 -0.00100960
v 0.00170630 -0.00275346 -0.00080141
v 0.00102378 -0.00306745 -0.00240786
v 0.00091594 -0.00297355 -0.00230271
v 0.00101323 -0.00297829 -0.00196931
v 0.00059613 -0.00295861 -0.00303530
v 0.00063980 -0.00311299 -0.00315817
v 0.00064718 -0.00329087 -0.00325391
v 0.00190324 -0.00336662 -0.00121983
v 0.00200590 -0.00324333 -0.00088089
v 0.00208037 -0.00347531 -0.00076057
v 0.00212380 -0.00335517 -0.00054701
v 0.00207514 -0.00306191 -0.00057830
v 0.00214627 -0.00325960 -0.00041062
v 0.00133191 -0.00326792 -0.00220438
v 0.00124514 -0.00314469 -0.00213495
v 0.00152962 -0.00330777 -0.00189108
v 0.00144139 -0.00318707 -0.00184808
v 0.00160921 -0.00318719 -0.00155201
v 0.00091249 -0.00323706 -0.00288366
v 0.00092973 -0.00340841 -0.00296329
v 0.00106116 -0.00363942 -0.00284269
v 0.00110821 -0.00319127 -0.00250281
v 0.00116497 -0.00333919 -0.00258283
v 0.00119136 -0.00350383 -0.00264406
v 0.00114529 -0.00366513 -0.00273705
v 0.00142823 -0.00356868 -0.00230136
v 0.00139380 -0.00341133 -0.00226064
v 0.00163638 -0.00359439 -0.00194062
v 0.00159543 -0.00344528 -0.00192230
v 0.00176628 -0.00343287 -0.00157302
v -0.00040598 -0.00307163 -0.00405439
v -0.00037463 -0.00308364 -0.00403709
v -0.00001199 -0.00322782 -0.00381477
v 0.00038488 -0.00338881 -0.00352032
v 0.00065390 -0.00349459 -0.00328259
v 0.00201100 -0.00194883 -0.00022635
v 0.00212146 -0.00194877 -0.00005642
v 0.00200746 -0.00220998 -0.00025798
v 0.00214810 -0.00225941 -0.00002730
v 0.00199443 -0.00246060 -0.00035182
v 0.00213813 -0.00255705 -0.00014174
v 0.00196830 -0.00269006 -0.00050571
v 0.00211624 -0.00282887 -0.00032818
v 0.00192275 -0.00288665 -0.00071363
v 0.00185001 -0.00303825 -0.00096720
v 0.00174564 -0.00313835 -0.00125308
v 0.00217879 -0.00301338 -0.00014314
v 0.00219771 -0.00259023 0.00013845
v 0.00220066 -0.00231551 0.00023633
v 0.00220097 -0.00212121 0.00027241
v 0.00220085 -0.00194872 0.00028263
v 0.00201489 -0.00358402 -0.00101877
v 0.00197159 -0.00363151 -0.00116484
v 0.00182822 -0.00371846 -0.00156323
v 0.00159672 -0.00374932 -0.00204762
v 0.00152984 -0.00374526 -0.00216627
v 0.00185910 0.00195108 -0.00036307
v 0.00219858 0.00195128 0.00028262
v 0.00211919 0.00195123 -0.00005643
v 0.00200870 0.00195117 -0.00022638
v 0.00107512 0.00296709 -0.00166793
v 0.00002080 0.00301267 -0.00375317
v 0.00064408 0.00329243 -0.00325215
v -0.00060481 0.00299844 -0.00415582
v 0.00059337 0.00296007 -0.00303360
v 0.00110382 0.00319188 -0.00250487
v 0.00100810 0.00297815 -0.00197229
v 0.00120750 0.00301367 -0.00173497
v 0.00137950 0.00301377 -0.00148920
v 0.00151961 0.00297162 -0.00124328
v 0.00162706 0.00288534 -0.00100960
v 0.00170270 0.00275525 -0.00080197
v 0.00175091 0.00258693 -0.00063099
v 0.00177891 0.00239030 -0.00050466
v 0.00179284 0.00217519 -0.00042830
v 0.00091176 0.00297401 -0.00230450
v 0.00101950 0.00306799 -0.00240980
v 0.00113209 0.00304664 -0.00205871
v 0.00123977 0.00314463 -0.00213850
v 0.00132948 0.00308822 -0.00179618
v 0.00143658 0.00318777 -0.00184937
v 0.00160544 0.00318901 -0.00155044
v 0.00063688 0.00311453 -0.00315645
v 0.00090949 0.00323883 -0.00288246
v 0.00092653 0.00341018 -0.00296210
v 0.00116047 0.00333983 -0.00258501
v 0.00118673 0.00350443 -0.00264635
v 0.00152062 0.00374506 -0.00217584
v -0.00040956 0.00307088 -0.00405507
v -0.00037841 0.00308281 -0.00403797
v 0.00009198 0.00327122 -0.00374174
v 0.00038106 0.00338932 -0.00352008
v 0.00067563 0.00350587 -0.00325661
v 0.00105727 0.00364067 -0.00284308
v 0.00115099 0.00366885 -0.00272567
v 0.00200188 0.00324552 -0.00088091
v 0.00211899 0.00335975 -0.00055146
v 0.00207124 0.00306411 -0.00057903
v 0.00214880 0.00322695 -0.00036684
v 0.00211292 0.00283145 -0.00032812
v 0.00176226 0.00343496 -0.00157126
v 0.00196682 0.00363481 -0.00116506
v 0.00189946 0.00336905 -0.00121802
v 0.00200286 0.00359640 -0.00104525
v 0.00207619 0.00347760 -0.00076056
v 0.00219739 0.00242009 0.00020729
v 0.00214556 0.00226204 -0.00002696
v 0.00219314 0.00266915 0.00010151
v 0.00213534 0.00255985 -0.00014104
v 0.00218606 0.00285652 -0.00001452
v 0.00217763 0.00298827 -0.00011856
v 0.00200495 0.00221242 -0.00025768
v 0.00199171 0.00246318 -0.00035120
v 0.00196507 0.00269243 -0.00050565
v 0.00191898 0.00288867 -0.00071431
v 0.00184618 0.00304023 -0.00096723
v 0.00174210 0.00314051 -0.00125146
v 0.00159040 0.00344612 -0.00192366
v 0.00138825 0.00341130 -0.00226451
v 0.00159249 0.00374986 -0.00204777
v 0.00181364 0.00372409 -0.00158603
v -0.00871476 0.00494493 -0.00585808
v -0.00928911 0.00494460 -0.00585375
v -0.00981973 0.00494429 -0.00563386
v -0.01022881 0.00494405 -0.00523069
v -0.01045637 0.00494392 -0.00470332
v -0.01046905 0.00494391 -0.00412908
v -0.01026498 0.00494403 -0.00359219
v -0.00987410 0.00494426 -0.00317135
v -0.00935370 0.00494456 -0.00292827
v -0.00385599 0.00494776 -0.00155753
v -0.00307592 0.00494821 -0.00126045
v -0.00238839 0.00494861 -0.00078711
v -0.00183248 0.00494893 -0.00016444
v -0.00105288 0.00494939 0.00231505
v -0.00114192 0.00494934 0.00144115
v -0.00140540 0.00494918 0.00060317
v -0.00188269 0.00494891 -0.00457887
v -0.00105269 0.00462138 0.00554538
v -0.00105247 0.00425355 0.00587543
v 0.00219753 0.00425544 0.00587543
v 0.00219731 0.00462327 0.00554538
v 0.00219717 0.00486690 0.00510519
v -0.00105283 0.00486501 0.00510519
v 0.00219712 0.00495128 0.00460921
v -0.00105288 0.00494939 0.00460921
v 0.00219913 0.00149747 0.00756240
v 0.00219879 0.00207272 0.00726166
v 0.00141480 0.00179096 0.00742413
v 0.00049321 0.00207172 0.00726166
v 0.00049564 -0.00207115 0.00726167
v 0.00220120 -0.00207016 0.00726166
v 0.00141689 -0.00178932 0.00742413
v 0.00220087 -0.00149492 0.00756240
v -0.00104922 -0.00134119 0.00512488
v -0.00104904 -0.00164507 0.00459854
v -0.00105145 0.00249962 0.00698934
v -0.00105078 0.00133997 0.00512489
v -0.00105096 0.00164385 0.00459854
v -0.00105051 0.00087439 0.00551555
v -0.00105018 0.00030327 0.00572342
v -0.00104855 -0.00250084 0.00698934
v -0.00104982 -0.00030450 0.00572342
v -0.00105018 0.00030327 0.00227659
v -0.00105051 0.00087439 0.00248446
v -0.00105078 0.00133997 0.00287512
v -0.00105096 0.00164385 0.00340147
v -0.00105102 0.00174939 0.00400001
v -0.00104949 -0.00087561 0.00551555
v -0.00104898 -0.00175061 0.00400001
v -0.00104904 -0.00164507 0.00340147
v -0.00104922 -0.00134119 0.00287513
v -0.00104982 -0.00030450 0.00227659
v -0.00104949 -0.00087561 0.00248446
v -0.00078677 -0.00495046 -0.00127532
v -0.00119415 -0.00495070 -0.00090395
v 0.00054474 -0.00494968 0.00139872
v 0.00101342 -0.00494941 0.00110852
v 0.00220288 -0.00494872 0.00033572
v -0.00128579 -0.00495075 -0.00443040
v -0.00027274 -0.00495016 -0.00147446
v -0.00040549 -0.00495024 -0.00405519
v 0.00027850 -0.00494984 -0.00147445
v 0.00000288 -0.00495000 0.00150001
v -0.00053898 -0.00495031 0.00139872
v -0.00100766 -0.00495059 0.00110852
v -0.00133987 -0.00495078 0.00066861
v -0.00149072 -0.00495087 0.00013841
v -0.00143986 -0.00495084 -0.00041049
v 0.00038720 -0.00494978 -0.00351915
v 0.00106326 -0.00494938 -0.00284193
v 0.00079253 -0.00494954 -0.00127532
v 0.00159792 -0.00494907 -0.00204831
v 0.00119991 -0.00494930 -0.00090395
v 0.00197160 -0.00494885 -0.00116736
v 0.00144562 -0.00494916 -0.00041049
v 0.00217062 -0.00494874 -0.00023137
v 0.00149648 -0.00494913 0.00013840
v 0.00134562 -0.00494922 0.00066861
v 0.00038144 0.00495022 -0.00351916
v -0.00041125 0.00494976 -0.00405519
v -0.00129154 0.00494925 -0.00443039
v 0.00105750 0.00495062 -0.00284193
v 0.00159217 0.00495093 -0.00204830
v 0.00196585 0.00495114 -0.00116736
v 0.00216486 0.00495126 -0.00023136
v 0.00219712 0.00495128 0.00033572
v 0.00149072 0.00495087 0.00013841
v 0.00133987 0.00495078 0.00066861
v 0.00143986 0.00495084 -0.00041049
v 0.00119415 0.00495070 -0.00090394
v 0.00078677 0.00495046 -0.00127532
v -0.00027850 0.00494984 -0.00147445
v -0.00079253 0.00494954 -0.00127532
v -0.00119990 0.00494930 -0.00090395
v 0.00027274 0.00495016 -0.00147446
v 0.00100766 0.00495059 0.00110852
v 0.00053898 0.00495031 0.00139871
v -0.00000288 0.00495000 0.00150000
v -0.00054474 0.00494968 0.00139871
v -0.00101342 0.00494941 0.00110851
v -0.00134562 0.00494922 0.00066861
v -0.00144562 0.00494916 -0.00041049
v -0.00149648 0.00494913 0.00013841
v 0.00219904 0.00164574 0.00340147
v 0.00219922 0.00134186 0.00287512
v 0.00219898 0.00175128 0.00400001
v 0.00220051 -0.00087372 0.00248446
v 0.00220078 -0.00133930 0.00287513
v 0.00220096 -0.00164318 0.00340147
v 0.00220102 -0.00174872 0.00400001
v 0.00220096 -0.00164318 0.00459854
v 0.00219904 0.00164574 0.00459854
v 0.00219922 0.00134186 0.00512489
v 0.00219949 0.00087628 0.00551555
v 0.00219982 0.00030516 0.00572342
v 0.00220018 -0.00030260 0.00572342
v 0.00220051 -0.00087372 0.00551555
v 0.00220078 -0.00133930 0.00512488
v 0.00219949 0.00087628 0.00248446
v 0.00219982 0.00030516 0.00227659
v 0.00220018 -0.00030260 0.00227659
f 1 2 3
f 3 2 4
f 3 4 5
f 5 4 6
f 6 4 7
f 6 7 8
f 9 10 11
f 9 11 12
f 13 14 15
f 15 14 12
f 15 12 16
f 16 12 11
f 8 7 17
f 8 17 18
f 18 17 19
f 18 19 20
f 20 19 21
f 21 19 22
f 21 22 23
f 23 22 24
f 24 22 25
f 24 25 26
f 27 28 29
f 27 29 30
f 31 32 29
f 29 32 33
f 29 33 30
f 34 35 29
f 29 35 36
f 29 36 31
f 37 38 29
f 29 38 39
f 29 39 34
f 40 41 29
f 29 41 42
f 29 42 37
f 28 43 29
f 29 43 44
f 29 44 40
f 45 46 47
f 47 46 48
f 47 48 49
f 50 51 52
f 52 51 53
f 52 53 54
f 54 53 49
f 54 49 55
f 55 49 48
f 52 56 50
f 50 56 57
f 50 57 58
f 59 60 61
f 61 60 58
f 61 58 62
f 62 58 57
f 63 64 60
f 60 64 65
f 60 65 66
f 24 26 67
f 67 26 68
f 67 68 66
f 66 68 69
f 66 69 60
f 60 69 70
f 60 70 71
f 71 70 72
f 8 18 73
f 59 74 60
f 60 74 75
f 60 75 76
f 3 5 73
f 73 5 6
f 73 6 8
f 77 78 60
f 60 78 79
f 60 79 63
f 18 20 73
f 73 20 21
f 73 21 67
f 67 21 23
f 67 23 24
f 80 81 73
f 73 81 1
f 73 1 3
f 76 82 60
f 60 82 83
f 60 83 77
f 80 84 85
f 86 81 87
f 87 81 80
f 87 80 88
f 88 80 85
f 88 85 89
f 45 90 46
f 46 90 91
f 92 93 94
f 95 96 97
f 95 97 93
f 93 97 98
f 93 98 94
f 92 94 99
f 99 94 100
f 99 100 101
f 101 100 102
f 101 102 103
f 103 102 104
f 103 104 105
f 91 90 106
f 106 90 105
f 106 105 107
f 107 105 104
f 108 109 110
f 110 109 111
f 110 111 112
f 112 111 113
f 113 111 114
f 113 114 115
f 115 114 116
f 115 116 117
f 117 116 11
f 117 11 10
f 118 119 120
f 97 96 121
f 121 96 122
f 123 124 118
f 120 119 125
f 125 119 126
f 125 126 108
f 127 128 96
f 96 129 118
f 118 129 130
f 118 130 123
f 115 117 131
f 131 117 10
f 118 120 96
f 96 120 132
f 96 132 127
f 128 133 96
f 96 133 134
f 96 134 135
f 135 136 96
f 96 136 137
f 96 137 122
f 108 110 125
f 125 110 112
f 125 112 131
f 131 112 113
f 131 113 115
f 10 9 131
f 131 9 12
f 131 12 14
f 14 13 131
f 131 13 138
f 131 138 139
f 139 138 140
f 139 140 141
f 142 143 144
f 144 143 141
f 144 141 145
f 145 141 140
f 146 147 148
f 146 148 149
f 150 151 148
f 148 151 152
f 148 152 149
f 153 154 148
f 148 154 155
f 148 155 150
f 156 157 148
f 148 157 158
f 148 158 153
f 159 160 148
f 148 160 161
f 148 161 156
f 147 162 148
f 148 162 163
f 148 163 159
f 164 165 166
f 166 165 167
f 167 165 168
f 168 165 169
f 168 169 170
f 171 172 70
f 173 174 175
f 170 169 176
f 176 169 177
f 176 177 178
f 178 177 179
f 178 179 180
f 180 179 181
f 180 181 175
f 175 181 182
f 175 182 173
f 172 183 70
f 70 183 184
f 70 184 72
f 68 26 25
f 25 185 68
f 68 185 186
f 68 186 69
f 174 171 175
f 175 171 70
f 175 70 187
f 187 70 69
f 187 69 188
f 188 69 186
f 189 45 47
f 190 191 192
f 72 184 193
f 194 174 173
f 183 172 194
f 194 172 171
f 194 171 174
f 58 60 71
f 173 182 194
f 194 182 181
f 194 181 195
f 195 181 196
f 195 196 197
f 197 196 198
f 197 198 199
f 199 198 200
f 199 200 192
f 192 200 201
f 192 201 190
f 202 203 204
f 202 204 205
f 184 183 193
f 193 183 194
f 193 194 206
f 206 194 195
f 206 195 207
f 207 195 197
f 207 197 208
f 208 197 199
f 208 199 209
f 209 199 192
f 209 192 210
f 210 192 191
f 189 47 211
f 212 211 213
f 213 211 47
f 213 47 214
f 214 47 49
f 214 49 215
f 215 49 53
f 53 51 215
f 215 51 205
f 215 205 216
f 216 205 204
f 51 50 205
f 205 50 58
f 205 58 202
f 202 58 71
f 202 71 203
f 203 71 72
f 203 72 204
f 204 72 193
f 204 193 216
f 216 193 206
f 216 206 215
f 215 206 207
f 215 207 214
f 214 207 208
f 214 208 213
f 213 208 209
f 213 209 212
f 212 209 210
f 217 218 219
f 220 221 222
f 96 95 129
f 129 95 130
f 130 95 93
f 130 93 223
f 223 93 92
f 223 92 219
f 219 124 223
f 223 124 123
f 223 123 130
f 224 225 226
f 220 222 227
f 228 229 224
f 224 229 230
f 224 230 225
f 231 232 233
f 228 224 234
f 234 224 235
f 234 235 236
f 236 235 237
f 236 237 238
f 238 237 239
f 238 239 240
f 240 239 231
f 240 231 241
f 241 231 233
f 241 233 242
f 243 244 245
f 245 244 246
f 245 246 247
f 247 246 248
f 243 245 217
f 217 245 249
f 217 249 218
f 221 124 222
f 222 124 219
f 222 219 250
f 250 219 218
f 250 218 251
f 251 218 249
f 251 249 252
f 252 249 245
f 252 245 253
f 253 245 247
f 253 247 254
f 254 247 248
f 90 244 105
f 105 244 243
f 105 243 103
f 103 243 217
f 103 217 101
f 101 217 219
f 101 219 99
f 99 219 92
f 226 227 224
f 224 227 222
f 224 222 235
f 235 222 250
f 235 250 237
f 237 250 251
f 237 251 239
f 239 251 252
f 239 252 231
f 231 252 253
f 231 253 232
f 232 253 254
f 124 221 118
f 118 221 220
f 118 220 227
f 226 225 255
f 255 225 230
f 230 229 255
f 255 229 228
f 255 228 256
f 256 228 257
f 228 258 257
f 257 258 259
f 257 259 260
f 260 259 261
f 259 262 261
f 261 262 263
f 261 263 264
f 263 265 264
f 264 265 266
f 264 266 267
f 267 266 268
f 227 226 118
f 118 226 255
f 118 255 119
f 255 269 119
f 119 269 270
f 119 270 126
f 109 108 271
f 271 108 126
f 271 126 272
f 272 126 270
f 73 273 274
f 73 274 80
f 80 274 275
f 80 275 84
f 84 275 276
f 84 276 85
f 85 276 277
f 85 277 89
f 89 277 278
f 89 278 88
f 88 278 279
f 88 279 87
f 87 279 280
f 87 280 86
f 86 280 281
f 86 281 81
f 1 81 281
f 282 25 22
f 282 22 281
f 22 19 281
f 281 19 17
f 281 17 7
f 7 4 281
f 281 4 2
f 281 2 1
f 25 282 185
f 185 282 283
f 185 283 186
f 186 283 188
f 188 283 284
f 188 284 187
f 187 284 175
f 175 284 285
f 175 285 180
f 180 285 178
f 178 285 286
f 178 286 176
f 287 164 166
f 287 166 288
f 166 167 288
f 288 167 168
f 288 168 286
f 286 168 170
f 286 170 176
f 289 290 291
f 291 292 289
f 289 292 293
f 289 293 294
f 294 293 295
f 294 295 296
f 273 73 297
f 297 73 67
f 78 298 79
f 59 299 74
f 300 55 301
f 301 55 48
f 301 48 302
f 302 48 46
f 302 46 303
f 304 61 305
f 305 61 62
f 305 62 306
f 306 62 57
f 306 57 307
f 307 57 56
f 307 56 308
f 308 56 52
f 308 52 300
f 300 52 54
f 300 54 55
f 309 310 311
f 59 61 299
f 299 61 304
f 299 304 74
f 74 304 311
f 74 311 75
f 75 311 310
f 75 310 76
f 83 312 77
f 77 312 313
f 77 313 78
f 78 313 314
f 78 314 298
f 315 316 317
f 317 316 318
f 318 316 319
f 318 319 320
f 321 322 323
f 323 322 324
f 323 324 325
f 312 326 313
f 313 326 327
f 313 327 314
f 314 327 328
f 76 310 82
f 82 310 309
f 82 309 83
f 83 309 329
f 83 329 312
f 312 329 330
f 312 330 326
f 326 330 331
f 326 331 327
f 327 331 332
f 327 332 328
f 333 334 335
f 335 334 336
f 335 336 337
f 65 64 338
f 338 64 63
f 338 63 339
f 339 63 79
f 339 79 340
f 340 79 298
f 340 298 341
f 341 298 314
f 341 314 342
f 342 314 328
f 343 344 345
f 345 344 346
f 345 346 347
f 347 346 348
f 347 348 349
f 349 348 350
f 349 350 351
f 351 350 319
f 351 319 352
f 352 319 316
f 352 316 353
f 353 316 315
f 353 315 325
f 325 315 337
f 325 337 323
f 323 337 336
f 323 336 321
f 321 336 334
f 320 319 354
f 354 319 350
f 354 350 355
f 355 350 348
f 355 348 356
f 356 348 346
f 356 346 357
f 357 346 344
f 357 344 358
f 317 359 315
f 315 359 360
f 315 360 337
f 337 360 361
f 337 361 335
f 335 361 362
f 335 362 333
f 333 362 363
f 303 343 302
f 302 343 345
f 302 345 301
f 301 345 347
f 301 347 300
f 300 347 349
f 300 349 308
f 308 349 351
f 308 351 307
f 307 351 352
f 307 352 306
f 306 352 353
f 306 353 305
f 305 353 325
f 305 325 304
f 304 325 324
f 304 324 311
f 311 324 322
f 311 322 309
f 309 322 321
f 309 321 329
f 329 321 334
f 329 334 330
f 330 334 333
f 330 333 331
f 331 333 363
f 331 363 332
f 46 91 364
f 365 358 366
f 366 358 344
f 366 344 367
f 367 344 343
f 367 343 364
f 364 343 303
f 364 303 46
f 121 368 97
f 133 369 370
f 369 133 128
f 127 132 371
f 134 372 135
f 135 372 373
f 135 373 136
f 97 368 98
f 122 374 121
f 121 374 375
f 121 375 368
f 368 375 376
f 368 376 98
f 98 376 377
f 98 377 94
f 94 377 378
f 94 378 100
f 100 378 379
f 100 379 102
f 102 379 380
f 102 380 104
f 104 380 381
f 104 381 107
f 107 381 382
f 107 382 106
f 106 382 364
f 106 364 91
f 383 384 385
f 385 384 386
f 385 386 387
f 387 386 388
f 387 388 389
f 134 133 390
f 390 133 370
f 390 370 391
f 391 370 392
f 391 392 393
f 393 392 394
f 393 394 395
f 371 396 127
f 127 396 397
f 127 397 128
f 128 397 398
f 128 398 369
f 369 398 399
f 369 399 370
f 370 399 400
f 370 400 392
f 392 400 401
f 392 401 394
f 394 401 402
f 394 402 395
f 403 404 405
f 405 404 406
f 405 406 407
f 408 409 410
f 410 409 411
f 410 411 403
f 403 411 412
f 403 412 404
f 365 366 413
f 413 366 414
f 413 414 415
f 415 414 416
f 415 416 417
f 417 416 407
f 417 407 418
f 418 407 406
f 366 367 414
f 414 367 419
f 414 419 416
f 416 419 420
f 416 420 407
f 407 420 421
f 407 421 405
f 405 421 422
f 405 422 403
f 403 422 423
f 403 423 410
f 410 423 424
f 410 424 408
f 408 424 389
f 408 389 425
f 425 389 388
f 425 388 426
f 426 388 386
f 426 386 373
f 373 386 384
f 373 384 136
f 136 384 383
f 136 383 137
f 134 390 372
f 372 390 391
f 372 391 373
f 373 391 393
f 373 393 426
f 426 393 395
f 426 395 425
f 425 395 427
f 425 427 408
f 408 427 428
f 408 428 409
f 367 364 419
f 419 364 382
f 419 382 420
f 420 382 381
f 420 381 421
f 421 381 380
f 421 380 422
f 422 380 379
f 422 379 423
f 423 379 378
f 423 378 424
f 424 378 377
f 424 377 389
f 389 377 376
f 389 376 387
f 387 376 375
f 387 375 385
f 385 375 374
f 385 374 383
f 383 374 122
f 383 122 137
f 429 131 139
f 429 139 430
f 430 139 141
f 430 141 431
f 431 141 143
f 431 143 432
f 432 143 142
f 432 142 433
f 433 142 144
f 433 144 434
f 434 144 145
f 434 145 435
f 435 145 140
f 435 140 436
f 436 140 138
f 436 138 437
f 116 114 437
f 437 114 438
f 438 114 111
f 438 111 109
f 138 13 437
f 437 13 15
f 15 16 437
f 437 16 11
f 437 11 116
f 109 271 438
f 438 271 439
f 271 272 439
f 439 272 270
f 439 270 440
f 440 270 269
f 440 269 441
f 441 269 255
f 441 255 256
f 267 268 442
f 267 442 264
f 264 442 443
f 264 443 261
f 261 443 444
f 261 444 260
f 441 256 444
f 444 256 257
f 444 257 260
f 429 445 131
f 131 445 125
f 446 447 448
f 448 449 446
f 446 449 450
f 446 450 451
f 451 450 452
f 451 452 453
f 454 455 456
f 456 455 457
f 458 459 460
f 460 459 461
f 164 462 463
f 228 234 258
f 258 234 236
f 258 236 259
f 464 447 465
f 465 447 466
f 465 467 464
f 464 467 468
f 464 468 469
f 469 468 470
f 238 268 266
f 471 472 268
f 268 472 473
f 268 473 474
f 447 446 466
f 466 446 451
f 466 451 475
f 475 451 453
f 475 453 474
f 474 453 442
f 474 442 268
f 470 476 469
f 469 476 462
f 469 462 291
f 291 462 164
f 266 265 238
f 238 265 263
f 238 263 236
f 236 263 262
f 236 262 259
f 293 292 295
f 295 292 291
f 295 291 287
f 287 291 164
f 463 477 164
f 164 477 478
f 164 478 165
f 165 478 479
f 196 181 179
f 238 240 268
f 268 240 241
f 268 241 471
f 471 241 242
f 471 242 480
f 480 242 201
f 480 201 481
f 481 201 200
f 481 200 479
f 479 200 169
f 479 169 165
f 200 198 169
f 169 198 196
f 169 196 177
f 177 196 179
f 469 291 458
f 458 291 290
f 458 290 459
f 482 483 273
f 296 484 485
f 296 485 486
f 273 297 482
f 482 297 487
f 482 487 488
f 488 487 489
f 488 489 490
f 484 296 491
f 491 296 295
f 491 295 492
f 492 295 287
f 492 287 493
f 493 287 288
f 493 288 494
f 494 288 286
f 494 286 495
f 495 286 285
f 495 285 496
f 496 285 284
f 496 284 483
f 483 284 283
f 483 283 273
f 489 497 490
f 490 497 498
f 490 498 499
f 499 498 500
f 499 500 501
f 501 500 502
f 501 502 503
f 503 502 504
f 503 504 505
f 505 504 486
f 505 486 506
f 506 486 485
f 283 282 273
f 273 282 281
f 273 281 274
f 274 281 280
f 274 280 279
f 276 275 277
f 277 275 274
f 277 274 278
f 278 274 279
f 507 399 508
f 508 399 398
f 398 397 508
f 508 397 396
f 508 396 509
f 509 396 371
f 509 371 132
f 510 511 395
f 395 402 510
f 510 402 401
f 510 401 507
f 507 401 400
f 507 400 399
f 512 428 511
f 511 428 427
f 511 427 395
f 404 412 513
f 513 412 411
f 513 411 512
f 512 411 409
f 512 409 428
f 504 354 486
f 486 354 355
f 486 355 356
f 356 357 486
f 486 357 358
f 486 358 514
f 358 365 514
f 514 365 413
f 514 413 415
f 415 417 514
f 514 417 418
f 514 418 513
f 513 418 406
f 513 406 404
f 317 318 504
f 504 318 320
f 504 320 354
f 502 500 362
f 362 361 502
f 502 361 360
f 502 360 504
f 504 360 359
f 504 359 317
f 498 332 500
f 500 332 363
f 500 363 362
f 497 342 498
f 498 342 328
f 498 328 332
f 338 339 489
f 489 339 340
f 489 340 497
f 497 340 341
f 497 341 342
f 338 489 65
f 65 489 487
f 65 487 66
f 66 487 297
f 66 297 67
f 132 120 509
f 509 120 125
f 509 125 445
f 514 515 516
f 514 516 452
f 515 514 517
f 517 514 513
f 517 513 518
f 518 513 512
f 518 512 519
f 520 509 521
f 521 509 445
f 521 445 522
f 512 511 519
f 519 511 510
f 519 510 523
f 523 510 507
f 523 507 520
f 520 507 508
f 520 508 509
f 516 524 452
f 452 524 525
f 452 525 453
f 453 525 526
f 453 526 442
f 442 526 527
f 442 527 443
f 443 527 528
f 443 528 529
f 435 436 437
f 429 438 439
f 445 429 522
f 522 429 439
f 522 439 530
f 530 439 440
f 530 440 531
f 531 440 441
f 531 441 529
f 529 441 444
f 529 444 443
f 438 429 437
f 437 429 430
f 437 430 435
f 433 434 432
f 432 434 435
f 432 435 431
f 431 435 430
f 455 448 457
f 457 448 447
f 457 447 464
f 464 469 458
f 461 454 460
f 460 454 456
f 460 456 458
f 458 456 457
f 458 457 464
f 532 533 514
f 532 514 534
f 535 536 486
f 486 536 537
f 486 537 296
f 296 537 538
f 296 538 294
f 294 538 539
f 514 452 534
f 534 452 450
f 534 450 540
f 540 450 449
f 540 449 541
f 541 449 448
f 541 448 542
f 542 448 455
f 542 455 543
f 543 455 454
f 543 454 544
f 544 454 461
f 544 461 545
f 545 461 459
f 545 459 546
f 546 459 290
f 546 290 539
f 539 290 289
f 539 289 294
f 533 547 514
f 514 547 548
f 514 548 486
f 486 548 549
f 486 549 535
f 201 242 190
f 190 242 233
f 190 233 191
f 191 233 232
f 191 232 210
f 210 232 254
f 210 254 212
f 212 254 248
f 212 248 211
f 211 248 246
f 211 246 189
f 189 246 244
f 189 244 45
f 45 244 90
f 27 492 28
f 28 492 493
f 28 493 43
f 43 493 494
f 43 494 44
f 44 494 495
f 44 495 40
f 40 495 496
f 40 496 41
f 41 496 483
f 41 483 42
f 42 483 482
f 42 482 37
f 37 482 488
f 37 488 38
f 38 488 490
f 38 490 39
f 39 490 499
f 39 499 34
f 34 499 501
f 34 501 35
f 35 501 503
f 35 503 36
f 36 503 505
f 36 505 31
f 31 505 506
f 31 506 32
f 32 506 485
f 32 485 33
f 33 485 484
f 33 484 30
f 30 484 491
f 30 491 27
f 27 491 492
f 526 149 527
f 527 149 152
f 527 152 528
f 528 152 151
f 528 151 529
f 529 151 150
f 529 150 531
f 531 150 155
f 531 155 530
f 530 155 154
f 530 154 522
f 522 154 153
f 522 153 521
f 521 153 158
f 521 158 520
f 520 158 157
f 520 157 523
f 523 157 156
f 523 156 519
f 519 156 161
f 519 161 518
f 518 161 160
f 518 160 517
f 517 160 159
f 517 159 515
f 515 159 163
f 515 163 516
f 516 163 162
f 516 162 524
f 524 162 147
f 524 147 525
f 525 147 146
f 525 146 526
f 526 146 149
f 475 534 466
f 466 534 540
f 466 540 465
f 465 540 541
f 465 541 467
f 467 541 542
f 467 542 468
f 468 542 543
f 468 543 470
f 470 543 544
f 470 544 476
f 476 544 545
f 476 545 462
f 462 545 546
f 462 546 463
f 463 546 539
f 463 539 477
f 477 539 538
f 477 538 478
f 478 538 537
f 478 537 479
f 479 537 536
f 479 536 481
f 481 536 535
f 481 535 480
f 480 535 549
f 480 549 471
f 471 549 548
f 471 548 472
f 472 548 547
f 472 547 473
f 473 547 533
f 473 533 474
f 474 533 532
f 474 532 475
f 475 532 534

