# Converted from right_pinky_touch_link.STL for Drake collision support
v -0.00221204199 0.00467369566 0.00179261062
v -0.00206888118 0.00440183654 0.00227584247
v -0.0017136198 0.0041713356 0.00182601868
v -7.6655946e-05 0.000939313264 0.000234393621
v -4.80734889e-05 0.000619311526 0.000297380029
v 6.68925031e-06 0.000552598387 -0.000555179315
v -0.000148156076 0.000685292762 0.00112949021
v -0.000179139635 0.00103851571 0.0010512009
v -0.000329409493 0.00113691436 0.00184432662
v -0.000296939106 0.000750752981 0.00193772162
v -0.00431433413 0.00584118161 0.00179774943
v -0.00439127907 0.00589648867 0.00157850725
v -0.00465538818 0.00586582487 0.00227563735
v -0.00615110388 0.00455024745 0.00622365624
v -0.00623043487 0.00440836558 0.00643305806
v -0.00590473367 0.00432463223 0.0064098686
v -0.00640425179 0.00405849284 0.00689185923
v -0.00649783108 0.00384413567 0.00713885948
v -0.00590799842 0.00381157151 0.00695793936
v -0.0065635764 0.00368051883 0.00731239235
v -0.0067081498 0.00327449921 0.00769417081
v -0.00591327064 0.00324738631 0.00743911695
v -0.00674287649 0.00221443921 0.00835224241
v -0.00674785255 0.00201707939 0.00844222121
v -0.00592546724 0.00199454091 0.00816708338
v -0.00675954763 0.00145186344 0.00864975061
v -0.00676143868 0.00133781019 0.00868291967
v -0.00593041722 0.00132249284 0.00839939527
v -0.00143762759 0.00420839293 -0.0021327096
v -0.00151408697 0.00429883227 -0.00203698897
v -0.00126979745 0.00403847918 -0.00137861108
v -0.00293758884 0.00541460654 -0.00026903057
v -0.00273239706 0.00527470699 0.000257540843
v -0.00237618131 0.00505457167 -2.50302201e-05
v -0.00300406455 0.00545435026 -0.000819623529
v -0.00345565192 0.00566955889 -0.0005947912
v -0.00277553126 0.00532781566 -0.000952192349
v -0.00258442899 0.00521140732 -0.00107436953
v -0.00205177022 0.00481901783 -0.000331603689
v -0.00243595615 0.00511345454 -0.0011773142
v -0.00175952644 0.00456997193 -0.000660687394
v -0.00219549332 0.00493884925 -0.00136109022
v -0.00064772839 0.00298818992 -0.0023537504
v -0.000768993108 0.00320590101 -0.00253273733
v -0.000899848354 0.00347178057 -0.00216178899
v -0.000856426428 0.00334829022 -0.00266128709
v -0.000466519443 0.0026059926 -0.00208419096
v -0.000565844181 0.00282520987 -0.0022322908
v -0.000669714413 0.00308412896 -0.0017705413
v -0.00023733158 0.00196513999 -0.00173844863
v -0.000313072145 0.0022043041 -0.00185340131
v -0.000466434343 0.00265324977 -0.00141634676
v -0.000387544307 0.00241063838 -0.00196573907
v -0.000117959455 0.00149293535 -0.00155567715
v -0.000187489291 0.00178585667 -0.0016623945
v -0.000293580641 0.00217946153 -0.00110837992
v -8.97237333e-05 0.00135323999 -0.00151213806
v -0.000154998575 0.00166641758 -0.000856289524
v -3.16232945e-05 0.000999486772 -0.00142212037
v -5.40779401e-05 0.0011209849 -0.000669308298
v -1.97834888e-05 0.000909408729 -0.00140371069
v 2.23128591e-05 0.000457210088 -0.00133806281
v 2.58588298e-05 -9.05748254e-11 -0.000518964429
v 3.64039879e-05 -1.61073554e-09 -0.00131602515
v -0.000277861865 0.000358139077 0.00199289201
v -0.000213662919 -5.08693421e-10 0.00171981473
v -0.000124539278 -1.52563262e-09 0.00118925795
v -0.000472485379 1.64081221e-10 0.00280141295
v -0.000478319387 0.000389301335 0.00278266962
v -0.000510957616 1.69757297e-09 0.00292972685
v -0.000734369445 0.000420162425 0.00354171824
v -0.00142468081 0.000480184477 0.00495503284
v -0.0010433289 -1.15048882e-09 0.00429058028
v -0.0010489577 0.00045055931 0.00426684413
v -0.000912606949 -7.71858522e-10 0.00400922308
v -0.000728569867 -2.02581796e-09 0.0035629943
v -0.00208494882 4.22336471e-10 0.00591896521
v -0.00185912393 -7.70498942e-10 0.00563184684
v -0.00186398579 0.000508686062 0.00560343824
v -0.00141937798 -9.89304305e-10 0.00498117227
v -0.00358315953 0.000583404035 0.00728589902
v -0.00358049595 -1.30460498e-09 0.00732057402
v -0.00286609121 -9.44307632e-10 0.00673895888
v -0.00429515122 0.000603243534 0.00775258522
v -0.00429352606 -1.75593973e-09 0.00778914243
v -0.00376879727 4.42122311e-10 0.0074538216
v -0.00593358744 0.000632309006 0.00853681564
v -0.00599726429 -1.12410459e-09 0.00860072672
v -0.00507800467 1.49899815e-10 0.00820816308
v -0.00677206088 -7.05104516e-11 0.00886666123
v -0.00677157845 0.000287699077 0.00885840785
v -0.00676934607 0.000676869182 0.00882017799
v -0.00676535768 0.00106320588 0.00875118934
v -0.00675205421 0.0018340731 0.0085174134
v -0.00672037434 0.00294505619 0.00793266483
v -0.00672966242 0.0026680748 0.00810854882
v -0.0059194495 0.00263912231 0.00784482993
v -0.00673228083 0.00258468394 0.00815736409
v -0.00515245087 0.00470168982 0.00555044832
v -0.00518392399 0.00509593356 0.00492302142
v -0.00573974196 0.00514274603 0.00513785239
v -0.00522339391 0.00542947417 0.00425849622
v -0.00552103249 0.00537640275 0.00456055207
v -0.00529491529 0.00556745101 0.00396370795
v -0.0045757778 0.00531642279 0.0040193242
v -0.00516176922 0.00565782934 0.00361225405
v -0.00465202983 0.00559023209 0.00335636945
v -0.00491149491 0.00578652229 0.0029516418
v -0.00474004541 0.00580637529 0.00267372071
v -0.00418769475 0.00567184575 0.00246090186
v -0.00398275256 0.00582391908 0.000950429356
v -0.00411701994 0.00587858073 0.000854583399
v -0.00382039137 0.00568957394 0.00158673816
v -0.00437136134 0.00589682953 0.00152593595
v -0.00384852663 0.0058176457 0.000145884624
v -0.00405595032 0.00586826075 0.000693396665
v -0.00373098883 0.00577301439 0.000141987781
v -0.00353700109 0.0056611523 0.000746045203
v -0.000497716828 0.000815783569 0.00271868659
v 2.15168748e-05 0.000263217837 -0.000527173514
v -3.12852717e-05 0.000295171398 0.000334542361
v -0.000129950335 0.000326779322 0.00117571501
v -2.77151812e-05 -1.03081321e-09 0.000361190701
v -0.000116847848 0.00125318288 0.000146446429
v -0.000222783143 0.00138389168 0.000942094193
v -0.00183824252 0.0046352963 -0.00168128824
v -0.00149909558 0.00430924073 -0.00101036928
v -0.00158721081 0.00438232068 -0.000269593438
v -0.00187039154 0.0046362346 0.000104364975
v -0.00218899618 0.00487868953 0.000454441964
v -0.00254348968 0.00510751642 0.000779012218
v -0.00118755212 0.00391027238 -0.00032925469
v -0.00142653193 0.00417355541 0.000112709808
v -0.00170219433 0.00442893384 0.000531592697
v -0.0020163767 0.00467463117 0.000925319328
v -0.00237016915 0.00490831351 0.00129204371
v -0.000387647218 0.00241267658 -0.000427238672
v -0.0005825673 0.0029170292 -0.000823485199
v -0.00061978068 0.0029186774 2.30301316e-06
v -0.000518056564 0.00264294492 0.000235220068
v -0.00079656142 0.00316240545 0.000601444452
v -0.000687988824 0.00287062721 0.000876094447
v -0.00101405662 0.00340288505 0.00117697055
v -0.000900715066 0.00309573207 0.00149259763
v -0.00127535057 0.00363905937 0.00172628963
v -0.00115945609 0.00331733609 0.00208200258
v -0.00158340018 0.00386942551 0.0022469291
v -0.00146732084 0.00353406789 0.00264168996
v -0.00194052421 0.0040916726 0.00273658405
v -0.00182684639 0.00374375517 0.00316925277
v -0.0018579429 0.00443940051 0.00138395152
v -0.00140457158 0.00393155497 0.00134646753
v -0.00154690747 0.00419453625 0.000946899818
v -0.00113970332 0.00368487858 0.000839334214
v -0.00127729273 0.0039414973 0.000483430282
v -0.000916325545 0.00343293045 0.000306974718
v -0.00104678923 0.00368200126 -4.22048333e-06
v -0.000731580483 0.00317689171 -0.000248162629
v -0.000983250095 0.00364053249 -0.000792040897
v -0.000811377773 0.00336502027 -0.00127328851
v -0.00107048661 0.00375896343 -0.0017631714
v -0.00122498116 0.00392755866 -0.00243012956
v -0.00098236755 0.00353537849 -0.00284583401
v -0.000304288173 0.00214014761 -0.000253760285
v -0.000426977436 0.00235024933 0.000448089122
v -0.000591125281 0.00255822227 0.00112778763
v -0.000800067501 0.00276415609 0.00178241648
v -0.00105711201 0.00296726893 0.00240914733
v -0.00136543228 0.00316634099 0.00300521916
v -0.001727678 0.00335937715 0.00356808142
v -0.00224021939 0.00394393364 0.0036623734
v -0.00234872778 0.00430321833 0.00319313933
v -0.0024720456 0.00462041795 0.0026939658
v -0.00261048647 0.00489481306 0.00217108079
v -0.00276434724 0.00512749236 0.00163016748
v -0.00293396087 0.00532044284 0.00107660599
v -0.00311974692 0.00547749689 0.000514856714
v -0.0033223941 0.00560383452 -5.1449224e-05
v -0.00359008694 0.00572580611 -0.000536280975
v -0.00507843541 0.00061973976 0.00816983823
v -0.00480614509 5.63842195e-10 0.00807282608
v -0.00508000934 0.00129638705 0.00803824794
v -0.00508317212 0.00195567496 0.00781579036
v -0.00430074567 0.00126204279 0.00762720732
v -0.00508862035 0.00258864625 0.00750713702
v -0.00431075878 0.00190434849 0.00741525227
v -0.00359214609 0.00122069439 0.00716708601
v -0.00294152834 0.000560727553 0.0067709838
v -0.00236470788 2.12275464e-09 0.0062401481
v -0.00236897473 0.000535675208 0.00620954065
v -0.00295337103 0.00117340975 0.00665910589
v -0.00360793015 0.00184243033 0.0069662598
v -0.00432588253 0.0025216518 0.00712110708
v -0.00509724859 0.00318674906 0.00711841835
v -0.00511008082 0.00374251395 0.00665719621
v -0.00434701983 0.00310583855 0.00675055617
v -0.00363119552 0.00244063581 0.00668751542
v -0.00297396583 0.00177155284 0.00646999758
v -0.00238315971 0.00112115755 0.00610491494
v -0.00595012959 0.00486730319 0.00569317397
v -0.00590454461 0.00478130532 0.00580433058
v -0.0051281536 0.00424917182 0.0061315666
v -0.00437512854 0.0036498101 0.00631069439
v -0.0036627911 0.00300770137 0.00633623358
v -0.00300397607 0.00234775478 0.00620746473
v -0.00240771077 0.00169317832 0.00592809683
v -0.00188007823 0.00106486876 0.00550640374
v -0.000753597997 0.000880185224 0.00346911699
v -0.00106756447 0.000943602703 0.00418584002
v -0.00144224556 0.00100540835 0.00486588199
v -0.00190779194 0.00160870911 0.00534238946
v -0.00244322815 0.00224494305 0.00568257086
v -0.00304422108 0.00289497874 0.00587653229
v -0.00370364077 0.00353697594 0.00591908162
v -0.00441119168 0.00414713798 0.00580914551
v -0.000375261734 0.00151350396 0.00171432854
v -0.000530798337 0.00123464642 0.00261045992
v -0.000577640487 0.00164218503 0.00245990953
v -0.000786456163 0.00133140304 0.00334635586
v -0.000833142316 0.00176951883 0.00317568448
v -0.00109943619 0.00142665522 0.0040489072
v -0.00114489254 0.00189480139 0.00385861262
v -0.00147238851 0.00151945313 0.00471517257
v -0.00151557638 0.00201679161 0.0045058243
v -0.00194768421 0.00213404908 0.00511461822
v -0.00200036657 0.0026350671 0.00482731219
v -0.00249045016 0.00277001876 0.00537298294
v -0.00255007716 0.00326275127 0.00500503648
v -0.00309551088 0.00340705621 0.00548337912
v -0.00315863779 0.00387838692 0.00503463298
v -0.00375462999 0.00402242318 0.00544318045
v -0.00381655688 0.00445954781 0.00491639506
v -0.00445609773 0.00459304964 0.00525430497
v -0.00389015605 0.00484463107 0.00434678281
v -0.0045107021 0.00498360209 0.00465480331
v -0.0039761248 0.00517544383 0.0037424718
v -0.00407511648 0.00545077305 0.00311141787
v -0.000168437226 0.00155904028 3.47738387e-05
v -0.000231046753 0.0018552047 -9.91699417e-05
v -0.000278882391 0.00171902089 0.000803825795
v -0.000347077468 0.00204178342 0.00063841755
v -0.000434364279 0.00187759672 0.00154981285
v -0.000506437907 0.00222661905 0.00135338097
v -0.000638252648 0.0020349375 0.00226959563
v -0.000712477951 0.00240985514 0.00204265467
v -0.000893830205 0.00219051237 0.00296010636
v -0.000968514476 0.00259084022 0.00270329253
v -0.00120426889 0.00234344415 0.00361838774
v -0.00127774943 0.00276852516 0.00333243352
v -0.00157229416 0.00249221362 0.00424167421
v -0.0016428947 0.00294113741 0.00392741337
v -0.00206638407 0.00310664321 0.00448569329
v -0.00214621634 0.0035441122 0.00409533223
v -0.00262274453 0.0037180013 0.00458483212
v -0.00270897266 0.00413188804 0.0041190912
v -0.00323425024 0.00430477131 0.00453757728
v -0.00280924747 0.00450122543 0.00361473486
v -0.00332297804 0.00468274532 0.0039997166
v -0.00292403554 0.0048242202 0.00307872007
v -0.00342542306 0.00501027936 0.00342861004
v -0.00305379555 0.00509997085 0.00251786038
v -0.00354214199 0.00528629962 0.00283163483
v -0.00319893798 0.00532958703 0.00193838286
v -0.00367364916 0.00551195676 0.00221556448
v -0.00335986447 0.00551521638 0.00134614855
v -0.00158340367 -0.00386942551 0.00224693189
v -0.00146732398 -0.00353406882 0.00264169392
v -0.00182684639 -0.00374375354 0.00316925161
v -0.00675205607 -0.00183407241 0.00851741433
v -0.00674785441 -0.00201708125 0.00844222214
v -0.00592546863 -0.00199454161 0.00816708617
v -0.00673228037 -0.00258468231 0.0081573613
v -0.00672966521 -0.0026680755 0.00810855348
v -0.00591945043 -0.00263912091 0.00784483086
v -0.00672037108 -0.00294505456 0.00793265644
v -0.00670814794 -0.00327449851 0.00769416848
v -0.0059132739 -0.00324738421 0.00743912067
v -0.00656357594 -0.0036805172 0.00731239188
v -0.00649782689 -0.00384413661 0.0071388511
v -0.00590800308 -0.00381157245 0.00695794728
v -0.00677157938 -0.000287700532 0.00885840505
v -0.0067693498 -0.000676869997 0.00882018078
v -0.00593358558 -0.000632312323 0.00853681192
v -0.00507843494 -0.000619738305 0.0081698373
v -0.00429514935 -0.000603246153 0.00775258103
v -0.00236897357 -0.000535673928 0.00620953972
v -0.00104895153 -0.000450558 0.00426683808
v -0.00142468279 -0.000480183051 0.00495503517
v -0.000734374858 -0.000420162716 0.00354172499
v -0.000478315371 -0.000389301684 0.00278266263
v -0.000277868297 -0.000358137797 0.00199289876
v -0.000129947555 -0.000326778565 0.00117571105
v -3.12847405e-05 -0.000295173406 0.000334540528
v 2.1510461e-05 -0.000263216119 -0.000527166645
v 2.23496882e-05 -0.000456709095 -0.00133816316
v -3.16192709e-05 -0.000999410287 -0.00142242725
v -5.40768087e-05 -0.00112098467 -0.000669310219
v -9.21406972e-05 -0.00136581261 -0.00151605252
v -0.000154995461 -0.00166641839 -0.000856295926
v -0.000117952106 -0.0014929024 -0.00155576551
v -0.000466431346 -0.00265325094 -0.0014163492
v -0.000321154832 -0.00222792989 -0.00186543725
v -0.000293582096 -0.00217946037 -0.00110837829
v -0.000237351444 -0.00196519773 -0.00173827959
v -0.000193692045 -0.00180932216 -0.0016717274
v -0.000669711037 -0.00308413105 -0.00177054619
v -0.000483014039 -0.00264430908 -0.00210873154
v -0.000387562177 -0.00241069915 -0.001965601
v -0.00089954742 -0.00341434986 -0.00272457534
v -0.000769016682 -0.00320575456 -0.00253288774
v -0.000899850274 -0.00347178243 -0.00216178619
v -0.000673630624 -0.00303680915 -0.00239211763
v -0.000565846276 -0.0028252434 -0.00223223679
v -0.00149909116 -0.00430924026 -0.00101037475
v -0.00149606657 -0.00427790172 -0.00205931696
v -0.00126979616 -0.00403848058 -0.00137861364
v -0.00122235075 -0.00392368017 -0.00243456638
v -0.00107048173 -0.00375896227 -0.00176317687
v -0.00237617712 -0.00505457027 -2.5035255e-05
v -0.00277562672 -0.00532782543 -0.000952366856
v -0.00254001771 -0.00518285483 -0.00110469293
v -0.00294855307 -0.00542469369 -0.000850733544
v -0.00293758838 -0.00541460654 -0.00026903252
v -0.00273239566 -0.00527470885 0.000257537933
v -0.00254348363 -0.00510751456 0.000779005641
v -0.00465203263 -0.00559023116 0.00335637224
v -0.00491148699 -0.00578652136 0.00295163156
v -0.00474004447 -0.00580637483 0.00267372048
v -0.00465538399 -0.00586582441 0.00227563339
v -0.00431433273 -0.00584118022 0.00179774722
v -0.00439127674 -0.0058964882 0.00157850294
v -0.00437136134 -0.00589683 0.00152593595
v -0.00590473739 -0.0043246313 0.00640987465
v -0.00590454089 -0.00478130346 0.00580432592
v -0.00515245227 -0.00470168842 0.00555045204
v -0.00573974196 -0.00514274603 0.005137851
v -0.00518392446 -0.0050959331 0.00492302235
v -0.0055210311 -0.00537640369 0.00456054928
v -0.00522339065 -0.00542947603 0.00425849156
v -0.00529492088 -0.00556744961 0.0039637154
v -0.00640425272 -0.00405849516 0.00689186109
v -0.0062304372 -0.00440836418 0.00643306179
v -0.00615109969 -0.00455024745 0.00622364925
v -0.00595012773 -0.00486730365 0.0056931735
v -0.00674287556 -0.00221443828 0.00835223775
v -0.00676535396 -0.00106320542 0.00875118002
v -0.00676144054 -0.00133780844 0.00868292246
v -0.00593042141 -0.00132249505 0.00839940086
v -0.0067595467 -0.00145186589 0.00864974596
v -0.000304285873 -0.00214014854 -0.000253764098
v -0.00194052921 -0.00409167167 0.0027365901
v -0.00171361759 -0.00417133467 0.00182601367
v -0.00140457065 -0.00393155776 0.00134646706
v -0.00154690561 -0.00419453532 0.000946898246
v -0.00127729785 -0.00394149777 0.000483437092
v -0.00142652704 -0.00417355495 0.00011270219
v -0.00118755852 -0.00391027331 -0.000329245551
v -0.00237016869 -0.00490831491 0.00129204302
v -0.00218899688 -0.00487869047 0.000454444758
v -0.00205176976 -0.00481901737 -0.000331602962
v -0.00215660804 -0.004908517 -0.00139324507
v -0.00221204129 -0.00467369659 0.00179261155
v -0.00201637368 -0.00467463024 0.000925315195
v -0.00187038735 -0.00463623414 0.000104360057
v -0.0017595283 -0.00456997333 -0.000660684018
v -0.00180137006 -0.0046001072 -0.00171828212
v -0.00206888281 -0.00440183375 0.00227584294
v -0.00185793627 -0.00443940097 0.00138394092
v -0.00170219701 -0.00442893617 0.000531596714
v -0.00158721651 -0.00438232068 -0.000269586657
v -0.00127535732 -0.00363905937 0.0017263022
v -0.00113970542 -0.00368487812 0.00083933695
v -0.00104679109 -0.00368200219 -4.21819504e-06
v -0.000983250327 -0.00364053273 -0.000792041013
v -0.00115946087 -0.00331733678 0.00208200677
v -0.00101405336 -0.00340288226 0.00117696635
v -0.000900716928 -0.00309573137 0.00149260042
v -0.000796560547 -0.00316240452 0.000601444917
v -0.000687991269 -0.00287062558 0.000876097125
v -0.000619775907 -0.00291867717 2.29656939e-06
v -0.000518056273 -0.00264294283 0.000235218438
v -0.000387647364 -0.00241267891 -0.000427236606
v -0.000916325022 -0.00343292742 0.000306975096
v -0.000731577456 -0.00317688962 -0.000248164899
v -0.000582565495 -0.00291703059 -0.000823489914
v -0.000811381906 -0.00336502027 -0.00127328408
v -0.00511007616 -0.00374251418 0.00665719016
v -0.005128155 -0.00424916949 0.00613156846
v -0.00441118982 -0.00414713891 0.00580914412
v -0.00445610192 -0.00459304638 0.00525431102
v -0.00381655339 -0.00445954781 0.00491638947
v -0.00451070722 -0.00498360209 0.00465480983
v -0.00389015628 -0.00484462967 0.00434678234
v -0.0045757764 -0.00531642372 0.00401932187
v -0.00397612341 -0.00517544476 0.00374246947
v -0.00407511787 -0.00545077538 0.0031114181
v -0.00418769289 -0.00567184482 0.00246090116
v -0.00516176457 -0.00565783074 0.00361224799
v -2.02707724e-05 -0.000913238269 -0.00140477694
v 6.68980329e-06 -0.000552597456 -0.000555181876
v -7.66545563e-05 -0.000939310878 0.000234390813
v -4.80757517e-05 -0.000619313389 0.00029738294
v -0.000179138384 -0.00103851466 0.00105119811
v -0.000148157778 -0.000685292354 0.00112949184
v -0.000329412462 -0.00113691506 0.00184432883
v -0.000296938058 -0.000750752282 0.00193772092
v -0.000530792517 -0.00123464805 0.00261044968
v -0.000497716304 -0.000815782929 0.00271868636
v -0.000786455581 -0.00133140164 0.00334635447
v -0.000753599859 -0.000880185165 0.00346911885
v -0.00109942851 -0.00142665463 0.00404889556
v -0.00106756389 -0.000943603576 0.00418584002
v -0.00147238746 -0.00151945651 0.00471517071
v -0.0014422409 -0.00100540812 0.0048658764
v -0.00188008044 -0.00106486783 0.0055064084
v -0.00186398986 -0.000508688681 0.0056034429
v -0.000168433849 -0.00155903946 3.47677815e-05
v -0.00011685177 -0.00125318416 0.000146451101
v -0.000278883032 -0.00171901938 0.000803825504
v -0.00022278 -0.00138389261 0.000942089653
v -0.000434367859 -0.0018775959 0.00154981937
v -0.000375259318 -0.00151350279 0.00171432435
v -0.00063824933 -0.0020349375 0.00226959144
v -0.000577641535 -0.00164218491 0.00245991186
v -0.000893830496 -0.00219051284 0.00296010892
v -0.000833147147 -0.00176951976 0.00317569147
v -0.00120427203 -0.00234344369 0.00361839053
v -0.00114488986 -0.00189480127 0.00385861145
v -0.00157229556 -0.00249221176 0.00424167747
v -0.00151558069 -0.00201679138 0.00450583175
v -0.00194768573 -0.00213404861 0.00511462148
v -0.00190779264 -0.00160870957 0.00534239132
v -0.00240770658 -0.0016931775 0.00592808984
v -0.00238316436 -0.00112115638 0.00610492192
v -0.00295336638 -0.00117341231 0.00665910123
v -0.00294152997 -0.000560728658 0.00677098474
v -0.00358316 -0.000583401707 0.00728590041
v -0.00508861942 -0.00258864346 0.00750713516
v -0.00509724021 -0.0031867479 0.00711840764
v -0.00434701424 -0.00310583832 0.00675055012
v -0.00437512994 -0.0036498073 0.00631069718
v -0.00370363961 -0.00353697571 0.00591907976
v -0.00375463394 -0.00402242597 0.00544318603
v -0.00315863336 -0.00387838599 0.00503462786
v -0.00323424605 -0.00430477224 0.00453757215
v -0.0027089729 -0.00413188897 0.00411909306
v -0.00332297548 -0.00468274439 0.00399971288
v -0.00280924747 -0.00450122589 0.00361473556
v -0.00342542445 -0.00501027843 0.00342861237
v -0.00292403903 -0.00482421927 0.00307872565
v -0.00354214478 -0.00528629916 0.00283163739
v -0.00305378926 -0.00509996945 0.00251785177
v -0.00367364753 -0.00551195489 0.00221556309
v -0.00319893728 -0.00532958703 0.0019383817
v -0.00382039603 -0.00568957394 0.00158674293
v -0.00335986307 -0.00551521732 0.00134614785
v -0.00398275768 -0.00582391862 0.00095043669
v -0.00353700435 -0.0056611537 0.000746052421
v -0.00405594846 -0.00586826028 0.000693393638
v -0.00373099535 -0.00577301299 0.000141995697
v -0.00384853035 -0.00581764337 0.00014588896
v -0.00359008415 -0.00572580844 -0.000536284992
v -0.00430074707 -0.00126204197 0.00762720825
v -0.00359214377 -0.00122069556 0.00716708414
v -0.00360792968 -0.00184242835 0.0069662598
v -0.00297396071 -0.00177155109 0.00646999013
v -0.00300398353 -0.00234775618 0.00620747358
v -0.00244322931 -0.00224494212 0.00568257459
v -0.00249045249 -0.0027700176 0.00537298527
v -0.00200037169 -0.00263506756 0.00482731964
v -0.0020663857 -0.00310664438 0.00448569283
v -0.00164289481 -0.00294113671 0.00392741431
v -0.001727683 -0.00335937901 0.0035680884
v -0.00127774908 -0.00276852516 0.0033324312
v -0.00136542832 -0.00316634006 0.00300521473
v -0.000968509063 -0.00259084231 0.00270328252
v -0.00105711306 -0.00296726753 0.00240914943
v -0.00071247801 -0.0024098556 0.00204265327
v -0.000800070178 -0.00276415562 0.001782423
v -0.000506433134 -0.00222661975 0.0013533734
v -0.000591130287 -0.0025582232 0.0011277952
v -0.000347084104 -0.00204178109 0.00063842762
v -0.000426976359 -0.00235024747 0.000448086124
v -0.000231046957 -0.00185520703 -9.91705383e-05
v -0.00508000702 -0.00129638705 0.00803824514
v -0.00508317072 -0.00195567426 0.0078157885
v -0.00431076111 -0.00190434873 0.007415256
v -0.00432588393 -0.00252165156 0.00712110754
v -0.00363119319 -0.00244063605 0.00668751309
v -0.00366279273 -0.00300770206 0.00633623498
v -0.00304422551 -0.0028949799 0.00587653788
v -0.00309551181 -0.00340705714 0.00548337819
v -0.00255007599 -0.00326275127 0.00500503508
v -0.00262274267 -0.00371800084 0.00458482932
v -0.00214621285 -0.00354411057 0.00409532664
v -0.00224022544 -0.00394393504 0.00366238225
v -0.00234873011 -0.0043032174 0.00319314213
v -0.00247204443 -0.00462041935 0.00269396626
v -0.00261048251 -0.00489481213 0.0021710759
v -0.00276434957 -0.0051274919 0.00163016841
v -0.00293395901 -0.00532044098 0.00107660249
v -0.00311974948 -0.00547749735 0.000514862651
v -0.00332238758 -0.00560383545 -5.14589992e-05
v -0.00339578954 -0.00564336823 -0.000622191001
v -0.00411701296 -0.00587858073 0.000854575774
v -0.000982366735 -0.00353537942 -0.00284583634
v -0.00681607472 -0.00287771574 0.00797888171
v -0.00714417221 1.08656872e-09 0.00884491857
v -0.00713510439 -0.00049963512 0.00882097892
v -0.00710968627 -0.000968217268 0.00875388179
v -0.00706801564 -0.00143015431 0.00864389166
v -0.00700994814 -0.00188427954 0.00849062856
v -0.00698869815 -0.00202262565 0.00843453687
v -0.00690967683 -0.00246037683 0.00822594762
v -0.00706801564 0.0014301585 0.00864389353
v -0.00713510672 0.000499638263 0.00882098172
v -0.00710968347 0.000968224369 0.00875387713
v -0.00698869908 0.00202262425 0.00843453873
v -0.00700995559 0.00188428618 0.00849063881
v -0.00690967729 0.00246037706 0.00822595041
v -0.00681607286 0.00287771691 0.00797887892
v -0.0012375965 -0.00385501888 -0.00327908085
v -0.00107512099 -0.00362172327 -0.00328229461
v -0.000971725676 -0.0034578871 -0.00328423758
v -0.000732133398 -0.00301889912 -0.00328869233
v -0.000499934598 -0.00247811736 -0.00329366792
v -0.000353561511 -0.00228282367 -0.0022085642
v -0.000512974919 -0.0027084474 -0.00218354119
v -0.000223183844 -0.00184281077 -0.00222959113
v -0.000121890509 -0.00139150047 -0.00224630255
v -4.96771172e-05 -0.000931961229 -0.00225840905
v -6.4131973e-06 -0.000467214704 -0.0022657495
v 7.99249119e-06 -1.3490955e-09 -0.00226821331
v -0.000175782421 -0.00127320306 -0.00330079091
v -0.000107213833 -0.000779700058 -0.00330206985
v -9.32675757e-05 -0.000632060284 -0.00330228941
v -6.66736232e-05 3.807413e-10 -0.00330259092
v -0.000431483641 -0.00228535105 -0.00329518807
v -0.000312641554 -0.00189285818 -0.00329784746
v -0.000228854857 -0.00154640444 -0.00329968729
v -0.00173604698 -0.00452667661 -0.00201235083
v -0.00153904513 -0.00422560703 -0.00327268755
v -0.00241021998 -0.00507605588 -0.00193147373
v -0.00224538846 -0.00487512443 -0.00325718895
v -0.00206110743 -0.00481498241 -0.00197226694
v -0.00201820955 -0.00469278777 -0.00326209283
v -0.00187463278 -0.00456570601 -0.00326526142
v -0.003027939 -0.00543768192 -0.00202009734
v -0.00298800832 -0.00541244587 -0.00212548976
v -0.00278175273 -0.00530966278 -0.00189050718
v -0.00268075871 -0.00519391568 -0.00293649919
v -0.00256179459 -0.00509643694 -0.0032505081
v -0.00337151531 -0.0056280666 -0.00111320871
v -0.00206110487 0.00481498288 -0.00197227136
v -0.00241022184 0.00507605216 -0.00193147291
v -0.00173605199 0.00452667894 -0.00201234478
v -0.00187524327 0.00456603151 -0.00326523744
v -0.0020150959 0.00468991091 -0.00326214917
v -0.000732151035 0.00301886955 -0.00328869023
v -0.000972275331 0.00345854205 -0.00328421313
v -0.00106808718 0.00361077068 -0.00328242104
v -0.00123831292 0.0038559169 -0.00327905477
v -0.000499989954 0.00247837557 -0.00329367234
v -0.000312648364 0.00189295353 -0.00329785538
v -0.000424243073 0.0022638652 -0.00329535711
v -0.000353563926 0.00228282344 -0.00220856164
v -0.00051297748 0.00270844763 -0.00218354026
v -0.000223185605 0.00184280949 -0.00222959113
v -0.000223096169 0.00151935685 -0.00329981721
v -0.000121893368 0.00139149826 -0.00224629953
v -0.000175787281 0.00127322145 -0.00330079347
v -4.96759676e-05 0.000931962393 -0.00225841231
v -9.32692055e-05 0.000632071169 -0.00330228871
v -6.41219413e-06 0.000467214442 -0.00226575183
v -0.0015056202 0.00418789359 -0.00327340513
v -0.00153896469 0.00422547618 -0.00327268033
v -0.0027817532 0.00530966418 -0.00189050764
v -0.00302793807 0.00543767959 -0.00202009873
v -0.0033715195 0.00562806427 -0.00111320324
v -0.00224685762 0.00487613585 -0.0032571482
v -0.00256179972 0.00509642437 -0.00325050042
v -0.00268075475 0.00519391522 -0.00293650548
v -0.00298800855 0.00541244587 -0.00212549069
v -0.000597335864 8.19973534e-10 -0.00669971853
v -0.000458417868 -3.33959055e-10 -0.00588415749
v -0.000495636545 -0.00075611542 -0.00588527322
v -0.00234781159 -0.00489923637 -0.00381532544
v -0.0011739895 -0.00281518884 -0.00691369036
v -0.00108473655 -0.00252548512 -0.00714927958
v -0.000944427797 -0.00215626741 -0.00699891709
v -0.000730145664 -8.00066791e-10 -0.00808524154
v -0.000632216164 1.5167293e-09 -0.00695509696
v -0.000735762296 -0.000320246996 -0.00807041768
v -0.000667111541 -0.000738579896 -0.00695999758
v -0.000757535105 -0.000707359286 -0.00801294763
v -0.000758659735 -0.000721741177 -0.00800997764
v -0.000871902274 -0.00160681875 -0.0077110664
v -0.000771527295 -0.00146252755 -0.00697465241
v -0.000810810947 -0.00121342682 -0.00787232071
v -0.000795331143 -0.00109097897 -0.00791318342
v -0.00103837368 -0.00235851039 -0.0072716563
v -0.000948023226 -0.00198838138 -0.00751014147
v -0.00157874962 -0.00380637636 -0.00584530924
v -0.00149298587 -0.0036288402 -0.00607168814
v -0.00137521944 -0.0034877928 -0.00591177261
v -0.00134388846 -0.00328289368 -0.00646523526
v -0.00104902463 -0.00287776627 -0.00590190431
v -0.00214254763 -0.00467667589 -0.00435713632
v -0.00210047304 -0.00462612137 -0.00446819374
v -0.00194602204 -0.0044234544 -0.00487587228
v -0.00163121044 -0.00412730826 -0.00467100972
v -0.00121549005 -0.00356709096 -0.00470136805
v -0.000871152268 -0.00293971132 -0.00472725928
v -0.000601030071 -0.00225524767 -0.0047480301
v -0.000308004499 -0.00153850252 -0.00405372679
v -0.000189448139 -0.000775890658 -0.00406879978
v -0.000149953397 1.22068389e-09 -0.00407387502
v -0.000281068846 -1.59574953e-09 -0.00494997064
v -0.000290351541 -0.000770471699 -0.00477247266
v -0.000406984153 -0.00152727531 -0.00476322742
v -0.000607149559 -0.0014979681 -0.00588861108
v -0.000792228209 -0.00221005711 -0.00589416316
v -0.00120756379 -0.00291527458 -0.00682507223
v -0.00175814179 -0.00413442962 -0.00537179364
v -0.00162584137 0.00412104791 -0.00467139808
v -0.001208695 0.0035564315 -0.00470186863
v -0.000735762645 0.000320249004 -0.00807041675
v -0.000757533999 0.000707360159 -0.00801294949
v -0.000664259831 0.000707929372 -0.00695959665
v -0.000186219739 0.000743663928 -0.00406921329
v -0.000302395812 0.00151160895 -0.0040544346
v -0.000498483772 0.00225158036 -0.00402998179
v -0.00077348249 0.00294867205 -0.00399668515
v -0.00194602157 0.00442345254 -0.00487587228
v -0.0020979098 0.00462298281 -0.0044749612
v -0.00214254507 0.00467667589 -0.00435713772
v -0.00234781322 0.00489923637 -0.00381532335
v -0.00175814272 0.00413443288 -0.00537179271
v -0.00157874706 0.00380637427 -0.00584531203
v -0.00136879052 0.0034774458 -0.00591157703
v -0.00149298215 0.00362883951 -0.0060716942
v -0.00134389009 0.00328289228 -0.00646523153
v -0.00120756193 0.00291527552 -0.00682507455
v -0.00104208349 0.00286246394 -0.00590168918
v -0.00116888061 0.00279956707 -0.00692717731
v -0.000785659649 0.00218939199 -0.00589396805
v -0.00108473538 0.00252548535 -0.00714928051
v -0.000766598736 0.00143705215 -0.00697395997
v -0.000871902274 0.00160681794 -0.0077110664
v -0.000938301091 0.00213615387 -0.00699805608
v -0.000948024914 0.00198838138 -0.00751013914
v -0.00103837647 0.00235851156 -0.00727165164
v -0.000795330212 0.00109097885 -0.00791318435
v -0.000810810772 0.00121342775 -0.00787232071
v -0.000839611283 0.00141291472 -0.00779630058
v -0.000287171715 0.000738475239 -0.00477272691
v -0.000492593739 0.000724727928 -0.00588518288
v -0.000401469937 0.00150060048 -0.00476366095
v -0.000601884734 0.00147184613 -0.00588844856
v -0.000594131125 0.00223409384 -0.00474857027
v -0.000863833877 0.00292399875 -0.00472781761
v -0.00660189427 -0.00104162598 0.00741354562
v -0.00660708547 -0.000889723247 0.00745784631
v -0.00661818404 -0.000889723015 0.00745654106
v -0.00662818737 -0.000780506001 0.00748294778
v -0.00661302451 -0.000670720474 0.00750858337
v -0.00663684169 -0.000670719077 0.0075057908
v -0.00664420612 -0.000559791632 0.00752522238
v -0.00661728578 -0.000448299921 0.00754496967
v -0.00665022247 -0.000448301551 0.00754110841
v -0.00665489631 -0.000336623605 0.00755344471
v -0.00661983388 -0.000224386895 0.00756675424
v -0.00665823836 -0.000224387404 0.00756226201
v -0.00666022114 -0.000112479276 0.00756750489
v -0.00662068091 -6.40588804e-10 0.00757392868
v -0.00666086795 -6.15716322e-09 0.00756921247
v -0.00661988463 0.000218025365 0.00756716169
v -0.00665838644 0.000218025089 0.00756265549
v -0.00666026259 0.000109278473 0.00756760826
v -0.00661316607 0.000664443243 0.00750981318
v -0.00664457725 0.000553481514 0.00752621004
v -0.00661738543 0.000441954675 0.00754579483
v -0.00665052142 0.000441954355 0.0075419019
v -0.00665512122 0.000330272858 0.00755403889
v -0.00660189847 0.00104163471 0.00741355075
v -0.006618788 0.000883570989 0.00745813269
v -0.00660727313 0.000883568253 0.00745947799
v -0.00662871636 0.000774292974 0.00748433918
v -0.00663730083 0.000664442952 0.00750699593
f 1 2 3
f 4 5 6
f 5 4 7
f 8 9 10
f 11 12 13
f 14 15 16
f 17 18 19
f 20 21 22
f 23 24 25
f 26 27 28
f 29 30 31
f 32 33 34
f 32 35 36
f 35 32 37
f 37 32 34
f 37 34 38
f 38 34 39
f 38 39 40
f 40 39 41
f 40 41 42
f 43 44 45
f 45 44 46
f 47 48 49
f 49 48 43
f 50 51 52
f 52 51 53
f 52 53 47
f 54 55 56
f 57 58 59
f 59 58 60
f 59 60 61
f 61 60 62
f 63 64 62
f 65 66 67
f 68 69 70
f 70 69 71
f 72 73 74
f 74 73 75
f 74 75 71
f 71 75 76
f 71 76 70
f 77 78 79
f 79 78 80
f 81 82 83
f 84 85 86
f 87 88 89
f 90 88 91
f 91 88 87
f 91 87 92
f 92 87 93
f 26 28 94
f 95 96 97
f 97 96 98
f 99 100 101
f 101 100 102
f 101 102 103
f 104 105 106
f 106 105 107
f 106 107 108
f 108 107 109
f 11 13 110
f 111 112 113
f 113 112 114
f 115 116 117
f 117 116 118
f 10 119 69
f 120 6 121
f 121 6 5
f 121 5 122
f 122 5 7
f 122 7 65
f 65 67 122
f 122 67 123
f 122 123 121
f 121 123 63
f 121 63 120
f 120 63 62
f 120 62 6
f 6 62 60
f 6 60 4
f 124 125 8
f 126 42 127
f 127 42 41
f 127 41 128
f 128 41 39
f 128 39 129
f 129 39 34
f 129 34 130
f 130 34 33
f 130 33 131
f 30 126 31
f 31 126 127
f 31 127 132
f 132 127 128
f 132 128 133
f 133 128 129
f 133 129 134
f 134 129 130
f 134 130 135
f 135 130 131
f 135 131 136
f 55 50 56
f 56 50 52
f 56 52 137
f 47 49 52
f 52 49 138
f 52 138 137
f 137 138 139
f 137 139 140
f 140 139 141
f 140 141 142
f 142 141 143
f 142 143 144
f 144 143 145
f 144 145 146
f 146 145 147
f 146 147 148
f 148 147 149
f 148 149 150
f 1 3 151
f 151 3 152
f 151 152 153
f 153 152 154
f 153 154 155
f 155 154 156
f 155 156 157
f 157 156 158
f 157 158 159
f 159 158 160
f 159 160 161
f 161 160 45
f 161 45 162
f 162 45 46
f 162 46 163
f 162 29 161
f 161 29 31
f 161 31 159
f 159 31 132
f 159 132 157
f 157 132 133
f 157 133 155
f 155 133 134
f 155 134 153
f 153 134 135
f 153 135 151
f 151 135 136
f 151 136 1
f 43 45 49
f 49 45 160
f 49 160 138
f 138 160 158
f 138 158 139
f 139 158 156
f 139 156 141
f 141 156 154
f 141 154 143
f 143 154 152
f 143 152 145
f 145 152 3
f 145 3 147
f 147 3 2
f 147 2 149
f 57 54 58
f 58 54 56
f 58 56 164
f 164 56 137
f 164 137 165
f 165 137 140
f 165 140 166
f 166 140 142
f 166 142 167
f 167 142 144
f 167 144 168
f 168 144 146
f 168 146 169
f 169 146 148
f 169 148 170
f 170 148 150
f 170 150 171
f 171 150 149
f 171 149 172
f 172 149 2
f 172 2 173
f 173 2 1
f 173 1 174
f 174 1 136
f 174 136 175
f 175 136 131
f 175 131 176
f 176 131 33
f 176 33 177
f 177 33 32
f 177 32 178
f 178 32 36
f 178 36 179
f 27 93 28
f 28 93 87
f 28 87 180
f 180 87 89
f 180 89 181
f 24 94 25
f 25 94 28
f 25 28 182
f 182 28 180
f 182 180 84
f 84 180 181
f 84 181 85
f 98 23 97
f 97 23 25
f 97 25 183
f 183 25 182
f 183 182 184
f 184 182 84
f 184 84 81
f 81 84 86
f 81 86 82
f 21 95 22
f 22 95 97
f 22 97 185
f 185 97 183
f 185 183 186
f 186 183 184
f 186 184 187
f 187 184 81
f 187 81 188
f 188 81 83
f 188 83 189
f 189 190 188
f 188 190 191
f 188 191 187
f 187 191 192
f 187 192 186
f 186 192 193
f 186 193 185
f 185 193 194
f 185 194 22
f 22 194 19
f 22 19 20
f 20 19 18
f 15 17 16
f 16 17 19
f 16 19 195
f 195 19 194
f 195 194 196
f 196 194 193
f 196 193 197
f 197 193 192
f 197 192 198
f 198 192 191
f 198 191 199
f 199 191 190
f 199 190 79
f 79 190 189
f 79 189 77
f 200 14 201
f 201 14 16
f 201 16 202
f 202 16 195
f 202 195 203
f 203 195 196
f 203 196 204
f 204 196 197
f 204 197 205
f 205 197 198
f 205 198 206
f 206 198 199
f 206 199 207
f 207 199 79
f 207 79 72
f 72 79 80
f 72 80 73
f 69 119 71
f 71 119 208
f 71 208 74
f 74 208 209
f 74 209 72
f 72 209 210
f 72 210 207
f 207 210 211
f 207 211 206
f 206 211 212
f 206 212 205
f 205 212 213
f 205 213 204
f 204 213 214
f 204 214 203
f 203 214 215
f 203 215 202
f 202 215 99
f 202 99 201
f 201 99 101
f 201 101 200
f 8 125 9
f 9 125 216
f 9 216 217
f 217 216 218
f 217 218 219
f 219 218 220
f 219 220 221
f 221 220 222
f 221 222 223
f 223 222 224
f 223 224 225
f 225 224 226
f 225 226 227
f 227 226 228
f 227 228 229
f 229 228 230
f 229 230 231
f 231 230 232
f 231 232 233
f 233 232 234
f 233 234 235
f 235 234 236
f 235 236 105
f 105 236 237
f 105 237 107
f 107 237 110
f 107 110 109
f 109 110 13
f 109 13 108
f 238 239 240
f 240 239 241
f 240 241 242
f 242 241 243
f 242 243 244
f 244 243 245
f 244 245 246
f 246 245 247
f 246 247 248
f 248 247 249
f 248 249 250
f 250 249 251
f 250 251 252
f 252 251 253
f 252 253 254
f 254 253 255
f 254 255 256
f 256 255 257
f 256 257 258
f 258 257 259
f 258 259 260
f 260 259 261
f 260 261 262
f 262 261 263
f 262 263 264
f 264 263 265
f 264 265 113
f 113 265 118
f 113 118 111
f 111 118 116
f 111 116 112
f 124 238 125
f 125 238 240
f 125 240 216
f 216 240 242
f 216 242 218
f 218 242 244
f 218 244 220
f 220 244 246
f 220 246 222
f 222 246 248
f 222 248 224
f 224 248 250
f 224 250 226
f 226 250 252
f 226 252 228
f 228 252 254
f 228 254 230
f 230 254 256
f 230 256 232
f 232 256 258
f 232 258 234
f 234 258 260
f 234 260 236
f 236 260 262
f 236 262 237
f 237 262 264
f 237 264 110
f 110 264 113
f 110 113 11
f 11 113 114
f 11 114 12
f 10 9 119
f 119 9 217
f 119 217 208
f 208 217 219
f 208 219 209
f 209 219 221
f 209 221 210
f 210 221 223
f 210 223 211
f 211 223 225
f 211 225 212
f 212 225 227
f 212 227 213
f 213 227 229
f 213 229 214
f 214 229 231
f 214 231 215
f 215 231 233
f 215 233 99
f 99 233 235
f 99 235 100
f 100 235 105
f 100 105 102
f 102 105 104
f 102 104 103
f 68 66 69
f 69 66 65
f 69 65 10
f 10 65 7
f 10 7 8
f 8 7 4
f 8 4 124
f 124 4 60
f 124 60 238
f 238 60 58
f 238 58 239
f 239 58 164
f 239 164 241
f 241 164 165
f 241 165 243
f 243 165 166
f 243 166 245
f 245 166 167
f 245 167 247
f 247 167 168
f 247 168 249
f 249 168 169
f 249 169 251
f 251 169 170
f 251 170 253
f 253 170 171
f 253 171 255
f 255 171 172
f 255 172 257
f 257 172 173
f 257 173 259
f 259 173 174
f 259 174 261
f 261 174 175
f 261 175 263
f 263 175 176
f 263 176 265
f 265 176 177
f 265 177 118
f 118 177 178
f 118 178 117
f 117 178 179
f 117 179 115
f 266 267 268
f 269 270 271
f 272 273 274
f 275 276 277
f 278 279 280
f 281 282 283
f 181 89 284
f 284 89 88
f 285 85 181
f 286 189 83
f 75 73 287
f 287 73 80
f 287 80 288
f 288 80 78
f 75 287 76
f 76 287 289
f 76 289 70
f 70 289 290
f 70 290 68
f 68 290 291
f 68 291 66
f 66 291 292
f 66 292 67
f 67 292 293
f 67 293 123
f 123 293 294
f 123 294 63
f 63 294 295
f 63 295 64
f 296 297 298
f 298 297 299
f 298 299 300
f 301 302 303
f 303 302 304
f 303 304 305
f 306 307 301
f 301 307 308
f 301 308 302
f 309 310 311
f 311 310 312
f 311 312 306
f 306 312 313
f 306 313 307
f 314 315 316
f 316 315 317
f 316 317 318
f 319 320 321
f 322 320 323
f 323 320 319
f 323 319 324
f 324 319 325
f 326 327 328
f 328 327 329
f 328 329 330
f 330 329 331
f 330 331 332
f 333 334 335
f 335 334 336
f 335 336 337
f 337 336 338
f 337 338 339
f 339 338 340
f 341 342 333
f 333 342 343
f 333 343 334
f 334 343 344
f 334 344 336
f 272 274 345
f 346 347 348
f 348 347 349
f 350 303 299
f 299 303 305
f 299 305 300
f 268 351 266
f 266 351 352
f 266 352 353
f 353 352 354
f 353 354 355
f 355 354 356
f 355 356 357
f 358 325 359
f 359 325 319
f 359 319 360
f 360 319 321
f 360 321 361
f 362 358 363
f 363 358 359
f 363 359 364
f 364 359 360
f 364 360 365
f 365 360 361
f 365 361 366
f 367 362 368
f 368 362 363
f 368 363 369
f 369 363 364
f 369 364 370
f 370 364 365
f 370 365 314
f 314 365 366
f 314 366 315
f 267 266 371
f 371 266 353
f 371 353 372
f 372 353 355
f 372 355 373
f 373 355 357
f 373 357 374
f 375 376 377
f 377 376 378
f 377 378 379
f 379 378 380
f 379 380 381
f 381 380 382
f 376 383 378
f 378 383 384
f 378 384 380
f 380 384 385
f 380 385 382
f 386 385 374
f 374 385 384
f 374 384 373
f 373 384 383
f 373 383 372
f 372 383 376
f 372 376 371
f 371 376 375
f 371 375 267
f 318 386 316
f 316 386 374
f 316 374 314
f 314 374 357
f 314 357 370
f 370 357 356
f 370 356 369
f 369 356 354
f 369 354 368
f 368 354 352
f 368 352 367
f 367 352 351
f 276 278 277
f 277 278 280
f 277 280 387
f 387 280 388
f 387 388 389
f 389 388 390
f 389 390 391
f 391 390 392
f 391 392 393
f 393 392 394
f 393 394 395
f 395 394 326
f 395 326 396
f 396 326 328
f 396 328 397
f 397 328 330
f 279 341 280
f 280 341 333
f 280 333 388
f 388 333 335
f 388 335 390
f 390 335 337
f 390 337 392
f 392 337 339
f 392 339 394
f 394 339 340
f 394 340 326
f 326 340 398
f 326 398 327
f 296 399 297
f 297 399 400
f 297 400 401
f 401 400 402
f 401 402 403
f 403 402 404
f 403 404 405
f 405 404 406
f 405 406 407
f 407 406 408
f 407 408 409
f 409 408 410
f 409 410 411
f 411 410 412
f 411 412 413
f 413 412 414
f 413 414 415
f 415 414 416
f 415 416 286
f 286 416 77
f 286 77 189
f 417 418 419
f 419 418 420
f 419 420 421
f 421 420 422
f 421 422 423
f 423 422 424
f 423 424 425
f 425 424 426
f 425 426 427
f 427 426 428
f 427 428 429
f 429 428 430
f 429 430 431
f 431 430 432
f 431 432 433
f 433 432 434
f 433 434 435
f 435 434 436
f 435 436 437
f 437 436 82
f 437 82 86
f 399 295 400
f 400 295 294
f 400 294 402
f 402 294 293
f 402 293 404
f 404 293 292
f 404 292 406
f 406 292 291
f 406 291 408
f 408 291 290
f 408 290 410
f 410 290 289
f 410 289 412
f 412 289 287
f 412 287 414
f 414 287 288
f 414 288 416
f 416 288 78
f 416 78 77
f 270 345 271
f 271 345 274
f 271 274 438
f 438 274 439
f 438 439 440
f 440 439 441
f 440 441 442
f 442 441 443
f 442 443 444
f 444 443 445
f 444 445 446
f 446 445 447
f 446 447 448
f 448 447 449
f 448 449 450
f 450 449 451
f 450 451 452
f 452 451 453
f 452 453 454
f 454 453 455
f 454 455 456
f 456 455 457
f 456 457 458
f 458 457 459
f 458 459 460
f 460 459 461
f 460 461 462
f 181 284 285
f 285 284 463
f 285 463 464
f 464 463 465
f 464 465 466
f 466 465 467
f 466 467 468
f 468 467 469
f 468 469 470
f 470 469 471
f 470 471 472
f 472 471 473
f 472 473 474
f 474 473 475
f 474 475 476
f 476 475 477
f 476 477 478
f 478 477 479
f 478 479 480
f 480 479 481
f 480 481 482
f 482 481 483
f 482 483 484
f 282 346 283
f 283 346 348
f 283 348 485
f 485 348 486
f 485 486 487
f 487 486 488
f 487 488 489
f 489 488 490
f 489 490 491
f 491 490 492
f 491 492 493
f 493 492 494
f 493 494 495
f 495 494 496
f 495 496 268
f 268 496 497
f 268 497 351
f 351 497 498
f 351 498 367
f 367 498 499
f 367 499 362
f 362 499 500
f 362 500 358
f 358 500 501
f 358 501 325
f 325 501 502
f 325 502 324
f 324 502 503
f 324 503 323
f 323 503 504
f 323 504 322
f 484 417 482
f 482 417 419
f 482 419 480
f 480 419 421
f 480 421 478
f 478 421 423
f 478 423 476
f 476 423 425
f 476 425 474
f 474 425 427
f 474 427 472
f 472 427 429
f 472 429 470
f 470 429 431
f 470 431 468
f 468 431 433
f 468 433 466
f 466 433 435
f 466 435 464
f 464 435 437
f 464 437 285
f 285 437 86
f 285 86 85
f 349 269 348
f 348 269 271
f 348 271 486
f 486 271 438
f 486 438 488
f 488 438 440
f 488 440 490
f 490 440 442
f 490 442 492
f 492 442 444
f 492 444 494
f 494 444 446
f 494 446 496
f 496 446 448
f 496 448 497
f 497 448 450
f 497 450 498
f 498 450 452
f 498 452 499
f 499 452 454
f 499 454 500
f 500 454 456
f 500 456 501
f 501 456 458
f 501 458 502
f 502 458 460
f 502 460 503
f 503 460 462
f 503 462 504
f 483 350 484
f 484 350 299
f 484 299 417
f 417 299 297
f 417 297 418
f 418 297 401
f 418 401 420
f 420 401 403
f 420 403 422
f 422 403 405
f 422 405 424
f 424 405 407
f 424 407 426
f 426 407 409
f 426 409 428
f 428 409 411
f 428 411 430
f 430 411 413
f 430 413 432
f 432 413 415
f 432 415 434
f 434 415 286
f 434 286 436
f 436 286 83
f 436 83 82
f 273 275 274
f 274 275 277
f 274 277 439
f 439 277 387
f 439 387 441
f 441 387 389
f 441 389 443
f 443 389 391
f 443 391 445
f 445 391 393
f 445 393 447
f 447 393 395
f 447 395 449
f 449 395 396
f 449 396 451
f 451 396 397
f 451 397 453
f 453 397 330
f 453 330 455
f 455 330 332
f 455 332 457
f 457 332 505
f 457 505 459
f 90 281 88
f 88 281 283
f 88 283 284
f 284 283 485
f 284 485 463
f 463 485 487
f 463 487 465
f 465 487 489
f 465 489 467
f 467 489 491
f 467 491 469
f 469 491 493
f 469 493 471
f 471 493 495
f 471 495 473
f 473 495 268
f 473 268 475
f 475 268 267
f 475 267 477
f 477 267 375
f 477 375 479
f 479 375 377
f 479 377 481
f 481 377 379
f 481 379 483
f 483 379 381
f 483 381 350
f 350 381 382
f 350 382 303
f 303 382 385
f 303 385 301
f 301 385 386
f 301 386 306
f 306 386 318
f 306 318 311
f 311 318 317
f 311 317 309
f 309 317 506
f 275 507 276
f 508 509 90
f 90 509 281
f 281 509 282
f 282 509 510
f 282 510 346
f 346 510 347
f 347 510 511
f 347 511 349
f 349 511 512
f 349 512 269
f 269 512 270
f 270 512 513
f 270 513 345
f 345 513 514
f 345 514 272
f 507 275 514
f 514 275 273
f 514 273 272
f 515 26 94
f 90 91 508
f 508 91 516
f 91 92 516
f 516 92 93
f 516 93 517
f 517 93 515
f 515 93 27
f 515 27 26
f 24 518 94
f 94 518 519
f 94 519 515
f 24 23 518
f 518 23 98
f 518 98 520
f 520 98 96
f 520 96 521
f 521 96 95
f 521 95 21
f 522 523 506
f 506 523 524
f 506 524 309
f 309 524 525
f 309 525 310
f 526 313 525
f 525 313 312
f 525 312 310
f 302 308 527
f 527 308 307
f 527 307 528
f 302 527 304
f 304 527 529
f 304 529 305
f 305 529 300
f 300 529 530
f 300 530 298
f 296 531 399
f 399 531 532
f 399 532 295
f 295 532 533
f 295 533 64
f 534 531 530
f 530 531 296
f 530 296 298
f 534 535 531
f 531 535 536
f 531 536 532
f 532 536 537
f 532 537 533
f 307 313 528
f 528 313 526
f 528 526 527
f 527 526 538
f 527 538 529
f 529 538 539
f 529 539 530
f 530 539 540
f 530 540 534
f 541 542 315
f 315 542 522
f 315 522 317
f 317 522 506
f 543 544 545
f 545 544 546
f 545 546 541
f 541 546 547
f 541 547 542
f 548 549 550
f 550 549 551
f 550 551 543
f 543 551 552
f 543 552 544
f 462 553 504
f 504 553 322
f 315 366 541
f 541 366 361
f 541 361 545
f 545 361 321
f 545 321 543
f 543 321 320
f 543 320 550
f 550 320 322
f 550 322 548
f 548 322 553
f 42 554 555
f 30 556 126
f 557 558 554
f 559 560 163
f 163 560 561
f 163 561 162
f 162 561 562
f 162 562 29
f 163 46 559
f 559 46 44
f 559 44 563
f 564 565 566
f 566 565 563
f 566 563 567
f 564 568 569
f 569 568 570
f 569 570 571
f 572 573 571
f 533 574 64
f 64 574 62
f 61 62 572
f 572 62 574
f 572 574 573
f 573 574 533
f 573 533 537
f 571 570 572
f 572 570 59
f 572 59 61
f 50 55 568
f 568 55 54
f 568 54 570
f 570 54 57
f 570 57 59
f 564 566 568
f 568 566 51
f 568 51 50
f 44 43 563
f 563 43 48
f 563 48 567
f 567 48 47
f 567 47 566
f 566 47 53
f 566 53 51
f 562 575 29
f 29 575 576
f 29 576 30
f 30 576 557
f 30 557 556
f 556 557 554
f 556 554 126
f 126 554 42
f 35 37 577
f 577 37 38
f 577 38 555
f 555 38 40
f 555 40 42
f 577 578 35
f 35 578 579
f 35 579 36
f 36 579 179
f 558 580 554
f 554 580 581
f 554 581 555
f 555 581 582
f 555 582 577
f 577 582 583
f 577 583 578
f 584 585 586
f 544 552 587
f 588 589 590
f 591 592 593
f 593 592 594
f 593 594 595
f 595 594 596
f 590 597 598
f 598 597 599
f 598 599 594
f 594 599 600
f 594 600 596
f 589 601 590
f 590 601 602
f 590 602 597
f 603 604 605
f 605 604 606
f 605 606 607
f 544 587 546
f 587 608 546
f 546 608 609
f 546 609 547
f 547 609 610
f 547 610 542
f 542 610 611
f 542 611 522
f 522 611 612
f 613 524 612
f 612 524 523
f 612 523 522
f 539 538 614
f 614 538 526
f 614 526 613
f 613 526 525
f 613 525 524
f 540 615 534
f 534 615 616
f 534 616 535
f 535 616 536
f 536 616 617
f 536 617 537
f 618 617 619
f 619 617 616
f 619 616 620
f 620 616 615
f 620 615 614
f 614 615 540
f 614 540 539
f 592 584 594
f 594 584 586
f 594 586 598
f 598 586 621
f 598 621 590
f 590 621 622
f 590 622 588
f 588 622 607
f 588 607 623
f 623 607 606
f 585 618 586
f 586 618 619
f 586 619 621
f 621 619 620
f 621 620 622
f 622 620 614
f 622 614 607
f 607 614 613
f 607 613 605
f 605 613 612
f 605 612 603
f 603 612 611
f 603 611 624
f 624 611 610
f 576 575 625
f 562 561 626
f 627 628 629
f 591 627 592
f 592 627 629
f 592 629 584
f 584 629 585
f 537 617 573
f 573 617 630
f 573 630 571
f 571 630 631
f 632 564 631
f 631 564 569
f 631 569 571
f 561 560 626
f 626 560 559
f 626 559 633
f 633 559 563
f 633 563 632
f 632 563 565
f 632 565 564
f 576 625 557
f 634 635 558
f 558 635 636
f 558 636 580
f 580 636 637
f 580 637 581
f 558 557 634
f 634 557 625
f 634 625 638
f 638 625 639
f 575 562 625
f 625 562 626
f 625 626 639
f 639 626 640
f 639 640 641
f 641 640 642
f 643 644 645
f 645 644 646
f 645 646 647
f 648 649 650
f 650 649 651
f 650 651 652
f 628 653 629
f 629 653 654
f 629 654 648
f 648 654 655
f 648 655 649
f 656 657 658
f 658 657 659
f 658 659 660
f 660 659 646
f 660 646 661
f 661 646 644
f 652 647 650
f 650 647 646
f 650 646 648
f 648 646 659
f 648 659 629
f 629 659 657
f 629 657 585
f 585 657 656
f 585 656 618
f 617 618 630
f 630 618 656
f 630 656 631
f 631 656 658
f 631 658 632
f 632 658 660
f 632 660 633
f 633 660 661
f 633 661 626
f 626 661 644
f 626 644 640
f 640 644 643
f 640 643 642
f 461 459 116
f 459 505 116
f 116 505 332
f 116 332 112
f 112 332 331
f 112 331 114
f 179 548 115
f 115 548 553
f 115 553 116
f 116 553 462
f 116 462 461
f 587 552 583
f 582 581 609
f 179 579 548
f 548 579 578
f 548 578 549
f 549 578 583
f 549 583 551
f 551 583 552
f 279 12 341
f 341 12 342
f 582 609 583
f 583 609 608
f 583 608 587
f 327 398 12
f 581 637 609
f 609 637 636
f 609 636 635
f 17 15 279
f 279 15 14
f 103 104 279
f 279 104 106
f 601 589 654
f 654 589 588
f 654 588 655
f 623 606 635
f 635 606 604
f 635 604 603
f 114 331 12
f 12 331 329
f 12 329 327
f 398 340 12
f 12 340 338
f 12 338 336
f 520 521 278
f 638 639 588
f 639 641 588
f 588 641 642
f 588 642 643
f 336 344 12
f 12 344 343
f 12 343 342
f 521 21 278
f 278 21 20
f 278 20 279
f 279 20 18
f 279 18 17
f 106 108 279
f 279 108 13
f 279 13 12
f 643 645 588
f 588 645 647
f 588 647 652
f 603 624 635
f 635 624 610
f 635 610 609
f 520 278 518
f 518 278 276
f 518 276 507
f 14 200 279
f 279 200 101
f 279 101 103
f 623 635 588
f 588 635 634
f 588 634 638
f 652 651 588
f 588 651 649
f 588 649 655
f 654 600 599
f 507 514 518
f 518 514 513
f 518 513 519
f 519 513 512
f 519 512 515
f 515 512 511
f 515 511 517
f 591 653 627
f 627 653 628
f 591 593 653
f 653 593 595
f 653 595 654
f 654 595 596
f 654 596 600
f 599 597 654
f 654 597 602
f 654 602 601
f 511 510 517
f 517 510 509
f 517 509 516
f 516 509 508
f 662 663 664
f 664 663 665
f 665 663 666
f 665 666 667
f 667 666 668
f 668 666 669
f 668 669 670
f 670 669 671
f 671 669 672
f 671 672 673
f 673 672 674
f 674 672 675
f 674 675 676
f 677 678 675
f 675 678 679
f 675 679 676
f 680 681 682
f 682 681 683
f 682 683 677
f 677 683 684
f 677 684 678
f 685 686 687
f 687 686 688
f 687 688 680
f 680 688 689
f 680 689 681
f 662 685 663
f 663 685 687
f 677 675 663
f 675 672 663
f 663 672 669
f 663 669 666
f 687 680 663
f 663 680 682
f 663 682 677
f 685 671 673
f 685 679 678
f 667 668 685
f 685 668 670
f 685 670 671
f 673 674 685
f 685 674 676
f 685 676 679
f 678 684 685
f 685 684 683
f 685 683 681
f 662 664 685
f 685 664 665
f 685 665 667
f 681 689 685
f 685 689 688
f 685 688 686
