# Converted from right_thumb_touch_link.STL for Drake collision support
v -0.0039052777 0.00929495227 -0.00788840186
v -0.00414949469 0.00897921063 -0.00784395356
v -0.0041492586 0.00925893243 -0.00918116421
v -0.00686787441 -0.00325626507 -0.00736181159
v -0.00686786836 -0.00252476218 -0.0108618848
v -0.00687026093 -0.00162044016 -0.0072704386
v -0.00687311031 -0.00131777267 -0.0105904462
v -0.00687268842 -0.00122627988 -0.0105689242
v -0.00682191225 -7.10660024e-05 -0.00723255146
v -0.00684908172 -4.50125845e-05 -0.010289859
v -0.00682030758 0.000568464049 -0.0101487227
v -0.00681530824 4.66658603e-05 -0.00723153772
v -0.00678615272 0.00107854896 -0.0100353137
v -0.00678600883 0.000493242173 -0.00723003317
v -0.00676782895 0.0013041785 -0.00998651516
v -0.00671263877 0.0013196012 -0.00723688956
v -0.00667485036 0.00219243998 -0.0098039899
v -0.00654824357 0.00257336046 -0.00727052707
v -0.00653418759 0.00315195112 -0.00962766539
v -0.00653428165 0.00266027427 -0.00727387331
v -0.00651296834 0.0032745949 -0.00960686151
v -0.00636802753 0.00356201036 -0.00731613068
v -0.00644097803 0.00366133265 -0.00954397861
v -0.0063058082 0.00385189056 -0.00733260345
v -0.00628036167 0.00440243445 -0.00943542924
v -0.00612879125 0.00458093686 -0.00738012791
v -0.00614190754 0.00494679017 -0.00936623104
v -0.00612892117 0.00499438541 -0.00936062261
v -0.00600907719 0.00501298532 -0.00741236424
v -0.0058541582 0.00589609379 -0.00926858187
v -0.00567237334 0.00604592124 -0.0075014988
v -0.00553003 0.00642113341 -0.0075380234
v -0.00552988658 0.00676949415 -0.00920557883
v -0.00525807543 0.00706197135 -0.00760542881
v -0.00547117228 0.00691108499 -0.00919787027
v -0.00515450025 0.00728387199 -0.00763022713
v -0.00506027695 0.00779298646 -0.00916671753
v -0.00487913331 0.00782422815 -0.00769372424
v -0.00487888325 0.00813147891 -0.00916257035
v -0.00485234614 0.00787328091 -0.00769970519
v -0.00437345495 0.00866123475 -0.00780064473
v -0.00462081702 0.00856949762 -0.00916377641
v -0.00419492368 0.00919773616 -0.00917882845
v -0.00274931267 0.0106823947 -0.00928186905
v -0.00238759816 0.0106796483 -0.00810001511
v -0.00286452845 0.0103383185 -0.00804536045
v -0.00341812125 0.00983958412 -0.00796841923
v -0.00371197704 0.00979218259 -0.00920828991
v -0.00326860673 0.00998607744 -0.00799065735
v -0.00326770172 0.0102470517 -0.00924132392
v -0.00318727898 0.0103209959 -0.00924758799
v -0.00271722511 0.0107062655 -0.00928435009
v -0.00238743797 0.0109321382 -0.00930926483
v -0.00229761098 0.0107357753 -0.00810915697
v -0.00215661246 0.0110701108 -0.00932577718
v -0.00176681206 0.0110180117 -0.00815577991
v 0.00159296137 0.0110931257 -0.0081683686
v 0.00220455555 0.0110427998 -0.00932241231
v 0.00217416394 0.0108087761 -0.00812110491
v 0.00250496622 0.0108556421 -0.00930051878
v 0.00250534969 0.0106023941 -0.0080875
v -0.00193769741 0.0111863809 -0.00934041385
v -0.00169284793 0.0113001391 -0.0093550561
v -0.00143934973 0.0111525115 -0.00817837752
v -0.00143908127 0.0114007201 -0.0093686888
v -0.00123254291 0.0112224342 -0.0081902286
v -0.0011054998 0.0115071712 -0.00938442722
v -0.000653925876 0.0113583207 -0.00821343902
v -0.000520797854 0.0116244825 -0.00940116774
v -0.000426111917 0.0113883959 -0.0082186088
v -0.000425997976 0.0116355084 -0.00940289348
v -7.29394087e-05 0.011409726 -0.00822228286
v 1.89607533e-06 0.0116580147 -0.00940732565
v 0.000508067373 0.0113791507 -0.00821701437
v 0.000550550059 0.0116205784 -0.00940059219
v 0.000609772338 0.0113652572 -0.00821462832
v 0.000609608251 0.0116121853 -0.00939940009
v 0.00102960598 0.0112800738 -0.00820003729
v 0.00113035692 0.0115002338 -0.0093833115
v 0.00157369266 0.0111009376 -0.0081696799
v 0.00157362944 0.0113495579 -0.00936163217
v 0.0016544502 0.0113165192 -0.00935728382
v 0.00318205892 0.0103257531 -0.00924797263
v 0.00323514501 0.0100176623 -0.0079954844
v 0.00270346017 0.0104621779 -0.00806500018
v 0.00274614058 0.0106848031 -0.00928209629
v 0.00325005059 0.0102635361 -0.0092426734
v 0.00338897109 0.010130886 -0.00923197251
v 0.0033898165 0.00986806117 -0.00797270983
v 0.00372814131 0.00977410655 -0.00920713879
v 0.00375038316 0.00947992224 -0.00791509263
v 0.00419899262 0.0091922814 -0.00917859469
v 0.00423855707 0.00885625836 -0.00782702118
v 0.00423843041 0.00913844537 -0.00917668175
v 0.00427564513 0.00880371779 -0.00781986024
v 0.00466218358 0.00850252062 -0.00916308258
v 0.00473668939 0.00807865243 -0.00772511726
v 0.00499326829 0.00760853011 -0.0076678372
v 0.00499305874 0.00792162959 -0.009164555
v 0.0051169931 0.00768133532 -0.00916895829
v 0.00515547302 0.00728191016 -0.00762998965
v 0.00551156141 0.00681429217 -0.0092030447
v 0.00565607566 0.00609053578 -0.00750571163
v 0.00557459379 0.00630700961 -0.00752666686
v 0.00517965527 0.00723105483 -0.00762424013
v 0.00565589685 0.0064498689 -0.00922554918
v 0.00581468595 0.00601196475 -0.00925868563
v 0.00593754509 0.00525283953 -0.00743153831
v 0.00614997186 0.00491705304 -0.00936972629
v 0.00625189766 0.00408756407 -0.00734699378
v 0.00618109386 0.00479992712 -0.00938394386
v 0.00622491725 0.00462924875 -0.00940543693
v 0.00625185529 0.00452066399 -0.00941957533
v 0.00626431778 0.00403444702 -0.00734366802
v 0.00641798088 0.00377676613 -0.00952597335
v 0.00636791857 0.00356261944 -0.00731614325
v 0.00652439799 0.00272063725 -0.00727625052
v 0.00650662417 0.00331053557 -0.00960079767
v 0.0066299038 0.00201416016 -0.00725210179
v 0.00660354318 0.0027163045 -0.00970475841
v 0.00662998343 0.0025329669 -0.00973870326
v 0.00670488132 0.00139265344 -0.00723806769
v 0.00672792783 0.00172623142 -0.00989770889
v 0.00675207144 0.0014806923 -0.00994893909
v 0.00681532081 4.64498735e-05 -0.00723151816
v 0.00677912962 0.00116827595 -0.0100157522
v 0.0068324497 -0.000278611056 -0.00723495008
v 0.0068325121 0.000340310537 -0.0102006188
v 0.00686949957 -0.00155632372 -0.00726792822
v 0.00685932674 -0.000366991269 -0.0103654405
v 0.00686785998 -0.00252461387 -0.0108618317
v 0.00686785765 -0.00325610861 -0.00736177759
v 0.00687316852 -0.00132630114 -0.0105924243
v 0.00684739463 -0.00740076927 -0.00652222335
v 0.00684615457 -0.00763004459 -0.00610417919
v -0.00684562 -0.00775326043 -0.00582011929
v 0.0068448768 -0.00793387089 -0.00533808954
v -0.00684490614 -0.00793386623 -0.00533811236
v -0.00684688753 -0.0074949949 -0.00636629201
v -0.00684741838 -0.00740075344 -0.00652224198
v 0.00684753712 -0.00737681054 -0.00655866181
v 0.00684919721 -0.00711270701 -0.00688987412
v -0.00684853969 -0.00721788919 -0.00677196588
v 0.00685043354 -0.00692802435 -0.00706132641
v -0.00685030594 -0.00695004966 -0.0070430031
v -0.00685045775 -0.00692801923 -0.00706133433
v 0.00685131969 -0.00679938681 -0.0071583176
v -0.00685259374 -0.00661924249 -0.00726862485
v -0.00686508091 -0.00455115829 -0.0074728881
v 0.00686507672 -0.00455116155 -0.00747286715
v -0.00686157262 -0.00525789568 -0.00752948411
v 0.006862815 -0.00503057148 -0.00751689496
v -0.00685942732 -0.00561327161 -0.00752773089
v 0.00685941335 -0.00561328651 -0.00752770621
v -0.00685827387 -0.00579217076 -0.00751382485
v 0.00685933698 -0.00562522188 -0.00752708502
v -0.00685525732 -0.00623768009 -0.00742560672
v 0.00685614441 -0.00610685349 -0.0074605979
v -0.00685468502 -0.00631967606 -0.00739924842
v 0.00685466873 -0.00631970773 -0.0073992447
v 0.00685377466 -0.00644815713 -0.00735028135
v -0.0068498645 -0.006561697 -0.00914848316
v -0.0068508354 -0.00631961925 -0.00974991545
v -0.00685208803 -0.00607492868 -0.0101749124
v -0.00685382681 -0.00577517226 -0.0105416449
v -0.00685590878 -0.00543590402 -0.0108328806
v -0.00685796048 -0.00510341302 -0.0110267755
v -0.00686471537 -0.00387231587 -0.0111274449
v -0.00686414447 -0.0040003499 -0.0111511583
v -0.0068600704 -0.00475300802 -0.0111479098
v -0.00686185434 -0.00444205478 -0.0111886486
v -0.00686213048 -0.00439240923 -0.0111895679
v -5.18514571e-05 0.00379822357 -0.00732943742
v 5.26783924e-06 -0.000174838191 -0.00723364856
v 1.46538023e-05 0.000269845827 -0.00723031536
v 0.000138170377 0.00755306706 -0.00766130351
v 0.00686472608 -0.00387232425 -0.0111274244
v 0.00684742397 -0.00724637927 -0.00724718953
v 0.00684986124 -0.00656171329 -0.00914844126
v 0.00685012667 -0.00648769271 -0.00935095269
v 0.0068510063 -0.00628050976 -0.00982847158
v 0.00685215509 -0.00606127549 -0.0101948548
v 0.00686263107 -0.00429957733 -0.0111874128
v 0.00686185108 -0.00444318214 -0.0111885536
v 0.00686067669 -0.00464960141 -0.0111684594
v 0.00685852068 -0.0050116498 -0.0110665802
v 0.00685627945 -0.00537521532 -0.0108745517
v 0.00685430504 -0.00569547061 -0.0106202234
v 0.00685239118 -0.00601927284 -0.0102535356
v 0.00805822108 -0.00434342586 -0.0121412491
v 0.00900516193 -0.00593296811 -0.0108943954
v 0.00792848505 -0.00624768343 -0.01002046
v 0.0078933984 -0.00610094843 -0.0104042105
v 0.00754291564 -0.00586009724 -0.010754318
v 0.00861040689 -0.00557766855 -0.0115787964
v 0.00878925528 -0.00576438941 -0.011299341
v 0.00737429317 -0.00568315946 -0.0109007666
v 0.00845333934 -0.00536016654 -0.0117877461
v 0.0085912589 -0.00555409631 -0.0116060348
v 0.00721747475 -0.00547067216 -0.011019703
v 0.00707885204 -0.00523018278 -0.011105882
v 0.00828948617 -0.00505951606 -0.0119702425
v 0.00815330725 -0.00471451133 -0.0120894825
v 0.00696355244 -0.00497089978 -0.0111562144
v 0.00812816806 -0.00463330559 -0.0121068861
v 0.00802284945 -0.00410610298 -0.0121404966
v 0.00800993666 -0.0039600404 -0.0121288989
v 0.00799997803 -0.00354499463 -0.012063005
v 0.00572841428 -0.00876777899 -0.00165996107
v 0.00545221893 -0.00853417441 -0.00147047534
v 0.0052145347 -0.00887322705 -0.0013706669
v 0.00468334882 -0.00797673408 -0.00101791415
v 0.00562462956 -0.00926214457 -0.00164962967
v 0.00613302505 -0.0091475537 -0.00196782919
v 0.00498819305 -0.0091464296 -0.00134259416
v 0.00527066272 -0.00931717455 -0.00149681524
v 0.00425995514 -0.00862229988 -0.000948075496
v 0.00402887538 -0.00887210853 -0.0010481975
v 0.00488069793 -0.0093454998 -0.00141815748
v 0.00374878221 -0.00913091563 -0.0012288423
v 0.00391464308 -0.0092404997 -0.00131011999
v 0.00407707365 -0.0093540689 -0.00139435951
v 0.00423478847 -0.00935400184 -0.0013945438
v 0.00446547801 -0.00833224691 -0.000950543676
v 0.00571804261 -0.00681562582 -0.00151465589
v 0.00671367673 -0.00899077952 -0.00240317453
v 0.00477430038 -0.00787590258 -0.00105482514
v 0.00548587926 -0.00707917241 -0.00138769683
v 0.007561618 -0.00579087995 -0.00298568001
v 0.00738025038 -0.00485517364 -0.0027730756
v 0.0067015565 -0.00605235295 -0.00218734774
v 0.00679395348 -0.00556372525 -0.00224684225
v 0.00619089464 -0.00627213484 -0.00180498557
v 0.00828150194 -0.00552464416 -0.00386493187
v 0.00787634868 -0.00423413655 -0.00331856706
v 0.00753070554 -0.00466926815 -0.00292727747
v 0.00822231267 -0.00378473103 -0.00377475866
v 0.00823405944 -0.00403327821 -0.0037862754
v 0.00828862097 -0.0036966491 -0.00387144368
v 0.00879835803 -0.00376535021 -0.00471727783
v 0.00866872538 -0.00317558483 -0.00450398261
v 0.00920752995 -0.00352054322 -0.00569055229
v 0.008953223 -0.00275868387 -0.00510691991
v 0.00876075029 -0.00304399454 -0.00468319282
v 0.00938010588 -0.00201011426 -0.00660836045
v 0.00933440495 -0.00210966752 -0.00635588495
v 0.00945854653 -0.00330875535 -0.00668953033
v 0.00917696767 -0.00240026321 -0.00573141268
v 0.00914661679 -0.00245138677 -0.00563421845
v 0.00942865759 -0.00188352796 -0.00697568571
v 0.00959588215 -0.00426265271 -0.00779964309
v 0.00946319383 -0.00171863765 -0.00759540498
v 0.00963783916 -0.00694268709 -0.00809051376
v 0.00960685592 -0.00462973723 -0.00783512834
v 0.00956639647 -0.00727396924 -0.00717057846
v 0.0095161628 -0.00481034024 -0.00680782273
v 0.00954911765 -0.00731341494 -0.00706104608
v 0.00926374272 -0.00502443826 -0.00579351047
v 0.00929615088 -0.00768096559 -0.00604039105
v 0.00925429445 -0.00772510143 -0.00591783691
v 0.00885104388 -0.00526555395 -0.00480690319
v 0.00888033397 -0.00803933665 -0.00504522584
v 0.00883645471 -0.00806993712 -0.00496025616
v 0.00830599014 -0.00838158932 -0.00409483677
v 0.0081045609 -0.00847972929 -0.00382229593
v 0.00757991383 -0.00870108884 -0.00320761651
v 0.00727387192 -0.00881249737 -0.00289824512
v 0.00392431207 -0.00378770358 -0.000535406463
v 0.00358212576 -0.00498889899 -0.000426357146
v 0.00418085 -0.00568260113 -0.000671739865
v 0.00744045479 -0.00331564387 -0.00284459488
v 0.00706307869 -0.00388547173 -0.00246439083
v 0.00780003332 -0.00276785903 -0.00326656993
v 0.0087286979 -0.00129978394 -0.00481321802
v 0.00915022194 -0.000527827768 -0.0061008404
v 0.00926881656 -0.000228966092 -0.00681914436
v -5.30405542e-09 0.0119391019 -0.00586115429
v -1.37220602e-09 0.0112870801 -0.00499165477
v 0.000738418777 0.0112440176 -0.00498659583
v -4.47221771e-09 0.0108777145 -0.00452304538
v -4.20997148e-09 0.0103640491 -0.00400147215
v 0.000706883206 0.010322663 -0.00399852078
v -8.26091284e-09 0.00960719679 -0.00334157166
v -3.71210307e-09 0.00933645479 -0.00313175796
v 0.000672583177 0.00929696765 -0.00313080545
v 0.00422161585 -0.00769887818 -0.000792070292
v 0.00326354662 -0.00469018426 -0.000317213766
v 0.0028959671 -0.00709704543 -0.000301717169
v 0.003556618 -0.00736334734 -0.000518745685
v 0.00146821199 -0.00672319205 3.71060378e-06
v 0.00179798715 -0.00678664586 -4.81646421e-05
v 0.00200465601 -0.00548764365 -3.10226424e-05
v 0.00219668378 -0.0068813609 -0.000125555613
v 0.000660621852 -0.00513177924 0.000139486132
v 0.000737729599 -0.00662937714 8.06418175e-05
v 0.00119671191 -0.00668085506 3.83486913e-05
v -1.97368273e-08 -0.00659766467 0.000106447886
v -1.92823268e-08 -0.00509032886 0.000159852207
v -1.83887181e-08 -0.00286990614 0.000163372257
v 0.000530083722 0.00427728472 -0.000767331512
v -1.35179823e-08 0.00241132849 -0.000332101277
v 0.000494982523 0.00283145322 -0.000423886842
v -1.3289239e-08 0.00134971668 -0.000160018782
v 0.000459956762 0.00132650521 -0.000166051264
v -1.60225255e-08 -3.86856736e-05 3.73320995e-06
v 0.000424736179 -0.000228363147 1.3384637e-05
v -1.82812823e-08 -0.00180753751 0.000127665116
v 0.000388992688 -0.00182386173 0.000121775585
v -9.67386793e-09 0.00651519839 -0.00152425072
v -9.2715462e-09 0.00568734063 -0.00119948294
v 0.000565468275 0.00565504888 -0.00120334351
v -1.55565321e-08 0.00453371508 -0.00082630018
v -1.26936195e-08 0.00430671498 -0.000762419135
v 0.00938906893 -0.000824280549 -0.00754212169
v 0.00932654832 -0.000192453779 -0.00751072261
v 0.00909908302 0.00158259028 -0.00745188864
v 0.00903118495 0.00149093068 -0.00670386106
v 0.00880498346 0.0032345003 -0.00743917888
v 0.00872742943 0.00309042563 -0.00663622795
v 0.00844372343 0.00476081716 -0.00746715767
v 0.00835747551 0.00456729159 -0.00661101704
v 0.00801595673 0.00616001803 -0.00752974022
v 0.00792210829 0.00592018897 -0.00662243646
v 0.0075234049 0.00743142702 -0.00762033602
v 0.00742318667 0.00714854337 -0.00666421559
v 0.00696875481 0.00857508648 -0.007732003
v 0.00686360197 0.00825247355 -0.00672975369
v 0.00635558553 0.00959167257 -0.00785760209
v 0.00624710042 0.0092326859 -0.00681228656
v 0.0056882659 0.0104823597 -0.00798994116
v 0.00942787807 -0.00126823015 -0.00756730093
v 0.00556354597 -0.00497789402 -0.00134816056
v 0.00667057885 -0.00447399449 -0.00212313747
v 0.00596848037 -0.00423620734 -0.0015967862
v 0.00472753588 -0.00650332123 -0.000950533431
v 0.00510496181 0.00252179545 -0.00166227098
v 0.00461280718 0.00320026116 -0.00155099866
v 0.00480307825 0.00142501749 -0.00129049295
v 0.00433622114 0.0020424067 -0.00117059052
v 0.00450057117 0.000277435931 -0.000985877239
v 0.0040598223 0.000830040197 -0.000861988112
v 0.00378279015 -0.00042990208 -0.000618549006
v 0.00419678772 -0.000914494914 -0.000742039294
v 0.0055685034 0.00175916636 -0.00179473683
v 0.00524463831 0.000731125998 -0.00142979773
v 0.00491899112 -0.000343537336 -0.00112721685
v 0.00459113577 -0.0014589153 -0.000880957523
v 0.00600258727 0.000912028889 -0.00195038028
v 0.00566026196 -3.95702991e-05 -0.00158981152
v 0.00531458436 -0.00103316782 -0.00128672889
v 0.00496544363 -0.00206339429 -0.00103555457
v 0.00461210543 -0.00312485942 -0.000831173267
v 0.00389048504 -0.0021441984 -0.00055297889
v 0.00350377732 -0.00173031178 -0.000433962909
v 0.00358005916 -0.00340501755 -0.000413062167
v 0.00322107738 -0.00306398864 -0.000302213506
v 0.00426004734 -0.00260899239 -0.000685422157
v 0.00494658574 -0.00369181857 -0.000990112894
v 0.00531964982 -0.00272797584 -0.00120603375
v 0.00568725541 -0.00179149548 -0.00146505306
v 0.00604973873 -0.000887116883 -0.00177172141
v 0.00640681013 -1.96274905e-05 -0.00213102927
v 0.00526359724 -0.00430965843 -0.00116232247
v 0.00565384468 -0.00345243607 -0.00139284821
v 0.00603702758 -0.00261826068 -0.00166310626
v 0.0064129564 -0.00181120075 -0.00197697664
v 0.00678087166 -0.00103545329 -0.00233876123
v 0.00712487288 -0.00213461043 -0.00257600169
v 0.0067501911 -0.00281109568 -0.0022074203
v 0.0063642934 -0.00351281464 -0.00188217021
v -9.47700318e-09 0.00699110562 -0.00173605175
v 0.000601172331 0.00695617637 -0.00173855538
v 0.00118618226 0.00554467365 -0.00121686852
v 0.00111207762 0.00417675637 -0.000784369826
v 0.00103855552 0.00274137827 -0.000443328958
v 0.000965190004 0.001247401 -0.000186776917
v 0.000891417032 -0.00029608878 -7.53319e-06
v 0.000816586253 -0.00187989266 0.000101703954
v 0.000739914249 -0.00349482009 0.000148274077
v 0.00134319172 -0.00526419654 7.50831605e-05
v -1.14239498e-08 0.00809526909 -0.00231097266
v 0.000637043966 0.00817260891 -0.00237915781
v 0.00133603986 0.0080447467 -0.00238266075
v 0.0012609578 0.00683666114 -0.00174752902
v 0.00191164913 0.00663159415 -0.00176381273
v 0.00179865956 0.00535528688 -0.00124066463
v 0.00239904295 0.00508641033 -0.00127559574
v 0.00168663985 0.00400426099 -0.000813917548
v 0.00225027744 0.00375939463 -0.000856472296
v 0.00157544226 0.00258684042 -0.000476773275
v 0.00210251263 0.00236748625 -0.000524407311
v 0.00146446284 0.00111170323 -0.000222251809
v 0.00195499393 0.000919117592 -0.000272411504
v 0.00135286897 -0.000412232155 -4.32196466e-05
v 0.0018066389 -0.000577030762 -9.34556228e-05
v 0.0012396872 -0.00197594101 6.75111878e-05
v 0.00165619445 -0.00211217278 1.95097346e-05
v 0.00150220469 -0.00367748318 7.34148489e-05
v 0.00896582194 -0.000887998147 -0.0054308949
v 0.0086998567 0.000715515751 -0.00521619385
v 0.0089004254 0.00113744056 -0.00592941977
v 0.00837657228 0.00220716116 -0.00505052879
v 0.0085879853 0.00268627657 -0.00580705609
v 0.00799555331 0.00358492206 -0.0049293288
v 0.00821277592 0.00411657477 -0.00572881009
v 0.00755761284 0.00484758709 -0.00484751537
v 0.00777562195 0.00542706577 -0.00568923494
v 0.00706437789 0.00599463377 -0.00479971617
v 0.00727832085 0.00661718985 -0.00568247307
v 0.00651816418 0.00702610519 -0.00478031393
v 0.00672356877 0.00768705085 -0.00570236007
v 0.00592199806 0.00794257037 -0.00478353025
v 0.00611485029 0.00863729138 -0.0057425648
v 0.0054563419 0.00946897827 -0.00579673238
v 0.00557811093 0.0100903334 -0.00690501276
v 0.00486167194 0.0108269667 -0.00700129615
v 0.00497189537 0.0112487413 -0.00812196825
v 0.0042122053 0.0118926484 -0.00824694708
v 0.00844990928 -0.00175477122 -0.00424800161
v 0.00815298315 -0.000297339255 -0.00398343708
v 0.00844618026 0.000234517953 -0.00456784852
v 0.00781129813 0.00105886091 -0.0037634538
v 0.00811253116 0.00166202697 -0.0043699583
v 0.00742373941 0.00231198384 -0.00358447642
v 0.00772698922 0.00298082619 -0.00421543838
v 0.00699084299 0.00346096116 -0.00344234146
v 0.00729025854 0.00418976042 -0.00409962423
v 0.00651373202 0.0045052967 -0.00333291269
v 0.00680374121 0.00528831221 -0.00401772326
v 0.00599381886 0.00544498162 -0.00325203221
v 0.00626929291 0.00627650833 -0.00396481436
v 0.00543307047 0.0062804576 -0.0031953454
v 0.00568940816 0.00715483073 -0.00393577898
v 0.0050673699 0.00792416837 -0.00392541103
v 0.00527964486 0.00874500163 -0.0048035346
v 0.00459554931 0.00943470839 -0.00483464124
v 0.00475283293 0.0101835392 -0.00585867465
v 0.004009692 0.0107826097 -0.00592249306
v 0.00410341704 0.0114443246 -0.00709481165
v 0.00330957188 0.0119442819 -0.00717974082
v 0.00341551518 0.012416034 -0.00835867878
v 0.00258861389 0.0128207766 -0.00845171418
v 0.00148218102 0.0101806577 -0.00398900267
v 0.0014104211 0.00916160177 -0.00312808575
v 0.00213732081 0.00892933086 -0.00312489527
v 0.0020250387 0.00782535784 -0.0023898643
v 0.00269929087 0.00751378294 -0.00240248512
v 0.00254896679 0.00634041941 -0.00178868859
v 0.00316897989 0.00596233364 -0.00182375067
v 0.00298380968 0.00473733712 -0.00132271578
v 0.00354968943 0.00430720998 -0.00138324813
v 0.00279984088 0.00344154355 -0.000912606658
v 0.00333243678 0.00304994499 -0.000983007601
v 0.00261694682 0.00208278303 -0.000586408365
v 0.00311616156 0.00173209002 -0.000663023267
v 0.0024342495 0.000669202069 -0.000337157544
v 0.00289995223 0.000361431972 -0.000416389696
v 0.00225049583 -0.000790823135 -0.000157941453
v 0.00268244161 -0.00105402258 -0.000236347536
v 0.00206422014 -0.00228881673 -4.19022144e-05
v 0.0024620092 -0.00250614318 -0.000116278155
v 0.00223672786 -0.0039867512 -4.98701338e-05
v 0.00813815836 -0.00224601873 -0.0037333651
v 0.00748613244 -0.00148720911 -0.00299189985
v 0.00783052482 -0.000873159675 -0.00345954602
v 0.00713901827 -0.000295347214 -0.00275340932
v 0.00748419901 0.000404458755 -0.00322642527
v 0.00675713271 0.000806123717 -0.00254868995
v 0.0070977821 0.00158511626 -0.00303100725
v 0.00634058239 0.00181629288 -0.00237470982
v 0.00667161494 0.00266780984 -0.00286967261
v 0.00588990981 0.00273474189 -0.00222872361
v 0.0062065199 0.00365207577 -0.00273898267
v 0.00540578319 0.00356148556 -0.00210816902
v 0.00570349768 0.00453791767 -0.00263557909
v 0.00488934247 0.0042968723 -0.00201030029
v 0.00516406307 0.00532571459 -0.00255591911
v 0.00459056115 0.00601619761 -0.00249627302
v 0.00483428314 0.007012513 -0.00315836305
v 0.00420102943 0.00764220348 -0.00313668326
v 0.00440719631 0.0085856868 -0.00392863387
v 0.00371348555 0.00914073642 -0.00394068146
v 0.00387470052 0.0100131668 -0.00487147877
v 0.00312257907 0.0104819406 -0.00490909396
v 0.00323280669 0.0112678893 -0.00598274963
v 0.00242853654 0.011641033 -0.00603465224
v 0.00248685223 0.0123285977 -0.00725097815
v 0.00164238212 0.0125988629 -0.00730433315
v 0.00173869368 0.0131085431 -0.00852155779
v 0.000873258861 0.0132806525 -0.00856485218
v 2.89142577e-09 0.0128159095 -0.00737433229
v -5.02793718e-09 0.0121009061 -0.00610575173
v 0.000783520285 0.0127562871 -0.00733669708
v 0.000764942495 0.0120563842 -0.00609849347
v 0.00160358928 0.011903489 -0.00607422786
v 0.00154813356 0.0110962065 -0.00496987626
v 0.00234500505 0.0108425133 -0.00494311564
v 0.00224557309 0.00993696973 -0.00397440093
v 0.00299119134 0.00959071796 -0.00395721244
v 0.00284797791 0.00859938469 -0.0031233707
v 0.00353744114 0.00817073882 -0.00312623591
v 0.00335435942 0.00710911863 -0.00242268085
v 0.00398610532 0.00661030039 -0.00245296978
v 0.00376799004 0.00549637666 -0.00187083927
v 0.00434251269 0.00494155055 -0.00193215942
v 0.00409361394 0.00379514485 -0.00145871472
v 0.00384536223 0.0025838234 -0.00106859161
v 0.00359780947 0.00131472771 -0.00075465691
v 0.00335005368 -4.75577099e-06 -0.000510117272
v 0.00310070277 -0.00136704324 -0.00032840122
v 0.00284805824 -0.00276444107 -0.000203173782
v 0.00293264026 -0.00442362437 -0.000217765235
v 0.00238703471 -0.00693372218 -0.000168312748
v 5.92593752e-10 0.0133379251 -0.00857951958
v 0.00122466253 -0.00710302358 6.51255596e-06
v 0.000615424826 -0.00703379 6.05635032e-05
v 0.00182195054 -0.00721659604 -8.21079448e-05
v 0.00240231748 -0.00737203378 -0.000203295072
v 0.00296174386 -0.00756623782 -0.000354596647
v 0.0034971917 -0.00779575901 -0.000533305923
v 0.00400650688 -0.00805705972 -0.000736660848
v 0.00311117014 -0.00876535941 -0.000957702927
v 0.00313565601 -0.00837905612 -0.000681798207
v 0.0021413425 -0.00799553189 -0.000396761432
v 0.00162002747 -0.00785642117 -0.000293365913
v 0.00115320249 -0.00811023172 -0.000471787556
v 0.00193020736 -0.00829309877 -0.000607423193
v 0.00197914196 -0.00830787141 -0.00061837706
v 0.00264746998 -0.0081705898 -0.000526868098
v 0.0029078105 -0.008666059 -0.000884052541
v 0.00295996689 -0.00869077537 -0.000902384054
v 0.000545471325 -0.00769416848 -0.000172766842
v -2.42904719e-08 -0.0076736412 -0.000157508199
v -2.61097615e-08 -0.00777939754 -0.000229248501
v 0.00108682667 -0.00775542809 -0.00021829881
v 0.000502473849 -0.00802925881 -0.000411728135
v -2.42963996e-08 -0.00801039115 -0.000397738797
v 0.00332560553 -0.00810577255 -0.000559046341
v 0.00281209126 -0.00788603909 -0.000393467955
v 0.00227770046 -0.00770078599 -0.000253835082
v 0.00172532757 -0.00755301444 -0.000142417775
v 0.001158603 -0.00744537031 -6.12297736e-05
v 0.000581866363 -0.00737990113 -1.18418448e-05
v -2.28057981e-08 -0.00724368449 3.9033268e-05
v -0.00374924345 -0.00913118292 -0.00122905546
v -0.00391488709 -0.00924063474 -0.00131023885
v -9.55109135e-06 -0.00801039953 -0.000397743046
v -0.0040771137 -0.00935406517 -0.00139437267
v -0.00149513106 -0.00817888509 -0.000522712013
v -0.00231279968 -0.00841925293 -0.000701002893
v -0.00116370118 -0.00811206549 -0.000473153515
v -0.00264921063 -0.00855096523 -0.000798695255
v -0.000502493989 -0.0080292616 -0.000411733403
v -0.00290772365 -0.0086659966 -0.000884018838
v -0.00792846642 -0.00624765875 -0.0100205299
v -0.00962860603 -0.00680333283 -0.00847747643
v -0.00961464271 -0.00673153205 -0.00867686886
v -0.00853369385 -0.00825892668 -0.00443545822
v -0.00888061244 -0.00803915039 -0.00504574785
v -0.00943651982 -0.00635593524 -0.00971985608
v -0.00922561809 -0.00611721119 -0.010382764
v -0.00900513493 -0.0059329276 -0.0108944969
v 0.00916802045 -0.00606459891 -0.0105288764
v 0.00940786116 -0.00631742598 -0.00982678961
v 0.00952262431 -0.0064933626 -0.009338242
v -0.00912314188 -0.00784893334 -0.00557395723
v -0.00929635018 -0.00768076396 -0.00604094332
v -0.00950486772 -0.00739950687 -0.00682196859
v -0.00954919495 -0.00731328409 -0.00706140324
v -0.00963785779 -0.00694267685 -0.00809054356
v -0.00613306416 -0.00914754719 -0.00196784572
v -0.00671334378 -0.00899088103 -0.00240289769
v -0.0069208811 -0.00892829057 -0.00257669855
v -0.00757965585 -0.00870119128 -0.00320732803
v -0.00767484494 -0.00866414048 -0.00331022381
v -0.00830599479 -0.00838159025 -0.00409482792
v 0.0096145859 -0.00673136581 -0.00867733266
v -0.00426821643 -0.00935394317 -0.00139454613
v -0.00489908038 -0.00934479479 -0.00141988392
v -0.00526894862 -0.00931728538 -0.00149610662
v -0.00562281255 -0.00926249754 -0.00164864375
v -0.00802286062 -0.00410552835 -0.0121404091
v -0.00801826827 -0.00406115688 -0.0121377083
v -0.00799997989 -0.00354494411 -0.0120630218
v -0.00807630736 -0.00443121558 -0.0121350819
v -0.00832707155 -0.00513666403 -0.0119317286
v -0.0081826169 -0.00480001792 -0.0120669976
v -0.00707878545 -0.00522984983 -0.0111059267
v -0.00696350168 -0.00497050118 -0.0111562135
v -0.00833183993 -0.00514608156 -0.0119266929
v -0.00721740257 -0.00547039788 -0.011019798
v -0.00849565025 -0.00542440452 -0.0117347054
v -0.00737421401 -0.0056829392 -0.0109009035
v -0.00859127846 -0.00555405207 -0.0116060302
v -0.00754282763 -0.00585993007 -0.010754494
v -0.00867675245 -0.00565367006 -0.0114805456
v -0.00789328478 -0.00610083854 -0.0104044694
v -0.00885987189 -0.00582391629 -0.011175679
v -0.00799999852 -0.00232924358 -0.0118262907
v 0.00796048064 0.000370386027 -0.0112204412
v 0.00799725763 -0.00109479437 -0.0115578538
v 0.00799999945 -0.00232907175 -0.0118262302
v 0.0079376949 0.000789913291 -0.0111269653
v 0.00790179148 0.00128815474 -0.0110198744
v 0.00782743096 0.00204012939 -0.0108685661
v 0.0077490015 0.00263977749 -0.0107585927
v 0.00757089909 0.0036663909 -0.0105960974
v 0.00718937069 0.00519185327 -0.0104229245
v 0.00671625137 0.0065310169 -0.0103447484
v 0.00642819237 0.00718446821 -0.0103330072
v 0.00610286091 0.00782340672 -0.0103387935
v 0.00576214725 0.00840547681 -0.0103591932
v 0.00538796978 0.00896304473 -0.0103925401
v 0.00500486512 0.009461293 -0.0104340306
v 0.00459325034 0.00992791075 -0.0104832193
v 0.00414830865 0.0103636729 -0.0105384607
v 0.00367695396 0.0107576828 -0.010596538
v 0.00345624308 0.0109205935 -0.0106228869
v 0.00277935737 0.0113428831 -0.0106979338
v 0.0022783142 0.0115868384 -0.0107459407
v 0.00177223491 0.0117791845 -0.0107863434
v 0.00176264916 0.0117823258 -0.0107870167
v 0.00125523168 0.0119231427 -0.0108181387
v 0.000740040268 0.0120163364 -0.0108394399
v 0.000238082808 0.0120604802 -0.0108497525
v -2.12973603e-07 0.0120655596 -0.0108509464
v -0.00026526954 0.0120592499 -0.0108494656
v -0.000766931509 0.0120126745 -0.0108385971
v -0.00126414036 0.0119210817 -0.0108176759
v -0.00177342398 0.0117787765 -0.0107862689
v -0.00223735301 0.0116043473 -0.0107495254
v -0.00263193436 0.0114203943 -0.0107128182
v -0.00317561254 0.0111092823 -0.0106552104
v -0.00345702074 0.0109199975 -0.0106228152
v -0.00407070247 0.010433048 -0.0105481511
v -0.00423742924 0.0102815824 -0.0105273873
v -0.00492885523 0.00955242757 -0.0104428818
v -0.00451323902 0.0100111747 -0.010493096
v -0.00532701425 0.00904682092 -0.0103987772
v -0.00569444103 0.00851209927 -0.0103645548
v -0.00604936155 0.00792006776 -0.0103412159
v -0.00622429699 0.00759544922 -0.0103348074
v -0.00636914745 0.00730735762 -0.010332847
v -0.00674014445 0.0064721778 -0.0103467247
v -0.00693386607 0.0059651467 -0.0103690866
v -0.00707499962 0.00555519853 -0.0103947194
v -0.0074942275 0.00402610516 -0.0105476407
v -0.00749846455 0.00400714716 -0.010550092
v -0.00750491489 0.00397809176 -0.0105538582
v -0.0077486895 0.00264172116 -0.0107583161
v -0.00793378334 0.000851143443 -0.011113612
v -0.00777155068 0.00248052669 -0.0107868509
v -0.0079380963 0.00078292028 -0.0111285606
v -0.00797691569 -4.32582638e-05 -0.0113148307
v -0.00799874775 -0.00133743917 -0.0116131557
v -0.00799917243 -0.00144327653 -0.0116369845
v 0.00759630138 0.00573566603 -0.00974746607
v 0.00811290648 0.00496481033 -0.00928724464
v 0.0078893695 0.00486985501 -0.00972602237
v 0.00836217869 0.00403722702 -0.00927380193
v 0.00815543439 0.00394765846 -0.00971935503
v 0.00852357596 0.00231768447 -0.0097511718
v 0.00874920655 0.00215578312 -0.00930431206
v 0.00856856164 0.00207394199 -0.00976091996
v 0.0087491367 0.0009254326 -0.00982496142
v 0.0090088658 0.000254822982 -0.00941663608
v 0.00884103589 0.000177993643 -0.00988292508
v 0.00916190352 -0.00160613342 -0.00960783288
v 0.00899321306 -0.00167906261 -0.0100823836
v 0.00929527357 -0.00157211337 -0.00911793392
v 0.00913607795 0.000295443402 -0.00893035531
v 0.0090105813 0.00130965712 -0.00886152126
v 0.00887351856 0.00220365194 -0.00881989393
v 0.00876183994 0.00282601151 -0.00880135782
v 0.00772866094 0.00578995468 -0.00953758508
v 0.00783692114 0.00583668845 -0.00931646675
v 0.00791296642 0.00587331178 -0.00908032432
v 0.00848771539 0.00409362605 -0.00878979918
v 0.00844481029 0.0042672446 -0.00879093539
v 0.00824036915 0.0050261002 -0.00880355574
v 0.00796631817 0.00590282446 -0.00883360021
v -0.00950154196 -0.00410678098 -0.00896433555
v -0.00957516395 -0.0041781161 -0.00838404521
v -0.00942461379 -0.00159882172 -0.0083572967
v -0.00943901669 -0.00161472172 -0.00821076334
v -0.00959589332 -0.00426264387 -0.00779967243
v -0.00946320966 -0.00171862473 -0.00759543292
v -0.00896762218 -0.00397247542 -0.0106425136
v -0.00919701438 -0.00400420651 -0.0100972699
v -0.00937528722 -0.00404884433 -0.00953668542
v -0.00868829992 -0.00395298284 -0.0111691356
v -0.00836053863 -0.00394482492 -0.0116741033
v -0.00867851451 -0.00185853394 -0.0107641127
v -0.00835360773 -0.00207315572 -0.0113199223
v -0.00802472048 -0.00231083157 -0.0117934197
v -0.00937036518 -0.00157341699 -0.00874432083
v -0.00929529592 -0.00157209625 -0.00911788829
v -0.00916194636 -0.00160603609 -0.00960772857
v -0.00899322238 -0.00167855003 -0.0100822672
v -0.00894212537 -0.00170510472 -0.0102072433
v 0.00950152613 -0.0041067889 -0.00896431878
v 0.00937527511 -0.00404885085 -0.0095366789
v 0.00919699948 -0.00400421349 -0.0100972652
v 0.00896759983 -0.0039724824 -0.0106425183
v 0.0086882757 -0.00395299029 -0.0111691449
v 0.00873189978 -0.00182501809 -0.0106607508
v 0.0083605079 -0.00394483469 -0.0116741145
v 0.00842370652 -0.00202525593 -0.0112088453
v 0.00804661214 -0.00229446776 -0.0117639713
v 0.00957515556 -0.00417812169 -0.00838402286
v 0.00940568838 -0.0015857399 -0.00851249322
v 0.00942460913 -0.00159882789 -0.00835726876
v 0.00945481099 -0.00164634734 -0.00798221864
v -0.00772898784 0.00578893023 -0.0095376242
v -0.00759662129 0.00573468953 -0.00974750798
v -0.00798849296 0.00454372214 -0.00972197577
v -0.00791333895 0.00587216299 -0.00908035785
v -0.00783726946 0.00583559647 -0.009316504
v -0.00811310206 0.00496383384 -0.00928746909
v -0.00796671491 0.00590161979 -0.00883363374
v -0.00824063551 0.00502501568 -0.00880379323
v -0.00844478328 0.00426711095 -0.0087913014
v -0.00836225972 0.00403638603 -0.00927415676
v -0.00874916092 0.00215525832 -0.00930475257
v -0.00876178313 0.00282586785 -0.00880181603
v -0.00848787371 0.00409269147 -0.00879018195
v -0.0091360528 0.000295160164 -0.00893068872
v -0.0090105189 0.00130956748 -0.00886193663
v -0.00887353625 0.00220303866 -0.00882037543
v -0.00857209787 0.0020531686 -0.0097622117
v -0.00877517834 0.000727705134 -0.00983937085
v -0.00900881365 0.000254624523 -0.00941692013
v -0.00884091388 0.000178146263 -0.00988318771
v -0.00892210938 -0.000656834571 -0.00996301416
v -0.00831065513 0.00332381995 -0.00972517021
v 0.00859957654 0.000725782302 -0.010193876
v 0.00835074205 0.000408282707 -0.0107008787
v 0.00821784884 -0.00113316905 -0.0112946108
v 0.00806414429 5.63199937e-05 -0.0111840917
v 0.00813567545 0.00165171584 -0.0106152585
v 0.00785500091 0.00284757535 -0.0105647389
v 0.00750648184 0.0039836457 -0.0105501693
v -5.62889625e-07 0.0124561097 -0.0107406573
v 0.000675421383 0.0124190319 -0.0107294433
v 0.000899929379 0.0123901572 -0.0107207876
v 0.00134237146 0.0123086004 -0.0106966589
v 0.00178960757 0.0121920258 -0.0106629776
v 0.001992014 0.0121275969 -0.0106447684
v 0.00261770422 0.0118802572 -0.0105773341
v 0.00321430806 0.0115720993 -0.0104984287
v 0.00349716539 0.0113992989 -0.0104565043
v 0.00377870025 0.0112090735 -0.010412138
v 0.00430892967 0.0107975937 -0.0103222001
v 0.00480427779 0.0103436494 -0.0102319391
v -0.000676590367 0.0124189248 -0.0107294014
v -0.00261872751 0.0118796751 -0.0105772521
v -0.0019929288 0.0121272439 -0.0106446994
v -0.00179006334 0.0121918973 -0.0106629441
v -0.00134347251 0.0123084262 -0.0106965732
v -0.000900372223 0.0123901367 -0.0107207568
v -0.00744206738 0.00614299672 -0.00976311788
v -0.00731184008 0.00569853093 -0.0100998767
v -0.00707625085 0.0069994987 -0.00981128495
v -0.00681536226 0.00675454037 -0.0101702847
v -0.00644528074 0.00820510648 -0.00991748087
v -0.00625121733 0.0077156974 -0.0102688326
v -0.00859966874 0.000725119084 -0.0101939514
v -0.00838037767 0.00205645012 -0.0101106586
v -0.00809418224 0.00333783613 -0.0100671779
v -0.007738329 0.00455602026 -0.0100641418
v -0.0087570576 -0.000640799641 -0.0103128618
v -0.00850463193 -0.00086916209 -0.0108175743
v -0.00821791403 -0.00113376381 -0.0112946983
v -0.00813580118 0.00165111234 -0.0106153181
v -0.00835083239 0.000407657324 -0.010700956
v -0.00806423929 5.57394451e-05 -0.0111841653
v -0.00750666531 0.00398311159 -0.0105501879
v -0.00785515644 0.00284700212 -0.0105647789
v -0.00321542961 0.011571507 -0.0104982592
v -0.00349764386 0.0113991238 -0.0104563981
v -0.00377962017 0.0112085417 -0.0104119591
v -0.00430977112 0.0107969232 -0.0103220493
v -0.00480504101 0.0103428941 -0.010231805
v -0.00504739117 0.0100933779 -0.0101859802
v -0.00526545616 0.00985198747 -0.01014408
v -0.00569163635 0.00932921376 -0.0100612193
v 0.00809402484 0.00333844475 -0.0100671425
v 0.00773813576 0.00455659861 -0.0100641288
v 0.00875699334 -0.000640120765 -0.0103127705
v 0.00504702656 0.0100937923 -0.0101860315
v 0.00526472228 0.00985285267 -0.0101442011
v 0.00569093972 0.00933011156 -0.0100613441
v 0.00644462137 0.00820609368 -0.00991763547
v 0.00625092397 0.00771614164 -0.0102688698
v 0.00707564317 0.00700037275 -0.00981154293
v 0.00681510381 0.0067550363 -0.0101703089
v 0.00744181452 0.0061435434 -0.00976316445
v 0.00731161283 0.00569906505 -0.0100998776
v 0.00850456674 -0.000868531293 -0.010817484
v 0.0083802538 0.00205709529 -0.0101106036
v 0.00721630407 0.00707809627 -0.0096124094
v 0.00740446616 0.00719780056 -0.00916489121
v 0.00745308865 0.00724021718 -0.00891711004
v 0.0076009687 0.00688797608 -0.00889016781
v 0.00707382802 0.00804767571 -0.00899278745
v 0.00677764323 0.00847017393 -0.00929636229
v 0.00681916904 0.00852531195 -0.0090471087
v 0.00659077847 0.00831075013 -0.00973187014
v 0.0058378973 0.0094649056 -0.0098914234
v 0.0054096682 0.0100036915 -0.00998297706
v 0.00494516362 0.0105110938 -0.0100797983
v 0.00459033065 0.0112421634 -0.00977852382
v 0.00512448372 0.0108262384 -0.0094167199
v 0.00510516949 0.010752311 -0.00967210717
v 0.00560576841 0.0102956491 -0.00931497291
v 0.00558002945 0.010224985 -0.00956823677
v 0.00582140079 0.0100305891 -0.00926797651
v 0.00601601973 0.00966573413 -0.00946959294
v 0.00604765303 0.00973204803 -0.00921801478
v 0.00647930615 0.00909676868 -0.00912192278
v 0.00444331765 0.0109820114 -0.0101794079
v 0.0040412941 0.0117645366 -0.00962314475
v 0.00433771918 0.0115389321 -0.00957026146
v 0.00460303994 0.0113179823 -0.00952051952
v 0.0033266698 0.0117903538 -0.0103742732
v 0.00390370353 0.0114105903 -0.0102787605
v 0.0040349965 0.0116883144 -0.00988425594
v 0.00343969278 0.0120837679 -0.00998551399
v 0.00344034564 0.0121589238 -0.00972089544
v 0.00280627375 0.0124211302 -0.0100780902
v 0.00280264276 0.0124939596 -0.00980976224
v 0.00213857531 0.0126929907 -0.010157194
v 0.0021327876 0.0127626676 -0.00988524407
v 0.00180044898 0.0128666135 -0.00991554745
v 0.00271379412 0.0121142566 -0.0104618594
v 0.00206818106 0.0123754404 -0.0105369436
v 0.00139525428 0.0125673525 -0.0105949007
v 0.00070254103 0.012684783 -0.0106315995
v 0.00143687706 0.0129591227 -0.00994306989
v 0.00144250307 0.0128926178 -0.0102181137
v 0.000905009627 0.0130559057 -0.00997242797
v 0.000726231665 0.01301465 -0.0102565996
v 0.00072281441 0.0130787855 -0.00997945387
v -5.53315942e-07 0.0130556645 -0.0102697657
v -6.025125e-07 0.0131189367 -0.00999187678
v -0.000727433187 0.0130145149 -0.010256541
v -0.000723968202 0.0130786635 -0.00997939892
v -5.32824458e-07 0.012724271 -0.0106441658
v -0.000703743368 0.012684661 -0.010631551
v -0.00139640633 0.0125671551 -0.0105947983
v -0.00206925883 0.0123750241 -0.0105368588
v -0.0027147925 0.0121136885 -0.0104617784
v -0.00332772546 0.0117897773 -0.0103740999
v -0.00390467653 0.0114099961 -0.0102785518
v -0.00403600186 0.0116876177 -0.00988398492
v -0.00344124902 0.012158392 -0.00972072221
v -0.00344063877 0.0120832222 -0.00998532865
v -0.00280369958 0.0124934511 -0.00980974268
v -0.00280730007 0.0124206133 -0.0100780595
v -0.00213405676 0.0127622308 -0.00988517329
v -0.00213983562 0.01269254 -0.0101571186
v -0.00180043746 0.0128666228 -0.0099155223
v -0.00144369376 0.0128923692 -0.0102179684
v -0.00143805158 0.0129588675 -0.00994292181
v -0.000904993503 0.0130559141 -0.00997239724
v -0.0044441903 0.0109812943 -0.0101792309
v -0.00541041465 0.0100028068 -0.00998284202
v -0.00494594872 0.0105102975 -0.0100796521
v -0.00582140358 0.0100305909 -0.00926799886
v -0.00560652418 0.0102947485 -0.00931483787
v -0.00558078708 0.0102240806 -0.009568098
v -0.00512534333 0.0108253676 -0.00941655599
v -0.00510599697 0.0107514625 -0.00967194419
v -0.00460396521 0.0113171963 -0.00952031091
v -0.00459124008 0.0112413848 -0.009778318
v -0.00433770707 0.0115389582 -0.00957020838
v -0.00404230226 0.0117638372 -0.00962287374
v -0.00604835246 0.00973110925 -0.00921786763
v -0.00601670425 0.00966479536 -0.00946944021
v -0.00647930428 0.00909678638 -0.0091219116
v -0.00677822297 0.00846918952 -0.00929617416
v -0.00681972783 0.00852435548 -0.00904692337
v 0.00732915336 0.0071451473 -0.00939857215
v 0.00670555048 0.00840055849 -0.009527063
v 0.00595047185 0.00957928784 -0.00969716348
v 0.00551916752 0.0101306951 -0.00979437865
v 0.00504996348 0.0106507717 -0.00989701133
v 0.0045416439 0.0111342371 -0.0100024622
v 0.00399355916 0.0115750125 -0.0101075619
v 0.00340596307 0.0119662508 -0.0102085453
v 0.00278037135 0.0123005677 -0.0103011541
v 0.00212009763 0.0125705525 -0.0103805456
v 0.00143081148 0.0127692008 -0.0104418546
v 0.00072061934 0.0128908353 -0.0104806684
v -5.26800022e-07 0.0129317623 -0.010493964
v -0.000721836172 0.0128907058 -0.0104806162
v -0.00143199996 0.0127689699 -0.0104417251
v -0.00212129299 0.0125701055 -0.010380459
v -0.00278137811 0.0123000294 -0.0103010936
v -0.00340695982 0.0119656827 -0.010208359
v -0.00399455987 0.0115743512 -0.010107317
v -0.00454253517 0.0111334855 -0.0100022694
v -0.00505076582 0.0106499512 -0.00989685114
v -0.00551991444 0.010129787 -0.00979423895
v -0.00595116057 0.00957835838 -0.00969701353
v -0.00583858415 0.00946399011 -0.0098912837
v -0.00670615211 0.00839957315 -0.00952688325
v -0.00659141224 0.00830976292 -0.0097317053
v -0.00732971681 0.00714417361 -0.0093982555
v -0.00721690245 0.00707717147 -0.00961212534
v -0.00740499748 0.00719677052 -0.00916455593
v -0.0076009836 0.00688806223 -0.00888997782
v -0.00745362882 0.00723914057 -0.00891676452
v -0.0070738378 0.00804775674 -0.00899262168
v -0.00348653761 0.0122553976 -0.00907374173
v -0.00264509139 0.0126787247 -0.00918174256
v -0.00759437354 0.00716541102 -0.00828250218
v -0.00705148745 0.00831339974 -0.00839106739
v -0.00578022189 0.0102535086 -0.00866114907
v -0.00644538319 0.00934339873 -0.00852001738
v -0.0050611929 0.0110426135 -0.00880594458
v -0.0042943703 0.0117100263 -0.00894609466
v -0.00177791668 0.012980381 -0.00926389359
v -0.000893344462 0.0131609971 -0.0093153026
v 7.51111529e-09 0.013221126 -0.00933280867
v 0.000893354882 0.0131609989 -0.0093153026
v 0.00177792762 0.0129803857 -0.0092638908
v 0.00348654133 0.0122554014 -0.00907373149
v 0.00264509511 0.0126787238 -0.00918173417
v 0.0042943731 0.0117100291 -0.00894608349
v 0.00506119663 0.0110426107 -0.00880593341
v 0.00578022329 0.0102535002 -0.00866113137
v 0.00705148466 0.00831339229 -0.00839104503
v 0.00644538365 0.00934338849 -0.00852000061
v 0.00807104073 0.00590255717 -0.0082017025
v 0.00759437168 0.00716540078 -0.00828247983
v 0.00847974326 0.00452940911 -0.00815492216
v 0.0093006948 -0.000190107428 -0.0082611395
v 0.00882001221 0.00305164955 -0.00814710371
v 0.00909279101 0.00147580577 -0.00818191748
v -0.00087324722 0.0132806562 -0.00856485683
v -0.00173868588 0.0131085459 -0.00852156617
v -0.00258860947 0.0128207812 -0.00845172536
v -0.00341550889 0.0124160387 -0.00835868809
v -0.00421220204 0.0118926549 -0.00824695826
v -0.0049718977 0.011248746 -0.00812198315
v -0.00568826497 0.0104823662 -0.00798995886
v -0.00635558693 0.00959168281 -0.00785761978
v -0.00696875341 0.00857509766 -0.00773202162
v -0.00752340443 0.00743143959 -0.00762035837
v -0.00930070411 -0.000190099308 -0.00826116465
v -0.00807104539 0.00590256881 -0.00820172392
v -0.00801595952 0.00616002223 -0.00752976537
v -0.00847974326 0.00452941889 -0.00815494731
v -0.00844373088 0.0047608288 -0.00746718422
v -0.00882001407 0.00305165956 -0.00814712979
v -0.0088049937 0.00323451078 -0.00743920682
v -0.00909279659 0.00147581252 -0.00818194449
v -0.00909909792 0.00158260448 -0.00745191658
v -0.00932656135 -0.000192441919 -0.00751074823
v -0.00168546021 -0.00212328741 1.56076057e-05
v -0.0015288461 -0.00368615869 6.98669974e-05
v -0.00115311844 -0.00357735739 0.000114201728
v -0.00127200363 -0.0019848838 6.43179519e-05
v -0.00138809276 -0.000423098914 -4.65617231e-05
v -0.0018384814 -0.000590523065 -9.75507501e-05
v -0.00246492773 0.000650959264 -0.000341851788
v -0.00264986022 0.00206198683 -0.000590926036
v -0.00314505701 0.00170925085 -0.000667982677
v -0.000699456199 0.00816499721 -0.00237938412
v -0.000660079764 0.00694908574 -0.00173910928
v -0.00077613513 0.0103141712 -0.00399795873
v -0.000839853601 0.01204722 -0.00609703222
v -0.00944818184 -0.00181607169 -0.00720262527
v -0.00942789204 -0.00188578828 -0.00696824118
v -0.00926993974 -0.00023858223 -0.00681994017
v -0.00850789342 -0.00340051949 -0.00421766099
v -0.00838501099 -0.00356776291 -0.00401810976
v -0.00813975371 -0.002253677 -0.00373500795
v -0.00706475321 -0.00389144616 -0.00246589677
v -0.00699086674 -0.00532788457 -0.00241143606
v -0.00693143299 -0.0053992453 -0.00236053183
v -0.00668782182 -0.00568954926 -0.00216237851
v -0.0060921167 -0.00638630148 -0.00174050091
v -0.00556686055 -0.00498576043 -0.00135035545
v -0.00202380121 -0.00549550168 -3.4740744e-05
v -0.00225787051 -0.00399775384 -5.41808004e-05
v -0.00260851951 -0.00420078402 -0.000132930843
v -0.000345004955 -0.00660454761 0.000100811638
v -0.00162935746 -0.00675252918 -2.02777192e-05
v -0.00121826015 -0.00668388279 3.58703364e-05
v -0.00136712508 -0.00527039543 7.20298704e-05
v -0.000611296913 -0.00661929138 8.87390488e-05
v -0.000689248845 -0.00513526797 0.000137682757
v -0.00359306484 -0.00499999151 -0.000430335233
v -0.00289758155 -0.00709778629 -0.00030218708
v -0.00294846226 -0.0044354545 -0.000222187795
v -0.00240040221 -0.00693757087 -0.000171449996
v -0.00192579778 -0.00681482721 -7.11960456e-05
v -0.00181492802 -0.00679024914 -5.11171638e-05
v -0.00473053427 -0.00650829123 -0.000952220347
v -0.00353553495 -0.00735389395 -0.000511008024
v -0.00418748939 -0.00569141051 -0.000674776733
v -0.00297235185 -0.00712479092 -0.000324213033
v -0.00468321005 -0.00797660928 -0.00101783592
v -0.0041113589 -0.00763818901 -0.000742658565
v -0.0041033146 -0.00763384579 -0.000739117502
v -0.00596852321 -0.00652880035 -0.00166280312
v -0.00571442442 -0.00681977812 -0.0015125518
v -0.00520198746 -0.00739914225 -0.00124513649
v -0.00821846724 -0.00378995901 -0.00376902963
v -0.00784425531 -0.00427454803 -0.00327959843
v -0.00780168362 -0.00277499878 -0.00326820347
v -0.00770348869 -0.00445261225 -0.00311572221
v -0.00937977992 -0.00201057666 -0.00660631387
v -0.00930195395 -0.00217421469 -0.00620376132
v -0.00915142335 -0.000537139014 -0.00610194448
v -0.00914546475 -0.00245392369 -0.0056303381
v -0.00903427135 0.00147205137 -0.00670492742
v -0.00873326603 0.00306374161 -0.0066370517
v -0.0083668502 0.00453429762 -0.00661119726
v -0.0079357652 0.00588237308 -0.00662166858
v -0.00744181452 0.00710740127 -0.00666232733
v -0.00688780425 0.00820946973 -0.00672669895
v -0.00627738796 0.00918923784 -0.00680813845
v -0.000810745463 0.0112351654 -0.00498559838
v -0.000860244851 0.0127468426 -0.00733473431
v -0.0016726132 0.0118859159 -0.00607151305
v -0.00161479565 0.0110792173 -0.0049680355
v -0.0024056104 0.0108185876 -0.0049407375
v -0.00230365503 0.00991399307 -0.00397315668
v -0.00304329628 0.00956221297 -0.00395599939
v -0.00289767236 0.00857221987 -0.00312341494
v -0.00358141633 0.00813941099 -0.00312666479
v -0.00339618023 0.00707954122 -0.00242432719
v -0.00402256986 0.0065778289 -0.00245514116
v -0.0038025924 0.00546604348 -0.00187404139
v -0.0043722121 0.00490951585 -0.00193584862
v -0.00412175385 0.00376556721 -0.00146315317
v -0.00463652797 0.00317006768 -0.00155577087
v -0.00387191726 0.00255689397 -0.00107354962
v -0.00154602714 0.0101643438 -0.0039879838
v -0.00219265139 0.00890742615 -0.00312471343
v -0.00274646096 0.00748813711 -0.00240365881
v -0.00320857856 0.00593469432 -0.00182642892
v -0.00358239957 0.00427920045 -0.0013872612
v -0.00336323911 0.00302444003 -0.000987609383
v -0.00283498573 0.00341831101 -0.000916735386
v -0.0030211811 0.00471181422 -0.00132622616
v -0.00259358273 0.0063164602 -0.00179083413
v -0.00207750709 0.0078046713 -0.00239063823
v -0.0014711977 0.00914604682 -0.00312784011
v -0.00352227991 -0.00174874847 -0.000439216237
v -0.00323824026 -0.00307916058 -0.00030712306
v -0.00286814547 -0.00277931849 -0.000208088415
v -0.00073848071 0.00928889122 -0.00313065574
v -0.00139362318 0.00803005788 -0.00238312362
v -0.0019612154 0.00661227154 -0.00176541833
v -0.00244108634 0.00506428955 -0.00127853057
v -0.00228976971 0.00373926084 -0.000859998923
v -0.00213946356 0.00234946259 -0.000528323057
v -0.00198939536 0.000903314794 -0.000276518404
v -0.0015025551 0.00109896914 -0.000225583412
v -0.0016163846 0.00257231249 -0.000479929906
v -0.00173043413 0.00398802245 -0.000816725777
v -0.00184533314 0.00533744786 -0.00124295347
v -0.00131532457 0.00682293344 -0.00174860703
v -0.000620867475 0.00564852217 -0.00120416761
v -0.000582025561 0.00427135779 -0.000768366328
v -0.00123734819 0.0055320044 -0.00121845922
v -0.00116006657 0.0041652238 -0.000786347489
v -0.00108338345 0.00273106922 -0.000445570156
v -0.0010068753 0.00123837159 -0.000189160288
v -0.000929935253 -0.000303784967 -9.92968489e-06
v -0.000851889956 -0.00188621599 9.94077491e-05
v -0.000771935098 -0.00349973561 0.000146181366
v -0.00038696258 -0.00345318811 0.000165493082
v -0.000427155988 -0.00182707852 0.000120582641
v -0.000466379337 -0.000232293576 1.21266321e-05
v -0.000505037373 0.00132188329 -0.000167300823
v -0.000543484348 0.00282616843 -0.000425063161
v -0.00712860189 -0.00214758702 -0.00257889391
v -0.00675386749 -0.00282289879 -0.00221020542
v -0.00678702863 -0.00105383492 -0.0023426048
v -0.00641895039 -0.00182793662 -0.00198073452
v -0.00641578389 -4.23946331e-05 -0.00213553268
v -0.00605840283 -0.000907833921 -0.00177620107
v -0.00601474009 0.00088589947 -0.00195527379
v -0.0056719156 -6.33505115e-05 -0.00159478164
v -0.00558418082 0.00173068 -0.00179978309
v -0.00525959115 0.000705199433 -0.00143503316
v -0.00512450933 0.00249196053 -0.00166726322
v -0.00482164044 0.00139785034 -0.00129579217
v -0.00435867347 0.0020149108 -0.00117578742
v -0.0036227603 0.00129061518 -0.000759913994
v -0.00292692613 0.00034140647 -0.000421489094
v -0.00227893516 -0.000806403928 -0.000162594282
v -0.00209039706 -0.00230164966 -4.63268043e-05
v -0.0027074907 -0.00107112271 -0.000241373506
v -0.00337339612 -2.59036206e-05 -0.00051545864
v -0.0040809731 0.000805425225 -0.000867396651
v -0.00451811776 0.000253120583 -0.000991296722
v -0.00493318029 -0.000366749475 -0.00113247521
v -0.00532569783 -0.00105445343 -0.00129163428
v -0.005695567 -0.00181003578 -0.00146940362
v -0.00604281807 -0.00263323123 -0.00166669814
v -0.00636787433 -0.00352337398 -0.001884792
v -0.00744212745 -0.00332222204 -0.00284617627
v -0.0059719393 -0.00424545072 -0.00159921206
v -0.0056593935 -0.00346555165 -0.00139620993
v -0.00495408522 -0.00370567106 -0.000993936555
v -0.00359443785 -0.00341998972 -0.000417822797
v -0.00390592637 -0.0021624004 -0.000558112806
v -0.00393607141 -0.00380196818 -0.000539876579
v -0.0042726309 -0.00262634968 -0.000690276909
v -0.00462204032 -0.00314076873 -0.000835592335
v -0.00189757044 -0.00382625009 1.35812652e-05
v -0.00248511927 -0.00252023269 -0.000121032783
v -0.00312242238 -0.00138510636 -0.000333622826
v -0.00380262802 -0.00045149363 -0.000623973901
v -0.00421329122 -0.00093582226 -0.000747393817
v -0.00460453145 -0.00147926179 -0.000886083115
v -0.00497597875 -0.00208204938 -0.00104026904
v -0.00532756513 -0.00274422229 -0.00121015846
v -0.0049052122 0.0107867848 -0.00699564721
v -0.00561488001 0.0100478502 -0.0068999622
v -0.00549248746 0.00942776538 -0.00579363294
v -0.00614469498 0.00859515741 -0.00574033149
v -0.00595116103 0.00790191628 -0.00478297612
v -0.00674750144 0.00764535647 -0.0057011242
v -0.0065416526 0.00698588276 -0.0047806506
v -0.00729682948 0.00657731574 -0.00568225048
v -0.00708264997 0.00595618086 -0.0048009064
v -0.00778928353 0.00539042614 -0.00568992691
v -0.00757121248 0.00481227459 -0.00484942785
v -0.00822222698 0.0040846169 -0.00573020056
v -0.00800508074 0.00355412439 -0.00493171345
v -0.00859394297 0.00266043819 -0.00580882002
v -0.00838266872 0.00218226714 -0.00505303731
v -0.00890363101 0.00111916382 -0.00593112223
v -0.00870321225 0.000697908516 -0.00521838712
v -0.00896712858 -0.000896961952 -0.00543223973
v -0.00899139605 -0.00270110462 -0.00520073762
v -0.0033669679 0.0119126262 -0.00717412634
v -0.00415388029 0.0114077739 -0.0070889499
v -0.00405911217 0.0107471282 -0.00591841759
v -0.00479554618 0.0101445597 -0.00585493213
v -0.00463702111 0.0093970634 -0.00483262027
v -0.00531483907 0.00870522205 -0.00480216509
v -0.00510137854 0.00788600557 -0.00392559404
v -0.0057176929 0.00711584697 -0.00393670145
v -0.00546033727 0.00624334859 -0.00319754425
v -0.00629218342 0.00623795344 -0.00396650145
v -0.00601599598 0.0054082945 -0.00325485761
v -0.00682166778 0.00525147142 -0.00402010279
v -0.00653122179 0.00447024358 -0.00333626149
v -0.007303725 0.00415592827 -0.0041025239
v -0.00700409524 0.00342879281 -0.00344602601
v -0.00773653714 0.0029513319 -0.00421859836
v -0.00743324962 0.00228394545 -0.0035882215
v -0.00811874587 0.0016381949 -0.0043730312
v -0.00781758688 0.00103620731 -0.00376692251
v -0.00844968017 0.000217668552 -0.00457039941
v -0.008156606 -0.000313344353 -0.00398621894
v -0.0087301163 -0.00130835536 -0.00481472164
v -0.00845142733 -0.00176290772 -0.00424960442
v -0.00171305274 0.0125807654 -0.00730068749
v -0.00255103386 0.0123031009 -0.00724610034
v -0.00249125506 0.0116162719 -0.00603107549
v -0.00328894425 0.0112371547 -0.00597871747
v -0.00317688379 0.0104522435 -0.00490651978
v -0.00392259145 0.00997889973 -0.00486903405
v -0.00375951407 0.0091078449 -0.00393974083
v -0.00444716029 0.0085495729 -0.00392817752
v -0.00423929421 0.00760780415 -0.00313762738
v -0.0048669423 0.00697617792 -0.00315991486
v -0.00462177536 0.00598190725 -0.00249899528
v -0.00519021694 0.00529070478 -0.00255918945
v -0.00491430471 0.00426416378 -0.00201442419
v -0.00572486734 0.00450330228 -0.00263933628
v -0.00542627322 0.00352915656 -0.00211264263
v -0.00622347929 0.0036190215 -0.00274309423
v -0.00590626011 0.00270387717 -0.00223339745
v -0.0066845757 0.0026374748 -0.00287394063
v -0.00635316735 0.00178797741 -0.00237937481
v -0.00710718613 0.0015586809 -0.00303516118
v -0.00676635047 0.000781451876 -0.00255308929
v -0.00749050453 0.000383105449 -0.00323014148
v -0.00714528048 -0.000315275043 -0.00275724963
v -0.00783423427 -0.000888239301 -0.00346245454
v -0.0074898717 -0.00150128175 -0.00299483747
v -0.00868167728 -0.00315808388 -0.00452818628
v -0.00875869393 -0.00304792449 -0.00467877369
v -0.00752608944 -0.00467430148 -0.00292221573
v -0.00431992207 -0.00854507275 -0.000939060585
v -0.00426009111 -0.00862235576 -0.000948118046
v -0.00332550937 -0.00810570363 -0.000559007924
v -0.00402915152 -0.00887225661 -0.00104831858
v -0.0031355652 -0.00837898999 -0.000681762467
v -0.00396382436 -0.00893459655 -0.00108792842
v -0.0034970874 -0.00779568823 -0.000533263141
v -0.0040063872 -0.00805696566 -0.000736600719
v -0.00240225135 -0.00737200631 -0.000203276883
v -0.00296165678 -0.00756619172 -0.000354567484
v -0.00182190922 -0.00721658301 -8.20999194e-05
v -0.00122464704 -0.00710302033 6.51407527e-06
v -0.000615437399 -0.00703379186 6.05634195e-05
v -0.00214128708 -0.00799550489 -0.000396749849
v -0.00161999871 -0.00785640813 -0.00029336437
v -0.00108681794 -0.00775542529 -0.000218304209
v -0.000545492279 -0.00769416941 -0.000172768894
v -0.00264739292 -0.00817054603 -0.000526843185
v -0.000581880857 -0.00737990346 -1.1844375e-05
v -0.00115859101 -0.00744536705 -6.12311997e-05
v -0.00172528869 -0.00755300047 -0.00014241488
v -0.00227764226 -0.00770075992 -0.000253823062
v -0.00281200721 -0.00788599625 -0.000393441442
v -0.00446548173 -0.00833221432 -0.000950519519
v -0.00521449838 -0.0088731572 -0.00137062615
v -0.00545217749 -0.00853410456 -0.00147043983
v -0.00572830439 -0.00876764674 -0.00165987853
v -0.00498815905 -0.00914636441 -0.0013425583
v -0.00670147687 -0.00605237857 -0.00218727905
v -0.00756157143 -0.00579089718 -0.00298561924
v -0.00828148145 -0.00552465348 -0.00386488345
v -0.00885104481 -0.00526555441 -0.00480687246
v -0.00926375203 -0.00502443593 -0.00579350069
v -0.0095161777 -0.00481033511 -0.00680783391
v -0.00945855863 -0.00330875185 -0.00668953778
v -0.00920753926 -0.00352054345 -0.00569054019
v -0.00879834779 -0.00376536092 -0.00471724616
v -0.00823403429 -0.00403328845 -0.00378622487
f 1 2 3
f 4 5 6
f 5 7 6
f 6 7 8
f 6 8 9
f 8 10 9
f 9 10 11
f 9 11 12
f 12 11 13
f 12 13 14
f 14 13 15
f 14 15 16
f 16 15 17
f 16 17 18
f 18 17 19
f 18 19 20
f 20 19 21
f 20 21 22
f 22 21 23
f 22 23 24
f 24 23 25
f 24 25 26
f 25 27 26
f 26 27 28
f 26 28 29
f 29 28 30
f 29 30 31
f 31 30 32
f 32 30 33
f 32 33 34
f 34 33 35
f 34 35 36
f 36 35 37
f 36 37 38
f 38 37 39
f 38 39 40
f 40 39 41
f 41 39 42
f 41 42 2
f 2 42 43
f 2 43 3
f 44 45 46
f 1 3 47
f 47 3 48
f 47 48 49
f 49 48 50
f 49 50 46
f 46 50 51
f 46 51 44
f 44 52 45
f 45 52 53
f 45 53 54
f 54 53 55
f 54 55 56
f 57 58 59
f 59 58 60
f 59 60 61
f 55 62 56
f 56 62 63
f 56 63 64
f 64 63 65
f 64 65 66
f 66 65 67
f 66 67 68
f 68 67 69
f 68 69 70
f 70 69 71
f 70 71 72
f 72 71 73
f 72 73 74
f 74 73 75
f 74 75 76
f 76 75 77
f 76 77 78
f 78 77 79
f 78 79 80
f 80 79 81
f 80 81 57
f 57 81 82
f 57 82 58
f 83 84 85
f 61 60 85
f 85 60 86
f 85 86 83
f 83 87 84
f 84 87 88
f 84 88 89
f 89 88 90
f 89 90 91
f 91 90 92
f 91 92 93
f 93 92 94
f 93 94 95
f 95 94 96
f 95 96 97
f 97 96 98
f 96 99 98
f 98 99 100
f 98 100 101
f 101 100 102
f 103 104 102
f 102 104 105
f 102 105 101
f 102 106 103
f 103 106 107
f 103 107 108
f 108 107 109
f 108 109 110
f 110 109 111
f 111 112 110
f 110 112 113
f 110 113 114
f 114 113 115
f 114 115 116
f 116 115 117
f 117 115 118
f 117 118 119
f 118 120 119
f 119 120 121
f 119 121 122
f 121 123 122
f 122 123 124
f 122 124 125
f 125 124 126
f 125 126 127
f 127 126 128
f 127 128 129
f 129 128 130
f 131 132 129
f 131 129 133
f 133 129 130
f 134 135 136
f 136 135 137
f 136 137 138
f 136 139 134
f 134 139 140
f 134 140 141
f 141 140 142
f 142 140 143
f 142 143 144
f 143 145 144
f 144 145 146
f 144 146 147
f 147 146 148
f 149 150 151
f 151 150 152
f 151 152 153
f 153 152 154
f 153 154 155
f 155 154 156
f 155 156 157
f 157 156 158
f 157 158 159
f 159 158 160
f 159 160 148
f 148 160 161
f 148 161 147
f 155 157 162
f 162 163 155
f 155 163 164
f 155 164 153
f 153 164 165
f 153 165 151
f 151 165 166
f 151 166 167
f 157 159 162
f 162 159 148
f 162 148 146
f 146 145 162
f 162 145 143
f 162 143 140
f 140 139 162
f 162 139 136
f 162 136 138
f 5 4 168
f 168 4 149
f 168 149 169
f 167 170 151
f 151 170 171
f 151 171 149
f 149 171 172
f 149 172 169
f 173 114 116
f 4 6 174
f 174 6 9
f 174 9 12
f 129 132 4
f 4 132 150
f 4 150 149
f 175 116 117
f 117 119 175
f 175 119 122
f 175 122 125
f 129 4 127
f 127 4 174
f 127 174 125
f 125 174 12
f 125 12 175
f 175 12 14
f 175 14 16
f 34 36 173
f 103 173 104
f 104 173 105
f 103 108 173
f 173 108 110
f 173 110 114
f 173 26 29
f 29 31 173
f 173 31 32
f 173 32 34
f 16 18 175
f 175 18 20
f 175 20 116
f 116 20 22
f 116 22 173
f 173 22 24
f 173 24 26
f 105 173 101
f 101 173 36
f 101 36 176
f 80 176 78
f 78 176 76
f 80 57 176
f 176 57 59
f 176 59 61
f 61 85 176
f 176 85 84
f 176 84 89
f 89 91 176
f 176 91 93
f 176 93 95
f 95 97 176
f 176 97 98
f 176 98 101
f 36 38 176
f 176 38 40
f 176 40 41
f 41 2 176
f 176 2 1
f 176 1 47
f 47 49 176
f 176 49 46
f 176 46 45
f 45 54 176
f 176 54 56
f 176 56 64
f 64 66 176
f 176 66 68
f 176 68 70
f 70 72 176
f 176 72 74
f 176 74 76
f 131 177 132
f 132 177 150
f 137 135 178
f 178 135 134
f 178 134 141
f 147 179 144
f 144 179 178
f 144 178 142
f 142 178 141
f 147 161 179
f 179 161 160
f 179 160 180
f 180 160 158
f 180 158 181
f 181 158 156
f 181 156 182
f 177 183 150
f 150 183 184
f 150 184 152
f 152 184 185
f 152 185 154
f 154 185 186
f 186 187 154
f 154 187 188
f 154 188 156
f 156 188 189
f 156 189 182
f 185 184 190
f 191 192 193
f 194 195 193
f 193 195 196
f 193 196 191
f 197 198 194
f 194 198 199
f 194 199 195
f 197 200 198
f 198 200 201
f 198 201 202
f 202 201 203
f 203 201 204
f 203 204 205
f 190 184 206
f 206 184 183
f 206 183 207
f 207 183 177
f 207 177 208
f 190 205 185
f 185 205 204
f 185 204 186
f 186 204 201
f 186 201 187
f 187 201 200
f 187 200 188
f 188 200 197
f 188 197 189
f 189 197 194
f 189 194 182
f 182 194 193
f 182 193 181
f 181 193 180
f 180 193 192
f 180 192 179
f 209 210 211
f 211 210 212
f 213 214 209
f 209 211 213
f 213 211 215
f 213 215 216
f 217 218 219
f 218 220 221
f 221 222 218
f 218 222 223
f 218 223 219
f 212 224 211
f 211 224 217
f 211 217 215
f 215 217 219
f 215 219 216
f 209 214 225
f 225 214 226
f 227 212 210
f 209 225 210
f 210 225 228
f 210 228 227
f 229 230 231
f 231 230 232
f 231 232 233
f 234 235 229
f 229 235 236
f 229 236 230
f 237 238 239
f 239 238 240
f 239 240 241
f 242 243 240
f 240 243 244
f 240 244 241
f 245 246 247
f 247 246 248
f 247 248 242
f 242 248 249
f 242 249 243
f 245 247 250
f 250 247 251
f 250 251 252
f 253 254 255
f 255 254 256
f 255 256 257
f 257 256 258
f 257 258 259
f 259 258 260
f 260 258 261
f 260 261 262
f 262 261 263
f 263 261 234
f 263 234 264
f 264 234 265
f 265 234 229
f 265 229 266
f 266 229 267
f 267 229 231
f 267 231 226
f 226 231 233
f 226 233 225
f 237 235 238
f 238 235 234
f 238 234 240
f 240 234 261
f 240 261 242
f 242 261 258
f 242 258 247
f 247 258 256
f 247 256 251
f 251 256 254
f 268 269 270
f 236 271 272
f 235 237 273
f 244 243 274
f 248 246 275
f 245 250 276
f 277 278 279
f 280 281 282
f 283 284 285
f 286 212 227
f 287 288 269
f 269 288 289
f 269 289 270
f 290 291 292
f 292 291 293
f 294 295 296
f 297 295 298
f 298 295 294
f 298 294 299
f 300 301 302
f 302 301 303
f 302 303 304
f 304 303 305
f 304 305 306
f 306 305 307
f 306 307 308
f 309 310 311
f 311 310 312
f 311 312 300
f 300 312 313
f 300 313 301
f 314 315 276
f 276 315 316
f 276 316 317
f 317 316 318
f 317 318 319
f 319 318 320
f 319 320 321
f 321 320 322
f 321 322 323
f 323 322 324
f 323 324 325
f 325 324 326
f 325 326 327
f 327 326 328
f 327 328 329
f 329 328 330
f 314 276 331
f 331 276 250
f 331 250 252
f 332 233 232
f 236 272 230
f 230 272 333
f 230 333 232
f 232 333 334
f 232 334 332
f 286 227 335
f 335 227 228
f 335 228 225
f 336 337 338
f 338 337 339
f 338 339 340
f 341 342 343
f 344 336 345
f 345 336 338
f 345 338 346
f 346 338 340
f 346 340 347
f 348 344 349
f 349 344 345
f 349 345 350
f 350 345 346
f 350 346 351
f 351 346 347
f 351 347 352
f 343 342 353
f 353 342 354
f 353 354 355
f 355 354 356
f 355 356 287
f 287 269 355
f 355 269 268
f 355 268 353
f 353 268 357
f 353 357 343
f 352 358 351
f 351 358 359
f 351 359 350
f 350 359 360
f 350 360 349
f 349 360 361
f 349 361 348
f 348 361 362
f 358 363 359
f 359 363 364
f 359 364 360
f 360 364 365
f 360 365 361
f 361 365 366
f 361 366 362
f 362 366 367
f 271 368 272
f 272 368 369
f 272 369 333
f 333 369 370
f 333 370 334
f 289 286 270
f 270 286 335
f 270 335 332
f 332 335 225
f 332 225 233
f 339 341 340
f 340 341 343
f 340 343 347
f 347 343 357
f 347 357 352
f 352 357 268
f 352 268 358
f 358 268 270
f 358 270 363
f 363 270 332
f 363 332 364
f 364 332 334
f 364 334 365
f 365 334 370
f 365 370 366
f 366 370 369
f 366 369 367
f 367 369 368
f 371 309 372
f 372 309 311
f 372 311 373
f 373 311 300
f 373 300 374
f 374 300 302
f 374 302 375
f 375 302 304
f 375 304 376
f 376 304 306
f 376 306 377
f 377 306 308
f 377 308 378
f 378 308 379
f 296 380 294
f 294 380 379
f 294 379 299
f 299 379 308
f 299 308 307
f 284 381 285
f 285 381 382
f 285 382 383
f 383 382 384
f 383 384 385
f 385 384 386
f 385 386 387
f 387 386 388
f 387 388 389
f 389 388 390
f 389 390 391
f 391 390 392
f 391 392 393
f 393 392 394
f 393 394 395
f 395 394 396
f 395 396 397
f 397 396 398
f 381 371 382
f 382 371 372
f 382 372 384
f 384 372 373
f 384 373 386
f 386 373 374
f 386 374 388
f 388 374 375
f 388 375 390
f 390 375 376
f 390 376 392
f 392 376 377
f 392 377 394
f 394 377 378
f 394 378 396
f 396 378 379
f 396 379 398
f 398 379 380
f 398 380 292
f 292 380 296
f 292 296 290
f 249 248 399
f 399 248 275
f 399 275 400
f 400 275 401
f 400 401 402
f 402 401 403
f 402 403 404
f 404 403 405
f 404 405 406
f 406 405 407
f 406 407 408
f 408 407 409
f 408 409 410
f 410 409 411
f 410 411 412
f 412 411 413
f 412 413 414
f 414 413 415
f 414 415 416
f 416 415 417
f 416 417 418
f 241 244 419
f 419 244 274
f 419 274 420
f 420 274 421
f 420 421 422
f 422 421 423
f 422 423 424
f 424 423 425
f 424 425 426
f 426 425 427
f 426 427 428
f 428 427 429
f 428 429 430
f 430 429 431
f 430 431 432
f 432 431 433
f 432 433 434
f 434 433 435
f 434 435 436
f 436 435 437
f 436 437 438
f 438 437 439
f 438 439 440
f 440 439 441
f 440 441 442
f 246 245 275
f 275 245 276
f 275 276 401
f 401 276 317
f 401 317 403
f 403 317 319
f 403 319 405
f 405 319 321
f 405 321 407
f 407 321 323
f 407 323 409
f 409 323 325
f 409 325 411
f 411 325 327
f 411 327 413
f 413 327 329
f 413 329 415
f 415 329 330
f 415 330 417
f 278 280 279
f 279 280 282
f 279 282 443
f 443 282 444
f 443 444 445
f 445 444 446
f 445 446 447
f 447 446 448
f 447 448 449
f 449 448 450
f 449 450 451
f 451 450 452
f 451 452 453
f 453 452 454
f 453 454 455
f 455 454 456
f 455 456 457
f 457 456 458
f 457 458 459
f 459 458 460
f 459 460 461
f 461 460 462
f 237 239 273
f 273 239 463
f 273 463 464
f 464 463 465
f 464 465 466
f 466 465 467
f 466 467 468
f 468 467 469
f 468 469 470
f 470 469 471
f 470 471 472
f 472 471 473
f 472 473 474
f 474 473 475
f 474 475 476
f 476 475 477
f 476 477 478
f 478 477 479
f 478 479 480
f 480 479 481
f 480 481 482
f 482 481 483
f 482 483 484
f 484 483 485
f 484 485 486
f 486 485 487
f 486 487 488
f 488 487 489
f 488 489 490
f 491 492 493
f 493 492 494
f 493 494 495
f 495 494 496
f 495 496 497
f 497 496 498
f 497 498 499
f 499 498 500
f 499 500 501
f 501 500 502
f 501 502 503
f 503 502 504
f 503 504 505
f 505 504 506
f 505 506 337
f 337 506 507
f 337 507 339
f 339 507 508
f 339 508 341
f 341 508 509
f 341 509 342
f 342 509 510
f 342 510 354
f 354 510 511
f 354 511 356
f 356 511 512
f 356 512 287
f 287 512 513
f 287 513 288
f 239 241 463
f 463 241 419
f 463 419 465
f 465 419 420
f 465 420 467
f 467 420 422
f 467 422 469
f 469 422 424
f 469 424 471
f 471 424 426
f 471 426 473
f 473 426 428
f 473 428 475
f 475 428 430
f 475 430 477
f 477 430 432
f 477 432 479
f 479 432 434
f 479 434 481
f 481 434 436
f 481 436 483
f 483 436 438
f 483 438 485
f 485 438 440
f 485 440 487
f 487 440 442
f 487 442 489
f 492 277 494
f 494 277 279
f 494 279 496
f 496 279 443
f 496 443 498
f 498 443 445
f 498 445 500
f 500 445 447
f 500 447 502
f 502 447 449
f 502 449 504
f 504 449 451
f 504 451 506
f 506 451 453
f 506 453 507
f 507 453 455
f 507 455 508
f 508 455 457
f 508 457 509
f 509 457 459
f 509 459 510
f 510 459 461
f 510 461 511
f 511 461 462
f 511 462 512
f 243 249 274
f 274 249 399
f 274 399 421
f 421 399 400
f 421 400 423
f 423 400 402
f 423 402 425
f 425 402 404
f 425 404 427
f 427 404 406
f 427 406 429
f 429 406 408
f 429 408 431
f 431 408 410
f 431 410 433
f 433 410 412
f 433 412 435
f 435 412 414
f 435 414 437
f 437 414 416
f 437 416 439
f 439 416 418
f 439 418 441
f 281 283 282
f 282 283 285
f 282 285 444
f 444 285 383
f 444 383 446
f 446 383 385
f 446 385 448
f 448 385 387
f 448 387 450
f 450 387 389
f 450 389 452
f 452 389 391
f 452 391 454
f 454 391 393
f 454 393 456
f 456 393 395
f 456 395 458
f 458 395 397
f 458 397 460
f 460 397 398
f 460 398 462
f 462 398 292
f 462 292 512
f 512 292 293
f 512 293 513
f 514 491 490
f 490 491 493
f 490 493 488
f 488 493 495
f 488 495 486
f 486 495 497
f 486 497 484
f 484 497 499
f 484 499 482
f 482 499 501
f 482 501 480
f 480 501 503
f 480 503 478
f 478 503 505
f 478 505 476
f 476 505 337
f 476 337 474
f 474 337 336
f 474 336 472
f 472 336 344
f 472 344 470
f 470 344 348
f 470 348 468
f 468 348 362
f 468 362 466
f 466 362 367
f 466 367 464
f 464 367 368
f 464 368 273
f 273 368 271
f 273 271 235
f 235 271 236
f 515 295 516
f 516 295 297
f 517 290 515
f 515 290 296
f 515 296 295
f 513 293 517
f 517 293 291
f 517 291 290
f 517 518 513
f 513 518 519
f 513 519 288
f 288 519 520
f 288 520 289
f 289 520 521
f 289 521 286
f 286 521 224
f 286 224 212
f 220 218 522
f 522 218 523
f 524 525 526
f 526 527 524
f 524 527 528
f 524 528 529
f 529 528 530
f 529 530 523
f 523 530 531
f 523 531 522
f 532 533 534
f 525 535 526
f 526 535 532
f 526 532 536
f 536 532 534
f 536 534 537
f 218 217 523
f 523 217 538
f 523 538 529
f 529 538 539
f 529 539 524
f 524 539 540
f 524 540 525
f 525 540 541
f 525 541 535
f 535 541 542
f 535 542 532
f 532 542 543
f 532 543 533
f 533 543 544
f 297 544 516
f 516 544 543
f 516 543 515
f 515 543 542
f 515 542 517
f 517 542 541
f 517 541 518
f 518 541 540
f 518 540 519
f 519 540 539
f 519 539 520
f 520 539 538
f 520 538 521
f 521 538 217
f 521 217 224
f 545 546 547
f 222 221 548
f 548 221 220
f 547 546 537
f 528 527 546
f 549 550 551
f 551 550 552
f 551 552 553
f 553 552 547
f 547 552 554
f 547 554 545
f 220 522 548
f 548 522 531
f 548 531 546
f 546 531 530
f 546 530 528
f 527 526 546
f 546 526 536
f 546 536 537
f 555 556 557
f 223 222 137
f 263 264 137
f 138 558 559
f 137 222 138
f 178 179 192
f 557 560 555
f 555 560 561
f 555 561 562
f 191 563 192
f 192 563 564
f 192 564 565
f 559 566 138
f 138 566 567
f 138 567 162
f 567 568 162
f 162 568 569
f 162 569 555
f 555 569 570
f 555 570 556
f 571 572 138
f 138 572 573
f 138 573 574
f 574 575 138
f 138 575 576
f 138 576 558
f 565 577 192
f 192 577 253
f 192 253 178
f 178 253 255
f 178 255 257
f 264 265 137
f 137 265 266
f 137 266 267
f 222 548 138
f 138 548 578
f 138 578 579
f 257 259 178
f 178 259 260
f 178 260 137
f 137 260 262
f 137 262 263
f 267 226 137
f 137 226 214
f 137 214 213
f 579 580 138
f 138 580 581
f 138 581 571
f 213 216 137
f 137 216 219
f 137 219 223
f 172 582 169
f 169 582 583
f 169 583 168
f 168 583 584
f 172 171 582
f 582 171 170
f 582 170 585
f 586 587 588
f 588 587 585
f 588 585 589
f 589 585 170
f 590 591 592
f 592 591 593
f 592 593 594
f 594 593 595
f 594 595 596
f 596 595 597
f 596 597 598
f 163 162 555
f 562 598 555
f 555 598 597
f 555 597 163
f 163 597 595
f 163 595 164
f 164 595 593
f 164 593 165
f 165 593 591
f 165 591 166
f 170 167 589
f 589 167 166
f 589 166 588
f 588 166 591
f 588 591 586
f 586 591 590
f 168 584 5
f 5 584 599
f 600 601 133
f 133 601 602
f 133 602 131
f 133 130 600
f 600 130 128
f 600 128 603
f 603 128 126
f 603 126 604
f 604 126 605
f 126 124 605
f 605 124 123
f 605 123 606
f 123 121 606
f 606 121 120
f 606 120 607
f 120 118 607
f 607 118 115
f 607 115 608
f 608 115 113
f 608 113 112
f 112 111 608
f 608 111 109
f 608 109 609
f 609 109 107
f 609 107 610
f 610 107 106
f 106 102 610
f 610 102 100
f 610 100 611
f 611 100 99
f 611 99 612
f 612 99 96
f 612 96 613
f 613 96 94
f 613 94 614
f 614 94 92
f 614 92 615
f 615 92 90
f 615 90 616
f 616 90 88
f 616 88 617
f 88 87 617
f 617 87 83
f 617 83 618
f 618 83 86
f 618 86 619
f 86 60 619
f 619 60 58
f 619 58 620
f 620 58 621
f 621 58 82
f 621 82 622
f 82 81 622
f 622 81 79
f 622 79 623
f 623 79 77
f 623 77 624
f 624 77 75
f 624 75 625
f 625 75 73
f 625 73 626
f 626 73 71
f 626 71 627
f 627 71 69
f 627 69 628
f 628 69 67
f 628 67 629
f 629 67 630
f 67 65 630
f 630 65 63
f 630 63 631
f 631 63 62
f 631 62 632
f 62 55 632
f 632 55 53
f 632 53 633
f 53 52 633
f 633 52 44
f 633 44 634
f 634 44 51
f 634 51 635
f 635 51 50
f 635 50 636
f 636 50 48
f 3 637 48
f 48 637 638
f 48 638 636
f 3 43 637
f 637 43 42
f 637 42 639
f 639 42 39
f 639 39 640
f 640 39 37
f 640 37 641
f 641 37 642
f 642 37 35
f 642 35 643
f 643 35 33
f 643 33 644
f 644 33 30
f 644 30 645
f 645 30 28
f 645 28 646
f 646 28 27
f 646 27 647
f 27 25 647
f 647 25 23
f 647 23 648
f 648 23 21
f 648 21 649
f 649 21 19
f 649 19 650
f 650 19 17
f 15 651 17
f 17 651 652
f 17 652 650
f 15 13 651
f 651 13 11
f 651 11 653
f 653 11 10
f 653 10 654
f 654 10 655
f 655 10 8
f 655 8 656
f 8 7 656
f 656 7 5
f 656 5 599
f 131 602 208
f 131 208 177
f 657 658 659
f 659 658 660
f 659 660 661
f 661 660 662
f 662 660 663
f 662 663 664
f 664 663 665
f 665 663 666
f 665 666 667
f 667 666 668
f 667 668 669
f 670 668 671
f 671 668 666
f 671 666 672
f 672 666 663
f 672 663 673
f 673 663 674
f 657 675 658
f 658 675 676
f 658 676 677
f 674 663 678
f 678 663 660
f 678 660 679
f 679 660 658
f 679 658 680
f 680 658 677
f 680 677 681
f 682 683 684
f 684 683 685
f 685 683 686
f 685 686 687
f 570 686 556
f 556 686 683
f 556 683 557
f 557 683 682
f 557 682 560
f 688 561 689
f 689 561 560
f 689 560 690
f 690 560 682
f 594 596 691
f 691 596 598
f 691 598 688
f 688 598 562
f 688 562 561
f 692 590 691
f 691 590 592
f 691 592 594
f 692 582 585
f 585 587 692
f 692 587 586
f 692 586 590
f 599 584 692
f 692 584 583
f 692 583 582
f 688 693 691
f 691 693 694
f 691 694 692
f 692 694 695
f 692 695 599
f 684 696 682
f 682 696 697
f 682 697 690
f 690 697 698
f 690 698 689
f 689 698 699
f 689 699 688
f 688 699 700
f 688 700 693
f 701 702 670
f 670 702 703
f 670 703 668
f 668 703 704
f 668 704 669
f 669 704 705
f 669 705 706
f 706 705 707
f 706 707 708
f 707 207 208
f 708 707 709
f 709 707 208
f 709 208 602
f 198 202 707
f 707 202 203
f 707 203 205
f 205 190 707
f 707 190 206
f 707 206 207
f 198 707 199
f 199 707 705
f 199 705 195
f 252 251 710
f 710 251 254
f 195 705 196
f 196 705 704
f 196 704 191
f 191 704 703
f 191 703 563
f 563 703 702
f 563 702 564
f 564 702 701
f 564 701 565
f 565 701 710
f 565 710 577
f 577 710 254
f 577 254 253
f 670 711 701
f 701 711 712
f 701 712 710
f 710 712 713
f 710 713 252
f 714 715 716
f 717 718 719
f 720 717 721
f 721 717 719
f 721 719 722
f 722 719 723
f 724 725 723
f 723 725 726
f 723 726 722
f 727 728 724
f 724 728 729
f 724 729 725
f 698 697 727
f 730 731 732
f 732 731 733
f 732 733 698
f 698 733 734
f 698 734 699
f 698 727 732
f 732 727 724
f 732 724 730
f 730 724 723
f 730 723 735
f 735 723 719
f 735 719 716
f 716 719 718
f 716 718 714
f 664 665 736
f 737 738 739
f 739 738 601
f 603 604 740
f 605 606 741
f 608 742 607
f 624 625 743
f 743 744 624
f 624 744 745
f 624 745 623
f 623 745 746
f 623 746 622
f 622 746 747
f 622 747 621
f 621 747 748
f 621 748 620
f 620 748 749
f 620 749 619
f 619 749 750
f 619 750 618
f 618 750 751
f 618 751 617
f 617 751 752
f 617 752 616
f 616 752 753
f 616 753 615
f 615 753 754
f 615 754 614
f 625 626 743
f 743 626 627
f 743 627 755
f 755 627 628
f 756 757 630
f 630 757 758
f 630 758 629
f 629 758 759
f 629 759 628
f 628 759 760
f 628 760 755
f 715 761 762
f 762 761 763
f 762 763 764
f 764 763 765
f 764 765 766
f 767 730 768
f 768 730 735
f 768 735 769
f 769 735 716
f 769 716 770
f 770 716 715
f 734 733 767
f 767 733 731
f 767 731 730
f 767 771 734
f 734 771 700
f 734 700 699
f 772 773 693
f 693 773 694
f 650 652 774
f 774 652 651
f 774 651 775
f 775 651 653
f 775 653 776
f 776 653 654
f 776 654 655
f 648 649 777
f 777 649 650
f 777 650 778
f 778 650 774
f 715 762 770
f 770 762 646
f 770 646 647
f 766 643 764
f 764 643 644
f 764 644 762
f 762 644 645
f 762 645 646
f 630 631 756
f 756 631 632
f 756 632 779
f 779 632 633
f 779 633 780
f 780 633 634
f 780 634 781
f 781 634 635
f 781 635 782
f 782 635 636
f 782 636 783
f 783 636 638
f 783 638 784
f 784 638 637
f 784 637 785
f 785 637 639
f 785 639 786
f 786 639 640
f 786 640 765
f 765 640 641
f 765 641 766
f 766 641 642
f 766 642 643
f 604 605 740
f 740 605 741
f 740 741 787
f 787 741 788
f 787 788 661
f 667 669 789
f 789 669 706
f 754 790 614
f 614 790 791
f 614 791 613
f 613 791 792
f 613 792 612
f 612 792 793
f 612 793 794
f 794 793 795
f 794 795 796
f 796 795 797
f 796 797 798
f 798 797 657
f 798 657 788
f 788 657 659
f 788 659 661
f 599 695 656
f 656 695 694
f 656 694 655
f 655 694 773
f 655 773 776
f 776 773 772
f 776 772 775
f 693 700 772
f 772 700 771
f 772 771 775
f 775 771 767
f 775 767 774
f 774 767 768
f 774 768 778
f 778 768 769
f 778 769 777
f 777 769 770
f 777 770 648
f 648 770 647
f 665 667 736
f 736 667 789
f 736 789 799
f 799 789 706
f 799 706 708
f 606 607 741
f 741 607 742
f 741 742 788
f 788 742 608
f 788 608 798
f 798 608 609
f 798 609 796
f 796 609 610
f 796 610 794
f 794 610 611
f 794 611 612
f 601 600 739
f 739 600 603
f 739 603 737
f 737 603 740
f 737 740 800
f 800 740 787
f 800 787 662
f 662 787 661
f 662 664 800
f 800 664 736
f 800 736 737
f 737 736 799
f 737 799 738
f 738 799 708
f 738 708 601
f 601 708 709
f 601 709 602
f 761 715 714
f 657 797 675
f 675 797 801
f 675 801 676
f 802 803 804
f 803 802 805
f 805 802 806
f 805 806 807
f 797 795 801
f 801 795 793
f 801 793 808
f 808 793 792
f 808 792 809
f 809 792 791
f 809 791 810
f 810 791 790
f 810 790 811
f 812 813 814
f 814 813 815
f 814 815 816
f 816 815 817
f 816 817 818
f 818 817 819
f 818 819 806
f 806 819 820
f 806 820 807
f 790 754 811
f 811 754 753
f 811 753 821
f 821 753 752
f 822 823 812
f 812 823 824
f 812 824 813
f 751 825 752
f 752 825 826
f 752 826 821
f 812 827 822
f 822 827 828
f 822 828 829
f 829 828 830
f 829 830 831
f 831 830 832
f 831 832 833
f 833 832 834
f 751 750 825
f 825 750 749
f 825 749 835
f 835 749 748
f 835 748 836
f 836 748 747
f 836 747 837
f 837 747 746
f 837 746 838
f 838 746 745
f 834 832 839
f 839 832 840
f 839 840 841
f 841 840 842
f 841 842 843
f 843 842 844
f 843 844 845
f 845 844 846
f 845 846 847
f 745 744 838
f 838 744 743
f 838 743 848
f 848 743 755
f 848 755 849
f 849 755 760
f 849 760 850
f 850 760 759
f 850 759 851
f 851 759 758
f 758 757 851
f 851 757 756
f 851 756 852
f 852 756 779
f 852 779 853
f 853 779 780
f 853 780 854
f 855 856 857
f 857 856 858
f 857 858 859
f 859 858 860
f 859 860 861
f 861 860 862
f 861 862 863
f 863 862 864
f 863 864 846
f 846 864 865
f 846 865 847
f 780 781 854
f 854 781 782
f 854 782 866
f 866 782 783
f 784 867 783
f 783 867 868
f 783 868 866
f 869 870 871
f 871 870 872
f 871 872 873
f 873 872 874
f 873 874 875
f 875 874 876
f 875 876 855
f 855 876 877
f 855 877 856
f 869 871 878
f 878 871 879
f 878 879 880
f 880 879 881
f 880 881 882
f 677 676 883
f 883 676 801
f 883 801 884
f 884 801 808
f 884 808 885
f 885 808 809
f 885 809 886
f 886 809 810
f 886 810 887
f 887 810 811
f 887 811 888
f 888 811 821
f 888 821 889
f 889 821 826
f 889 826 890
f 890 826 825
f 890 825 891
f 891 825 835
f 891 835 892
f 892 835 836
f 892 836 893
f 893 836 837
f 893 837 894
f 894 837 838
f 894 838 895
f 895 838 848
f 895 848 896
f 896 848 849
f 896 849 897
f 897 849 850
f 897 850 898
f 898 850 851
f 898 851 899
f 899 851 852
f 899 852 900
f 900 852 853
f 900 853 901
f 901 853 854
f 901 854 902
f 902 854 866
f 902 866 903
f 903 866 868
f 903 868 904
f 904 868 867
f 904 867 905
f 905 867 906
f 905 906 907
f 907 906 908
f 907 908 909
f 909 908 910
f 909 911 907
f 907 911 881
f 907 881 905
f 905 881 879
f 905 879 904
f 904 879 871
f 904 871 903
f 903 871 873
f 903 873 902
f 902 873 875
f 902 875 901
f 901 875 855
f 901 855 900
f 900 855 857
f 900 857 899
f 899 857 859
f 899 859 898
f 898 859 861
f 898 861 897
f 897 861 863
f 897 863 896
f 896 863 846
f 896 846 895
f 895 846 844
f 895 844 894
f 894 844 842
f 894 842 893
f 893 842 840
f 893 840 892
f 892 840 832
f 892 832 891
f 891 832 830
f 891 830 890
f 890 830 828
f 890 828 889
f 889 828 827
f 889 827 888
f 888 827 812
f 888 812 887
f 887 812 814
f 887 814 886
f 886 814 816
f 886 816 885
f 885 816 818
f 885 818 884
f 884 818 806
f 884 806 883
f 883 806 802
f 883 802 677
f 677 802 804
f 677 804 681
f 761 714 763
f 784 785 867
f 867 785 786
f 867 786 906
f 906 786 765
f 906 765 908
f 908 765 763
f 908 763 910
f 910 763 714
f 910 714 909
f 909 714 718
f 909 718 911
f 911 718 717
f 911 717 720
f 720 912 911
f 911 912 913
f 911 913 881
f 881 913 914
f 881 914 882
f 856 915 916
f 917 912 720
f 918 914 917
f 917 914 913
f 917 913 912
f 870 869 919
f 919 869 878
f 919 878 920
f 920 878 880
f 920 880 918
f 918 880 882
f 918 882 914
f 870 919 872
f 872 919 921
f 872 921 874
f 874 921 922
f 874 922 876
f 915 856 922
f 922 856 877
f 922 877 876
f 923 860 916
f 916 860 858
f 916 858 856
f 924 864 923
f 923 864 862
f 923 862 860
f 925 847 924
f 924 847 865
f 924 865 864
f 926 843 925
f 925 843 845
f 925 845 847
f 927 839 926
f 926 839 841
f 926 841 843
f 928 831 929
f 929 831 833
f 929 833 927
f 927 833 834
f 927 834 839
f 824 823 930
f 930 823 822
f 930 822 928
f 928 822 829
f 928 829 831
f 824 930 813
f 813 930 931
f 813 931 815
f 815 931 932
f 815 932 817
f 933 807 934
f 934 807 820
f 934 820 932
f 932 820 819
f 932 819 817
f 935 804 936
f 936 804 803
f 936 803 933
f 933 803 805
f 933 805 807
f 678 679 937
f 937 679 680
f 937 680 935
f 935 680 681
f 935 681 804
f 713 712 938
f 938 712 711
f 678 937 674
f 674 937 939
f 674 939 673
f 673 939 940
f 673 940 672
f 672 940 938
f 672 938 671
f 671 938 711
f 671 711 670
f 315 314 713
f 713 314 331
f 713 331 252
f 713 938 315
f 315 938 940
f 315 940 316
f 316 940 939
f 316 939 318
f 318 939 937
f 318 937 320
f 320 937 935
f 320 935 322
f 322 935 936
f 322 936 324
f 324 936 933
f 324 933 326
f 326 933 934
f 326 934 328
f 328 934 932
f 328 932 330
f 330 932 931
f 330 931 417
f 417 931 930
f 417 930 418
f 418 930 928
f 418 928 441
f 441 928 929
f 441 929 442
f 442 929 927
f 442 927 489
f 489 927 926
f 489 926 490
f 490 926 925
f 490 925 514
f 514 925 924
f 514 924 941
f 941 924 923
f 941 923 942
f 942 923 916
f 942 916 943
f 943 916 915
f 943 915 944
f 944 915 922
f 944 922 945
f 945 922 921
f 945 921 946
f 946 921 919
f 946 919 947
f 947 919 920
f 947 920 948
f 948 920 918
f 948 918 949
f 949 918 917
f 949 917 950
f 951 684 685
f 950 952 953
f 953 952 954
f 953 954 955
f 955 954 956
f 955 956 957
f 957 956 958
f 957 958 959
f 959 958 951
f 959 951 960
f 960 951 685
f 960 685 687
f 727 697 696
f 729 728 958
f 958 728 727
f 958 727 951
f 951 727 696
f 951 696 684
f 729 958 725
f 725 958 956
f 725 956 726
f 726 956 954
f 726 954 722
f 950 917 952
f 952 917 720
f 952 720 954
f 954 720 721
f 954 721 722
f 961 962 963
f 964 965 966
f 967 968 969
f 970 381 284
f 309 371 971
f 971 371 381
f 283 281 972
f 973 492 491
f 492 973 277
f 974 975 976
f 977 978 979
f 980 981 982
f 983 984 985
f 986 987 988
f 989 297 298
f 990 991 992
f 992 991 993
f 992 993 994
f 994 993 989
f 995 996 997
f 997 996 998
f 997 998 988
f 988 998 999
f 988 999 986
f 986 999 1000
f 986 1000 990
f 1001 1002 1003
f 1003 1002 1004
f 1005 1006 1001
f 1001 1006 1007
f 1001 1007 1002
f 1008 1009 1001
f 1001 1009 1010
f 1001 1010 1005
f 1011 1012 1013
f 1013 1012 1014
f 1015 1016 1017
f 1017 1016 1018
f 974 976 687
f 687 976 960
f 960 976 1019
f 960 1019 959
f 959 1019 1020
f 959 1020 957
f 957 1020 1021
f 957 1021 955
f 955 1021 1022
f 955 1022 953
f 953 1022 1023
f 953 1023 950
f 950 1023 1024
f 950 1024 949
f 949 1024 1025
f 949 1025 948
f 280 278 1026
f 1026 278 277
f 514 941 491
f 491 941 1027
f 491 1027 973
f 973 1027 1028
f 973 1028 1029
f 1029 1028 1030
f 1029 1030 1031
f 1031 1030 1032
f 1031 1032 1033
f 1033 1032 1034
f 1033 1034 1035
f 1035 1034 1036
f 1035 1036 1037
f 1037 1036 1038
f 1037 1038 1039
f 1039 1038 1040
f 1039 1040 1041
f 277 973 1026
f 1026 973 1029
f 1026 1029 1042
f 1042 1029 1031
f 1042 1031 1043
f 1043 1031 1033
f 1043 1033 1044
f 1044 1033 1035
f 1044 1035 1045
f 1045 1035 1037
f 1045 1037 1046
f 1046 1037 1039
f 1046 1039 1047
f 1047 1039 1041
f 1047 1041 969
f 969 968 1047
f 1047 968 1048
f 1047 1048 1046
f 1046 1048 1049
f 1046 1049 1045
f 1045 1049 1050
f 1045 1050 1044
f 1044 1050 1051
f 1044 1051 1043
f 1043 1051 1052
f 1043 1052 1042
f 1042 1052 972
f 1042 972 1026
f 1026 972 281
f 1026 281 280
f 1053 1054 1055
f 283 972 1056
f 1056 972 1052
f 1056 1052 1057
f 1057 1052 1051
f 1057 1051 1058
f 1058 1051 1050
f 1058 1050 1059
f 1059 1050 1049
f 1059 1049 1060
f 1060 1049 1048
f 1060 1048 1061
f 1061 1048 968
f 1061 968 1062
f 1062 968 967
f 1062 967 966
f 966 965 1062
f 1062 965 1063
f 1062 1063 1061
f 1061 1063 1064
f 1061 1064 1060
f 1060 1064 1065
f 1060 1065 1059
f 1059 1065 1066
f 1059 1066 1058
f 1058 1066 1067
f 1058 1067 1057
f 1057 1067 970
f 1057 970 1056
f 1056 970 284
f 1056 284 283
f 310 1068 312
f 312 1068 1069
f 381 970 971
f 971 970 1067
f 971 1067 1070
f 1070 1067 1066
f 1070 1066 1071
f 1071 1066 1065
f 1071 1065 1072
f 1072 1065 1064
f 1072 1064 1073
f 1073 1064 1063
f 1073 1063 1074
f 1074 1063 965
f 1074 965 1075
f 1075 965 964
f 1075 964 1076
f 989 298 994
f 994 298 1077
f 1077 298 299
f 1077 299 1078
f 299 307 1078
f 1078 307 1079
f 1079 307 305
f 1079 305 1080
f 1080 305 303
f 1080 303 1081
f 1081 303 301
f 1081 301 1069
f 1069 301 313
f 1069 313 312
f 1082 1083 1084
f 1084 1083 1085
f 1084 1085 1086
f 1086 1085 1087
f 1086 1087 1088
f 1088 1087 1089
f 1088 1089 1090
f 1090 1089 1091
f 1090 1091 1092
f 1092 1091 1093
f 1092 1093 1040
f 1040 1093 1094
f 1040 1094 1041
f 1041 1094 1095
f 1041 1095 969
f 969 1095 1096
f 969 1096 967
f 967 1096 1097
f 967 1097 966
f 966 1097 961
f 966 961 964
f 964 961 963
f 964 963 1076
f 962 961 1098
f 1098 961 1097
f 1098 1097 1099
f 1099 1097 1096
f 1099 1096 1100
f 1100 1096 1095
f 1100 1095 1101
f 1101 1095 1094
f 1101 1094 1102
f 1102 1094 1093
f 1102 1093 1103
f 1103 1093 1091
f 1103 1091 1104
f 1104 1091 1089
f 1104 1089 1105
f 1105 1089 1087
f 1105 1087 1106
f 1106 1087 1085
f 1106 1085 1107
f 1107 1085 1083
f 1107 1083 980
f 980 1083 1082
f 980 1082 1108
f 982 983 1109
f 1109 983 985
f 1109 985 1110
f 1110 985 1111
f 984 1008 985
f 985 1008 1001
f 985 1001 1111
f 1111 1001 1003
f 1111 1003 995
f 995 1003 1004
f 995 1004 996
f 1054 1053 1112
f 1112 1053 1113
f 1112 1113 1114
f 1114 1113 1115
f 1114 1115 1116
f 1116 1111 1114
f 1114 1111 995
f 1114 995 1112
f 1112 995 997
f 1112 997 1054
f 1054 997 988
f 1054 988 1055
f 1055 988 987
f 990 992 986
f 986 992 1117
f 986 1117 987
f 987 1117 1118
f 987 1118 1055
f 1055 1118 1119
f 1055 1119 1053
f 1053 1119 1120
f 1053 1120 1113
f 1113 1120 1121
f 1113 1121 1115
f 1115 1121 1122
f 1115 1122 1116
f 1116 1122 1123
f 1116 1123 1111
f 1111 1123 1124
f 1111 1124 1110
f 946 947 1125
f 1125 947 1126
f 1125 1126 1127
f 1127 1126 1128
f 1127 1128 1129
f 1129 1128 1130
f 1129 1130 1131
f 1131 1130 1132
f 1131 1132 1133
f 1133 1132 1134
f 1133 1134 1135
f 1135 1134 1136
f 1135 1136 1137
f 1137 1136 1138
f 1137 1138 1139
f 1139 1138 1140
f 1139 1140 1141
f 1141 1140 1017
f 1141 1017 1142
f 1142 1017 1018
f 1142 1018 1143
f 947 948 1126
f 1126 948 1025
f 1126 1025 1128
f 1128 1025 1024
f 1128 1024 1130
f 1130 1024 1023
f 1130 1023 1132
f 1132 1023 1022
f 1132 1022 1134
f 1134 1022 1021
f 1134 1021 1136
f 1136 1021 1020
f 1136 1020 1138
f 1138 1020 1019
f 1138 1019 1140
f 1140 1019 976
f 1140 976 1017
f 1017 976 975
f 1017 975 1015
f 944 945 1144
f 1144 945 1145
f 1144 1145 1146
f 1146 1145 1147
f 1146 1147 1148
f 1148 1147 1149
f 1148 1149 1150
f 1150 1149 1151
f 1150 1151 1152
f 1152 1151 1153
f 1152 1153 1154
f 1154 1153 1155
f 1154 1155 1156
f 1156 1155 1157
f 1156 1157 1158
f 1158 1157 1159
f 1158 1159 1160
f 1160 1159 1161
f 1160 1161 1162
f 1162 1161 1163
f 1162 1163 1164
f 1164 1163 1165
f 1164 1165 1166
f 942 943 1167
f 1167 943 1168
f 1167 1168 1169
f 1169 1168 1170
f 1169 1170 1171
f 1171 1170 1172
f 1171 1172 1173
f 1173 1172 1174
f 1173 1174 1175
f 1175 1174 1176
f 1175 1176 1177
f 1177 1176 1178
f 1177 1178 1179
f 1179 1178 1180
f 1179 1180 1181
f 1181 1180 1182
f 1181 1182 1183
f 1183 1182 1184
f 1183 1184 1185
f 1185 1184 1186
f 1185 1186 1187
f 1187 1186 1188
f 1187 1188 1189
f 1189 1188 1190
f 1189 1190 1191
f 1191 1190 979
f 1191 979 1013
f 1013 979 978
f 1013 978 1011
f 943 944 1168
f 1168 944 1144
f 1168 1144 1170
f 1170 1144 1146
f 1170 1146 1172
f 1172 1146 1148
f 1172 1148 1174
f 1174 1148 1150
f 1174 1150 1176
f 1176 1150 1152
f 1176 1152 1178
f 1178 1152 1154
f 1178 1154 1180
f 1180 1154 1156
f 1180 1156 1182
f 1182 1156 1158
f 1182 1158 1184
f 1184 1158 1160
f 1184 1160 1186
f 1186 1160 1162
f 1186 1162 1188
f 1188 1162 1164
f 1188 1164 1190
f 1190 1164 1166
f 1190 1166 979
f 979 1166 1192
f 979 1192 977
f 945 946 1145
f 1145 946 1125
f 1145 1125 1147
f 1147 1125 1127
f 1147 1127 1149
f 1149 1127 1129
f 1149 1129 1151
f 1151 1129 1131
f 1151 1131 1153
f 1153 1131 1133
f 1153 1133 1155
f 1155 1133 1135
f 1155 1135 1157
f 1157 1135 1137
f 1157 1137 1159
f 1159 1137 1139
f 1159 1139 1161
f 1161 1139 1141
f 1161 1141 1163
f 1163 1141 1142
f 1163 1142 1165
f 1165 1142 1143
f 1165 1143 1166
f 1166 1143 1193
f 1166 1193 1192
f 980 982 1107
f 1107 982 1109
f 1107 1109 1106
f 1106 1109 1110
f 1106 1110 1105
f 1105 1110 1124
f 1105 1124 1104
f 1104 1124 1123
f 1104 1123 1103
f 1103 1123 1122
f 1103 1122 1102
f 1102 1122 1121
f 1102 1121 1101
f 1101 1121 1120
f 1101 1120 1100
f 1100 1120 1119
f 1100 1119 1099
f 1099 1119 1118
f 1099 1118 1098
f 1098 1118 1117
f 1098 1117 962
f 962 1117 992
f 962 992 963
f 963 992 994
f 963 994 1076
f 1076 994 1077
f 1076 1077 1075
f 1075 1077 1078
f 1075 1078 1074
f 1074 1078 1079
f 1074 1079 1073
f 1073 1079 1080
f 1073 1080 1072
f 1072 1080 1081
f 1072 1081 1071
f 1071 1081 1069
f 1071 1069 1070
f 1070 1069 1068
f 1070 1068 971
f 971 1068 310
f 971 310 309
f 941 942 1027
f 1027 942 1167
f 1027 1167 1028
f 1028 1167 1169
f 1028 1169 1030
f 1030 1169 1171
f 1030 1171 1032
f 1032 1171 1173
f 1032 1173 1034
f 1034 1173 1175
f 1034 1175 1036
f 1036 1175 1177
f 1036 1177 1038
f 1038 1177 1179
f 1038 1179 1040
f 1040 1179 1181
f 1040 1181 1092
f 1092 1181 1183
f 1092 1183 1090
f 1090 1183 1185
f 1090 1185 1088
f 1088 1185 1187
f 1088 1187 1086
f 1086 1187 1189
f 1086 1189 1084
f 1084 1189 1191
f 1084 1191 1082
f 1082 1191 1013
f 1082 1013 1108
f 1108 1013 1014
f 1108 1014 980
f 980 1014 1194
f 980 1194 981
f 1195 1196 1197
f 1196 1198 1199
f 1200 545 554
f 1201 1006 1202
f 1202 1006 1005
f 1203 1004 1204
f 1204 1004 1002
f 1204 1002 1201
f 1201 1002 1007
f 1201 1007 1006
f 1000 999 1205
f 1205 999 998
f 1205 998 1203
f 1203 998 996
f 1203 996 1004
f 1000 1205 990
f 990 1205 1206
f 990 1206 991
f 991 1206 1207
f 991 1207 993
f 993 1207 989
f 989 1207 544
f 989 544 297
f 533 547 534
f 534 547 537
f 1208 549 1209
f 1209 549 551
f 1209 551 1210
f 1210 551 553
f 1210 553 1211
f 1198 1200 1199
f 1199 1200 554
f 1199 554 1212
f 1212 554 552
f 1212 552 1208
f 1208 552 550
f 1208 550 549
f 1211 1213 1210
f 1210 1213 1214
f 1210 1214 1209
f 1209 1214 1215
f 1209 1215 1208
f 1208 1215 1216
f 1208 1216 1212
f 1212 1216 1217
f 1212 1217 1199
f 1199 1217 1197
f 1199 1197 1196
f 1005 1218 1202
f 1202 1218 1195
f 1202 1195 1201
f 1201 1195 1197
f 1201 1197 1204
f 1204 1197 1217
f 1204 1217 1203
f 1203 1217 1216
f 1203 1216 1205
f 1205 1216 1215
f 1205 1215 1206
f 1206 1215 1214
f 1206 1214 1207
f 1207 1214 1213
f 1207 1213 544
f 544 1213 1211
f 544 1211 533
f 533 1211 553
f 533 553 547
f 1219 1220 1221
f 1005 1220 1218
f 1218 1220 1219
f 1218 1219 1195
f 1195 1219 1222
f 1195 1222 1196
f 578 548 546
f 579 578 1198
f 1198 578 546
f 1198 546 1200
f 1200 546 545
f 1198 1196 579
f 579 1196 1222
f 579 1222 580
f 580 1222 1219
f 580 1219 581
f 581 1219 1221
f 581 1221 571
f 573 572 1223
f 1005 1010 1220
f 1220 1010 1009
f 1220 1009 1221
f 572 571 1221
f 1224 574 573
f 574 1224 575
f 575 1224 1225
f 575 1225 576
f 576 1225 558
f 558 1225 1226
f 558 1226 559
f 559 1226 566
f 566 1226 1227
f 566 1227 567
f 567 1227 568
f 568 1227 1228
f 568 1228 569
f 569 1228 686
f 569 686 570
f 687 686 974
f 974 686 975
f 1015 1229 1016
f 1016 1229 1230
f 1016 1230 1018
f 1018 1230 1143
f 1143 1230 1231
f 1143 1231 1193
f 978 977 1231
f 1231 977 1192
f 1231 1192 1193
f 978 1231 1011
f 1011 1231 1232
f 1011 1232 1012
f 573 1223 1224
f 1224 1223 983
f 1224 983 982
f 1014 1225 1194
f 1194 1225 1224
f 1194 1224 981
f 981 1224 982
f 1221 1009 572
f 572 1009 1008
f 572 1008 1223
f 1223 1008 984
f 1223 984 983
f 1014 1012 1225
f 1225 1012 1232
f 1225 1232 1226
f 1226 1232 1231
f 1226 1231 1227
f 1227 1231 1230
f 1227 1230 1228
f 1228 1230 1229
f 1228 1229 686
f 686 1229 1015
f 686 1015 975
