# Converted from right_index_touch_link.STL for Drake collision support
v -0.00139917806 -0.00573530328 -0.00275774929
v -0.00139686349 -0.00497870985 -0.00302768731
v -0.00106103776 -0.00493900245 -0.00249829213
v -0.000131711175 -0.00351087609 0.000508077908
v -0.000258890243 -0.00457249209 0.000661710976
v -0.000292022014 -0.00466535892 -6.56267866e-06
v -0.000390744914 -0.0047495258 -0.000666657346
v -0.000184748686 -0.00363110285 -0.000329385803
v -0.000157632341 -0.00359521969 -7.7841898e-05
v -0.000434529968 -0.00379025587 -0.00146837789
v -0.000370243943 -0.00376049126 -0.00125209545
v -0.000553867605 -0.00482379552 -0.00130860566
v -0.000342619722 -0.00374629488 -0.00114947255
v -0.000237484259 -0.0036795889 -0.000672009133
v -0.00055278308 -0.00383655773 -0.00180789293
v -0.000778558664 -0.00488721207 -0.00192244991
v -0.000665543834 -0.00387382251 -0.00208373251
v -0.000773755834 -0.00390513777 -0.00231727073
v -0.000956517586 -0.00395108014 -0.00266074226
v -0.0010470784 -0.00397118879 -0.00281245704
v -0.00132406887 -0.00402417313 -0.00321960915
v -0.00163344457 -0.00407161796 -0.00359687652
v -0.00173663616 -0.00499275839 -0.00345838792
v -0.00197179522 -0.00411314284 -0.00393985445
v -0.00192190532 -0.00457512261 -0.00377415982
v -0.00211760588 -0.00412848964 -0.00406985544
v -0.00156223786 -0.00537999021 -0.00312035787
v -0.00128544657 -0.00597814331 -0.00247034919
v -0.00119094783 -0.00591155188 -0.00232757302
v -0.00115387817 -0.0062523149 -0.00209128298
v -0.000915159471 -0.00584537163 -0.00176096184
v -0.00103583164 -0.00648997538 -0.00169351324
v -0.000931755058 -0.00669003557 -0.00127737387
v -0.000695229741 -0.00577032613 -0.00115532475
v -0.000895605772 -0.00675658695 -0.00111255061
v -0.000818509609 -0.00689088134 -0.000708239619
v -0.00053522567 -0.00568762934 -0.000520493079
v -0.00075691723 -0.00698574027 -0.000299295818
v -0.000711205706 -0.00704026222 0.000113928611
v -0.000438266346 -0.00559853436 0.000133537062
v -0.00068513921 -0.00705390936 0.000470050465
v -0.000670788984 -0.0070306547 0.000878693769
v -0.000405690633 -0.00550445355 0.000796582259
v -0.000669819943 -0.00701336842 0.00101494684
v -0.00139918295 -0.00471819332 0.00427053683
v -0.00128544495 -0.00503255427 0.0040637725
v -0.00119095028 -0.00500916643 0.00390797528
v -0.00067079236 -0.00699131703 0.00115050678
v -0.000438269402 -0.0054067038 0.00145909551
v -0.000535228231 -0.00530672818 0.00211154972
v -0.000711202854 -0.00678372663 0.00188662449
v -0.000685137231 -0.00689777359 0.00154897652
v -0.000695230498 -0.00520606246 0.00274377968
v -0.000818514847 -0.00640738662 0.00263270992
v -0.000756915717 -0.00661429623 0.00226743682
v -0.0011538805 -0.00540293753 0.00377797964
v -0.00103583338 -0.00574361393 0.00346390554
v -0.000915162906 -0.00510633038 0.0033458455
v -0.000931755174 -0.00605344074 0.00312155648
v -0.000895601639 -0.00616399478 0.00298236217
v -0.00106103695 -0.00402812473 0.00379597791
v -0.00104739994 -0.00301086251 0.0038235262
v -0.00139686093 -0.00391612435 0.00431490876
v -0.00132386957 -0.00294638867 0.0042281826
v -0.0017366379 -0.00380749023 0.00473192474
v -0.00163385028 -0.00288482616 0.00460400153
v -0.00192190614 -0.0033174681 0.00491634477
v -0.00197223877 -0.00282738754 0.0049447855
v -0.00211760984 -0.00280533172 0.00507324981
v -0.000778556278 -0.0041417079 0.00322907767
v -0.00077376148 -0.00308800349 0.00332923653
v -0.000956493896 -0.00303467829 0.00367170433
v -0.000370269612 -0.00325124827 0.00226681889
v -0.000434560992 -0.00321847503 0.00248264358
v -0.000553871971 -0.00425490551 0.00262243883
v -0.000552801357 -0.00316663762 0.00282128621
v -0.000665590924 -0.00312416325 0.00309643405
v -0.000342640764 -0.00326672755 0.00216436433
v -0.000390745467 -0.00436567748 0.00198577251
v -0.000237503409 -0.00333811273 0.00168763485
v -0.000184756063 -0.00338875526 0.0013452688
v -0.000292020704 -0.00447209785 0.00132889848
v -0.000157637478 -0.00342565868 0.00109389413
v -0.00156223925 -0.00427466445 0.00451753987
v -0.000483041134 -0.00255774753 -0.00208008452
v -0.000370009308 -0.00236611324 -0.001820212
v -0.000523642346 -0.00290780514 -0.00207643514
v -0.000236797976 -0.00212954148 -0.00144075206
v -0.000221814102 -0.00210186513 -0.00139081699
v -0.000264352246 -0.00283338293 -0.00128467951
v -0.00228612032 -0.00374030368 -0.004299575
v -0.00184901489 -0.00300761824 -0.00407241983
v -0.00157724856 -0.00300331437 -0.00378970383
v -0.000722878031 -0.00294823269 -0.00251960428
v -0.000941489358 -0.00329265092 -0.00283432147
v -0.00112484826 -0.00357665098 -0.00305462
v -0.00137618196 -0.00322472118 -0.00349810463
v -0.000689832494 -0.00293725426 -0.00245376211
v -0.000107040774 -0.00273890002 -0.00045966843
v -5.43007154e-05 -0.00262587494 0.000380003912
v -4.70110717e-05 -0.00252304366 0.000365123647
v -1.27480334e-05 -0.00164496666 -0.000208897225
v 2.41187558e-06 -0.00156124705 0.000225938813
v -0.000132721369 -0.00193005346 -0.00104448828
v -5.79243642e-05 -0.00176820962 -0.000633110874
v -5.33984457e-05 -0.00175735413 -0.000600927509
v -0.000179568902 -0.00202217349 -0.00123873004
v -0.000315293466 -0.00227069156 -0.00167626981
v -0.000532160513 -0.00263922708 -0.00218068273
v -0.00167246093 -0.00289219501 -0.00391751202
v -0.00200174446 -0.00259222789 -0.00429641223
v -0.00213826518 -0.00300758425 -0.00433291355
v -0.00236138282 -0.00232388265 -0.00463601202
v -0.00244368636 -0.00300361239 -0.00457103224
v -0.0024265442 -0.00228054961 -0.00469091535
v -0.00262877345 -0.00294281635 -0.00471032178
v -0.00274944352 -0.00208578235 -0.00493803015
v -0.00293702004 -0.00221777009 -0.00502709392
v -0.00306073646 -0.00192506658 -0.00514246337
v -0.00255393074 -0.00311783701 -0.00462635327
v -0.00112484815 -0.00256394688 0.00394326122
v -0.00137334759 -0.00210592034 0.00426543178
v -0.000315368583 -0.00170214428 0.00225123414
v -0.000381349353 -0.00176352728 0.00244861143
v -0.000523634779 -0.00219986215 0.00281559397
v -0.000995758572 -0.00241576275 0.00374128786
v -0.000898000144 -0.00230556866 0.00357689895
v -0.000757440692 -0.00215050974 0.00331968116
v -0.000483125099 -0.00186300743 0.00271984935
v -0.000553088379 -0.00193399866 0.00288833608
v -0.000689832319 -0.00212112232 0.0031857884
v -0.000678742072 -0.00206568185 0.00316277449
v -0.000264353439 -0.00235294132 0.00203522365
v -0.000243696297 -0.00163937686 0.00201030052
v -1.27528237e-05 -0.00151838665 0.000666432374
v -5.34260798e-05 -0.00151514902 0.00107450329
v -0.000107042069 -0.00249621854 0.00121727353
v -5.85560847e-05 -0.00151662738 0.00111287634
v -0.000135439215 -0.00155672291 0.00156206184
v -0.000179567709 -0.00158807833 0.00176116847
v -0.00022191077 -0.0016213269 0.0019299048
v -0.00157724379 -0.00180574553 0.00448565139
v -0.00184902071 -0.00172971177 0.00475798594
v -0.00228612451 -0.00236794329 0.00518353423
v -0.00213826285 -0.00165584066 0.00500778528
v -0.00244368101 -0.00158453116 0.00523500796
v -0.00255393237 -0.00167837739 0.00532044377
v -0.00262876926 -0.00148673821 0.00535134599
v -0.00242624991 -0.000857584702 0.00514474604
v -0.00269557629 -0.000640650571 0.00529843243
v -0.00293702376 -0.000701626064 0.00544957491
v -0.00285107526 -0.000527846569 0.00537835062
v -0.00306073879 -0.000388226996 0.00547723426
v -0.00231585698 -0.00095543405 0.00507546915
v -0.00196472043 -0.00130846305 0.0048261839
v -0.00165400689 -0.001687938 0.00455934787
v -0.00740481028 0.00948445313 -0.00137254968
v -0.00739610614 0.00952919014 -0.000913049327
v -0.00672062719 0.00952741969 -0.00137876964
v -0.00671851495 0.00957466848 -0.000819558743
v -0.00671751844 0.0095761111 -0.000700525648
v -0.00737011759 0.00953071192 -0.00045340418
v -0.0067122234 0.00955518242 -0.000255674735
v -0.00735605974 0.0095203463 -0.000282147434
v -0.00670834351 0.00952687766 -1.70510375e-05
v -0.00732708024 0.00948952604 5.74291244e-06
v -0.00670193275 0.00946906954 0.000307655457
v -0.00730828103 0.00946539454 0.000163808523
v -0.00669346005 0.0093802698 0.000662410806
v -0.00724071125 0.00936394464 0.000630493043
v -0.00668795779 0.00931722205 0.000865320035
v -0.00720797665 0.00930952467 0.000820170331
v -0.00715667428 0.00921977498 0.00108652143
v -0.00667356979 0.00913857017 0.00132882979
v -0.00705644814 0.0090334937 0.0015313623
v -0.00667072088 0.0091011133 0.00141227408
v -0.00703575835 0.0089936927 0.00161386398
v -0.00665072119 0.0088225482 0.00194367126
v -0.00691253459 0.00874967594 0.00205714023
v -0.00677435007 0.00846528821 0.00248001097
v -0.00660597347 0.00810798164 0.0029196227
v -0.00662226789 0.00838307664 0.00258847582
v -0.00662852777 0.00848391838 0.00245509599
v -0.00662226463 0.00730532641 -0.0048588356
v -0.00660596741 0.006947638 -0.00509840809
v -0.00677435379 0.00741492491 -0.00477812951
v -0.0066285152 0.00743984338 -0.0047595175
v -0.00691253738 0.00780752581 -0.00445322879
v -0.00665071374 0.00790957175 -0.00436507305
v -0.00703575509 0.00816718768 -0.00409731595
v -0.00667071762 0.0083273612 -0.00393445231
v -0.00705644442 0.00822874531 -0.00402948167
v -0.00667357258 0.00838693511 -0.00386504992
v -0.00715667522 0.00853350107 -0.00365570304
v -0.00668794755 0.00868965499 -0.00347119942
v -0.00720797339 0.00869507249 -0.00342571945
v -0.00669346098 0.00880764332 -0.00329448679
v -0.00724071125 0.00880103465 -0.00325925089
v -0.00670192437 0.00899337232 -0.00297946343
v -0.00730828801 0.0090306364 -0.00284047658
v -0.00670833979 0.00914085377 -0.00268446677
v -0.00732707884 0.00909857918 -0.00269573485
v -0.00671221782 0.00923565403 -0.00246365648
v -0.00735606533 0.00920975767 -0.00242839381
v -0.00737012131 0.00926824752 -0.00226709992
v -0.00671752356 0.00938184094 -0.00204299227
v -0.00739611033 0.00939709693 -0.00182588433
v -0.00671850843 0.00941420253 -0.00192843319
v -0.00282718148 0.00726308255 -0.00165316463
v -0.00282220333 0.00738799851 -0.00106915913
v -0.00230124616 0.00684487168 -0.000990559813
v -0.00308377156 0.00762466015 -0.00110341038
v -0.00586288935 0.00909715798 -0.00199395325
v -0.00586406467 0.0092402678 -0.00133721356
v -0.00499697169 0.00886894949 -0.00128347718
v -0.0001567047 0.000929160917 -0.00119625579
v -0.000287432049 0.00179690495 -0.00141662895
v -0.000248381635 0.0019484621 -0.00105855835
v -0.000407224114 0.00304716011 -0.000440973061
v -0.000216815868 0.00213759369 -0.000309344236
v -0.000224793519 0.00206241384 -0.000688439352
v -0.000407461572 0.00293215457 -0.000846496318
v -0.00064833177 0.00376557908 -0.000999120763
v -0.000640204351 0.00385612575 -0.000558040512
v -0.00456930418 0.00171810109 -0.00603773864
v -0.00426343968 0.00111839792 -0.00594354421
v -0.00427171215 0.000987529522 -0.00594333978
v -0.00541409198 0.00383104337 -0.00603609812
v -0.00552493008 0.00411312608 -0.00600226643
v -0.00514235115 0.00399186555 -0.00593422586
v -0.0064085885 0.00641572662 -0.00536181219
v -0.00648813508 0.00662900414 -0.00526269246
v -0.00582969654 0.00643904693 -0.00519648148
v -0.00583442394 0.00707073649 -0.00478626601
v -0.00584076531 0.00763494615 -0.00431838911
v -0.00584766641 0.00812530983 -0.00379843009
v -0.00585416518 0.00853579864 -0.00323268119
v -0.00585945556 0.00886125863 -0.00262857089
v -0.00615654467 0.00934630446 -0.00135255721
v -0.00211419351 -0.00112574932 -0.00462724594
v -0.00183804939 -0.00144047488 -0.00434123026
v -0.00322375819 -0.00153803464 -0.0052852463
v -0.00298053096 -0.00123537763 -0.00520001817
v -0.00263931206 -0.00145330105 -0.00496554514
v -0.00159214495 -0.0017744262 -0.00404215185
v -0.000773759268 -0.00240498572 -0.00276207761
v -0.000549903722 -0.00197606441 -0.002394479
v -0.000356552482 -0.00159232062 -0.00197788817
v -8.17426262e-05 -0.000993698137 -0.00100778393
v -0.000198816444 -0.00126200728 -0.00151401351
v -0.00619778503 0.00585621875 -0.00558511307
v -0.00582764763 0.00574647589 -0.00554502942
v -0.00582937803 0.0049996851 -0.0058287438
v -0.00597399287 0.00526999356 -0.00576856779
v -0.00510226656 0.00476075523 -0.00571321743
v -0.00568001298 0.00451000547 -0.00593982916
v -0.00573757896 0.00465801591 -0.00591194071
v -0.00518910773 0.00326217222 -0.00607904606
v -0.00449801423 0.0037404981 -0.00578611111
v -0.00514003495 0.00313872145 -0.00608406682
v -0.00457796687 0.00296133058 -0.00594852492
v -0.0048584207 0.00243436545 -0.00608456787
v -0.00467039132 0.00214782311 -0.00605096621
v -0.0041288333 0.0019262844 -0.0058856369
v -0.00352902524 -8.88380746e-05 -0.00559906429
v -0.00389754726 7.78272661e-05 -0.00576339476
v -0.0033390508 0.000661893224 -0.00555588817
v -0.00394302094 0.000187887519 -0.00578872859
v -0.00312932604 -0.000312606251 -0.00538628921
v -0.00334712281 -0.00103795063 -0.0054137432
v -0.00356553658 -0.000721754448 -0.00555102527
v -0.00131712388 0.00530842599 -0.00128516066
v -0.00130966445 0.0054136836 -0.000783445837
v -0.00121246569 0.0052302219 -0.000756895228
v -0.000950597809 0.00455885613 -0.00114562002
v -0.000942703919 0.00465686666 -0.000673922361
v -0.000761873845 0.00420375355 -0.00060834852
v -0.000431455905 0.00280431798 -0.00124622928
v 1.4793507e-05 -0.000672926835 9.73843999e-05
v 8.67372364e-06 -0.000724313024 -0.000187155267
v -1.23046675e-05 0.000268537493 -3.88616209e-05
v -8.93928154e-05 0.00122769736 -0.000177666545
v -2.03832806e-05 0.000230064223 -0.000358319056
v -9.59784211e-06 -0.000795300817 -0.000467178528
v -3.98414304e-05 -0.000885341316 -0.000741173106
v -4.11074689e-05 0.000144556849 -0.000668722787
v -9.69668763e-05 0.00116034399 -0.000525555923
v -0.000154357753 0.00174224447 -0.000252131198
v -0.000119473123 0.00106052042 -0.00086593919
v -7.54071225e-05 3.37307793e-05 -0.000971064612
v -0.000122903832 -0.000101394122 -0.00126352848
v -0.000208317244 0.000767627032 -0.00151423668
v -0.00236940547 0.000727322069 -0.00496299751
v -0.00219822722 0.00133617234 -0.00481458381
v -0.00186049589 0.000911963987 -0.00452607963
v -0.0024213877 -0.00083197956 -0.00489822496
v -0.00275981845 -0.000560542801 -0.00515197869
v -0.000538205204 -0.00109598937 -0.00252803694
v -0.000433770532 -0.000859376159 -0.0023049172
v -0.000661338039 -0.000433970301 -0.00285765529
v -0.000547150848 -0.000147352839 -0.00262601231
v -0.000821704394 0.000204790602 -0.00318123051
v -0.000700084958 0.000540362729 -0.00294135255
v -0.00102263037 0.000817209424 -0.00349857192
v -0.000896039885 0.00120045815 -0.00325084012
v -0.00126753538 0.00140041055 -0.00380868651
v -0.00113857863 0.00182988192 -0.00355357025
v -0.00155972992 0.00195172348 -0.00410988461
v -0.00143113942 0.0024257449 -0.0038479655
v -0.00190210284 0.00246883347 -0.00439957948
v -0.00177679141 0.00298554893 -0.0041315495
v -0.000651863753 -0.00134852575 -0.00273531722
v -0.000785832293 -0.000740009244 -0.00306971814
v -0.000954800111 -0.000153506466 -0.00339767523
v -0.00116185122 0.000408071413 -0.00371887139
v -0.00141018233 0.000942062004 -0.00403218903
v -0.00170287723 0.00144601159 -0.00433586119
v -0.00204253988 0.00191779004 -0.00462723104
v -0.00203262176 0.00035255574 -0.0046818452
v -0.0015662387 0.000457799528 -0.00422432972
v -0.0017355358 -4.97865294e-05 -0.00438633189
v -0.00131323561 -2.44094099e-05 -0.00391199114
v -0.00147645141 -0.000477983529 -0.00407902757
v -0.00109876518 -0.000532394159 -0.00359091628
v -0.00125312514 -0.000929979316 -0.00376185845
v -0.000919962302 -0.00106369227 -0.00326234242
v -0.00106316456 -0.00140346482 -0.00343621103
v -0.00090415345 -0.00189598661 -0.00310280174
v -0.00118633115 -0.00249213795 -0.00341125857
v -0.00102366286 -0.00287173688 -0.00308188354
v -0.00137535692 -0.00212566811 -0.00373172667
v -0.00141756539 -0.00134446379 -0.00391169172
v -0.00165130338 -0.000950572372 -0.00422140444
v -0.00191804988 -0.000578282226 -0.00451981695
v -0.00221940642 -0.000229484926 -0.00480496325
v -0.00255639432 9.42867409e-05 -0.00507441489
v -0.000339279039 -0.000640132057 -0.0020661531
v -0.000444001955 0.000118022894 -0.00237493985
v -0.000590580399 0.000850943383 -0.00267819711
v -0.000782578136 0.00155513838 -0.00297585852
v -0.00102361164 0.00222735363 -0.00326711475
v -0.00131720211 0.00286453078 -0.00355050829
v -0.00166647683 0.00346394768 -0.00382372248
v -0.00217824429 0.00350694195 -0.0044014859
v -0.00229719258 0.0029496206 -0.00467482582
v -0.00243143318 0.00235549221 -0.00490332348
v -0.00258129998 0.00172872841 -0.00508691138
v -0.00274722069 0.00107301329 -0.00522697996
v -0.00292966259 0.000391691807 -0.00532560376
v -0.00499095954 0.00872606505 -0.00192707288
v -0.00419253157 0.00843144674 -0.00122016401
v -0.00499304989 0.00849702582 -0.0025498108
v -0.00419485429 0.00829603523 -0.00184753153
v -0.00397870131 0.00829666201 -0.00120065711
v -0.0049969377 0.00818165764 -0.00314319809
v -0.00420171116 0.0080749793 -0.00245445897
v -0.00347390911 0.00780792441 -0.0017559909
v -0.00347015983 0.0079384055 -0.00114881189
v -0.0050032828 0.00778432097 -0.00369965774
v -0.0042135031 0.00777119678 -0.00303331786
v -0.0034848731 0.00759590929 -0.00234370725
v -0.00501282932 0.00730988383 -0.00421201624
v -0.00423085736 0.00738879573 -0.00357691967
v -0.00350341108 0.0073050675 -0.00290478347
v -0.0028416214 0.00706103258 -0.00221879035
v -0.0022532742 0.00666336436 -0.00153984933
v -0.00174376671 0.00612313021 -0.000886114081
v -0.00502652861 0.00676414557 -0.00467421953
v -0.00425451016 0.00693241134 -0.00407845108
v -0.00353014772 0.00693929149 -0.00343247992
v -0.00286588678 0.00678440742 -0.00275933137
v -0.00227062707 0.00647213822 -0.00208100304
v -0.00175059726 0.00601091003 -0.00141687831
v -0.00162626582 0.00594643271 -0.000860543398
v -0.00504534738 0.00615316862 -0.00508089969
v -0.00428533321 0.00640753424 -0.0045321635
v -0.00356578035 0.00650295103 -0.00392041355
v -0.00290054223 0.00643682992 -0.0032685434
v -0.0022996671 0.00621086592 -0.00259874482
v -0.00177033804 0.00583126675 -0.0019316863
v -0.000672107388 0.00362415682 -0.00142833567
v -0.000973565388 0.00440421328 -0.00160404574
v -0.00133874244 0.00514102122 -0.00177223794
v -0.00180327694 0.00558639131 -0.00242484687
v -0.00234088977 0.00588292629 -0.00308735087
v -0.0029462087 0.00602237741 -0.00374053093
v -0.00361107802 0.00600120751 -0.00436321227
v -0.00432422804 0.00581992604 -0.00493297447
v -0.00507026725 0.00548326224 -0.00542824529
v -0.000341668463 0.00160940317 -0.00175993924
v -0.000471233769 0.00263295672 -0.00163194805
v -0.000526607444 0.00242001587 -0.0020004767
v -0.000711568049 0.0034334613 -0.00184157956
v -0.000766661542 0.00319572538 -0.00223520282
v -0.00101173751 0.00419474766 -0.00204456341
v -0.0010652109 0.00393297058 -0.00246303878
v -0.00137472048 0.00491344929 -0.00223951088
v -0.00142531935 0.00462854281 -0.00268232496
v -0.00184979301 0.00527938176 -0.00289117522
v -0.00191028544 0.0049137217 -0.00332580949
v -0.00239479798 0.00549207814 -0.00354144396
v -0.00246188627 0.00504281837 -0.00395648368
v -0.00300352834 0.00554588065 -0.00417033024
v -0.00307315052 0.00501242094 -0.00455353223
v -0.00366681721 0.00543947145 -0.00475610979
v -0.00373375136 0.00482340995 -0.00509571563
v -0.00437204214 0.0051755514 -0.00527726719
v -0.00381260947 0.00415866915 -0.00537932385
v -0.00442967238 0.00448044995 -0.0055621597
v -0.00390420831 0.0034508158 -0.00560553139
v -0.00400934834 0.00270515215 -0.00577380881
v -0.000183140743 -0.000259668886 -0.00154442829
v -0.000255490508 -0.000439731579 -0.00181237655
v -0.000273850601 0.000577399449 -0.00181779126
v -0.000352657749 0.000360256701 -0.00210519205
v -0.000410690234 0.00138777937 -0.00208596746
v -0.0004938856 0.00113420759 -0.00239265198
v -0.000597301638 0.00216766773 -0.0023488733
v -0.000682806422 0.00187847146 -0.00267470768
v -0.000837262836 0.00291345362 -0.00260582054
v -0.000923041953 0.00258962577 -0.00295061246
v -0.00113404926 0.00362174539 -0.00285560545
v -0.00121810299 0.00326441787 -0.00321904477
v -0.00149077165 0.00428946642 -0.00309632812
v -0.00157113699 0.00389994681 -0.00347787328
v -0.00198501861 0.00449350523 -0.0037246577
v -0.00207426492 0.00402307557 -0.00408408744
v -0.00254261214 0.0045398525 -0.00432844879
v -0.0026373826 0.00398806855 -0.00465444895
v -0.0031556522 0.00442727655 -0.00488698436
v -0.00274663721 0.00339240511 -0.00493220706
v -0.00325163337 0.00379574881 -0.00516819116
v -0.00287087844 0.00275764544 -0.00516072661
v -0.0033617625 0.00312301447 -0.00539593445
v -0.00301064108 0.00208836724 -0.00533977384
v -0.00348672969 0.00241403421 -0.00556982309
v -0.00316649093 0.00138855889 -0.0054707597
v -0.00362723763 0.00167312007 -0.00569127779
v -0.00378399063 0.000904198154 -0.00576266646
v -0.00422121538 0.000864196511 -0.00592292799
v -0.00175059703 0.00616598316 -0.000345311128
v -0.00419484731 0.00847943779 -0.000580144988
v -0.0019021011 0.00361480075 0.0035191793
v -0.0020425322 0.00315089524 0.00389371137
v -0.00170287432 0.0026158765 0.00374804158
v -0.00586288748 0.00928921159 -0.00066684332
v -0.00585946068 0.0092429081 8.60934142e-06
v -0.00585416658 0.00910205673 0.0006802071
v -0.00584766828 0.00886879861 0.00133911252
v -0.00584076392 0.00854595192 0.00197675638
v -0.00583442347 0.00813752878 0.00258538942
v -0.00648813369 0.00784898456 0.00316749793
v -0.00582969608 0.00764804892 0.00315785501
v -0.00541409012 0.00538506731 0.00470238086
v -0.00518910727 0.00485171145 0.00490483968
v -0.00514234742 0.00551041169 0.00455909362
v -0.00485841418 0.00405942462 0.00514481449
v -0.00467039505 0.0037751256 0.00519382162
v -0.00457796268 0.00452620676 0.00486495998
v -0.00456930231 0.00335927727 0.00530296331
v -0.00422121678 0.00250785891 0.00543493452
v -0.00394301908 0.00182125054 0.00549797388
v -0.00378399622 0.00250079576 0.00526991161
v -0.000773754553 -0.00152328983 0.00333056226
v -0.000356548029 -0.000966280291 0.00234815734
v -0.000198807902 -0.000781028124 0.00180967187
v -0.000549900229 -0.00121617725 0.00285645039
v -0.00102366379 -0.00188022223 0.00376956607
v -0.00263931323 1.40264119e-05 0.00517383032
v -0.0021142019 0.000232244463 0.0047565517
v -0.00298052887 0.00028948026 0.00533690536
v -0.00322376378 2.34130584e-05 0.00550443539
v -0.00510226516 0.00618510321 0.00412917743
v -0.00568000972 0.00600888114 0.00441758055
v -0.00552492356 0.00564598292 0.00458997209
v -0.00640858756 0.00767255854 0.00332301529
v -0.00619778316 0.00719930697 0.0036957704
v -0.00582765322 0.00708271563 0.00368844089
v -0.00597398449 0.00668913173 0.00403789198
v -0.00582937477 0.00644697994 0.00417223107
v -0.00573758455 0.00614292454 0.00434887316
v -0.000950598682 0.0046966006 -0.000193792454
v -0.000648332818 0.00389433908 -0.000109388289
v -0.000224793737 0.00217296835 7.55137953e-05
v -0.000407454238 0.00305182673 -1.94827044e-05
v 8.67927247e-06 -0.000641548599 0.000384815474
v -2.0376654e-05 0.000322197826 0.000278396037
v -9.69667381e-05 0.00126173161 0.000175043024
v -0.00177679153 0.00403433573 0.003115664
v -0.00155973772 0.00303678913 0.00338796759
v -0.00242138957 0.000590774289 0.00493313186
v -0.00275981193 0.000923001906 0.00509952568
v -0.00334712397 0.000539400848 0.00548589183
v -0.00143113546 0.0034170982 0.00300241471
v -0.00126753736 0.0024227011 0.0032554199
v -0.00113857607 0.00276222429 0.00288901944
v -0.00102263468 0.00177551131 0.00312336348
v -0.000896039011 0.00207280111 0.00277714757
v -0.000821703521 0.00109824911 0.00299265841
v -0.000700083445 0.00135204929 0.00266749249
v -0.000661339145 0.000393962808 0.00286344718
v -0.000547147065 0.000603147899 0.00256005046
v -0.00141018862 0.00204652431 0.00359969377
v -0.00116185029 0.001445606 0.00345061277
v -0.000954800751 0.000816014479 0.00330180116
v -0.000785833341 0.0001606023 0.00315357
v -0.00137535331 -0.000980541226 0.00418124255
v -0.00118633232 -0.00142282178 0.00397781655
v -0.000904151646 -0.000938576995 0.00351300905
v -0.000433770445 -0.000170687636 0.00245398469
v -0.00053820177 -0.000334345503 0.00273503014
v -0.000651862938 -0.000517755107 0.00300539611
v -0.000919962011 -9.51953116e-05 0.00343005499
v -0.0010987618 0.000507447578 0.00359452562
v -0.00131323631 0.00108561944 0.00375841628
v -0.00156623905 0.00163659139 0.00392123964
v -0.00186049717 0.00215766975 0.0040818532
v -0.00219823001 0.00264626672 0.00423825998
v -0.00183804659 -0.000150668711 0.00457149418
v -0.00159214111 -0.000555705803 0.00437935861
v -0.00507026678 0.00679718331 0.00365107204
v -0.00106315955 -0.000371746079 0.00369311171
v -0.00141756481 -0.000180364383 0.00413235836
v -0.0016512993 0.000285165006 0.00431769853
v -0.00191805651 0.000726795814 0.00449832622
v -0.00221940642 0.00114210998 0.00467289332
v -0.00255638617 0.00152897777 0.00483950181
v -0.00312932441 0.00122720038 0.00525393384
v -0.00356553751 0.000881543267 0.00552790053
v -0.00389754423 0.00170851953 0.00550488243
v -0.00352902478 0.00150210981 0.00539454212
v -0.00292966398 0.00188540446 0.00499606971
v -0.00236940314 0.00210446282 0.00455319183
v -0.00203262665 0.00166537485 0.00438982015
v -0.00173553592 0.00119575544 0.00422049034
v -0.00147645117 0.000698009157 0.00404718658
v -0.00125313143 0.000174647823 0.00387116498
v -0.0034739112 0.00798541028 -0.000529558223
v -0.00502653094 0.0078117596 0.00256485702
v -0.00504534412 0.00734113064 0.00312806107
v -0.00432422105 0.00697962008 0.00308067608
v -0.00437204493 0.00645929715 0.00359352026
v -0.00373374647 0.00607012631 0.00351924845
v -0.00442967005 0.00587347336 0.00406378414
v -0.00381260971 0.0055130641 0.00397967035
v -0.00449801283 0.00522736972 0.00448832056
v -0.00390420947 0.00489838189 0.00439726794
v -0.00400934974 0.00423101382 0.00477003632
v -0.00412883423 0.00351580395 0.00509808073
v -0.00426343596 0.00275747082 0.00538264122
v -0.00427171541 0.00263192225 0.00541954907
v -0.00514003774 0.00473475363 0.00494464999
v -0.00131712272 0.00545497332 -0.000272474485
v -3.98456214e-05 -0.000638892699 0.000961753365
v -9.60357738e-06 -0.000630223134 0.000673474278
v -7.54110442e-05 0.000307644397 0.000921664701
v -4.11101646e-05 0.000328208844 0.000600306492
v -0.000156706272 0.00123017502 0.00088376354
v -0.000119469194 0.00126249308 0.000529760553
v -0.000287436211 0.00212479662 0.000849096396
v -0.000248381781 0.00216861977 0.000462751603
v -0.000471233914 0.0029875841 0.000818568107
v -0.000431459659 0.00304256962 0.000400093995
v -0.000711566245 0.00381467678 0.000792659586
v -0.000672107446 0.00388039765 0.000342308369
v -0.00101173704 0.00460227439 0.0007714979
v -0.000973561953 0.00467826007 0.000289664225
v -0.0013747192 0.00534675783 0.000754696142
v -0.00133874046 0.00543252332 0.000242080321
v -0.00177033932 0.00613965467 0.000199301663
v -0.00225327094 0.00682652742 -0.000412350899
v -8.17419932e-05 -0.000667230284 0.00124814722
v -0.000183142751 0.000188824342 0.00155468285
v -0.000122905767 0.000260971952 0.00124043832
v -0.000273856887 0.00106905389 0.00157952344
v -0.000208320605 0.00116541644 0.00123449613
v -0.000410687702 0.00192220171 0.00160695938
v -0.00034166922 0.00204230775 0.00123147573
v -0.000597301929 0.00274463021 0.00163798593
v -0.000526605465 0.00288785272 0.00123234408
v -0.000837264583 0.00353266462 0.00167296396
v -0.000766655779 0.00369827566 0.00123753201
v -0.00113405136 0.00428271154 0.001711705
v -0.00106521393 0.00446987757 0.00124701299
v -0.00149077014 0.00499127526 0.00175326027
v -0.00142532331 0.00519908033 0.00126011495
v -0.00184980081 0.00588243129 0.0012758841
v -0.00180327811 0.00604463788 0.000741652388
v -0.00229966827 0.00669278949 0.000731380482
v -0.00227063242 0.00679657096 0.000160813899
v -0.00284162187 0.00740036275 0.00012599655
v -0.00282717752 0.00743376603 -0.000473700085
v -0.0050032842 0.00851379428 0.00134106155
v -0.00501283025 0.00820407271 0.00196690159
v -0.00425451063 0.00780422287 0.00194582681
v -0.00428533927 0.00742951082 0.00252972543
v -0.00361108081 0.00699195173 0.00248289877
v -0.0036668221 0.00656464789 0.00301892357
v -0.0030731468 0.00609767763 0.00294572487
v -0.00315564522 0.00563106872 0.00343138445
v -0.00263738586 0.00514396792 0.00333289709
v -0.00325162988 0.00510517089 0.00388008845
v -0.00274664024 0.00465148501 0.00376812764
v -0.00336176832 0.00452461326 0.00428920332
v -0.00287088379 0.00410755351 0.00416722428
v -0.00348672783 0.00389400753 0.00465694768
v -0.00301063969 0.00351648475 0.00452866592
v -0.00362723577 0.00321792229 0.00498346705
v -0.00316649443 0.00288252602 0.00485266559
v -0.00333904382 0.00220979145 0.00514030969
v -0.000339287915 -2.81172415e-05 0.00216285861
v -0.000255491032 9.21086976e-05 0.00186268147
v -0.000444006844 0.000786470599 0.00224404549
v -0.000352658448 0.000942287385 0.0019166948
v -0.000590583368 0.00157529197 0.00232708105
v -0.000493882806 0.00176597398 0.00197295193
v -0.000782581395 0.00233498355 0.00241289544
v -0.000682808866 0.00255967444 0.00203243829
v -0.00102361408 0.00306218397 0.00250163395
v -0.00092304399 0.00331986672 0.00209541572
v -0.0013172027 0.00375356036 0.00259276759
v -0.00121810462 0.00404307526 0.00216153334
v -0.00166647683 0.00440583937 0.00268483907
v -0.00157113769 0.0047259042 0.00222957344
v -0.00198502047 0.00536507787 0.00229796465
v -0.00191028556 0.0056549795 0.00179635256
v -0.00239479728 0.00627073692 0.00183917757
v -0.00234088697 0.00651681516 0.00129291404
v -0.00290053617 0.00709935697 0.00130964175
v -0.00286587887 0.00728831301 0.000722786179
v -0.00350341061 0.00782885775 0.000714668597
v -0.0034848724 0.00794870686 9.41581602e-05
v -0.00420171395 0.00843952224 6.45450273e-05
v -0.00499096047 0.00891438499 -0.000625778572
v -0.00499305176 0.00887128524 3.63390718e-05
v -0.00499694236 0.00873708073 0.000694788585
v -0.0042135003 0.00831229798 0.000705782266
v -0.00423085596 0.00809969846 0.00133549049
v -0.00353014818 0.00762768695 0.00132440589
v -0.00356577826 0.00734757399 0.00191602379
v -0.00294621126 0.00683572656 0.00187976193
v -0.00300352718 0.00650061853 0.0024270087
v -0.00246188696 0.00595757458 0.00236455281
v -0.00254260749 0.00558068324 0.00286384812
v -0.00207426236 0.00501583656 0.00277601415
v -0.00217825174 0.00461087283 0.00322671188
v -0.00229719561 0.00415389892 0.00364683405
v -0.00243143155 0.00364892045 0.0040343916
v -0.00258130184 0.0030999193 0.00438813027
v -0.00274721906 0.00251081027 0.00470834272
v -0.00688833138 0.00821931008 -0.00118946191
v -0.00687488215 0.00811272208 -0.00169356901
v -0.00684961258 0.00800110865 -0.00202815933
v -0.00687487936 0.00826000236 -0.000675820746
v -0.00660879957 0.00784217007 0.00103511801
v -0.00669224281 0.00800273567 0.000702610298
v -0.00675838254 0.00812002644 0.000370194524
v -0.00681071356 0.00820137653 2.79353626e-05
v -0.00684935926 0.00824759528 -0.000320544699
v -0.00681071775 0.007856993 -0.00235183025
v -0.00675797369 0.00768064288 -0.00265899207
v -0.00669224514 0.00747523038 -0.00294251647
v -0.00641796598 0.00744701689 0.0016024221
v -0.00651340932 0.00764827058 0.00134371931
v -0.00641796086 0.00668720854 -0.00364787015
v -0.00660920702 0.00722817518 -0.00321469037
v -0.00651341071 0.00695356121 -0.00345683284
v -0.00644770404 0.00696148397 -0.00345798093
v -0.00650341902 0.0074979933 -0.00294580986
v -0.00654032594 0.00788957532 -0.00235654577
v -0.00656031212 0.00815062132 -0.00169905275
v -0.00656450819 0.00825833157 -0.00119510922
v -0.00644770171 0.00765619427 0.00134257472
v -0.00656031724 0.00829791371 -0.000681308506
v -0.00654032174 0.00823395886 2.32198781e-05
v -0.00650341762 0.00802549813 0.000699320924
v -0.00658762455 0.00728821987 -0.00302277901
v -0.0066222325 0.00730306236 -0.00304006436
v -0.00663193176 0.00739903795 -0.00293330825
v -0.00660796091 0.00724221906 -0.00309613184
v -0.00654119765 0.00794957392 -0.00128319045
v -0.00654912787 0.00799374748 -0.00115705375
v -0.00652885111 0.00792285707 -0.00114690023
v -0.00641796226 0.00678839395 -0.0029486767
v -0.00641797483 0.0067843413 -0.00297690369
v -0.00642947201 0.00687654736 -0.00297007803
v -0.00644830428 0.00705845514 -0.00279320707
v -0.00643369555 0.00693904329 -0.00280966563
v -0.00642210105 0.0068276939 -0.0029143279
v -0.00646489207 0.00722403033 -0.00260040932
v -0.00645424658 0.0071422141 -0.00258440571
v -0.00644044345 0.00700488221 -0.00274204602
v -0.00647917856 0.00737285661 -0.00239134463
v -0.00647050515 0.00731095159 -0.00235084328
v -0.00645659212 0.00716604944 -0.00255438895
v -0.00652355608 0.00785504933 -0.00141122949
v -0.00651150336 0.00778525136 -0.00139538071
v -0.0065074442 0.00771272089 -0.001663754
v -0.00650125789 0.00769681903 -0.00144815806
v -0.00649805646 0.00764232269 -0.00164127664
v -0.00650977809 0.00781191466 -0.00113101897
v -0.00650323369 0.00776011171 -0.00112389273
v -0.00650202716 0.00771319587 -0.00137904857
v -0.00657477509 0.00805217493 -0.00116542261
v -0.00657735812 0.00803584233 -0.00129901501
v -0.00657764543 0.00805741176 -0.00116617396
v -0.00662793685 0.00810288731 -0.0013114165
v -0.00660637394 0.00810046867 -0.00117234117
v -0.00669187726 0.0081717195 -0.0011825565
v -0.00669439882 0.00815085694 -0.00132042228
v -0.0066947327 0.00817321613 -0.00118277071
v -0.00677361665 0.00817872025 -0.00132583536
v -0.00674278615 0.00819294993 -0.00118560391
v -0.00682855723 0.00815579854 -0.00148199138
v -0.00687824329 0.0081413053 -0.00155417726
v -0.00688371062 0.00818126835 -0.0013724952
v -0.00682667596 0.0081181284 -0.00163414329
v -0.00687241415 0.00810911972 -0.00167584722
v -0.00682398211 0.0080739921 -0.00178467389
v -0.00686160009 0.00805823691 -0.00184055662
v -0.00682050735 0.00802389905 -0.00193185813
v -0.00684769824 0.00800036918 -0.00200015539
v -0.00674309302 0.00775861926 -0.00247822562
v -0.00678763632 0.0077855573 -0.00244658394
v -0.00681071542 0.00786400214 -0.00230337447
v -0.00673589902 0.00768050971 -0.00260549411
v -0.00676143123 0.00770015456 -0.00258384645
v -0.00662811287 0.00729943858 -0.00304895663
v -0.00666044978 0.00739284139 -0.00296234735
v -0.0066909804 0.00748297479 -0.00286712591
v -0.00648538209 0.00691113994 -0.00326555688
v -0.00649445225 0.00693435501 -0.00326186395
v -0.00648770714 0.00702485023 -0.00314354314
v -0.00651501352 0.00698798988 -0.00324661238
v -0.00653616898 0.00706828153 -0.00319804135
v -0.00653070863 0.00702968519 -0.00322972401
v -0.00655657751 0.00709959166 -0.00319369975
v -0.00645073317 0.00682637468 -0.00325254025
v -0.00645212783 0.00682960777 -0.00325431372
v -0.00645416556 0.00696784025 -0.00307553913
v -0.00644046301 0.00680342875 -0.00323362346
v -0.00646469742 0.00685956934 -0.00326446095
v -0.00646947511 0.0068712784 -0.00326613989
v -0.00647236966 0.00687843794 -0.00326669216
v -0.00642297231 0.00677263737 -0.00314415875
v -0.00642459188 0.00677435612 -0.00316019775
v -0.00643081125 0.00678410474 -0.00320033473
v -0.00643850723 0.00679927832 -0.00322847511
v -0.00648294389 0.00724794436 -0.00279069832
v -0.00647579273 0.00728012156 -0.00264515006
v -0.00647391845 0.00715867942 -0.00288997497
v -0.00645877002 0.00711024506 -0.0028429497
v -0.0064394651 0.00692375191 -0.0030242831
v -0.00650806352 0.00722148083 -0.00295235007
v -0.00649817707 0.00712525379 -0.00305014383
v -0.00654688803 0.00717105111 -0.00310244341
v -0.0067552831 0.00789843593 -0.00221117516
v -0.00681123463 0.00790569931 -0.00221675402
v -0.00681623444 0.00796740409 -0.00207690964
v -0.00649045222 0.00743278023 -0.00243071071
v -0.00658234162 0.00717050629 -0.00314889895
v -0.00657739677 0.00718872342 -0.00312388106
v -0.00641935552 0.00677268999 -0.00308124232
v -0.00651737442 0.00731352484 -0.00284998678
v -0.00655700918 0.00726958085 -0.00300231064
v -0.00656654593 0.00736386096 -0.00289745512
v -0.00659724465 0.00738341035 -0.00291689741
v -0.00660621561 0.00747375749 -0.00280673895
v -0.00664097676 0.00749013759 -0.00282223336
v -0.00664939126 0.00757680088 -0.002706161
v -0.00664488273 0.00814010575 -0.00117802375
v -0.00665921718 0.00812934153 -0.00131635962
v -0.00662687467 0.00807242934 -0.00146123627
v -0.00657632668 0.00800602045 -0.00144577399
v -0.00654019229 0.00792052038 -0.00142615265
v -0.00674649654 0.00765281171 -0.00265293452
v -0.0067102043 0.00760616083 -0.00270686042
v -0.00671968656 0.00756970653 -0.00276386389
v -0.00649134722 0.00733262161 -0.00268744072
v -0.00652603246 0.00740083773 -0.00274350564
v -0.00657541724 0.00745330937 -0.00278837373
v -0.00661456492 0.00755971717 -0.00269161514
v -0.00665709982 0.00765811186 -0.00258627255
v -0.00674951589 0.00783080049 -0.00234767818
v -0.00667055696 0.00780666852 -0.00233142124
v -0.00666420953 0.00773531152 -0.00246047927
v -0.00662925374 0.00771692954 -0.00244792644
v -0.00662220782 0.00764036132 -0.00257270341
v -0.00659126323 0.00761831552 -0.00255659898
v -0.00658369157 0.0075384439 -0.00267436728
v -0.0065414994 0.0075619421 -0.00251720031
v -0.00653410796 0.00748395501 -0.00263219373
v -0.00650634849 0.00748889754 -0.00246790959
v -0.00649917871 0.00741324108 -0.00257946993
v -0.00665815128 0.0080986293 -0.00146744808
v -0.00662505021 0.0080358712 -0.00160887477
v -0.00657453435 0.0079702083 -0.00159037078
v -0.00653844653 0.00788564514 -0.00156697631
v -0.00651939865 0.00778088765 -0.00168558117
v -0.00650437595 0.00766843138 -0.00179389701
v -0.00649520755 0.00760098733 -0.00176313531
v -0.0068307342 0.00793560781 -0.00215448998
v -0.00667625898 0.0078735454 -0.00219644979
v -0.00663555088 0.0077877189 -0.00231989473
v -0.00659823837 0.00769414753 -0.0024330162
v -0.00654832274 0.00763601577 -0.00239650812
v -0.00651296973 0.00756077329 -0.00235079974
v -0.0067645153 0.00801611692 -0.00192753703
v -0.00676026009 0.00795986503 -0.00207195594
v -0.00668539107 0.00798994303 -0.00191589782
v -0.00668118335 0.00793429837 -0.00205876352
v -0.00664609578 0.00791436248 -0.00204934506
v -0.00664121192 0.0078540761 -0.0021859773
v -0.00661008619 0.00783001818 -0.00217350828
v -0.00660448335 0.00776427845 -0.00230618985
v -0.00655989675 0.00776878837 -0.00214290433
v -0.00655441917 0.00770453271 -0.00227259262
v -0.00652420567 0.00768970605 -0.00210451521
v -0.00651888037 0.00762728183 -0.00223049428
v -0.00650270144 0.00756801758 -0.00219869218
v -0.00649691373 0.00750299497 -0.00231628865
v -0.00648548361 0.00744133489 -0.00227975985
v -0.00647144206 0.00732096983 -0.00233521662
v -0.00677065738 0.00810994394 -0.00163108576
v -0.00676796865 0.00806598738 -0.0017809812
v -0.00669146283 0.00808277726 -0.00162255287
v -0.00668880995 0.00803928915 -0.00177088915
v -0.00665367488 0.00801858306 -0.00176360668
v -0.006650283 0.00796960201 -0.0019075498
v -0.00661907392 0.00794450659 -0.00189757301
v -0.00661492348 0.00788975321 -0.00203811447
v -0.00656868471 0.00788076594 -0.00187300378
v -0.00656463066 0.00782720651 -0.00201050844
v -0.00653275196 0.00779858045 -0.00184209191
v -0.00652880454 0.00774648227 -0.00197582878
v -0.00651239976 0.00768459728 -0.00194960192
v -0.00650790893 0.00762906205 -0.00207550125
v -0.00649620919 0.00756435515 -0.00204477576
v -0.00649113022 0.00750477426 -0.00216502696
v -0.00648517022 0.00747463992 -0.00206094375
v -0.00648214575 0.0074394499 -0.00213038386
v -0.0068031773 0.00820665527 -0.00118757656
v -0.0068296548 0.00818720181 -0.00132762315
v -0.00677253725 0.00814746879 -0.00147956936
v -0.00669332873 0.00811992772 -0.00147258921
v -0.00665630586 0.00806175731 -0.00161633873
v -0.00662243227 0.00799305364 -0.00175487925
v -0.00657197973 0.00792829692 -0.00173333101
v -0.0065359599 0.00784483831 -0.00170616771
v -0.00651626755 0.00773559976 -0.00181869371
v -0.0065006041 0.00761860469 -0.00192181952
v -0.006491384 0.00755044725 -0.00189322198
v -0.00688545592 0.00821226556 -0.00118843513
v -0.00650393777 0.00788672362 -6.7173467e-05
v -0.00649233442 0.0078164041 -8.08032419e-05
v -0.00650120759 0.00785298925 -0.000336531462
v -0.00673087174 0.0080630919 0.000452169537
v -0.00673055742 0.00807349011 0.000419472548
v -0.00676093111 0.00811590534 0.000297640334
v -0.00652549881 0.00764527265 0.00111410161
v -0.00653891964 0.00770320883 0.00103330018
v -0.00655424315 0.00770864729 0.00105526845
v -0.00643239263 0.00741787115 0.00115175673
v -0.00642572483 0.00739640184 0.00111862202
v -0.00644581625 0.00749723194 0.00106192206
v -0.00646056142 0.00762009621 0.000355441443
v -0.00647229468 0.00768734096 0.000147341605
v -0.00648103375 0.00775854895 0.000167725593
v -0.00647630729 0.00770885404 6.57687197e-05
v -0.00648331176 0.00774371438 -9.47767912e-05
v -0.00669444771 0.00819063745 -0.00104607025
v -0.00677368231 0.00821889192 -0.00104879297
v -0.00665926421 0.00816886779 -0.00104385498
v -0.00657739723 0.00807431247 -0.00103393744
v -0.00654122233 0.00798710342 -0.00102462142
v -0.00649707299 0.00779280812 -0.000544688664
v -0.00649823761 0.00779424747 -0.000601541193
v -0.00650763465 0.00786820706 -0.000600151368
v -0.00650203321 0.00778769981 -0.000864356232
v -0.00648847129 0.00776635017 -0.000234376625
v -0.00649195816 0.00777938124 -0.000344167434
v -0.00646728417 0.00767929247 0.000408750755
v -0.0064509795 0.00757792313 0.000643142674
v -0.00645890972 0.00761018461 0.000382007303
v -0.00644304277 0.00751152262 0.000610140443
v -0.00644104276 0.00749871228 0.000636032899
v -0.00644175056 0.00751809729 0.000758901006
v -0.00642449502 0.00738986814 0.000832925667
v -0.00643193629 0.00745301694 0.000871895871
v -0.00641889451 0.00736494875 0.00101929402
v -0.00641796598 0.00734583056 0.000903229055
v -0.00645675045 0.00757123064 0.00094583293
v -0.00647230772 0.00752217649 0.00118271133
v -0.00646898523 0.00751411449 0.00118439412
v -0.00645530783 0.0074801296 0.00118588819
v -0.00645387918 0.00747648207 0.00118541811
v -0.00644308189 0.00744816661 0.00117634691
v -0.00644048257 0.00744107133 0.00117224827
v -0.00664369995 0.0079991594 0.000541226764
v -0.00667857565 0.007964883 0.000677283271
v -0.00663482584 0.00794489961 0.000674970564
v -0.00664492929 0.00789839681 0.000799276575
v -0.00662528025 0.00788462348 0.000806061202
v -0.00661007129 0.00782721117 0.00090979063
v -0.00678791851 0.00816018414 0.000137203009
v -0.00680686859 0.00818999112 1.72323735e-06
v -0.00681180926 0.00819591153 -2.87534258e-05
v -0.00681228191 0.00821392704 -0.00014346563
v -0.00683254562 0.00822299998 -0.000199944378
v -0.00681696227 0.00823163427 -0.000289359916
v -0.0068361857 0.00822723005 -0.000233573985
v -0.0068209786 0.0082433736 -0.000438488176
v -0.00685353391 0.00824418105 -0.000416234514
v -0.00682424288 0.00824887864 -0.000587795919
v -0.00686711166 0.00825144909 -0.000600690255
v -0.00682681799 0.00824819691 -0.00074027665
v -0.00687695853 0.0082492074 -0.000786332472
v -0.00682863872 0.00824124552 -0.000892487471
v -0.0068830708 0.00823753234 -0.000972609269
v -0.00682972418 0.0082275169 -0.0010494882
v -0.00688543078 0.00821645465 -0.0011590526
v -0.00648560887 0.00775834406 0.000583907648
v -0.00647673011 0.00770229474 0.000705788145
v -0.00646151975 0.00764212059 0.000675267947
v -0.00646704715 0.00763949938 0.000827309967
v -0.00645205285 0.00758076273 0.00079398544
v -0.00644200156 0.00751405768 0.000909818569
v -0.00642125448 0.00737872813 0.00107369444
v -0.00654022256 0.0079998374 -0.000879226194
v -0.00669338275 0.00820418634 -0.000891314412
v -0.00665820669 0.00818232074 -0.000890196359
v -0.00669159414 0.0082110418 -0.000741289114
v -0.00665642181 0.00818911754 -0.000741243712
v -0.00668904837 0.00821170304 -0.000591028074
v -0.00665391004 0.00818979181 -0.000592066965
v -0.00668583624 0.00820628926 -0.000443920784
v -0.00664678728 0.00817292836 -0.000300247542
v -0.00668188091 0.00819472596 -0.000297033956
v -0.00667727506 0.00817729533 -0.000153377259
v -0.0066422103 0.00815562345 -0.00015768841
v -0.00667194091 0.00815372262 -1.04646242e-05
v -0.0066369297 0.00813225098 -1.58867861e-05
v -0.00666593621 0.00812424254 0.000130048182
v -0.00663096597 0.00810299814 0.000123516482
v -0.00657447567 0.00775226951 0.00100705971
v -0.00658031832 0.0077984063 0.00092352432
v -0.00659064436 0.00786533579 0.000794012798
v -0.00660011219 0.00792511925 0.000664000807
v -0.00660890713 0.00797892362 0.000531357131
v -0.00661695562 0.00802630652 0.00039747628
v -0.00665180665 0.00804692227 0.000406244828
v -0.00649234932 0.00782740861 0.000187581565
v -0.00650829356 0.00789200049 0.000206484314
v -0.00647824444 0.00774611812 0.000434793736
v -0.00649385666 0.00780878728 0.000459553936
v -0.00657219393 0.00809463486 -0.00059520558
v -0.00657636579 0.00808738079 -0.000884683628
v -0.00662797131 0.0081420932 -0.00104108208
v -0.00654997211 0.0080105653 9.83204663e-05
v -0.00652015395 0.00795269478 -5.41740446e-05
v -0.00651301956 0.00792418513 -0.000329064496
v -0.00654351339 0.00797634013 0.000231899961
v -0.00659993896 0.00807685778 0.000116018397
v -0.00662692124 0.00815543067 -0.000888713519
v -0.00662516477 0.00816219021 -0.000741015596
v -0.00662266137 0.00816283934 -0.000593111094
v -0.00661560521 0.00814613048 -0.000303847133
v -0.00652358029 0.00793283433 -0.000874945021
v -0.00653615966 0.00800690521 -0.000597336795
v -0.00656528445 0.00807827804 -0.000312114978
v -0.00661107758 0.00812899135 -0.000162575277
v -0.00651152711 0.0078614261 -0.000870328397
v -0.00651959563 0.00793975405 -0.000598753453
v -0.0065294411 0.00799099728 -0.000321901345
v -0.00655573001 0.00803886726 -3.66156601e-05
v -0.00660583843 0.0081058275 -2.20761503e-05
v -0.00659333356 0.00804182235 0.000252779457
v -0.00658605061 0.00800088327 0.000387353502
v -0.00653640833 0.00793637242 0.000363310362
v -0.00652862713 0.00789055601 0.000492767897
v -0.00657808781 0.00795397069 0.000519941852
v -0.00652013067 0.00783855282 0.000620995532
v -0.00656937994 0.00790069066 0.000651293201
v -0.00651096692 0.00778074795 0.000746674545
v -0.00655999873 0.00784148555 0.000780039583
v -0.00650098687 0.00771602336 0.000871929049
v -0.00654977327 0.00777519774 0.000908305985
v -0.00649038795 0.00764570152 0.000994032598
v -0.00674485974 0.00815173052 0.000140030374
v -0.0067380527 0.00811564922 0.000280858512
v -0.00665921764 0.00808859244 0.0002692485
v -0.00662430422 0.00806763675 0.000261593785
v -0.00647912314 0.00756950444 0.00111356378
v -0.0065016048 0.00759112183 0.00115280191
v -0.00649065105 0.0075657363 0.0011666842
v -0.00677259918 0.00823256373 -0.000892443466
v -0.00677078962 0.00823948812 -0.000740863383
v -0.00676822336 0.00824016426 -0.000589028234
v -0.00676497351 0.00823468529 -0.000440354313
v -0.00676097907 0.00822300371 -0.000291874283
v -0.0067563192 0.00820537377 -0.000146627252
v -0.0067509315 0.00818154681 -2.0973132e-06
v -0.00669778371 0.0080017522 0.000600111962
v -0.00648517115 0.00747463945 -0.00206094747
v -0.00647144252 0.00732096937 -0.00233522034
f 1 2 3
f 4 5 6
f 7 8 6
f 6 8 9
f 6 9 4
f 10 11 12
f 12 11 13
f 12 13 7
f 7 13 14
f 7 14 8
f 10 12 15
f 15 12 16
f 15 16 17
f 17 16 18
f 18 16 3
f 18 3 19
f 19 3 20
f 20 3 2
f 20 2 21
f 22 23 24
f 24 23 25
f 24 25 26
f 22 21 23
f 23 21 2
f 23 2 27
f 27 2 1
f 28 29 30
f 30 29 31
f 30 31 32
f 32 31 33
f 33 31 34
f 33 34 35
f 35 34 36
f 36 34 37
f 36 37 38
f 38 37 39
f 39 37 40
f 39 40 41
f 41 40 42
f 42 40 43
f 42 43 44
f 5 43 6
f 6 43 40
f 6 40 7
f 7 40 37
f 7 37 12
f 12 37 34
f 12 34 16
f 16 34 31
f 16 31 3
f 3 31 29
f 3 29 1
f 1 29 28
f 45 46 47
f 44 43 48
f 48 43 49
f 50 51 49
f 49 51 52
f 49 52 48
f 53 54 50
f 50 54 55
f 50 55 51
f 46 56 47
f 47 56 57
f 47 57 58
f 58 57 59
f 58 59 53
f 53 59 60
f 53 60 54
f 61 62 63
f 63 62 64
f 63 64 65
f 65 64 66
f 65 66 67
f 67 66 68
f 67 68 69
f 70 71 61
f 61 71 72
f 61 72 62
f 73 74 75
f 75 74 76
f 75 76 70
f 70 76 77
f 70 77 71
f 73 75 78
f 78 75 79
f 78 79 80
f 80 79 81
f 81 79 82
f 81 82 83
f 83 82 5
f 83 5 4
f 43 5 49
f 49 5 82
f 49 82 50
f 50 82 79
f 50 79 53
f 53 79 75
f 53 75 58
f 58 75 70
f 58 70 47
f 47 70 61
f 47 61 45
f 45 61 63
f 45 63 84
f 84 63 65
f 85 86 87
f 88 89 90
f 26 91 92
f 26 92 24
f 24 92 93
f 24 93 22
f 94 19 95
f 95 19 20
f 95 20 96
f 96 20 21
f 96 21 97
f 18 98 17
f 17 98 87
f 17 87 15
f 15 87 10
f 10 87 90
f 10 90 11
f 9 8 99
f 99 8 14
f 99 14 90
f 90 14 13
f 90 13 11
f 4 9 100
f 100 9 99
f 100 99 101
f 101 99 102
f 101 102 103
f 104 105 99
f 99 105 106
f 99 106 102
f 90 89 99
f 99 89 107
f 99 107 104
f 87 86 90
f 90 86 108
f 90 108 88
f 85 87 109
f 109 87 98
f 109 98 94
f 94 98 18
f 94 18 19
f 21 22 97
f 97 22 93
f 97 93 110
f 110 93 92
f 110 92 111
f 111 112 113
f 113 112 114
f 113 114 115
f 115 114 116
f 115 116 117
f 117 116 118
f 117 118 119
f 111 92 112
f 112 92 91
f 112 91 114
f 114 91 120
f 114 120 116
f 62 121 122
f 123 124 125
f 121 62 126
f 62 72 126
f 126 72 71
f 126 71 127
f 127 71 128
f 124 129 125
f 125 129 130
f 125 130 131
f 131 130 132
f 133 134 123
f 135 136 137
f 137 136 138
f 138 139 137
f 137 139 140
f 137 140 133
f 133 140 141
f 133 141 134
f 137 81 83
f 103 135 101
f 101 135 137
f 101 137 100
f 100 137 83
f 100 83 4
f 123 125 133
f 133 125 76
f 133 76 74
f 74 73 133
f 133 73 78
f 133 78 137
f 137 78 80
f 137 80 81
f 132 128 131
f 131 128 71
f 131 71 125
f 125 71 77
f 125 77 76
f 64 142 66
f 66 142 143
f 66 143 68
f 68 143 144
f 68 144 69
f 143 145 144
f 144 145 146
f 144 146 147
f 147 146 148
f 149 150 151
f 151 150 152
f 151 152 153
f 151 148 149
f 149 148 146
f 149 146 154
f 154 146 145
f 154 145 155
f 155 145 143
f 155 143 156
f 156 143 142
f 156 142 122
f 122 142 64
f 122 64 62
f 157 158 159
f 159 158 160
f 160 158 161
f 161 158 162
f 161 162 163
f 163 162 164
f 163 164 165
f 165 164 166
f 165 166 167
f 167 166 168
f 167 168 169
f 169 168 170
f 169 170 171
f 170 172 171
f 171 172 173
f 171 173 174
f 174 173 175
f 174 175 176
f 176 175 177
f 176 177 178
f 178 177 179
f 178 179 180
f 181 182 180
f 180 182 183
f 180 183 178
f 184 185 186
f 184 186 187
f 187 186 188
f 187 188 189
f 189 188 190
f 189 190 191
f 191 190 192
f 191 192 193
f 193 192 194
f 193 194 195
f 195 194 196
f 195 196 197
f 197 196 198
f 197 198 199
f 199 198 200
f 199 200 201
f 201 200 202
f 201 202 203
f 202 204 203
f 203 204 205
f 203 205 206
f 206 205 207
f 206 207 208
f 208 207 157
f 208 157 159
f 209 210 211
f 210 209 212
f 213 214 215
f 216 217 218
f 219 220 221
f 222 223 224
f 225 226 227
f 228 229 230
f 231 232 233
f 185 184 234
f 187 189 235
f 191 193 236
f 195 197 237
f 199 201 238
f 214 213 239
f 115 240 241
f 242 243 119
f 119 243 244
f 119 244 117
f 115 241 113
f 113 241 245
f 113 245 111
f 109 94 246
f 246 94 95
f 86 85 247
f 247 85 109
f 89 88 248
f 248 88 108
f 248 108 86
f 105 104 249
f 249 104 107
f 249 107 250
f 159 239 208
f 208 239 213
f 208 213 206
f 206 213 203
f 231 233 251
f 252 253 254
f 230 229 255
f 255 229 256
f 255 256 257
f 258 259 260
f 260 259 261
f 260 261 262
f 262 261 263
f 226 225 264
f 265 266 267
f 267 266 268
f 269 270 271
f 272 273 274
f 272 274 275
f 275 274 276
f 275 276 223
f 223 276 277
f 223 277 224
f 218 278 222
f 103 102 279
f 279 102 280
f 279 280 281
f 282 281 283
f 283 281 280
f 283 280 284
f 284 280 102
f 284 102 106
f 106 285 284
f 284 285 286
f 284 286 283
f 283 286 287
f 283 287 282
f 282 287 288
f 220 288 221
f 221 288 287
f 221 287 289
f 289 287 286
f 289 286 290
f 290 286 285
f 290 285 249
f 249 285 106
f 249 106 105
f 291 292 216
f 293 294 295
f 115 117 240
f 240 117 244
f 240 244 296
f 296 244 243
f 296 243 297
f 86 247 248
f 248 247 298
f 248 298 299
f 299 298 300
f 299 300 301
f 301 300 302
f 301 302 303
f 303 302 304
f 303 304 305
f 305 304 306
f 305 306 307
f 307 306 308
f 307 308 309
f 309 308 310
f 309 310 311
f 109 246 247
f 247 246 312
f 247 312 298
f 298 312 313
f 298 313 300
f 300 313 314
f 300 314 302
f 302 314 315
f 302 315 304
f 304 315 316
f 304 316 306
f 306 316 317
f 306 317 308
f 308 317 318
f 308 318 310
f 293 295 319
f 319 295 320
f 319 320 321
f 321 320 322
f 321 322 323
f 323 322 324
f 323 324 325
f 325 324 326
f 325 326 327
f 327 326 328
f 327 328 329
f 329 328 330
f 329 330 97
f 110 111 331
f 331 111 245
f 331 245 332
f 332 245 241
f 332 241 333
f 333 241 240
f 333 240 334
f 334 240 296
f 334 296 335
f 335 296 297
f 335 297 336
f 97 110 329
f 329 110 331
f 329 331 327
f 327 331 332
f 327 332 325
f 325 332 333
f 325 333 323
f 323 333 334
f 323 334 321
f 321 334 335
f 321 335 319
f 319 335 336
f 319 336 293
f 96 97 95
f 95 97 330
f 95 330 246
f 246 330 328
f 246 328 312
f 312 328 326
f 312 326 313
f 313 326 324
f 313 324 314
f 314 324 322
f 314 322 315
f 315 322 320
f 315 320 316
f 316 320 295
f 316 295 317
f 317 295 294
f 317 294 318
f 107 89 250
f 250 89 248
f 250 248 337
f 337 248 299
f 337 299 338
f 338 299 301
f 338 301 339
f 339 301 303
f 339 303 340
f 340 303 305
f 340 305 341
f 341 305 307
f 341 307 342
f 342 307 309
f 342 309 343
f 343 309 311
f 343 311 344
f 344 311 310
f 344 310 345
f 345 310 318
f 345 318 346
f 346 318 294
f 346 294 347
f 347 294 293
f 347 293 348
f 348 293 336
f 348 336 349
f 349 336 297
f 349 297 269
f 269 297 243
f 269 243 270
f 270 243 242
f 270 242 271
f 201 203 238
f 238 203 213
f 238 213 350
f 350 213 215
f 350 215 351
f 197 199 237
f 237 199 238
f 237 238 352
f 352 238 350
f 352 350 353
f 353 350 351
f 353 351 354
f 193 195 236
f 236 195 237
f 236 237 355
f 355 237 352
f 355 352 356
f 356 352 353
f 356 353 357
f 357 353 354
f 357 354 358
f 189 191 235
f 235 191 236
f 235 236 359
f 359 236 355
f 359 355 360
f 360 355 356
f 360 356 361
f 361 356 357
f 361 357 209
f 209 357 358
f 209 358 212
f 184 187 234
f 234 187 235
f 234 235 362
f 362 235 359
f 362 359 363
f 363 359 360
f 363 360 364
f 364 360 361
f 364 361 365
f 365 361 209
f 365 209 366
f 366 209 211
f 366 211 367
f 232 185 233
f 233 185 234
f 233 234 368
f 368 234 362
f 368 362 369
f 369 362 363
f 369 363 370
f 370 363 364
f 370 364 371
f 371 364 365
f 371 365 372
f 372 365 366
f 372 366 373
f 373 366 367
f 373 367 374
f 254 251 252
f 252 251 233
f 252 233 375
f 375 233 368
f 375 368 376
f 376 368 369
f 376 369 377
f 377 369 370
f 377 370 378
f 378 370 371
f 378 371 379
f 379 371 372
f 379 372 380
f 380 372 373
f 380 373 272
f 272 373 374
f 272 374 273
f 222 278 223
f 223 278 381
f 223 381 275
f 275 381 382
f 275 382 272
f 272 382 383
f 272 383 380
f 380 383 384
f 380 384 379
f 379 384 385
f 379 385 378
f 378 385 386
f 378 386 377
f 377 386 387
f 377 387 376
f 376 387 388
f 376 388 375
f 375 388 389
f 375 389 252
f 252 389 255
f 252 255 253
f 253 255 257
f 253 257 254
f 216 292 217
f 217 292 390
f 217 390 391
f 391 390 392
f 391 392 393
f 393 392 394
f 393 394 395
f 395 394 396
f 395 396 397
f 397 396 398
f 397 398 399
f 399 398 400
f 399 400 401
f 401 400 402
f 401 402 403
f 403 402 404
f 403 404 405
f 405 404 406
f 405 406 407
f 407 406 408
f 407 408 409
f 409 408 410
f 409 410 259
f 259 410 411
f 259 411 261
f 261 411 264
f 261 264 263
f 263 264 225
f 263 225 262
f 412 413 414
f 414 413 415
f 414 415 416
f 416 415 417
f 416 417 418
f 418 417 419
f 418 419 420
f 420 419 421
f 420 421 422
f 422 421 423
f 422 423 424
f 424 423 425
f 424 425 426
f 426 425 427
f 426 427 428
f 428 427 429
f 428 429 430
f 430 429 431
f 430 431 432
f 432 431 433
f 432 433 434
f 434 433 435
f 434 435 436
f 436 435 437
f 436 437 438
f 438 437 267
f 438 267 439
f 439 267 268
f 439 268 440
f 291 412 292
f 292 412 414
f 292 414 390
f 390 414 416
f 390 416 392
f 392 416 418
f 392 418 394
f 394 418 420
f 394 420 396
f 396 420 422
f 396 422 398
f 398 422 424
f 398 424 400
f 400 424 426
f 400 426 402
f 402 426 428
f 402 428 404
f 404 428 430
f 404 430 406
f 406 430 432
f 406 432 408
f 408 432 434
f 408 434 410
f 410 434 436
f 410 436 411
f 411 436 438
f 411 438 264
f 264 438 439
f 264 439 226
f 226 439 440
f 226 440 227
f 218 217 278
f 278 217 391
f 278 391 381
f 381 391 393
f 381 393 382
f 382 393 395
f 382 395 383
f 383 395 397
f 383 397 384
f 384 397 399
f 384 399 385
f 385 399 401
f 385 401 386
f 386 401 403
f 386 403 387
f 387 403 405
f 387 405 388
f 388 405 407
f 388 407 389
f 389 407 409
f 389 409 255
f 255 409 259
f 255 259 230
f 230 259 258
f 230 258 228
f 224 219 222
f 222 219 221
f 222 221 218
f 218 221 289
f 218 289 216
f 216 289 290
f 216 290 291
f 291 290 249
f 291 249 412
f 412 249 250
f 412 250 413
f 413 250 337
f 413 337 415
f 415 337 338
f 415 338 417
f 417 338 339
f 417 339 419
f 419 339 340
f 419 340 421
f 421 340 341
f 421 341 423
f 423 341 342
f 423 342 425
f 425 342 343
f 425 343 427
f 427 343 344
f 427 344 429
f 429 344 345
f 429 345 431
f 431 345 346
f 431 346 433
f 433 346 347
f 433 347 435
f 435 347 348
f 435 348 437
f 437 348 349
f 437 349 267
f 267 349 269
f 267 269 265
f 265 269 271
f 265 271 266
f 441 367 211
f 354 351 442
f 442 351 215
f 443 444 445
f 160 161 446
f 163 165 447
f 167 169 448
f 171 174 449
f 176 178 450
f 183 182 451
f 181 452 453
f 454 455 456
f 457 458 459
f 458 457 460
f 461 462 463
f 128 132 464
f 465 134 466
f 466 134 141
f 466 141 140
f 130 129 467
f 467 129 124
f 467 124 465
f 465 124 123
f 465 123 134
f 122 121 468
f 468 121 126
f 468 126 127
f 152 150 469
f 469 150 470
f 152 469 153
f 153 469 471
f 153 471 472
f 473 474 456
f 456 474 475
f 456 475 454
f 476 477 478
f 478 477 479
f 478 479 480
f 480 479 481
f 159 160 239
f 239 160 446
f 239 446 214
f 482 483 277
f 484 220 485
f 485 220 219
f 485 219 483
f 483 219 224
f 483 224 277
f 135 103 486
f 486 103 279
f 486 279 487
f 487 279 281
f 487 281 488
f 488 281 282
f 488 282 484
f 484 282 288
f 484 288 220
f 489 443 490
f 470 491 469
f 469 491 492
f 469 492 471
f 471 492 493
f 471 493 472
f 489 490 494
f 494 490 495
f 494 495 496
f 496 495 497
f 496 497 498
f 498 497 499
f 498 499 500
f 500 499 501
f 500 501 502
f 443 445 490
f 490 445 503
f 490 503 495
f 495 503 504
f 495 504 497
f 497 504 505
f 497 505 499
f 499 505 506
f 499 506 501
f 507 508 509
f 509 508 464
f 509 464 467
f 467 464 132
f 467 132 130
f 510 502 511
f 511 502 501
f 511 501 512
f 512 501 506
f 512 506 513
f 513 506 505
f 513 505 514
f 514 505 504
f 514 504 515
f 515 504 503
f 515 503 516
f 516 503 445
f 516 445 517
f 517 445 444
f 517 444 518
f 150 149 470
f 470 149 154
f 470 154 519
f 519 154 155
f 519 155 520
f 520 155 156
f 520 156 507
f 507 156 122
f 507 122 508
f 508 122 468
f 508 468 464
f 464 468 127
f 464 127 128
f 452 476 453
f 453 476 478
f 453 478 521
f 521 478 480
f 521 480 473
f 473 480 481
f 473 481 474
f 509 522 507
f 507 522 523
f 507 523 520
f 520 523 524
f 520 524 519
f 519 524 525
f 519 525 470
f 470 525 526
f 470 526 491
f 491 526 527
f 491 527 492
f 492 527 528
f 492 528 493
f 493 528 529
f 493 529 472
f 530 529 531
f 531 529 528
f 531 528 532
f 532 528 527
f 532 527 533
f 533 527 526
f 533 526 534
f 534 526 525
f 534 525 535
f 535 525 524
f 535 524 536
f 536 524 523
f 536 523 537
f 537 523 522
f 538 358 354
f 178 183 450
f 450 183 451
f 450 451 539
f 539 451 540
f 539 540 541
f 541 540 542
f 541 542 543
f 543 542 544
f 543 544 545
f 545 544 546
f 545 546 547
f 547 546 459
f 547 459 548
f 548 459 458
f 548 458 549
f 549 458 460
f 549 460 550
f 550 460 551
f 182 181 451
f 451 181 453
f 451 453 540
f 540 453 521
f 540 521 542
f 542 521 473
f 542 473 544
f 544 473 456
f 544 456 546
f 546 456 455
f 546 455 459
f 459 455 552
f 459 552 457
f 277 276 482
f 482 276 274
f 482 274 553
f 553 274 273
f 553 273 374
f 554 555 556
f 556 555 557
f 556 557 558
f 558 557 559
f 558 559 560
f 560 559 561
f 560 561 562
f 562 561 563
f 562 563 564
f 564 563 565
f 564 565 566
f 566 565 567
f 566 567 568
f 568 567 569
f 568 569 570
f 570 569 441
f 570 441 571
f 571 441 211
f 571 211 210
f 140 139 466
f 466 139 572
f 466 572 573
f 573 572 574
f 573 574 575
f 575 574 576
f 575 576 577
f 577 576 578
f 577 578 579
f 579 578 580
f 579 580 581
f 581 580 582
f 581 582 583
f 583 582 584
f 583 584 585
f 585 584 586
f 585 586 587
f 587 586 588
f 587 588 589
f 589 588 590
f 589 590 591
f 591 590 592
f 591 592 538
f 538 592 212
f 538 212 358
f 138 136 554
f 554 136 135
f 554 135 555
f 555 135 486
f 555 486 557
f 557 486 487
f 557 487 559
f 559 487 488
f 559 488 561
f 561 488 484
f 561 484 563
f 563 484 485
f 563 485 565
f 565 485 483
f 565 483 567
f 567 483 482
f 567 482 569
f 569 482 553
f 569 553 441
f 441 553 374
f 441 374 367
f 169 171 448
f 448 171 449
f 448 449 593
f 593 449 594
f 593 594 595
f 595 594 596
f 595 596 597
f 597 596 598
f 597 598 599
f 599 598 600
f 599 600 601
f 601 600 602
f 601 602 603
f 603 602 604
f 603 604 605
f 605 604 606
f 605 606 607
f 607 606 608
f 607 608 609
f 609 608 463
f 609 463 610
f 610 463 462
f 611 612 613
f 613 612 614
f 613 614 615
f 615 614 616
f 615 616 617
f 617 616 618
f 617 618 619
f 619 618 620
f 619 620 621
f 621 620 622
f 621 622 623
f 623 622 624
f 623 624 625
f 625 624 626
f 625 626 627
f 627 626 628
f 627 628 629
f 629 628 630
f 629 630 631
f 631 630 632
f 631 632 633
f 633 632 442
f 633 442 634
f 634 442 215
f 634 215 214
f 161 163 446
f 446 163 447
f 446 447 635
f 635 447 636
f 635 636 637
f 637 636 638
f 637 638 639
f 639 638 640
f 639 640 641
f 641 640 642
f 641 642 643
f 643 642 644
f 643 644 645
f 645 644 646
f 645 646 489
f 489 646 647
f 489 647 443
f 443 647 648
f 443 648 444
f 444 648 649
f 444 649 518
f 518 649 650
f 354 442 538
f 538 442 632
f 538 632 591
f 591 632 630
f 591 630 589
f 589 630 628
f 589 628 587
f 587 628 626
f 587 626 585
f 585 626 624
f 585 624 583
f 583 624 622
f 583 622 581
f 581 622 620
f 581 620 579
f 579 620 618
f 579 618 577
f 577 618 616
f 577 616 575
f 575 616 614
f 575 614 573
f 573 614 612
f 573 612 466
f 466 612 611
f 466 611 465
f 165 167 447
f 447 167 448
f 447 448 636
f 636 448 593
f 636 593 638
f 638 593 595
f 638 595 640
f 640 595 597
f 640 597 642
f 642 597 599
f 642 599 644
f 644 599 601
f 644 601 646
f 646 601 603
f 646 603 647
f 647 603 605
f 647 605 648
f 648 605 607
f 648 607 649
f 649 607 609
f 649 609 650
f 650 609 610
f 139 138 572
f 572 138 554
f 572 554 574
f 574 554 556
f 574 556 576
f 576 556 558
f 576 558 578
f 578 558 560
f 578 560 580
f 580 560 562
f 580 562 582
f 582 562 564
f 582 564 584
f 584 564 566
f 584 566 586
f 586 566 568
f 586 568 588
f 588 568 570
f 588 570 590
f 590 570 571
f 590 571 592
f 592 571 210
f 592 210 212
f 174 176 449
f 449 176 450
f 449 450 594
f 594 450 539
f 594 539 596
f 596 539 541
f 596 541 598
f 598 541 543
f 598 543 600
f 600 543 545
f 600 545 602
f 602 545 547
f 602 547 604
f 604 547 548
f 604 548 606
f 606 548 549
f 606 549 608
f 608 549 550
f 608 550 463
f 463 550 551
f 463 551 461
f 214 446 634
f 634 446 635
f 634 635 633
f 633 635 637
f 633 637 631
f 631 637 639
f 631 639 629
f 629 639 641
f 629 641 627
f 627 641 643
f 627 643 625
f 625 643 645
f 625 645 623
f 623 645 489
f 623 489 621
f 621 489 494
f 621 494 619
f 619 494 496
f 619 496 617
f 617 496 498
f 617 498 615
f 615 498 500
f 615 500 613
f 613 500 502
f 613 502 611
f 611 502 510
f 611 510 465
f 465 510 511
f 465 511 467
f 467 511 512
f 467 512 509
f 509 512 513
f 509 513 522
f 522 513 514
f 522 514 537
f 537 514 515
f 537 515 536
f 536 515 516
f 536 516 535
f 535 516 517
f 535 517 534
f 534 517 518
f 534 518 533
f 533 518 650
f 533 650 532
f 532 650 610
f 532 610 531
f 531 610 462
f 531 462 530
f 530 462 119
f 151 153 116
f 651 207 652
f 652 207 205
f 652 205 653
f 654 158 651
f 651 158 157
f 651 157 207
f 116 153 118
f 530 119 529
f 655 175 656
f 656 175 173
f 656 173 657
f 658 166 659
f 659 166 164
f 659 164 654
f 654 164 162
f 654 162 158
f 173 172 657
f 657 172 170
f 657 170 658
f 658 170 168
f 658 168 166
f 552 455 256
f 268 461 440
f 440 461 551
f 440 551 227
f 118 153 119
f 119 153 472
f 119 472 529
f 660 198 661
f 661 198 196
f 661 196 662
f 479 477 663
f 663 477 476
f 663 476 452
f 452 181 663
f 663 181 180
f 663 180 664
f 664 180 179
f 664 179 655
f 655 179 177
f 655 177 175
f 552 256 457
f 256 474 257
f 257 474 481
f 268 266 461
f 461 266 271
f 461 271 462
f 462 271 242
f 462 242 119
f 185 232 665
f 665 232 231
f 455 454 256
f 256 454 475
f 256 475 474
f 229 551 256
f 256 551 460
f 256 460 457
f 229 228 551
f 551 228 258
f 551 258 260
f 196 194 662
f 662 194 192
f 662 192 666
f 666 192 190
f 666 190 667
f 667 190 188
f 667 188 665
f 665 188 186
f 665 186 185
f 205 204 653
f 653 204 202
f 653 202 660
f 660 202 200
f 660 200 198
f 231 251 665
f 665 251 254
f 665 254 663
f 663 254 257
f 663 257 479
f 479 257 481
f 67 69 120
f 260 262 551
f 551 262 225
f 551 225 227
f 91 26 44
f 44 26 25
f 69 144 120
f 120 144 147
f 120 147 116
f 116 147 148
f 116 148 151
f 33 35 25
f 120 60 59
f 52 51 120
f 46 45 120
f 25 23 33
f 33 23 27
f 33 27 1
f 35 36 25
f 25 36 38
f 25 38 39
f 39 41 25
f 25 41 42
f 25 42 44
f 91 44 120
f 120 44 48
f 120 48 52
f 51 55 120
f 120 55 54
f 120 54 60
f 45 84 120
f 120 84 65
f 120 65 67
f 1 28 33
f 33 28 30
f 33 30 32
f 59 57 120
f 120 57 56
f 120 56 46
f 665 668 667
f 667 668 666
f 666 668 669
f 666 669 662
f 662 669 661
f 661 669 670
f 661 670 660
f 660 670 653
f 653 670 671
f 653 671 652
f 652 671 672
f 652 672 651
f 664 673 663
f 672 674 651
f 651 674 654
f 675 658 674
f 674 658 659
f 674 659 654
f 673 664 676
f 664 655 676
f 676 655 656
f 676 656 675
f 675 656 657
f 675 657 658
f 674 672 665
f 665 663 673
f 670 669 668
f 665 672 668
f 668 672 671
f 668 671 670
f 673 676 665
f 665 676 675
f 665 675 674
f 677 678 679
f 678 677 680
f 681 682 683
f 684 685 686
f 687 688 686
f 686 688 689
f 686 689 684
f 690 691 687
f 687 691 692
f 687 692 688
f 693 694 695
f 696 697 698
f 698 697 699
f 698 699 700
f 701 702 703
f 682 681 704
f 704 681 705
f 704 705 706
f 706 705 707
f 706 707 708
f 709 710 711
f 711 710 712
f 711 712 713
f 714 715 716
f 717 718 715
f 719 720 718
f 721 722 720
f 723 724 725
f 726 727 724
f 680 728 678
f 678 728 729
f 678 729 679
f 679 729 730
f 731 732 733
f 733 732 734
f 733 734 735
f 735 734 736
f 735 736 737
f 738 739 740
f 738 740 741
f 739 742 740
f 740 742 743
f 740 743 733
f 733 743 744
f 733 744 731
f 745 746 740
f 746 747 740
f 740 747 748
f 740 748 741
f 749 750 751
f 751 750 752
f 751 752 753
f 749 751 754
f 754 751 755
f 754 755 756
f 757 758 759
f 760 690 750
f 750 690 687
f 750 687 752
f 752 687 686
f 752 686 753
f 761 762 737
f 737 762 756
f 737 756 735
f 735 756 755
f 735 755 733
f 733 755 751
f 733 751 740
f 740 751 753
f 740 753 745
f 745 753 686
f 745 686 763
f 763 686 685
f 764 765 766
f 766 765 767
f 766 767 768
f 768 767 769
f 768 769 770
f 771 708 772
f 772 708 707
f 772 707 773
f 773 707 705
f 773 705 774
f 774 705 681
f 774 681 775
f 775 681 683
f 775 683 696
f 696 683 701
f 696 701 697
f 697 701 703
f 697 703 699
f 776 777 778
f 778 777 770
f 778 770 730
f 730 770 769
f 730 769 679
f 679 769 767
f 679 767 677
f 677 767 765
f 779 764 780
f 780 764 766
f 780 766 781
f 781 766 768
f 781 768 782
f 782 768 770
f 782 770 783
f 783 770 777
f 783 777 726
f 726 777 776
f 726 776 727
f 725 784 723
f 723 784 785
f 723 785 786
f 786 785 787
f 786 787 788
f 788 787 789
f 788 789 790
f 790 789 791
f 790 791 792
f 792 791 793
f 792 793 794
f 709 771 710
f 710 771 772
f 710 772 795
f 795 772 773
f 795 773 796
f 796 773 774
f 796 774 797
f 797 774 775
f 797 775 798
f 798 775 696
f 798 696 799
f 799 696 698
f 799 698 800
f 800 698 700
f 800 700 801
f 724 723 726
f 726 723 786
f 726 786 783
f 783 786 788
f 783 788 782
f 782 788 790
f 782 790 781
f 781 790 792
f 781 792 780
f 780 792 794
f 780 794 779
f 722 759 802
f 802 759 758
f 802 758 725
f 725 758 757
f 725 757 784
f 784 757 803
f 784 803 785
f 785 803 804
f 785 804 787
f 787 804 805
f 787 805 789
f 789 805 806
f 789 806 791
f 791 806 807
f 791 807 793
f 793 807 760
f 793 760 794
f 794 760 750
f 794 750 779
f 779 750 749
f 779 749 764
f 764 749 754
f 764 754 765
f 765 754 756
f 765 756 677
f 677 756 762
f 677 762 680
f 680 762 761
f 720 719 721
f 721 719 808
f 721 808 809
f 809 808 810
f 809 810 811
f 811 810 812
f 811 812 813
f 813 812 814
f 813 814 815
f 815 814 816
f 815 816 817
f 817 816 818
f 817 818 819
f 819 818 820
f 819 820 821
f 821 820 822
f 821 822 693
f 693 822 823
f 693 823 694
f 715 714 717
f 717 714 824
f 717 824 825
f 825 824 826
f 825 826 827
f 827 826 828
f 827 828 829
f 829 828 830
f 829 830 831
f 831 830 832
f 831 832 833
f 833 832 834
f 833 834 835
f 835 834 836
f 835 836 837
f 837 836 838
f 837 838 839
f 839 838 840
f 839 840 841
f 842 713 843
f 843 713 712
f 843 712 844
f 844 712 710
f 844 710 845
f 845 710 795
f 845 795 846
f 846 795 796
f 846 796 847
f 847 796 797
f 847 797 848
f 848 797 798
f 848 798 849
f 849 798 799
f 849 799 850
f 850 799 800
f 850 800 851
f 851 800 801
f 851 801 852
f 722 721 759
f 759 721 809
f 759 809 757
f 757 809 811
f 757 811 803
f 803 811 813
f 803 813 804
f 804 813 815
f 804 815 805
f 805 815 817
f 805 817 806
f 806 817 819
f 806 819 807
f 807 819 821
f 807 821 760
f 760 821 693
f 760 693 690
f 690 693 695
f 690 695 691
f 718 717 719
f 719 717 825
f 719 825 808
f 808 825 827
f 808 827 810
f 810 827 829
f 810 829 812
f 812 829 831
f 812 831 814
f 814 831 833
f 814 833 816
f 816 833 835
f 816 835 818
f 818 835 837
f 818 837 820
f 820 837 839
f 820 839 822
f 822 839 841
f 822 841 823
f 853 842 716
f 716 842 843
f 716 843 714
f 714 843 844
f 714 844 824
f 824 844 845
f 824 845 826
f 826 845 846
f 826 846 828
f 828 846 847
f 828 847 830
f 830 847 848
f 830 848 832
f 832 848 849
f 832 849 834
f 834 849 850
f 834 850 836
f 836 850 851
f 836 851 838
f 838 851 852
f 838 852 840
f 854 855 856
f 857 858 859
f 860 861 862
f 863 864 865
f 866 867 868
f 869 870 855
f 709 711 871
f 872 713 842
f 873 771 709
f 704 706 874
f 874 706 708
f 683 682 875
f 876 877 878
f 878 877 879
f 855 870 856
f 856 870 880
f 856 880 881
f 882 883 884
f 884 883 885
f 885 883 886
f 886 883 887
f 886 887 888
f 887 889 888
f 888 889 890
f 888 890 891
f 865 864 892
f 893 894 865
f 865 894 895
f 865 895 896
f 896 897 865
f 865 897 898
f 865 898 863
f 899 900 901
f 901 900 902
f 901 902 903
f 903 902 904
f 905 906 907
f 907 906 908
f 907 908 909
f 909 908 910
f 909 910 911
f 911 910 912
f 911 912 913
f 913 912 914
f 913 914 915
f 915 914 916
f 915 916 917
f 917 916 918
f 917 918 919
f 919 918 920
f 919 920 921
f 922 923 924
f 924 923 925
f 924 925 926
f 926 925 892
f 926 892 927
f 927 892 864
f 927 864 928
f 682 704 875
f 875 704 874
f 875 874 929
f 709 871 873
f 873 871 930
f 873 930 931
f 931 930 932
f 931 932 933
f 933 932 934
f 933 934 935
f 935 934 936
f 935 936 937
f 936 938 937
f 937 938 939
f 937 939 940
f 940 939 941
f 940 941 942
f 942 941 943
f 942 943 944
f 862 861 945
f 945 861 946
f 945 946 904
f 904 946 947
f 904 947 903
f 903 947 948
f 903 948 901
f 901 948 949
f 901 949 899
f 899 949 950
f 899 950 951
f 867 869 868
f 868 869 855
f 868 855 952
f 952 855 854
f 952 854 953
f 882 954 924
f 924 954 955
f 924 955 922
f 882 924 883
f 883 924 926
f 883 926 887
f 887 926 927
f 887 927 889
f 889 927 928
f 889 928 890
f 956 929 957
f 957 929 874
f 957 874 958
f 958 874 708
f 958 708 771
f 959 953 960
f 960 953 854
f 960 854 961
f 961 854 856
f 961 856 878
f 878 856 881
f 878 881 876
f 884 866 882
f 882 866 868
f 882 868 954
f 954 868 952
f 954 952 955
f 955 952 953
f 955 953 962
f 962 953 959
f 962 959 963
f 958 964 957
f 957 964 965
f 957 965 956
f 956 965 966
f 956 966 967
f 683 875 968
f 968 875 929
f 968 929 969
f 969 929 956
f 969 956 970
f 970 956 967
f 970 967 971
f 701 683 972
f 972 683 968
f 972 968 973
f 973 968 969
f 973 969 974
f 974 969 970
f 974 970 975
f 975 970 971
f 975 971 976
f 702 701 879
f 879 701 972
f 879 972 878
f 878 972 973
f 878 973 961
f 961 973 974
f 961 974 960
f 960 974 975
f 960 975 959
f 959 975 976
f 959 976 963
f 977 978 979
f 979 978 980
f 980 978 981
f 980 981 982
f 982 981 983
f 982 983 984
f 984 983 985
f 984 985 986
f 986 985 987
f 986 987 988
f 771 873 958
f 958 873 931
f 958 931 964
f 964 931 933
f 964 933 965
f 965 933 935
f 965 935 966
f 966 935 937
f 966 937 967
f 967 937 940
f 967 940 971
f 971 940 942
f 971 942 976
f 976 942 944
f 976 944 963
f 989 990 991
f 991 990 951
f 991 951 992
f 992 951 950
f 992 950 977
f 977 950 978
f 978 950 949
f 978 949 981
f 981 949 948
f 981 948 983
f 983 948 947
f 983 947 985
f 985 947 946
f 985 946 987
f 987 946 861
f 987 861 988
f 988 861 860
f 988 860 993
f 993 860 994
f 993 994 995
f 711 713 871
f 871 713 872
f 871 872 930
f 930 872 996
f 930 996 932
f 932 996 997
f 932 997 934
f 934 997 998
f 934 998 936
f 936 998 999
f 936 999 938
f 938 999 1000
f 938 1000 939
f 939 1000 1001
f 939 1001 941
f 941 1001 1002
f 941 1002 943
f 995 893 993
f 993 893 865
f 993 865 988
f 988 865 892
f 988 892 986
f 986 892 925
f 986 925 984
f 984 925 923
f 984 923 982
f 982 923 922
f 982 922 980
f 980 922 955
f 980 955 979
f 979 955 962
f 979 962 977
f 977 962 963
f 977 963 992
f 992 963 944
f 992 944 991
f 991 944 943
f 991 943 989
f 989 943 1002
f 853 921 842
f 842 921 920
f 842 920 872
f 872 920 918
f 872 918 996
f 996 918 916
f 996 916 997
f 997 916 914
f 997 914 998
f 998 914 912
f 998 912 999
f 999 912 910
f 999 910 1000
f 1000 910 908
f 1000 908 1001
f 1001 908 906
f 1001 906 1002
f 1002 906 905
f 1002 905 989
f 989 905 859
f 989 859 990
f 990 859 858
f 990 858 951
f 951 858 857
f 951 857 899
f 899 857 1003
f 899 1003 900
f 888 891 689
f 689 891 684
f 689 876 881
f 881 880 689
f 689 880 870
f 689 870 869
f 699 703 689
f 689 703 702
f 1004 852 688
f 688 852 801
f 688 801 689
f 689 801 700
f 689 700 699
f 702 879 689
f 689 879 877
f 689 877 876
f 869 867 689
f 689 867 866
f 689 866 884
f 884 885 689
f 689 885 886
f 689 886 888
f 1005 691 694
f 694 691 695
f 688 692 1004
f 1004 692 691
f 1004 691 841
f 841 691 1005
f 763 685 743
f 890 862 891
f 891 862 945
f 891 945 904
f 685 761 737
f 891 853 716
f 891 776 778
f 904 902 891
f 891 902 900
f 891 900 1003
f 905 907 891
f 891 907 909
f 891 909 911
f 917 919 891
f 891 919 921
f 891 921 853
f 716 715 891
f 891 715 718
f 891 718 720
f 742 746 743
f 743 746 745
f 743 745 763
f 738 741 748
f 778 730 891
f 891 730 729
f 891 729 684
f 684 729 728
f 684 728 685
f 685 728 680
f 685 680 761
f 893 995 928
f 928 995 994
f 928 994 890
f 890 994 860
f 890 860 862
f 737 736 685
f 685 736 734
f 685 734 732
f 742 739 746
f 746 739 738
f 746 738 747
f 747 738 748
f 1003 857 891
f 891 857 859
f 891 859 905
f 911 913 891
f 891 913 915
f 891 915 917
f 720 722 891
f 891 722 802
f 891 802 725
f 896 895 928
f 928 895 894
f 928 894 893
f 732 731 685
f 685 731 744
f 685 744 743
f 725 724 891
f 891 724 727
f 891 727 776
f 864 863 898
f 864 898 928
f 928 898 897
f 928 897 896
