# Converted from right_middle_touch_link.STL for Drake collision support
v -0.000241626098 5.04249698e-10 -0.0048727449
v -0.000477958471 -5.55329893e-10 -0.00649663573
v -0.000503474788 0.000601172622 -0.0064943633
v -0.000269675074 0.000626160007 -0.00487204967
v -0.000579540269 0.00119566207 -0.00648757303
v -0.000356200238 0.00126103417 -0.00486959703
v -0.000705349026 0.00177623343 -0.00647638133
v -0.000499862421 0.00187853177 -0.00486512762
v -0.000571376528 0.00211432623 -0.00486284029
v -0.000879303203 0.00233572628 -0.00646093814
v -0.000696829229 0.00246680551 -0.00485884119
v -0.000822204049 0.00276604854 -0.00485490356
v -0.00109879428 0.0028670684 -0.00644150609
v -0.000923913787 0.00298081618 -0.00485179294
v -0.00119040487 0.0030508216 -0.00644288864
v -0.00132822804 0.00339946407 -0.00608656881
v -0.0012144699 0.00349718938 -0.00484356377
v -0.00147887517 0.00371914939 -0.00569708599
v -0.00150557212 0.00391399162 -0.00483493367
v -0.00164170295 0.00401233742 -0.0052761198
v -0.00181612046 0.00428152131 -0.00482518226
v -0.00113130885 0.00287933648 -0.0065956749
v -0.00102109904 0.00251107872 -0.00688061165
v -0.000925965142 0.00212109392 -0.00712656602
v -0.000846389798 0.00170987414 -0.0073323003
v -0.000833421713 0.00163144176 -0.00736582326
v -0.000775548921 0.00121355348 -0.00751545327
v -0.000734787609 0.000786397257 -0.00762082962
v -0.000710694352 0.000329357805 -0.00768312206
v -0.0007055772 -1.78973614e-10 -0.00769635336
v -0.000710692722 -0.000329357485 -0.007683123
v -0.000503475952 -0.000601172913 -0.00649436144
v -0.000734788307 -0.000786396849 -0.00762083055
v -0.000579534972 -0.00119566172 -0.00648758188
v -0.00070534402 -0.00177623343 -0.00647638924
v -0.000833419384 -0.00163144071 -0.00736582559
v -0.000775545428 -0.00121355418 -0.00751545792
v -0.00119040802 -0.0030508209 -0.00644288538
v -0.00113131397 -0.00287933601 -0.00659566931
v -0.00109879998 -0.00286706863 -0.00644149631
v -0.00102110161 -0.00251107919 -0.00688060652
v -0.000879301573 -0.00233572582 -0.00646093953
v -0.000925966422 -0.00212109392 -0.00712656602
v -0.000846389274 -0.00170987484 -0.00733230077
v -0.000923943589 -0.0029808816 -0.00485179946
v -0.00113736291 -0.00337169762 -0.00484574772
v -0.00132822967 -0.0033994643 -0.00608656649
v -0.0011627127 -0.00341376709 -0.00484503899
v -0.00121447444 -0.00349719543 -0.00484356191
v -0.00147888146 -0.00371914892 -0.00569707761
v -0.00150559517 -0.00391402328 -0.00483493041
v -0.00164170272 -0.00401233695 -0.00527611887
v -0.00181612221 -0.00428152038 -0.00482518179
v -0.00082220498 -0.00276604714 -0.00485490588
v -0.000696854957 -0.00246686395 -0.00485883886
v -0.000571382348 -0.00211432623 -0.00486283517
v -0.000499874935 -0.00187857659 -0.00486512855
v -0.00035621252 -0.00126106024 -0.00486959051
v -0.000269679673 -0.000626163965 -0.00487204781
v -5.45996954e-05 0.000460197101 -0.00266200467
v -3.82292492e-05 9.17499479e-11 -0.00263976632
v -0.000129894572 -4.5052885e-11 -0.00382930599
v -0.00140087621 0.00383021124 -0.00449460279
v -0.00131688325 0.00373258069 -0.00437824242
v -0.0010542142 0.00338926516 -0.0040176441
v -0.000819507055 0.00302078645 -0.003698271
v -0.000710469147 0.00278690504 -0.00373091013
v -0.000459017378 0.00212854566 -0.00377280358
v -0.000276844221 0.00143696263 -0.00380382757
v -0.000166772952 0.000723680889 -0.00382285076
v -0.000103350452 0.000915142649 -0.00272820611
v -0.000614380231 0.00263068569 -0.0034202917
v -0.000439779629 0.00222221459 -0.00318397349
v -0.000296222308 0.0017984187 -0.00298965187
v -0.000184006552 0.00136198208 -0.00283761509
v -0.00230711955 0.00487108575 -0.00355577911
v -0.002014142 0.0045996909 -0.00380095351
v -0.00205722498 0.00459696585 -0.00420184014
v -0.00186617405 0.00444316538 -0.00394219346
v -0.00191946165 0.00442378642 -0.00455801003
v -0.00168434822 0.00422856677 -0.0041357209
v -0.00157562364 0.00408623554 -0.00426399661
v -0.00146933401 0.00393498456 -0.00440026075
v -5.47003001e-05 -0.000461470278 -0.00266198092
v -0.000104040693 -0.000919820566 -0.00272895349
v -0.000166769081 -0.000723681937 -0.00382285751
v -0.00140087551 -0.00383021217 -0.00449460279
v -0.00110857352 -0.00346548087 -0.0040925229
v -0.000854394457 -0.0030800479 -0.00374602084
v -0.000710466004 -0.00278690504 -0.00373091409
v -0.000298866973 -0.00180711225 -0.00299342279
v -0.000408061198 -0.00213691453 -0.0031407983
v -0.000459017378 -0.00212854519 -0.00377280312
v -0.000448869541 -0.00224559219 -0.00319599058
v -0.000633859192 -0.0026710541 -0.00344660645
v -0.000276848674 -0.0014369624 -0.00380382291
v -0.000183886819 -0.00136134948 -0.00283769751
v -0.0014694127 -0.00393506465 -0.00440033572
v -0.00191946886 -0.00442378689 -0.00455799792
v -0.00168030732 -0.00422348687 -0.00414018473
v -0.00186631549 -0.0044433428 -0.00394187355
v -0.00205722335 -0.00459696446 -0.00420184154
v -0.00199074298 -0.00457592262 -0.00382233108
v -0.00230711931 -0.00487108668 -0.00355577795
v -0.00726263924 0.0035870953 0.00949340127
v -0.00725045661 0.00374647533 0.00934754871
v -0.00736076152 0.00357018108 0.00950975716
v -0.00748553127 0.00316538988 0.00983232632
v -0.00752198277 0.00303089502 0.00992656592
v -0.00729709025 0.00307727116 0.0098968558
v -0.00788215175 3.53336777e-10 0.0108577376
v -0.00738679338 3.14691773e-10 0.0108933318
v -0.0073853177 0.000402700069 0.0108775562
v -0.00723773381 0.00390490494 0.00919200666
v -0.00738149788 0.000762332231 0.0108366059
v -0.0078461403 0.000999783515 0.0107646352
v -0.00787306763 0.000504057796 0.0108342534
v -0.00738090742 0.00080377853 0.0108302422
v -0.00737361889 0.00120169658 0.0107514784
v -0.00780167477 0.00148601143 0.0106496699
v -0.00736583024 0.00151332852 0.0106668649
v -0.00777957914 0.00167273113 0.0105925538
v -0.00736348704 0.00159459084 0.0106413709
v -0.00735063665 0.00197988609 0.0105004953
v -0.00771002285 0.0021473458 0.0104127172
v -0.00734020723 0.00224158471 0.0103850961
v -0.007335159 0.00235696463 0.0103288852
v -0.00731728924 0.0027227283 0.0101278014
v -0.00762407435 0.00260010897 0.0101905074
v -0.00730547542 0.00293628452 0.00999320298
v -0.00727474783 0.00341880834 0.00963670947
v -0.0077100182 -0.00214734441 0.0104127126
v -0.00735063432 -0.00197988655 0.0105004907
v -0.00736348424 -0.00159459061 0.010641369
v -0.00725045288 -0.00374647509 0.00934754405
v -0.0073607699 -0.00357018015 0.00950976927
v -0.00723773148 -0.00390490517 0.00919200387
v -0.00726264296 -0.00358709507 0.00949340593
v -0.00727475574 -0.0034188088 0.00963671971
v -0.00748553313 -0.00316538825 0.00983232819
v -0.007297087 -0.00307727139 0.00989685394
v -0.00752198789 -0.00303089386 0.00992657524
v -0.00730546983 -0.00293628452 0.00999319274
v -0.00762407528 -0.00260010757 0.0101905083
v -0.00731728831 -0.00272272783 0.0101277987
v -0.00733516319 -0.00235696509 0.0103288926
v -0.00734020676 -0.00224158401 0.0103850961
v -0.00737361657 -0.00120169693 0.0107514756
v -0.0078461431 -0.000999783166 0.010764638
v -0.00736582559 -0.00151332875 0.0106668575
v -0.00780167058 -0.00148601132 0.0106496643
v -0.0077795838 -0.00167272927 0.0105925603
v -0.00738090789 -0.00080377917 0.0108302413
v -0.00738149835 -0.000762332464 0.0108366059
v -0.0078730667 -0.000504057389 0.0108342515
v -0.00738531537 -0.000402700185 0.0108775524
v -0.0016771974 4.05761293e-11 0.00669250544
v -0.0017775913 -4.8925447e-10 0.00685941847
v -0.00178554212 -0.000605929235 0.00681698136
v -0.00233483664 2.68785105e-10 0.00766351959
v -0.00542008923 -0.000734818808 0.0100944825
v -0.00542044127 -2.01587164e-10 0.0101487022
v -0.00636966061 5.75541059e-10 0.0105597069
v -0.00687349029 -0.00459972303 0.00824997667
v -0.00680778502 -0.00470099878 0.00808009785
v -0.00630413787 -0.00466164853 0.00791677274
v -0.00666789105 -0.00489740353 0.00771842711
v -0.00657475973 -0.00501506962 0.00747764949
v -0.00628202222 -0.00512812147 0.00712691247
v -0.00632436806 -0.00528657623 0.00683028949
v -0.00578006962 -0.0056962329 0.00542307924
v -0.00549328839 -0.00575010292 0.00499126175
v -0.00546417572 -0.00542677846 0.0059371558
v -0.00548696565 -0.0058350563 0.00466530072
v -0.00257992884 -0.00512346858 -0.00285046874
v -0.00264754659 -0.00519517483 -0.00242382661
v -0.00289051095 -0.00536413863 -0.00204749894
v -0.00096097705 -0.00336394156 -0.00317565212
v -0.00126325886 -0.00375731429 -0.00370702334
v -0.00143140776 -0.0040355823 -0.00325796218
v -0.00210199901 -0.00481644599 -0.00201630243
v -0.00248895376 -0.00504398858 -0.00308566354
v -0.00344914617 -0.00569319958 -0.000603213499
v -0.00321298395 -0.00556950783 -0.00121377676
v -0.00304653193 -0.00548872864 -0.000977476244
v -0.00544374995 -0.00503292214 0.00679545943
v -0.00605931319 -0.00551339937 0.00614503119
v -0.00710897706 -0.00418028049 0.00885879248
v -0.0063272831 -0.00412962819 0.00860978104
v -0.00706345262 -0.00426905882 0.00874110032
v -0.00634988071 -0.0035381068 0.00920277648
v -0.00637053512 -0.00289508887 0.00969281327
v -0.00638798438 -0.00220942358 0.0100771394
v -0.00640123105 -0.00149123464 0.0103535065
v -0.00640946999 -0.000751091284 0.0105200363
v -0.000595040794 -0.000503523275 0.00403535552
v -0.000653333089 2.57577432e-10 0.00430337666
v -0.000915120356 -0.000538722554 0.0050209607
v -0.000905622495 -4.42808096e-10 0.00505683012
v -0.00131090474 -0.00057301973 0.00594980503
v -0.000168054365 -0.000431974855 0.0019149452
v -0.000158182665 2.59156197e-10 0.00193960709
v -0.000347293302 -0.000467859587 0.00299817231
v -0.00031426744 3.83301134e-11 0.00290922145
v -0.000585154747 -3.26511977e-11 0.00406764215
v 2.94125698e-07 -0.000323184853 -0.00155402324
v 7.95694814e-06 4.17443094e-11 -0.00154149777
v 1.32249158e-06 -0.00035980111 -0.000366931636
v 1.18272419e-05 1.67590664e-10 -0.000442880235
v -5.32983031e-05 -0.000395995972 0.000791322556
v -4.38670322e-05 -2.86489082e-10 0.000812006416
v -8.85496556e-05 2.14288087e-10 0.00133406289
v -0.0025699907 -0.00517172087 0.000768906844
v -0.00279730302 -0.00534925982 -7.76856032e-05
v -0.00245133648 -0.00512624066 -0.000478207046
v -0.0027003251 -0.00527952798 -0.00129846367
v -0.00238545006 -0.00505483057 -0.00164512289
v -0.00236322707 -0.0049524894 0.00156046532
v -0.00222264882 -0.00493948953 0.000293688849
v -0.002142807 -0.00488956831 -0.000908369897
v -0.00217615534 -0.00468955375 0.00229492877
v -0.00201307586 -0.00471609272 0.00101552985
v -0.00191834883 -0.00469526649 -0.000214937114
v -0.0018707813 -0.00464153755 -0.00136662088
v -0.00184927031 -0.00456613023 -0.00241022231
v -0.00200806069 -0.00438167574 0.00297007826
v -0.00182201038 -0.00445418293 0.00168539921
v -0.00171113003 -0.00446915952 0.000433656096
v -0.0016553452 -0.00444168411 -0.000754958775
v -0.00163350906 -0.00438406039 -0.00185079908
v -0.00162623276 -0.00430547865 -0.00282487483
v -0.00149394292 -0.0038113927 0.00286091981
v -0.00134722446 -0.00391522469 0.00158919301
v -0.00119054271 -0.00358631811 0.00209232629
v -0.00109942665 -0.00367265171 0.000837141764
v -0.000944801257 -0.00335687608 0.00128138193
v -0.000901585561 -0.00342665566 4.87723555e-05
v -0.000752486347 -0.00312478212 0.000432098401
v -0.000749454659 -0.00317843538 -0.000772125379
v -0.000609172042 -0.00289110001 -0.000451396336
v -0.000638791767 -0.00292777782 -0.00162153121
v -0.000510441489 -0.00265549636 -0.00136474858
v -0.00126961677 -0.00395853585 0.000348514062
v -0.00106474909 -0.00370310829 -0.000372692157
v -0.000902252155 -0.00344457547 -0.00112453115
v -0.000778175076 -0.00318288943 -0.00190332904
v -0.00124135392 -0.00395415723 -0.000830726465
v -0.00106678507 -0.00368949608 -0.00150724279
v -0.000927733898 -0.00342070288 -0.00220894907
v -0.00068866479 -0.00291750371 -0.00270531164
v -0.000565444876 -0.00267395913 -0.00249535521
v -0.000451940025 -0.00241712783 -0.00230355118
v -0.00124247582 -0.00391388638 -0.00191899564
v -0.00108678662 -0.00364162028 -0.00253727636
v -0.00185845175 -0.00402933219 0.00358350668
v -0.00164902199 -0.00415252801 0.00230125873
v -0.00152079097 -0.00420953985 0.00103563734
v -0.00145497778 -0.0042145201 -0.000182728967
v -0.00143100007 -0.00418071868 -0.00132389227
v -0.00142893521 -0.00411871588 -0.00235856394
v -0.00413641566 4.72832218e-10 0.00938617717
v -0.00451766048 -1.32260924e-10 0.00964235421
v -0.00451948307 -0.000714947062 0.00958989561
v -0.00518512912 -3.78301834e-11 0.0100288372
v -0.00542243663 -0.00404701103 0.00823664386
v -0.00543034635 -0.00457141409 0.00756302476
v -0.00463053538 -0.00445886143 0.00714488421
v -0.00467463583 -0.00491346186 0.0064039696
v -0.0039748014 -0.00477215275 0.0059530288
v -0.00472934358 -0.00530373119 0.00557567598
v -0.00405838713 -0.00515743019 0.00515940273
v -0.0047961697 -0.00562688569 0.0046631298
v -0.00415677996 -0.00547949411 0.00428528013
v -0.00487673841 -0.00588138122 0.00366938743
v -0.00427142624 -0.005736914 0.00333363866
v -0.00493808836 -0.00597188296 0.00324625499
v -0.00440392969 -0.00593093457 0.00230717869
v -0.00459622033 -0.00598670589 0.00236239075
v -0.00424591731 -0.00595140224 0.00145672867
v -0.00527052302 -0.00590685336 0.00410571881
v -0.00238895928 1.887967e-10 0.00773234339
v -0.00297613512 -5.99327699e-10 0.00839741901
v -0.00298153283 -0.000665724627 0.00834940467
v -0.00320718461 -1.88526139e-11 0.00862428639
v -0.0010969796 -4.42144293e-10 0.00553706381
v -0.00130205345 -1.54703306e-10 0.00598906446
v -6.02471846e-05 -0.000960701844 -0.00165311794
v -2.25302429e-05 -0.000644128886 -0.00159134099
v -6.72244569e-05 -0.00106768194 -0.000498384994
v -2.45231186e-05 -0.000716640556 -0.000416421099
v -0.000127412801 -0.00117342791 0.000627908506
v -8.12339858e-05 -0.000788312813 0.000729800609
v -0.000245339441 -0.00127853733 0.00172015885
v -0.000197168338 -0.000859555963 0.00184161647
v -0.000425456528 -0.00138334697 0.00277281064
v -0.000376717217 -0.00093060662 0.00291333627
v -0.000671947899 -0.00148749072 0.00378042506
v -0.000623963831 -0.0010012131 0.00393938599
v -0.000988812302 -0.00159026426 0.00473769475
v -0.000942809274 -0.00107089907 0.00491433358
v -0.00137953518 -0.00169040158 0.00563965365
v -0.00133666163 -0.0011388018 0.0058330656
v -0.00180869095 -0.0012039633 0.00669075549
v -0.00234164484 -0.000636978948 0.0076181693
v -0.000178399292 -0.00157320604 -0.00184756005
v -0.000112391048 -0.0012709907 -0.00173876155
v -0.000201008836 -0.00174237345 -0.000756670663
v -0.000126264713 -0.00141038292 -0.000612089934
v -0.000272390258 -0.00190963282 0.00030656383
v -0.000191336687 -0.00154818327 0.000486487668
v -0.000397129421 -0.00207584538 0.00133696268
v -0.000312171585 -0.00168514147 0.00155155384
v -0.000579767977 -0.00224147364 0.0023293409
v -0.000493261206 -0.00182167732 0.00257770438
v -0.000824704883 -0.00240589725 0.00327866874
v -0.000738913368 -0.00195730035 0.003559693
v -0.00113615696 -0.00256797858 0.00418003509
v -0.00105324364 -0.0020910895 0.00449239556
v -0.00151773798 -0.0027257225 0.00502887601
v -0.00143980689 -0.00222139945 0.00537101692
v -0.00190182973 -0.00234639505 0.0061910064
v -0.00184731255 -0.00178649183 0.00648158789
v -0.00239470415 -0.00187715038 0.00725935074
v -0.00236149388 -0.00126544642 0.00748315221
v -0.00299735926 -0.00132237014 0.00820635352
v -0.00370697444 -0.000691818772 0.00900755543
v -0.00370323774 -5.96537486e-10 0.00905794557
v -0.00541753881 -0.00283440272 0.00928976294
v -0.00541860331 -0.0034654506 0.00881320238
v -0.00456884736 -0.00337559939 0.00835207198
v -0.00459569367 -0.00394443376 0.00779527891
v -0.00384685933 -0.00382393412 0.00728653651
v -0.00390467444 -0.00432624528 0.00666309102
v -0.0032523938 -0.00417542178 0.00611890666
v -0.00334404968 -0.00461096317 0.00544369593
v -0.00278177252 -0.00443189871 0.00487761665
v -0.00345132104 -0.00498990668 0.00468920171
v -0.00290775532 -0.00480320863 0.00416639354
v -0.00357533479 -0.00530993892 0.00385834323
v -0.00305172731 -0.0051202313 0.00338336499
v -0.00371735031 -0.00556982774 0.00295402203
v -0.00321469619 -0.00538197532 0.00253125164
v -0.00387880439 -0.00577077642 0.00197885768
v -0.00339790597 -0.00558964675 0.00161259179
v -0.00417125039 -0.00593758328 0.00126368855
v -0.00360266888 -0.00574554922 0.000629729126
v -0.00380964112 -0.00584022328 0.000328800699
v -0.000349013251 -0.00214747014 -0.00213094754
v -0.000257543637 -0.00186582201 -0.00197860319
v -0.000394041359 -0.00236645574 -0.0011341942
v -0.000290577736 -0.00206165528 -0.000931085669
v -0.000482273841 -0.00258298405 -0.00016374352
v -0.000369683228 -0.00225529866 8.93750985e-05
v -0.000618151331 -0.00279795914 0.000775656896
v -0.000499421614 -0.00244766916 0.0010778337
v -0.000806228316 -0.00301180384 0.00167940289
v -0.000684324419 -0.00263922894 0.00202933303
v -0.00105097133 -0.00322360103 0.00254299957
v -0.000928882626 -0.00282921433 0.00293913274
v -0.00135668786 -0.00343180774 0.00336211524
v -0.00123736833 -0.00301628117 0.00380256795
v -0.00172696752 -0.00363385351 0.00413276395
v -0.0016134372 -0.00319812121 0.00461537205
v -0.002060303 -0.00337218423 0.00537346117
v -0.00197270699 -0.00287691294 0.00582087552
v -0.00250351406 -0.00301937689 0.006552279
v -0.00244184723 -0.00246427627 0.00694842078
v -0.00306201121 -0.00257333671 0.00763960555
v -0.00302397297 -0.00196107011 0.0079691885
v -0.00373675907 -0.00203720829 0.00860809721
v -0.00371802063 -0.00137403852 0.00885728933
v -0.00452495879 -0.00141981966 0.00943328813
v -0.00541914394 -0.00145911681 0.00993243046
v -0.00541803241 -0.00216237223 0.00966357253
v -0.0045344783 -0.0021046109 0.00917350408
v -0.00454881368 -0.00275963312 0.00881238375
v -0.00376390666 -0.0026722101 0.00826175883
v -0.00380028272 -0.00327031268 0.00782036409
v -0.003112223 -0.00315106218 0.0072196601
v -0.00317540369 -0.00368720503 0.00671185553
v -0.00258031697 -0.0035359927 0.00607335009
v -0.00267285621 -0.00400829455 0.00551420217
v -0.00216496526 -0.00382692041 0.0048511927
v -0.00228707399 -0.00423712423 0.00425669085
v -0.00242707785 -0.00459954841 0.00359261804
v -0.00258562807 -0.00491253613 0.00286161737
v -0.00276348158 -0.00517535768 0.00206626602
v -0.00296163326 -0.00538923591 0.00120894937
v -0.00318118045 -0.00555632543 0.000291879318
v -0.00234164856 0.000636978424 0.00761817396
v -0.00541803334 0.00216237246 0.0096635744
v -0.00541914999 0.00145911693 0.00993243698
v -0.00452495646 0.00141981943 0.00943328533
v -0.00011239278 0.00127099047 -0.00173875841
v -0.000126268162 0.00141038268 -0.000612085918
v -6.72277529e-05 0.00106768147 -0.000498381094
v -8.12337094e-05 0.000788311532 0.000729801715
v -0.000197160422 0.000859555963 0.00184160774
v -0.000168059676 0.000431973982 0.00191495253
v -0.00634987978 0.00353810634 0.00920277741
v -0.00210200576 0.00481644599 -0.00201629358
v -0.00184927462 0.00456613116 -0.0024102137
v -0.00162622763 0.00430547912 -0.00282488251
v -0.00126326072 0.00375731452 -0.00370702101
v -0.00143141416 0.0040355823 -0.00325795379
v -0.000960984733 0.00336394203 -0.00317564327
v -0.000565443363 0.00267395889 -0.00249535847
v -0.00640946999 0.00075109204 0.0105200382
v -0.00640122872 0.0014912351 0.0103535047
v -0.00638798019 0.00220942451 0.0100771347
v -0.00637053419 0.00289508863 0.00969281327
v -0.00680778502 0.00470099878 0.00808009878
v -0.00687348749 0.00459972396 0.00824997108
v -0.00632727845 0.00412962819 0.00860977173
v -0.00706345774 0.00426905928 0.0087411087
v -0.00710897427 0.00418028142 0.0088587869
v -0.00657476019 0.00501506962 0.00747765088
v -0.00666788965 0.00489740446 0.00771842478
v -0.00630413787 0.00466164807 0.00791677181
v -0.00632436248 0.0052865753 0.00683027925
v -0.00544374669 0.00503292214 0.00679545477
v -0.00605931599 0.00551339891 0.00614503445
v -0.00546417292 0.00542677892 0.00593714975
v -0.00578006869 0.0056962329 0.00542307878
v -0.00549328933 0.00575010339 0.00499126269
v -0.00487673562 0.00588138076 0.00366938394
v -0.00527052395 0.00590685382 0.0041057202
v -0.00479617575 0.00562688662 0.00466313818
v -0.00548696704 0.00583505537 0.00466530118
v -0.00440393155 0.00593093457 0.00230718218
v -0.00459621521 0.00598670542 0.00236238306
v -0.00427142717 0.00573691446 0.00333363819
v -0.00493809581 0.00597188389 0.00324626337
v -0.00339790247 0.00558964675 0.00161258783
v -0.00360266282 0.00574554969 0.000629719463
v -0.00417125179 0.00593758188 0.00126368902
v -0.00238544471 0.00505483104 -0.00164513057
v -0.00289050606 0.00536413817 -0.00204750523
v -0.00270031835 0.00527952891 -0.00129847182
v -0.00321298465 0.00556950737 -0.00121377432
v -0.00304653193 0.0054887291 -0.000977475196
v -0.00344914687 0.00569320004 -0.00060321315
v -0.00257992628 0.00512346765 -0.0028504692
v -0.00264755031 0.0051951739 -0.00242382055
v -0.00248895842 0.00504398765 -0.00308565632
v -0.00131090789 0.000573019497 0.00594980968
v -0.000915118202 0.000538722205 0.00502095744
v -0.000347297668 0.000467859238 0.00299817976
v -0.000595043763 0.000503523159 0.00403536018
v 2.96375617e-07 0.000323184999 -0.00155402557
v 1.31713284e-06 0.000359800615 -0.000366924884
v -2.25290787e-05 0.000644128886 -0.00159134308
v -0.000127406427 0.00117342768 0.000627898786
v -5.3299922e-05 0.000395995623 0.000791324303
v -2.45212414e-05 0.00071664009 -0.000416426279
v -6.02473847e-05 0.000960701553 -0.00165311818
v -0.0021761572 0.00468955375 0.00229492947
v -0.00200805604 0.00438167527 0.00297007244
v -0.00164901628 0.00415252848 0.00230124919
v -0.000451935804 0.0024171276 -0.002303557
v -0.000638785481 0.00292777782 -0.00162154099
v -0.000510441954 0.00265549636 -0.00136474799
v -0.00074945495 0.00317843491 -0.0007721234
v -0.000609173614 0.00289110048 -0.00045139555
v -0.000901588413 0.0034266552 4.8774993e-05
v -0.000752487744 0.00312478188 0.000432099099
v -0.00109943305 0.00367265171 0.000837150845
v -0.000944808649 0.00335687608 0.00128139055
v -0.00134722714 0.00391522422 0.00158919662
v -0.00119054806 0.00358631811 0.00209233235
v -0.00149393803 0.00381139293 0.00286091305
v -0.00185845105 0.00402933266 0.00358350691
v -0.00182200293 0.00445418293 0.0016853913
v -0.001520789 0.00420953939 0.00103563641
v -0.00126961793 0.00395853538 0.000348516071
v -0.00106475141 0.00370310876 -0.000372688897
v -0.000902253843 0.00344457547 -0.00112453022
v -0.000778169604 0.00318288873 -0.00190333533
v -0.000688659435 0.00291750417 -0.00270531862
v -0.000927735411 0.00342070265 -0.0022089486
v -0.00106678449 0.00368949608 -0.00150724303
v -0.00124135439 0.00395415723 -0.00083072274
v -0.00145497732 0.00421451963 -0.000182729375
v -0.00171112723 0.00446915999 0.000433652982
v -0.00201307796 0.00471609319 0.00101553055
v -0.00236322917 0.00495249033 0.00156046986
v -0.00279730745 0.00534925936 -7.76789457e-05
v -0.00245134044 0.00512624159 -0.00047820239
v -0.00214280467 0.00488956785 -0.000908372924
v -0.0018707877 0.00464153802 -0.00136661425
v -0.00163350918 0.00438406039 -0.00185079954
v -0.00142892741 0.00411871588 -0.00235857395
v -0.00108677929 0.00364162028 -0.00253728568
v -0.00124247861 0.00391388685 -0.00191899238
v -0.00143099902 0.00418071868 -0.0013238932
v -0.00165534404 0.00444168271 -0.000754961569
v -0.0019183493 0.00469526649 -0.000214936881
v -0.00222265162 0.00493948907 0.00029369109
v -0.0025699879 0.0051717204 0.000768901897
v -0.000349014648 0.00214746967 -0.00213094684
v -0.000394043134 0.00236645597 -0.0011341935
v -0.000482266158 0.00258298358 -0.000163751916
v -0.000618153834 0.00279795914 0.00077565969
v -0.000806231052 0.00301180431 0.00167940697
v -0.00105096877 0.0032236008 0.00254299561
v -0.00135669077 0.0034318075 0.00336211757
v -0.00172696402 0.00363385398 0.00413275789
v -0.00228707679 0.00423712423 0.00425669551
v -0.00242708344 0.00459954794 0.00359262642
v -0.002585629 0.00491253566 0.00286161783
v -0.00276347809 0.00517535722 0.0020662623
v -0.00296163303 0.00538923638 0.0012089482
v -0.00318118068 0.00555632589 0.000291881268
v -0.00380964275 0.00584022328 0.000328801805
v -0.0054200883 0.000734818517 0.0100944797
v -0.00451948121 0.000714946655 0.00958989281
v -0.00370697095 0.000691818772 0.00900755171
v -0.0029815319 0.000665724394 0.00834940467
v -0.0054175402 0.00283440342 0.0092897648
v -0.00453447644 0.0021046109 0.00917349849
v -0.00371802039 0.00137403898 0.00885728933
v -0.00541860703 0.00346545107 0.0088132089
v -0.00454880949 0.00275963265 0.00881237723
v -0.00373676512 0.00203720806 0.00860810373
v -0.00299736205 0.00132236932 0.00820635818
v -0.00542244036 0.00404701103 0.00823665224
v -0.00456884503 0.00337559916 0.00835207012
v -0.0037639041 0.00267220917 0.00826175325
v -0.00302397157 0.00196107035 0.00796918571
v -0.00236149505 0.00126544537 0.007483155
v -0.00178554025 0.0006059304 0.00681697857
v -0.001808692 0.0012039633 0.00669075735
v -0.00239470694 0.0018771505 0.0072593526
v -0.00306201726 0.00257333694 0.0076396144
v -0.00380027737 0.00327031198 0.00782035571
v -0.00459569646 0.00394443376 0.00779528217
v -0.00543033984 0.00457141409 0.00756301731
v -0.00628202362 0.00512812287 0.0071269162
v -0.00037671061 0.000930606795 0.00291332928
v -0.000623964705 0.00100121379 0.00393938879
v -0.000942811079 0.00107089861 0.00491433591
v -0.00133665896 0.00113880169 0.00583306514
v -0.00184730743 0.0017864916 0.00648157997
v -0.00244184327 0.00246427627 0.00694841379
v -0.00311222044 0.00315106194 0.00721965684
v -0.00384686072 0.00382393412 0.00728653744
v -0.00463053351 0.00445886143 0.00714488141
v -0.000191337385 0.00154818338 0.000486489502
v -0.00024533848 0.00127853651 0.00172015524
v -0.000312165823 0.00168514205 0.00155154872
v -0.000425455015 0.0013833472 0.00277280691
v -0.000493257947 0.00182167767 0.00257770019
v -0.00067194982 0.00148749084 0.00378042785
v -0.000738912902 0.00195730058 0.00355969346
v -0.000988807995 0.00159026403 0.00473768963
v -0.00105324294 0.00209108996 0.0044923923
v -0.00137953588 0.00169040158 0.00563965412
v -0.00143981015 0.00222139852 0.00537102018
v -0.00190182973 0.00234639598 0.00619100686
v -0.00197270536 0.00287691271 0.00582087273
v -0.00250351452 0.00301937689 0.00655227853
v -0.00258031674 0.003535992 0.00607334916
v -0.00317540299 0.00368720549 0.00671185553
v -0.00325238751 0.00417542178 0.00611889595
v -0.0039046763 0.00432624435 0.00666309288
v -0.0039748 0.00477215229 0.00595302554
v -0.00467463536 0.00491346093 0.0064039682
v -0.00405838387 0.00515742972 0.00515940087
v -0.00472934404 0.00530373072 0.00557567691
v -0.00415678648 0.00547949364 0.00428528804
v -0.000178400951 0.00157320697 -0.00184755761
v -0.000257542968 0.00186582224 -0.00197860529
v -0.000201002942 0.00174237287 -0.000756679976
v -0.00029057404 0.00206165435 -0.00093109021
v -0.000272393459 0.00190963317 0.000306567847
v -0.000369690883 0.00225529936 8.93858305e-05
v -0.000397129363 0.00207584584 0.00133696152
v -0.000499416841 0.00244766916 0.00107782765
v -0.000579771877 0.00224147388 0.00232934672
v -0.000684323662 0.00263922894 0.0020293307
v -0.000824702205 0.00240589655 0.00327866501
v -0.00092888216 0.00282921456 0.00293913228
v -0.00113615277 0.00256797858 0.00418003136
v -0.00123736681 0.00301628117 0.00380256516
v -0.00151773682 0.00272572297 0.00502887461
v -0.0016134294 0.00319812098 0.00461536366
v -0.00206030323 0.00337218423 0.00537345978
v -0.00216496387 0.00382692111 0.00485118991
v -0.00267285318 0.00400829501 0.00551420031
v -0.00278176903 0.00443189777 0.0048776106
v -0.00334405247 0.00461096317 0.00544370292
v -0.00290775881 0.0048032091 0.00416639866
v -0.00345131592 0.00498990575 0.0046891924
v -0.00305172685 0.00512023084 0.00338336383
v -0.00357534015 0.00530993799 0.00385834998
v -0.00321469572 0.00538197625 0.00253125024
v -0.00371734984 0.00556982867 0.00295401947
v -0.00387879764 0.00577077642 0.00197885116
v -0.00424591172 0.00595140271 0.00145672297
v -0.00717198802 -0.00166501326 0.00902169943
v -0.00718010822 -0.00166119495 0.00904269982
v -0.00716378074 -0.00166124443 0.0090004839
v -0.00719893165 -0.00163268589 0.00909136049
v -0.00722891977 -0.00154859631 0.00916889124
v -0.00727472873 -0.00134957256 0.00928732939
v -0.00731490413 -0.00109654991 0.009391197
v -0.00715744402 -0.00165088172 0.00898410007
v -0.00715085864 -0.00162944791 0.00896706898
v -0.00714960881 0.00162365031 0.00896384567
v -0.00716923643 0.00166473584 0.00901459064
v -0.00716153951 0.00165847235 0.00899469294
v -0.0071778479 0.00166288251 0.00903685763
v -0.00719077373 0.00164788228 0.00907026883
v -0.00715520978 0.00164508587 0.00897831935
v -0.00714335823 -0.00158043427 0.00894768722
v -0.0071354378 -0.0014090091 0.00892720371
v -0.0073493314 -0.000778263086 0.00948020257
v -0.00737167709 -0.000434982911 0.00953796599
v -0.00738146249 1.04365905e-10 0.00956326537
v -0.00738086738 0.000107018452 0.00956173241
v -0.0071387291 0.00151812914 0.00893571135
v -0.00736753084 0.000517830718 0.00952724926
v -0.00736382976 0.000581359258 0.00951768272
v -0.00733200135 0.000955600291 0.00943540037
v -0.00728614861 0.00128636311 0.00931685604
v -0.0072658211 0.00139487197 0.00926429499
v -0.00721968291 0.00157871167 0.00914500467
v -0.00713482173 0.00131484098 0.00892561767
v -0.00713482266 -0.001314839 0.0089256186
v -0.00716720987 1.9309726e-10 0.00917851273
v -0.00718839746 0.000336196477 0.00929731596
v -0.00718266889 0.000669454632 0.00925259478
v -0.00714064389 0.00119903125 0.00897105224
v -0.00715921819 0.000672334398 0.0091161076
v -0.00715985801 0.000645123015 0.00912113581
v -0.00716265384 0.00124629016 0.00909625273
v -0.00720060617 0.00128853903 0.00920583773
v -0.00728390832 0.000708010804 0.00945256278
v -0.00728997914 0.000355278229 0.0094999047
v -0.00730743119 -1.20595339e-10 0.00952790398
v -0.00726261828 0.00132117386 0.00928629935
v -0.00722133601 0.000691208174 0.00936777145
v -0.00722725736 0.000346962013 0.00941397622
v -0.00722920708 3.93323374e-10 0.00942926388
v -0.00718160579 -0.00162981113 0.0090574827
v -0.00725985179 -0.00137808966 0.00926471315
v -0.0071499995 -0.00097588636 0.00904410519
v -0.00717240386 -0.0010135835 0.00917243026
v -0.0071443622 -0.00157486461 0.0089534251
v -0.007159214 -0.000672333583 0.00911609922
v -0.00718747405 -0.000409597182 0.00929009449
v -0.00716448482 -0.000394887611 0.00915724412
v -0.00728899054 -0.000432903966 0.00949225202
v -0.00727300486 -0.00107331714 0.00936744735
v -0.00719791604 -0.00134390115 0.0091848392
v -0.007210718 -0.00104728458 0.00928482506
v -0.00722629903 -0.000422745856 0.00940651074
v -0.00713482406 -0.00221136049 0.0089256186
v -0.00715638464 -0.00196415419 0.00909398776
v -0.00716748135 -0.00208955165 0.00901004486
v -0.00719789136 -0.00196415419 0.00908867177
v -0.0072242287 -0.00184448448 0.00915676169
v -0.00717374589 -0.00172201288 0.00922957994
v -0.00724868197 -0.00172201311 0.00921998546
v -0.0072742328 -0.00157927827 0.00928603951
v -0.00719039747 -0.00143297378 0.00935959723
v -0.00729738176 -0.00143297378 0.00934589189
v -0.00731820473 -0.00128272513 0.00939972512
v -0.00720380014 -0.00112944969 0.0094642425
v -0.00733658019 -0.00112944888 0.00944723468
v -0.00735276937 -0.000970609311 0.00948908832
v -0.00721396459 -0.000810585858 0.00954363961
v -0.00736632524 -0.0008105858 0.00952412933
v -0.00737759192 -0.000644939777 0.0095532611
v -0.00722076464 -0.000478110596 0.0095967697
v -0.00738622295 -0.000478111411 0.00957558304
v -0.00739234732 -0.000307194947 0.00959141646
v -0.00722403685 -0.000135077571 0.00962233264
v -0.00739579787 -0.000135077775 0.00960033853
v -0.00722432183 2.85045182e-10 0.00962454919
v -0.00739663187 -1.93507321e-10 0.00960248988
v -0.00715024583 0.00215543248 0.00896549411
v -0.00714009581 0.00215543294 0.00896679331
v -0.00713482872 0.00221128901 0.00892562605
v -0.00722239865 0.000352404779 0.0096095046
v -0.00739099504 0.000352405128 0.00958791468
v -0.0073952158 0.000176804868 0.0095988242
v -0.00721659185 0.000701932353 0.00956418831
v -0.00720701739 0.00104026729 0.00948942173
v -0.00734601775 0.00104026659 0.00947162881
v -0.00736146607 0.000871719327 0.00951156486
v -0.00737402542 0.000701931829 0.00954403821
v -0.00738393748 0.000527781784 0.00956966355
v -0.00725927437 0.00166491023 0.00924736634
v -0.00728468783 0.00151548185 0.0093130758
v -0.00719386339 0.00136229303 0.00938669685
v -0.00730753643 0.00136229279 0.00937214494
v -0.00732815173 0.00120269775 0.00942543987
v -0.00717736501 0.00166491047 0.00925784651
v -0.00716214627 0.00188884407 0.00913900696
v -0.00721475622 0.00188884407 0.00913227536
v -0.00718375714 0.00202397374 0.00905212946
f 1 2 3
f 1 3 4
f 4 3 5
f 4 5 6
f 6 5 7
f 6 7 8
f 8 7 9
f 9 7 10
f 9 10 11
f 11 10 12
f 12 10 13
f 12 13 14
f 15 16 17
f 17 16 18
f 17 18 19
f 19 18 20
f 19 20 21
f 17 14 15
f 15 14 13
f 15 13 22
f 22 13 10
f 22 10 23
f 23 10 24
f 24 10 7
f 24 7 25
f 25 7 26
f 26 7 5
f 26 5 27
f 27 5 3
f 27 3 28
f 28 3 29
f 29 3 2
f 29 2 30
f 30 2 31
f 31 2 32
f 31 32 33
f 33 32 34
f 35 36 34
f 34 36 37
f 34 37 33
f 38 39 40
f 40 39 41
f 40 41 42
f 42 41 43
f 42 43 35
f 35 43 44
f 35 44 36
f 45 46 47
f 46 48 47
f 47 48 49
f 47 49 50
f 50 49 51
f 50 51 52
f 52 51 53
f 47 38 45
f 45 38 40
f 45 40 54
f 54 40 42
f 54 42 55
f 55 42 56
f 56 42 35
f 56 35 57
f 57 35 34
f 57 34 58
f 58 34 32
f 58 32 59
f 59 32 2
f 59 2 1
f 60 61 62
f 17 19 63
f 63 64 17
f 17 64 65
f 17 65 14
f 14 65 66
f 14 66 12
f 12 66 67
f 68 69 6
f 6 8 68
f 68 8 9
f 68 9 67
f 67 9 11
f 67 11 12
f 4 6 70
f 70 6 69
f 70 69 71
f 71 60 70
f 70 60 62
f 70 62 4
f 4 62 1
f 66 72 67
f 67 72 73
f 67 73 68
f 68 73 74
f 68 74 69
f 69 74 75
f 69 75 71
f 76 77 78
f 78 77 79
f 78 79 80
f 80 79 81
f 80 81 21
f 21 81 82
f 21 82 19
f 19 82 83
f 19 83 63
f 84 85 86
f 87 51 88
f 88 51 49
f 49 48 88
f 88 48 46
f 88 46 89
f 89 46 45
f 89 45 90
f 91 92 93
f 93 92 94
f 93 94 90
f 90 94 95
f 90 95 89
f 96 97 91
f 61 84 62
f 62 84 86
f 62 86 1
f 1 86 59
f 85 97 86
f 86 97 96
f 86 96 59
f 59 96 58
f 91 93 96
f 96 93 57
f 96 57 58
f 45 54 90
f 90 54 55
f 90 55 93
f 93 55 56
f 93 56 57
f 87 98 51
f 51 98 99
f 51 99 53
f 98 100 99
f 99 100 101
f 99 101 102
f 102 101 103
f 102 103 104
f 105 106 107
f 108 109 110
f 111 112 113
f 107 106 114
f 115 116 113
f 113 116 117
f 113 117 111
f 115 118 116
f 116 118 119
f 116 119 120
f 120 119 121
f 120 121 122
f 121 123 122
f 122 123 124
f 122 124 125
f 125 124 126
f 126 127 125
f 125 127 128
f 125 128 129
f 129 128 109
f 109 128 130
f 109 130 110
f 108 110 107
f 107 110 131
f 107 131 105
f 132 133 134
f 135 136 137
f 135 138 136
f 136 138 139
f 136 139 140
f 140 139 141
f 140 141 142
f 142 141 143
f 142 143 144
f 143 145 144
f 144 145 146
f 144 146 132
f 132 146 147
f 132 147 133
f 148 149 150
f 150 149 151
f 150 151 134
f 134 151 152
f 134 152 132
f 148 153 149
f 149 153 154
f 149 154 155
f 154 156 155
f 155 156 112
f 155 112 111
f 157 158 159
f 159 158 160
f 161 162 163
f 164 165 166
f 167 168 169
f 169 168 170
f 171 172 173
f 172 171 174
f 175 176 177
f 178 89 95
f 87 88 98
f 98 88 179
f 98 179 100
f 100 179 180
f 181 182 104
f 183 184 185
f 185 184 177
f 165 167 166
f 166 167 169
f 166 169 186
f 186 169 170
f 186 170 173
f 173 170 187
f 173 187 171
f 137 188 189
f 189 188 190
f 139 138 191
f 191 138 135
f 145 143 192
f 192 143 141
f 133 147 193
f 193 147 146
f 148 150 194
f 194 150 134
f 156 154 195
f 195 154 153
f 196 197 198
f 198 197 199
f 198 199 200
f 201 202 203
f 203 202 204
f 203 204 196
f 196 204 205
f 196 205 197
f 84 61 206
f 206 61 207
f 206 207 208
f 208 207 209
f 208 209 210
f 210 209 211
f 210 211 201
f 201 211 212
f 201 212 202
f 213 214 215
f 215 214 216
f 215 216 217
f 218 213 219
f 219 213 215
f 219 215 220
f 220 215 217
f 220 217 181
f 221 218 222
f 222 218 219
f 222 219 223
f 223 219 220
f 223 220 224
f 224 220 181
f 224 181 225
f 225 181 104
f 225 104 103
f 226 221 227
f 227 221 222
f 227 222 228
f 228 222 223
f 228 223 229
f 229 223 224
f 229 224 230
f 230 224 225
f 230 225 231
f 231 225 103
f 231 103 101
f 232 233 234
f 234 233 235
f 234 235 236
f 236 235 237
f 236 237 238
f 238 237 239
f 238 239 240
f 240 239 241
f 240 241 242
f 233 243 235
f 235 243 244
f 235 244 237
f 237 244 245
f 237 245 239
f 239 245 246
f 239 246 241
f 243 247 244
f 244 247 248
f 244 248 245
f 245 248 249
f 245 249 246
f 246 249 250
f 246 250 241
f 241 250 251
f 241 251 242
f 242 251 252
f 247 253 248
f 248 253 254
f 248 254 249
f 249 254 178
f 249 178 250
f 250 178 95
f 250 95 251
f 251 95 94
f 251 94 252
f 255 226 256
f 256 226 227
f 256 227 257
f 257 227 228
f 257 228 258
f 258 228 229
f 258 229 259
f 259 229 230
f 259 230 260
f 260 230 231
f 260 231 180
f 180 231 101
f 180 101 100
f 88 89 179
f 179 89 178
f 179 178 180
f 180 178 254
f 180 254 260
f 260 254 253
f 260 253 259
f 259 253 247
f 259 247 258
f 258 247 243
f 258 243 257
f 257 243 233
f 257 233 256
f 256 233 232
f 256 232 255
f 261 262 263
f 263 262 264
f 135 137 191
f 191 137 189
f 191 189 265
f 265 189 266
f 265 266 267
f 267 266 268
f 267 268 269
f 269 268 270
f 269 270 271
f 271 270 272
f 271 272 273
f 273 272 274
f 273 274 275
f 275 274 276
f 275 276 277
f 277 276 278
f 277 278 279
f 190 164 189
f 189 164 166
f 189 166 266
f 266 166 186
f 266 186 268
f 268 186 173
f 268 173 270
f 270 173 172
f 270 172 272
f 272 172 174
f 272 174 274
f 274 174 280
f 274 280 276
f 281 282 283
f 283 282 284
f 199 285 200
f 200 285 286
f 200 286 157
f 287 288 289
f 289 288 290
f 289 290 291
f 291 290 292
f 291 292 293
f 293 292 294
f 293 294 295
f 295 294 296
f 295 296 297
f 297 296 298
f 297 298 299
f 299 298 300
f 299 300 301
f 301 300 302
f 301 302 303
f 303 302 159
f 303 159 304
f 304 159 160
f 304 160 281
f 305 306 307
f 307 306 308
f 307 308 309
f 309 308 310
f 309 310 311
f 311 310 312
f 311 312 313
f 313 312 314
f 313 314 315
f 315 314 316
f 315 316 317
f 317 316 318
f 317 318 319
f 319 318 320
f 319 320 321
f 321 320 322
f 321 322 323
f 323 322 324
f 323 324 325
f 325 324 283
f 325 283 326
f 326 283 284
f 326 284 327
f 157 159 200
f 200 159 302
f 200 302 198
f 198 302 300
f 198 300 196
f 196 300 298
f 196 298 203
f 203 298 296
f 203 296 201
f 201 296 294
f 201 294 210
f 210 294 292
f 210 292 208
f 208 292 290
f 208 290 206
f 206 290 288
f 206 288 84
f 84 288 287
f 84 287 85
f 146 145 193
f 193 145 192
f 193 192 328
f 328 192 329
f 328 329 330
f 330 329 331
f 330 331 332
f 332 331 333
f 332 333 334
f 334 333 335
f 334 335 336
f 336 335 337
f 336 337 338
f 338 337 339
f 338 339 340
f 340 339 341
f 340 341 342
f 342 341 343
f 342 343 344
f 344 343 345
f 344 345 346
f 346 345 347
f 346 347 183
f 348 349 350
f 350 349 351
f 350 351 352
f 352 351 353
f 352 353 354
f 354 353 355
f 354 355 356
f 356 355 357
f 356 357 358
f 358 357 359
f 358 359 360
f 360 359 361
f 360 361 362
f 362 361 363
f 362 363 364
f 364 363 365
f 364 365 366
f 366 365 367
f 366 367 368
f 368 367 369
f 368 369 370
f 370 369 371
f 370 371 372
f 372 371 263
f 372 263 161
f 161 263 264
f 161 264 162
f 153 148 195
f 195 148 194
f 195 194 373
f 373 194 374
f 373 374 375
f 375 374 376
f 375 376 377
f 377 376 378
f 377 378 379
f 379 378 380
f 379 380 381
f 381 380 382
f 381 382 383
f 383 382 384
f 383 384 255
f 255 384 385
f 255 385 226
f 226 385 386
f 226 386 221
f 221 386 387
f 221 387 218
f 218 387 388
f 218 388 213
f 213 388 389
f 213 389 214
f 349 305 351
f 351 305 307
f 351 307 353
f 353 307 309
f 353 309 355
f 355 309 311
f 355 311 357
f 357 311 313
f 357 313 359
f 359 313 315
f 359 315 361
f 361 315 317
f 361 317 363
f 363 317 319
f 363 319 365
f 365 319 321
f 365 321 367
f 367 321 323
f 367 323 369
f 369 323 325
f 369 325 371
f 371 325 326
f 371 326 263
f 263 326 327
f 263 327 261
f 134 133 194
f 194 133 193
f 194 193 374
f 374 193 328
f 374 328 376
f 376 328 330
f 376 330 378
f 378 330 332
f 378 332 380
f 380 332 334
f 380 334 382
f 382 334 336
f 382 336 384
f 384 336 338
f 384 338 385
f 385 338 340
f 385 340 386
f 386 340 342
f 386 342 387
f 387 342 344
f 387 344 388
f 388 344 346
f 388 346 389
f 389 346 183
f 389 183 214
f 214 183 185
f 214 185 216
f 216 185 177
f 216 177 217
f 217 177 176
f 217 176 181
f 181 176 175
f 181 175 182
f 281 283 304
f 304 283 324
f 304 324 303
f 303 324 322
f 303 322 301
f 301 322 320
f 301 320 299
f 299 320 318
f 299 318 297
f 297 318 316
f 297 316 295
f 295 316 314
f 295 314 293
f 293 314 312
f 293 312 291
f 291 312 310
f 291 310 289
f 289 310 308
f 289 308 287
f 287 308 306
f 287 306 85
f 85 306 305
f 85 305 97
f 97 305 349
f 97 349 91
f 91 349 348
f 91 348 92
f 141 139 192
f 192 139 191
f 192 191 329
f 329 191 265
f 329 265 331
f 331 265 267
f 331 267 333
f 333 267 269
f 333 269 335
f 335 269 271
f 335 271 337
f 337 271 273
f 337 273 339
f 339 273 275
f 339 275 341
f 341 275 277
f 341 277 343
f 343 277 279
f 343 279 345
f 112 156 163
f 163 156 195
f 163 195 161
f 161 195 373
f 161 373 372
f 372 373 375
f 372 375 370
f 370 375 377
f 370 377 368
f 368 377 379
f 368 379 366
f 366 379 381
f 366 381 364
f 364 381 383
f 364 383 362
f 362 383 255
f 362 255 360
f 360 255 232
f 360 232 358
f 358 232 234
f 358 234 356
f 356 234 236
f 356 236 354
f 354 236 238
f 354 238 352
f 352 238 240
f 352 240 350
f 350 240 242
f 350 242 348
f 348 242 252
f 348 252 92
f 92 252 94
f 390 160 158
f 391 392 393
f 394 395 396
f 397 398 399
f 106 105 400
f 401 402 76
f 76 402 403
f 76 403 77
f 404 82 405
f 405 82 81
f 405 81 79
f 406 66 65
f 407 73 72
f 112 163 113
f 113 163 408
f 113 408 115
f 123 121 409
f 409 121 119
f 409 119 408
f 408 119 118
f 408 118 115
f 123 409 124
f 124 409 410
f 124 410 126
f 411 128 410
f 410 128 127
f 410 127 126
f 131 110 411
f 411 110 130
f 411 130 128
f 106 400 114
f 412 413 414
f 414 413 415
f 414 415 416
f 417 418 419
f 420 421 422
f 422 421 423
f 422 423 424
f 424 423 425
f 426 427 428
f 428 427 429
f 430 431 432
f 432 431 433
f 434 435 436
f 437 438 439
f 439 438 440
f 439 440 441
f 441 440 442
f 443 438 444
f 444 438 437
f 444 437 443
f 443 437 401
f 443 401 445
f 445 401 76
f 157 286 446
f 446 286 285
f 446 285 447
f 202 399 204
f 204 399 448
f 204 448 205
f 205 448 449
f 205 449 197
f 197 449 447
f 197 447 199
f 199 447 285
f 61 60 207
f 207 60 450
f 207 450 209
f 211 209 451
f 451 209 450
f 451 450 452
f 452 450 60
f 452 60 71
f 396 453 397
f 212 211 454
f 454 211 451
f 454 451 455
f 455 451 452
f 455 452 456
f 456 452 71
f 456 71 75
f 457 458 459
f 73 407 460
f 460 407 461
f 460 461 462
f 462 461 463
f 462 463 464
f 464 463 465
f 464 465 466
f 466 465 467
f 466 467 468
f 468 467 469
f 468 469 470
f 470 469 459
f 470 459 471
f 471 459 458
f 471 458 472
f 457 459 473
f 473 459 469
f 473 469 474
f 474 469 467
f 474 467 475
f 475 467 465
f 475 465 476
f 476 465 463
f 476 463 477
f 477 463 461
f 477 461 478
f 478 461 407
f 478 407 479
f 479 407 72
f 479 72 66
f 66 406 479
f 479 406 480
f 479 480 478
f 478 480 481
f 478 481 477
f 477 481 482
f 477 482 476
f 476 482 483
f 476 483 475
f 475 483 484
f 475 484 474
f 474 484 485
f 474 485 473
f 473 485 486
f 473 486 457
f 442 487 441
f 441 487 488
f 441 488 439
f 439 488 489
f 439 489 437
f 437 489 490
f 437 490 401
f 401 490 491
f 401 491 402
f 402 491 492
f 402 492 403
f 403 492 405
f 403 405 77
f 77 405 79
f 404 405 493
f 493 405 492
f 493 492 494
f 494 492 491
f 494 491 495
f 495 491 490
f 495 490 496
f 496 490 489
f 496 489 497
f 497 489 488
f 497 488 498
f 498 488 487
f 498 487 499
f 63 83 64
f 64 83 82
f 64 82 65
f 65 82 404
f 65 404 406
f 406 404 493
f 406 493 480
f 480 493 494
f 480 494 481
f 481 494 495
f 481 495 482
f 482 495 496
f 482 496 483
f 483 496 497
f 483 497 484
f 484 497 498
f 484 498 485
f 485 498 499
f 485 499 486
f 74 73 500
f 500 73 460
f 500 460 501
f 501 460 462
f 501 462 502
f 502 462 464
f 502 464 503
f 503 464 466
f 503 466 504
f 504 466 468
f 504 468 505
f 505 468 470
f 505 470 506
f 506 470 471
f 506 471 507
f 507 471 472
f 507 472 508
f 508 472 458
f 508 458 509
f 509 458 457
f 509 457 510
f 510 457 486
f 510 486 511
f 511 486 499
f 511 499 512
f 512 499 487
f 512 487 513
f 513 487 442
f 513 442 514
f 515 162 264
f 515 264 516
f 517 393 516
f 516 393 392
f 516 392 515
f 163 162 408
f 408 162 515
f 408 515 409
f 409 515 392
f 409 392 410
f 410 392 391
f 410 391 411
f 264 262 516
f 516 262 261
f 516 261 517
f 517 261 327
f 517 327 284
f 518 282 281
f 105 131 400
f 400 131 411
f 400 411 519
f 519 411 391
f 519 391 520
f 520 391 393
f 520 393 521
f 521 393 517
f 521 517 518
f 518 517 284
f 518 284 282
f 416 114 414
f 414 114 400
f 414 400 522
f 522 400 519
f 522 519 523
f 523 519 520
f 523 520 524
f 524 520 521
f 524 521 525
f 525 521 518
f 525 518 390
f 390 518 281
f 390 281 160
f 418 412 419
f 419 412 414
f 419 414 526
f 526 414 522
f 526 522 527
f 527 522 523
f 527 523 528
f 528 523 524
f 528 524 529
f 529 524 525
f 529 525 530
f 530 525 390
f 530 390 531
f 531 390 158
f 531 158 157
f 157 446 531
f 531 446 532
f 531 532 530
f 530 532 533
f 530 533 529
f 529 533 534
f 529 534 528
f 528 534 535
f 528 535 527
f 527 535 536
f 527 536 526
f 526 536 537
f 526 537 419
f 419 537 538
f 419 538 417
f 399 398 448
f 448 398 539
f 448 539 449
f 449 539 540
f 449 540 447
f 447 540 541
f 447 541 446
f 446 541 542
f 446 542 532
f 532 542 543
f 532 543 533
f 533 543 544
f 533 544 534
f 534 544 545
f 534 545 535
f 535 545 546
f 535 546 536
f 536 546 547
f 536 547 537
f 537 547 421
f 537 421 538
f 538 421 420
f 538 420 417
f 396 395 453
f 453 395 548
f 453 548 549
f 549 548 550
f 549 550 551
f 551 550 552
f 551 552 553
f 553 552 554
f 553 554 555
f 555 554 556
f 555 556 557
f 557 556 558
f 557 558 559
f 559 558 560
f 559 560 561
f 561 560 562
f 561 562 563
f 563 562 564
f 563 564 565
f 565 564 566
f 565 566 567
f 567 566 568
f 567 568 569
f 569 568 570
f 569 570 428
f 428 570 432
f 428 432 426
f 426 432 433
f 426 433 427
f 571 572 573
f 573 572 574
f 573 574 575
f 575 574 576
f 575 576 577
f 577 576 578
f 577 578 579
f 579 578 580
f 579 580 581
f 581 580 582
f 581 582 583
f 583 582 584
f 583 584 585
f 585 584 586
f 585 586 587
f 587 586 588
f 587 588 589
f 589 588 590
f 589 590 591
f 591 590 592
f 591 592 593
f 593 592 594
f 593 594 595
f 595 594 596
f 595 596 597
f 597 596 434
f 597 434 598
f 598 434 436
f 598 436 599
f 394 571 395
f 395 571 573
f 395 573 548
f 548 573 575
f 548 575 550
f 550 575 577
f 550 577 552
f 552 577 579
f 552 579 554
f 554 579 581
f 554 581 556
f 556 581 583
f 556 583 558
f 558 583 585
f 558 585 560
f 560 585 587
f 560 587 562
f 562 587 589
f 562 589 564
f 564 589 591
f 564 591 566
f 566 591 593
f 566 593 568
f 568 593 595
f 568 595 570
f 570 595 597
f 570 597 432
f 432 597 598
f 432 598 430
f 430 598 599
f 430 599 431
f 397 453 398
f 398 453 549
f 398 549 539
f 539 549 551
f 539 551 540
f 540 551 553
f 540 553 541
f 541 553 555
f 541 555 542
f 542 555 557
f 542 557 543
f 543 557 559
f 543 559 544
f 544 559 561
f 544 561 545
f 545 561 563
f 545 563 546
f 546 563 565
f 546 565 547
f 547 565 567
f 547 567 421
f 421 567 569
f 421 569 423
f 423 569 428
f 423 428 425
f 425 428 429
f 425 429 424
f 202 212 399
f 399 212 454
f 399 454 397
f 397 454 455
f 397 455 396
f 396 455 456
f 396 456 394
f 394 456 75
f 394 75 571
f 571 75 74
f 571 74 572
f 572 74 500
f 572 500 574
f 574 500 501
f 574 501 576
f 576 501 502
f 576 502 578
f 578 502 503
f 578 503 580
f 580 503 504
f 580 504 582
f 582 504 505
f 582 505 584
f 584 505 506
f 584 506 586
f 586 506 507
f 586 507 588
f 588 507 508
f 588 508 590
f 590 508 509
f 590 509 592
f 592 509 510
f 592 510 594
f 594 510 511
f 594 511 596
f 596 511 512
f 596 512 434
f 434 512 513
f 434 513 435
f 435 513 514
f 435 514 436
f 600 188 137
f 600 137 601
f 188 600 190
f 190 600 602
f 190 602 164
f 137 136 601
f 601 136 140
f 601 140 603
f 603 140 142
f 603 142 604
f 604 142 144
f 604 144 605
f 605 144 132
f 605 132 606
f 170 168 607
f 607 168 167
f 607 167 602
f 602 167 165
f 602 165 164
f 276 280 608
f 431 599 609
f 610 415 611
f 611 415 413
f 611 413 412
f 612 114 610
f 610 114 416
f 610 416 415
f 613 108 612
f 612 108 107
f 612 107 114
f 431 609 433
f 412 418 611
f 611 418 417
f 611 417 614
f 614 417 420
f 614 420 422
f 280 174 608
f 608 174 171
f 608 171 607
f 607 171 187
f 607 187 170
f 615 279 608
f 608 279 278
f 608 278 276
f 53 99 616
f 422 424 614
f 614 424 429
f 614 429 609
f 609 429 427
f 609 427 433
f 132 152 606
f 606 152 151
f 606 151 617
f 617 151 149
f 617 149 618
f 618 149 155
f 618 155 619
f 619 155 111
f 619 111 620
f 175 177 615
f 615 177 184
f 615 184 183
f 53 616 52
f 183 347 615
f 615 347 345
f 615 345 279
f 99 102 616
f 616 102 104
f 616 104 615
f 615 104 182
f 615 182 175
f 440 438 621
f 621 438 443
f 621 443 445
f 445 76 621
f 621 76 78
f 621 78 80
f 620 111 622
f 622 111 117
f 622 117 623
f 623 117 116
f 623 116 624
f 624 116 120
f 624 120 625
f 625 120 122
f 625 122 626
f 626 122 125
f 626 125 627
f 627 125 129
f 627 129 613
f 613 129 109
f 613 109 108
f 39 38 616
f 80 21 621
f 621 21 20
f 621 20 628
f 628 20 18
f 628 18 16
f 16 15 628
f 628 15 22
f 628 22 23
f 599 436 609
f 609 436 514
f 609 514 621
f 621 514 442
f 621 442 440
f 36 44 629
f 629 44 43
f 629 43 616
f 616 43 41
f 616 41 39
f 629 30 31
f 38 47 616
f 616 47 50
f 616 50 52
f 23 24 628
f 628 24 25
f 628 25 629
f 629 25 26
f 629 26 27
f 27 28 629
f 629 28 29
f 629 29 30
f 31 33 629
f 629 33 37
f 629 37 36
f 630 631 632
f 633 634 632
f 632 634 635
f 632 635 630
f 628 633 621
f 621 633 636
f 621 636 609
f 609 636 614
f 626 627 637
f 627 613 637
f 637 613 612
f 637 612 610
f 623 624 638
f 638 624 625
f 623 638 622
f 622 638 639
f 622 639 620
f 620 639 640
f 620 640 619
f 625 641 638
f 638 641 642
f 638 642 639
f 639 642 643
f 639 643 640
f 640 643 644
f 633 632 636
f 636 632 637
f 636 637 614
f 614 637 610
f 614 610 611
f 625 626 641
f 641 626 637
f 641 637 642
f 642 637 632
f 642 632 643
f 643 632 631
f 643 631 644
f 644 631 630
f 603 645 601
f 605 646 604
f 647 629 648
f 648 629 616
f 648 616 649
f 649 616 615
f 650 651 652
f 652 651 644
f 652 644 630
f 653 618 619
f 646 605 654
f 654 605 606
f 654 606 617
f 645 603 655
f 645 608 607
f 601 645 600
f 600 645 607
f 600 607 602
f 603 604 655
f 655 604 646
f 655 646 656
f 656 646 654
f 656 654 653
f 653 654 617
f 653 617 618
f 640 644 657
f 657 644 651
f 657 651 648
f 648 651 650
f 648 650 647
f 619 640 653
f 653 640 657
f 653 657 656
f 656 657 648
f 656 648 655
f 655 648 649
f 655 649 645
f 645 649 615
f 645 615 608
f 647 634 629
f 629 634 633
f 629 633 628
f 647 650 634
f 634 650 652
f 634 652 635
f 635 652 630
f 658 659 660
f 660 659 661
f 661 659 662
f 662 659 663
f 662 663 664
f 664 663 665
f 665 663 666
f 665 666 667
f 667 666 668
f 668 666 669
f 668 669 670
f 670 669 671
f 671 669 672
f 671 672 673
f 673 672 674
f 674 672 675
f 674 675 676
f 676 675 677
f 677 675 678
f 677 678 679
f 679 678 680
f 679 680 681
f 682 683 684
f 685 686 680
f 680 686 687
f 680 687 681
f 688 689 690
f 690 691 688
f 688 691 692
f 688 692 685
f 685 692 693
f 685 693 686
f 694 695 696
f 696 695 697
f 696 697 689
f 689 697 698
f 689 698 690
f 696 699 694
f 694 699 700
f 694 700 701
f 683 682 700
f 700 682 702
f 700 702 701
f 659 658 684
f 678 684 680
f 680 684 683
f 683 700 680
f 680 700 699
f 680 699 685
f 678 675 684
f 684 675 672
f 684 672 669
f 696 689 699
f 699 689 688
f 699 688 685
f 669 666 684
f 684 666 663
f 684 663 659
f 677 679 682
f 682 679 681
f 684 658 682
f 682 658 660
f 673 674 682
f 682 674 676
f 682 676 677
f 681 687 682
f 682 687 686
f 682 686 693
f 660 661 682
f 682 661 662
f 682 662 664
f 693 692 682
f 682 692 691
f 682 691 690
f 668 670 682
f 682 670 671
f 682 671 673
f 690 698 682
f 682 698 697
f 682 697 695
f 664 665 682
f 682 665 667
f 682 667 668
f 694 701 695
f 695 701 702
f 695 702 682
