# Converted from right_ring_touch_link.STL for Drake collision support
v -0.000188208825 1.55065488e-10 -0.00460007228
v -0.000382492988 3.18720217e-10 -0.00611040695
v -0.000404273829 0.000558584987 -0.00610840553
v -0.000215307649 0.000619058672 -0.00459949253
v -0.000469666906 0.0011124931 -0.00610241899
v -0.00029951139 0.00124783348 -0.00459725177
v -0.000332555472 0.00141799462 -0.00459630461
v -0.000578727864 0.00165644102 -0.00609252742
v -0.000439294206 0.00185716338 -0.00459310971
v -0.000513099076 0.00210238481 -0.00459086336
v -0.000731310283 0.00218487508 -0.00607887236
v -0.000631397415 0.00243643788 -0.00458728196
v -0.000765376433 0.00275564869 -0.00458328938
v -0.000926992216 0.00269221561 -0.00606167223
v -0.000847380143 0.00292859972 -0.00458090473
v -0.00105127064 0.00296389172 -0.00602791598
v -0.00114012067 0.00319169927 -0.00579797197
v -0.00109329633 0.00337448926 -0.00457436033
v -0.00128736231 0.0035174943 -0.00541691575
v -0.00135793863 0.00376741169 -0.0045670243
v -0.0014803221 0.00392651977 -0.00456347363
v -0.00144711265 0.0038168428 -0.00500349095
v -0.00161872571 0.00409232499 -0.00455935905
v -0.000936767377 0.00262228958 -0.0063242428
v -0.00083629397 0.00225879555 -0.00658426061
v -0.000750367239 0.00187307654 -0.00680663669
v -0.00073092035 0.00177141209 -0.0068569635
v -0.00066700764 0.00137646764 -0.00702236593
v -0.000619412865 0.000971219153 -0.00714554498
v -0.000588281255 0.000556494982 -0.00722611276
v -0.000578702078 0.000336156256 -0.00725090411
v -0.000573217927 -2.1372952e-10 -0.00726509886
v -0.000578699808 -0.000336155645 -0.00725090737
v -0.00040427153 -0.000558585743 -0.00610840786
v -0.000588279567 -0.000556495448 -0.00722611463
v -0.000469667342 -0.00111249357 -0.00610241853
v -0.000750366074 -0.00187307678 -0.00680663809
v -0.000730923843 -0.00177141291 -0.00685695931
v -0.000578728912 -0.00165644125 -0.00609252509
v -0.000667013519 -0.00137646729 -0.00702235708
v -0.000619413215 -0.000971218979 -0.00714554405
v -0.00105126551 -0.00296389125 -0.0060279239
v -0.000936768716 -0.00262228958 -0.0063242414
v -0.000926995941 -0.00269221561 -0.00606166758
v -0.0008362956 -0.00225879531 -0.00658425828
v -0.000731310458 -0.00218487531 -0.00607887236
v -0.000847348478 -0.00292853755 -0.00458091218
v -0.00100685901 -0.00322833937 -0.00457665743
v -0.00114011753 -0.00319170044 -0.00579797709
v -0.00109327491 -0.00337444548 -0.00457436498
v -0.00128736265 -0.0035174943 -0.00541691529
v -0.00135790696 -0.00376735884 -0.00456702104
v -0.001447113 -0.00381684327 -0.00500349142
v -0.00148032629 -0.0039265193 -0.00456346804
v -0.00161872525 -0.00409232499 -0.00455935998
v -0.000765382487 -0.00275564962 -0.0045832824
v -0.000631407078 -0.00243647886 -0.00458727498
v -0.000513090286 -0.00210238853 -0.00459085777
v -0.000439325842 -0.00185734418 -0.00459311437
v -0.000332563213 -0.0014179938 -0.00459630601
v -0.000299489679 -0.00124764477 -0.00459726481
v -0.000215304666 -0.000618814083 -0.00459951116
v -0.000412674824 0.00218746858 -0.00315944222
v -0.000391358131 0.00212942436 -0.00313056074
v -0.000426579558 0.00212028599 -0.00362607464
v -0.00140314654 0.0039405399 -0.00372207956
v -0.00115102518 0.00353545253 -0.00415354082
v -0.00100571592 0.00333526428 -0.00395817542
v -0.000681007456 0.00278129149 -0.00358734955
v -0.000923267042 0.00321142841 -0.00384740392
v -0.000778427988 0.00297243288 -0.00365280546
v -0.000245039118 0.00142921449 -0.00365478871
v -0.00013638426 0.000719102623 -0.00367244193
v -9.4285424e-05 -3.9123052e-10 -0.00360604282
v -0.000274906663 0.00177082035 -0.00297230529
v -0.000167369872 0.00134148926 -0.00282557239
v -9.01312742e-05 0.000901496212 -0.00271977391
v -4.34875656e-05 0.000453428744 -0.00265572523
v -2.78338357e-05 -3.9107706e-10 -0.00263418932
v -0.000342265703 0.00198770012 -0.00306393206
v -0.000703917351 0.00283685746 -0.0035525884
v -0.00058059342 0.00258892286 -0.00338645559
v -0.000508913654 0.00242821849 -0.00328967092
v -0.00181096641 0.0043586134 -0.00406184932
v -0.00170250493 0.00432425225 -0.00331340544
v -0.00189659186 0.0044656517 -0.00384025159
v -0.00185810239 0.00449476391 -0.00313184783
v -0.00204706332 0.00463923346 -0.00345083605
v -0.0020376998 0.00467261625 -0.00294254487
v -0.00235674554 0.00494812988 -0.00264939666
v -0.00092333107 -0.00321141002 -0.00384737877
v -0.000810486963 -0.00302790874 -0.00369578577
v -0.000681007281 -0.00278129126 -0.00358735048
v -0.000342305168 -0.00198773155 -0.0030637891
v -0.000391506299 -0.00212975312 -0.00313056726
v -0.00042658631 -0.00212028669 -0.00362606649
v -0.000421583507 -0.00221110438 -0.00317134103
v -0.000508932688 -0.00242823758 -0.00328959897
v -0.000599740131 -0.00262960116 -0.0034122197
v -0.000703916128 -0.00283686188 -0.00355256908
v -4.35331422e-05 -0.000454447174 -0.00265583792
v -9.09274822e-05 -0.000907447131 -0.00272086961
v -0.000136389732 -0.000719102507 -0.00367243611
v -0.000167337406 -0.00134140288 -0.0028255072
v -0.000245039439 -0.00142921461 -0.00365478918
v -0.000278161402 -0.00178197294 -0.00297661754
v -0.00189659512 -0.0044656531 -0.0038402474
v -0.0018109642 -0.0043586134 -0.00406185305
v -0.00140006479 -0.00393607421 -0.00372709637
v -0.00105798361 -0.00340958731 -0.00402849214
v -0.00115102634 -0.00353545323 -0.00415353943
v -0.00168382435 -0.00430245697 -0.00333671551
v -0.00185838609 -0.00449481234 -0.00313164853
v -0.0020470696 -0.00463923393 -0.0034508307
v -0.00200019148 -0.00463672122 -0.00298044621
v -0.00235674903 -0.00494812895 -0.00264939037
v -0.00746303936 0.000644373242 0.0105654886
v -0.00697727501 0.000866033137 0.0105631519
v -0.00697140628 0.00125184911 0.0104783811
v -0.00698266085 -3.43744339e-11 0.01064
v -0.00698253699 0.000131629029 0.0106382761
v -0.00747839455 7.51457452e-10 0.0106052188
v -0.00747742131 0.000164119527 0.010602708
v -0.00697873626 0.000739391777 0.0105840927
v -0.00696714874 0.00146831502 0.010416626
v -0.00739101879 0.00152013812 0.0103791049
v -0.00743685802 0.00105499418 0.010497734
v -0.00696345558 0.00163261325 0.0103627397
v -0.00695350068 0.00200800016 0.0102160955
v -0.00732875802 0.00197249278 0.0102179693
v -0.00694836071 0.00217600679 0.0101394579
v -0.00725006592 0.0024112328 0.0100143179
v -0.00694169849 0.00237523625 0.0100393314
v -0.00692817988 0.00273304642 0.00983287487
v -0.00692321686 0.00285223685 0.00975603331
v -0.00712145446 0.00296438858 0.0096814828
v -0.00722123543 0.00254926714 0.00993970502
v -0.00691309711 0.00307970634 0.00959741417
v -0.00689649489 0.00341663929 0.00933134463
v -0.00700749177 0.0033547096 0.00938655157
v -0.00689277006 0.00348727731 0.00927049015
v -0.00687976554 0.00372051424 0.00905588362
v -0.00694170315 -0.00237523625 0.0100393295
v -0.00725006126 -0.00241122209 0.0100143142
v -0.00722123217 -0.00254926668 0.0099397013
v -0.00747742644 -0.000164107143 0.0106027154
v -0.00698254304 -0.000131629567 0.0106382798
v -0.00697873486 -0.000739391951 0.0105840899
v -0.00746303936 -0.000644362241 0.0105654905
v -0.00697728014 -0.000866033079 0.010563151
v -0.00743686454 -0.00105498137 0.0104977442
v -0.00697140815 -0.00125184818 0.0104783792
v -0.00696715526 -0.00146831584 0.0104166362
v -0.00739101926 -0.00152012613 0.0103791086
v -0.00696346164 -0.00163261336 0.0103627425
v -0.00732875243 -0.00197248091 0.0102179646
v -0.00695350952 -0.00200799969 0.0102160992
v -0.00694835559 -0.00217600749 0.0101394532
v -0.00700749457 -0.0033547096 0.00938655715
v -0.0069130999 -0.00307970634 0.00959741231
v -0.00712145492 -0.00296438974 0.00968148187
v -0.00692322198 -0.00285223708 0.00975603983
v -0.00692818593 -0.00273304665 0.00983287487
v -0.00687976973 -0.00372051471 0.00905588828
v -0.00689276867 -0.00348727778 0.00927048735
v -0.00689650374 -0.00341663859 0.00933135208
v -0.00163027563 2.04895476e-10 0.00660415087
v -0.00168940437 3.75178832e-10 0.00670524314
v -0.00169667858 -0.00057854288 0.00666454667
v -0.00221615774 1.70167949e-10 0.00749384146
v -0.00600447645 -0.0045506712 0.00777059793
v -0.00599714834 -0.00501300674 0.0070288335
v -0.0051896926 -0.00492044818 0.00672000088
v -0.00512867514 -0.000714335416 0.00986798573
v -0.00512843207 -8.1267125e-11 0.00992091652
v -0.0060895239 -5.46624031e-11 0.010344157
v -0.00186784973 -0.00419633649 0.00303964363
v -0.00201804284 -0.00449982798 0.00242931582
v -0.00167298515 -0.00425309222 0.00182307092
v -0.00605661422 -0.00144982536 0.0101162111
v -0.00604831055 -0.00214911345 0.00984564517
v -0.00603784947 -0.00281785312 0.00947141927
v -0.00602620095 -0.00344646862 0.00899744313
v -0.00120424025 -0.00376872858 -0.002919188
v -0.00139157963 -0.00405113958 -0.00245331926
v -0.000789635174 -0.00310026319 -0.00295114261
v -0.000561633555 -0.00267745322 -0.00255116867
v -0.000364918669 -0.00221004197 -0.00220803753
v -0.00104477606 -0.00347924652 -0.00340057304
v -0.00160828268 -0.00432581594 -0.00200561038
v -0.0018557962 -0.00459189108 -0.0015786296
v -0.00213530217 -0.00484798755 -0.00117477938
v -0.00250924006 -0.00508039678 -0.0022547422
v -0.00244773971 -0.00509249186 -0.000796372595
v -0.00268525118 -0.00523029966 -0.00153768924
v -0.00310010184 -0.00549537269 -0.000725623569
v -0.0030435056 -0.00546181342 -0.000872085569
v -0.00279348972 -0.00532340817 -0.000445321173
v -0.00297435769 -0.00541906105 -0.00105104735
v -0.00283259735 -0.00532541052 -0.00141790893
v -0.0027319137 -0.00525391847 -0.00167847739
v -0.00271049328 -0.00523816468 -0.00173391413
v -0.00521989679 -0.00531406794 0.00592606608
v -0.0055680857 -0.00552132493 0.00566142332
v -0.00525939697 -0.00564130582 0.00506234961
v -0.00530049065 -0.00568146585 0.00496890023
v -0.00502263103 -0.0057972162 0.00424981443
v -0.00607253658 -0.00506657455 0.00696691778
v -0.00582564017 -0.0053164917 0.00632796111
v -0.00574739557 -0.00538436836 0.00612547109
v -0.00652376795 -0.00443868432 0.00813469663
v -0.00643559452 -0.00458201813 0.00790650304
v -0.00632398063 -0.00474792952 0.00761764683
v -0.00611018017 -0.00502328947 0.00706434157
v -0.00672331406 -0.00406749547 0.00865110941
v -0.00601463206 -0.0040265955 0.00842872169
v -0.00670912163 -0.00409631385 0.00861438178
v -0.00606190925 -0.000729988329 0.0102797486
v -0.000568400661 -0.000473836728 0.00393228373
v -0.000641405815 1.80566562e-10 0.00425263029
v -0.000872353092 -0.000509419537 0.00490096305
v -0.000863855123 2.86901697e-10 0.00493502896
v -0.00124746107 -0.000544458395 0.00581336161
v -0.000160852636 -0.000402134639 0.00184719451
v -0.000152344524 6.25959229e-10 0.0018700487
v -0.000332424475 -0.000438034011 0.00291250623
v -0.000311395619 -4.38801384e-10 0.00287522422
v -0.000559650478 -3.49289347e-10 0.00396275241
v 6.58165982e-06 -0.000293306541 -0.00156491459
v 1.28135143e-05 1.11941026e-10 -0.00155414292
v 4.50229527e-06 -0.000329963135 -0.000397314026
v 1.31834131e-05 3.25136057e-10 -0.000448845123
v -4.99008602e-05 -0.000366164633 0.000741987897
v -4.1900199e-05 4.32801184e-10 0.000760882453
v -8.92445896e-05 4.05315753e-10 0.0013148908
v -0.00173425965 -0.00385239976 0.00359976338
v -0.00151993171 -0.00395769067 0.00237861066
v -0.00142252212 -0.00414361292 -0.00152349658
v -0.00165550003 -0.0044139456 -0.00101771276
v -0.00192362186 -0.0046765334 -0.000538152352
v -0.00222871336 -0.00492979959 -8.74329708e-05
v -0.00257209013 -0.00517151272 0.000332218158
v -0.00317261438 -0.00553860702 -0.000123351114
v -0.00138276955 -0.00362659153 0.00288828043
v -0.00122684066 -0.00371313724 0.00167385174
v -0.00108943728 -0.00339580211 0.0021305033
v -0.00098527316 -0.00346498983 0.000928934372
v -0.000850812357 -0.00316220615 0.00133033702
v -0.000791504746 -0.00321441377 0.000147801955
v -0.00066300371 -0.00292683672 0.000492003222
v -0.000641691149 -0.00296199485 -0.000665544125
v -0.000522029994 -0.00269015436 -0.000380165293
v -0.00137906778 -0.00399937434 0.00117588043
v -0.00113330863 -0.00374107203 0.000491048093
v -0.000932200521 -0.00347947353 -0.000227871453
v -0.000772195111 -0.00321529619 -0.000977138174
v -0.000911210373 -0.00338601926 -0.00230198121
v -0.000423951191 -0.00245155161 -0.0012816966
v -0.000532093924 -0.00270722969 -0.0015069003
v -0.000649802445 -0.00294819637 -0.00175288459
v -0.00091284886 -0.00345003838 -0.00131325715
v -0.00108451676 -0.00372204091 -0.000632914074
v -0.00129448983 -0.00399047509 1.91355903e-05
v -0.00154594681 -0.00425447104 0.00063950161
v -0.00184197188 -0.00451262994 0.00122490991
v -0.00218516449 -0.00476253312 0.00177244039
v -0.00106313673 -0.00366687588 -0.00167230552
v -0.00124803337 -0.00394300651 -0.00106540229
v -0.00146857381 -0.00421426678 -0.000484502641
v -0.00172741082 -0.00447962154 6.73180839e-05
v -0.00202709949 -0.00473757228 0.000587142538
v -0.0023696553 -0.00498574879 0.00107236218
v -0.00295467605 -0.0053991843 0.000718713971
v -0.00344498153 -0.00567198638 0.000166914906
v -0.00427892758 -0.000693927053 0.00937751587
v -0.00427685212 1.85934546e-10 0.00942853838
v -0.00497209746 2.92964736e-10 0.00983974431
v -0.00351203512 -0.000669477624 0.00880961493
v -0.00350833498 -4.49045384e-10 0.00885846373
v -0.00397896767 1.01111376e-10 0.00922377408
v -0.00515170535 -0.00394655671 0.00807582121
v -0.00516741164 -0.00446311664 0.00743847387
v -0.00440048426 -0.00434626266 0.00704005361
v -0.00444800314 -0.0047960123 0.00634854939
v -0.00377302757 -0.00464454107 0.00591531536
v -0.0045064236 -0.00518532889 0.00558426511
v -0.00385490642 -0.00502775563 0.00518463738
v -0.00457699597 -0.00551165268 0.00475260662
v -0.00395112205 -0.00535192154 0.00438937312
v -0.00466101617 -0.00577360578 0.00385887455
v -0.00406282954 -0.00561580062 0.00353452726
v -0.00477367453 -0.00586148212 0.00360552105
v -0.00446650758 -0.00589365605 0.00281057949
v -0.00419122213 -0.00582070276 0.00262464932
v -0.00415169075 -0.00587656023 0.00199584896
v -0.0028270355 -0.000641662453 0.00816625543
v -0.00282191043 -2.82397689e-10 0.00821263716
v -0.0030951912 3.89935501e-10 0.00848804787
v -0.00107029942 -4.64619954e-10 0.00546740135
v -0.00123945461 -6.66516897e-10 0.00585084315
v -4.27970372e-05 -0.000872827892 -0.00165011233
v -1.20243067e-05 -0.000584822206 -0.00159699994
v -5.26049116e-05 -0.000980091514 -0.00051465194
v -1.70146759e-05 -0.000657454657 -0.000441530021
v -0.000112637521 -0.00108602666 0.000592910626
v -7.35479334e-05 -0.000729183317 0.000685813371
v -0.000227104654 -0.00119127473 0.00166695658
v -0.000185809025 -0.000800451031 0.00177925453
v -0.000400124263 -0.00129628927 0.00270188716
v -0.000357920275 -0.000871570082 0.00283311121
v -0.000635585922 -0.00140099414 0.00369224255
v -0.000593686127 -0.000942491519 0.00384178408
v -0.000937198696 -0.00150502741 0.00463266019
v -0.000896741927 -0.00101297221 0.00479980418
v -0.00130827003 -0.00160744961 0.00551814819
v -0.00127030793 -0.00108237274 0.00570205459
v -0.00171737804 -0.00114988605 0.00654366566
v -0.00222246908 -0.000611138821 0.00745017128
v -0.00231350795 5.5653776e-10 0.00762105547
v -0.000139498588 -0.00143214269 -0.00181715132
v -8.54163591e-05 -0.00115575991 -0.00172371115
v -0.000164313155 -0.00160228345 -0.000744494086
v -0.000101854894 -0.00129571324 -0.000615954108
v -0.000235549538 -0.00177036447 0.00030112578
v -0.000166793281 -0.00143394968 0.000464280922
v -0.000357349927 -0.00193732325 0.00131440943
v -0.000284422305 -0.00157127727 0.00151152525
v -0.000533852726 -0.00210380671 0.00229011988
v -0.000458862109 -0.00170826737 0.00252031279
v -0.000769076752 -0.00226964778 0.00322314072
v -0.000694084389 -0.00184480671 0.00348536158
v -0.00106691534 -0.00243423763 0.00410847925
v -0.000993894762 -0.00198041298 0.0044014724
v -0.00143083464 -0.00259607378 0.00494146161
v -0.00136168092 -0.00211385963 0.0052637849
v -0.00180055981 -0.00224359962 0.00606767135
v -0.00175183441 -0.0017070733 0.00634391792
v -0.00227040378 -0.00180234062 0.00710579474
v -0.00224041543 -0.00121445442 0.00732033793
v -0.00284163048 -0.00127492682 0.00802815147
v -0.00513485121 -0.00275922264 0.00908539072
v -0.00514127966 -0.00337617751 0.00862651225
v -0.0043333061 -0.00328331836 0.00818319246
v -0.00436264323 -0.0038403268 0.00765336258
v -0.00364779378 -0.00371198985 0.00716235628
v -0.00370433438 -0.00420462759 0.0065762517
v -0.00307895616 -0.00404233206 0.00604857318
v -0.00316499057 -0.00447042985 0.00542163523
v -0.00262331916 -0.00427778857 0.00486951321
v -0.00326587493 -0.00484591303 0.00472839968
v -0.00273899361 -0.00464405259 0.00421733735
v -0.00338257407 -0.00516670477 0.00397369126
v -0.00287132291 -0.00496026594 0.00350714615
v -0.0035160894 -0.00543177547 0.00316221407
v -0.00302109751 -0.00522563327 0.00274329167
v -0.00366748706 -0.00564240711 0.00229825708
v -0.00318922359 -0.00544144353 0.00192979339
v -0.00383786089 -0.00580107793 0.00138585467
v -0.0033766597 -0.00561001338 0.00107040722
v -0.000204501324 -0.00170070305 -0.00192962692
v -0.000326097914 -0.00218153698 -0.00107865653
v -0.000239295245 -0.00189807219 -0.000899147359
v -0.000413932663 -0.00240015308 -0.000122768237
v -0.000318180944 -0.00209308369 0.000104907747
v -0.000547353469 -0.00261716638 0.000802610593
v -0.000445226673 -0.00228674733 0.00107744278
v -0.000730397296 -0.00283324788 0.00169270264
v -0.000624549168 -0.00247974601 0.00201345887
v -0.00096712244 -0.00304805278 0.00254290528
v -0.000860211207 -0.00267183594 0.00290807919
v -0.00126148108 -0.00326068676 0.00334870256
v -0.00115615129 -0.00286226976 0.00375652919
v -0.00161700114 -0.00346916937 0.0041059223
v -0.00151590793 -0.00304929097 0.00455438346
v -0.00194268837 -0.00323071866 0.0052973968
v -0.00186404365 -0.00275327545 0.00571767287
v -0.0023690376 -0.0029033951 0.00643318333
v -0.00231306092 -0.00236760639 0.00680908747
v -0.00290136109 -0.0024836699 0.00748428935
v -0.00286617503 -0.00189155096 0.00779993366
v -0.00354075572 -0.00197282992 0.00842327252
v -0.00352268782 -0.0013300369 0.00866399519
v -0.00428498816 -0.00137847767 0.00922513008
v -0.00512944674 -0.00141888799 0.00970961992
v -0.00513123302 -0.00210372149 0.00944769103
v -0.00429550931 -0.00204423303 0.00897315796
v -0.00431129849 -0.00268208934 0.00862464029
v -0.00356702786 -0.00258934358 0.0080903424
v -0.00360237132 -0.00317142764 0.00766859902
v -0.00294798822 -0.00304376404 0.00708443113
v -0.00300690392 -0.00356528908 0.00660441304
v -0.00243898341 -0.00340373814 0.00598186348
v -0.00252353866 -0.00386323407 0.00545918196
v -0.0020368814 -0.00367105636 0.00481057074
v -0.00214702124 -0.00407057768 0.00426124735
v -0.00227352302 -0.00442628143 0.00365353771
v -0.00241690548 -0.00473672058 0.0029915534
v -0.0025777577 -0.0050013368 0.00227934262
v -0.0027567558 -0.00522143347 0.00152057677
v -0.00382887875 -0.00581038976 0.00116043026
v -0.00378467282 -0.0057976814 0.00104602461
v -0.00222246815 0.000611138181 0.00745017081
v -0.00283260015 0.00532541052 -0.00141790404
v -0.00268525607 0.00523030059 -0.00153768272
v -0.00273191137 0.00525391893 -0.00167847867
v -0.00415168656 0.00587655976 0.00199584384
v -0.00383786089 0.00580107747 0.00138585304
v -0.00382887968 0.0058103893 0.00116043212
v -0.00502263289 0.0057972162 0.00424981536
v -0.00466102269 0.00577360531 0.0038588848
v -0.00477367919 0.00586148212 0.00360552734
v -0.0065237768 0.00443868339 0.00813470781
v -0.00670912303 0.00409631338 0.00861438364
v -0.00601463439 0.00402659597 0.00842872635
v -0.000204500931 0.00170070282 -0.00192962668
v -0.000139495736 0.0014321428 -0.00181715528
v -0.0025092382 0.00508039678 -0.00225474592
v -0.00213530264 0.00484798709 -0.00117477891
v -0.00160828303 0.00432581594 -0.00200560899
v -0.00185580063 0.00459189061 -0.00157862483
v -0.00104476954 0.00347924652 -0.00340058142
v -0.000789637561 0.00310026365 -0.00295113819
v -0.000561633322 0.00267745322 -0.0025511696
v -8.54186583e-05 0.00115575979 -0.00172370696
v -0.00606191251 0.000729987631 0.0102797542
v -0.00605661515 0.00144982501 0.0101162121
v -0.00604831288 0.00214911276 0.00984564982
v -0.00603784434 0.00281785266 0.00947141461
v -0.00602620002 0.00344646838 0.00899744313
v -0.00643559499 0.00458201859 0.00790650491
v -0.0061101797 0.00502328947 0.00706433877
v -0.00632397318 0.00474792952 0.00761763612
v -0.00600447133 0.00455067214 0.00777058955
v -0.00521989493 0.00531406747 0.00592606375
v -0.00525940303 0.00564130582 0.00506235939
v -0.00530049438 0.00568146585 0.00496890536
v -0.00582564017 0.0053164917 0.0063279625
v -0.00518969772 0.00492044725 0.00672000693
v -0.00574740069 0.00538436742 0.00612547807
v -0.0055680871 0.00552132493 0.00566142611
v -0.00457699411 0.00551165175 0.00475260569
v -0.00406282395 0.00561580015 0.00353451981
v -0.00419122353 0.00582070183 0.00262465049
v -0.00446650712 0.00589365652 0.00281057972
v -0.00366748706 0.00564240757 0.00229825708
v -0.00295467651 0.00539918523 0.000718712981
v -0.00317261205 0.00553860748 -0.000123355159
v -0.00344498223 0.00567198684 0.00016691575
v -0.00279348972 0.00532340864 -0.000445323531
v -0.00304351258 0.00546181388 -0.000872073753
v -0.00310010277 0.00549537363 -0.000725621649
v -0.00271049514 0.00523816515 -0.00173390913
v -0.00244773435 0.00509249186 -0.00079638022
v -0.00297435629 0.00541906152 -0.0010510491
v -0.0012474634 0.00054445758 0.00581336394
v -0.000872351637 0.000509419246 0.00490095932
v -0.000568402 0.000473837135 0.00393228512
v -0.000332430471 0.000438033574 0.00291251391
v -0.000160849289 0.000402134407 0.00184719113
v 4.49731851e-06 0.000329964008 -0.000397304655
v -4.99016096e-05 0.000366163993 0.000741989061
v -4.27987361e-05 0.000872827659 -0.00165010849
v -1.20226932e-05 0.000584823079 -0.00159700261
v 6.57551664e-06 0.000293307094 -0.0015649061
v -0.00236965041 0.00498574926 0.00107235601
v -0.00218516937 0.00476253219 0.00177244865
v -0.00184197619 0.00451263087 0.00122491771
v -0.000364921172 0.00221004244 -0.00220803637
v -0.00053209404 0.002707229 -0.00150690076
v -0.00042395285 0.00245155138 -0.00128169451
v -0.000641694991 0.00296199485 -0.000665536616
v -0.000522024871 0.00269015459 -0.000380172336
v -0.000791499275 0.00321441377 0.000147795479
v -0.000663008832 0.00292683649 0.000492012652
v -0.000985272927 0.00346498936 0.000928933849
v -0.000850811368 0.00316220592 0.00133033562
v -0.00122683402 0.00371313677 0.00167384185
v -0.00108944008 0.00339580234 0.00213050772
v -0.00151993462 0.00395769114 0.00237861346
v -0.00138276478 0.00362659129 0.00288827508
v -0.00186785206 0.00419633649 0.00303964713
v -0.00173425756 0.0038524 0.00359976059
v -0.000649800873 0.00294819614 -0.00175288657
v -0.000772193889 0.00321529643 -0.000977140851
v -0.000932201569 0.00347947259 -0.000227870478
v -0.00113330793 0.00374107226 0.000491046521
v -0.00137907674 0.00399937388 0.00117589126
v -0.0016729855 0.00425309222 0.00182307081
v -0.0020180475 0.00449982751 0.00242932444
v -0.00202709436 0.00473757181 0.000587134797
v -0.00154594507 0.00425447151 0.000639498874
v -0.00172740675 0.00447962061 6.73115719e-05
v -0.00129448599 0.00399047555 1.9130006e-05
v -0.00146856869 0.00421426678 -0.000484510587
v -0.00108452223 0.00372204091 -0.000632907613
v -0.0012480357 0.00394300604 -0.00106540055
v -0.000912851363 0.00345003791 -0.001313254
v -0.00106314127 0.00366687519 -0.00167229935
v -0.000911206589 0.0033860195 -0.0023019861
v -0.00120424002 0.00376872835 -0.00291918754
v -0.00139157777 0.00405114004 -0.00245332159
v -0.00142251735 0.00414361246 -0.00152350334
v -0.00165549654 0.00441394607 -0.00101771974
v -0.00192361302 0.00467653293 -0.000538162712
v -0.00222871848 0.00492980005 -8.74270117e-05
v -0.00257208594 0.00517151318 0.000332211406
v -0.000326094247 0.00218153722 -0.00107866374
v -0.000413927628 0.00240015308 -0.000122775731
v -0.000547351432 0.00261716684 0.00080260681
v -0.000730395841 0.00283324835 0.00169270218
v -0.000967120985 0.00304805231 0.00254290272
v -0.00126148027 0.00326068723 0.00334870419
v -0.00161700218 0.00346917007 0.00410592277
v -0.002147021 0.00407057721 0.00426124735
v -0.00227352325 0.00442628143 0.00365353515
v -0.0024169127 0.00473672012 0.00299156364
v -0.0025777563 0.00500133727 0.00227934029
v -0.00275675557 0.0052214344 0.00152057689
v -0.00512867933 0.000714334892 0.00986799132
v -0.00427892199 0.000693927461 0.00937750749
v -0.00512944814 0.00141888822 0.00970962085
v -0.00513123348 0.00210372126 0.00944769196
v -0.00428498583 0.00137847732 0.00922512729
v -0.00351203931 0.000669477216 0.00880961865
v -0.00282702711 0.00064166222 0.00816624518
v -0.00513485679 0.00275922264 0.0090853991
v -0.00429550698 0.00204423349 0.00897315331
v -0.00352269132 0.00133003714 0.00866400171
v -0.00514128106 0.00337617728 0.00862651411
v -0.00431130407 0.00268208887 0.00862464868
v -0.00354076154 0.00197282969 0.00842327997
v -0.00284163188 0.00127492694 0.00802815333
v -0.00515171047 0.00394655624 0.00807582866
v -0.00433330983 0.00328331906 0.00818319991
v -0.0035670232 0.00258934335 0.00809033588
v -0.00286616944 0.00189155131 0.00779992621
v -0.00224041543 0.00121445477 0.0073203356
v -0.00169668498 0.000578542589 0.00666455459
v -0.00607252959 0.00506657362 0.00696690707
v -0.00599714508 0.00501300674 0.00702883024
v -0.00516740978 0.00446311664 0.00743847433
v -0.00436264183 0.00384032633 0.00765336351
v -0.00360236806 0.00317142811 0.0076685939
v -0.00290136063 0.00248367037 0.00748428842
v -0.00227040122 0.00180233992 0.00710579008
v -0.00171737035 0.00114988547 0.00654365448
v -1.70173844e-05 0.00065745454 -0.000441525335
v -7.35446665e-05 0.000729183143 0.000685809471
v -0.000185813318 0.000800450565 0.00177925825
v -0.000357918936 0.000871569093 0.00283310981
v -0.00059368962 0.000942491926 0.00384178874
v -0.000896743848 0.00101297221 0.00479980698
v -0.00127030595 0.00108237204 0.00570205087
v -0.00175183918 0.00170707342 0.0063439263
v -0.00231305999 0.00236760592 0.00680908607
v -0.00294799055 0.00304376427 0.00708443439
v -0.00364779611 0.00371198985 0.00716235815
v -0.00440048333 0.00434626313 0.00704005454
v -5.26009426e-05 0.000980092096 -0.000514659332
v -0.000101856916 0.00129571359 -0.000615950674
v -0.000112633701 0.00108602759 0.000592905446
v -0.000166795071 0.00143394887 0.000464283483
v -0.000227106852 0.00119127554 0.00166696042
v -0.000284421374 0.00157127762 0.0015115242
v -0.000400125864 0.00129628927 0.00270189065
v -0.000458865077 0.00170826667 0.00252031768
v -0.000635584001 0.00140099355 0.00369224069
v -0.000694085902 0.00184480636 0.00348536437
v -0.000937197183 0.00150502671 0.00463265972
v -0.00099389418 0.00198041345 0.00440147147
v -0.00130826398 0.00160744973 0.0055181426
v -0.00136168045 0.0021138601 0.00526378443
v -0.00180056214 0.00224359939 0.00606767694
v -0.00186404097 0.00275327545 0.00571767148
v -0.00236904202 0.00290339533 0.00643318938
v -0.00243898155 0.00340373744 0.00598186068
v -0.00300690136 0.00356528955 0.00660440745
v -0.00307895476 0.00404233206 0.00604857318
v -0.00370433368 0.00420462759 0.00657624938
v -0.00377302361 0.0046445406 0.0059153121
v -0.0044480064 0.00479601184 0.00634855218
v -0.00385491014 0.00502775609 0.00518464297
v -0.00450642407 0.00518532982 0.0055842665
v -0.00395111833 0.00535192154 0.00438936707
v -0.000164309036 0.00160228345 -0.000744500256
v -0.000239297558 0.00189807266 -0.000899145147
v -0.000235542524 0.00177036517 0.00030111472
v -0.0003181801 0.00209308346 0.000104904197
v -0.000357347395 0.0019373229 0.0013144043
v -0.00044523098 0.00228674687 0.00107744709
v -0.000533849525 0.00210380671 0.00229011499
v -0.00062455429 0.00247974647 0.00201346423
v -0.000769077393 0.00226964895 0.00322313933
v -0.000860214874 0.00267183571 0.00290808314
v -0.00106691453 0.00243423786 0.00410847738
v -0.00115615153 0.00286226883 0.00375652732
v -0.00143083592 0.00259607355 0.0049414644
v -0.00151590176 0.00304929097 0.00455437507
v -0.00194268848 0.0032307189 0.00529739726
v -0.00203687837 0.00367105566 0.00481056562
v -0.00252353912 0.00386323454 0.00545918243
v -0.00262332521 0.00427778903 0.00486952066
v -0.00316499639 0.00447043125 0.00542164268
v -0.00273899501 0.00464405213 0.00421734015
v -0.00326587446 0.0048459121 0.00472839829
v -0.00287132221 0.00496026594 0.00350714591
v -0.00338257127 0.00516670477 0.00397368707
v -0.00302109774 0.00522563281 0.00274329167
v -0.00351608312 0.00543177454 0.00316220499
v -0.00318922964 0.00544144353 0.00192980038
v -0.00337665761 0.00561001431 0.0010704028
v -0.00378467818 0.00579768186 0.00104603369
v -0.00673777051 0.00133649888 0.00868852623
v -0.00676747086 -0.00147689029 0.00876538735
v -0.00675526541 0.00145983638 0.00873379596
v -0.00677587977 -0.00147680298 0.00878714118
v -0.00675952993 -0.00146880723 0.00874483213
v -0.00676197885 0.0014723494 0.0087511763
v -0.00677958596 0.00147463311 0.00879673474
v -0.00676987739 0.00147763663 0.0087716151
v -0.00675371103 -0.00145549804 0.00872977264
v -0.00674930727 0.00143919082 0.00871837605
v -0.00682950066 0.0013676181 0.00892591476
v -0.00679464545 0.00145566871 0.00883570593
v -0.00674653519 -0.00142491586 0.00871120207
v -0.00673732394 -0.00132818799 0.00868737046
v -0.0069759218 -2.01125957e-07 0.00930485036
v -0.00696785748 -0.000355968281 0.00928397756
v -0.00687652966 -0.0011744739 0.00904762372
v -0.00691260351 -0.000961305923 0.00914098043
v -0.00694643054 -0.000670002715 0.00922852103
v -0.00678816205 -0.00146561954 0.00881892908
v -0.00681344792 -0.00141460239 0.00888437033
v -0.00683447206 -0.001351087 0.00893877726
v -0.00686747488 -0.00121822231 0.00902419165
v -0.00673363684 -0.00113722379 0.00867782533
v -0.00696808333 0.000350958231 0.0092845615
v -0.00694378465 0.000698283606 0.00922167394
v -0.00690420717 0.00101741648 0.00911924802
v -0.00687725097 0.00117084966 0.00904948916
v -0.00673364056 0.00113722344 0.00867782999
v -0.00680663763 0.00124489353 0.00893646944
v -0.00675294315 0.00117861934 0.00879275985
v -0.0068937717 0.000384738814 0.00924074743
v -0.00687964074 -2.98199048e-08 0.0092480639
v -0.00676382147 -7.05830416e-07 0.00891563296
v -0.00677063409 -4.03461229e-07 0.008964248
v -0.0067612729 0.000341486244 0.00889555551
v -0.00678130798 0.000356218632 0.00901630986
v -0.00675629219 0.000581690401 0.00885635056
v -0.00677529722 0.000637476973 0.00896889251
v -0.00674645416 0.000874045887 0.00877879653
v -0.00676583359 0.00091243122 0.00889434945
v -0.00688726548 0.000688864093 0.00918946508
v -0.00687701907 0.000986743951 0.00910870824
v -0.00681880256 -1.50640858e-07 0.00915307179
v -0.00683663553 0.000375754287 0.00917280745
v -0.00683027972 0.000672675553 0.00912273768
v -0.00682027685 0.000963333179 0.00904393382
v -0.00678233849 -0.000281339017 0.00902435929
v -0.00675723096 -0.000545036746 0.00886371452
v -0.00677710958 -0.00056868227 0.00898313988
v -0.00675627543 -0.000582382607 0.00885620806
v -0.00676829973 -0.000850507757 0.00891376659
v -0.00673697796 -0.00107596687 0.00870415196
v -0.00675593596 -0.00112357026 0.00881635677
v -0.00687970268 -0.000919589831 0.00912972353
v -0.00688923476 -0.000614432618 0.00920483656
v -0.00689489907 -0.000303803623 0.00924941618
v -0.00680981809 -0.00118665351 0.00896141492
v -0.00682288967 -0.000897823833 0.00906444341
v -0.00683219172 -0.000600017782 0.00913774408
v -0.0068377112 -0.00029672595 0.00918125547
v -0.00675398996 0.00193776528 0.00873049535
v -0.00674054259 0.00193776505 0.00873220526
v -0.00673364056 0.00200933428 0.00867782999
v -0.00681973994 0.000286741735 0.00935625657
v -0.00698755402 0.00028674127 0.00933495257
v -0.00682127429 3.18104126e-10 0.00936835539
v -0.0069909892 0.000143875179 0.00934383459
v -0.0069920863 -2.91550482e-08 0.00934667978
v -0.0068147392 0.000585101196 0.00931687653
v -0.00680630933 0.000878239982 0.00925044715
v -0.00694795977 0.00087824004 0.00923247728
v -0.00696167117 0.000732243236 0.00926796813
v -0.0069728191 0.000585101312 0.00929681771
v -0.00698145758 0.000436485629 0.00931916758
v -0.00679458492 0.00116082048 0.00915806554
v -0.00677970052 0.00143135374 0.00904077012
v -0.00686948095 0.00143135386 0.00902937911
v -0.00689254142 0.00129784318 0.00908906106
v -0.00691338396 0.00116082083 0.00914299674
v -0.00693194196 0.0010203094 0.00919102877
v -0.00676159933 0.0016914428 0.00889814086
v -0.00678612106 0.00181631476 0.00881365407
v -0.00681609288 0.00169144268 0.0088912202
v -0.00684388168 0.00156313577 0.0089631388
v -0.00673363823 -0.002009399 0.00867782719
v -0.00675509777 -0.00177272642 0.0088469265
v -0.00676628295 -0.00189265725 0.0087623084
v -0.00679693324 -0.00177272584 0.00884162541
v -0.00682633976 -0.00164572103 0.00891773123
v -0.0067742751 -0.00151546858 0.00899802055
v -0.0068534771 -0.0015154687 0.00898796692
v -0.0068783001 -0.00138216245 0.00905220769
v -0.00679032737 -0.00124555267 0.00912451278
v -0.00690082088 -0.00124555291 0.00911048986
v -0.00692068506 -0.00110800995 0.00916189421
v -0.0068030227 -0.000967177213 0.00922451355
v -0.00693824375 -0.000967177213 0.00920734275
v -0.00695333304 -0.000824342598 0.00924638938
v -0.00681239553 -0.000680520665 0.00929837301
v -0.00696589286 -0.000680520956 0.00927888881
v -0.00697605917 -0.000534305873 0.00930520613
v -0.00681845006 -0.000387122738 0.00934608933
v -0.0069837491 -0.000387123495 0.00932510477
v -0.00698898314 -0.00023808112 0.00933865272
v -0.00682114018 -8.80536099e-05 0.00936730579
v -0.00699169561 -8.80540319e-05 0.00934566651
f 1 2 3
f 1 3 4
f 4 3 5
f 4 5 6
f 6 5 7
f 7 5 8
f 7 8 9
f 9 8 10
f 10 8 11
f 10 11 12
f 12 11 13
f 13 11 14
f 13 14 15
f 16 17 18
f 18 17 19
f 18 19 20
f 20 19 21
f 21 19 22
f 21 22 23
f 18 15 16
f 16 15 14
f 16 14 24
f 24 14 11
f 24 11 25
f 25 11 26
f 26 11 8
f 26 8 27
f 27 8 28
f 28 8 5
f 28 5 29
f 29 5 3
f 29 3 30
f 30 3 31
f 31 3 2
f 31 2 32
f 32 2 33
f 33 2 34
f 33 34 35
f 35 34 36
f 37 38 39
f 39 38 40
f 39 40 36
f 36 40 41
f 36 41 35
f 42 43 44
f 44 43 45
f 44 45 46
f 47 48 49
f 49 48 50
f 49 50 51
f 51 50 52
f 51 52 53
f 53 52 54
f 53 54 55
f 49 42 47
f 47 42 44
f 47 44 56
f 56 44 46
f 56 46 57
f 57 46 58
f 59 58 39
f 39 58 46
f 39 46 37
f 37 46 45
f 59 39 60
f 60 39 36
f 60 36 61
f 61 36 34
f 61 34 62
f 62 34 2
f 62 2 1
f 63 64 65
f 20 21 66
f 20 66 18
f 66 67 18
f 18 67 68
f 18 68 15
f 69 65 10
f 68 70 15
f 15 70 71
f 15 71 13
f 13 71 69
f 13 69 12
f 12 69 10
f 4 6 72
f 72 6 7
f 72 7 65
f 65 7 9
f 65 9 10
f 72 73 4
f 4 73 74
f 4 74 1
f 75 76 72
f 72 76 77
f 72 77 73
f 73 77 78
f 73 78 74
f 74 78 79
f 65 64 72
f 72 64 80
f 72 80 75
f 71 81 69
f 69 81 82
f 69 82 65
f 65 82 83
f 65 83 63
f 21 23 66
f 66 23 84
f 66 84 85
f 85 84 86
f 85 86 87
f 87 86 88
f 87 88 89
f 89 88 90
f 50 48 91
f 91 48 92
f 92 48 47
f 92 47 93
f 94 95 96
f 96 95 97
f 97 98 96
f 96 98 99
f 96 99 93
f 93 99 100
f 93 100 92
f 101 102 103
f 103 102 104
f 103 104 105
f 105 104 106
f 105 106 94
f 79 101 74
f 74 101 103
f 74 103 1
f 1 103 62
f 62 103 61
f 61 103 105
f 61 105 60
f 94 96 105
f 105 96 59
f 105 59 60
f 47 56 93
f 93 56 57
f 93 57 96
f 96 57 58
f 96 58 59
f 107 108 109
f 91 110 50
f 50 110 111
f 50 111 52
f 52 111 109
f 52 109 54
f 54 109 108
f 54 108 55
f 109 112 107
f 107 112 113
f 107 113 114
f 114 113 115
f 114 115 116
f 117 118 119
f 120 121 122
f 122 121 123
f 123 121 117
f 117 121 124
f 117 124 118
f 125 126 119
f 119 126 127
f 119 127 117
f 125 128 126
f 126 128 129
f 126 129 130
f 130 129 131
f 130 131 132
f 132 131 133
f 132 133 134
f 135 136 134
f 134 136 137
f 134 137 132
f 135 138 136
f 136 138 139
f 136 139 140
f 140 139 141
f 140 141 142
f 143 144 145
f 122 146 120
f 120 146 147
f 147 146 148
f 148 146 149
f 148 149 150
f 150 149 151
f 150 151 152
f 152 151 153
f 153 151 154
f 153 154 155
f 155 154 156
f 155 156 157
f 144 143 156
f 156 143 158
f 156 158 157
f 159 160 161
f 161 160 162
f 161 162 145
f 145 162 163
f 145 163 143
f 164 165 159
f 159 165 166
f 159 166 160
f 167 168 169
f 169 168 170
f 171 172 173
f 174 175 176
f 177 178 179
f 152 153 180
f 157 158 181
f 163 162 182
f 166 165 183
f 109 184 185
f 92 100 186
f 99 98 187
f 98 97 187
f 187 97 95
f 187 95 188
f 109 111 110
f 184 109 189
f 189 109 110
f 189 110 91
f 115 113 185
f 185 113 112
f 185 112 109
f 185 190 115
f 115 190 191
f 115 191 116
f 116 191 192
f 116 192 193
f 192 194 195
f 196 197 198
f 198 197 199
f 198 199 194
f 194 199 200
f 194 200 195
f 195 200 201
f 195 201 192
f 192 201 202
f 192 202 193
f 203 204 205
f 205 204 206
f 205 206 207
f 172 208 173
f 173 208 209
f 173 209 203
f 203 209 210
f 203 210 204
f 211 212 171
f 171 212 213
f 171 213 172
f 172 213 214
f 172 214 208
f 164 215 216
f 216 215 217
f 166 183 160
f 163 182 143
f 157 181 155
f 147 148 218
f 218 148 150
f 219 220 221
f 221 220 222
f 221 222 223
f 224 225 226
f 226 225 227
f 226 227 219
f 219 227 228
f 219 228 220
f 101 79 229
f 229 79 230
f 229 230 231
f 231 230 232
f 231 232 233
f 233 232 234
f 233 234 224
f 224 234 235
f 224 235 225
f 236 177 237
f 185 238 190
f 190 238 239
f 190 239 191
f 191 239 240
f 191 240 192
f 192 240 241
f 192 241 194
f 194 241 242
f 194 242 198
f 198 242 243
f 198 243 196
f 236 237 244
f 244 237 245
f 244 245 246
f 246 245 247
f 246 247 248
f 248 247 249
f 248 249 250
f 250 249 251
f 250 251 252
f 177 179 237
f 237 179 253
f 237 253 245
f 245 253 254
f 245 254 247
f 247 254 255
f 247 255 249
f 249 255 256
f 249 256 251
f 100 99 186
f 186 99 187
f 186 187 257
f 258 252 259
f 259 252 251
f 259 251 260
f 260 251 256
f 260 256 261
f 261 256 255
f 261 255 262
f 262 255 254
f 262 254 263
f 263 254 253
f 263 253 264
f 264 253 179
f 264 179 265
f 265 179 178
f 265 178 266
f 91 92 189
f 189 92 186
f 189 186 184
f 184 186 257
f 184 257 185
f 185 257 267
f 185 267 238
f 267 268 238
f 238 268 269
f 238 269 239
f 239 269 270
f 239 270 240
f 240 270 271
f 240 271 241
f 241 271 272
f 241 272 242
f 242 272 273
f 242 273 243
f 243 273 274
f 243 274 196
f 275 276 277
f 278 279 280
f 165 164 183
f 183 164 216
f 183 216 281
f 281 216 282
f 281 282 283
f 283 282 284
f 283 284 285
f 285 284 286
f 285 286 287
f 287 286 288
f 287 288 289
f 289 288 290
f 289 290 291
f 217 211 216
f 216 211 171
f 216 171 282
f 282 171 173
f 282 173 284
f 284 173 203
f 284 203 286
f 286 203 205
f 286 205 288
f 288 205 207
f 288 207 290
f 290 207 292
f 290 292 291
f 291 292 293
f 291 293 294
f 294 293 295
f 296 297 298
f 222 299 223
f 223 299 300
f 223 300 167
f 301 302 303
f 303 302 304
f 303 304 305
f 305 304 306
f 305 306 307
f 307 306 308
f 307 308 309
f 309 308 310
f 309 310 311
f 311 310 312
f 311 312 313
f 313 312 314
f 313 314 315
f 315 314 316
f 315 316 317
f 317 316 169
f 317 169 318
f 318 169 170
f 318 170 319
f 320 321 322
f 322 321 323
f 322 323 324
f 324 323 325
f 324 325 326
f 326 325 327
f 326 327 328
f 328 327 329
f 328 329 330
f 330 329 331
f 330 331 332
f 332 331 333
f 332 333 334
f 334 333 335
f 334 335 336
f 336 335 337
f 336 337 338
f 338 337 339
f 338 339 340
f 340 339 296
f 340 296 278
f 278 296 298
f 278 298 279
f 167 169 223
f 223 169 316
f 223 316 221
f 221 316 314
f 221 314 219
f 219 314 312
f 219 312 226
f 226 312 310
f 226 310 224
f 224 310 308
f 224 308 233
f 233 308 306
f 233 306 231
f 231 306 304
f 231 304 229
f 229 304 302
f 229 302 101
f 101 302 301
f 101 301 102
f 158 143 181
f 181 143 182
f 181 182 341
f 341 182 342
f 341 342 343
f 343 342 344
f 343 344 345
f 345 344 346
f 345 346 347
f 347 346 348
f 347 348 349
f 349 348 350
f 349 350 351
f 351 350 352
f 351 352 353
f 353 352 354
f 353 354 355
f 355 354 356
f 355 356 357
f 357 356 358
f 357 358 359
f 188 360 361
f 361 360 362
f 361 362 363
f 363 362 364
f 363 364 365
f 365 364 366
f 365 366 367
f 367 366 368
f 367 368 369
f 369 368 370
f 369 370 371
f 371 370 372
f 371 372 373
f 373 372 374
f 373 374 375
f 375 374 376
f 375 376 377
f 377 376 378
f 377 378 379
f 379 378 380
f 379 380 381
f 381 380 382
f 381 382 383
f 383 382 275
f 383 275 174
f 174 275 277
f 174 277 175
f 150 152 218
f 218 152 180
f 218 180 384
f 384 180 385
f 384 385 386
f 386 385 387
f 386 387 388
f 388 387 389
f 388 389 390
f 390 389 391
f 390 391 392
f 392 391 393
f 392 393 394
f 394 393 395
f 394 395 236
f 236 395 396
f 236 396 177
f 177 396 397
f 177 397 178
f 178 397 398
f 178 398 266
f 266 398 399
f 360 320 362
f 362 320 322
f 362 322 364
f 364 322 324
f 364 324 366
f 366 324 326
f 366 326 368
f 368 326 328
f 368 328 370
f 370 328 330
f 370 330 372
f 372 330 332
f 372 332 374
f 374 332 334
f 374 334 376
f 376 334 336
f 376 336 378
f 378 336 338
f 378 338 380
f 380 338 340
f 380 340 382
f 382 340 278
f 382 278 275
f 275 278 280
f 275 280 276
f 153 155 180
f 180 155 181
f 180 181 385
f 385 181 341
f 385 341 387
f 387 341 343
f 387 343 389
f 389 343 345
f 389 345 391
f 391 345 347
f 391 347 393
f 393 347 349
f 393 349 395
f 395 349 351
f 395 351 396
f 396 351 353
f 396 353 397
f 397 353 355
f 397 355 398
f 398 355 357
f 398 357 399
f 399 357 359
f 95 94 188
f 188 94 106
f 188 106 360
f 360 106 104
f 360 104 320
f 320 104 102
f 320 102 321
f 321 102 301
f 321 301 323
f 323 301 303
f 323 303 325
f 325 303 305
f 325 305 327
f 327 305 307
f 327 307 329
f 329 307 309
f 329 309 331
f 331 309 311
f 331 311 333
f 333 311 313
f 333 313 335
f 335 313 315
f 335 315 337
f 337 315 317
f 337 317 339
f 339 317 318
f 339 318 296
f 296 318 319
f 296 319 297
f 162 160 182
f 182 160 183
f 182 183 342
f 342 183 281
f 342 281 344
f 344 281 283
f 344 283 346
f 346 283 285
f 346 285 348
f 348 285 287
f 348 287 350
f 350 287 289
f 350 289 352
f 352 289 291
f 352 291 354
f 354 291 294
f 354 294 356
f 356 294 295
f 356 295 358
f 358 295 400
f 358 400 359
f 359 400 401
f 120 147 176
f 176 147 218
f 176 218 174
f 174 218 384
f 174 384 383
f 383 384 386
f 383 386 381
f 381 386 388
f 381 388 379
f 379 388 390
f 379 390 377
f 377 390 392
f 377 392 375
f 375 392 394
f 375 394 373
f 373 394 236
f 373 236 371
f 371 236 244
f 371 244 369
f 369 244 246
f 369 246 367
f 367 246 248
f 367 248 365
f 365 248 250
f 365 250 363
f 363 250 252
f 363 252 361
f 361 252 258
f 361 258 188
f 188 258 259
f 188 259 187
f 187 259 260
f 187 260 257
f 257 260 261
f 257 261 267
f 267 261 262
f 267 262 268
f 268 262 263
f 268 263 269
f 269 263 264
f 269 264 270
f 270 264 265
f 270 265 271
f 271 265 266
f 271 266 272
f 272 266 399
f 272 399 273
f 273 399 359
f 273 359 274
f 274 359 401
f 402 170 168
f 403 404 405
f 406 407 408
f 409 410 411
f 412 413 414
f 75 415 416
f 90 417 418
f 87 89 419
f 419 89 90
f 419 90 420
f 420 90 418
f 71 70 421
f 421 70 68
f 83 82 422
f 422 82 81
f 422 81 71
f 80 64 423
f 423 64 63
f 423 63 83
f 75 416 76
f 76 416 424
f 76 424 77
f 230 79 78
f 118 124 425
f 425 124 121
f 128 125 426
f 426 125 119
f 133 131 427
f 427 131 129
f 138 135 428
f 428 135 134
f 142 141 429
f 429 141 139
f 412 414 430
f 431 432 433
f 434 435 436
f 437 438 439
f 439 438 434
f 439 434 440
f 440 434 436
f 410 409 441
f 442 443 444
f 407 406 445
f 446 447 448
f 449 450 451
f 405 404 452
f 417 452 418
f 418 452 404
f 418 404 453
f 453 404 403
f 453 403 449
f 449 403 454
f 449 454 450
f 455 300 299
f 455 299 456
f 456 299 222
f 456 222 457
f 222 220 457
f 457 220 228
f 457 228 458
f 458 228 227
f 458 227 459
f 232 460 234
f 234 460 461
f 234 461 235
f 235 461 459
f 235 459 225
f 225 459 227
f 424 462 77
f 77 462 463
f 77 463 78
f 78 463 464
f 78 464 230
f 230 464 232
f 465 466 467
f 80 423 468
f 468 423 469
f 468 469 470
f 470 469 471
f 470 471 472
f 472 471 473
f 472 473 474
f 474 473 475
f 474 475 476
f 476 475 477
f 476 477 478
f 478 477 479
f 478 479 480
f 480 479 481
f 480 481 482
f 83 422 423
f 423 422 483
f 423 483 469
f 469 483 484
f 469 484 471
f 471 484 485
f 471 485 473
f 473 485 486
f 473 486 475
f 475 486 487
f 475 487 477
f 477 487 488
f 477 488 479
f 479 488 489
f 479 489 481
f 465 467 490
f 490 467 491
f 490 491 492
f 492 491 493
f 492 493 494
f 494 493 495
f 494 495 496
f 496 495 497
f 496 497 498
f 498 497 499
f 498 499 500
f 500 499 421
f 500 421 66
f 66 421 68
f 66 68 67
f 85 87 501
f 501 87 419
f 501 419 502
f 502 419 420
f 502 420 503
f 503 420 418
f 503 418 504
f 504 418 453
f 504 453 505
f 505 453 449
f 505 449 506
f 66 85 500
f 500 85 501
f 500 501 498
f 498 501 502
f 498 502 496
f 496 502 503
f 496 503 494
f 494 503 504
f 494 504 492
f 492 504 505
f 492 505 490
f 490 505 506
f 490 506 465
f 71 421 422
f 422 421 499
f 422 499 483
f 483 499 497
f 483 497 484
f 484 497 495
f 484 495 485
f 485 495 493
f 485 493 486
f 486 493 491
f 486 491 487
f 487 491 467
f 487 467 488
f 488 467 466
f 488 466 489
f 75 80 415
f 415 80 468
f 415 468 507
f 507 468 470
f 507 470 508
f 508 470 472
f 508 472 509
f 509 472 474
f 509 474 510
f 510 474 476
f 510 476 511
f 511 476 478
f 511 478 512
f 512 478 480
f 512 480 513
f 513 480 482
f 513 482 514
f 514 482 481
f 514 481 515
f 515 481 489
f 515 489 516
f 516 489 466
f 516 466 517
f 517 466 465
f 517 465 518
f 518 465 506
f 518 506 446
f 446 506 449
f 446 449 447
f 447 449 451
f 447 451 448
f 519 426 425
f 425 426 119
f 425 119 118
f 277 519 175
f 175 519 425
f 175 425 176
f 176 425 121
f 176 121 120
f 520 276 280
f 129 128 427
f 427 128 426
f 427 426 521
f 521 426 519
f 521 519 520
f 520 519 277
f 520 277 276
f 134 133 428
f 428 133 427
f 428 427 522
f 522 427 521
f 522 521 523
f 523 521 520
f 523 520 524
f 524 520 280
f 524 280 279
f 298 297 525
f 525 297 319
f 139 138 429
f 429 138 428
f 429 428 526
f 526 428 522
f 526 522 527
f 527 522 523
f 527 523 528
f 528 523 524
f 528 524 525
f 525 524 279
f 525 279 298
f 413 142 414
f 414 142 429
f 414 429 529
f 529 429 526
f 529 526 530
f 530 526 527
f 530 527 531
f 531 527 528
f 531 528 532
f 532 528 525
f 532 525 402
f 402 525 319
f 402 319 170
f 432 430 433
f 433 430 414
f 433 414 533
f 533 414 529
f 533 529 534
f 534 529 530
f 534 530 535
f 535 530 531
f 535 531 536
f 536 531 532
f 536 532 537
f 537 532 402
f 537 402 538
f 538 402 168
f 538 168 167
f 539 431 540
f 540 431 433
f 540 433 541
f 541 433 533
f 541 533 542
f 542 533 534
f 542 534 543
f 543 534 535
f 543 535 544
f 544 535 536
f 544 536 545
f 545 536 537
f 545 537 546
f 546 537 538
f 546 538 455
f 455 538 167
f 455 167 300
f 460 547 461
f 461 547 548
f 461 548 459
f 459 548 549
f 459 549 458
f 458 549 550
f 458 550 457
f 457 550 551
f 457 551 456
f 456 551 552
f 456 552 455
f 455 552 553
f 455 553 546
f 546 553 554
f 546 554 545
f 545 554 555
f 545 555 544
f 544 555 556
f 544 556 543
f 543 556 557
f 543 557 542
f 542 557 558
f 542 558 541
f 541 558 438
f 541 438 540
f 540 438 437
f 540 437 539
f 559 560 561
f 561 560 562
f 561 562 563
f 563 562 564
f 563 564 565
f 565 564 566
f 565 566 567
f 567 566 568
f 567 568 569
f 569 568 570
f 569 570 571
f 571 570 572
f 571 572 573
f 573 572 574
f 573 574 575
f 575 574 576
f 575 576 577
f 577 576 578
f 577 578 579
f 579 578 580
f 579 580 581
f 581 580 582
f 581 582 583
f 583 582 584
f 583 584 441
f 441 584 442
f 441 442 410
f 410 442 444
f 410 444 411
f 585 586 587
f 587 586 588
f 587 588 589
f 589 588 590
f 589 590 591
f 591 590 592
f 591 592 593
f 593 592 594
f 593 594 595
f 595 594 596
f 595 596 597
f 597 596 598
f 597 598 599
f 599 598 600
f 599 600 601
f 601 600 602
f 601 602 603
f 603 602 604
f 603 604 605
f 605 604 606
f 605 606 607
f 607 606 608
f 607 608 609
f 609 608 610
f 609 610 445
f 445 610 611
f 445 611 407
f 407 611 612
f 407 612 408
f 560 585 562
f 562 585 587
f 562 587 564
f 564 587 589
f 564 589 566
f 566 589 591
f 566 591 568
f 568 591 593
f 568 593 570
f 570 593 595
f 570 595 572
f 572 595 597
f 572 597 574
f 574 597 599
f 574 599 576
f 576 599 601
f 576 601 578
f 578 601 603
f 578 603 580
f 580 603 605
f 580 605 582
f 582 605 607
f 582 607 584
f 584 607 609
f 584 609 442
f 442 609 445
f 442 445 443
f 443 445 406
f 443 406 444
f 547 559 548
f 548 559 561
f 548 561 549
f 549 561 563
f 549 563 550
f 550 563 565
f 550 565 551
f 551 565 567
f 551 567 552
f 552 567 569
f 552 569 553
f 553 569 571
f 553 571 554
f 554 571 573
f 554 573 555
f 555 573 575
f 555 575 556
f 556 575 577
f 556 577 557
f 557 577 579
f 557 579 558
f 558 579 581
f 558 581 438
f 438 581 583
f 438 583 434
f 434 583 441
f 434 441 435
f 435 441 409
f 435 409 436
f 232 464 460
f 460 464 463
f 460 463 547
f 547 463 462
f 547 462 559
f 559 462 424
f 559 424 560
f 560 424 416
f 560 416 585
f 585 416 415
f 585 415 586
f 586 415 507
f 586 507 588
f 588 507 508
f 588 508 590
f 590 508 509
f 590 509 592
f 592 509 510
f 592 510 594
f 594 510 511
f 594 511 596
f 596 511 512
f 596 512 598
f 598 512 513
f 598 513 600
f 600 513 514
f 600 514 602
f 602 514 515
f 602 515 604
f 604 515 516
f 604 516 606
f 606 516 517
f 606 517 608
f 608 517 518
f 608 518 610
f 610 518 446
f 610 446 611
f 611 446 448
f 611 448 612
f 84 23 613
f 217 215 614
f 437 439 615
f 614 215 616
f 214 213 617
f 617 213 212
f 617 212 614
f 614 212 211
f 614 211 217
f 430 432 618
f 618 432 431
f 618 431 615
f 615 431 539
f 615 539 437
f 619 142 620
f 620 142 413
f 620 413 618
f 618 413 412
f 618 412 430
f 206 204 621
f 451 450 613
f 406 622 444
f 444 622 411
f 623 137 624
f 624 137 136
f 624 136 619
f 619 136 140
f 619 140 142
f 204 210 621
f 621 210 209
f 621 209 617
f 617 209 208
f 617 208 214
f 401 400 625
f 625 400 295
f 193 202 626
f 439 440 615
f 615 440 436
f 615 436 622
f 622 436 409
f 622 409 411
f 450 454 613
f 613 454 403
f 613 403 405
f 146 627 628
f 629 156 630
f 630 156 154
f 630 154 631
f 631 154 151
f 631 151 628
f 628 151 149
f 628 149 146
f 215 164 616
f 616 164 159
f 616 159 632
f 632 159 161
f 632 161 633
f 633 161 145
f 633 145 634
f 634 145 144
f 634 144 635
f 635 144 156
f 635 156 629
f 295 293 625
f 625 293 292
f 625 292 621
f 621 292 207
f 621 207 206
f 202 201 626
f 626 201 200
f 626 200 199
f 199 197 626
f 626 197 196
f 626 196 625
f 625 196 274
f 625 274 401
f 42 49 636
f 406 408 622
f 622 408 612
f 622 612 613
f 613 612 448
f 613 448 451
f 405 452 613
f 613 452 417
f 613 417 90
f 146 122 627
f 627 122 123
f 627 123 637
f 637 123 117
f 637 117 638
f 638 117 127
f 638 127 639
f 639 127 126
f 639 126 640
f 640 126 130
f 640 130 623
f 623 130 132
f 623 132 137
f 31 32 641
f 641 32 33
f 641 33 35
f 613 23 641
f 641 23 22
f 641 22 19
f 90 88 613
f 613 88 86
f 613 86 84
f 53 55 626
f 626 55 108
f 626 108 107
f 107 114 626
f 626 114 116
f 626 116 193
f 641 27 28
f 35 41 641
f 641 41 40
f 641 40 636
f 636 40 38
f 636 38 37
f 19 17 641
f 641 17 16
f 641 16 24
f 636 49 626
f 626 49 51
f 626 51 53
f 37 45 636
f 636 45 43
f 636 43 42
f 28 29 641
f 641 29 30
f 641 30 31
f 24 25 641
f 641 25 26
f 641 26 27
f 624 642 623
f 622 613 643
f 644 645 627
f 646 647 648
f 648 647 649
f 648 649 650
f 650 649 651
f 650 651 652
f 613 641 643
f 643 641 652
f 643 652 653
f 653 652 651
f 618 615 620
f 620 615 642
f 620 642 619
f 619 642 624
f 627 637 644
f 644 637 638
f 644 638 654
f 654 638 639
f 654 639 655
f 655 639 640
f 647 656 649
f 649 656 657
f 649 657 651
f 651 657 658
f 651 658 653
f 653 658 659
f 653 659 643
f 643 659 642
f 643 642 622
f 622 642 615
f 656 645 657
f 657 645 644
f 657 644 658
f 658 644 654
f 658 654 659
f 659 654 655
f 659 655 642
f 642 655 640
f 642 640 623
f 647 646 660
f 660 646 661
f 660 661 662
f 662 661 663
f 662 663 664
f 664 663 665
f 664 665 666
f 666 665 636
f 628 627 645
f 667 631 668
f 668 631 628
f 668 628 669
f 669 628 645
f 635 629 667
f 667 629 630
f 667 630 631
f 616 632 670
f 670 632 633
f 670 633 634
f 626 625 670
f 614 616 617
f 617 616 670
f 617 670 621
f 621 670 625
f 636 626 666
f 666 626 670
f 666 670 664
f 664 670 671
f 664 671 662
f 662 671 672
f 662 672 660
f 660 672 673
f 660 673 647
f 647 673 656
f 634 635 670
f 670 635 671
f 671 635 667
f 671 667 672
f 672 667 668
f 672 668 673
f 673 668 669
f 673 669 656
f 656 669 645
f 641 636 652
f 652 636 650
f 636 665 650
f 650 665 663
f 650 663 648
f 648 663 661
f 648 661 646
f 674 675 676
f 677 678 679
f 679 678 680
f 679 680 681
f 682 683 684
f 684 685 682
f 682 685 686
f 682 686 677
f 677 686 687
f 677 687 678
f 688 689 690
f 690 691 688
f 688 691 692
f 688 692 683
f 683 692 693
f 683 693 684
f 675 674 694
f 674 695 694
f 694 695 696
f 694 696 689
f 689 696 697
f 689 697 690
f 698 699 700
f 700 699 701
f 701 699 702
f 702 699 703
f 702 703 704
f 704 703 705
f 705 703 706
f 705 706 707
f 707 706 708
f 708 706 709
f 708 709 710
f 710 709 711
f 711 709 712
f 711 712 713
f 713 712 714
f 714 712 715
f 714 715 716
f 716 715 717
f 717 715 718
f 717 718 719
f 719 718 679
f 719 679 681
f 698 676 675
f 677 679 698
f 698 679 718
f 698 718 699
f 675 694 698
f 698 694 689
f 698 689 688
f 718 715 699
f 699 715 712
f 699 712 703
f 703 712 709
f 703 709 706
f 688 683 698
f 698 683 682
f 698 682 677
f 719 681 698
f 698 700 719
f 719 700 701
f 719 701 717
f 696 695 698
f 698 695 674
f 698 674 676
f 704 713 702
f 702 713 714
f 702 714 701
f 701 714 716
f 701 716 717
f 681 680 698
f 698 680 678
f 698 678 687
f 691 690 698
f 698 690 697
f 698 697 696
f 708 704 707
f 707 704 705
f 708 710 704
f 704 710 711
f 704 711 713
f 687 686 698
f 698 686 685
f 698 685 684
f 684 693 698
f 698 693 692
f 698 692 691
