# Converted from right_thumb_distal_link.STL for Drake collision support
v -0.0080785593 0.00301890587 0.0043506613
v -0.00690000178 0.00301890611 0.0043506613
v -0.00774700614 0.00291765505 0.00476470916
v -0.00770189846 0.00290972996 0.00481745508
v -0.00759062776 0.0028975117 0.00494443625
v -0.00689999992 0.0028977138 0.00494090049
v -0.00738792447 0.0029020193 0.00516513549
v -0.00690000271 0.0028974202 0.00510554947
v -0.00708886981 0.00296124909 0.00546801928
v -0.00687931711 0.00294513232 0.00540792337
v -0.00697037624 0.00299713435 0.00558104785
v -0.00683206506 0.00299742259 0.00558186183
v -0.00681190146 0.00301434891 0.00562840141
v -0.00677913148 0.00306733116 0.00575576024
v -0.0066810213 0.0030990208 0.00582194654
v -0.00646383408 0.00321821822 0.00602497905
v -0.00689999806 0.00218465156 0.00506224809
v -0.00690000132 0.00394156575 0.00112874655
v -0.00690000039 0.00348189892 0.00216480112
v -0.00689999852 0.00267027039 0.00311121391
v -0.00689999899 0.00201943493 0.00356817571
v -0.00690000178 0.00156662543 0.00381844374
v -0.00689999759 0.00120408076 0.00412180787
v -0.00690000178 0.0011079656 0.00434339372
v -0.00689999992 0.00147209095 0.00501600886
v -0.00690000039 0.00134201429 0.00489437161
v -0.00689999945 0.00113357254 0.0045803641
v 0.0068759406 0.00196866901 0.00536745833
v -0.00687597739 0.00196866994 0.00536745926
v 0.00688282214 0.00189879816 0.00532238418
v -0.00689972145 0.00152744993 0.00506172003
v 0.00689999992 0.00147205021 0.00501584727
v 0.00690000225 0.00134201488 0.00489437068
v 0.00690000039 0.00113357557 0.00458036223
v 0.00689999852 0.0011079635 0.00434339279
v 0.00689999992 0.001204081 0.00412180554
v 0.00690000039 0.00156662147 0.00381844747
v 0.00690000132 0.00201943796 0.00356817362
v 0.00807855837 0.00301890168 0.00435066177
v 0.007946169 0.00297110341 0.00452204887
v 0.00690000318 0.00301890424 0.00435066177
v 0.00761908432 0.00289963116 0.00491236942
v 0.00690000039 0.00289771147 0.00494089955
v 0.00759363687 0.00289770355 0.00494105928
v 0.00689999852 0.00289742323 0.00510550477
v 0.00755310059 0.00289576803 0.00498629408
v 0.00689538475 0.00291475933 0.00526190875
v 0.00723944744 0.00292506116 0.00531877205
v 0.00685133599 0.00297896122 0.00552665163
v 0.0069700703 0.00299723842 0.00558133563
v 0.00690056477 0.00302103697 0.00564589584
v 0.00684471149 0.0030415873 0.00569688482
v 0.00673102587 0.00306956074 0.00576062733
v 0.00646382431 0.00321821705 0.00602497952
v 0.00690000132 0.00218460336 0.00506247301
v 0.00690000039 0.00394156668 0.00112874922
v 0.00689999619 0.00348189962 0.00216480251
v 0.00690000132 0.00267027342 0.00311121205
v 0.00687866053 0.00235905102 0.00537694804
v 0.00678831851 0.00238663075 0.0056362045
v 0.00646408089 0.00309395394 0.00601816084
v 0.00662271958 0.00273707416 0.00586153427
v 0.00646434072 0.00296993623 0.00601126114
v 0.00934617501 0.00380949769 0.00183896022
v 0.0093178926 0.00371301058 0.00192683993
v 0.00946344156 0.00387463882 0.001362451
v 0.00702399341 0.00329849403 0.00554884411
v 0.00694806129 0.00303359446 0.00560359983
v 0.00742317457 0.0031200021 0.00514168246
v 0.00721913762 0.00332534499 0.00536307227
v 0.00785621628 0.00320889289 0.00465199351
v 0.00781119196 0.00341319735 0.00472068414
v 0.00824400317 0.00329899136 0.00413886132
v 0.00833048299 0.00350098335 0.00402551144
v 0.00858578458 0.00338947657 0.00360436318
v 0.00844925921 0.0035271605 0.00384261273
v 0.00876264181 0.00360258296 0.00329905073
v 0.00887983292 0.00347925117 0.00305243395
v 0.00895959791 0.00365871214 0.0028957841
v 0.00912531093 0.00356744439 0.00248567923
v 0.00910623278 0.00370831834 0.00254954421
v 0.00852739345 0.00320832129 0.00368921901
v 0.00872669742 0.0033076175 0.00334246829
v 0.00906015374 0.00350721297 0.00264549139
v 0.00628474681 0.00320746773 0.00616246276
v 0.00950962584 0.00394156761 0.00112874841
v 0.00948754884 0.00390810287 0.00124558841
v 0.00519420626 0.0043665804 0.00690928428
v 0.00581876794 0.00375175988 0.00651302189
v 0.00614371663 0.00453654677 0.00631576637
v 0.00647529634 0.004606965 0.00606986927
v 0.00703985384 0.00474312995 0.00559437228
v 0.00761350477 0.00490766764 0.00501982076
v 0.00781798828 0.00497441785 0.00478673354
v 0.00851714239 0.00524880225 0.00382858701
v 0.00897736289 0.005492853 0.00297637051
v 0.00907845423 0.00555850519 0.00274710357
v 0.00934462249 0.00577059016 0.00200651865
v 0.00949478149 0.00594058121 0.00141290925
v 0.00952852424 0.00397143234 0.00101869937
v 0.00956507679 0.00605417741 0.00101623335
v 0.00954652764 0.0039995499 0.000901997904
v 0.00959028117 0.00406577019 0.000528683595
v 0.00961751398 0.00409929734 -7.58406895e-05
v 0.00963290315 0.00521628093 1.25667509e-06
v 0.00963784754 0.00632595411 6.71937814e-05
v -0.00519420626 0.0043665776 0.00690928614
v -0.00669420511 0.00260936259 0.0057794177
v -0.00678353384 0.00240075518 0.00564528862
v -0.0056999512 0.0038779208 0.00659439387
v -0.00628475519 0.00320746074 0.00616245624
v -0.00646434119 0.00296993065 0.00601126347
v -0.0068233409 0.00226808991 0.00555997994
v -0.00687872618 0.00236242823 0.00537689682
v -0.00646408321 0.00309391227 0.00601815712
v -0.00926386844 0.0036638556 0.00209849305
v -0.00946344808 0.0038746458 0.0013624368
v -0.00948754884 0.00390810613 0.00124558283
v -0.00950962678 0.00394156482 0.00112874736
v -0.0083983317 0.00314961979 0.0038941931
v -0.00879813917 0.00334629812 0.00320741162
v -0.00912308972 0.00355176767 0.0024899093
v 0.00538430223 0.00147526106 -0.00583838113
v 0.00724237692 0.00146526156 -0.00579881389
v 0.00538430223 0.00117820967 -0.00466279034
v 0.00789700542 0.00127621042 -0.00505063357
v 0.00817890652 0.00117821072 -0.00466279127
v 0.00538430503 0.00182866119 -0.0072369664
v 0.00607229257 0.00171634194 -0.00679246522
v 0.00670719147 0.00159121712 -0.00629726984
v 0.00869358424 0.00162076461 -0.00376604917
v 0.00441110693 0.0016207631 -0.00376604707
v 0.0045271758 0.00149651978 -0.00381990476
v 0.00862776395 0.00134337146 -0.00390442088
v 0.00458642421 0.0014013343 -0.00386866624
v 0.00858781673 0.0012512065 -0.00398307526
v 0.0047338577 0.00125110417 -0.00398306828
v 0.00475168834 0.00123854785 -0.00399702322
v 0.00855032541 0.00119610608 -0.00405407045
v 0.00848321617 0.00114265946 -0.00417564576
v 0.0049501434 0.00114625797 -0.00416318141
v 0.00505629415 0.0011261442 -0.00426502898
v 0.00845877081 0.00113278162 -0.0042183972
v 0.00832553301 0.00113092479 -0.00443930924
v 0.00515286345 0.0011241131 -0.00436808215
v 0.00510314573 0.00190076523 -0.00739079295
v 0.00505310064 0.00152188097 -0.00582660129
v 0.00486298092 0.0020396139 -0.00750060892
v 0.00475390442 0.00168831903 -0.00578454463
v 0.00475529907 0.0021312444 -0.00754233636
v 0.00452717533 0.00197466859 -0.00571219064
v 0.00452717487 0.00245281728 -0.007604477
v 0.00466051837 0.00223509641 -0.00757389562
v 0.00440522004 0.00260317535 -0.00763711752
v 0.00389289274 0.00171462912 -0.00372424955
v 0.00389289367 0.0027515071 -0.00782771222
v 0.00419066334 0.00169928011 -0.003731278
v 0.00416645268 0.0027120423 -0.00772382505
v 0.00427976018 0.00167980418 -0.00374008622
v -0.00200000009 -0.0013313177 -0.00606908789
v 0.00199999916 -0.00133131817 -0.00606908835
v -0.00199999986 -0.00142231921 -0.00650472706
v 0.00200000172 -0.001422317 -0.00650472706
v -0.00199999847 -0.00131528801 -0.006936708
v 0.00200000033 -0.00131528825 -0.0069367066
v -0.0019999994 -0.00103142823 -0.00727946963
v 0.00199999986 -0.00103142881 -0.00727946963
v -0.00200000126 -0.000626961468 -0.00746512739
v 0.001999998 -0.000626961992 -0.00746512786
v -0.00200000219 -0.000181995783 -0.00745690707
v 0.00200000219 -0.000181995827 -0.00745690614
v -0.00200000126 0.000215339882 -0.0072564357
v 0.00200000056 0.000215337015 -0.00725643523
v -0.00200000149 0.000486342033 -0.0069034216
v 0.00200000009 0.000486344332 -0.0069034216
v -0.00199999847 0.000573165307 -0.00639311643
v 0.00200000079 0.000573164783 -0.0063931169
v -0.001999998 0.000393203722 -0.00590776699
v 0.00199999847 0.000393205526 -0.00590776838
v -0.00199999986 -5.32213289e-06 -0.00557742314
v 0.00199999986 -5.32298191e-06 -0.00557742501
v -0.00199999893 -0.000515624823 -0.00549060013
v 0.00200000079 -0.000515625637 -0.00549060199
v -0.00199999823 -0.00100097375 -0.00567056146
v 0.00200000103 -0.00100097433 -0.00567056192
v -0.00199999963 2.45812885e-06 -0.00905612949
v -0.00133832358 2.04184507e-05 -0.00913471729
v -0.00105178787 -0.000504795928 -0.00919636246
v -0.00103919313 -0.00273443689 -0.00792181492
v -0.00200000079 -0.00225972314 -0.0083757136
v -0.00104171224 -0.00240748446 -0.00834481884
v -0.0019999987 -0.00195812224 -0.0086221518
v -0.00104423019 -0.0020044921 -0.00869584735
v -0.00200000103 -0.00162722857 -0.0088191852
v -0.00104674941 -0.0015403186 -0.00896101259
v -0.0019999994 -0.00101771008 -0.00903529022
v -0.00104926841 -0.00103369739 -0.00913022924
v -0.00199999893 -0.000831209007 -0.00906922668
v -0.00200000196 -0.000507838267 -0.00909566041
v -0.00200000009 -0.00290552666 -0.00741326623
v -0.00200000033 -0.00276956172 -0.00770871015
v -0.00200000009 -0.00267105293 -0.00787699874
v -0.00103667413 -0.00297206314 -0.0074428753
v -0.00103415421 -0.00311180484 -0.00692721736
v -0.00200000056 -0.0030454197 -0.00691273948
v -0.00200000149 -0.00308488752 -0.00639257859
v 4.38939024e-11 -0.00317078899 -0.00639480492
v -0.00200000056 -0.00305953133 -0.00607899809
v -9.47919632e-10 -0.00310034282 -0.00586048653
v -0.0019999994 -0.0030224591 -0.00587388873
v -1.19219234e-09 -0.00292685418 -0.00535063818
v -0.00200000056 -0.00281110685 -0.00527225202
v 2.15961693e-09 -0.00265795877 -0.00488464022
v -0.00200000056 -0.00260292552 -0.00491932826
v -3.24306831e-10 -0.00230332138 -0.00448016683
v -0.0019999994 -0.00234578131 -0.00460496545
v -1.70384179e-10 -0.00187732745 -0.00415260624
v -0.00200000079 -0.00184795575 -0.00419408595
v -2.61756505e-10 -0.00139652635 -0.00391500862
v -0.00200000009 -0.00137886347 -0.00395488227
v -0.00199999986 -0.00167380425 -0.00409164792
v -0.0019999994 -0.000871633703 -0.00380998547
v 4.4878376e-10 -0.000879847968 -0.00377455237
v 0.00199999986 -0.000871634285 -0.00380998594
v 0.00199999916 -0.00137886405 -0.00395488273
v 0.00200000033 -0.00169282395 -0.00410199165
v 0.00199999847 -0.00184795621 -0.00419408642
v 0.00199999963 -0.00236216374 -0.00462231832
v 0.00200000103 -0.00260292809 -0.00491932547
v 0.00200000079 -0.00280051399 -0.00525092287
v 0.0019999994 -0.00285957218 -0.00537646934
v 0.00199999916 -0.00305665308 -0.00605905382
v 0.00199999777 -0.00308488798 -0.00639257906
v 0.00103415677 -0.00311180484 -0.00692721829
v 0.001036676 -0.00297206198 -0.00744287437
v 0.00199999986 -0.00304460293 -0.00691735419
v 0.00200000172 -0.00290552946 -0.00741326576
v 0.00200000079 -0.00276784669 -0.007711899
v 0.00103919453 -0.00273443782 -0.00792181585
v 0.00199999916 -0.0026710534 -0.00787699968
v 0.00104171259 -0.00240748748 -0.00834481884
v 0.00199999986 -0.00225672941 -0.00837854296
v 0.00104423112 -0.0020044914 -0.00869584642
v 0.00200000056 -0.00195812294 -0.0086221518
v 0.00199999986 -0.00163089915 -0.00881734584
v 0.00104674906 -0.00154031988 -0.00896101166
v 0.00199999823 -0.00150765013 -0.00887530297
v 0.00104926957 -0.00103369774 -0.00913022831
v 0.00200000172 -0.000832763908 -0.00906900037
v 0.00105178694 -0.000504793134 -0.00919636246
v 0.00200000009 -0.000507841178 -0.00909565948
v 0.00134570175 2.02589854e-05 -0.009134016
v 0.00199999963 2.45759452e-06 -0.00905613042
v 3.7364789e-06 3.48727299e-05 -0.00919795502
v 5.90435423e-10 -0.000503633521 -0.00923461374
v 1.43317547e-09 -0.00103973714 -0.00916608889
v -2.75884121e-10 -0.0015525911 -0.00899320282
v -1.94114591e-09 -0.00202180911 -0.00872336701
v 1.5272984e-09 -0.00242852396 -0.00836702529
v 1.51176294e-09 -0.00275784242 -0.00793836266
v -1.62143771e-10 -0.00299648917 -0.00745374709
v 3.19433757e-10 -0.00313600688 -0.00693268795
v 0.00199999986 -0.00304782274 -0.00689887954
v 0.0019999994 0.00103517191 -0.00392162381
v 0.00200000755 0.000636586919 -0.00391143281
v 0.0020000136 4.80891176e-05 -0.0038188491
v 0.00200001057 -0.000415735733 -0.00377199869
v 0.00200000009 0.00218688324 -0.00847955141
v 0.00200000056 0.000956491509 -0.00879156496
v 0.00200000033 0.000503177231 -0.00893031061
v 3.76399794e-06 0.00147309143 -0.00881350785
v -0.00134684367 0.00145088276 -0.00874336157
v -0.00135536643 0.0029046298 -0.00843370706
v -0.00245407713 0.0028480757 -0.00825116597
v -0.00263917376 0.00284717022 -0.00820684712
v -0.00232186285 0.00286465697 -0.00827737618
v 0.00134998001 0.000732892542 -0.00894836988
v 0.00232539093 0.00286447932 -0.00827664137
v 0.00264628418 0.0028467786 -0.00820514839
v 0.00234923325 0.00283484021 -0.00827753823
v 0.0019999994 0.00288068922 -0.00833895616
v 0.00216651917 0.00275662844 -0.00833193492
v 0.00214149337 0.00273545925 -0.00834120996
v 0.001362824 0.00290440721 -0.0084328251
v 0.00205849973 0.00261829188 -0.00838086847
v 0.00203712913 0.00256294664 -0.00839600246
v -0.00200000079 0.00149651291 -0.00863898639
v -0.00199999916 0.00218688394 -0.00847955141
v -0.00202403008 0.00251492602 -0.00840809569
v -0.00203713216 0.00256299996 -0.00839599222
v -0.00210854411 0.00270000659 -0.00835483149
v -0.00199999707 0.00288068759 -0.00833895523
v -0.00214156252 0.00273554027 -0.00834118016
v -0.00224588974 0.00280302623 -0.00830623414
v -0.00230925321 0.00282535283 -0.00828820001
v 0.00200485461 0.00238069659 -0.00843875576
v 0.00135426177 0.00145063794 -0.00874258392
v 0.000930768787 0.0029152655 -0.00847579166
v 3.78608729e-06 0.00292471074 -0.00851317309
v 3.75033369e-06 0.00075651129 -0.00901429635
v -0.00134258182 0.00073314755 -0.00894909352
v -0.00200000126 0.000948329165 -0.00879404042
v 0.00203715055 0.00141372532 -0.00384727074
v 0.00209275563 0.00152770337 -0.00380666531
v 0.00214139535 0.00158378563 -0.00378382113
v 0.00222045416 0.00163991482 -0.00375926099
v 0.00230882107 0.00167647656 -0.00374245085
v 0.00242658518 0.00170189771 -0.00373041118
v 0.0027071056 0.00284316507 -0.00819046143
v 0.00270676124 0.00171463075 -0.00372425071
v 0.00201724493 0.0013330963 -0.00387099036
v -0.002141417 0.00158380589 -0.00378380995
v -0.00206716661 0.00148560898 -0.00382260117
v 1.92875538e-09 0.00141461764 -0.00384193193
v -0.00200000661 -0.00066353596 -0.00378085347
v 1.80386386e-10 0.00171463029 -0.00372425071
v -0.00200001267 -0.000224909265 -0.003783138
v 7.02573666e-10 -0.000222036353 -0.0037558137
v -9.97305127e-10 0.000449152081 -0.00386750163
v -0.00200000731 0.000620262988 -0.0039096144
v 4.93005969e-10 0.000780205475 -0.00390940113
v -1.39945266e-09 0.00110293191 -0.00390574778
v -0.00203714357 0.00141368958 -0.00384728145
v -0.00200790144 0.00126665959 -0.00388731505
v -0.00199999707 0.00103517005 -0.00392162241
v -0.00270676077 0.00171462982 -0.00372425094
v -0.00237827632 0.00169389416 -0.00373423658
v -0.00230880943 0.00167651742 -0.00374243478
v -0.00218245387 0.00161672407 -0.0037695982
v -0.00270710886 0.00284316856 -0.00819046143
v 0.00331115397 0.00280121667 -0.00802444667
v -0.00331115769 0.00280121597 -0.00802444853
v -0.00389289227 0.00171462621 -0.00372425094
v -0.0038928946 0.00275150687 -0.00782771315
v -0.00452717394 0.00197466812 -0.00571219018
v -0.0045271744 0.00245281705 -0.00760447606
v -0.00447316235 0.00253636716 -0.00761659071
v -0.00451756408 0.00151236914 -0.00381273869
v -0.0045271758 0.00149651652 -0.00381990429
v -0.00441110926 0.00162076659 -0.00376604986
v -0.00429578265 0.00266874745 -0.00767534086
v -0.00393047603 0.00171459967 -0.00372426701
v -0.00421830174 0.00169444468 -0.00373347476
v -0.0042797341 0.00167980965 -0.00374008459
v -0.00468227919 0.00220864615 -0.00756718637
v -0.00475390209 0.00168831646 -0.00578454556
v -0.00475489348 0.00213143672 -0.00754251191
v -0.0048680543 0.0020358488 -0.00749850972
v -0.0050531025 0.00152188493 -0.00582660176
v -0.00512023969 0.0018937604 -0.00738218985
v -0.0053843041 0.00147526362 -0.0058383802
v -0.00538430363 0.00182866096 -0.00723696547
v -0.00529189641 0.00114826695 -0.00453758286
v -0.00538430642 0.00117820932 -0.0046627894
v -0.00473438343 0.00125072082 -0.00398347899
v -0.00488343649 0.00116875954 -0.00410449505
v -0.00496242987 0.00114295923 -0.00417441269
v -0.00506727211 0.00112510042 -0.00427609822
v -0.00468747318 0.00128831388 -0.00394728407
v -0.0073371781 0.00144057057 -0.00570110278
v -0.00670713279 0.0015912255 -0.00629731826
v -0.00664306525 0.00160494319 -0.00635160087
v -0.00601341901 0.00172682281 -0.00683394819
v -0.00768183591 0.00134352886 -0.00531705469
v -0.00817890745 0.00117821037 -0.00466279173
v 0.00960843451 0.00413154112 -0.000457349524
v 0.00961646251 0.00409481442 -0.000206121214
v 0.00953368656 0.00392825669 -0.00117422373
v 0.00291158049 0.00515527464 -0.0077145067
v -0.00859767199 0.00127007207 -0.00396398734
v -0.0086182775 0.00458574435 -0.00372837577
v -0.00851132534 0.00115962268 -0.00412550615
v -0.0085390266 0.00460624415 -0.00385919865
v -0.00838501472 0.00112319342 -0.00434307009
v -0.008490582 0.00461693993 -0.00393639784
v -0.00819427893 0.00466285413 -0.00436964724
v -0.00769692007 0.00476248376 -0.0049752621
v -0.00714796968 0.00483247312 -0.00552576827
v -0.00687159738 0.00486464612 -0.00576682575
v -0.00650605094 0.0049139522 -0.00605405588
v -0.00587002607 0.00497562112 -0.00648701657
v -0.00534285419 0.00502051413 -0.00679060025
v -0.00503767375 0.00503958575 -0.0069473153
v -0.00457392354 0.00507375086 -0.00715943892
v -0.00417602435 0.00510287797 -0.00731924037
v -0.00367880054 0.00512045436 -0.00749579212
v -0.00325940829 0.00513612945 -0.0076234783
v -0.00229073432 0.00517035555 -0.00785129052
v -0.00126342371 0.00519099832 -0.00800148398
v -0.00016449469 0.00519811967 -0.00806520972
v 0.000877944403 0.00519600883 -0.0080348365
v 0.00191869633 0.00517647108 -0.00791672431
v 0.00386458868 0.00510612223 -0.00743443891
v 0.00479219435 0.00505916728 -0.00706298836
v 0.00553797325 0.00500410516 -0.00668356707
v 0.00794112403 0.00471017323 -0.00469408138
v 0.00739641627 0.00480589969 -0.00528916251
v 0.00675657112 0.00488780346 -0.00585981924
v 0.00609060237 0.00495520281 -0.00634580851
v 0.00841642544 0.00463326229 -0.00405064551
v 0.00919961464 0.00322625577 -0.00253007631
v 0.0090976702 0.00297969882 -0.0028162729
v 0.00881585293 0.00452709431 -0.00337257329
v 0.00886725634 0.00231794291 -0.00338188442
v 0.00882539153 0.00217325194 -0.00347663136
v 0.00911915861 0.00444908533 -0.00270689582
v 0.00924772117 0.00439456711 -0.00235623587
v 0.00932926033 0.00351413223 -0.00211207801
v 0.00937973056 0.00433261599 -0.00191827968
v 0.00948719867 0.00383708812 -0.00144454977
v 0.00946537871 0.00428397674 -0.00155947614
v 0.00953322742 0.00423260825 -0.00118968752
v -0.00866347924 0.00147342857 -0.00383071043
v -0.0086935861 0.00162076473 -0.0037660494
v -0.0089739617 0.00449232617 -0.00304760574
v -0.00892492849 0.00250195176 -0.00324810995
v -0.00923443399 0.00440050196 -0.00239529321
v -0.00920578185 0.00324053946 -0.00251175556
v -0.0094268471 0.00371653796 -0.00173129118
v -0.00945179258 0.00429258216 -0.00162236742
v -0.00945025403 0.00376365427 -0.00162631425
v -0.00948732905 0.00383734563 -0.00144386489
v -0.00956746656 0.00419744616 -0.000941058039
v -0.00959196314 0.00404236373 -0.000685046718
v -0.00961646158 0.00409481674 -0.000206119323
v 0.00961729139 0.00409757532 -0.000140951452
v -0.00961729232 0.00409757672 -0.000140952514
v -0.00954652671 0.00399954943 0.000901998719
v -0.00959028397 0.00406577252 0.000528685167
v -0.00961751211 0.00409929501 -7.58407186e-05
v -0.00952852517 0.00397143234 0.00101869879
v 0.00684722932 0.0059174234 0.0017683513
v -0.00684593339 0.00570976594 0.00226485613
v 0.00684608752 0.00573638035 0.00219060923
v -0.00684489263 0.00552056264 0.00287960353
v 0.00684488984 0.00552056544 0.00287960563
v 0.00686508464 0.00875335 0.000523952069
v -0.00686507253 0.00875334628 0.000523952243
v 0.00686379196 0.008468844 0.000515216729
v -0.00686211465 0.00814837497 0.000512348081
v 0.0068601286 0.00780671183 0.000528144126
v -0.00685916143 0.00765112648 0.00054471934
v 0.00685916096 0.00765112648 0.000544719747
v -0.00685885688 0.00760380412 0.000551213045
v 0.00685688155 0.00730670942 0.000610313786
v -0.0068560373 0.00718455156 0.000645243155
v 0.00685431389 0.00693989964 0.000738634553
v -0.00685431343 0.00693989685 0.000738630595
v 0.00685387058 0.00687878765 0.000767627731
v -0.00685324939 0.00679382449 0.000812242797
v 0.00685123773 0.00651799981 0.000998251024
v -0.00685097044 0.00647914037 0.00103050924
v 0.00685006008 0.00634905603 0.00115181436
v -0.00685007125 0.00634905696 0.00115181471
v 0.00684917765 0.00621778984 0.0012987114
v -0.00684894063 0.00618023286 0.00134616462
v 0.00684745656 0.00595379481 0.00169862877
v -0.00684727402 0.00592325022 0.00175688067
v -0.00684723258 0.00591742015 0.00176835177
v 0.00418642489 0.0223693326 -0.00209649093
v 0.00406133523 0.0225330014 -0.00211420981
v 0.00406163372 0.0223446023 -0.000772979925
v 0.0068678651 0.0100529287 0.00054841314
v 0.00686786184 0.0105493376 -0.00299263815
v 0.00686947023 0.0117627913 0.00052791182
v 0.00686359918 0.0125585347 -0.00267080683
v 0.00683582062 0.0129596237 0.000479589246
v 0.00685100816 0.0130070858 -0.00259630335
v 0.0068268571 0.0131461537 0.000469619961
v 0.00682687061 0.0135631431 -0.00250655459
v 0.00682299165 0.0132201081 0.000465485908
v 0.00679423334 0.0140904412 -0.00242481194
v 0.00671026716 0.0146493595 0.000365697779
v 0.00674207974 0.0147127984 -0.00233395048
v 0.00666507566 0.0154054044 -0.00224189251
v 0.00660495413 0.0154988449 0.000288587093
v 0.00660502352 0.0158456638 -0.00218893727
v 0.00654313806 0.0159067716 0.000247008342
v 0.00652052276 0.0163759273 -0.00213159528
v 0.00642488338 0.0165751968 0.000172759537
v 0.00645852089 0.0167183895 -0.00209855381
v 0.00630292343 0.017159719 0.000101690588
v 0.00619863439 0.0178882629 -0.00201046304
v 0.00619588001 0.0176112317 4.28487401e-05
v 0.00619603228 0.0178983919 -0.00200987561
v 0.00597221777 0.0184243079 -7.20678436e-05
v 0.00590638397 0.0188991297 -0.00196823594
v 0.00560207013 0.0195121393 -0.000242707349
v 0.00556392688 0.0198490918 -0.0019592836
v 0.00556392083 0.0196107514 -0.000259044959
v 0.00555212423 0.0198784955 -0.0019595006
v 0.00522933016 0.0203939192 -0.000394154456
v 0.00516861072 0.0207413752 -0.00198006723
v 0.00470680185 0.0215918832 -0.00202795863
v 0.00430458365 0.0220141578 -0.00070446782
v 0.0047612139 0.0212957412 -0.0005614814
v 0.0048596547 0.0213294048 -0.00201029051
v 0.00485984702 0.0211212952 -0.000528173288
v 0.00519021414 0.0204770416 -0.000409098022
v 0.00362321618 0.0230458677 -0.00217707152
v 0.00319775613 0.0234646499 -0.00223735254
v 0.00329631334 0.0231963452 -0.000956258096
v 0.00308151753 0.0233911164 -0.000999739743
v 0.00381534314 0.0226479527 -0.000836968888
v 0.00309954863 0.0235513262 -0.00225081388
v 0.00308107142 0.0235672295 -0.00225332123
v 0.00271945377 0.0236811545 -0.00106536085
v 0.00249237451 0.0240122117 -0.00232854765
v 0.00214522239 0.0240520071 -0.00115114206
v 0.00214535696 0.0242225155 -0.00236795424
v 0.00211232272 0.0240701884 -0.00115539972
v 0.00152461312 0.0243426301 -0.00121935958
v 0.00197094306 0.024314709 -0.00238582026
v 0.0013507189 0.024573924 -0.00243814988
v 0.00116374996 0.0244634934 -0.00124794128
v 0.00116362877 0.0246321596 -0.00245084544
v 0.000924015709 0.0245251693 -0.00126273104
v 0.000785738637 0.0247223899 -0.00247021881
v 0.000316430378 0.0246171243 -0.0012854198
v 0.000157648916 0.0247943383 -0.00248639635
v -0.000157676768 0.0247943308 -0.00248639658
v -0.000274570979 0.0246201344 -0.00128618244
v -0.000403594458 0.0247774906 -0.0024819714
v -0.00086746295 0.0245375689 -0.00126573897
v -0.00103638915 0.0246666167 -0.0024584441
v -0.00121492741 0.0244484078 -0.00124435453
v -0.00121479831 0.024617115 -0.00244753901
v -0.00146509486 0.0243649054 -0.00122460607
v -0.00157743692 0.0244911574 -0.00242088968
v -0.00217124494 0.0242080502 -0.00236518448
v -0.00202719751 0.0241157115 -0.00116608012
v -0.00220060302 0.0241914317 -0.00236199959
v -0.00221427437 0.0240127854 -0.00114196842
v -0.0022139214 0.0241838116 -0.00236054324
v -0.00258258707 0.0237790272 -0.00108778442
v -0.00276700966 0.0238190964 -0.00229461351
v -0.00312997936 0.0233486742 -0.000990223256
v -0.00313831284 0.0235175006 -0.00224553701
v -0.00313820271 0.0233413838 -0.000988589134
v -0.00329964492 0.0233708378 -0.00222311285
v -0.00368823856 0.0227930546 -0.000868069532
v -0.00381506328 0.0228322204 -0.00214950833
v -0.00406457251 0.0223407373 -0.000772172585
v -0.00406428007 0.0225291923 -0.00211380422
v -0.00421275385 0.0221428629 -0.000731051317
v -0.00429700734 0.0222175755 -0.00208109478
v -0.00469665462 0.0214058664 -0.000582776731
v -0.00477591157 0.0214752909 -0.00201981142
v -0.00482553896 0.0211827736 -0.000539853936
v -0.00482543884 0.0213896129 -0.00201413571
v -0.00512259733 0.0206170119 -0.000434492336
v -0.00518591376 0.0207058322 -0.00197868189
v -0.00520163681 0.0206733402 -0.00197743438
v -0.00522851944 0.0203955825 -0.000394454255
v -0.00550373597 0.0199970137 -0.00196071249
v -0.00550383329 0.0197617766 -0.00028434649
v -0.00557914563 0.0198107939 -0.00195907173
v -0.0055408366 0.0196693148 -0.000268814445
v -0.00593311619 0.0188156813 -0.00197049254
v -0.0059018014 0.0186522193 -0.000106337531
v -0.00612803735 0.0178741068 6.99121392e-06
v -0.00612808159 0.0181547645 -0.00199616025
v -0.00622949796 0.0174745303 6.10282405e-05
v -0.00623311987 0.0177513678 -0.00201872597
v -0.00642492576 0.0165748242 0.000172801709
v -0.00647917436 0.0166077986 -0.0021089043
v -0.00648200605 0.0162673723 0.000207885038
v -0.00652595749 0.0163441002 -0.00213485421
v -0.00654448196 0.0158982109 0.000247910328
v -0.00654457696 0.0162332784 -0.00214631064
v -0.00668484811 0.0148783522 0.000346204877
v -0.00667944225 0.0152890757 -0.00225666165
v -0.00673918845 0.0147422766 -0.00232985336
v -0.00679672929 0.0136526823 0.000439268013
v -0.00679677678 0.0140542695 -0.00243032351
v -0.00681559974 0.0133527936 0.000457815593
v -0.00680526951 0.0139291137 -0.00244944799
v -0.00683580246 0.0129597029 0.000479585258
v -0.00686749024 0.0123527488 -0.00270532328
v -0.00686821667 0.0118526928 0.000525232172
v -0.00687233126 0.0111474534 -0.00290288264
v -0.00686787954 0.0105508231 -0.00299245538
v -0.00686786696 0.0100527639 0.000548410986
v -0.000246362411 0.00911977608 -0.00727094291
v -0.000603656459 0.00909400824 -0.00726565672
v -0.000752415042 0.0111126499 -0.00685089128
v -0.0035514324 0.00791346096 -0.00703691971
v -0.00385012198 0.00767148845 -0.00698869256
v -0.00451916689 0.00855533313 -0.00660044886
v -0.00177362352 0.0248258505 -0.00387126091
v -0.00168473169 0.0231439453 -0.00425239094
v -0.00250433292 0.0228758287 -0.00416673906
v 0.00738775963 0.0110488934 -0.0045341528
v 0.00797464885 0.0116574196 -0.00385325542
v 0.00800000038 0.0106800497 -0.0039679436
v 0.00781884789 0.012783925 -0.00382434949
v 0.00760575477 0.0138776908 -0.00381605281
v 0.00797773246 0.0129706617 -0.0036139884
v 0.00790188368 0.0143419206 -0.00340480753
v 0.00784371048 0.0149575407 -0.0033221005
v 0.00733194826 0.0149263022 -0.00383136375
v 0.00781058008 0.0152459377 -0.00328652281
v 0.00758709433 0.0166626796 -0.0031465583
v 0.00699588703 0.0159192774 -0.00387066905
v 0.00753543712 0.0169164799 -0.00312826899
v 0.00751391612 0.0170170218 -0.00312163471
v 0.00749424333 0.0170333777 -0.00313713029
v 0.00719596725 0.0182558484 -0.00306980731
v 0.00707779313 0.0180907827 -0.00322726695
v 0.00705689844 0.0186973847 -0.00306529552
v 0.00659397757 0.0190653242 -0.00334298448
v 0.00543557154 0.0207390264 -0.0036252581
v 0.00622543367 0.0206799135 -0.00314158411
v 0.00604526 0.0199497771 -0.00347819016
v 0.00638845703 0.0203550439 -0.00311792945
v 0.00674114376 0.0195580795 -0.00307863788
v 0.00477008661 0.0214292202 -0.0037758376
v 0.00531841768 0.02213756 -0.00330407079
v 0.00560110528 0.02173662 -0.003250001
v 0.00405500224 0.0220170822 -0.00392151438
v 0.00423938734 0.0233475622 -0.003512725
v 0.00448578037 0.0231096502 -0.00346610695
v 0.00468877889 0.0228978693 -0.00342697091
v 0.0049171499 0.0226412062 -0.00338243647
v 0.00496704224 0.0225823745 -0.00337267132
v 0.0036348023 0.0238514654 -0.00362108741
v 0.00329729216 0.0224998798 -0.00405426929
v 0.00345657323 0.023980299 -0.00365096866
v 0.00318777142 0.024159031 -0.00369397039
v 0.00250456319 0.022875743 -0.00416671997
v 0.00253991084 0.0245184992 -0.00378611055
v 0.00213425071 0.0246962532 -0.00383460103
v 0.00168497488 0.0231438931 -0.00425238023
v 0.00177370245 0.0248258431 -0.00387124834
v 0.00138317572 0.0249375291 -0.00390374055
v 0.000847157615 0.0233044457 -0.00430605933
v 0.00106874155 0.0250065681 -0.00392426085
v 1.20385806e-07 0.0233578905 -0.00432435051
v 0.00018502977 0.0251047313 -0.003954018
v 0.000892482232 0.0250373315 -0.00393350888
v -0.00128618546 0.0249607675 -0.00391061883
v -0.000892116106 0.0250373762 -0.00393352751
v -0.000846907555 0.0233044717 -0.00430606119
v -0.000509697071 0.0250848439 -0.00394793367
v -6.17996338e-05 0.0251074098 -0.00395484176
v -0.00154103921 0.0248958748 -0.00389153487
v -0.00350006367 0.0239496045 -0.00364378304
v -0.00345677231 0.0239801221 -0.00365094794
v -0.00329707563 0.022499999 -0.00405429304
v -0.00254109898 0.0245178919 -0.00378595944
v -0.00250881305 0.0245333388 -0.00379009009
v -0.00405479595 0.0220172256 -0.00392154511
v -0.00398655003 0.0235714056 -0.00355923758
v -0.00370006217 0.0238021053 -0.00360989152
v -0.00476988964 0.0214294009 -0.00377587276
v -0.00496684387 0.0225825552 -0.00337272906
v -0.00488005998 0.0226842258 -0.0033897087
v -0.00468924176 0.0228973087 -0.00342689175
v -0.00423893519 0.0233479347 -0.00351282489
v -0.00604509236 0.0199500173 -0.00347822416
v -0.0060351938 0.0210306644 -0.00317221205
v -0.00543538481 0.0207392443 -0.00362529629
v -0.00563014345 0.0216929447 -0.00324457977
v -0.00560178747 0.0217355266 -0.00324989343
v -0.006740727 0.0195590183 -0.00307870307
v -0.00667904736 0.0197090767 -0.00308409636
v -0.00639017904 0.0203513801 -0.00311772036
v -0.0065938253 0.019065598 -0.00334301917
v -0.00707766088 0.0180910788 -0.00322729605
v -0.00703024119 0.018776888 -0.00306532695
v -0.00753465062 0.0169200301 -0.00312806387
v -0.00750466948 0.0170592181 -0.00311899558
v -0.00749412877 0.0170336962 -0.00313714868
v -0.00750364037 0.0170638915 -0.00311870035
v -0.00721618067 0.0181874856 -0.00307121733
v -0.00733185792 0.0149265993 -0.00383136747
v -0.00774903223 0.0157087073 -0.00323418085
v -0.00699578505 0.0159195587 -0.00387068396
v -0.00759342266 0.0166300852 -0.00314910314
v -0.00797686353 0.0129965451 -0.00360985799
v -0.00796269998 0.013364383 -0.00355135975
v -0.00760568539 0.0138779972 -0.00381605397
v -0.00790180638 0.0143425064 -0.00340475724
v -0.00781253073 0.0152296005 -0.00328851421
v -0.00799978152 0.0113077369 -0.00387916015
v -0.00799867231 0.0117001133 -0.00381888705
v -0.00797460787 0.0116577437 -0.00385324145
v -0.00781879481 0.0127842473 -0.00382434623
v -0.00731769809 0.0100983484 -0.00473159738
v -0.00748772873 0.0102456454 -0.00455793086
v -0.00738771819 0.0110491747 -0.00453414535
v -0.00781651959 0.0105263153 -0.00419247802
v -0.00800000131 0.0106800459 -0.0039679422
v -0.00590417581 0.0103542516 -0.00566645199
v -0.00602417067 0.00894511212 -0.00582104269
v -0.00672277296 0.00957404356 -0.00527595356
v -0.00521180825 0.00820097048 -0.00636433903
v -0.00410798006 0.00743478164 -0.00694359746
v -0.00424263952 0.00729951728 -0.00691862358
v -0.0040380815 0.00921564829 -0.0066520269
v -0.00348664029 0.00979689695 -0.00670458097
v -0.00337868556 0.00803973712 -0.0070625823
v -0.00294652721 0.00831781235 -0.00711906608
v -0.00287108729 0.0102843177 -0.00675443746
v -0.00220166449 0.0106690256 -0.00679753348
v -0.00230823644 0.00864284206 -0.00718280161
v -0.00164377724 0.00888635498 -0.00722780405
v -0.00149094604 0.010946095 -0.00683042081
v -0.000955127587 0.00904638134 -0.00725669321
v -0.00119798596 0.00900022034 -0.00724829361
v 1.31453447e-07 0.0111681204 -0.00685779564
v -1.27455655e-06 0.0091245221 -0.00727226213
v 0.000471158128 0.00910435338 -0.00726908725
v 0.000915704935 0.0132161006 -0.00641111704
v 0.000459329254 0.0132768489 -0.00641853688
v 5.57978765e-08 0.0132970763 -0.00642103469
v 0.000601522217 0.00909201242 -0.00726679899
v 0.00136632414 0.0131146079 -0.00639899867
v 0.00118304917 0.00900069624 -0.0072485758
v 0.00180836767 0.012972218 -0.00638255896
v 0.00223909714 0.0127890268 -0.00636232458
v 0.00178517343 0.00884118862 -0.00721540814
v 0.00265581743 0.012565434 -0.00633899262
v 0.00305590685 0.0123021053 -0.00631343387
v 0.00233868812 0.00863101054 -0.00717227068
v 0.00521600852 0.00946633425 -0.00615574978
v 0.00563267432 0.00858734176 -0.00609334232
v 0.00480372924 0.00782249961 -0.00660879398
v 0.00343687041 0.0119998679 -0.00628666487
v 0.00245922199 0.00857647322 -0.00716132252
v 0.00379638793 0.0116597461 -0.00625978643
v 0.00287441164 0.00836239383 -0.0071193222
v 0.00413242402 0.0112831751 -0.00623387191
v 0.00310159195 0.00822680257 -0.00709333271
v 0.00444332045 0.0108723054 -0.00620987499
v 0.00338005577 0.00804102793 -0.00705810124
v 0.00472789351 0.0104300994 -0.00618854817
v 0.00370112457 0.0077971397 -0.00701194117
v 0.00385049335 0.00767159555 -0.00698814308
v 0.00424263999 0.00729951961 -0.00691862404
v 0.00750993704 0.0102645801 -0.00453456119
v 0.00697582075 0.00979818683 -0.00505518541
v 0.00675608031 0.010386114 -0.0051342668
v 0.00635326141 0.00924236141 -0.00557489833
v 0.00590423355 0.0103540635 -0.00566645199
v -0.000459222152 0.0132768713 -0.00641853083
v -0.0022389763 0.0127891023 -0.00636235019
v -0.00180825195 0.0129722906 -0.00638256315
v -0.00136621471 0.0131146675 -0.00639899448
v -0.000915600045 0.0132161444 -0.00641110865
v -0.00379627151 0.0116598327 -0.00625988515
v -0.00521594379 0.00946648046 -0.00615575723
v -0.00472780131 0.0104302224 -0.00618860126
v -0.00444321893 0.0108724125 -0.00620995089
v -0.00413230993 0.0112832729 -0.00623396644
v -0.00343675422 0.0119999573 -0.0062867566
v -0.00305579184 0.012302191 -0.00631350884
v -0.00265569682 0.0125655197 -0.00633904384
v -0.00675603468 0.0103863487 -0.00513426214
v -0.0065770424 0.0112107238 -0.00512293866
v -0.00567700155 0.0110010775 -0.00567178242
v -0.00635503139 0.0120083401 -0.00512080407
v -0.00541371433 0.0116181131 -0.00568390498
v -0.00608790945 0.0127706043 -0.00512971031
v -0.00511402218 0.0121997725 -0.00570286298
v -0.0057750647 0.0134903193 -0.0051499838
v -0.00477854488 0.0127409818 -0.00572808739
v -0.00541697163 0.014160878 -0.0051809852
v -0.00440861704 0.0132375006 -0.00575852208
v -0.00501503749 0.0147767728 -0.00522124674
v -0.00400626054 0.0136862751 -0.00579266483
v -0.00457155704 0.0153339766 -0.00526853139
v -0.00408961717 0.0158297662 -0.00531998184
v -0.00722209504 0.0120254261 -0.00451300293
v -0.0070056105 0.0129717123 -0.00450590113
v -0.00673556188 0.0138775446 -0.00451538991
v -0.00641091727 0.0147340912 -0.00454193959
v -0.00603195047 0.0155332163 -0.00458469056
v -0.00560003752 0.0162680577 -0.0046415613
v -0.00511767669 0.016933592 -0.00470931642
v -0.00458837114 0.0175263602 -0.00478380313
v -0.00357295689 0.0162621848 -0.00537246279
v -0.00401647482 0.0180438012 -0.00486041931
v -0.00302578416 0.0166296083 -0.00542284874
v -0.00340697984 0.0184837934 -0.00493454095
v -0.00245264708 0.0169307254 -0.00546827167
v -0.00276537612 0.0188446175 -0.00500186021
v -0.00231800671 0.0210312176 -0.00461123232
v -0.00659738109 0.0168471523 -0.00393267348
v -0.00613791775 0.0177011397 -0.0040143826
v -0.00561994314 0.0184754282 -0.00411127787
v -0.00504726823 0.0191657431 -0.00421759347
v -0.00442475313 0.0197689012 -0.00432696613
v -0.00375806936 0.0202822201 -0.00443297112
v -0.00305354316 0.0207034778 -0.00452954695
v 0.00722215138 0.0120251551 -0.00451300666
v 0.00657710433 0.0112104928 -0.00512294052
v 0.00700568035 0.0129714478 -0.00450590346
v 0.00635510031 0.0120081147 -0.00512080081
v 0.00673565175 0.0138772884 -0.00451538526
v 0.00608799886 0.012770392 -0.00512970332
v 0.0064110239 0.014733851 -0.00454193167
v 0.00577516621 0.0134901172 -0.00514997449
v 0.00603206363 0.0155329974 -0.00458467752
v 0.00541708805 0.0141606992 -0.0051809689
v 0.00560017116 0.0162678529 -0.0046415464
v 0.00501516182 0.0147766015 -0.00522122812
v 0.0051178243 0.0169334114 -0.00470930105
v 0.00457169255 0.015333822 -0.00526851043
v 0.00458853273 0.0175261982 -0.00478378776
v 0.00408976246 0.0158296339 -0.0053199688
v 0.00401664386 0.0180436615 -0.00486040907
v 0.00357310823 0.0162620731 -0.00537245069
v 0.00340716145 0.0184836816 -0.0049345335
v 0.00302594807 0.0166295115 -0.00542283803
v 0.00276557263 0.0188445263 -0.00500185555
v 0.00245281961 0.0169306546 -0.00546826934
v 0.00209772983 0.0191250853 -0.00505857775
v 0.00185854302 0.0171646755 -0.00550628966
v 0.00140984904 0.019325031 -0.00510153081
v 0.00124815223 0.0173314046 -0.00553491944
v 0.000708402484 0.0194446631 -0.00512831425
v 0.000626865018 0.0174311437 -0.00555270119
v 1.03466903e-07 0.0194844734 -0.00513741933
v 9.35070119e-08 0.0174643286 -0.00555872824
v -0.000626681838 0.0174311586 -0.00555269746
v -0.00155873131 0.0212648939 -0.00467332732
v -0.000783368188 0.0214047469 -0.00471216813
v 1.11851634e-07 0.0214512721 -0.00472538732
v 0.000783600844 0.0214047134 -0.00471216673
v 0.0015589603 0.0212648399 -0.00467332453
v 0.00231822603 0.0210311338 -0.0046112244
v 0.00305374921 0.0207033716 -0.00452953856
v 0.00375826843 0.0202820841 -0.00443295157
v 0.00442493521 0.0197687391 -0.00432694284
v 0.00504744612 0.0191655569 -0.00421757111
v 0.00562010426 0.0184752084 -0.00411124993
v 0.00613805559 0.0177009013 -0.00401435839
v 0.00659750681 0.0168468915 -0.00393265206
v -0.00124796585 0.0173314419 -0.00553491898
v -0.00185836456 0.0171647314 -0.00550629152
v 0.00567707047 0.0110008949 -0.00567178335
v 0.00400637696 0.013686154 -0.00579267647
v 0.00440872833 0.0132373618 -0.00575853651
v 0.004778645 0.0127408253 -0.00572809717
v 0.00511410972 0.0121996095 -0.00570287462
v 0.00541378558 0.0116179362 -0.0056839129
v -0.00743250782 0.00931882113 -0.00364524778
v -0.00686472887 0.00918688811 -0.00316773658
v -0.00799999759 0.00945112854 -0.00412305398
v -0.00800000131 0.0100661842 -0.00404721498
v -0.00900515728 0.00714640506 -0.00279780058
v -0.00792849436 0.00689067459 -0.0019047868
v -0.0079585528 0.00698552467 -0.0022255755
v -0.00878219958 0.00729315123 -0.00322540593
v -0.0075934832 0.00718739256 -0.0026130029
v -0.00863055326 0.00743331295 -0.00347362901
v -0.00859668758 0.00747080334 -0.00352500961
v -0.00724972459 0.00755290268 -0.00292758457
v -0.00841273833 0.00772141758 -0.00378033589
v -0.0071017188 0.00779052172 -0.00304003805
v -0.00824769586 0.00803678576 -0.00397589011
v -0.00697793905 0.00805276632 -0.003115898
v -0.00811892748 0.00839407649 -0.00410225708
v -0.00686050672 0.00838345382 -0.00315064006
v -0.00686168298 0.00859386194 -0.00318858353
v -0.00803635828 0.00878014322 -0.00415913993
v -0.00686259288 0.00875588786 -0.00319902855
v -0.00800266396 0.00918856636 -0.00415130379
v -0.00685825944 0.00801525358 -0.00301159243
v -0.00685594045 0.00765484292 -0.00277623464
v -0.00685376301 0.0073219887 -0.00244978513
v -0.00685206708 0.00705055753 -0.00206674682
v -0.00685181934 0.00701200636 -0.00199944945
v -0.00685083866 0.00683419593 -0.00162314891
v -0.00684987614 0.00663550524 -0.00101374241
v -0.00684743561 0.00607916294 0.000928984082
v -4.47458569e-06 0.0130529674 0.000475253095
v -6.10011921e-05 0.0168673433 0.000138177304
v -1.91553936e-05 0.0204363391 -0.000401621859
v 0.00686472561 0.0091868965 -0.00316775078
v 0.00685819658 0.00800486561 -0.00300639705
v 0.00686046574 0.00837425888 -0.00314843399
v 0.00686170068 0.00859591085 -0.00318891229
v 0.00686248764 0.00873566885 -0.00319864904
v 0.00685587432 0.00764452154 -0.00276803062
v 0.00685358839 0.00729809329 -0.00242130505
v 0.00685209967 0.00705602206 -0.00207608589
v 0.00684986869 0.00663551223 -0.00101376511
v 0.00685064401 0.00680269115 -0.00154159602
v 0.00685182028 0.00703475671 -0.0020397075
v 0.00684743375 0.00607916573 0.00092898251
v 0.0079999743 0.00945106521 -0.00412308564
v 0.00802027527 0.00891032815 -0.00416320469
v 0.00802473444 0.00886943284 -0.00416266778
v 0.00808377471 0.00852899347 -0.0041304836
v 0.00697722938 0.00805446506 -0.0031163774
v 0.00710080517 0.00779211707 -0.00304076308
v 0.00853221584 0.0075489548 -0.0036189931
v 0.00835703686 0.00781606417 -0.003849959
v 0.00724863447 0.00755432155 -0.00292853056
v 0.0083540557 0.00782143977 -0.0038535872
v 0.00819924101 0.00815411005 -0.00402673474
v 0.00872019492 0.00734530343 -0.00333063304
v 0.00795720704 0.00698598102 -0.00222691544
v 0.00891378522 0.00720154261 -0.00298312656
v 0.00792849157 0.00689067785 -0.00190479273
v 0.00900516752 0.00714640133 -0.00279778684
v 0.00759218261 0.00718831923 -0.00261425832
v 0.00862963498 0.00743423821 -0.00347504811
v -0.00688333251 0.00907012634 -0.00522433268
v -0.0046016858 0.0074295667 -0.00675780792
v -0.00542125339 0.00747589674 -0.00637366995
v -0.00618720008 0.00752252666 -0.00592463464
v 0.00751544628 0.00913706142 -0.00467290776
v 0.00688333297 0.00907012727 -0.00522433501
v 0.00618209364 0.00899752695 -0.0057181064
v 0.00460168626 0.00742956391 -0.00675780838
v 0.00373674533 0.00738662342 -0.00707479706
v 0.00283507304 0.00734987948 -0.0073229433
v 0.0019055981 0.00732172979 -0.00750101591
v 0.001906547 0.00869101845 -0.00723255426
v 0.000958043791 0.00866511185 -0.00733495969
v -1.17987553e-09 0.00865630247 -0.00736912759
v -0.00190560427 0.00732173258 -0.00750101591
v -0.000957480166 0.00730403373 -0.00760817388
v -0.00283507165 0.00734988181 -0.0073229447
v -0.0037367458 0.00738662574 -0.0070747952
v -0.00751544768 0.00913706422 -0.00467290916
v -0.00963290222 0.00521628046 1.25727786e-06
v -0.00963784941 0.00632595364 6.71929884e-05
v -0.00961018726 0.0065120263 -0.000582564739
v -0.00951337628 0.00670477888 -0.00125564984
v -0.00927416608 0.00695799431 -0.00213986868
v -0.00915461313 0.00704898499 -0.00245760707
v -0.00808908604 0.00763203064 -0.00422162516
v -0.00752788316 0.00760377571 -0.00484443037
v -0.00689178146 0.0075662327 -0.00541364029
v 0.000957482611 0.00730403326 -0.00760817435
v 1.98735362e-09 0.00729799364 -0.00764394458
v 0.00542125525 0.00747589488 -0.00637367042
v 0.00618719729 0.00752252806 -0.00592463557
v 0.00689178333 0.00756623223 -0.00541364122
v 0.0075278813 0.00760377385 -0.0048444299
v 0.0080890879 0.00763203064 -0.00422162469
v 0.00927409437 0.00695804739 -0.00214006822
v 0.00961022917 0.00651189359 -0.000582113396
v 0.00944837462 0.00678906171 -0.00154996896
v 0.00962966029 0.00643327367 -0.000307553622
v -0.00761812832 0.00490912423 0.00501473341
v -0.00781796873 0.0049744104 0.00478675729
v -0.00849749148 0.00523981685 0.00385996164
v -0.00703983055 0.00474312529 0.00559439464
v -0.00651438627 0.0046157022 0.00603935635
v -0.00614374969 0.00453655329 0.00631574262
v -0.00954299234 0.00601410167 0.00115617737
v -0.0093445871 0.0057705557 0.00200662646
v -0.00919072144 0.0056394604 0.00246441062
v -0.00897756405 0.00549297687 0.00297592976
v -0.00857508741 0.00527585298 0.00373413018
v -0.00889578275 0.00363912457 0.00303305546
v -0.00918763597 0.00373795466 0.00233346084
v -0.00932620186 0.00379775721 0.0019082072
v -0.00941583607 0.00385314901 0.00157391198
v -0.00853980705 0.00354839186 0.0036955066
v -0.00844928436 0.00352737517 0.00384258572
v -0.00809084531 0.00345263141 0.00436490774
v -0.00780121423 0.00341267767 0.00473273033
v -0.00759211695 0.00338328211 0.00497404067
v -0.00696528377 0.00329001574 0.00560254371
f 1 2 3
f 3 2 4
f 4 2 5
f 5 2 6
f 5 6 7
f 7 6 8
f 7 8 9
f 9 8 10
f 9 10 11
f 10 12 11
f 11 12 13
f 11 13 14
f 14 13 15
f 14 15 16
f 17 8 6
f 18 19 2
f 2 19 20
f 2 20 6
f 6 20 21
f 21 22 6
f 6 22 23
f 6 23 24
f 25 17 26
f 26 17 6
f 26 6 27
f 27 6 24
f 28 29 30
f 30 29 31
f 30 31 32
f 32 31 25
f 32 25 33
f 25 26 33
f 33 26 27
f 33 27 34
f 34 27 24
f 34 24 35
f 35 24 23
f 35 23 36
f 36 23 22
f 36 22 37
f 37 22 21
f 37 21 38
f 39 40 41
f 41 40 42
f 41 42 43
f 43 42 44
f 43 44 45
f 45 44 46
f 45 46 47
f 47 46 48
f 47 48 49
f 49 48 50
f 50 51 49
f 49 51 52
f 49 52 53
f 53 52 54
f 43 45 55
f 43 55 41
f 37 38 55
f 56 41 57
f 57 41 55
f 57 55 58
f 58 55 38
f 33 34 35
f 55 32 37
f 37 32 33
f 37 33 36
f 36 33 35
f 28 59 60
f 59 55 45
f 59 28 55
f 55 28 30
f 55 30 32
f 53 54 61
f 45 47 59
f 59 47 49
f 59 49 60
f 60 49 53
f 60 53 62
f 62 53 61
f 62 61 63
f 64 65 66
f 67 68 69
f 67 69 70
f 70 69 71
f 70 71 72
f 72 71 73
f 72 73 74
f 74 73 75
f 74 75 76
f 76 75 77
f 77 75 78
f 77 78 79
f 79 78 80
f 79 80 81
f 71 39 73
f 73 39 82
f 73 82 75
f 75 82 83
f 75 83 78
f 78 83 84
f 78 84 80
f 80 84 65
f 80 65 81
f 81 65 64
f 46 44 69
f 69 44 42
f 69 42 71
f 71 42 40
f 71 40 39
f 46 69 48
f 48 69 68
f 48 68 50
f 63 61 85
f 85 61 54
f 85 54 67
f 67 54 52
f 67 52 68
f 68 52 51
f 68 51 50
f 39 41 82
f 82 41 56
f 86 87 56
f 56 87 66
f 56 66 65
f 65 84 56
f 56 84 83
f 56 83 82
f 88 89 90
f 90 89 85
f 90 85 91
f 91 85 92
f 85 67 92
f 92 67 70
f 92 70 93
f 93 70 72
f 93 72 94
f 94 72 74
f 94 74 95
f 74 76 95
f 95 76 77
f 95 77 96
f 96 77 79
f 96 79 97
f 97 79 81
f 97 81 98
f 98 81 64
f 64 66 98
f 98 66 87
f 98 87 99
f 87 86 99
f 99 86 100
f 99 100 101
f 101 100 102
f 101 102 103
f 103 104 101
f 101 104 105
f 101 105 106
f 62 29 60
f 60 29 28
f 89 88 107
f 108 109 85
f 107 110 89
f 89 110 111
f 89 111 85
f 85 111 112
f 85 112 108
f 62 63 29
f 29 63 85
f 29 85 113
f 113 85 109
f 113 114 29
f 115 16 15
f 115 15 112
f 112 15 108
f 108 15 13
f 108 13 109
f 109 13 12
f 109 12 10
f 29 114 31
f 31 114 17
f 31 17 25
f 113 109 114
f 114 109 10
f 114 10 17
f 17 10 8
f 116 117 18
f 18 117 118
f 18 118 119
f 2 1 18
f 18 1 120
f 120 121 18
f 18 121 122
f 18 122 116
f 123 124 125
f 125 124 126
f 125 126 127
f 128 129 123
f 123 129 130
f 123 130 124
f 131 132 133
f 131 133 134
f 134 133 135
f 134 135 136
f 135 137 136
f 136 137 138
f 136 138 139
f 139 138 140
f 138 141 140
f 140 141 142
f 140 142 143
f 143 142 144
f 142 145 144
f 144 145 125
f 144 125 127
f 146 147 148
f 148 147 149
f 148 149 150
f 151 152 153
f 138 151 149
f 149 151 153
f 149 153 150
f 138 137 151
f 151 137 135
f 151 135 133
f 146 128 147
f 147 128 123
f 147 123 125
f 125 145 147
f 147 145 142
f 147 142 149
f 149 142 141
f 149 141 138
f 154 152 151
f 155 156 157
f 157 156 158
f 157 158 159
f 159 158 154
f 159 154 132
f 132 154 151
f 132 151 133
f 160 161 162
f 162 161 163
f 162 163 164
f 164 163 165
f 164 165 166
f 166 165 167
f 166 167 168
f 168 167 169
f 168 169 170
f 170 169 171
f 170 171 172
f 172 171 173
f 172 173 174
f 174 173 175
f 174 175 176
f 176 175 177
f 176 177 178
f 178 177 179
f 178 179 180
f 180 179 181
f 180 181 182
f 182 181 183
f 182 183 184
f 184 183 185
f 184 185 160
f 160 185 161
f 186 187 188
f 189 190 191
f 191 190 192
f 191 192 193
f 193 192 194
f 193 194 195
f 195 194 196
f 195 196 197
f 197 196 198
f 197 198 188
f 188 198 199
f 188 199 186
f 200 201 189
f 189 201 202
f 189 202 190
f 189 203 200
f 200 203 204
f 200 204 205
f 205 204 206
f 206 204 207
f 206 207 208
f 208 207 209
f 208 209 210
f 210 209 211
f 210 211 212
f 212 211 213
f 212 213 214
f 214 213 215
f 214 215 216
f 216 215 217
f 216 217 218
f 219 220 217
f 217 220 221
f 217 221 218
f 222 220 223
f 223 220 219
f 223 219 224
f 224 219 225
f 225 219 226
f 226 219 217
f 226 217 227
f 227 217 215
f 227 215 228
f 228 215 213
f 228 213 229
f 229 213 230
f 230 213 211
f 230 211 231
f 231 211 209
f 231 209 232
f 232 209 207
f 232 207 233
f 234 235 236
f 236 235 237
f 237 235 238
f 238 235 239
f 238 239 240
f 240 239 241
f 240 241 242
f 242 241 243
f 242 243 244
f 244 243 245
f 245 243 246
f 245 246 247
f 247 246 248
f 247 248 249
f 249 248 250
f 249 250 251
f 251 250 252
f 251 252 253
f 254 252 255
f 255 252 250
f 255 250 256
f 256 250 248
f 256 248 257
f 257 248 246
f 257 246 258
f 258 246 243
f 258 243 259
f 259 243 241
f 259 241 260
f 260 241 239
f 260 239 261
f 261 239 235
f 261 235 262
f 262 235 234
f 262 234 263
f 263 234 236
f 187 254 188
f 188 254 255
f 188 255 197
f 197 255 256
f 197 256 195
f 195 256 257
f 195 257 193
f 193 257 258
f 193 258 191
f 191 258 259
f 191 259 189
f 189 259 260
f 189 260 203
f 203 260 261
f 203 261 204
f 204 261 262
f 204 262 207
f 207 262 263
f 207 263 233
f 226 185 225
f 225 185 183
f 264 265 181
f 230 231 161
f 161 231 232
f 161 232 163
f 163 232 233
f 163 233 263
f 226 227 185
f 185 227 228
f 185 228 161
f 161 228 229
f 161 229 230
f 265 266 181
f 181 266 267
f 181 267 183
f 183 267 224
f 183 224 225
f 181 179 264
f 264 179 177
f 264 177 268
f 268 177 175
f 268 175 269
f 269 175 173
f 269 173 270
f 270 173 171
f 169 251 171
f 171 251 253
f 171 253 270
f 244 167 242
f 242 167 165
f 242 165 240
f 263 236 163
f 163 236 237
f 163 237 165
f 165 237 238
f 165 238 240
f 244 245 167
f 167 245 247
f 167 247 169
f 169 247 249
f 169 249 251
f 271 272 273
f 274 275 276
f 269 270 277
f 269 277 268
f 278 279 280
f 278 280 281
f 280 282 281
f 281 282 283
f 281 283 284
f 284 283 285
f 284 285 286
f 272 287 273
f 273 287 288
f 273 288 289
f 289 290 273
f 273 290 291
f 273 291 292
f 291 293 292
f 292 293 294
f 292 294 276
f 276 294 295
f 276 295 274
f 286 296 284
f 284 296 297
f 284 297 298
f 298 297 271
f 298 271 299
f 299 271 273
f 296 268 297
f 297 268 277
f 297 277 271
f 271 277 300
f 271 300 272
f 272 300 301
f 272 301 287
f 287 301 302
f 186 302 187
f 187 302 301
f 187 301 254
f 254 301 300
f 254 300 252
f 252 300 277
f 252 277 253
f 253 277 270
f 303 285 304
f 304 285 283
f 304 283 305
f 305 283 282
f 305 282 306
f 306 282 280
f 306 280 307
f 307 280 279
f 307 279 308
f 308 279 309
f 308 309 310
f 264 268 311
f 311 268 296
f 311 296 303
f 303 296 286
f 303 286 285
f 312 313 314
f 315 222 223
f 311 303 316
f 303 304 316
f 316 304 305
f 316 305 306
f 306 307 316
f 316 307 308
f 316 308 310
f 315 223 317
f 223 318 317
f 317 318 319
f 317 319 320
f 320 319 321
f 320 321 322
f 313 323 314
f 314 323 324
f 314 324 322
f 322 324 325
f 322 325 320
f 326 327 316
f 316 327 328
f 316 328 329
f 329 312 316
f 316 312 314
f 316 314 311
f 311 314 322
f 311 322 264
f 264 322 321
f 264 321 265
f 265 321 319
f 265 319 266
f 266 319 318
f 266 318 267
f 267 318 223
f 267 223 224
f 218 184 216
f 216 184 160
f 216 160 214
f 214 160 212
f 212 160 210
f 210 160 162
f 210 162 208
f 172 174 288
f 288 174 176
f 288 176 325
f 325 176 178
f 325 178 320
f 320 178 180
f 320 180 317
f 317 180 182
f 317 182 315
f 218 221 184
f 184 221 220
f 184 220 182
f 182 220 222
f 182 222 315
f 201 200 164
f 164 200 205
f 164 205 162
f 162 205 206
f 162 206 208
f 196 194 168
f 168 194 166
f 170 199 168
f 168 199 198
f 168 198 196
f 194 192 166
f 166 192 190
f 166 190 164
f 164 190 202
f 164 202 201
f 288 287 172
f 172 287 302
f 172 302 170
f 170 302 186
f 170 186 199
f 323 289 324
f 324 289 288
f 324 288 325
f 326 330 327
f 327 330 275
f 327 275 328
f 275 274 328
f 328 274 295
f 328 295 329
f 329 295 294
f 329 294 312
f 312 294 293
f 312 293 313
f 313 293 291
f 313 291 323
f 323 291 290
f 323 290 289
f 156 155 331
f 331 155 310
f 331 310 309
f 330 326 332
f 332 326 333
f 332 333 334
f 335 336 337
f 338 339 335
f 338 335 340
f 340 335 337
f 340 337 341
f 333 342 334
f 334 342 343
f 334 343 341
f 341 343 344
f 341 344 340
f 336 335 345
f 345 335 346
f 345 346 347
f 347 346 348
f 348 346 349
f 348 349 350
f 351 352 350
f 350 349 351
f 351 349 353
f 351 353 354
f 355 356 346
f 346 356 357
f 346 357 349
f 349 357 358
f 349 358 353
f 355 346 359
f 359 346 335
f 359 335 339
f 351 360 361
f 361 362 351
f 351 362 363
f 351 363 352
f 360 351 364
f 364 351 354
f 364 354 365
f 366 367 368
f 331 309 369
f 370 371 372
f 372 371 373
f 372 373 374
f 374 373 375
f 374 375 365
f 365 375 376
f 365 376 364
f 364 376 377
f 364 377 360
f 360 377 378
f 360 378 361
f 361 378 379
f 361 379 362
f 362 379 380
f 362 380 363
f 363 380 381
f 363 381 382
f 347 383 345
f 345 383 336
f 347 348 383
f 383 348 350
f 383 350 382
f 382 350 352
f 382 352 363
f 336 383 337
f 337 383 384
f 337 384 341
f 341 384 385
f 341 385 334
f 334 385 386
f 334 386 332
f 332 386 387
f 332 387 330
f 330 387 275
f 275 387 388
f 275 388 276
f 276 388 292
f 292 388 389
f 292 389 273
f 273 389 390
f 273 390 299
f 299 390 391
f 299 391 298
f 309 279 369
f 369 279 278
f 369 278 392
f 392 278 281
f 392 281 391
f 391 281 284
f 391 284 298
f 331 369 156
f 156 369 393
f 156 393 158
f 158 393 394
f 158 394 154
f 148 150 395
f 395 150 153
f 395 153 394
f 394 153 152
f 394 152 154
f 396 124 397
f 397 124 130
f 397 130 398
f 398 130 129
f 398 129 399
f 399 129 128
f 399 128 395
f 395 128 146
f 395 146 148
f 400 127 396
f 396 127 126
f 396 126 124
f 134 136 400
f 400 136 139
f 400 139 140
f 140 143 400
f 400 143 144
f 400 144 127
f 401 402 403
f 402 404 403
f 403 404 405
f 403 405 400
f 400 405 131
f 400 131 134
f 403 406 401
f 401 406 407
f 401 407 408
f 408 407 409
f 408 409 410
f 410 409 411
f 410 411 368
f 368 411 412
f 368 412 366
f 370 413 371
f 371 413 414
f 371 414 415
f 415 414 416
f 415 416 417
f 416 418 417
f 417 418 419
f 417 419 420
f 419 421 420
f 420 421 422
f 420 422 423
f 423 422 424
f 423 424 425
f 365 354 374
f 374 354 353
f 353 358 374
f 374 358 357
f 374 357 372
f 372 357 370
f 413 339 414
f 414 339 338
f 414 338 340
f 357 356 370
f 370 356 355
f 370 355 413
f 413 355 359
f 413 359 339
f 416 414 340
f 340 344 416
f 416 344 343
f 416 343 342
f 404 333 326
f 326 316 404
f 404 316 310
f 404 310 155
f 159 132 131
f 155 157 404
f 404 157 159
f 404 159 405
f 405 159 131
f 342 333 416
f 416 333 404
f 416 404 418
f 418 404 402
f 402 401 418
f 418 401 408
f 418 408 419
f 419 408 410
f 419 410 421
f 426 427 367
f 367 427 425
f 367 425 368
f 368 425 424
f 368 424 410
f 410 424 422
f 410 422 421
f 428 426 104
f 428 429 426
f 426 429 430
f 426 430 427
f 104 103 428
f 428 103 102
f 428 102 431
f 431 102 100
f 431 100 56
f 56 100 86
f 119 431 18
f 18 431 56
f 18 56 19
f 19 56 57
f 19 57 20
f 20 57 58
f 20 58 21
f 21 58 38
f 432 433 434
f 434 433 435
f 434 435 436
f 437 438 439
f 439 438 440
f 439 440 441
f 441 440 442
f 441 442 443
f 443 442 444
f 443 444 445
f 445 444 446
f 445 446 447
f 447 446 448
f 447 448 449
f 449 448 450
f 449 450 451
f 451 450 452
f 451 452 453
f 453 452 454
f 453 454 455
f 455 454 456
f 455 456 457
f 457 456 458
f 457 458 432
f 432 458 459
f 432 459 433
f 460 461 462
f 463 464 465
f 465 464 466
f 465 466 467
f 467 466 468
f 467 468 469
f 469 468 470
f 469 470 471
f 471 470 472
f 471 472 473
f 472 474 473
f 473 474 475
f 473 475 476
f 476 475 477
f 476 477 478
f 478 477 479
f 478 479 480
f 480 479 481
f 480 481 482
f 482 481 483
f 482 483 484
f 484 483 485
f 484 485 486
f 486 485 487
f 486 487 488
f 488 487 489
f 488 489 490
f 490 489 491
f 490 491 492
f 492 491 493
f 460 462 494
f 462 495 494
f 494 495 496
f 494 496 497
f 497 496 498
f 497 498 493
f 493 498 499
f 493 499 492
f 500 501 502
f 502 501 503
f 500 502 461
f 461 502 504
f 461 504 462
f 501 505 503
f 503 505 506
f 503 506 507
f 507 506 508
f 507 508 509
f 509 508 510
f 509 510 511
f 511 510 512
f 510 513 512
f 512 513 514
f 512 514 515
f 515 514 516
f 515 516 517
f 517 516 518
f 517 518 519
f 518 520 519
f 519 520 521
f 519 521 522
f 522 521 523
f 522 523 524
f 524 523 525
f 524 525 526
f 526 525 527
f 526 527 528
f 527 529 528
f 528 529 530
f 528 530 531
f 531 530 532
f 531 532 533
f 533 532 534
f 533 534 535
f 535 534 536
f 535 536 537
f 537 536 538
f 537 538 539
f 539 538 540
f 539 540 541
f 541 540 542
f 541 542 543
f 543 542 544
f 543 544 545
f 545 544 546
f 545 546 547
f 547 546 548
f 547 548 549
f 549 548 550
f 549 550 551
f 550 552 551
f 551 552 553
f 551 553 554
f 554 553 555
f 554 555 556
f 556 555 557
f 556 557 558
f 558 557 559
f 558 559 560
f 560 559 561
f 561 559 562
f 561 562 563
f 563 562 564
f 563 564 565
f 565 564 566
f 565 566 567
f 567 566 568
f 567 568 569
f 569 568 570
f 569 570 571
f 570 572 571
f 571 572 573
f 571 573 574
f 574 573 575
f 574 575 576
f 576 575 577
f 576 577 578
f 578 577 579
f 578 579 580
f 579 581 580
f 580 581 582
f 580 582 583
f 584 585 586
f 587 588 589
f 590 591 592
f 593 594 595
f 596 597 598
f 598 597 599
f 599 597 600
f 600 597 601
f 600 601 602
f 602 601 603
f 603 601 604
f 603 604 605
f 606 607 608
f 608 607 609
f 608 609 610
f 610 609 611
f 612 613 614
f 614 613 615
f 614 615 611
f 611 615 616
f 611 616 610
f 617 618 612
f 612 618 619
f 612 619 613
f 620 621 622
f 622 623 620
f 620 623 624
f 620 624 617
f 617 624 625
f 617 625 618
f 621 620 626
f 626 620 627
f 626 627 628
f 628 627 629
f 629 627 630
f 629 630 631
f 631 630 632
f 632 630 633
f 632 633 634
f 634 633 635
f 635 633 636
f 635 636 637
f 638 639 636
f 636 639 640
f 636 640 637
f 641 642 643
f 643 642 644
f 643 644 638
f 638 644 645
f 638 645 639
f 591 590 643
f 643 590 646
f 643 646 641
f 647 648 649
f 649 648 650
f 649 650 592
f 592 650 651
f 592 651 590
f 652 653 649
f 649 653 654
f 649 654 647
f 655 656 652
f 652 656 657
f 657 658 652
f 652 658 659
f 652 659 653
f 660 661 662
f 662 661 663
f 662 663 655
f 655 663 664
f 655 664 656
f 665 666 660
f 660 666 667
f 660 667 661
f 660 668 665
f 665 668 669
f 665 669 670
f 671 672 673
f 673 672 674
f 673 674 669
f 669 674 675
f 669 675 670
f 676 677 678
f 678 677 679
f 680 681 682
f 682 681 683
f 682 683 676
f 676 683 684
f 676 684 677
f 685 686 687
f 687 686 680
f 687 680 688
f 688 680 682
f 689 690 691
f 691 690 692
f 691 692 693
f 694 695 696
f 589 588 697
f 697 588 698
f 697 698 699
f 700 701 702
f 702 701 703
f 704 705 706
f 706 705 707
f 586 585 708
f 708 585 709
f 708 709 710
f 711 712 584
f 713 712 714
f 714 712 711
f 714 711 715
f 715 711 716
f 713 714 717
f 717 714 718
f 717 718 719
f 718 720 719
f 719 720 721
f 719 721 722
f 721 723 722
f 722 723 724
f 722 724 725
f 726 727 728
f 725 729 730
f 730 729 731
f 730 731 732
f 732 731 733
f 732 733 734
f 734 733 735
f 734 735 736
f 736 735 737
f 736 737 738
f 738 737 726
f 738 726 739
f 739 726 728
f 739 728 740
f 595 741 593
f 593 741 742
f 593 742 743
f 743 742 744
f 743 744 745
f 584 586 711
f 711 586 746
f 711 746 716
f 710 707 708
f 708 707 705
f 708 705 747
f 747 748 708
f 708 748 749
f 708 749 586
f 586 749 750
f 586 750 746
f 706 703 704
f 704 703 701
f 704 701 751
f 702 587 700
f 700 587 589
f 700 589 752
f 752 589 697
f 752 697 695
f 752 753 700
f 700 753 754
f 700 754 701
f 701 754 755
f 701 755 751
f 751 756 704
f 704 756 757
f 704 757 705
f 705 757 758
f 705 758 747
f 696 759 694
f 694 759 760
f 694 760 761
f 761 760 762
f 761 762 763
f 763 762 764
f 763 764 765
f 765 764 766
f 765 766 767
f 767 766 768
f 767 768 769
f 769 768 770
f 769 770 771
f 771 770 772
f 771 772 773
f 696 689 759
f 759 689 691
f 759 691 760
f 760 691 774
f 760 774 762
f 762 774 775
f 762 775 764
f 764 775 776
f 764 776 766
f 766 776 777
f 766 777 768
f 768 777 778
f 768 778 770
f 770 778 779
f 770 779 772
f 772 779 780
f 772 780 773
f 773 780 781
f 773 781 782
f 782 781 783
f 782 783 784
f 784 783 785
f 784 785 786
f 786 785 787
f 786 787 788
f 693 685 691
f 691 685 687
f 691 687 774
f 774 687 688
f 774 688 775
f 775 688 682
f 775 682 776
f 776 682 676
f 776 676 777
f 777 676 678
f 777 678 778
f 778 678 789
f 778 789 779
f 779 789 790
f 779 790 780
f 780 790 791
f 780 791 781
f 781 791 792
f 781 792 783
f 783 792 793
f 783 793 785
f 785 793 794
f 785 794 787
f 787 794 795
f 787 795 788
f 796 797 798
f 798 797 799
f 798 799 800
f 800 799 801
f 800 801 802
f 802 801 803
f 802 803 804
f 804 803 805
f 804 805 806
f 806 805 807
f 806 807 808
f 808 807 809
f 808 809 810
f 810 809 811
f 810 811 812
f 812 811 813
f 812 813 814
f 814 813 815
f 814 815 816
f 816 815 817
f 816 817 818
f 818 817 819
f 818 819 820
f 820 819 821
f 820 821 822
f 822 821 823
f 822 823 824
f 824 823 825
f 824 825 826
f 679 671 678
f 678 671 673
f 678 673 789
f 789 673 669
f 789 669 790
f 790 669 668
f 790 668 791
f 791 668 660
f 791 660 792
f 792 660 662
f 792 662 793
f 793 662 655
f 793 655 794
f 794 655 652
f 794 652 795
f 795 652 649
f 795 649 788
f 788 649 592
f 788 592 827
f 827 592 591
f 827 591 828
f 828 591 643
f 828 643 829
f 829 643 638
f 829 638 830
f 830 638 636
f 830 636 831
f 831 636 633
f 831 633 832
f 832 633 630
f 832 630 833
f 833 630 627
f 833 627 834
f 834 627 620
f 834 620 835
f 835 620 617
f 835 617 836
f 836 617 612
f 836 612 837
f 837 612 614
f 837 614 838
f 838 614 611
f 838 611 839
f 839 611 609
f 839 609 604
f 604 609 607
f 604 607 605
f 605 607 606
f 596 796 597
f 597 796 798
f 597 798 601
f 601 798 800
f 601 800 604
f 604 800 802
f 604 802 839
f 839 802 804
f 839 804 838
f 838 804 806
f 838 806 837
f 837 806 808
f 837 808 836
f 836 808 810
f 836 810 835
f 835 810 812
f 835 812 834
f 834 812 814
f 834 814 833
f 833 814 816
f 833 816 832
f 832 816 818
f 832 818 831
f 831 818 820
f 831 820 830
f 830 820 822
f 830 822 829
f 829 822 824
f 829 824 828
f 828 824 826
f 828 826 827
f 827 826 840
f 827 840 788
f 788 840 841
f 788 841 786
f 744 727 745
f 745 727 726
f 745 726 842
f 842 726 737
f 725 724 729
f 729 724 843
f 729 843 731
f 731 843 844
f 731 844 733
f 733 844 845
f 733 845 735
f 735 845 846
f 735 846 737
f 737 846 847
f 737 847 842
f 695 694 752
f 752 694 761
f 752 761 753
f 753 761 763
f 753 763 754
f 754 763 765
f 754 765 755
f 755 765 767
f 755 767 751
f 751 767 769
f 751 769 756
f 756 769 771
f 756 771 757
f 757 771 773
f 757 773 758
f 758 773 782
f 758 782 747
f 747 782 784
f 747 784 748
f 748 784 786
f 748 786 749
f 749 786 841
f 749 841 750
f 750 841 840
f 750 840 746
f 746 840 826
f 746 826 716
f 716 826 825
f 716 825 715
f 715 825 823
f 715 823 714
f 714 823 821
f 714 821 718
f 718 821 819
f 718 819 720
f 720 819 817
f 720 817 721
f 721 817 815
f 721 815 723
f 723 815 813
f 723 813 724
f 724 813 811
f 724 811 843
f 843 811 809
f 843 809 844
f 844 809 807
f 844 807 845
f 845 807 805
f 845 805 846
f 846 805 803
f 846 803 847
f 847 803 801
f 847 801 842
f 842 801 799
f 842 799 745
f 745 799 797
f 745 797 743
f 743 797 796
f 743 796 593
f 593 796 596
f 593 596 594
f 594 596 598
f 594 598 595
f 631 508 629
f 693 582 685
f 685 582 581
f 685 581 686
f 686 581 579
f 686 579 680
f 680 579 577
f 680 577 681
f 681 577 683
f 683 577 575
f 683 575 684
f 684 575 573
f 684 573 677
f 677 573 572
f 677 572 679
f 572 570 679
f 679 570 568
f 679 568 671
f 671 568 566
f 671 566 672
f 672 566 674
f 674 566 564
f 674 564 675
f 675 564 562
f 675 562 670
f 670 562 559
f 670 559 665
f 665 559 557
f 665 557 666
f 666 557 667
f 667 557 555
f 667 555 661
f 555 553 661
f 661 553 552
f 661 552 663
f 663 552 664
f 552 550 664
f 664 550 548
f 664 548 656
f 656 548 546
f 656 546 657
f 657 546 658
f 546 544 658
f 658 544 542
f 658 542 659
f 659 542 540
f 641 646 529
f 529 646 590
f 529 590 530
f 530 590 651
f 530 651 532
f 532 651 650
f 532 650 534
f 534 650 648
f 534 648 536
f 536 648 647
f 536 647 538
f 538 647 654
f 538 654 540
f 540 654 653
f 540 653 659
f 529 527 641
f 641 527 525
f 641 525 642
f 642 525 523
f 521 645 523
f 523 645 644
f 523 644 642
f 521 520 645
f 645 520 518
f 645 518 639
f 635 637 518
f 518 637 640
f 518 640 639
f 518 516 635
f 635 516 514
f 635 514 634
f 634 514 513
f 634 513 632
f 632 513 631
f 631 513 510
f 631 510 508
f 629 508 628
f 628 508 506
f 628 506 626
f 506 505 626
f 626 505 501
f 626 501 621
f 621 501 500
f 619 618 494
f 494 618 625
f 494 625 460
f 460 625 624
f 460 624 461
f 461 624 623
f 461 623 500
f 500 623 622
f 500 622 621
f 494 497 619
f 619 497 493
f 619 493 613
f 613 493 491
f 613 491 615
f 615 491 489
f 615 489 616
f 616 489 487
f 616 487 610
f 610 487 485
f 610 485 608
f 608 485 483
f 608 483 606
f 606 483 481
f 606 481 605
f 605 481 479
f 605 479 603
f 603 479 477
f 603 477 602
f 602 477 475
f 602 475 600
f 600 475 474
f 600 474 599
f 474 472 599
f 599 472 470
f 599 470 598
f 464 595 466
f 466 595 598
f 466 598 468
f 468 598 470
f 848 849 582
f 850 848 851
f 851 848 582
f 851 582 693
f 852 853 854
f 852 854 855
f 855 854 856
f 855 856 857
f 857 856 858
f 858 856 859
f 858 859 860
f 860 859 861
f 860 861 862
f 862 861 863
f 862 863 864
f 865 866 867
f 867 866 868
f 868 849 867
f 867 849 848
f 867 848 869
f 869 848 850
f 867 864 865
f 865 864 863
f 865 863 870
f 870 863 861
f 870 861 871
f 871 861 859
f 871 859 872
f 872 859 873
f 873 859 856
f 873 856 874
f 874 856 854
f 874 854 875
f 875 854 853
f 875 853 876
f 877 435 433
f 433 459 877
f 877 459 458
f 877 458 456
f 456 454 877
f 877 454 452
f 877 452 876
f 876 452 450
f 450 448 876
f 876 448 446
f 876 446 875
f 875 446 444
f 875 444 874
f 865 870 440
f 440 870 871
f 440 871 442
f 442 871 872
f 442 872 444
f 444 872 873
f 444 873 874
f 865 440 866
f 866 440 438
f 866 438 868
f 868 438 849
f 849 438 583
f 849 583 582
f 437 463 438
f 438 463 583
f 583 463 580
f 580 463 465
f 580 465 578
f 467 469 878
f 465 467 578
f 578 467 878
f 578 878 576
f 565 567 878
f 878 567 569
f 569 571 878
f 878 571 574
f 878 574 576
f 469 471 878
f 878 471 473
f 878 473 565
f 565 473 476
f 565 476 478
f 879 554 556
f 556 558 879
f 879 558 560
f 879 560 561
f 478 480 565
f 565 480 879
f 565 879 563
f 563 879 561
f 480 482 879
f 879 482 484
f 879 484 486
f 551 554 880
f 551 880 549
f 524 526 880
f 880 526 528
f 880 528 531
f 531 533 880
f 880 533 535
f 880 535 537
f 537 539 880
f 880 539 541
f 880 541 543
f 543 545 880
f 880 545 547
f 880 547 549
f 486 488 879
f 879 488 490
f 879 490 554
f 554 490 492
f 554 492 880
f 880 492 499
f 880 499 498
f 498 496 880
f 880 496 495
f 880 495 462
f 462 504 880
f 880 504 502
f 880 502 503
f 503 507 880
f 880 507 509
f 880 509 511
f 511 512 880
f 880 512 515
f 880 515 517
f 517 519 880
f 880 519 522
f 880 522 524
f 464 463 881
f 881 463 437
f 882 883 439
f 439 883 884
f 439 884 437
f 437 884 885
f 437 885 881
f 882 439 886
f 886 439 441
f 886 441 887
f 887 441 443
f 887 443 888
f 447 889 445
f 445 889 890
f 445 890 443
f 443 890 891
f 443 891 888
f 447 449 889
f 889 449 451
f 889 451 892
f 451 453 892
f 892 453 455
f 892 455 457
f 457 432 892
f 892 432 434
f 892 434 436
f 893 881 894
f 894 881 885
f 894 885 895
f 885 884 895
f 895 884 883
f 895 883 896
f 896 883 897
f 896 897 898
f 899 900 901
f 901 900 902
f 901 902 898
f 898 902 903
f 898 903 896
f 904 905 906
f 906 905 907
f 906 907 908
f 889 907 890
f 890 907 905
f 890 905 909
f 909 905 904
f 909 904 910
f 887 888 909
f 909 888 891
f 909 891 890
f 883 882 897
f 897 882 886
f 897 886 898
f 898 886 887
f 898 887 901
f 901 887 909
f 901 909 899
f 899 909 910
f 881 893 464
f 464 893 595
f 911 696 695
f 699 912 697
f 697 912 913
f 697 913 914
f 741 595 893
f 915 916 741
f 741 916 742
f 742 916 744
f 744 916 917
f 744 917 727
f 740 728 918
f 918 728 727
f 738 919 736
f 736 919 920
f 736 920 734
f 734 920 732
f 732 920 730
f 730 920 921
f 730 921 725
f 922 923 722
f 722 923 719
f 584 712 924
f 924 712 713
f 924 713 923
f 923 713 717
f 923 717 719
f 925 710 926
f 926 710 709
f 926 709 924
f 924 709 585
f 924 585 584
f 927 706 925
f 925 706 707
f 925 707 710
f 588 587 927
f 587 702 927
f 927 702 703
f 927 703 706
f 387 386 928
f 928 386 699
f 928 699 698
f 696 911 689
f 689 911 929
f 689 929 690
f 929 850 690
f 690 850 851
f 690 851 692
f 692 851 693
f 864 867 929
f 929 867 869
f 929 869 850
f 860 376 858
f 858 376 375
f 858 375 373
f 430 930 427
f 427 930 931
f 427 931 425
f 425 931 932
f 425 932 423
f 423 932 933
f 423 933 420
f 420 933 934
f 420 934 417
f 417 934 935
f 417 935 415
f 415 935 852
f 415 852 371
f 371 852 855
f 371 855 373
f 373 855 857
f 373 857 858
f 860 936 376
f 376 936 937
f 376 937 377
f 377 937 378
f 378 937 938
f 378 938 379
f 386 385 699
f 699 385 384
f 699 384 912
f 912 384 383
f 912 383 913
f 913 383 382
f 913 382 914
f 914 382 381
f 914 381 938
f 938 381 380
f 938 380 379
f 926 388 925
f 925 388 387
f 925 387 927
f 927 387 928
f 927 928 588
f 588 928 698
f 394 393 919
f 919 393 369
f 919 369 920
f 920 369 392
f 920 392 921
f 921 392 391
f 921 391 939
f 939 391 390
f 939 390 940
f 940 390 389
f 394 941 395
f 395 941 942
f 395 942 399
f 399 942 943
f 399 943 398
f 398 943 944
f 398 944 397
f 397 944 945
f 397 945 396
f 400 899 910
f 910 904 400
f 400 904 906
f 400 906 403
f 403 906 908
f 403 908 406
f 406 908 946
f 947 411 948
f 948 411 409
f 948 409 946
f 946 409 407
f 946 407 406
f 104 426 105
f 105 426 949
f 105 949 106
f 426 367 949
f 949 367 366
f 949 366 947
f 947 366 412
f 947 412 411
f 944 896 945
f 945 896 903
f 945 903 902
f 400 396 899
f 899 396 945
f 899 945 900
f 900 945 902
f 741 893 915
f 915 893 894
f 915 894 895
f 722 725 922
f 922 725 921
f 922 921 923
f 923 921 939
f 923 939 924
f 924 939 940
f 924 940 926
f 926 940 389
f 926 389 388
f 895 896 915
f 915 896 944
f 915 944 916
f 916 944 943
f 916 943 917
f 917 943 942
f 917 942 727
f 727 942 941
f 727 941 918
f 918 941 394
f 918 394 740
f 740 394 919
f 740 919 739
f 739 919 738
f 860 862 936
f 936 862 864
f 936 864 937
f 937 864 929
f 937 929 938
f 938 929 911
f 938 911 914
f 914 911 695
f 914 695 697
f 877 876 853
f 852 935 853
f 853 935 934
f 907 949 947
f 892 101 106
f 949 907 106
f 106 907 889
f 106 889 892
f 950 435 951
f 951 435 952
f 950 953 435
f 435 953 954
f 435 954 955
f 93 436 92
f 92 436 435
f 92 435 91
f 91 435 90
f 853 931 877
f 877 931 956
f 877 956 957
f 934 933 853
f 853 933 932
f 853 932 931
f 947 948 907
f 907 948 946
f 907 946 908
f 93 94 436
f 436 94 95
f 436 95 892
f 892 95 96
f 892 96 97
f 97 98 892
f 892 98 99
f 892 99 101
f 957 958 877
f 877 958 959
f 877 959 435
f 435 959 960
f 435 960 952
f 955 107 435
f 435 107 88
f 435 88 90
f 110 107 955
f 430 429 930
f 930 429 956
f 930 956 931
f 429 428 956
f 956 428 431
f 956 431 957
f 431 119 957
f 957 119 118
f 957 118 117
f 961 959 962
f 962 959 958
f 962 958 963
f 963 958 957
f 963 957 964
f 964 957 117
f 965 952 961
f 961 952 960
f 961 960 959
f 965 966 952
f 952 966 967
f 952 967 951
f 951 967 968
f 951 968 950
f 950 968 969
f 950 969 953
f 953 969 970
f 953 970 954
f 954 970 955
f 955 970 111
f 955 111 110
