# https://github.com/mikedh/trimesh
v -0.00029215 0.00608537 0.00793138
v 0.00025217 0.00600888 0.00793138
v -0.00045030 0.00607072 0.00793138
v 0.00220141 0.00375506 0.01464815
v 0.00220141 0.00398126 0.01402523
v 0.00045445 0.00592101 0.00793138
v 0.00285238 0.00371275 0.01403048
v -0.00086405 0.00600075 0.00793138
v -0.00072797 0.00593891 0.00818502
v 0.00155411 0.00361023 0.01467837
v 0.00174720 0.00348167 0.01504240
v 0.00220141 0.00348005 0.01503452
v 0.00252873 0.00343123 0.01497669
v 0.00263539 0.00357443 0.01464815
v -0.00091554 0.00534982 0.00950840
v 0.00057030 0.00587056 0.00793138
v 0.00320545 0.00351259 0.01382679
v 0.00326062 0.00355002 0.01340231
v -0.00276732 0.00539864 0.00793138
v -0.00216968 0.00540190 0.00842814
v -0.00151870 0.00537749 0.00902872
v -0.00129803 0.00530263 0.00940458
v -0.00136056 0.00470378 0.01070167
v -0.00130907 0.00406913 0.01190546
v -0.00152606 0.00382992 0.01213018
v 0.00063282 0.00341495 0.01434326
v 0.00133160 0.00335637 0.01490704
v -0.00002183 -0.00155322 0.01935159
v -0.00003838 -0.00216997 0.01997714
v 0.00008115 -0.00216997 0.01997714
v 0.00127644 -0.00216020 0.01871553
v 0.00502413 -0.00025462 0.01249290
v 0.00065489 -0.00156298 0.01933714
v 0.00071005 -0.00189170 0.01941993
v 0.00079097 -0.00251333 0.01954872
v 0.00094360 0.00556951 0.00793138
v 0.00496896 0.00016034 0.01230760
v 0.00501678 0.00030517 0.01189232
v 0.00347577 0.00309763 0.01340231
v 0.00501678 0.00030517 0.01183055
v 0.00323304 0.00349307 0.01298834
v 0.00125069 0.00526358 0.00793138
v 0.00111645 0.00540190 0.00793138
v 0.00100612 0.00550930 0.00793138
v -0.00461175 0.00477050 0.00793138
v -0.00262940 0.00532867 0.00822970
v -0.00196556 0.00531565 0.00881582
v -0.00447383 0.00470215 0.00820473
v -0.00312591 0.00466635 0.00936909
v -0.00203360 0.00472331 0.01011817
v -0.00152606 0.00418467 0.01153617
v -0.00354150 0.00458824 0.00920351
v -0.00627044 0.00405611 0.00814296
v -0.00516526 0.00411795 0.00887496
v -0.00335026 0.00412446 0.01025222
v -0.00199866 0.00409842 0.01133116
v -0.00649847 0.00382178 0.00837557
v -0.00652605 0.00350771 0.00888153
v -0.00327118 0.00349469 0.01134825
v -0.00212186 0.00353863 0.01213938
v -0.00188465 0.00342635 0.01249027
v -0.00154077 0.00351259 0.01261117
v -0.00687360 0.00342635 0.00875143
v -0.00230208 0.00331243 0.01233651
v -0.00629986 0.00283401 0.01003275
v -0.00266066 0.00289747 0.01259934
v -0.00195636 0.00284865 0.01316444
v -0.00218990 0.00249064 0.01342071
v 0.00050594 0.00100166 0.01692168
v -0.00200969 0.00225794 0.01381759
v -0.00078498 -0.00270698 0.02007308
v -0.00045397 -0.00229201 0.01984835
v 0.00000575 -0.00094786 0.01871027
v -0.00242528 0.00212450 0.01367697
v -0.00075372 -0.00332861 0.02067103
v -0.00029215 -0.00291853 0.02048967
v -0.00029215 -0.00322934 0.02071703
v 0.00010505 -0.00327653 0.02066446
v 0.00062179 -0.00295270 0.01992457
v 0.00505172 -0.00064355 0.01253626
v 0.00522825 -0.00064355 0.01215515
v 0.00509217 -0.00003656 0.01212230
v 0.00509953 -0.00002029 0.01170833
v 0.00144746 0.00486651 0.00793138
v 0.00140700 0.00495764 0.00793138
v -0.00590266 0.00429207 0.00793138
v -0.00605161 0.00423674 0.00793138
v -0.00278755 0.00410493 0.01071744
v -0.00639733 0.00410330 0.00793138
v -0.00665661 0.00399265 0.00793138
v -0.00668603 0.00396498 0.00796161
v -0.00447751 0.00409191 0.00944926
v -0.00257791 0.00346052 0.01191991
v -0.00714576 0.00309926 0.00903266
v -0.00700233 0.00287469 0.00946634
v -0.00728920 0.00332545 0.00855430
v -0.00816636 0.00222539 0.00942823
v -0.00789420 0.00205127 0.00984351
v -0.00278755 0.00228398 0.01323409
v -0.00120057 -0.00284530 0.01992852
v -0.00097806 -0.00308614 0.02030174
v -0.00312775 0.00217983 0.01311187
v -0.00823256 0.00163631 0.01007875
v -0.00753009 0.00158098 0.01064122
v -0.00188832 -0.00341811 0.01997320
v -0.00116931 -0.00351412 0.02053041
v -0.00089347 -0.00378588 0.02086816
v -0.00061580 -0.00405601 0.02120196
v -0.00056983 -0.00405601 0.02120196
v 0.00016206 -0.00375984 0.02075645
v -0.00033445 -0.00381355 0.02102849
v -0.00012665 -0.00438473 0.02114413
v 0.00000024 -0.00479318 0.02118224
v 0.00047467 -0.00375984 0.02030306
v 0.00065121 -0.00336766 0.01996269
v 0.00439155 -0.00150277 0.01372559
v 0.00440810 -0.00189170 0.01375319
v 0.00443200 -0.00251333 0.01379393
v 0.00445223 -0.00313659 0.01382679
v 0.00445407 -0.00375984 0.01383336
v 0.00568430 -0.00313659 0.01071875
v 0.00566775 -0.00264839 0.01067276
v 0.00463796 -0.00438473 0.01340231
v 0.00566775 -0.00264839 0.01052294
v 0.00163502 0.00420257 0.00793138
v -0.00675040 0.00393895 0.00793138
v -0.00727816 0.00363139 0.00793138
v -0.00748412 0.00342797 0.00813902
v -0.00763859 0.00290886 0.00889862
v -0.00741792 0.00275264 0.00931390
v -0.00805418 0.00275752 0.00857533
v -0.00826198 0.00234419 0.00903661
v -0.00879894 0.00164119 0.00949788
v -0.00864815 0.00149636 0.00991448
v -0.00190671 -0.00278834 0.01936342
v -0.00303029 -0.00287133 0.01865114
v -0.01213840 -0.00391769 0.01324986
v -0.01137341 -0.00395349 0.01383073
v -0.01066175 -0.00401208 0.01439188
v -0.00373275 -0.00343601 0.01871159
v -0.01248779 -0.00403811 0.01312239
v -0.01106631 -0.00353690 0.01361258
v -0.00994458 -0.00408368 0.01495041
v -0.01242159 -0.00473460 0.01369405
v -0.00134585 -0.00393071 0.02065000
v -0.00070407 -0.00438473 0.02125189
v -0.00248781 -0.00405764 0.01995612
v -0.01256686 -0.00515119 0.01379130
v -0.01183865 -0.00530416 0.01434326
v -0.00376769 -0.00462557 0.01935554
v -0.00187913 -0.00464510 0.02058955
v -0.00043742 -0.00438473 0.02125189
v -0.00024250 -0.00500311 0.02130315
v 0.00002782 -0.00520815 0.02120590
v 0.00050042 -0.00438473 0.02034380
v 0.00066960 -0.00375984 0.01999160
v 0.00134448 -0.00313659 0.01882461
v 0.00392814 -0.00251333 0.01460609
v 0.00423892 -0.00251333 0.01410539
v 0.00376632 -0.00336604 0.01497012
v 0.00426282 -0.00313659 0.01413956
v 0.00427018 -0.00375984 0.01414482
v 0.00377367 -0.00375984 0.01498064
v 0.00377184 -0.00423665 0.01497801
v 0.00391343 -0.00442053 0.01470729
v 0.00425547 -0.00438473 0.01410802
v 0.00443017 -0.00438473 0.01379656
v 0.00566407 -0.00354504 0.01068327
v 0.00568430 -0.00313659 0.01049797
v 0.00479611 -0.00500799 0.01277807
v 0.00440258 -0.00478668 0.01374794
v 0.00452211 -0.00499985 0.01343516
v 0.00541030 -0.00313659 0.01018651
v 0.00508665 -0.00265490 0.00992368
v 0.00185753 0.00304881 0.00793138
v -0.00750435 0.00345401 0.00793138
v -0.00809464 0.00279658 0.00816005
v -0.00885411 0.00172418 0.00903661
v -0.00857459 0.00203500 0.00903661
v -0.01245837 -0.00344089 0.01247581
v -0.01178900 -0.00410809 0.01368617
v -0.01255215 -0.00380215 0.01272156
v -0.01261100 -0.00438473 0.01325643
v -0.01218437 -0.00434242 0.01357972
v -0.01280408 -0.00498683 0.01341808
v -0.00082727 -0.00500799 0.02132155
v -0.01299717 -0.00563125 0.01355607
v -0.01268455 -0.00563125 0.01386884
v -0.01220827 -0.00563125 0.01418030
v -0.00993722 -0.00534647 0.01557464
v -0.00193613 -0.00500799 0.02062635
v -0.00029215 -0.00563125 0.02135572
v 0.00069534 -0.00438473 0.02003234
v 0.00003517 -0.00563125 0.02121378
v 0.00023929 -0.00563125 0.02088393
v 0.00071741 -0.00500799 0.02006914
v 0.00257655 -0.00375984 0.01693219
v 0.00325326 -0.00313659 0.01576914
v 0.00327349 -0.00375984 0.01580463
v 0.00327349 -0.00438473 0.01581514
v 0.00072477 -0.00563125 0.02008622
v 0.00023010 -0.00625451 0.02088393
v 0.00002598 -0.00659136 0.02120327
v 0.00375161 -0.00465324 0.01495435
v 0.00070638 -0.00625451 0.02005994
v 0.00324775 -0.00500799 0.01578097
v 0.00566407 -0.00354504 0.01053871
v 0.00438419 -0.00594369 0.01309085
v 0.00444672 -0.00563125 0.01321044
v 0.00251954 -0.00597298 0.01683757
v 0.00067511 -0.00674107 0.02000605
v 0.00126908 -0.00719835 0.01870633
v 0.00383436 -0.00563125 0.01447731
v 0.00378287 -0.00600227 0.01438137
v 0.00504988 -0.00350110 0.00994602
v 0.00509769 -0.00313659 0.00991579
v 0.00197522 0.00184948 0.00793138
v 0.00192741 0.00247437 0.00793138
v 0.00191086 0.00262734 0.00793138
v -0.00801556 0.00288120 0.00793138
v -0.00809464 0.00279658 0.00800498
v -0.00939107 0.00099678 0.00903661
v -0.00916488 0.00130759 0.00903661
v -0.01246388 -0.00342950 0.01215515
v -0.01279489 -0.00438473 0.01277807
v -0.01309095 -0.00523907 0.01314210
v -0.00085486 -0.00563125 0.02133732
v -0.00309097 -0.00544736 0.01994297
v -0.00197659 -0.00563125 0.02065000
v -0.01306521 -0.00625451 0.01366909
v -0.01275443 -0.00625451 0.01391878
v -0.01227999 -0.00625451 0.01423024
v -0.01078680 -0.00563125 0.01508971
v -0.01000159 -0.00576306 0.01561144
v -0.00029215 -0.00625451 0.02132155
v 0.00003334 -0.00625451 0.02121247
v 0.00053536 -0.00563125 0.02039768
v 0.00005356 -0.00786391 0.02060926
v 0.00011425 -0.00750265 0.02069994
v 0.00015286 -0.00683057 0.02090101
v 0.00051513 -0.00692008 0.02023209
v -0.00029215 -0.00669063 0.02124401
v -0.00029215 -0.00700144 0.02110865
v 0.00438419 -0.00594369 0.01308953
v 0.00522825 -0.00428221 0.01090800
v 0.00514182 -0.00416667 0.01048746
v 0.00530365 -0.00373055 0.01030479
v 0.00386562 -0.00622847 0.01400814
v 0.00329188 -0.00690055 0.01467443
v 0.00379390 -0.00660601 0.01378868
v 0.00080752 -0.00692008 0.01969197
v 0.00062914 -0.00715604 0.01993640
v 0.00189063 -0.00719184 0.01745523
v 0.00036986 -0.00750265 0.02025969
v 0.00075235 -0.00750265 0.01953558
v 0.00068431 -0.00792412 0.01941073
v 0.00318890 -0.00670853 0.01507000
v 0.00196051 -0.00744081 0.01710303
v 0.00195867 -0.00364756 0.00793138
v 0.00208188 -0.00317727 0.00793138
v 0.00064753 -0.00687777 0.00793138
v 0.00208924 -0.00313659 0.00793138
v 0.00211314 -0.00260934 0.00793138
v 0.00209475 -0.00197306 0.00793138
v 0.00198074 0.00170791 0.00793138
v -0.00808912 0.00279170 0.00793138
v -0.00814981 0.00270382 0.00793138
v -0.00884675 0.00173720 0.00841369
v -0.01012111 -0.00008213 0.00903661
v -0.01065992 -0.00083883 0.00966084
v -0.01044660 -0.00052638 0.00966084
v -0.01013399 -0.00007399 0.00966084
v -0.01246204 -0.00342950 0.01181872
v -0.01309095 -0.00523907 0.01305536
v -0.01310198 -0.00563125 0.01324461
v -0.00079969 -0.00625451 0.02130446
v -0.00310384 -0.00595996 0.01995086
v -0.01115826 -0.00625451 0.01493070
v -0.00310384 -0.00586395 0.01995086
v -0.01273420 -0.00687777 0.01390958
v -0.01309279 -0.00625451 0.01335631
v -0.01307808 -0.00662553 0.01329060
v -0.01304130 -0.00685010 0.01346013
v -0.01264042 -0.00750265 0.01384519
v -0.01226160 -0.00687777 0.01422104
v -0.00070591 -0.00670527 0.02125189
v 0.00007747 -0.00850019 0.02001657
v 0.00016206 -0.00809336 0.02023866
v 0.00048938 -0.00812916 0.01962626
v -0.00029215 -0.00750265 0.02086290
v -0.00029215 -0.00789483 0.02063686
v -0.00029215 -0.00820728 0.02035694
v 0.00431799 -0.00590789 0.01267294
v 0.00379390 -0.00660601 0.01355212
v 0.00033676 -0.00732202 0.00793138
v 0.00050594 -0.00709420 0.00793138
v 0.00309512 -0.00712349 0.01489916
v 0.00319994 -0.00726344 0.01448519
v 0.00190718 -0.00784927 0.01686780
v 0.00059788 -0.00833909 0.01924383
v 0.00078545 -0.00812916 0.01902699
v 0.00180972 -0.00760843 0.01728439
v -0.00881917 0.00170303 0.00793138
v -0.00915753 0.00127342 0.00841369
v -0.00934142 0.00092843 0.00802075
v -0.00940394 0.00081614 0.00793138
v -0.01008066 -0.00013583 0.00841369
v -0.01043373 -0.00057358 0.00903661
v -0.01062498 -0.00088602 0.00903661
v -0.01132192 -0.00251333 0.00976072
v -0.01246756 -0.00375984 0.01181478
v -0.01310198 -0.00563125 0.01304354
v -0.01058820 -0.00093972 0.00870149
v -0.01063049 -0.00126844 0.00863184
v -0.01047051 -0.00126844 0.00832038
v -0.00193246 -0.00625451 0.02062109
v -0.00187729 -0.00660926 0.02058823
v -0.01084564 -0.00625451 0.01512519
v -0.01001446 -0.00673456 0.01561801
v -0.01309279 -0.00625451 0.01306456
v -0.01307808 -0.00662553 0.01308428
v -0.01290706 -0.00750265 0.01340231
v -0.01253376 -0.00792901 0.01377159
v -0.01211081 -0.00751079 0.01417636
v -0.01188279 -0.00730900 0.01437086
v -0.01112700 -0.00687777 0.01491361
v -0.00090819 -0.00749940 0.02073411
v -0.00069487 -0.00787205 0.02062109
v -0.01178165 -0.00772397 0.01431040
v -0.01059555 -0.00782974 0.01496881
v -0.00250987 -0.00722764 0.01996794
v -0.00132194 -0.00728947 0.02062635
v -0.00029215 -0.00852297 0.02004417
v 0.00003150 -0.00906812 0.01933714
v 0.00058869 -0.00897374 0.01859463
v 0.00070086 -0.00855877 0.01882724
v -0.00071510 -0.00848880 0.02000868
v 0.00373874 -0.00655393 0.01313684
v 0.00260229 -0.00790460 0.01464815
v 0.00319442 -0.00725367 0.01402523
v 0.00315212 -0.00720160 0.01369668
v 0.00255632 -0.00784601 0.01428544
v 0.00195867 -0.00849043 0.01487419
v 0.00133160 -0.00910229 0.01549711
v 0.00095463 -0.00935290 0.01589530
v 0.00027239 -0.00956933 0.01595444
v -0.00059005 -0.00968812 0.01556939
v -0.00922741 -0.01033579 0.00988162
v -0.00946646 -0.01027070 0.00946634
v -0.00988206 -0.01032928 0.00931258
v -0.00029215 -0.00747824 0.00793138
v 0.00249379 -0.00778906 0.01555362
v 0.00258758 -0.00790297 0.01513834
v 0.00200281 -0.00855064 0.01527107
v 0.00198442 -0.00798922 0.01651822
v 0.00129667 -0.00788670 0.01814255
v 0.00078913 -0.00875893 0.01838830
v -0.00946830 0.00071688 0.00793138
v -0.00989677 0.00003015 0.00793138
v -0.01026639 -0.00126844 0.00793138
v -0.01065992 -0.00189170 0.00859241
v -0.01002917 -0.00021069 0.00793138
v -0.01018915 -0.00065494 0.00793138
v -0.01063969 -0.00251333 0.00863053
v -0.01245837 -0.00907626 0.01245216
v -0.01044476 -0.00251333 0.00831775
v -0.01061394 -0.00313659 0.00867126
v -0.01015238 -0.00313659 0.00793138
v -0.01010273 -0.00371753 0.00793138
v -0.01253744 -0.00880613 0.01279384
v -0.01255951 -0.00863689 0.01324066
v -0.01266616 -0.00813242 0.01342990
v -0.01236458 -0.00834560 0.01365594
v -0.01214943 -0.00813242 0.01389775
v -0.00111047 -0.00770444 0.02050413
v -0.00189384 -0.00784439 0.01997189
v -0.01165109 -0.00895095 0.01362046
v -0.01123549 -0.00907626 0.01373085
v -0.00113069 -0.00838465 0.01989304
v -0.00230943 -0.00764260 0.01985230
v -0.00028663 -0.00886959 0.01958158
v -0.00007700 -0.00906812 0.01933714
v 0.00004253 -0.00968975 0.01748415
v 0.00014367 -0.00915274 0.01901254
v -0.00028663 -0.00918854 0.01906379
v -0.00029215 -0.00944891 0.01838961
v 0.00068431 -0.00911694 0.01817935
v 0.00188512 -0.00842859 0.01619494
v -0.00091554 -0.00898513 0.01920966
v -0.00049259 -0.00904208 0.01930560
v -0.01089162 -0.00916088 0.01382284
v -0.01147271 -0.00925363 0.01340888
v -0.01151501 -0.00960188 0.01298834
v -0.01117481 -0.00967348 0.01307508
v -0.00180925 -0.00905022 0.01868136
v 0.00137390 -0.00914786 0.01589530
v 0.00041215 -0.00964093 0.01651822
v 0.00002414 -0.00968487 0.01620151
v -0.00859114 -0.01032928 0.01050060
v -0.00966139 -0.01037485 0.00966873
v -0.01026823 -0.01050503 0.01028376
v -0.01000342 -0.01032928 0.00931258
v -0.00964484 -0.00980041 0.00857796
v -0.00912810 -0.00977600 0.00858716
v -0.00902145 -0.00920807 0.00797081
v -0.00902145 -0.00915437 0.00793138
v 0.00197154 -0.00853599 0.01577834
v 0.00134448 -0.00913484 0.01640521
v -0.01024800 -0.00191448 0.00793138
v -0.01046683 -0.00189170 0.00827964
v -0.01118400 -0.00999569 0.01063465
v -0.01189382 -0.00977600 0.01172673
v -0.01193244 -0.00979715 0.01215515
v -0.01245837 -0.00907626 0.01259672
v -0.01000526 -0.00974671 0.00866601
v -0.01020387 -0.00251333 0.00793138
v -0.00954921 -0.00872150 0.00793138
v -0.01243998 -0.00905185 0.01301200
v -0.01219356 -0.00879473 0.01342990
v -0.01194899 -0.00853599 0.01378210
v -0.01202438 -0.00917064 0.01320518
v 0.00011425 -0.00969789 0.01714246
v 0.00042502 -0.00962629 0.01714246
v 0.00028343 -0.00952540 0.01772070
v -0.00008435 -0.00968975 0.01748415
v -0.00964484 -0.01046110 0.01153092
v -0.01026823 -0.01053921 0.01090800
v -0.00743447 -0.01031952 0.01251655
v 0.00036066 -0.00925852 0.01838830
v -0.00091554 -0.00915762 0.01889820
v -0.00091554 -0.00937894 0.01838961
v -0.01078680 -0.01033254 0.01191466
v -0.00091554 -0.00957096 0.01776538
v -0.00029215 -0.00961815 0.01772070
v 0.00076706 -0.00921132 0.01776538
v 0.00126173 -0.00905510 0.01682049
v -0.01189934 -0.00974183 0.01255466
v -0.01151501 -0.00981017 0.01267688
v -0.01075922 -0.00973857 0.01317890
v -0.00992987 -0.00967348 0.01370063
v 0.00101531 -0.00932035 0.01657473
v 0.00010138 -0.00969464 0.01651822
v -0.00902145 -0.01043343 0.01090800
v -0.00964484 -0.01046598 0.01028376
v -0.01093943 -0.01043018 0.01087514
v -0.01074634 -0.01040251 0.01028376
v -0.01023329 -0.01037648 0.00968844
v -0.01061762 -0.01033905 0.00991448
v -0.00946462 -0.00920482 0.00798658
v -0.00947198 -0.00906975 0.00793138
v 0.00088843 -0.00931385 0.01714246
v -0.01125940 -0.01035044 0.01106176
v -0.01125940 -0.01035044 0.01142578
v -0.01120239 -0.01030813 0.01184238
v -0.00029215 -0.00973044 0.01651822
v -0.00743447 -0.01031952 0.01230760
v -0.00154077 -0.00972067 0.01698739
v -0.00930096 -0.01030650 0.01246136
v -0.01026823 -0.01045296 0.01153092
v -0.01095414 -0.01038787 0.01159268
v -0.00964484 -0.01050015 0.01090800
v -0.00951427 -0.00972718 0.01379393
v -0.00902145 -0.00978251 0.01391221
v -0.01026823 -0.01005915 0.01277807
v -0.01026823 -0.01034881 0.01200139
v -0.00964484 -0.01029348 0.01241010
v -0.01093759 -0.00987689 0.01283064
v -0.01026823 -0.00979878 0.01330243
v -0.01026584 -0.00126533 0.00793021
v -0.01018873 -0.00065490 0.00793021
v -0.01013544 -0.00064354 0.00778827
v -0.00996578 -0.00031072 0.00745628
v -0.00998541 -0.00064354 0.00742461
v -0.01019153 -0.00126533 0.00778827
v -0.01024902 -0.00191309 0.00793021
v -0.01003028 -0.00021007 0.00793021
v -0.01001486 -0.00023280 0.00778827
v -0.00883705 0.00126405 0.00593596
v -0.00878096 0.00108222 0.00547259
v -0.00883144 0.00060330 0.00540338
v -0.00981575 -0.00064354 0.00711257
v -0.00998962 -0.00126533 0.00742344
v -0.00813176 -0.00625427 0.00431006
v -0.00812054 -0.00687769 0.00432062
v -0.00830423 -0.00687769 0.00467020
v -0.01020415 -0.00251378 0.00793021
v -0.00989567 0.00003021 0.00793021
v -0.00948064 0.00053673 0.00716418
v -0.00867440 0.00149783 0.00574006
v -0.00811494 0.00220892 0.00490130
v -0.00374301 0.00717676 -0.00130902
v -0.00362803 0.00683907 -0.00169380
v -0.00311064 0.00716539 -0.00251613
v -0.00950447 -0.00064354 0.00657060
v -0.00335742 0.00683907 -0.00218767
v -0.00313868 0.00683907 -0.00254898
v -0.00862532 0.00060330 0.00509134
v -0.00813877 -0.00376061 0.00428425
v -0.00814017 -0.00438403 0.00428191
v -0.00814017 -0.00500744 0.00428191
v -0.00661603 -0.00625427 0.00217622
v -0.00500635 -0.00687769 -0.00005734
v -0.00499374 -0.00723323 -0.00003974
v -0.00810091 -0.00720563 0.00434291
v -0.00949185 -0.00869923 0.00778123
v -0.01010319 -0.00371840 0.00793021
v -0.01016068 -0.00303816 0.00793021
v -0.00946802 0.00071694 0.00793021
v -0.00949606 0.00065200 0.00780234
v -0.00871927 0.00155465 0.00615533
v -0.00815139 0.00226249 0.00529428
v -0.00496429 0.00651438 0.00193456
v -0.00435575 0.00716215 0.00122132
v -0.00378367 0.00721572 -0.00094067
v -0.00342472 0.00727092 -0.00153660
v -0.00320458 0.00722871 -0.00218767
v -0.00247406 0.00714591 -0.00312262
v -0.00274327 0.00689914 -0.00291263
v -0.00278674 0.00723358 -0.00266746
v -0.00250771 0.00673030 -0.00315194
v -0.00283582 0.00621566 -0.00288448
v -0.00315831 0.00621566 -0.00257244
v -0.00760455 -0.00438403 0.00353934
v -0.00760455 -0.00500744 0.00353934
v -0.00608041 -0.00625427 0.00142896
v -0.00630475 -0.00625427 0.00174100
v -0.00393230 -0.00687769 -0.00154481
v -0.00314008 -0.00735337 -0.00255015
v -0.00307558 -0.00776898 -0.00247390
v -0.00947222 -0.00906938 0.00793021
v -0.00955074 -0.00872034 0.00793021
v -0.00940492 0.00081597 0.00793021
v -0.00874170 0.00158875 0.00654127
v -0.00819065 0.00231931 0.00591719
v -0.00763820 0.00305150 0.00529428
v -0.00632859 0.00482758 0.00404729
v -0.00794948 0.00257420 0.00529428
v -0.00611826 0.00513929 0.00404729
v -0.00670437 0.00446068 0.00529428
v -0.00694974 0.00418631 0.00591719
v -0.00497410 0.00653386 0.00234866
v -0.00435295 0.00715890 0.00155331
v -0.00403326 0.00729689 0.00155331
v -0.00403466 0.00726930 0.00097967
v -0.00383275 0.00725631 -0.00031777
v -0.00497410 0.00653386 0.00253049
v -0.00340930 0.00732125 -0.00094067
v -0.00278674 0.00732449 -0.00218767
v -0.00205762 0.00724494 -0.00325283
v -0.00126540 0.00716702 -0.00376195
v -0.00164118 0.00683907 -0.00365402
v -0.00222448 0.00689914 -0.00331500
v -0.00222448 0.00729040 -0.00287275
v -0.00216278 0.00621566 -0.00340885
v -0.00252314 0.00621566 -0.00316602
v -0.00254697 -0.00687769 -0.00318010
v -0.00285685 -0.00625427 -0.00288917
v -0.00316252 -0.00438403 -0.00257713
v -0.00345978 -0.00438403 -0.00218767
v -0.00370656 -0.00438403 -0.00185686
v -0.00393230 -0.00438403 -0.00154481
v -0.00661743 -0.00438403 0.00217152
v -0.00661743 -0.00500744 0.00217152
v -0.00316112 -0.00687769 -0.00257596
v -0.00370656 -0.00500744 -0.00185686
v -0.00345978 -0.00500744 -0.00218767
v -0.00285965 -0.00687769 -0.00288683
v -0.00252314 -0.00736149 -0.00316133
v -0.00279936 -0.00756442 -0.00282817
v -0.00245723 -0.00777710 -0.00310619
v -0.00266055 -0.00788912 -0.00269092
v -0.00221466 -0.00794919 -0.00286336
v -0.00902073 -0.00915543 0.00793021
v -0.00882022 0.00170401 0.00793021
v -0.00881181 0.00169427 0.00778827
v -0.00853698 0.00190045 0.00654127
v -0.00688104 0.00409540 0.00467020
v -0.00750219 0.00346873 0.00654127
v -0.00728626 0.00378044 0.00654127
v -0.00753164 0.00350120 0.00716418
v -0.00697498 0.00418631 0.00654127
v -0.00434454 0.00715078 0.00186652
v -0.00340930 0.00735534 0.00217622
v -0.00340930 0.00743002 0.00155331
v -0.00386780 0.00727741 0.00030632
v -0.00399119 0.00721085 0.00211404
v -0.00639028 0.00481297 0.00591719
v -0.00091626 0.00731475 -0.00343466
v -0.00149956 0.00727254 -0.00344991
v -0.00091626 0.00720760 -0.00380066
v -0.00091626 0.00683907 -0.00389685
v -0.00132990 0.00683907 -0.00378893
v -0.00168745 0.00621566 -0.00367866
v -0.00170848 -0.00500744 -0.00369039
v -0.00216278 -0.00500744 -0.00342879
v -0.00216278 -0.00563086 -0.00342527
v -0.00216278 -0.00687769 -0.00341706
v -0.00316252 -0.00625427 -0.00257713
v -0.00171830 -0.00687769 -0.00367279
v -0.00221466 -0.00754169 -0.00331500
v -0.00163277 -0.00750110 -0.00364581
v -0.00123175 -0.00781444 -0.00374787
v -0.00204220 -0.00788749 -0.00324227
v -0.00154022 -0.00804010 -0.00281175
v -0.00091626 -0.00803685 -0.00281175
v -0.00029230 -0.00797029 -0.00343466
v -0.00029230 -0.00800925 -0.00281175
v 0.00033166 -0.00793620 -0.00281175
v -0.00029230 -0.00797516 0.00342321
v -0.00029230 -0.00797029 0.00404729
v -0.00029230 -0.00796542 0.00467020
v -0.00029230 -0.00795893 0.00529428
v 0.00021387 -0.00785340 0.00591719
v 0.00013115 -0.00783392 0.00626325
v -0.00029230 -0.00747838 0.00793021
v -0.00814999 0.00270245 0.00793021
v -0.00825936 0.00242646 0.00716418
v -0.00808829 0.00279174 0.00793021
v -0.00801678 0.00288104 0.00793021
v -0.00751902 0.00347198 0.00778827
v -0.00694414 0.00412787 0.00716418
v -0.00417067 0.00708259 0.00228062
v -0.00630896 0.00472206 0.00654127
v -0.00623184 0.00466524 0.00687208
v -0.00566397 0.00531463 0.00569548
v -0.00219924 0.00728066 0.00346309
v -0.00090364 0.00724819 0.00467020
v -0.00091626 0.00739755 0.00404729
v -0.00375563 0.00716215 0.00251876
v -0.00340930 0.00721734 0.00266422
v -0.00029230 0.00741866 0.00404729
v 0.00095421 0.00742677 0.00404729
v 0.00157817 0.00741378 0.00342321
v 0.00095421 0.00731638 -0.00343466
v 0.00033166 0.00732125 -0.00343466
v -0.00450438 0.00660042 0.00330003
v -0.00029230 0.00724657 -0.00384172
v -0.00029230 0.00683907 -0.00398484
v -0.00029230 0.00621566 -0.00403293
v -0.00091626 0.00621566 -0.00394026
v -0.00137477 0.00621566 -0.00380770
v -0.00140702 -0.00687769 -0.00381357
v -0.00171269 -0.00563086 -0.00368453
v -0.00132008 -0.00750110 -0.00378072
v -0.00091626 -0.00784366 -0.00377837
v -0.00147993 -0.00790373 -0.00344404
v -0.00091626 -0.00750110 -0.00388043
v -0.00029230 -0.00750110 -0.00396607
v -0.00091626 -0.00795406 -0.00343466
v -0.00029230 -0.00787288 -0.00381357
v 0.00022509 -0.00785340 -0.00379597
v 0.00039195 -0.00788749 -0.00349449
v 0.00033166 -0.00793133 -0.00218767
v 0.00075230 -0.00783879 -0.00332673
v 0.00079577 -0.00784853 -0.00281175
v 0.00033166 -0.00788749 0.00217622
v 0.00029240 -0.00787288 0.00404729
v 0.00025033 -0.00786476 0.00529428
v 0.00052515 -0.00776736 0.00591719
v 0.00095421 -0.00761312 0.00591719
v 0.00033726 -0.00732252 0.00793021
v -0.00750500 0.00345412 0.00793021
v -0.00688384 0.00406455 0.00754426
v -0.00514797 0.00472044 0.00762169
v -0.00590373 0.00472206 0.00700582
v -0.00503440 0.00530164 0.00628554
v -0.00525734 0.00537470 0.00590898
v -0.00649825 0.00414085 0.00776715
v -0.00639870 0.00410351 0.00793021
v -0.00605096 0.00423664 0.00793021
v -0.00029230 0.00735859 0.00467020
v -0.00267877 0.00721572 0.00328244
v -0.00068771 0.00717676 0.00505145
v -0.00029230 0.00723033 0.00517815
v 0.00033166 0.00738781 0.00467020
v -0.00390566 0.00658743 0.00389010
v 0.00095421 0.00736021 0.00467020
v 0.00157817 0.00736508 0.00404729
v 0.00344865 0.00732449 -0.00031777
v 0.00344865 0.00731638 -0.00094067
v 0.00344865 0.00731475 0.00093040
v 0.00344865 0.00732125 0.00030632
v 0.00287657 0.00729202 -0.00223811
v 0.00226102 0.00728878 -0.00287040
v 0.00153330 0.00726605 -0.00344521
v 0.00033166 0.00724494 -0.00384172
v 0.00033166 0.00683907 -0.00398484
v 0.00033166 0.00621566 -0.00403293
v -0.00029230 -0.00687769 -0.00405170
v -0.00091626 -0.00625427 -0.00395082
v -0.00091626 -0.00687769 -0.00395082
v 0.00039195 -0.00756280 -0.00389803
v 0.00033166 -0.00687769 -0.00405170
v 0.00064013 -0.00781281 -0.00374318
v 0.00077334 -0.00784691 -0.00218767
v 0.00157817 -0.00760014 -0.00281175
v 0.00066677 -0.00782093 0.00217622
v 0.00065275 -0.00781606 0.00265953
v 0.00064013 -0.00780957 0.00307598
v 0.00157817 -0.00746052 0.00404729
v 0.00157817 -0.00743617 0.00467020
v 0.00196096 -0.00724460 0.00467020
v 0.00160902 -0.00735499 0.00527317
v 0.00143656 -0.00734850 0.00591719
v 0.00133840 -0.00727707 0.00631604
v 0.00067098 -0.00722511 0.00761348
v 0.00050552 -0.00709361 0.00793021
v -0.00727785 0.00363108 0.00793021
v -0.00675204 0.00393954 0.00793021
v -0.00665810 0.00399312 0.00793021
v -0.00590373 0.00429184 0.00793021
v -0.00461095 0.00477076 0.00793021
v -0.00467124 0.00480161 0.00781290
v -0.00276711 0.00539905 0.00793021
v -0.00329152 0.00534223 0.00763928
v -0.00437118 0.00528865 0.00687443
v -0.00247967 0.00590557 0.00685683
v -0.00272785 0.00596240 0.00650139
v -0.00447073 0.00594454 0.00508782
v 0.00033166 0.00727092 0.00525674
v -0.00324244 0.00657445 0.00448016
v -0.00191600 0.00654847 0.00565911
v -0.00125138 0.00653548 0.00624918
v -0.00091626 0.00658906 0.00638877
v -0.00092748 0.00603058 0.00781290
v -0.00086438 0.00600136 0.00793021
v -0.00056292 0.00650788 0.00683807
v -0.00033016 0.00665400 0.00659406
v 0.00095421 0.00722708 0.00514178
v 0.00153891 0.00723683 0.00463266
v 0.00346407 0.00726442 0.00150287
v 0.00191329 0.00717513 0.00439922
v 0.00326637 0.00723845 0.00206008
v 0.00385247 0.00724170 0.00030632
v 0.00385107 0.00724332 -0.00031777
v 0.00346127 0.00726442 -0.00151080
v 0.00326076 0.00724170 -0.00206449
v 0.00270410 0.00724819 -0.00270265
v 0.00209136 0.00723683 -0.00324462
v 0.00129494 0.00716215 -0.00375726
v 0.00095421 0.00720273 -0.00379597
v 0.00095421 0.00683907 -0.00388747
v 0.00095421 0.00621566 -0.00392970
v 0.00095421 -0.00625427 -0.00395551
v 0.00095421 -0.00741344 -0.00385110
v 0.00095421 -0.00687769 -0.00395551
v 0.00137346 -0.00728031 -0.00379362
v 0.00204930 -0.00730142 -0.00326925
v 0.00223578 -0.00733713 -0.00279767
v 0.00220213 -0.00737772 -0.00218767
v 0.00157817 -0.00751896 0.00155331
v 0.00213904 -0.00730304 0.00155331
v 0.00212081 -0.00729330 0.00217622
v 0.00208015 -0.00727544 0.00342321
v 0.00203247 -0.00726895 0.00404729
v 0.00239142 -0.00710660 0.00342321
v 0.00191329 -0.00721375 0.00505145
v 0.00064854 -0.00687769 0.00793021
v 0.00195816 -0.00364859 0.00793021
v -0.00140001 0.00595915 0.00762051
v -0.00014788 0.00655009 0.00690258
v 0.00013535 0.00655009 0.00690258
v -0.00044935 0.00607117 0.00793021
v 0.00130615 0.00717189 0.00502095
v 0.00033867 0.00666211 0.00658116
v 0.00055039 0.00649652 0.00681578
v 0.00376694 0.00715728 0.00126121
v 0.00380900 0.00719949 0.00093040
v 0.00312615 0.00709883 0.00247535
v 0.00123745 0.00650626 0.00620342
v 0.00074109 0.00597214 0.00759471
v 0.00130896 0.00595428 0.00692722
v 0.00125007 0.00526268 0.00793021
v 0.00399128 0.00683907 0.00030632
v 0.00398848 0.00683907 -0.00031777
v 0.00380760 0.00719949 -0.00094067
v 0.00376554 0.00715728 -0.00126679
v 0.00311914 0.00705500 -0.00247976
v 0.00250780 0.00712805 -0.00311792
v 0.00166791 0.00683907 -0.00364347
v 0.00135523 0.00683907 -0.00378072
v 0.00140150 0.00621566 -0.00379831
v 0.00143235 -0.00625427 -0.00381591
v 0.00142954 -0.00687769 -0.00381708
v 0.00174223 -0.00687769 -0.00365754
v 0.00223578 -0.00687444 -0.00332087
v 0.00255267 -0.00666501 -0.00315546
v 0.00246574 -0.00708062 -0.00299710
v 0.00254987 -0.00721050 -0.00258182
v 0.00255968 -0.00721537 -0.00218767
v 0.00217269 -0.00732252 0.00030632
v 0.00215586 -0.00731278 0.00093040
v 0.00243209 -0.00715206 0.00217622
v 0.00241386 -0.00714069 0.00279913
v 0.00326497 -0.00666177 0.00155331
v 0.00320468 -0.00662930 0.00217622
v 0.00315840 -0.00659033 0.00255043
v 0.00259053 -0.00670073 0.00389479
v 0.00208155 -0.00317778 0.00793021
v 0.00379638 -0.00601887 0.00134450
v -0.00029230 0.00608416 0.00793021
v 0.00025173 0.00600948 0.00793021
v 0.00082241 0.00661503 0.00640050
v 0.00057002 0.00587148 0.00793021
v 0.00378797 0.00683907 0.00132573
v 0.00390014 0.00683907 0.00093040
v 0.00140851 0.00495746 0.00793021
v 0.00144777 0.00486655 0.00793021
v 0.00163566 0.00420255 0.00793021
v 0.00185860 0.00304988 0.00793021
v 0.00094440 0.00556951 0.00793021
v 0.00100609 0.00550945 0.00793021
v 0.00111686 0.00540067 0.00793021
v 0.00404036 0.00621566 0.00030632
v 0.00389454 0.00683907 -0.00094067
v 0.00403615 0.00621566 -0.00031777
v 0.00378657 0.00683907 -0.00132193
v 0.00366038 0.00683907 -0.00163397
v 0.00283030 0.00688453 -0.00281761
v 0.00331404 0.00684394 -0.00223811
v 0.00315139 0.00663939 -0.00251730
v 0.00254145 0.00671244 -0.00314608
v 0.00226102 0.00688778 -0.00330327
v 0.00171418 0.00621566 -0.00366927
v 0.00173662 -0.00500744 -0.00367514
v 0.00174223 -0.00563086 -0.00367162
v 0.00174503 -0.00625427 -0.00366341
v 0.00220213 -0.00625427 -0.00339946
v 0.00257370 -0.00625427 -0.00317071
v 0.00288498 -0.00625427 -0.00285515
v 0.00315981 -0.00660170 -0.00252903
v 0.00323833 -0.00667476 -0.00218767
v 0.00333087 -0.00672671 -0.00156476
v 0.00284993 -0.00703841 -0.00156476
v 0.00282469 -0.00694263 0.00155331
v 0.00329722 -0.00667476 0.00093040
v 0.00362813 -0.00644909 0.00030632
v 0.00360990 -0.00640363 0.00093040
v 0.00384826 -0.00609193 0.00093040
v 0.00208996 -0.00313720 0.00793021
v 0.00404316 -0.00563086 0.00030632
v 0.00394081 -0.00563086 0.00093040
v 0.00381461 -0.00563086 0.00139611
v 0.00380480 0.00621566 0.00137969
v 0.00394221 0.00621566 0.00093040
v 0.00191048 0.00262777 0.00793021
v 0.00192731 0.00247354 0.00793021
v 0.00197498 0.00185662 0.00793021
v 0.00405578 -0.00500744 -0.00031777
v 0.00405158 -0.00500744 0.00030632
v 0.00393660 0.00621566 -0.00094067
v 0.00380480 0.00621566 -0.00137002
v 0.00368561 0.00621566 -0.00168207
v 0.00339397 0.00621566 -0.00218767
v 0.00315840 0.00621566 -0.00252552
v 0.00286816 0.00621566 -0.00283756
v 0.00255688 0.00621566 -0.00315664
v 0.00220213 0.00621566 -0.00339125
v 0.00220213 -0.00500744 -0.00341120
v 0.00220213 -0.00563086 -0.00340650
v 0.00256950 -0.00438403 -0.00317071
v 0.00317242 -0.00625427 -0.00254428
v 0.00337574 -0.00625427 -0.00218767
v 0.00379919 -0.00604485 -0.00134656
v 0.00363654 -0.00625427 -0.00155772
v 0.00385668 -0.00612764 -0.00094067
v 0.00366458 -0.00643935 -0.00094067
v 0.00364916 -0.00646533 -0.00031777
v 0.00335330 -0.00671534 -0.00094067
v 0.00333788 -0.00670073 -0.00031777
v 0.00389594 -0.00613738 0.00030632
v 0.00211239 -0.00260957 0.00793021
v 0.00390155 -0.00615362 -0.00031777
v 0.00405158 -0.00563086 -0.00031777
v 0.00394221 -0.00500744 0.00093040
v 0.00382443 -0.00376061 0.00140667
v 0.00198059 0.00170726 0.00793021
v 0.00199602 0.00122671 0.00793021
v 0.00209557 -0.00197154 0.00793021
v 0.00394361 -0.00376061 0.00093040
v 0.00395343 -0.00563086 -0.00094067
v 0.00382022 -0.00376061 -0.00138293
v 0.00382022 -0.00438403 -0.00138410
v 0.00368561 -0.00563086 -0.00170083
v 0.00340799 -0.00563086 -0.00218767
v 0.00381882 -0.00563086 -0.00138879
f 1 2 6
f 1 6 16
f 1 16 36
f 1 36 44
f 1 44 43
f 1 43 42
f 1 42 85
f 1 85 84
f 1 84 125
f 1 125 175
f 1 175 219
f 1 219 218
f 1 218 217
f 1 217 265
f 1 265 264
f 1 264 263
f 1 263 262
f 1 262 260
f 1 260 259
f 1 259 261
f 1 261 296
f 1 296 295
f 1 295 351
f 1 351 406
f 1 406 450
f 1 450 417
f 1 417 369
f 1 369 368
f 1 368 416
f 1 416 409
f 1 409 360
f 1 360 363
f 1 363 362
f 1 362 359
f 1 359 358
f 1 358 306
f 1 306 303
f 1 303 267
f 1 267 266
f 1 266 220
f 1 220 176
f 1 176 127
f 1 127 126
f 1 126 90
f 1 90 89
f 1 89 87
f 1 87 86
f 1 86 45
f 1 45 19
f 1 19 8
f 1 8 3
f 1 3 4
f 1 4 5
f 1 5 2
f 2 5 7
f 2 7 6
f 3 8 9
f 3 9 4
f 4 10 11
f 4 11 12
f 4 12 13
f 4 13 14
f 4 14 7
f 4 7 5
f 4 9 15
f 4 15 10
f 6 7 16
f 7 14 17
f 7 17 18
f 7 18 16
f 8 19 20
f 8 20 21
f 8 21 22
f 8 22 9
f 9 22 15
f 10 15 23
f 10 23 24
f 10 24 11
f 11 24 25
f 11 25 26
f 11 26 27
f 11 27 28
f 11 28 29
f 11 29 30
f 11 30 12
f 12 30 13
f 13 31 32
f 13 32 17
f 13 17 14
f 13 30 33
f 13 33 34
f 13 34 35
f 13 35 31
f 15 22 23
f 16 18 36
f 17 32 37
f 17 37 38
f 17 38 39
f 17 39 18
f 18 39 38
f 18 38 40
f 18 40 41
f 18 41 42
f 18 42 43
f 18 43 44
f 18 44 36
f 19 45 46
f 19 46 20
f 20 46 47
f 20 47 22
f 20 22 21
f 22 47 45
f 22 45 48
f 22 48 49
f 22 49 50
f 22 50 23
f 23 51 24
f 23 50 49
f 23 49 52
f 23 52 53
f 23 53 54
f 23 54 55
f 23 55 51
f 24 51 56
f 24 56 57
f 24 57 58
f 24 58 25
f 25 59 60
f 25 60 61
f 25 61 62
f 25 62 26
f 25 58 63
f 25 63 59
f 26 62 61
f 26 61 64
f 26 64 65
f 26 65 66
f 26 66 67
f 26 67 68
f 26 68 27
f 27 69 28
f 27 68 70
f 27 70 69
f 28 71 72
f 28 72 29
f 28 69 73
f 28 73 74
f 28 74 71
f 29 72 71
f 29 71 75
f 29 75 76
f 29 76 77
f 29 77 30
f 30 77 78
f 30 78 33
f 31 35 79
f 31 79 32
f 32 80 81
f 32 81 82
f 32 82 37
f 32 79 80
f 33 78 34
f 34 78 79
f 34 79 35
f 37 82 38
f 38 82 83
f 38 83 40
f 40 83 84
f 40 84 85
f 40 85 42
f 40 42 41
f 45 86 48
f 45 47 46
f 48 86 87
f 48 87 52
f 48 52 49
f 51 55 88
f 51 88 56
f 52 87 53
f 53 87 89
f 53 89 90
f 53 90 91
f 53 91 57
f 53 57 56
f 53 56 88
f 53 88 92
f 53 92 55
f 53 55 54
f 55 92 88
f 57 91 63
f 57 63 58
f 59 93 60
f 59 63 93
f 60 93 61
f 61 93 63
f 61 63 94
f 61 94 95
f 61 95 64
f 63 91 96
f 63 96 94
f 64 95 65
f 65 95 97
f 65 97 98
f 65 98 66
f 66 98 67
f 67 98 68
f 68 98 99
f 68 99 74
f 68 74 70
f 69 70 73
f 70 74 73
f 71 100 101
f 71 101 75
f 71 74 100
f 74 99 102
f 74 102 103
f 74 103 104
f 74 104 100
f 75 101 105
f 75 105 106
f 75 106 107
f 75 107 108
f 75 108 77
f 75 77 76
f 77 108 109
f 77 109 78
f 78 110 79
f 78 109 111
f 78 111 112
f 78 112 113
f 78 113 110
f 79 110 114
f 79 114 115
f 79 115 80
f 80 116 117
f 80 117 118
f 80 118 119
f 80 119 120
f 80 120 81
f 80 115 116
f 81 121 122
f 81 122 83
f 81 83 82
f 81 120 123
f 81 123 121
f 83 122 124
f 83 124 84
f 84 124 125
f 90 126 91
f 91 126 127
f 91 127 128
f 91 128 96
f 94 96 129
f 94 129 130
f 94 130 95
f 95 130 97
f 96 128 129
f 97 130 129
f 97 129 128
f 97 128 131
f 97 131 132
f 97 132 133
f 97 133 134
f 97 134 103
f 97 103 98
f 98 103 102
f 98 102 99
f 100 104 135
f 100 135 136
f 100 136 137
f 100 137 138
f 100 138 139
f 100 139 140
f 100 140 105
f 100 105 101
f 103 134 141
f 103 141 137
f 103 137 142
f 103 142 136
f 103 136 104
f 104 136 135
f 105 140 143
f 105 143 106
f 106 143 144
f 106 144 145
f 106 145 107
f 107 145 108
f 108 146 152
f 108 152 109
f 108 145 147
f 108 147 144
f 108 144 148
f 108 148 149
f 108 149 150
f 108 150 151
f 108 151 146
f 109 152 112
f 109 112 111
f 110 113 114
f 112 152 113
f 113 152 153
f 113 153 154
f 113 154 114
f 114 154 155
f 114 155 193
f 114 193 156
f 114 156 116
f 114 116 157
f 114 157 115
f 115 157 116
f 116 156 117
f 117 158 159
f 117 159 118
f 117 156 158
f 118 159 160
f 118 160 161
f 118 161 119
f 119 162 120
f 119 161 163
f 119 163 162
f 120 162 164
f 120 164 165
f 120 165 166
f 120 166 167
f 120 167 123
f 121 168 207
f 121 207 169
f 121 169 124
f 121 124 122
f 121 123 168
f 123 170 168
f 123 167 171
f 123 171 172
f 123 172 170
f 124 169 173
f 124 173 174
f 124 174 125
f 125 174 175
f 127 176 128
f 128 176 131
f 131 177 178
f 131 178 179
f 131 179 133
f 131 133 132
f 131 176 177
f 133 179 178
f 133 178 180
f 133 180 134
f 134 180 141
f 136 142 137
f 137 141 138
f 138 141 181
f 138 181 139
f 139 181 143
f 139 143 140
f 141 180 182
f 141 182 183
f 141 183 144
f 141 144 184
f 141 184 181
f 143 181 184
f 143 184 144
f 144 183 185
f 144 185 148
f 144 147 145
f 146 186 152
f 146 151 186
f 148 185 187
f 148 187 188
f 148 188 149
f 149 188 189
f 149 189 190
f 149 190 151
f 149 151 150
f 151 190 189
f 151 189 191
f 151 191 186
f 152 186 153
f 153 186 192
f 153 192 154
f 154 193 155
f 154 192 194
f 154 194 195
f 154 195 196
f 154 196 160
f 154 160 197
f 154 197 198
f 154 198 193
f 156 193 158
f 158 198 159
f 158 193 198
f 159 198 160
f 160 198 197
f 160 196 199
f 160 199 161
f 161 199 163
f 162 163 164
f 163 200 164
f 163 199 201
f 163 201 200
f 164 200 201
f 164 201 202
f 164 202 203
f 164 203 165
f 165 204 166
f 165 203 205
f 165 205 204
f 166 204 167
f 167 204 206
f 167 206 171
f 168 170 208
f 168 208 244
f 168 244 207
f 169 207 173
f 170 172 209
f 170 209 208
f 171 210 172
f 171 206 211
f 171 211 210
f 172 210 212
f 172 212 213
f 172 213 214
f 172 214 209
f 173 207 215
f 173 215 216
f 173 216 174
f 174 216 217
f 174 217 218
f 174 218 219
f 174 219 175
f 176 220 221
f 176 221 177
f 177 221 222
f 177 222 223
f 177 223 178
f 178 223 180
f 180 223 222
f 180 222 224
f 180 224 225
f 180 225 226
f 180 226 182
f 182 226 183
f 183 226 185
f 185 226 187
f 186 227 192
f 186 191 228
f 186 228 229
f 186 229 227
f 187 226 230
f 187 230 188
f 188 230 231
f 188 231 232
f 188 232 189
f 189 232 233
f 189 233 191
f 191 233 234
f 191 234 232
f 191 232 228
f 192 227 235
f 192 235 203
f 192 203 236
f 192 236 194
f 194 236 195
f 195 236 237
f 195 237 196
f 196 237 201
f 196 201 199
f 201 237 236
f 201 236 202
f 202 236 203
f 203 238 239
f 203 239 240
f 203 240 241
f 203 241 211
f 203 211 205
f 203 235 242
f 203 242 243
f 203 243 238
f 204 205 206
f 205 211 206
f 207 244 245
f 207 245 246
f 207 246 247
f 207 247 215
f 208 209 214
f 208 214 248
f 208 248 249
f 208 249 250
f 208 250 294
f 208 294 244
f 210 211 251
f 210 251 252
f 210 252 212
f 211 252 251
f 211 241 252
f 212 253 214
f 212 214 213
f 212 252 254
f 212 254 255
f 212 255 256
f 212 256 253
f 214 257 248
f 214 253 258
f 214 258 257
f 215 259 260
f 215 260 216
f 215 247 261
f 215 261 259
f 216 260 262
f 216 262 263
f 216 263 264
f 216 264 265
f 216 265 217
f 220 266 221
f 221 266 267
f 221 267 268
f 221 268 222
f 222 269 270
f 222 270 271
f 222 271 272
f 222 272 224
f 222 268 269
f 224 273 274
f 224 274 226
f 224 226 225
f 224 272 271
f 224 271 273
f 226 274 312
f 226 312 275
f 226 275 230
f 227 276 235
f 227 229 277
f 227 277 276
f 228 232 229
f 229 232 278
f 229 278 279
f 229 279 277
f 230 280 231
f 230 275 281
f 230 281 282
f 230 282 283
f 230 283 284
f 230 284 280
f 231 280 285
f 231 285 232
f 232 285 278
f 232 234 233
f 235 276 286
f 235 286 242
f 238 287 288
f 238 288 289
f 238 289 256
f 238 256 254
f 238 254 239
f 238 243 290
f 238 290 291
f 238 291 292
f 238 292 287
f 239 254 240
f 240 254 241
f 241 254 252
f 242 286 243
f 243 286 290
f 244 293 245
f 244 294 293
f 245 293 295
f 245 295 246
f 246 295 247
f 247 295 296
f 247 296 261
f 248 257 249
f 249 297 298
f 249 298 250
f 249 257 299
f 249 299 297
f 250 298 294
f 253 256 258
f 254 256 255
f 256 300 301
f 256 301 258
f 256 289 300
f 257 258 299
f 258 302 299
f 258 301 302
f 267 303 304
f 267 304 268
f 268 304 269
f 269 304 305
f 269 305 306
f 269 306 307
f 269 307 308
f 269 308 270
f 270 308 309
f 270 309 273
f 270 273 271
f 273 310 311
f 273 311 312
f 273 312 274
f 273 309 313
f 273 313 314
f 273 314 315
f 273 315 310
f 275 312 320
f 275 320 281
f 276 277 316
f 276 316 317
f 276 317 286
f 277 279 278
f 277 278 318
f 277 318 285
f 277 285 319
f 277 319 316
f 278 285 318
f 280 284 285
f 281 320 321
f 281 321 282
f 282 321 283
f 283 322 284
f 283 321 322
f 284 322 323
f 284 323 324
f 284 324 325
f 284 325 285
f 285 325 326
f 285 326 319
f 286 327 328
f 286 328 290
f 286 317 329
f 286 329 330
f 286 330 331
f 286 331 332
f 286 332 327
f 287 292 333
f 287 333 334
f 287 334 335
f 287 335 336
f 287 336 300
f 287 300 288
f 288 300 289
f 290 328 291
f 291 328 292
f 292 328 337
f 292 337 333
f 293 294 338
f 293 338 295
f 294 298 339
f 294 339 340
f 294 340 338
f 295 338 341
f 295 341 342
f 295 342 343
f 295 343 344
f 295 344 345
f 295 345 346
f 295 346 347
f 295 347 348
f 295 348 349
f 295 349 350
f 295 350 351
f 297 352 298
f 297 299 352
f 298 352 353
f 298 353 354
f 298 354 339
f 299 355 352
f 299 302 356
f 299 356 301
f 299 301 300
f 299 300 336
f 299 336 357
f 299 357 355
f 301 356 302
f 303 306 305
f 303 305 304
f 306 358 307
f 307 358 359
f 307 359 309
f 307 309 308
f 309 359 313
f 310 320 311
f 310 315 360
f 310 360 361
f 310 361 320
f 311 320 312
f 313 359 362
f 313 362 363
f 313 363 314
f 314 363 315
f 315 363 360
f 316 319 317
f 317 319 325
f 317 325 324
f 317 324 329
f 319 326 325
f 320 361 364
f 320 364 321
f 321 365 322
f 321 364 366
f 321 366 367
f 321 367 368
f 321 368 369
f 321 369 365
f 322 370 371
f 322 371 372
f 322 372 323
f 322 365 370
f 323 329 324
f 323 372 371
f 323 371 373
f 323 373 374
f 323 374 330
f 323 330 329
f 327 375 328
f 327 332 375
f 328 375 376
f 328 376 377
f 328 377 378
f 328 378 379
f 328 379 337
f 330 374 373
f 330 373 332
f 330 332 331
f 332 373 380
f 332 380 375
f 333 381 382
f 333 382 334
f 333 337 381
f 334 383 384
f 334 384 335
f 334 382 385
f 334 385 386
f 334 386 383
f 335 387 388
f 335 388 355
f 335 355 357
f 335 357 336
f 335 384 387
f 337 389 390
f 337 390 381
f 337 379 378
f 337 378 391
f 337 391 392
f 337 392 393
f 337 393 394
f 337 394 395
f 337 395 389
f 338 340 341
f 339 342 341
f 339 341 340
f 339 354 343
f 339 343 342
f 343 354 344
f 344 354 396
f 344 396 345
f 345 397 346
f 345 396 397
f 346 397 398
f 346 398 347
f 347 398 399
f 347 399 348
f 348 399 400
f 348 400 350
f 348 350 349
f 350 400 401
f 350 401 402
f 350 402 403
f 350 403 404
f 350 404 351
f 351 404 405
f 351 405 406
f 352 355 388
f 352 388 353
f 353 388 407
f 353 407 354
f 354 407 408
f 354 408 396
f 360 409 410
f 360 410 361
f 361 410 364
f 364 410 366
f 365 411 412
f 365 412 413
f 365 413 414
f 365 414 370
f 365 369 415
f 365 415 411
f 366 410 416
f 366 416 367
f 367 416 368
f 369 417 415
f 370 414 418
f 370 418 371
f 371 418 373
f 373 418 419
f 373 419 420
f 373 420 376
f 373 376 380
f 375 380 376
f 376 420 377
f 377 420 419
f 377 419 421
f 377 421 378
f 378 421 391
f 381 390 382
f 382 390 385
f 383 422 423
f 383 423 424
f 383 424 384
f 383 386 425
f 383 425 426
f 383 426 427
f 383 427 428
f 383 428 422
f 384 424 429
f 384 429 387
f 385 390 430
f 385 430 431
f 385 431 386
f 386 431 432
f 386 432 433
f 386 433 434
f 386 434 425
f 387 429 435
f 387 435 436
f 387 436 388
f 388 436 407
f 389 395 390
f 390 395 430
f 391 421 392
f 392 421 393
f 393 421 437
f 393 437 438
f 393 438 394
f 394 438 439
f 394 439 440
f 394 440 395
f 395 440 430
f 396 408 441
f 396 441 423
f 396 423 397
f 397 423 422
f 397 422 442
f 397 442 398
f 398 442 443
f 398 443 444
f 398 444 399
f 399 444 400
f 400 444 401
f 401 427 445
f 401 445 446
f 401 446 447
f 401 447 402
f 401 444 461
f 401 461 427
f 402 447 448
f 402 448 415
f 402 415 403
f 403 415 449
f 403 449 405
f 403 405 404
f 405 449 406
f 406 449 450
f 407 436 408
f 408 436 435
f 408 435 451
f 408 451 423
f 408 423 441
f 409 416 410
f 411 448 452
f 411 452 412
f 411 415 448
f 412 452 413
f 413 453 454
f 413 454 437
f 413 437 418
f 413 418 414
f 413 452 453
f 415 417 450
f 415 450 449
f 418 421 419
f 418 437 421
f 422 455 442
f 422 428 456
f 422 456 455
f 423 451 435
f 423 435 424
f 424 435 429
f 425 434 433
f 425 433 457
f 425 457 458
f 425 458 459
f 425 459 426
f 426 459 427
f 427 459 460
f 427 460 453
f 427 453 445
f 427 461 428
f 428 461 456
f 430 440 462
f 430 462 463
f 430 463 464
f 430 464 454
f 430 454 431
f 431 454 432
f 432 454 460
f 432 460 459
f 432 459 465
f 432 465 458
f 432 458 466
f 432 466 433
f 433 466 458
f 433 458 457
f 437 454 438
f 438 454 467
f 438 467 439
f 439 467 468
f 439 468 440
f 440 468 462
f 442 455 456
f 442 456 461
f 442 461 443
f 443 461 444
f 445 453 452
f 445 452 446
f 446 448 447
f 446 452 448
f 453 460 454
f 454 464 468
f 454 468 467
f 458 465 459
f 462 468 463
f 463 468 464
f 469 470 471
f 469 471 472
f 469 472 473
f 469 473 474
f 469 474 475
f 469 475 486
f 469 486 507
f 469 507 506
f 469 506 531
f 469 531 530
f 469 530 573
f 469 573 615
f 469 615 661
f 469 661 707
f 469 707 758
f 469 758 759
f 469 759 799
f 469 799 840
f 469 840 872
f 469 872 879
f 469 879 878
f 469 878 877
f 469 877 848
f 469 848 847
f 469 847 846
f 469 846 810
f 469 810 809
f 469 809 808
f 469 808 807
f 469 807 773
f 469 773 813
f 469 813 812
f 469 812 811
f 469 811 804
f 469 804 802
f 469 802 801
f 469 801 763
f 469 763 726
f 469 726 714
f 469 714 712
f 469 712 711
f 469 711 670
f 469 670 669
f 469 669 710
f 469 710 709
f 469 709 708
f 469 708 662
f 469 662 619
f 469 619 618
f 469 618 616
f 469 616 574
f 469 574 532
f 469 532 508
f 469 508 487
f 469 487 476
f 469 476 470
f 470 476 477
f 470 477 472
f 470 472 471
f 472 477 478
f 472 478 479
f 472 479 480
f 472 480 473
f 473 481 474
f 473 480 481
f 474 481 482
f 474 482 483
f 474 483 484
f 474 484 475
f 475 484 485
f 475 485 486
f 476 487 488
f 476 488 477
f 477 488 489
f 477 489 478
f 478 489 490
f 478 490 479
f 479 490 491
f 479 491 492
f 479 492 493
f 479 493 480
f 480 494 481
f 480 493 495
f 480 495 496
f 480 496 497
f 480 497 498
f 480 498 499
f 480 499 500
f 480 500 494
f 481 494 482
f 482 494 500
f 482 500 483
f 483 500 501
f 483 501 484
f 484 501 502
f 484 502 503
f 484 503 504
f 484 504 485
f 485 504 505
f 485 505 506
f 485 506 507
f 485 507 486
f 487 508 509
f 487 509 510
f 487 510 488
f 488 510 489
f 489 510 490
f 490 510 511
f 490 511 512
f 490 512 491
f 491 512 513
f 491 513 514
f 491 514 515
f 491 515 516
f 491 516 493
f 491 493 492
f 493 517 518
f 493 518 496
f 493 496 495
f 493 516 519
f 493 519 517
f 496 518 520
f 496 520 521
f 496 521 522
f 496 522 497
f 497 522 498
f 498 522 499
f 499 522 523
f 499 523 524
f 499 524 500
f 500 524 525
f 500 525 526
f 500 526 501
f 501 526 502
f 502 526 525
f 502 525 527
f 502 527 503
f 503 527 528
f 503 528 529
f 503 529 504
f 504 529 530
f 504 530 505
f 505 530 531
f 505 531 506
f 508 532 509
f 509 532 510
f 510 533 534
f 510 534 535
f 510 535 536
f 510 536 537
f 510 537 511
f 510 532 533
f 511 537 512
f 512 536 538
f 512 538 539
f 512 539 540
f 512 540 541
f 512 541 513
f 512 537 536
f 513 542 543
f 513 543 544
f 513 544 545
f 513 545 514
f 513 541 546
f 513 546 542
f 514 545 515
f 515 545 547
f 515 547 548
f 515 548 516
f 516 548 519
f 517 519 549
f 517 549 550
f 517 550 551
f 517 551 552
f 517 552 520
f 517 520 518
f 519 548 553
f 519 553 549
f 520 552 554
f 520 554 555
f 520 555 521
f 521 555 556
f 521 556 557
f 521 557 522
f 522 557 558
f 522 558 559
f 522 559 560
f 522 560 561
f 522 561 562
f 522 562 523
f 523 562 563
f 523 563 524
f 524 563 525
f 525 563 527
f 527 564 528
f 527 563 562
f 527 562 561
f 527 561 560
f 527 560 565
f 527 565 566
f 527 566 564
f 528 564 567
f 528 567 568
f 528 568 569
f 528 569 529
f 529 569 570
f 529 570 571
f 529 571 530
f 530 571 572
f 530 572 573
f 532 574 575
f 532 575 576
f 532 576 533
f 533 576 534
f 534 576 577
f 534 577 536
f 534 536 535
f 536 577 578
f 536 578 538
f 538 578 539
f 539 578 540
f 540 578 579
f 540 579 580
f 540 580 581
f 540 581 541
f 541 581 546
f 542 546 582
f 542 582 543
f 543 583 584
f 543 584 547
f 543 547 585
f 543 585 545
f 543 545 544
f 543 582 586
f 543 586 583
f 545 585 547
f 546 581 587
f 546 587 582
f 547 584 548
f 548 584 588
f 548 588 553
f 549 553 589
f 549 589 550
f 550 589 590
f 550 590 591
f 550 591 592
f 550 592 551
f 551 592 593
f 551 593 554
f 551 554 552
f 553 588 589
f 554 593 594
f 554 594 595
f 554 595 556
f 554 556 555
f 556 595 596
f 556 596 597
f 556 597 568
f 556 568 567
f 556 567 557
f 557 567 558
f 558 567 598
f 558 598 566
f 558 566 559
f 559 566 565
f 559 565 560
f 564 566 598
f 564 598 567
f 568 597 599
f 568 599 600
f 568 600 570
f 568 570 569
f 570 600 601
f 570 601 602
f 570 602 603
f 570 603 571
f 571 603 572
f 572 603 604
f 572 604 573
f 573 604 605
f 573 605 606
f 573 606 607
f 573 607 608
f 573 608 609
f 573 609 610
f 573 610 611
f 573 611 612
f 573 612 613
f 573 613 614
f 573 614 615
f 574 616 578
f 574 578 575
f 575 578 617
f 575 617 577
f 575 577 576
f 577 617 578
f 578 616 618
f 578 618 579
f 579 618 580
f 580 618 619
f 580 619 620
f 580 620 581
f 581 621 587
f 581 620 621
f 582 622 586
f 582 587 623
f 582 623 624
f 582 624 625
f 582 625 622
f 583 626 627
f 583 627 628
f 583 628 584
f 583 586 629
f 583 629 630
f 583 630 626
f 584 628 631
f 584 631 632
f 584 632 633
f 584 633 634
f 584 634 635
f 584 635 588
f 586 622 636
f 586 636 629
f 587 621 623
f 588 635 637
f 588 637 589
f 589 637 590
f 590 637 638
f 590 638 591
f 591 638 639
f 591 639 640
f 591 640 592
f 592 640 641
f 592 641 593
f 593 641 594
f 594 642 643
f 594 643 595
f 594 641 642
f 595 643 596
f 596 643 597
f 597 643 599
f 599 643 642
f 599 642 601
f 599 601 600
f 601 644 602
f 601 642 644
f 602 645 646
f 602 646 603
f 602 644 647
f 602 647 648
f 602 648 645
f 603 646 604
f 604 646 649
f 604 649 606
f 604 606 605
f 606 649 650
f 606 650 651
f 606 651 652
f 606 652 607
f 607 652 608
f 608 653 610
f 608 610 609
f 608 652 654
f 608 654 655
f 608 655 653
f 610 653 611
f 611 653 656
f 611 656 612
f 612 656 657
f 612 657 658
f 612 658 613
f 613 658 659
f 613 659 614
f 614 659 660
f 614 660 661
f 614 661 615
f 619 662 620
f 620 662 621
f 621 663 623
f 621 662 663
f 622 625 636
f 623 663 624
f 624 664 665
f 624 665 666
f 624 666 667
f 624 667 625
f 624 663 668
f 624 668 669
f 624 669 670
f 624 670 664
f 625 667 629
f 625 629 636
f 626 630 627
f 627 671 628
f 627 630 672
f 627 672 673
f 627 673 674
f 627 674 671
f 628 671 675
f 628 675 631
f 629 676 672
f 629 672 630
f 629 667 676
f 631 675 632
f 632 675 677
f 632 677 678
f 632 678 633
f 633 679 680
f 633 680 634
f 633 678 681
f 633 681 682
f 633 682 679
f 634 680 683
f 634 683 684
f 634 684 685
f 634 685 686
f 634 686 635
f 635 686 637
f 637 686 687
f 637 687 638
f 638 687 688
f 638 688 639
f 639 688 693
f 639 693 689
f 639 689 640
f 640 689 690
f 640 690 642
f 640 642 641
f 642 690 691
f 642 691 644
f 644 691 647
f 645 648 650
f 645 650 649
f 645 649 646
f 647 691 689
f 647 689 648
f 648 692 651
f 648 651 650
f 648 689 693
f 648 693 692
f 651 692 694
f 651 694 652
f 652 694 654
f 653 655 695
f 653 695 656
f 654 694 696
f 654 696 655
f 655 696 697
f 655 697 695
f 656 695 697
f 656 697 657
f 657 697 658
f 658 697 698
f 658 698 699
f 658 699 659
f 659 699 700
f 659 700 660
f 660 700 701
f 660 701 702
f 660 702 703
f 660 703 704
f 660 704 661
f 661 704 705
f 661 705 706
f 661 706 707
f 662 708 663
f 663 709 710
f 663 710 668
f 663 708 709
f 664 670 711
f 664 711 712
f 664 712 713
f 664 713 714
f 664 714 665
f 665 714 715
f 665 715 716
f 665 716 666
f 666 716 715
f 666 715 717
f 666 717 718
f 666 718 719
f 666 719 667
f 667 719 676
f 668 710 669
f 671 674 720
f 671 720 675
f 672 676 721
f 672 721 722
f 672 722 673
f 673 722 723
f 673 723 724
f 673 724 725
f 673 725 726
f 673 726 674
f 674 726 727
f 674 727 728
f 674 728 720
f 675 720 677
f 676 719 721
f 677 720 729
f 677 729 730
f 677 730 678
f 678 731 681
f 678 730 732
f 678 732 733
f 678 733 731
f 679 682 734
f 679 734 735
f 679 735 680
f 680 735 736
f 680 736 683
f 681 731 734
f 681 734 682
f 683 736 737
f 683 737 738
f 683 738 684
f 684 738 739
f 684 739 685
f 685 739 740
f 685 740 741
f 685 741 686
f 686 741 687
f 687 741 740
f 687 740 742
f 687 742 688
f 688 742 743
f 688 743 744
f 688 744 693
f 689 691 690
f 692 693 745
f 692 745 694
f 693 744 746
f 693 746 745
f 694 745 747
f 694 747 748
f 694 748 749
f 694 749 696
f 696 749 750
f 696 750 697
f 697 750 751
f 697 751 698
f 698 751 700
f 698 700 699
f 700 750 752
f 700 752 753
f 700 753 754
f 700 754 701
f 700 751 750
f 701 754 755
f 701 755 702
f 702 756 757
f 702 757 703
f 702 755 756
f 703 757 704
f 704 757 705
f 705 758 706
f 705 757 759
f 705 759 758
f 706 758 707
f 712 714 713
f 714 726 725
f 714 725 760
f 714 760 715
f 715 760 717
f 717 760 723
f 717 723 722
f 717 722 718
f 718 722 719
f 719 722 721
f 720 728 761
f 720 761 762
f 720 762 729
f 723 760 724
f 724 760 725
f 726 763 728
f 726 728 727
f 728 763 761
f 729 764 730
f 729 762 765
f 729 765 766
f 729 766 764
f 730 764 732
f 731 733 767
f 731 767 768
f 731 768 734
f 732 769 733
f 732 764 770
f 732 770 771
f 732 771 772
f 732 772 773
f 732 773 769
f 733 769 767
f 734 774 735
f 734 768 774
f 735 774 775
f 735 775 776
f 735 776 736
f 736 776 777
f 736 777 737
f 737 777 778
f 737 778 779
f 737 779 738
f 738 779 739
f 739 779 740
f 740 779 780
f 740 780 781
f 740 781 742
f 742 781 743
f 743 781 782
f 743 782 783
f 743 783 744
f 744 783 784
f 744 784 746
f 745 746 747
f 746 784 747
f 747 784 785
f 747 785 786
f 747 786 748
f 748 786 787
f 748 787 788
f 748 788 789
f 748 789 749
f 749 789 750
f 750 789 790
f 750 790 791
f 750 791 792
f 750 792 752
f 752 792 793
f 752 793 753
f 753 793 754
f 754 793 794
f 754 794 755
f 755 794 756
f 756 794 795
f 756 795 796
f 756 796 757
f 757 796 797
f 757 797 798
f 757 798 759
f 759 798 797
f 759 797 800
f 759 800 799
f 761 763 801
f 761 801 762
f 762 766 765
f 762 801 802
f 762 802 766
f 764 766 803
f 764 803 804
f 764 804 771
f 764 771 770
f 766 802 803
f 767 805 806
f 767 806 768
f 767 769 773
f 767 773 807
f 767 807 808
f 767 808 809
f 767 809 810
f 767 810 805
f 768 806 774
f 771 804 811
f 771 811 772
f 772 811 812
f 772 812 813
f 772 813 773
f 774 814 775
f 774 806 814
f 775 815 776
f 775 814 816
f 775 816 815
f 776 815 777
f 777 815 817
f 777 817 818
f 777 818 778
f 778 819 779
f 778 818 820
f 778 820 821
f 778 821 819
f 779 819 822
f 779 822 823
f 779 823 780
f 780 823 824
f 780 824 781
f 781 824 782
f 782 824 783
f 783 825 784
f 783 824 825
f 784 825 826
f 784 826 827
f 784 827 785
f 785 827 828
f 785 828 829
f 785 829 787
f 785 787 786
f 787 829 830
f 787 830 831
f 787 831 788
f 788 831 789
f 789 831 832
f 789 832 833
f 789 833 790
f 790 833 834
f 790 834 793
f 790 793 791
f 791 793 792
f 793 834 835
f 793 835 794
f 794 835 836
f 794 836 795
f 795 836 837
f 795 837 838
f 795 838 796
f 796 838 839
f 796 839 797
f 797 839 800
f 799 800 840
f 800 839 841
f 800 841 842
f 800 842 843
f 800 843 840
f 802 804 803
f 805 844 845
f 805 845 806
f 805 810 846
f 805 846 847
f 805 847 848
f 805 848 844
f 806 845 814
f 814 849 816
f 814 845 850
f 814 850 849
f 815 816 851
f 815 851 817
f 816 849 851
f 817 851 852
f 817 852 853
f 817 853 818
f 818 853 820
f 819 821 822
f 820 853 854
f 820 854 821
f 821 854 855
f 821 855 856
f 821 856 822
f 822 856 857
f 822 857 858
f 822 858 823
f 823 858 824
f 824 858 859
f 824 859 825
f 825 859 826
f 826 859 860
f 826 860 827
f 827 860 828
f 828 860 829
f 829 860 859
f 829 859 861
f 829 861 830
f 830 862 831
f 830 861 857
f 830 857 856
f 830 856 855
f 830 855 862
f 831 862 863
f 831 863 864
f 831 864 865
f 831 865 832
f 832 865 866
f 832 866 867
f 832 867 833
f 833 867 868
f 833 868 869
f 833 869 834
f 834 869 835
f 835 869 870
f 835 870 836
f 836 870 868
f 836 868 837
f 837 868 871
f 837 871 838
f 838 871 839
f 839 871 841
f 840 843 872
f 841 871 873
f 841 873 874
f 841 874 850
f 841 850 842
f 842 850 875
f 842 875 876
f 842 876 872
f 842 872 843
f 844 848 845
f 845 848 877
f 845 877 878
f 845 878 879
f 845 879 872
f 845 872 876
f 845 876 880
f 845 880 850
f 849 850 874
f 849 874 881
f 849 881 851
f 850 880 875
f 851 881 882
f 851 882 852
f 852 882 853
f 853 882 883
f 853 883 884
f 853 884 885
f 853 885 854
f 854 885 862
f 854 862 855
f 857 861 858
f 858 861 859
f 862 885 884
f 862 884 863
f 863 884 864
f 864 866 865
f 864 884 886
f 864 886 881
f 864 881 866
f 866 881 874
f 866 874 873
f 866 873 867
f 867 873 868
f 868 870 869
f 868 873 871
f 875 880 876
f 881 886 883
f 881 883 882
f 883 886 884

