# https://github.com/mikedh/trimesh
v -0.01026584 -0.00126533 0.00793021
v -0.01018873 -0.00065490 0.00793021
v -0.01013544 -0.00064354 0.00778827
v -0.00996578 -0.00031072 0.00745628
v -0.00998541 -0.00064354 0.00742461
v -0.01019153 -0.00126533 0.00778827
v -0.01024902 -0.00191309 0.00793021
v -0.01003028 -0.00021007 0.00793021
v -0.01001486 -0.00023280 0.00778827
v -0.00883705 0.00126405 0.00593596
v -0.00878096 0.00108222 0.00547259
v -0.00883144 0.00060330 0.00540338
v -0.00981575 -0.00064354 0.00711257
v -0.00998962 -0.00126533 0.00742344
v -0.00813176 -0.00625427 0.00431006
v -0.00812054 -0.00687769 0.00432062
v -0.00830423 -0.00687769 0.00467020
v -0.01020415 -0.00251378 0.00793021
v -0.00989567 0.00003021 0.00793021
v -0.00948064 0.00053673 0.00716418
v -0.00867440 0.00149783 0.00574006
v -0.00811494 0.00220892 0.00490130
v -0.00374301 0.00717676 -0.00130902
v -0.00362803 0.00683907 -0.00169380
v -0.00311064 0.00716539 -0.00251613
v -0.00950447 -0.00064354 0.00657060
v -0.00335742 0.00683907 -0.00218767
v -0.00313868 0.00683907 -0.00254898
v -0.00862532 0.00060330 0.00509134
v -0.00813877 -0.00376061 0.00428425
v -0.00814017 -0.00438403 0.00428191
v -0.00814017 -0.00500744 0.00428191
v -0.00661603 -0.00625427 0.00217622
v -0.00500635 -0.00687769 -0.00005734
v -0.00499374 -0.00723323 -0.00003974
v -0.00810091 -0.00720563 0.00434291
v -0.00949185 -0.00869923 0.00778123
v -0.01010319 -0.00371840 0.00793021
v -0.01016068 -0.00303816 0.00793021
v -0.00946802 0.00071694 0.00793021
v -0.00949606 0.00065200 0.00780234
v -0.00871927 0.00155465 0.00615533
v -0.00815139 0.00226249 0.00529428
v -0.00496429 0.00651438 0.00193456
v -0.00435575 0.00716215 0.00122132
v -0.00378367 0.00721572 -0.00094067
v -0.00342472 0.00727092 -0.00153660
v -0.00320458 0.00722871 -0.00218767
v -0.00247406 0.00714591 -0.00312262
v -0.00274327 0.00689914 -0.00291263
v -0.00278674 0.00723358 -0.00266746
v -0.00250771 0.00673030 -0.00315194
v -0.00283582 0.00621566 -0.00288448
v -0.00315831 0.00621566 -0.00257244
v -0.00760455 -0.00438403 0.00353934
v -0.00760455 -0.00500744 0.00353934
v -0.00608041 -0.00625427 0.00142896
v -0.00630475 -0.00625427 0.00174100
v -0.00393230 -0.00687769 -0.00154481
v -0.00314008 -0.00735337 -0.00255015
v -0.00307558 -0.00776898 -0.00247390
v -0.00947222 -0.00906938 0.00793021
v -0.00955074 -0.00872034 0.00793021
v -0.00940492 0.00081597 0.00793021
v -0.00874170 0.00158875 0.00654127
v -0.00819065 0.00231931 0.00591719
v -0.00763820 0.00305150 0.00529428
v -0.00632859 0.00482758 0.00404729
v -0.00794948 0.00257420 0.00529428
v -0.00611826 0.00513929 0.00404729
v -0.00670437 0.00446068 0.00529428
v -0.00694974 0.00418631 0.00591719
v -0.00497410 0.00653386 0.00234866
v -0.00435295 0.00715890 0.00155331
v -0.00403326 0.00729689 0.00155331
v -0.00403466 0.00726930 0.00097967
v -0.00383275 0.00725631 -0.00031777
v -0.00497410 0.00653386 0.00253049
v -0.00340930 0.00732125 -0.00094067
v -0.00278674 0.00732449 -0.00218767
v -0.00205762 0.00724494 -0.00325283
v -0.00126540 0.00716702 -0.00376195
v -0.00164118 0.00683907 -0.00365402
v -0.00222448 0.00689914 -0.00331500
v -0.00222448 0.00729040 -0.00287275
v -0.00216278 0.00621566 -0.00340885
v -0.00252314 0.00621566 -0.00316602
v -0.00254697 -0.00687769 -0.00318010
v -0.00285685 -0.00625427 -0.00288917
v -0.00316252 -0.00438403 -0.00257713
v -0.00345978 -0.00438403 -0.00218767
v -0.00370656 -0.00438403 -0.00185686
v -0.00393230 -0.00438403 -0.00154481
v -0.00661743 -0.00438403 0.00217152
v -0.00661743 -0.00500744 0.00217152
v -0.00316112 -0.00687769 -0.00257596
v -0.00370656 -0.00500744 -0.00185686
v -0.00345978 -0.00500744 -0.00218767
v -0.00285965 -0.00687769 -0.00288683
v -0.00252314 -0.00736149 -0.00316133
v -0.00279936 -0.00756442 -0.00282817
v -0.00245723 -0.00777710 -0.00310619
v -0.00266055 -0.00788912 -0.00269092
v -0.00221466 -0.00794919 -0.00286336
v -0.00902073 -0.00915543 0.00793021
v -0.00882022 0.00170401 0.00793021
v -0.00881181 0.00169427 0.00778827
v -0.00853698 0.00190045 0.00654127
v -0.00688104 0.00409540 0.00467020
v -0.00750219 0.00346873 0.00654127
v -0.00728626 0.00378044 0.00654127
v -0.00753164 0.00350120 0.00716418
v -0.00697498 0.00418631 0.00654127
v -0.00434454 0.00715078 0.00186652
v -0.00340930 0.00735534 0.00217622
v -0.00340930 0.00743002 0.00155331
v -0.00386780 0.00727741 0.00030632
v -0.00399119 0.00721085 0.00211404
v -0.00639028 0.00481297 0.00591719
v -0.00091626 0.00731475 -0.00343466
v -0.00149956 0.00727254 -0.00344991
v -0.00091626 0.00720760 -0.00380066
v -0.00091626 0.00683907 -0.00389685
v -0.00132990 0.00683907 -0.00378893
v -0.00168745 0.00621566 -0.00367866
v -0.00170848 -0.00500744 -0.00369039
v -0.00216278 -0.00500744 -0.00342879
v -0.00216278 -0.00563086 -0.00342527
v -0.00216278 -0.00687769 -0.00341706
v -0.00316252 -0.00625427 -0.00257713
v -0.00171830 -0.00687769 -0.00367279
v -0.00221466 -0.00754169 -0.00331500
v -0.00163277 -0.00750110 -0.00364581
v -0.00123175 -0.00781444 -0.00374787
v -0.00204220 -0.00788749 -0.00324227
v -0.00154022 -0.00804010 -0.00281175
v -0.00091626 -0.00803685 -0.00281175
v -0.00029230 -0.00797029 -0.00343466
v -0.00029230 -0.00800925 -0.00281175
v 0.00033166 -0.00793620 -0.00281175
v -0.00029230 -0.00797516 0.00342321
v -0.00029230 -0.00797029 0.00404729
v -0.00029230 -0.00796542 0.00467020
v -0.00029230 -0.00795893 0.00529428
v 0.00021387 -0.00785340 0.00591719
v 0.00013115 -0.00783392 0.00626325
v -0.00029230 -0.00747838 0.00793021
v -0.00814999 0.00270245 0.00793021
v -0.00825936 0.00242646 0.00716418
v -0.00808829 0.00279174 0.00793021
v -0.00801678 0.00288104 0.00793021
v -0.00751902 0.00347198 0.00778827
v -0.00694414 0.00412787 0.00716418
v -0.00417067 0.00708259 0.00228062
v -0.00630896 0.00472206 0.00654127
v -0.00623184 0.00466524 0.00687208
v -0.00566397 0.00531463 0.00569548
v -0.00219924 0.00728066 0.00346309
v -0.00090364 0.00724819 0.00467020
v -0.00091626 0.00739755 0.00404729
v -0.00375563 0.00716215 0.00251876
v -0.00340930 0.00721734 0.00266422
v -0.00029230 0.00741866 0.00404729
v 0.00095421 0.00742677 0.00404729
v 0.00157817 0.00741378 0.00342321
v 0.00095421 0.00731638 -0.00343466
v 0.00033166 0.00732125 -0.00343466
v -0.00450438 0.00660042 0.00330003
v -0.00029230 0.00724657 -0.00384172
v -0.00029230 0.00683907 -0.00398484
v -0.00029230 0.00621566 -0.00403293
v -0.00091626 0.00621566 -0.00394026
v -0.00137477 0.00621566 -0.00380770
v -0.00140702 -0.00687769 -0.00381357
v -0.00171269 -0.00563086 -0.00368453
v -0.00132008 -0.00750110 -0.00378072
v -0.00091626 -0.00784366 -0.00377837
v -0.00147993 -0.00790373 -0.00344404
v -0.00091626 -0.00750110 -0.00388043
v -0.00029230 -0.00750110 -0.00396607
v -0.00091626 -0.00795406 -0.00343466
v -0.00029230 -0.00787288 -0.00381357
v 0.00022509 -0.00785340 -0.00379597
v 0.00039195 -0.00788749 -0.00349449
v 0.00033166 -0.00793133 -0.00218767
v 0.00075230 -0.00783879 -0.00332673
v 0.00079577 -0.00784853 -0.00281175
v 0.00033166 -0.00788749 0.00217622
v 0.00029240 -0.00787288 0.00404729
v 0.00025033 -0.00786476 0.00529428
v 0.00052515 -0.00776736 0.00591719
v 0.00095421 -0.00761312 0.00591719
v 0.00033726 -0.00732252 0.00793021
v -0.00750500 0.00345412 0.00793021
v -0.00688384 0.00406455 0.00754426
v -0.00514797 0.00472044 0.00762169
v -0.00590373 0.00472206 0.00700582
v -0.00503440 0.00530164 0.00628554
v -0.00525734 0.00537470 0.00590898
v -0.00649825 0.00414085 0.00776715
v -0.00639870 0.00410351 0.00793021
v -0.00605096 0.00423664 0.00793021
v -0.00029230 0.00735859 0.00467020
v -0.00267877 0.00721572 0.00328244
v -0.00068771 0.00717676 0.00505145
v -0.00029230 0.00723033 0.00517815
v 0.00033166 0.00738781 0.00467020
v -0.00390566 0.00658743 0.00389010
v 0.00095421 0.00736021 0.00467020
v 0.00157817 0.00736508 0.00404729
v 0.00344865 0.00732449 -0.00031777
v 0.00344865 0.00731638 -0.00094067
v 0.00344865 0.00731475 0.00093040
v 0.00344865 0.00732125 0.00030632
v 0.00287657 0.00729202 -0.00223811
v 0.00226102 0.00728878 -0.00287040
v 0.00153330 0.00726605 -0.00344521
v 0.00033166 0.00724494 -0.00384172
v 0.00033166 0.00683907 -0.00398484
v 0.00033166 0.00621566 -0.00403293
v -0.00029230 -0.00687769 -0.00405170
v -0.00091626 -0.00625427 -0.00395082
v -0.00091626 -0.00687769 -0.00395082
v 0.00039195 -0.00756280 -0.00389803
v 0.00033166 -0.00687769 -0.00405170
v 0.00064013 -0.00781281 -0.00374318
v 0.00077334 -0.00784691 -0.00218767
v 0.00157817 -0.00760014 -0.00281175
v 0.00066677 -0.00782093 0.00217622
v 0.00065275 -0.00781606 0.00265953
v 0.00064013 -0.00780957 0.00307598
v 0.00157817 -0.00746052 0.00404729
v 0.00157817 -0.00743617 0.00467020
v 0.00196096 -0.00724460 0.00467020
v 0.00160902 -0.00735499 0.00527317
v 0.00143656 -0.00734850 0.00591719
v 0.00133840 -0.00727707 0.00631604
v 0.00067098 -0.00722511 0.00761348
v 0.00050552 -0.00709361 0.00793021
v -0.00727785 0.00363108 0.00793021
v -0.00675204 0.00393954 0.00793021
v -0.00665810 0.00399312 0.00793021
v -0.00590373 0.00429184 0.00793021
v -0.00461095 0.00477076 0.00793021
v -0.00467124 0.00480161 0.00781290
v -0.00276711 0.00539905 0.00793021
v -0.00329152 0.00534223 0.00763928
v -0.00437118 0.00528865 0.00687443
v -0.00247967 0.00590557 0.00685683
v -0.00272785 0.00596240 0.00650139
v -0.00447073 0.00594454 0.00508782
v 0.00033166 0.00727092 0.00525674
v -0.00324244 0.00657445 0.00448016
v -0.00191600 0.00654847 0.00565911
v -0.00125138 0.00653548 0.00624918
v -0.00091626 0.00658906 0.00638877
v -0.00092748 0.00603058 0.00781290
v -0.00086438 0.00600136 0.00793021
v -0.00056292 0.00650788 0.00683807
v -0.00033016 0.00665400 0.00659406
v 0.00095421 0.00722708 0.00514178
v 0.00153891 0.00723683 0.00463266
v 0.00346407 0.00726442 0.00150287
v 0.00191329 0.00717513 0.00439922
v 0.00326637 0.00723845 0.00206008
v 0.00385247 0.00724170 0.00030632
v 0.00385107 0.00724332 -0.00031777
v 0.00346127 0.00726442 -0.00151080
v 0.00326076 0.00724170 -0.00206449
v 0.00270410 0.00724819 -0.00270265
v 0.00209136 0.00723683 -0.00324462
v 0.00129494 0.00716215 -0.00375726
v 0.00095421 0.00720273 -0.00379597
v 0.00095421 0.00683907 -0.00388747
v 0.00095421 0.00621566 -0.00392970
v 0.00095421 -0.00625427 -0.00395551
v 0.00095421 -0.00741344 -0.00385110
v 0.00095421 -0.00687769 -0.00395551
v 0.00137346 -0.00728031 -0.00379362
v 0.00204930 -0.00730142 -0.00326925
v 0.00223578 -0.00733713 -0.00279767
v 0.00220213 -0.00737772 -0.00218767
v 0.00157817 -0.00751896 0.00155331
v 0.00213904 -0.00730304 0.00155331
v 0.00212081 -0.00729330 0.00217622
v 0.00208015 -0.00727544 0.00342321
v 0.00203247 -0.00726895 0.00404729
v 0.00239142 -0.00710660 0.00342321
v 0.00191329 -0.00721375 0.00505145
v 0.00064854 -0.00687769 0.00793021
v 0.00195816 -0.00364859 0.00793021
v -0.00140001 0.00595915 0.00762051
v -0.00014788 0.00655009 0.00690258
v 0.00013535 0.00655009 0.00690258
v -0.00044935 0.00607117 0.00793021
v 0.00130615 0.00717189 0.00502095
v 0.00033867 0.00666211 0.00658116
v 0.00055039 0.00649652 0.00681578
v 0.00376694 0.00715728 0.00126121
v 0.00380900 0.00719949 0.00093040
v 0.00312615 0.00709883 0.00247535
v 0.00123745 0.00650626 0.00620342
v 0.00074109 0.00597214 0.00759471
v 0.00130896 0.00595428 0.00692722
v 0.00125007 0.00526268 0.00793021
v 0.00399128 0.00683907 0.00030632
v 0.00398848 0.00683907 -0.00031777
v 0.00380760 0.00719949 -0.00094067
v 0.00376554 0.00715728 -0.00126679
v 0.00311914 0.00705500 -0.00247976
v 0.00250780 0.00712805 -0.00311792
v 0.00166791 0.00683907 -0.00364347
v 0.00135523 0.00683907 -0.00378072
v 0.00140150 0.00621566 -0.00379831
v 0.00143235 -0.00625427 -0.00381591
v 0.00142954 -0.00687769 -0.00381708
v 0.00174223 -0.00687769 -0.00365754
v 0.00223578 -0.00687444 -0.00332087
v 0.00255267 -0.00666501 -0.00315546
v 0.00246574 -0.00708062 -0.00299710
v 0.00254987 -0.00721050 -0.00258182
v 0.00255968 -0.00721537 -0.00218767
v 0.00217269 -0.00732252 0.00030632
v 0.00215586 -0.00731278 0.00093040
v 0.00243209 -0.00715206 0.00217622
v 0.00241386 -0.00714069 0.00279913
v 0.00326497 -0.00666177 0.00155331
v 0.00320468 -0.00662930 0.00217622
v 0.00315840 -0.00659033 0.00255043
v 0.00259053 -0.00670073 0.00389479
v 0.00208155 -0.00317778 0.00793021
v 0.00379638 -0.00601887 0.00134450
v -0.00029230 0.00608416 0.00793021
v 0.00025173 0.00600948 0.00793021
v 0.00082241 0.00661503 0.00640050
v 0.00057002 0.00587148 0.00793021
v 0.00378797 0.00683907 0.00132573
v 0.00390014 0.00683907 0.00093040
v 0.00140851 0.00495746 0.00793021
v 0.00144777 0.00486655 0.00793021
v 0.00163566 0.00420255 0.00793021
v 0.00185860 0.00304988 0.00793021
v 0.00094440 0.00556951 0.00793021
v 0.00100609 0.00550945 0.00793021
v 0.00111686 0.00540067 0.00793021
v 0.00404036 0.00621566 0.00030632
v 0.00389454 0.00683907 -0.00094067
v 0.00403615 0.00621566 -0.00031777
v 0.00378657 0.00683907 -0.00132193
v 0.00366038 0.00683907 -0.00163397
v 0.00283030 0.00688453 -0.00281761
v 0.00331404 0.00684394 -0.00223811
v 0.00315139 0.00663939 -0.00251730
v 0.00254145 0.00671244 -0.00314608
v 0.00226102 0.00688778 -0.00330327
v 0.00171418 0.00621566 -0.00366927
v 0.00173662 -0.00500744 -0.00367514
v 0.00174223 -0.00563086 -0.00367162
v 0.00174503 -0.00625427 -0.00366341
v 0.00220213 -0.00625427 -0.00339946
v 0.00257370 -0.00625427 -0.00317071
v 0.00288498 -0.00625427 -0.00285515
v 0.00315981 -0.00660170 -0.00252903
v 0.00323833 -0.00667476 -0.00218767
v 0.00333087 -0.00672671 -0.00156476
v 0.00284993 -0.00703841 -0.00156476
v 0.00282469 -0.00694263 0.00155331
v 0.00329722 -0.00667476 0.00093040
v 0.00362813 -0.00644909 0.00030632
v 0.00360990 -0.00640363 0.00093040
v 0.00384826 -0.00609193 0.00093040
v 0.00208996 -0.00313720 0.00793021
v 0.00404316 -0.00563086 0.00030632
v 0.00394081 -0.00563086 0.00093040
v 0.00381461 -0.00563086 0.00139611
v 0.00380480 0.00621566 0.00137969
v 0.00394221 0.00621566 0.00093040
v 0.00191048 0.00262777 0.00793021
v 0.00192731 0.00247354 0.00793021
v 0.00197498 0.00185662 0.00793021
v 0.00405578 -0.00500744 -0.00031777
v 0.00405158 -0.00500744 0.00030632
v 0.00393660 0.00621566 -0.00094067
v 0.00380480 0.00621566 -0.00137002
v 0.00368561 0.00621566 -0.00168207
v 0.00339397 0.00621566 -0.00218767
v 0.00315840 0.00621566 -0.00252552
v 0.00286816 0.00621566 -0.00283756
v 0.00255688 0.00621566 -0.00315664
v 0.00220213 0.00621566 -0.00339125
v 0.00220213 -0.00500744 -0.00341120
v 0.00220213 -0.00563086 -0.00340650
v 0.00256950 -0.00438403 -0.00317071
v 0.00317242 -0.00625427 -0.00254428
v 0.00337574 -0.00625427 -0.00218767
v 0.00379919 -0.00604485 -0.00134656
v 0.00363654 -0.00625427 -0.00155772
v 0.00385668 -0.00612764 -0.00094067
v 0.00366458 -0.00643935 -0.00094067
v 0.00364916 -0.00646533 -0.00031777
v 0.00335330 -0.00671534 -0.00094067
v 0.00333788 -0.00670073 -0.00031777
v 0.00389594 -0.00613738 0.00030632
v 0.00211239 -0.00260957 0.00793021
v 0.00390155 -0.00615362 -0.00031777
v 0.00405158 -0.00563086 -0.00031777
v 0.00394221 -0.00500744 0.00093040
v 0.00382443 -0.00376061 0.00140667
v 0.00198059 0.00170726 0.00793021
v 0.00199602 0.00122671 0.00793021
v 0.00209557 -0.00197154 0.00793021
v 0.00394361 -0.00376061 0.00093040
v 0.00395343 -0.00563086 -0.00094067
v 0.00382022 -0.00376061 -0.00138293
v 0.00382022 -0.00438403 -0.00138410
v 0.00368561 -0.00563086 -0.00170083
v 0.00340799 -0.00563086 -0.00218767
v 0.00381882 -0.00563086 -0.00138879
f 1 2 3
f 1 3 4
f 1 4 5
f 1 5 6
f 1 6 7
f 1 7 18
f 1 18 39
f 1 39 38
f 1 38 63
f 1 63 62
f 1 62 105
f 1 105 147
f 1 147 193
f 1 193 239
f 1 239 290
f 1 290 291
f 1 291 331
f 1 331 372
f 1 372 404
f 1 404 411
f 1 411 410
f 1 410 409
f 1 409 380
f 1 380 379
f 1 379 378
f 1 378 342
f 1 342 341
f 1 341 340
f 1 340 339
f 1 339 305
f 1 305 345
f 1 345 344
f 1 344 343
f 1 343 336
f 1 336 334
f 1 334 333
f 1 333 295
f 1 295 258
f 1 258 246
f 1 246 244
f 1 244 243
f 1 243 202
f 1 202 201
f 1 201 242
f 1 242 241
f 1 241 240
f 1 240 194
f 1 194 151
f 1 151 150
f 1 150 148
f 1 148 106
f 1 106 64
f 1 64 40
f 1 40 19
f 1 19 8
f 1 8 2
f 2 8 9
f 2 9 4
f 2 4 3
f 4 9 10
f 4 10 11
f 4 11 12
f 4 12 5
f 5 13 6
f 5 12 13
f 6 13 14
f 6 14 15
f 6 15 16
f 6 16 7
f 7 16 17
f 7 17 18
f 8 19 20
f 8 20 9
f 9 20 21
f 9 21 10
f 10 21 22
f 10 22 11
f 11 22 23
f 11 23 24
f 11 24 25
f 11 25 12
f 12 26 13
f 12 25 27
f 12 27 28
f 12 28 29
f 12 29 30
f 12 30 31
f 12 31 32
f 12 32 26
f 13 26 14
f 14 26 32
f 14 32 15
f 15 32 33
f 15 33 16
f 16 33 34
f 16 34 35
f 16 35 36
f 16 36 17
f 17 36 37
f 17 37 38
f 17 38 39
f 17 39 18
f 19 40 41
f 19 41 42
f 19 42 20
f 20 42 21
f 21 42 22
f 22 42 43
f 22 43 44
f 22 44 23
f 23 44 45
f 23 45 46
f 23 46 47
f 23 47 48
f 23 48 25
f 23 25 24
f 25 49 50
f 25 50 28
f 25 28 27
f 25 48 51
f 25 51 49
f 28 50 52
f 28 52 53
f 28 53 54
f 28 54 29
f 29 54 30
f 30 54 31
f 31 54 55
f 31 55 56
f 31 56 32
f 32 56 57
f 32 57 58
f 32 58 33
f 33 58 34
f 34 58 57
f 34 57 59
f 34 59 35
f 35 59 60
f 35 60 61
f 35 61 36
f 36 61 62
f 36 62 37
f 37 62 63
f 37 63 38
f 40 64 41
f 41 64 42
f 42 65 66
f 42 66 67
f 42 67 68
f 42 68 69
f 42 69 43
f 42 64 65
f 43 69 44
f 44 68 70
f 44 70 71
f 44 71 72
f 44 72 73
f 44 73 45
f 44 69 68
f 45 74 75
f 45 75 76
f 45 76 77
f 45 77 46
f 45 73 78
f 45 78 74
f 46 77 47
f 47 77 79
f 47 79 80
f 47 80 48
f 48 80 51
f 49 51 81
f 49 81 82
f 49 82 83
f 49 83 84
f 49 84 52
f 49 52 50
f 51 80 85
f 51 85 81
f 52 84 86
f 52 86 87
f 52 87 53
f 53 87 88
f 53 88 89
f 53 89 54
f 54 89 90
f 54 90 91
f 54 91 92
f 54 92 93
f 54 93 94
f 54 94 55
f 55 94 95
f 55 95 56
f 56 95 57
f 57 95 59
f 59 96 60
f 59 95 94
f 59 94 93
f 59 93 92
f 59 92 97
f 59 97 98
f 59 98 96
f 60 96 99
f 60 99 100
f 60 100 101
f 60 101 61
f 61 101 102
f 61 102 103
f 61 103 62
f 62 103 104
f 62 104 105
f 64 106 107
f 64 107 108
f 64 108 65
f 65 108 66
f 66 108 109
f 66 109 68
f 66 68 67
f 68 109 110
f 68 110 70
f 70 110 71
f 71 110 72
f 72 110 111
f 72 111 112
f 72 112 113
f 72 113 73
f 73 113 78
f 74 78 114
f 74 114 75
f 75 115 116
f 75 116 79
f 75 79 117
f 75 117 77
f 75 77 76
f 75 114 118
f 75 118 115
f 77 117 79
f 78 113 119
f 78 119 114
f 79 116 80
f 80 116 120
f 80 120 85
f 81 85 121
f 81 121 82
f 82 121 122
f 82 122 123
f 82 123 124
f 82 124 83
f 83 124 125
f 83 125 86
f 83 86 84
f 85 120 121
f 86 125 126
f 86 126 127
f 86 127 88
f 86 88 87
f 88 127 128
f 88 128 129
f 88 129 100
f 88 100 99
f 88 99 89
f 89 99 90
f 90 99 130
f 90 130 98
f 90 98 91
f 91 98 97
f 91 97 92
f 96 98 130
f 96 130 99
f 100 129 131
f 100 131 132
f 100 132 102
f 100 102 101
f 102 132 133
f 102 133 134
f 102 134 135
f 102 135 103
f 103 135 104
f 104 135 136
f 104 136 105
f 105 136 137
f 105 137 138
f 105 138 139
f 105 139 140
f 105 140 141
f 105 141 142
f 105 142 143
f 105 143 144
f 105 144 145
f 105 145 146
f 105 146 147
f 106 148 110
f 106 110 107
f 107 110 149
f 107 149 109
f 107 109 108
f 109 149 110
f 110 148 150
f 110 150 111
f 111 150 112
f 112 150 151
f 112 151 152
f 112 152 113
f 113 153 119
f 113 152 153
f 114 154 118
f 114 119 155
f 114 155 156
f 114 156 157
f 114 157 154
f 115 158 159
f 115 159 160
f 115 160 116
f 115 118 161
f 115 161 162
f 115 162 158
f 116 160 163
f 116 163 164
f 116 164 165
f 116 165 166
f 116 166 167
f 116 167 120
f 118 154 168
f 118 168 161
f 119 153 155
f 120 167 169
f 120 169 121
f 121 169 122
f 122 169 170
f 122 170 123
f 123 170 171
f 123 171 172
f 123 172 124
f 124 172 173
f 124 173 125
f 125 173 126
f 126 174 175
f 126 175 127
f 126 173 174
f 127 175 128
f 128 175 129
f 129 175 131
f 131 175 174
f 131 174 133
f 131 133 132
f 133 176 134
f 133 174 176
f 134 177 178
f 134 178 135
f 134 176 179
f 134 179 180
f 134 180 177
f 135 178 136
f 136 178 181
f 136 181 138
f 136 138 137
f 138 181 182
f 138 182 183
f 138 183 184
f 138 184 139
f 139 184 140
f 140 185 142
f 140 142 141
f 140 184 186
f 140 186 187
f 140 187 185
f 142 185 143
f 143 185 188
f 143 188 144
f 144 188 189
f 144 189 190
f 144 190 145
f 145 190 191
f 145 191 146
f 146 191 192
f 146 192 193
f 146 193 147
f 151 194 152
f 152 194 153
f 153 195 155
f 153 194 195
f 154 157 168
f 155 195 156
f 156 196 197
f 156 197 198
f 156 198 199
f 156 199 157
f 156 195 200
f 156 200 201
f 156 201 202
f 156 202 196
f 157 199 161
f 157 161 168
f 158 162 159
f 159 203 160
f 159 162 204
f 159 204 205
f 159 205 206
f 159 206 203
f 160 203 207
f 160 207 163
f 161 208 204
f 161 204 162
f 161 199 208
f 163 207 164
f 164 207 209
f 164 209 210
f 164 210 165
f 165 211 212
f 165 212 166
f 165 210 213
f 165 213 214
f 165 214 211
f 166 212 215
f 166 215 216
f 166 216 217
f 166 217 218
f 166 218 167
f 167 218 169
f 169 218 219
f 169 219 170
f 170 219 220
f 170 220 171
f 171 220 225
f 171 225 221
f 171 221 172
f 172 221 222
f 172 222 174
f 172 174 173
f 174 222 223
f 174 223 176
f 176 223 179
f 177 180 182
f 177 182 181
f 177 181 178
f 179 223 221
f 179 221 180
f 180 224 183
f 180 183 182
f 180 221 225
f 180 225 224
f 183 224 226
f 183 226 184
f 184 226 186
f 185 187 227
f 185 227 188
f 186 226 228
f 186 228 187
f 187 228 229
f 187 229 227
f 188 227 229
f 188 229 189
f 189 229 190
f 190 229 230
f 190 230 231
f 190 231 191
f 191 231 232
f 191 232 192
f 192 232 233
f 192 233 234
f 192 234 235
f 192 235 236
f 192 236 193
f 193 236 237
f 193 237 238
f 193 238 239
f 194 240 195
f 195 241 242
f 195 242 200
f 195 240 241
f 196 202 243
f 196 243 244
f 196 244 245
f 196 245 246
f 196 246 197
f 197 246 247
f 197 247 248
f 197 248 198
f 198 248 247
f 198 247 249
f 198 249 250
f 198 250 251
f 198 251 199
f 199 251 208
f 200 242 201
f 203 206 252
f 203 252 207
f 204 208 253
f 204 253 254
f 204 254 205
f 205 254 255
f 205 255 256
f 205 256 257
f 205 257 258
f 205 258 206
f 206 258 259
f 206 259 260
f 206 260 252
f 207 252 209
f 208 251 253
f 209 252 261
f 209 261 262
f 209 262 210
f 210 263 213
f 210 262 264
f 210 264 265
f 210 265 263
f 211 214 266
f 211 266 267
f 211 267 212
f 212 267 268
f 212 268 215
f 213 263 266
f 213 266 214
f 215 268 269
f 215 269 270
f 215 270 216
f 216 270 271
f 216 271 217
f 217 271 272
f 217 272 273
f 217 273 218
f 218 273 219
f 219 273 272
f 219 272 274
f 219 274 220
f 220 274 275
f 220 275 276
f 220 276 225
f 221 223 222
f 224 225 277
f 224 277 226
f 225 276 278
f 225 278 277
f 226 277 279
f 226 279 280
f 226 280 281
f 226 281 228
f 228 281 282
f 228 282 229
f 229 282 283
f 229 283 230
f 230 283 232
f 230 232 231
f 232 282 284
f 232 284 285
f 232 285 286
f 232 286 233
f 232 283 282
f 233 286 287
f 233 287 234
f 234 288 289
f 234 289 235
f 234 287 288
f 235 289 236
f 236 289 237
f 237 290 238
f 237 289 291
f 237 291 290
f 238 290 239
f 244 246 245
f 246 258 257
f 246 257 292
f 246 292 247
f 247 292 249
f 249 292 255
f 249 255 254
f 249 254 250
f 250 254 251
f 251 254 253
f 252 260 293
f 252 293 294
f 252 294 261
f 255 292 256
f 256 292 257
f 258 295 260
f 258 260 259
f 260 295 293
f 261 296 262
f 261 294 297
f 261 297 298
f 261 298 296
f 262 296 264
f 263 265 299
f 263 299 300
f 263 300 266
f 264 301 265
f 264 296 302
f 264 302 303
f 264 303 304
f 264 304 305
f 264 305 301
f 265 301 299
f 266 306 267
f 266 300 306
f 267 306 307
f 267 307 308
f 267 308 268
f 268 308 309
f 268 309 269
f 269 309 310
f 269 310 311
f 269 311 270
f 270 311 271
f 271 311 272
f 272 311 312
f 272 312 313
f 272 313 274
f 274 313 275
f 275 313 314
f 275 314 315
f 275 315 276
f 276 315 316
f 276 316 278
f 277 278 279
f 278 316 279
f 279 316 317
f 279 317 318
f 279 318 280
f 280 318 319
f 280 319 320
f 280 320 321
f 280 321 281
f 281 321 282
f 282 321 322
f 282 322 323
f 282 323 324
f 282 324 284
f 284 324 325
f 284 325 285
f 285 325 286
f 286 325 326
f 286 326 287
f 287 326 288
f 288 326 327
f 288 327 328
f 288 328 289
f 289 328 329
f 289 329 330
f 289 330 291
f 291 330 329
f 291 329 332
f 291 332 331
f 293 295 333
f 293 333 294
f 294 298 297
f 294 333 334
f 294 334 298
f 296 298 335
f 296 335 336
f 296 336 303
f 296 303 302
f 298 334 335
f 299 337 338
f 299 338 300
f 299 301 305
f 299 305 339
f 299 339 340
f 299 340 341
f 299 341 342
f 299 342 337
f 300 338 306
f 303 336 343
f 303 343 304
f 304 343 344
f 304 344 345
f 304 345 305
f 306 346 307
f 306 338 346
f 307 347 308
f 307 346 348
f 307 348 347
f 308 347 309
f 309 347 349
f 309 349 350
f 309 350 310
f 310 351 311
f 310 350 352
f 310 352 353
f 310 353 351
f 311 351 354
f 311 354 355
f 311 355 312
f 312 355 356
f 312 356 313
f 313 356 314
f 314 356 315
f 315 357 316
f 315 356 357
f 316 357 358
f 316 358 359
f 316 359 317
f 317 359 360
f 317 360 361
f 317 361 319
f 317 319 318
f 319 361 362
f 319 362 363
f 319 363 320
f 320 363 321
f 321 363 364
f 321 364 365
f 321 365 322
f 322 365 366
f 322 366 325
f 322 325 323
f 323 325 324
f 325 366 367
f 325 367 326
f 326 367 368
f 326 368 327
f 327 368 369
f 327 369 370
f 327 370 328
f 328 370 371
f 328 371 329
f 329 371 332
f 331 332 372
f 332 371 373
f 332 373 374
f 332 374 375
f 332 375 372
f 334 336 335
f 337 376 377
f 337 377 338
f 337 342 378
f 337 378 379
f 337 379 380
f 337 380 376
f 338 377 346
f 346 381 348
f 346 377 382
f 346 382 381
f 347 348 383
f 347 383 349
f 348 381 383
f 349 383 384
f 349 384 385
f 349 385 350
f 350 385 352
f 351 353 354
f 352 385 386
f 352 386 353
f 353 386 387
f 353 387 388
f 353 388 354
f 354 388 389
f 354 389 390
f 354 390 355
f 355 390 356
f 356 390 391
f 356 391 357
f 357 391 358
f 358 391 392
f 358 392 359
f 359 392 360
f 360 392 361
f 361 392 391
f 361 391 393
f 361 393 362
f 362 394 363
f 362 393 389
f 362 389 388
f 362 388 387
f 362 387 394
f 363 394 395
f 363 395 396
f 363 396 397
f 363 397 364
f 364 397 398
f 364 398 399
f 364 399 365
f 365 399 400
f 365 400 401
f 365 401 366
f 366 401 367
f 367 401 402
f 367 402 368
f 368 402 400
f 368 400 369
f 369 400 403
f 369 403 370
f 370 403 371
f 371 403 373
f 372 375 404
f 373 403 405
f 373 405 406
f 373 406 382
f 373 382 374
f 374 382 407
f 374 407 408
f 374 408 404
f 374 404 375
f 376 380 377
f 377 380 409
f 377 409 410
f 377 410 411
f 377 411 404
f 377 404 408
f 377 408 412
f 377 412 382
f 381 382 406
f 381 406 413
f 381 413 383
f 382 412 407
f 383 413 414
f 383 414 384
f 384 414 385
f 385 414 415
f 385 415 416
f 385 416 417
f 385 417 386
f 386 417 394
f 386 394 387
f 389 393 390
f 390 393 391
f 394 417 416
f 394 416 395
f 395 416 396
f 396 398 397
f 396 416 418
f 396 418 413
f 396 413 398
f 398 413 406
f 398 406 405
f 398 405 399
f 399 405 400
f 400 402 401
f 400 405 403
f 407 412 408
f 413 418 415
f 413 415 414
f 415 418 416

