# https://github.com/mikedh/trimesh
v 0.00652799 0.00000886 0.01428811
v 0.00649995 -0.00064600 0.01429242
v 0.00644977 0.00000005 0.00679983
v 0.00646010 0.00099996 0.01429242
v 0.00651176 0.00049193 0.03338365
v 0.00652356 0.00023791 0.03564133
v 0.00652504 0.00018799 0.03298295
v 0.00652651 0.00011311 0.03781716
v 0.00652651 -0.00013797 0.03596017
v 0.00652504 -0.00019817 0.03266412
v 0.00644239 -0.00112466 0.03232805
v 0.00635826 -0.00158130 0.01429673
v 0.00642172 -0.00064600 0.00679983
v 0.00651028 -0.00051385 0.03799381
v 0.00649995 -0.00064600 0.03801966
v 0.00645272 -0.00105418 0.03630485
v 0.00634793 0.00123048 0.00679983
v 0.00554946 -0.00141685 -0.00099866
v 0.00554946 -0.00062397 -0.00123563
v 0.00554946 0.00062407 -0.00123563
v 0.00554946 0.00108071 -0.00112361
v 0.00554946 0.00179724 -0.00080478
v 0.00642615 0.00123048 0.01429242
v 0.00642615 0.00123048 0.03722258
v 0.00648814 0.00075916 0.03431430
v 0.00649404 0.00070336 0.03479686
v 0.00649552 0.00068574 0.03383174
v 0.00650880 0.00052570 0.03524495
v 0.00649257 0.00071364 0.03755003
v -0.00263156 0.00363114 0.03817477
v -0.00663277 0.00491736 0.03843759
v -0.00272306 0.00334923 0.03830402
v -0.00709621 0.00432858 0.03869179
v 0.00642910 -0.00120836 0.03807136
v 0.00636859 -0.00153432 0.03630916
v 0.00635383 -0.00160186 0.03233236
v 0.00631693 -0.00176337 0.03804551
v 0.00625642 -0.00199536 0.03619714
v 0.00623871 -0.00205703 0.03245300
v 0.00610293 -0.00248430 0.01430965
v 0.00621510 -0.00185734 0.00679983
v 0.00554946 -0.00274859 0.00000523
v 0.00554946 -0.00179714 -0.00080478
v -0.00740911 0.00384698 0.03878658
v -0.00307286 0.00231995 0.03855823
v 0.00621510 0.00185744 0.00679983
v 0.00554946 0.00274869 0.00000523
v 0.00500041 -0.00129205 -0.00196809
v 0.00513030 -0.00015265 -0.00197670
v 0.00505502 0.00098968 -0.00197240
v 0.00477608 0.00210118 -0.00195516
v 0.00537530 0.00228912 -0.00084786
v 0.00615753 0.00232583 0.01430965
v 0.00631546 0.00177081 0.03675725
v -0.00235851 0.00450184 0.03753710
v -0.00618114 0.00539456 0.03807998
v 0.00338724 0.00180752 0.03770944
v -0.00655012 0.00501133 0.03837727
v -0.00678036 0.00474410 0.03658491
v -0.00689253 0.00460315 0.03674002
v -0.00671395 0.00491443 0.01347810
v -0.00726299 0.00408190 0.03708470
v -0.00725118 0.00421552 0.01350395
v -0.00767772 0.00335804 0.03879520
v -0.00790501 0.00285882 0.03871765
v -0.00344036 0.00128627 0.03848498
v 0.00610293 -0.00248430 0.03787317
v 0.00600404 -0.00275153 0.03566718
v 0.00592582 -0.00294241 0.01432258
v 0.00602618 -0.00248430 0.00679983
v 0.00179177 -0.00719899 -0.00054195
v 0.00161023 -0.00719899 -0.00095558
v 0.00525722 -0.00260323 -0.00083925
v 0.00554946 -0.00356203 0.00558913
v 0.00518490 -0.00416550 0.00524013
v 0.00451631 -0.00502592 0.00473603
v 0.00476279 -0.00274859 -0.00158893
v 0.00466833 -0.00239033 -0.00195085
v -0.00749176 0.00370602 0.03717949
v -0.00775890 0.00335216 0.01352980
v 0.00580922 0.00303207 0.00679983
v 0.00476279 0.00274869 -0.00158893
v 0.00125749 0.00687900 -0.00081339
v 0.00149658 0.00687900 -0.00007663
v 0.00403516 0.00551055 0.00446459
v 0.00451631 0.00502602 0.00473603
v 0.00483954 0.00464279 0.00496008
v 0.00554946 0.00356213 0.00558913
v 0.00420785 -0.00113935 -0.00295475
v 0.00432149 -0.00013503 -0.00295906
v 0.00425508 0.00087222 -0.00295906
v 0.00401007 0.00185304 -0.00294613
v 0.00450598 0.00274869 -0.00195085
v 0.00588744 0.00303207 0.01432258
v 0.00605865 0.00260921 0.02946286
v 0.00607341 0.00256956 0.03324578
v 0.00615016 0.00234932 0.03026856
v 0.00618263 0.00224801 0.03191012
v 0.00628004 0.00190883 0.03523633
v 0.00620181 0.00218193 0.03626177
v -0.00547122 0.00599949 0.03728290
v 0.00366176 0.00270611 0.03689512
v -0.00582102 0.00572052 0.03771375
v -0.00635973 0.00529471 0.01345656
v -0.00656045 0.00508622 0.00123317
v -0.00671395 0.00491443 0.00128488
v -0.00703717 0.00451505 0.00143567
v -0.00732498 0.00410540 0.00163818
v -0.00755965 0.00372364 0.00187515
v -0.00794782 0.00294251 0.01353842
v -0.00809541 0.00234491 0.03854961
v -0.00812493 0.00248440 0.01355135
v 0.00220355 -0.00158130 0.03789040
v 0.00594353 -0.00289836 0.03769221
v 0.00522918 -0.00421542 0.01435705
v 0.00589630 -0.00301142 0.03527511
v 0.00588301 -0.00304078 0.03341381
v 0.00582250 -0.00317440 0.03482702
v 0.00581512 -0.00318908 0.03387052
v 0.00579298 -0.00323460 0.03435308
v 0.00571624 -0.00339024 0.03737768
v 0.00548452 -0.00381311 0.03698130
v 0.00186999 -0.00719899 -0.00009386
v 0.00172240 -0.00727241 -0.00052041
v 0.00154677 -0.00727241 -0.00091680
v 0.00128258 -0.00727241 -0.00126148
v 0.00133423 -0.00719899 -0.00131319
v 0.00433773 -0.00529461 0.01440444
v 0.00395251 -0.00558680 0.00442151
v 0.00359829 -0.00274859 -0.00293321
v 0.00391561 -0.00210695 -0.00293751
v -0.00776333 0.00334188 0.00216813
v -0.00784893 0.00316422 0.00233616
v 0.00359829 0.00274869 -0.00293321
v 0.00068040 0.00687900 -0.00133473
v 0.00107300 0.00709925 -0.00069275
v 0.00127815 0.00709925 -0.00006370
v 0.00350088 0.00595985 0.00422762
v 0.00366766 0.00589084 0.01443891
v 0.00419309 0.00543567 0.02654165
v 0.00473032 0.00487038 0.01438290
v 0.00491776 0.00464279 0.01437428
v 0.00560554 0.00360177 0.01433550
v 0.00301826 -0.00176337 -0.00377768
v 0.00326326 -0.00095434 -0.00379061
v 0.00335919 -0.00011301 -0.00379492
v 0.00330311 0.00072979 -0.00379061
v 0.00309796 0.00155057 -0.00378199
v 0.00568672 0.00345054 0.02812721
v 0.00590220 0.00299684 0.02872609
v 0.00598928 0.00278981 0.03448664
v 0.00600847 0.00274135 0.03385328
v 0.00602027 0.00270905 0.03510707
v 0.00609555 0.00250496 0.03570165
v 0.00614425 0.00236400 0.03259087
v -0.00216960 0.00516697 0.03663661
v -0.00515981 0.00621974 0.03679603
v -0.00523065 0.00617275 0.03691667
v -0.00531330 0.00616982 0.01340486
v -0.00568671 0.00589378 0.00119009
v -0.00613686 0.00550908 0.00116424
v -0.00701503 0.00274869 -0.00134765
v -0.00713458 0.00274869 -0.00114084
v -0.00758326 0.00274869 -0.00017573
v -0.00780022 0.00274869 0.00050503
v -0.00802751 0.00274869 0.00316341
v -0.00797438 0.00288084 0.00270239
v -0.00824005 0.00184863 0.03830402
v -0.00812493 0.00248440 0.00227154
v -0.00822972 0.00216431 0.00227154
v -0.00838026 0.00158140 0.01356427
v -0.00381377 0.00028930 0.03807136
v 0.00526313 -0.00416550 0.03650305
v 0.00507421 -0.00443566 0.03597309
v 0.00458273 -0.00503766 0.03448664
v -0.00830499 0.00157259 0.03812306
v -0.00833893 0.00140227 0.03799812
v 0.00183309 -0.00252688 0.03717087
v -0.00840535 0.00099702 0.03762327
v 0.00179620 -0.00727241 -0.00008956
v 0.00169731 -0.00729883 -0.00008525
v 0.00162647 -0.00729883 -0.00049025
v 0.00146116 -0.00729883 -0.00086510
v 0.00121173 -0.00729883 -0.00118824
v 0.00089146 -0.00729883 -0.00144675
v 0.00094312 -0.00727241 -0.00152861
v 0.00098149 -0.00719899 -0.00159324
v 0.00403074 -0.00558534 0.01441737
v 0.00403074 -0.00558534 0.03306482
v 0.00330754 -0.00610364 0.00415869
v 0.00213123 -0.00274859 -0.00393710
v 0.00263304 -0.00251660 -0.00375614
v -0.00814411 0.00212026 0.00107806
v -0.00802751 0.00274869 0.00227154
v 0.00274964 0.00232142 -0.00376476
v 0.00213123 0.00274869 -0.00393710
v -0.00006789 0.00709925 -0.00127441
v 0.00058004 0.00709925 -0.00113654
v 0.00197921 0.00274869 -0.00401465
v 0.00100068 0.00274869 -0.00439812
v 0.00093869 0.00274869 -0.00441535
v 0.00045901 0.00274869 -0.00454030
v -0.00007822 0.00687900 -0.00149415
v -0.00085898 0.00749715 0.00390879
v -0.00035569 0.00746632 0.00398634
v 0.00006494 0.00741640 0.00400358
v 0.00065531 0.00730187 0.00394757
v 0.00127372 0.00713008 0.00387863
v 0.00187442 0.00690543 0.00388294
v 0.00267732 0.00650752 0.00398634
v 0.00330754 0.00610374 0.00415869
v 0.00357763 0.00596132 0.01444322
v 0.00357763 0.00596132 0.02605048
v 0.00491629 0.00464426 0.02713624
v 0.00498861 0.00455029 0.02719656
v 0.00532954 0.00406428 0.02754555
v 0.00541810 0.00392333 0.02766188
v 0.00200430 -0.00136987 -0.00444120
v 0.00219322 -0.00073997 -0.00444982
v 0.00226849 -0.00008805 -0.00445413
v 0.00222421 0.00056681 -0.00445413
v 0.00206481 0.00120405 -0.00444551
v -0.00478492 0.00645760 0.03590846
v -0.00209580 0.00550908 0.03576628
v 0.00263895 0.00657213 0.02540420
v 0.00056971 0.00733858 0.02538696
v 0.00381820 0.00330811 0.03581799
v -0.00495023 0.00635629 0.03636517
v -0.00521441 0.00623589 0.01339624
v -0.00531330 0.00616982 0.00129349
v -0.00069811 0.00709925 -0.00107191
v -0.00515538 0.00274869 -0.00337268
v -0.00607488 0.00274869 -0.00257129
v -0.00621804 0.00274869 -0.00241618
v -0.00673166 0.00274869 -0.00177851
v -0.00736630 0.00184716 -0.00132611
v -0.00785336 0.00201308 -0.00015849
v -0.00838174 0.00157846 0.00227154
v -0.00844225 0.00125985 0.00227154
v -0.00850424 0.00082229 0.00227154
v -0.00844372 0.00063876 0.03718811
v -0.00300792 -0.00721808 0.02810135
v -0.00114826 -0.00749705 0.02800226
v 0.00319241 -0.00623579 0.01446476
v 0.00329130 -0.00616972 0.03145341
v 0.00248397 -0.00665425 0.02999281
v 0.00174749 -0.00698756 0.02887259
v 0.00098001 -0.00724010 0.02789023
v 0.00072025 -0.00730618 0.02790747
v -0.00036160 -0.00746769 0.00398634
v -0.00122648 -0.00749705 0.00380969
v 0.00051805 -0.00729883 -0.00161479
v 0.00054905 -0.00727241 -0.00171388
v 0.00057118 -0.00719899 -0.00178282
v 0.00171650 -0.00274859 -0.00413529
v 0.00170469 -0.00195425 -0.00442397
v -0.00840978 0.00083257 0.00109099
v 0.00179472 0.00180311 -0.00442827
v -0.00081765 0.00687900 -0.00125717
v -0.00134308 0.00749422 0.00377091
v 0.00142279 0.00234345 -0.00441104
v 0.00050329 0.00160049 -0.00488929
v 0.00018745 0.00191764 -0.00487206
v -0.00042211 0.00274869 -0.00467817
v -0.00018153 0.00217459 -0.00485482
v -0.00131061 0.00274869 -0.00469971
v -0.00219764 0.00274869 -0.00461354
v -0.00306548 0.00274869 -0.00441104
v -0.00313485 0.00274869 -0.00438950
v -0.00098296 0.00750009 0.01468019
v -0.00063759 0.00749128 0.01466295
v -0.00037931 0.00747660 0.02599447
v 0.00014317 0.00741640 0.01461987
v 0.00093721 0.00725195 0.01458109
v 0.00148478 0.00708603 0.02506382
v 0.00195117 0.00690543 0.01452508
v 0.00239099 0.00670281 0.01450354
v 0.00090031 -0.00093525 -0.00491083
v 0.00103019 -0.00050651 -0.00491514
v 0.00108185 -0.00006015 -0.00491945
v 0.00105233 0.00038621 -0.00491945
v 0.00094312 0.00082229 -0.00491083
v 0.00075863 0.00123048 -0.00490222
v 0.00014317 0.00741640 0.02564547
v -0.00159104 0.00747366 0.02684325
v -0.00466980 0.00652368 0.03533974
v -0.00490300 0.00643264 0.00150892
v 0.00195117 0.00690543 0.02510690
v 0.00101544 0.00723139 0.02517584
v -0.00468751 0.00274869 -0.00368289
v -0.00113940 0.00709925 -0.00058073
v -0.00224634 0.00740318 0.00330990
v -0.00181390 0.00746045 0.00356841
v -0.00554945 0.00214816 -0.00332959
v -0.00631988 0.00256663 -0.00240756
v -0.00669771 0.00162986 -0.00238602
v -0.00690139 0.00063876 -0.00237740
v -0.00759802 0.00072539 -0.00131319
v -0.00810574 0.00078999 -0.00014557
v -0.00854851 0.00005878 0.00227154
v -0.00854999 -0.00000876 0.01357289
v -0.00846439 0.00033188 0.03667970
v -0.00846291 0.00034510 0.03670555
v -0.00473769 -0.00648393 0.02819183
v -0.00441299 -0.00670271 0.01335746
v -0.00397317 -0.00690533 0.00213797
v -0.00308467 -0.00721808 0.01328852
v -0.00295921 -0.00725185 0.01327991
v -0.00224634 -0.00740308 0.00330990
v -0.00181538 -0.00746035 0.00356841
v -0.00138441 -0.00749118 0.01319804
v -0.00122648 -0.00749705 0.01318943
v -0.00103904 -0.00749999 0.01318081
v -0.00096377 -0.00749852 0.01468019
v -0.00132832 -0.00729883 -0.00105898
v -0.00103609 -0.00729883 -0.00134335
v -0.00068482 -0.00729883 -0.00155447
v -0.00029370 -0.00729883 -0.00167080
v -0.00008855 -0.00729883 -0.00169665
v -0.00009445 -0.00727241 -0.00179574
v -0.00009741 -0.00719899 -0.00186899
v -0.00042211 -0.00274859 -0.00467817
v 0.00045901 -0.00274859 -0.00454030
v 0.00074239 -0.00274859 -0.00447136
v 0.00093869 -0.00274859 -0.00441535
v 0.00130619 -0.00247696 -0.00440242
v 0.00042507 -0.00169142 -0.00488498
v 0.00069664 -0.00133463 -0.00489791
v -0.00844077 -0.00048155 0.00109530
v -0.00854999 0.00000592 0.00226723
v -0.00813526 -0.00045659 -0.00014126
v -0.00370160 0.00274869 -0.00418269
v -0.00400121 0.00274869 -0.00404912
v -0.00181390 0.00746045 0.01321959
v -0.00105823 0.00749862 0.01318081
v -0.00033060 0.00062407 -0.00516935
v -0.00046048 0.00081055 -0.00516073
v -0.00061988 0.00097206 -0.00515211
v -0.00080732 0.00110274 -0.00514350
v -0.00058889 0.00236106 -0.00483328
v -0.00102133 0.00247119 -0.00481174
v -0.00146853 0.00250202 -0.00478589
v -0.00191426 0.00245210 -0.00476434
v -0.00234375 0.00232436 -0.00474280
v -0.00274373 0.00212026 -0.00472126
v -0.00310090 0.00185010 -0.00469971
v -0.00025828 -0.00047421 -0.00517366
v -0.00019334 -0.00025690 -0.00517366
v -0.00016677 -0.00003078 -0.00517796
v -0.00018153 0.00019533 -0.00517796
v -0.00023762 0.00041705 -0.00517366
v -0.00173272 0.00746045 0.02694235
v -0.00276587 0.00728131 0.02760156
v -0.00335623 0.00710952 0.02801087
v -0.00357467 0.00703317 0.02819614
v -0.00387281 0.00691571 0.02848912
v -0.00430230 0.00671896 0.02903200
v -0.00364551 0.00703611 0.00236202
v -0.00389494 0.00693773 0.01332730
v -0.00429787 0.00222305 -0.00411375
v -0.00464766 0.00166803 -0.00409221
v -0.00231128 0.00739290 0.01324544
v -0.00489266 0.00105869 -0.00408359
v -0.00586529 0.00136409 -0.00331667
v -0.00603503 0.00053451 -0.00330805
v -0.00605569 -0.00030976 -0.00330374
v -0.00692500 -0.00036996 -0.00237309
v -0.00762607 -0.00041988 -0.00130888
v -0.00854409 -0.00029361 0.01357289
v -0.00846586 -0.00029361 0.03545607
v -0.00854999 0.00000005 0.00227154
v -0.00854409 -0.00029361 0.00226723
v -0.00623280 -0.00534454 0.02826939
v -0.00568966 -0.00589074 0.01342209
v -0.00481592 -0.00648393 0.01337900
v -0.00836993 -0.00123038 0.03368525
v -0.00481592 -0.00648393 0.00156493
v -0.00163384 -0.00727241 -0.00074876
v -0.00308467 -0.00721808 0.00274117
v -0.00166926 -0.00729883 -0.00031791
v -0.00154381 -0.00729883 -0.00070999
v -0.00140655 -0.00727241 -0.00111930
v -0.00109808 -0.00727241 -0.00142521
v -0.00072615 -0.00727241 -0.00164495
v -0.00030994 -0.00727241 -0.00176989
v -0.00032322 -0.00719899 -0.00184314
v -0.00219764 -0.00274859 -0.00461354
v -0.00131061 -0.00274859 -0.00469971
v -0.00114088 -0.00248871 -0.00480312
v -0.00070253 -0.00239914 -0.00482466
v -0.00028632 -0.00223176 -0.00484621
v 0.00009299 -0.00199389 -0.00486775
v -0.00066859 -0.00101160 -0.00515211
v -0.00050033 -0.00085743 -0.00516073
v -0.00036160 -0.00067683 -0.00516504
v -0.00794191 -0.00169142 -0.00015418
v -0.00823710 -0.00178099 0.00108237
v -0.00841716 -0.00139923 0.00226292
v -0.00853376 -0.00049183 0.00226723
v -0.00854999 0.00000152 0.00226723
v -0.00340346 0.00151826 -0.00468679
v -0.00385509 0.00270758 -0.00413529
v -0.00143902 0.00000005 -0.00522105
v -0.00101248 0.00119671 -0.00513057
v -0.00123386 0.00125250 -0.00512195
v -0.00145968 0.00126866 -0.00510903
v -0.00168549 0.00124369 -0.00509610
v -0.00190393 0.00117909 -0.00508749
v -0.00210613 0.00107484 -0.00507456
v -0.00228767 0.00093829 -0.00506594
v -0.00364551 0.00703611 0.01331438
v -0.00364256 0.00113945 -0.00467386
v -0.00381082 0.00072245 -0.00466525
v -0.00390085 0.00028343 -0.00466094
v -0.00502550 0.00041558 -0.00407497
v -0.00504173 -0.00024075 -0.00407497
v -0.00592433 -0.00114522 -0.00331236
v -0.00676856 -0.00136840 -0.00238171
v -0.00744748 -0.00155194 -0.00132180
v -0.00848210 -0.00099986 0.01356858
v -0.00815740 -0.00214806 0.03202645
v -0.00783122 -0.00303197 0.03050984
v -0.00739730 -0.00386743 0.02915264
v -0.00703127 -0.00441951 0.02830817
v -0.00675232 -0.00487028 0.01347810
v -0.00631102 -0.00534454 0.01345656
v -0.00568671 -0.00589368 0.00119009
v -0.00529264 -0.00618440 0.00130211
v -0.00490300 -0.00643254 0.00150892
v -0.00823414 -0.00214806 0.01355565
v -0.00146411 -0.00719899 -0.00116669
v -0.00114236 -0.00719899 -0.00148122
v -0.00075567 -0.00719899 -0.00171388
v -0.00306548 -0.00274859 -0.00441104
v -0.00245445 -0.00227727 -0.00473418
v -0.00203086 -0.00242704 -0.00475573
v -0.00158956 -0.00249752 -0.00478158
v -0.00129290 -0.00126268 -0.00511764
v -0.00107004 -0.00121716 -0.00513057
v -0.00086046 -0.00113200 -0.00513919
v -0.00734564 -0.00274859 -0.00073584
v -0.00758326 -0.00274859 -0.00017573
v -0.00780022 -0.00274859 0.00050503
v -0.00792272 -0.00274859 0.00106514
v -0.00823414 -0.00214806 0.00226723
v -0.00826219 -0.00205703 0.00226723
v -0.00244116 0.00076944 -0.00505732
v -0.00256219 0.00057709 -0.00505302
v -0.00174601 -0.00123038 -0.00509610
v -0.00196002 -0.00115550 -0.00508318
v -0.00215779 -0.00104244 -0.00507456
v -0.00233195 -0.00089708 -0.00506594
v -0.00247659 -0.00072088 -0.00505732
v -0.00266403 -0.00030829 -0.00504871
v -0.00269945 -0.00008364 -0.00504440
v -0.00269355 0.00014247 -0.00504440
v -0.00264779 0.00036565 -0.00504871
v -0.00391118 -0.00016440 -0.00466094
v -0.00493989 -0.00088974 -0.00407928
v -0.00564686 -0.00194544 -0.00332528
v -0.00643648 -0.00232426 -0.00239894
v -0.00472441 -0.00150936 -0.00409221
v -0.00707112 -0.00263554 -0.00133904
v -0.00817953 -0.00232573 0.01355135
v -0.00762754 -0.00360167 0.01352550
v -0.00797438 -0.00288074 0.00270239
v -0.00786369 -0.00313329 0.00259899
v -0.00747405 -0.00386743 0.01351688
v -0.00696781 -0.00460452 0.00139690
v -0.00655602 -0.00509052 0.00123317
v -0.00631102 -0.00534454 0.00118147
v -0.00607488 -0.00274859 -0.00257129
v -0.00523065 -0.00268105 -0.00334683
v -0.00468751 -0.00274859 -0.00368289
v -0.00423736 -0.00274859 -0.00393710
v -0.00370160 -0.00274859 -0.00418269
v -0.00336066 -0.00274859 -0.00431194
v -0.00284409 -0.00205556 -0.00471695
v -0.00152019 -0.00126709 -0.00510472
v -0.00713458 -0.00274859 -0.00114084
v -0.00732498 -0.00410530 0.00163818
v -0.00747847 -0.00386156 0.00178467
v -0.00767920 -0.00350623 0.00203457
v -0.00802751 -0.00274859 0.00227154
v -0.00812493 -0.00248577 0.00227154
v -0.00318798 -0.00176777 -0.00469541
v -0.00347431 -0.00142273 -0.00468248
v -0.00258876 -0.00052266 -0.00504871
v -0.00369422 -0.00103216 -0.00466955
v -0.00384181 -0.00060782 -0.00466094
v -0.00440118 -0.00208199 -0.00410513
v -0.00802751 -0.00274859 0.00316341
v -0.00784893 -0.00316559 0.00233616
v -0.00398202 -0.00258708 -0.00412668
f 1 2 3
f 1 3 4
f 1 4 5
f 1 5 6
f 1 6 7
f 1 7 8
f 1 8 9
f 1 9 10
f 1 10 2
f 2 11 12
f 2 12 13
f 2 13 3
f 2 10 14
f 2 14 15
f 2 15 16
f 2 16 11
f 3 17 4
f 3 13 18
f 3 18 19
f 3 19 20
f 3 20 21
f 3 21 22
f 3 22 17
f 4 17 23
f 4 23 24
f 4 24 25
f 4 25 26
f 4 26 27
f 4 27 5
f 5 27 26
f 5 26 28
f 5 28 6
f 6 8 7
f 6 28 8
f 8 29 30
f 8 30 31
f 8 31 32
f 8 32 33
f 8 33 14
f 8 14 9
f 8 28 29
f 9 14 10
f 11 16 34
f 11 34 12
f 12 34 35
f 12 35 36
f 12 36 37
f 12 37 38
f 12 38 39
f 12 39 40
f 12 40 41
f 12 41 13
f 13 41 42
f 13 42 43
f 13 43 18
f 14 33 15
f 15 33 44
f 15 44 45
f 15 45 34
f 15 34 16
f 17 46 23
f 17 22 47
f 17 47 46
f 18 43 48
f 18 48 19
f 19 48 49
f 19 49 20
f 20 49 50
f 20 50 21
f 21 50 51
f 21 51 22
f 22 51 52
f 22 52 47
f 23 46 53
f 23 53 54
f 23 54 24
f 24 54 55
f 24 55 56
f 24 56 29
f 24 29 25
f 25 29 26
f 26 29 28
f 29 56 57
f 29 57 58
f 29 58 30
f 30 58 31
f 31 59 60
f 31 60 33
f 31 33 32
f 31 58 61
f 31 61 59
f 33 62 44
f 33 60 63
f 33 63 62
f 34 45 44
f 34 44 64
f 34 64 37
f 34 37 35
f 35 37 36
f 37 64 65
f 37 65 66
f 37 66 67
f 37 67 38
f 38 67 39
f 39 67 40
f 40 67 68
f 40 68 69
f 40 69 70
f 40 70 41
f 41 70 42
f 42 71 72
f 42 72 73
f 42 73 43
f 42 70 74
f 42 74 75
f 42 75 76
f 42 76 71
f 43 73 77
f 43 77 78
f 43 78 48
f 44 79 64
f 44 62 63
f 44 63 80
f 44 80 79
f 46 81 53
f 46 47 81
f 47 52 82
f 47 82 83
f 47 83 84
f 47 84 85
f 47 85 86
f 47 86 87
f 47 87 88
f 47 88 81
f 48 78 89
f 48 89 49
f 49 89 90
f 49 90 91
f 49 91 50
f 50 91 92
f 50 92 51
f 51 92 93
f 51 93 82
f 51 82 52
f 53 81 94
f 53 94 95
f 53 95 96
f 53 96 97
f 53 97 98
f 53 98 99
f 53 99 54
f 54 100 101
f 54 101 102
f 54 102 55
f 54 99 100
f 55 102 101
f 55 101 103
f 55 103 56
f 56 58 57
f 56 103 104
f 56 104 58
f 58 104 61
f 59 61 60
f 60 61 63
f 61 104 105
f 61 105 106
f 61 106 107
f 61 107 63
f 63 107 108
f 63 108 109
f 63 109 80
f 64 79 80
f 64 80 110
f 64 110 65
f 65 111 67
f 65 67 66
f 65 110 112
f 65 112 111
f 67 111 113
f 67 113 114
f 67 114 68
f 68 114 69
f 69 115 74
f 69 74 70
f 69 114 116
f 69 116 117
f 69 117 118
f 69 118 119
f 69 119 120
f 69 120 121
f 69 121 122
f 69 122 115
f 71 76 123
f 71 123 124
f 71 124 72
f 72 124 125
f 72 125 126
f 72 126 127
f 72 127 77
f 72 77 73
f 74 115 75
f 75 115 76
f 76 115 128
f 76 128 129
f 76 129 123
f 77 130 78
f 77 127 130
f 78 130 131
f 78 131 89
f 80 109 132
f 80 132 133
f 80 133 110
f 81 88 94
f 82 93 83
f 83 93 134
f 83 134 135
f 83 135 136
f 83 136 137
f 83 137 84
f 84 137 85
f 85 138 139
f 85 139 140
f 85 140 141
f 85 141 86
f 85 137 138
f 86 141 87
f 87 141 142
f 87 142 143
f 87 143 88
f 88 143 94
f 89 131 144
f 89 144 145
f 89 145 146
f 89 146 90
f 90 146 91
f 91 146 147
f 91 147 148
f 91 148 92
f 92 134 93
f 92 148 134
f 94 143 149
f 94 149 150
f 94 150 151
f 94 151 152
f 94 152 95
f 95 152 96
f 96 152 153
f 96 153 154
f 96 154 97
f 97 154 155
f 97 155 98
f 98 155 100
f 98 100 99
f 100 154 156
f 100 156 157
f 100 157 158
f 100 158 101
f 100 155 154
f 101 158 159
f 101 159 103
f 103 159 160
f 103 160 161
f 103 161 104
f 104 161 105
f 105 161 162
f 105 162 163
f 105 163 106
f 106 163 164
f 106 164 107
f 107 164 165
f 107 165 108
f 108 165 109
f 109 165 132
f 110 166 112
f 110 133 167
f 110 167 166
f 111 168 113
f 111 112 168
f 112 166 194
f 112 194 169
f 112 169 170
f 112 170 171
f 112 171 168
f 113 168 172
f 113 172 114
f 114 172 121
f 114 121 118
f 114 118 116
f 115 122 173
f 115 173 174
f 115 174 175
f 115 175 128
f 116 118 117
f 118 120 119
f 118 121 120
f 121 172 168
f 121 168 176
f 121 176 177
f 121 177 122
f 122 177 178
f 122 178 179
f 122 179 173
f 123 180 124
f 123 129 180
f 124 180 181
f 124 181 182
f 124 182 183
f 124 183 125
f 125 183 126
f 126 184 185
f 126 185 186
f 126 186 187
f 126 187 127
f 126 183 184
f 127 187 130
f 128 188 129
f 128 175 189
f 128 189 188
f 129 188 190
f 129 190 180
f 130 187 191
f 130 191 192
f 130 192 144
f 130 144 131
f 132 165 193
f 132 193 194
f 132 194 133
f 133 194 167
f 134 148 195
f 134 195 196
f 134 196 135
f 135 197 198
f 135 198 136
f 135 196 199
f 135 199 200
f 135 200 201
f 135 201 202
f 135 202 203
f 135 203 197
f 136 198 204
f 136 204 205
f 136 205 206
f 136 206 137
f 137 206 207
f 137 207 208
f 137 208 209
f 137 209 210
f 137 210 211
f 137 211 138
f 138 211 212
f 138 212 139
f 139 212 213
f 139 213 140
f 140 214 141
f 140 213 153
f 140 153 214
f 141 214 142
f 142 214 215
f 142 215 216
f 142 216 143
f 143 216 217
f 143 217 149
f 144 192 218
f 144 218 145
f 145 218 219
f 145 219 220
f 145 220 146
f 146 220 221
f 146 221 147
f 147 221 148
f 148 221 222
f 148 222 195
f 149 217 151
f 149 151 150
f 151 153 152
f 151 217 216
f 151 216 215
f 151 215 153
f 153 223 224
f 153 224 154
f 153 215 214
f 153 213 225
f 153 225 226
f 153 226 223
f 154 224 223
f 154 223 227
f 154 227 228
f 154 228 157
f 154 157 156
f 157 228 229
f 157 229 158
f 158 229 159
f 159 229 230
f 159 230 160
f 160 230 231
f 160 231 232
f 160 232 233
f 160 233 161
f 161 233 234
f 161 234 235
f 161 235 162
f 162 235 236
f 162 236 163
f 163 236 237
f 163 237 164
f 164 237 165
f 165 237 193
f 166 167 194
f 168 171 176
f 169 194 193
f 169 193 170
f 170 193 238
f 170 238 171
f 171 179 177
f 171 177 176
f 171 238 239
f 171 239 240
f 171 240 179
f 173 179 241
f 173 241 242
f 173 242 174
f 174 242 243
f 174 243 175
f 175 243 189
f 177 179 178
f 179 240 241
f 180 190 188
f 180 188 244
f 180 244 245
f 180 245 246
f 180 246 247
f 180 247 248
f 180 248 181
f 181 248 249
f 181 249 243
f 181 243 250
f 181 250 182
f 182 250 183
f 183 250 251
f 183 251 184
f 184 251 185
f 185 251 252
f 185 252 253
f 185 253 186
f 186 253 187
f 187 253 254
f 187 254 255
f 187 255 191
f 188 189 245
f 188 245 244
f 189 243 245
f 191 255 256
f 191 256 192
f 192 256 218
f 193 257 238
f 193 237 257
f 195 222 258
f 195 258 196
f 196 258 199
f 197 259 231
f 197 231 260
f 197 260 204
f 197 204 198
f 197 203 259
f 199 258 261
f 199 261 200
f 200 261 201
f 201 261 262
f 201 262 263
f 201 263 202
f 202 264 203
f 202 263 265
f 202 265 264
f 203 264 266
f 203 266 267
f 203 267 268
f 203 268 269
f 203 269 259
f 204 260 270
f 204 270 271
f 204 271 205
f 205 271 272
f 205 272 273
f 205 273 206
f 206 273 207
f 207 273 226
f 207 226 274
f 207 274 208
f 208 274 275
f 208 275 276
f 208 276 209
f 209 276 277
f 209 277 210
f 210 277 225
f 210 225 212
f 210 212 211
f 212 225 213
f 218 256 278
f 218 278 219
f 219 278 279
f 219 279 280
f 219 280 220
f 220 280 281
f 220 281 221
f 221 281 222
f 222 281 282
f 222 282 283
f 222 283 258
f 223 228 227
f 223 226 284
f 223 284 272
f 223 272 285
f 223 285 286
f 223 286 287
f 223 287 229
f 223 229 228
f 225 277 288
f 225 288 289
f 225 289 226
f 226 289 274
f 226 273 284
f 229 287 230
f 230 287 231
f 231 259 290
f 231 290 232
f 231 287 291
f 231 291 292
f 231 292 293
f 231 293 260
f 232 294 233
f 232 290 294
f 233 294 295
f 233 295 234
f 234 295 235
f 235 295 296
f 235 296 236
f 236 296 297
f 236 297 298
f 236 298 299
f 236 299 237
f 237 299 257
f 238 257 239
f 239 257 240
f 240 257 300
f 240 300 301
f 240 301 241
f 241 301 302
f 241 302 303
f 241 303 304
f 241 304 242
f 242 304 305
f 242 305 306
f 242 306 307
f 242 307 308
f 242 308 309
f 242 309 243
f 243 249 247
f 243 247 246
f 243 246 245
f 243 309 310
f 243 310 311
f 243 311 312
f 243 312 313
f 243 313 314
f 243 314 250
f 247 249 248
f 250 314 313
f 250 313 251
f 251 313 312
f 251 312 311
f 251 311 310
f 251 310 315
f 251 315 316
f 251 316 317
f 251 317 318
f 251 318 319
f 251 319 252
f 252 319 253
f 253 319 320
f 253 320 321
f 253 321 254
f 254 321 322
f 254 322 323
f 254 323 324
f 254 324 325
f 254 325 255
f 255 325 326
f 255 326 256
f 256 326 327
f 256 327 328
f 256 328 278
f 257 329 330
f 257 330 300
f 257 299 331
f 257 331 329
f 258 283 261
f 259 269 332
f 259 332 333
f 259 333 290
f 260 293 334
f 260 334 285
f 260 285 335
f 260 335 270
f 261 283 262
f 262 283 336
f 262 336 337
f 262 337 338
f 262 338 263
f 263 338 339
f 263 339 265
f 264 265 340
f 264 340 341
f 264 341 266
f 265 339 340
f 266 341 342
f 266 342 343
f 266 343 267
f 267 343 344
f 267 344 268
f 268 344 345
f 268 345 269
f 269 345 346
f 269 346 332
f 270 285 272
f 270 272 271
f 270 335 285
f 272 284 273
f 274 289 275
f 275 288 276
f 275 289 288
f 276 288 277
f 278 328 347
f 278 347 279
f 279 347 348
f 279 348 349
f 279 349 280
f 280 349 350
f 280 350 281
f 281 350 282
f 282 350 351
f 282 351 336
f 282 336 283
f 285 334 352
f 285 352 286
f 286 352 353
f 286 353 354
f 286 354 355
f 286 355 356
f 286 356 357
f 286 357 287
f 287 358 291
f 287 357 359
f 287 359 358
f 290 333 360
f 290 360 361
f 290 361 294
f 291 358 292
f 292 362 334
f 292 334 293
f 292 358 362
f 294 361 363
f 294 363 364
f 294 364 295
f 295 364 296
f 296 364 297
f 297 364 365
f 297 365 366
f 297 366 367
f 297 367 368
f 297 368 298
f 298 368 299
f 299 368 331
f 300 330 301
f 301 369 370
f 301 370 302
f 301 330 400
f 301 400 371
f 301 371 372
f 301 372 369
f 302 370 304
f 302 304 303
f 304 373 374
f 304 374 375
f 304 375 305
f 304 370 376
f 304 376 373
f 305 375 377
f 305 377 306
f 306 377 378
f 306 378 379
f 306 379 307
f 307 379 308
f 308 379 309
f 309 379 380
f 309 380 381
f 309 381 310
f 310 381 315
f 315 382 383
f 315 383 316
f 315 381 382
f 316 383 317
f 317 384 385
f 317 385 318
f 317 383 384
f 318 385 319
f 319 385 320
f 320 386 321
f 320 385 386
f 321 386 387
f 321 387 388
f 321 388 322
f 322 388 389
f 322 389 390
f 322 390 391
f 322 391 323
f 323 391 392
f 323 392 327
f 323 327 324
f 324 326 325
f 324 327 326
f 327 392 393
f 327 393 394
f 327 394 328
f 328 394 395
f 328 395 347
f 329 331 396
f 329 396 397
f 329 397 398
f 329 398 399
f 329 399 372
f 329 372 400
f 329 400 330
f 331 368 396
f 332 346 401
f 332 401 360
f 332 360 402
f 332 402 333
f 333 402 360
f 334 362 352
f 336 351 403
f 336 403 337
f 337 403 338
f 338 403 339
f 339 404 340
f 339 403 405
f 339 405 404
f 340 404 405
f 340 405 341
f 341 405 406
f 341 406 342
f 342 406 343
f 343 406 407
f 343 407 408
f 343 408 344
f 344 408 345
f 345 408 409
f 345 409 410
f 345 410 346
f 346 410 401
f 347 403 349
f 347 349 348
f 347 395 394
f 347 394 403
f 349 403 350
f 350 403 351
f 352 362 353
f 353 362 358
f 353 358 411
f 353 411 354
f 354 411 355
f 355 411 356
f 356 411 359
f 356 359 357
f 358 359 411
f 360 401 412
f 360 412 361
f 361 412 363
f 363 412 413
f 363 413 414
f 363 414 415
f 363 415 365
f 363 365 364
f 365 415 416
f 365 416 366
f 366 416 417
f 366 417 367
f 367 417 418
f 367 418 419
f 367 419 368
f 368 419 396
f 369 420 370
f 369 372 399
f 369 399 420
f 370 420 376
f 371 400 372
f 373 376 421
f 373 421 422
f 373 422 423
f 373 423 424
f 373 424 425
f 373 425 426
f 373 426 374
f 374 426 427
f 374 427 428
f 374 428 375
f 375 428 429
f 375 429 377
f 376 420 430
f 376 430 421
f 377 429 378
f 378 382 381
f 378 381 379
f 378 429 382
f 379 381 380
f 382 431 383
f 382 429 428
f 382 428 427
f 382 427 431
f 383 431 427
f 383 427 432
f 383 432 433
f 383 433 384
f 384 433 385
f 385 433 386
f 386 433 434
f 386 434 387
f 387 434 435
f 387 435 436
f 387 436 437
f 387 437 388
f 388 437 389
f 389 437 438
f 389 438 439
f 389 439 390
f 390 439 391
f 391 439 440
f 391 440 393
f 391 393 392
f 393 440 439
f 393 439 403
f 393 403 394
f 396 419 441
f 396 441 442
f 396 442 443
f 396 443 397
f 397 444 445
f 397 445 446
f 397 446 398
f 397 443 444
f 398 446 430
f 398 430 420
f 398 420 399
f 401 410 447
f 401 447 448
f 401 448 412
f 403 448 447
f 403 447 410
f 403 410 409
f 403 409 408
f 403 408 406
f 403 406 405
f 403 439 438
f 403 438 449
f 403 449 450
f 403 450 451
f 403 451 452
f 403 452 453
f 403 453 454
f 403 454 455
f 403 455 456
f 403 456 457
f 403 457 448
f 406 408 407
f 412 448 457
f 412 457 413
f 413 457 414
f 414 458 416
f 414 416 415
f 414 457 456
f 414 456 455
f 414 455 458
f 416 458 459
f 416 459 417
f 417 460 461
f 417 461 418
f 417 459 462
f 417 462 460
f 418 461 419
f 419 461 463
f 419 463 441
f 421 430 464
f 421 464 422
f 422 465 423
f 422 464 466
f 422 466 467
f 422 467 465
f 423 465 468
f 423 468 424
f 424 468 425
f 425 468 469
f 425 469 470
f 425 470 426
f 426 470 471
f 426 471 427
f 427 471 472
f 427 472 432
f 430 446 464
f 432 472 473
f 432 473 474
f 432 474 433
f 433 474 475
f 433 475 476
f 433 476 477
f 433 477 434
f 434 477 478
f 434 478 435
f 435 478 451
f 435 451 450
f 435 450 449
f 435 449 436
f 436 449 437
f 437 449 479
f 437 479 438
f 438 479 449
f 441 470 469
f 441 469 442
f 441 463 480
f 441 480 470
f 442 469 443
f 443 469 481
f 443 481 444
f 444 481 482
f 444 482 483
f 444 483 484
f 444 484 485
f 444 485 445
f 445 485 464
f 445 464 446
f 451 478 452
f 452 478 486
f 452 486 487
f 452 487 453
f 453 488 454
f 453 487 489
f 453 489 488
f 454 488 489
f 454 489 490
f 454 490 458
f 454 458 455
f 458 490 459
f 459 490 462
f 460 462 473
f 460 473 472
f 460 472 461
f 461 472 463
f 462 491 474
f 462 474 473
f 462 490 489
f 462 489 487
f 462 487 491
f 463 472 480
f 464 485 492
f 464 492 466
f 465 467 493
f 465 493 483
f 465 483 482
f 465 482 468
f 466 484 493
f 466 493 467
f 466 492 484
f 468 482 481
f 468 481 469
f 470 480 471
f 471 480 472
f 474 491 475
f 475 491 494
f 475 494 476
f 476 494 486
f 476 486 477
f 477 486 478
f 483 493 484
f 484 492 485
f 486 494 487
f 487 494 491

